<svg width="38" height="38" viewBox="0 0 38 38" fill="none" xmlns="http://www.w3.org/2000/svg">
<path fill-rule="evenodd" clip-rule="evenodd" d="M14.153 18.8629C13.472 19.8966 12.6387 20.9108 11.541 21.5381C9.53928 22.6819 7.90739 22.6818 7.01494 22.6818H6.99976V20.5H7.01744C7.79509 20.5 8.95984 20.5001 10.4585 19.6437C11.1108 19.271 11.715 18.5978 12.3309 17.6627C12.4345 17.5055 12.5358 17.3451 12.6356 17.1818H6.99976V15H13.8656C13.9458 14.854 14.0272 14.7068 14.11 14.5587C14.7044 13.495 15.3729 12.3819 16.1925 11.5353C17.0337 10.6664 18.1112 10 19.4997 10C20.9982 10 22.1216 10.9432 22.9497 11.9676C23.6561 12.8414 24.2787 13.9381 24.8447 15H30.9998V17.1818H26.0027C26.3556 17.8226 26.6998 18.3988 27.0557 18.8786C27.7152 19.7678 28.1803 20 28.4997 20V20.0409C29.285 20.0141 30.1169 20 30.9998 20V22.1819C22.8893 22.1819 19.4203 23.4049 16.8262 24.584C16.4854 24.7389 16.146 24.9003 15.8039 25.0628C14.8481 25.5172 13.871 25.9817 12.7822 26.3447C11.254 26.854 9.48009 27.1818 6.99976 27.1818V25C9.26942 25 10.808 24.7028 12.0923 24.2748C13.0455 23.957 13.8485 23.5753 14.7608 23.1417C15.1253 22.9685 15.5074 22.7869 15.9233 22.5978C18.077 21.6188 20.7112 20.6641 25.3459 20.2353L25.3032 20.1783C24.601 19.2315 23.9612 18.0101 23.363 16.8681L23.2214 16.598C22.5559 15.3305 21.9316 14.1788 21.2529 13.3392C20.5654 12.4887 20.0013 12.1818 19.4997 12.1818C18.8884 12.1818 18.3408 12.4529 17.7602 13.0528C17.1579 13.6749 16.6076 14.5619 16.0146 15.6231C15.8755 15.8718 15.7336 16.1315 15.5884 16.3969C15.1413 17.2144 14.6645 18.0864 14.153 18.8629Z" fill="currentColor"/>
</svg>
