<svg width="38" height="38" viewBox="0 0 38 38" fill="none" xmlns="http://www.w3.org/2000/svg">
<path d="M9.00024 20.3992L18.7999 24.9782L28.5991 20.3992L18.7997 19.987L9.00024 20.3992Z" fill="currentColor"/>
<path d="M9.00024 20.3992L18.7999 24.9782L28.5991 20.3992L18.7997 19.987L9.00024 20.3992Z" fill="#C1C3C8"/>
<path d="M18.8288 7.00006L9.00378 11.9741V18.9923H20.7851V7.99256L18.8288 7.00006Z" fill="currentColor"/>
<path d="M9.00378 23.9401L18.8347 31.0001L28.6356 23.9401L18.8131 22.4891L9.00378 23.9401Z" fill="currentColor"/>
<path d="M9.00378 23.9401L18.8347 31.0001L28.6356 23.9401L18.8131 22.4891L9.00378 23.9401Z" fill="#C1C3C8"/>
<path d="M18.8295 18.9925H24.013V11.5035L22.4994 10.889L18.8297 11.9755L18.8295 18.9925Z" fill="currentColor"/>
<path d="M22.4987 18.9923H26.5052V14.1348L25.3593 13.7858L22.4987 14.2788V18.9923Z" fill="currentColor"/>
<path d="M25.3595 13.405V18.9923H28.5981L28.6363 13.3803L27.6524 12.9813L25.3595 13.405Z" fill="currentColor"/>
<path d="M18.8295 7.00006V18.9923H20.7857V7.99256L18.8295 7.00006ZM24.013 11.5033L22.4994 10.8888V18.9923H24.013V11.5033ZM26.5059 14.1348L25.36 13.7858V18.9925H26.5059V14.1348ZM27.6529 18.9923H28.6365V13.3801L27.6529 12.9811V18.9923ZM18.7997 21.394V24.9783L28.5989 22.4988V20.3993L18.7997 21.394ZM18.7997 27.461V31L28.6363 26.0075V23.94L18.7997 27.461Z" fill="currentColor"/>
<path d="M18.8295 7.00006V18.9923H20.7857V7.99256L18.8295 7.00006ZM24.013 11.5033L22.4994 10.8888V18.9923H24.013V11.5033ZM26.5059 14.1348L25.36 13.7858V18.9925H26.5059V14.1348ZM27.6529 18.9923H28.6365V13.3801L27.6529 12.9811V18.9923ZM18.7997 21.394V24.9783L28.5989 22.4988V20.3993L18.7997 21.394ZM18.7997 27.461V31L28.6363 26.0075V23.94L18.7997 27.461Z" fill="#888C96"/>
<path d="M9.00468 26.029L18.7999 31V27.435L9.00517 23.9398L9.00468 26.029ZM9.00024 22.4988L18.7999 24.9783V21.394L9.00024 20.399V22.4988Z" fill="currentColor"/>
</svg>
