<svg width="38" height="38" viewBox="0 0 38 38" fill="none" xmlns="http://www.w3.org/2000/svg">
<path d="M28.636 14.7827L28.3202 14.777L18.8253 11.9316L18.8196 11.8001V7.00012L28.6368 11.9709L28.636 14.7827Z" fill="currentColor"/>
<path d="M28.636 14.7827L28.3202 14.777L18.8253 11.9316L18.8196 11.8001V7.00012L28.6368 11.9709L28.636 14.7827Z" fill="#C1C3C8"/>
<path d="M18.8182 12.087L18.8192 7.00006L9.00095 11.969L9 26.0271L9.00475 26.0299L18.8173 30.9979L18.8496 30.9518L18.8372 26.2248L18.8182 26.1989L18.2048 25.7563L10.6109 23.4649L10.6489 14.5725L18.8182 12.087Z" fill="currentColor"/>
<path d="M20.2856 22.168L10.254 23.5964L10.255 14.3997L20.2875 15.8301L20.2856 22.168Z" fill="currentColor"/>
<path d="M20.2856 22.168L10.254 23.5964L10.255 14.3997L20.2875 15.8301L20.2856 22.168Z" fill="#888C96"/>
<path d="M15.2028 21.5865L18.8182 22.0519L18.8192 15.9435L15.2038 16.4091L15.2028 21.5865ZM11.5609 21.1169L13.9067 21.4193L13.9076 16.5763L11.5609 16.8787V21.1169Z" fill="currentColor"/>
<path d="M10.254 14.3998L18.8188 11.7992L28.6352 14.7829L20.2923 15.8311L10.254 14.3998Z" fill="currentColor"/>
<path d="M28.6313 20.7761L18.8187 22.0299L18.8196 15.9435L28.6322 17.2089L28.6313 20.7761ZM28.6303 23.2193L28.4189 23.2289L18.8481 26.1627L18.8178 26.2001L18.8168 31.0001L28.6293 26.0331L28.6303 23.2193Z" fill="currentColor"/>
<path d="M28.6313 20.7761L18.8187 22.0299L18.8196 15.9435L28.6322 17.2089L28.6313 20.7761ZM28.6303 23.2193L28.4189 23.2289L18.8481 26.1627L18.8178 26.2001L18.8168 31.0001L28.6293 26.0331L28.6303 23.2193Z" fill="#C1C3C8"/>
<path d="M10.254 23.5964L18.8178 26.1989L28.6304 23.2191L20.2866 22.1679L10.254 23.5964Z" fill="currentColor"/>
<path d="M10.254 23.5964L18.8178 26.1989L28.6304 23.2191L20.2866 22.1679L10.254 23.5964Z" fill="#EDEEF3"/>
</svg>
