<svg width="38" height="38" viewBox="0 0 38 38" fill="none" xmlns="http://www.w3.org/2000/svg">
<path d="M27.2274 18.9297C27.2272 14.4573 23.6012 10.832 19.1288 10.832C14.6565 10.8322 11.0313 14.4574 11.0311 18.9297C11.0311 23.4021 14.6564 27.0281 19.1288 27.0283V28.4521L18.6395 28.4394C13.6083 28.1846 9.6073 24.0242 9.6073 18.9297C9.60749 13.6712 13.8703 9.40836 19.1288 9.40817C24.3874 9.40817 28.6511 13.6711 28.6512 18.9297L28.6385 19.4199C28.3836 24.451 24.2232 28.4521 19.1288 28.4521V27.0283C23.6013 27.0283 27.2274 23.4022 27.2274 18.9297Z" fill="currentColor"/>
<path d="M19.1278 11.5204C19.5209 11.5204 19.8397 11.8392 19.8397 12.2324V30.0234C19.8395 30.4163 19.5208 30.7353 19.1278 30.7353C18.7349 30.7352 18.4161 30.4163 18.4159 30.0234V12.2324C18.4159 11.8393 18.7347 11.5205 19.1278 11.5204ZM16.4911 30.0156C16.4911 30.4087 16.1723 30.7275 15.7792 30.7275C15.3861 30.7275 15.0673 30.4087 15.0673 30.0156V19.6415H11.3143C10.9212 19.6415 10.6024 19.3227 10.6024 18.9296C10.6026 18.5367 10.9213 18.2177 11.3143 18.2177H16.4911V30.0156ZM26.9413 18.2177C27.3343 18.2177 27.653 18.5367 27.6532 18.9296C27.6532 19.3227 27.3344 19.6415 26.9413 19.6415H23.1884V30.0156C23.1884 30.4087 22.8696 30.7275 22.4764 30.7275C22.0834 30.7274 21.7645 30.4086 21.7645 30.0156V18.2177H26.9413Z" fill="currentColor"/>
<path d="M19.8397 30.0234C19.8395 30.4163 19.5208 30.7353 19.1278 30.7353C18.7349 30.7352 18.4161 30.4163 18.4159 30.0234V12.2324C18.4159 11.8393 18.7347 11.5205 19.1278 11.5204C19.5209 11.5204 19.8397 11.8392 19.8397 12.2324V30.0234ZM16.4911 30.0156C16.4911 30.4087 16.1723 30.7275 15.7792 30.7275C15.3861 30.7275 15.0673 30.4087 15.0673 30.0156V19.6415H11.3143C10.9212 19.6415 10.6024 19.3227 10.6024 18.9296C10.6026 18.5367 10.9213 18.2177 11.3143 18.2177H16.4911V30.0156ZM23.1884 30.0156C23.1884 30.4087 22.8696 30.7275 22.4764 30.7275C22.0834 30.7274 21.7645 30.4086 21.7645 30.0156V18.2177H26.9413C27.3343 18.2177 27.653 18.5367 27.6532 18.9296C27.6532 19.3227 27.3344 19.6415 26.9413 19.6415H23.1884V30.0156Z" fill="currentColor"/>
<path d="M30.9999 18.7926C30.9999 20.488 29.6255 21.8624 27.9301 21.8624C26.2347 21.8624 24.8604 20.488 24.8604 18.7926C24.8604 17.0972 26.2347 15.7228 27.9301 15.7228C29.6255 15.7228 30.9999 17.0972 30.9999 18.7926Z" fill="currentColor"/>
<path d="M29.5761 18.7921C29.5759 17.8832 28.8386 17.1466 27.9296 17.1466C27.0208 17.1469 26.2844 17.8833 26.2842 18.7921C26.2842 19.7011 27.0207 20.4383 27.9296 20.4386V21.8624L27.7724 21.8585C26.1503 21.7764 24.8604 20.4346 24.8604 18.7921C24.8606 17.0971 26.2346 15.7231 27.9296 15.7228C29.6248 15.7228 30.9997 17.097 30.9999 18.7921L30.996 18.9503C30.9139 20.5724 29.5721 21.8624 27.9296 21.8624V20.4386C28.8388 20.4386 29.5761 19.7013 29.5761 18.7921Z" fill="currentColor"/>
<path d="M13.1395 18.7926C13.1395 20.488 11.7652 21.8624 10.0698 21.8624C8.37438 21.8624 7 20.488 7 18.7926C7 17.0972 8.37438 15.7228 10.0698 15.7228C11.7652 15.7228 13.1395 17.0972 13.1395 18.7926Z" fill="currentColor"/>
<path d="M11.7157 18.7921C11.7155 17.8832 10.9783 17.1466 10.0693 17.1466C9.16048 17.1469 8.42403 17.8833 8.4238 18.7921C8.4238 19.7011 9.16034 20.4383 10.0693 20.4386V21.8624L9.91206 21.8585C8.28996 21.7764 7 20.4346 7 18.7921C7.00023 17.0971 8.37427 15.7231 10.0693 15.7228C11.7645 15.7228 13.1393 17.097 13.1395 18.7921L13.1356 18.9503C13.0535 20.5724 11.7117 21.8624 10.0693 21.8624V20.4386C10.9784 20.4386 11.7157 19.7013 11.7157 18.7921Z" fill="currentColor"/>
<path d="M22.0701 10.0696C22.0701 11.765 20.6957 13.1394 19.0003 13.1394C17.3049 13.1394 15.9305 11.765 15.9305 10.0696C15.9305 8.37426 17.3049 6.99988 19.0003 6.99988C20.6957 6.99988 22.0701 8.37426 22.0701 10.0696Z" fill="currentColor"/>
<path d="M20.6463 10.0692C20.646 9.16022 19.9088 8.42368 18.9998 8.42368C18.091 8.42391 17.3546 9.16036 17.3543 10.0692C17.3543 10.9782 18.0909 11.7154 18.9998 11.7156V13.1394L18.8426 13.1355C17.2205 13.0535 15.9305 11.7116 15.9305 10.0692C15.9308 8.37414 17.3048 7.00011 18.9998 6.99988C20.695 6.99988 22.0698 8.374 22.0701 10.0692L22.0662 10.2274C21.9841 11.8494 20.6423 13.1394 18.9998 13.1394V11.7156C19.909 11.7156 20.6463 10.9783 20.6463 10.0692Z" fill="currentColor"/>
</svg>
