<svg width="38" height="38" viewBox="0 0 38 38" fill="none" xmlns="http://www.w3.org/2000/svg">
<path d="M13.1426 23.7998C13.2845 23.7998 13.4002 23.9148 13.4004 24.0566V25.1426C13.4004 25.2846 13.5152 25.3994 13.6572 25.3994H24.3428C24.4847 25.3993 24.5996 25.2845 24.5996 25.1426V24.0566C24.5998 23.9149 24.7147 23.8001 24.8564 23.7998H26.7422C26.8841 23.7998 26.9998 23.9148 27 24.0566V27.543C26.9998 27.6848 26.8841 27.7998 26.7422 27.7998H11.2568C11.1151 27.7996 11.0002 27.6847 11 27.543V24.0566C11.0002 23.9149 11.1151 23.8 11.2568 23.7998H13.1426ZM16.8477 21.4004C16.9896 21.4004 17.1044 21.5153 17.1045 21.6572V23.3027C17.1045 23.4447 16.9896 23.5605 16.8477 23.5605H14.5918C14.4498 23.5605 14.334 23.4448 14.334 23.3027V21.6572C14.3341 21.5153 14.4498 21.4004 14.5918 21.4004H16.8477ZM20.7129 19.7637C20.8547 19.7639 20.9696 19.8787 20.9697 20.0205V21.666C20.9697 21.8079 20.8548 21.9236 20.7129 21.9238H18.4561C18.3142 21.9236 18.1992 21.8079 18.1992 21.666V20.0205C18.1993 19.8787 18.3143 19.7639 18.4561 19.7637H20.7129ZM16.8477 18.1641C16.9896 18.1641 17.1045 18.2789 17.1045 18.4209V20.0664C17.1045 20.2084 16.9896 20.3232 16.8477 20.3232H14.5918C14.4498 20.3232 14.334 20.2084 14.334 20.0664V18.4209C14.334 18.2789 14.4498 18.1641 14.5918 18.1641H16.8477ZM24.5781 18.1641C24.7201 18.1641 24.8359 18.2789 24.8359 18.4209V20.0664C24.8359 20.2084 24.7201 20.3232 24.5781 20.3232H22.3223C22.1803 20.3232 22.0654 20.2084 22.0654 20.0664V18.4209C22.0654 18.2789 22.1803 18.1641 22.3223 18.1641H24.5781ZM20.7129 16.5635C20.8546 16.5637 20.9695 16.6786 20.9697 16.8203V18.4668C20.9695 18.6085 20.8546 18.7235 20.7129 18.7236H18.4561C18.3143 18.7234 18.1994 18.6085 18.1992 18.4668V16.8203C18.1995 16.6786 18.3144 16.5637 18.4561 16.5635H20.7129ZM16.8477 14.8223C16.9897 14.8223 17.1045 14.9371 17.1045 15.0791V16.7246C17.1045 16.8666 16.9897 16.9824 16.8477 16.9824H14.5918C14.4498 16.9824 14.335 16.8666 14.335 16.7246V15.0791C14.335 14.9371 14.4498 14.8223 14.5918 14.8223H16.8477ZM26.7422 11C26.8841 11 26.9998 11.115 27 11.2568V14.7432C26.9998 14.885 26.8841 15 26.7422 15H24.8564C24.7148 14.9998 24.5998 14.8849 24.5996 14.7432V13.6572C24.5996 13.5153 24.4847 13.4005 24.3428 13.4004H13.6572C13.5152 13.4004 13.4004 13.5152 13.4004 13.6572V14.7432C13.4002 14.885 13.2845 15 13.1426 15H11.2568C11.1151 14.9998 11.0002 14.8849 11 14.7432V11.2568C11.0002 11.1151 11.1151 11.0002 11.2568 11H26.7422Z" fill="currentColor"/>
</svg>
