<svg width="38" height="38" viewBox="0 0 38 38" fill="none" xmlns="http://www.w3.org/2000/svg">
<path d="M20.79 13.4775C21.8879 13.4775 22.7781 14.368 22.7783 15.4658C22.7783 15.9271 22.6191 16.3502 22.3555 16.6875L24.4111 19.5644C24.6612 19.4748 24.9301 19.4238 25.2109 19.4238C26.5214 19.4239 27.5838 20.4864 27.584 21.7969C27.5839 22.4376 27.3279 23.0174 26.915 23.4443L28.874 26.8232C28.9704 26.8075 29.0691 26.7979 29.1699 26.7978C30.1806 26.7978 31.0008 27.6172 31.001 28.6279C31.0009 29.6387 30.1807 30.458 29.1699 30.458C28.1593 30.4577 27.3399 29.6386 27.3398 28.6279C27.3399 28.1168 27.5498 27.6543 27.8877 27.3223L25.9824 24.0381C25.7403 24.1214 25.4814 24.1699 25.2109 24.1699C24.956 24.1699 24.7106 24.1281 24.4805 24.0537L23.0156 26.334C23.2832 26.6034 23.4482 26.9751 23.4482 27.3848C23.4482 28.2082 22.7805 28.876 21.957 28.876C21.1338 28.8757 20.4659 28.208 20.4658 27.3848C20.466 26.5616 21.1339 25.8938 21.957 25.8935C21.966 25.8935 21.9754 25.8943 21.9844 25.8945L23.5361 23.4775C23.265 23.2074 23.0581 22.8721 22.9424 22.4971L17.0986 22.9599C16.9181 23.5803 16.3476 24.0342 15.6689 24.0342C14.8456 24.034 14.1777 23.3664 14.1777 22.543C14.1781 21.7198 14.8458 21.0519 15.6689 21.0517C16.2459 21.0517 16.7453 21.3809 16.9932 21.8603L22.873 21.3945C22.9534 20.924 23.1724 20.5015 23.4863 20.1689L21.4609 17.3349C21.2512 17.4102 21.0256 17.4541 20.79 17.4541C19.6924 17.4538 18.8029 16.5635 18.8027 15.4658C18.8029 14.3682 19.6924 13.4779 20.79 13.4775ZM9.14941 21.2842C9.33239 21.2842 9.48047 21.4322 9.48047 21.6152V24.0693C9.48047 24.2523 9.6295 24.4014 9.8125 24.4014H12.2354C12.4181 24.4016 12.5664 24.5496 12.5664 24.7324V26.5195C12.5662 26.7022 12.418 26.8503 12.2354 26.8506H7.33105C7.1482 26.8506 7.00022 26.7023 7 26.5195V21.6152C7 21.4322 7.14806 21.2842 7.33105 21.2842H9.14941ZM26.5195 6.99998C26.7024 7 26.8504 7.14818 26.8506 7.33104V12.2353C26.8505 12.4183 26.7025 12.5664 26.5195 12.5664H24.7012C24.5182 12.5664 24.3702 12.4183 24.3701 12.2353V9.78026C24.3699 9.59744 24.221 9.4492 24.0381 9.4492H21.6152C21.4325 9.44902 21.2843 9.30094 21.2842 9.11815V7.33104C21.2843 7.14828 21.4325 7.00017 21.6152 6.99998H26.5195Z" fill="currentColor"/>
</svg>
