<svg width="38" height="38" viewBox="0 0 38 38" fill="none" xmlns="http://www.w3.org/2000/svg">
<mask id="mask0_279_10363" style="mask-type:alpha" maskUnits="userSpaceOnUse" x="2" y="6" width="34" height="25">
<path d="M14.4671 30.2236V23.94H21.5052V30.2209H35.2857V6.42065H2.71423V30.2222H14.4671V30.2236Z" fill="black"/>
</mask>
<g mask="url(#mask0_279_10363)">
<mask id="mask1_279_10363" style="mask-type:luminance" maskUnits="userSpaceOnUse" x="4" y="8" width="30" height="21">
<path fill-rule="evenodd" clip-rule="evenodd" d="M27.7426 28.4756C29.0926 28.3542 30.3639 27.7871 31.3561 26.8637C32.3484 25.9402 33.0052 24.713 33.2232 23.3752C33.4412 22.0374 33.2079 20.6651 32.5602 19.4744C31.9124 18.2838 30.887 17.3424 29.6453 16.7987C29.4652 15.3704 28.7984 14.0479 27.7572 13.0537C26.716 12.0595 25.3641 11.4544 23.929 11.3403C23.336 10.3937 22.5118 9.61366 21.5341 9.07352C20.5564 8.53338 19.4573 8.25094 18.3403 8.25279C14.7073 8.25279 11.7623 11.1829 11.7623 14.7969C11.7623 15.2828 11.8152 15.7578 11.9156 16.2138C11.6034 16.1668 11.2881 16.1432 10.9724 16.1432C7.50898 16.1432 4.70105 18.9362 4.70105 22.382C4.70105 25.8278 7.50898 28.6208 10.9724 28.6208C11.8541 28.6224 12.7262 28.4381 13.5318 28.0798C14.3374 27.7216 15.0584 27.1974 15.6478 26.5416H16.2856V28.5H27.7426V28.4756Z" fill="white"/>
</mask>
<g mask="url(#mask1_279_10363)">
<path d="M27.7426 28.4756L27.5852 26.7181C27.1462 26.7574 26.7379 26.9596 26.4405 27.2848C26.1432 27.6101 25.9783 28.0349 25.9783 28.4756H27.7426ZM29.6453 16.7987L27.8946 17.0131C27.9318 17.3168 28.0473 17.6056 28.2298 17.8511C28.4123 18.0967 28.6555 18.2905 28.9356 18.4137L29.6453 16.7987ZM23.9291 11.3403L22.4335 12.2767C22.5795 12.5099 22.778 12.7057 23.0132 12.8485C23.2483 12.9913 23.5137 13.0772 23.7879 13.0991L23.9291 11.3403ZM11.9156 16.2124L11.6537 17.9577C11.9369 18.0004 12.2263 17.9735 12.4969 17.8794C12.7674 17.7852 13.0109 17.6265 13.2064 17.4172C13.4019 17.2078 13.5434 16.954 13.6188 16.6776C13.6942 16.4013 13.7012 16.1107 13.6392 15.8311L11.9156 16.2124ZM15.6478 26.5403V24.776C15.4002 24.776 15.1554 24.828 14.9293 24.9288C14.7032 25.0296 14.5009 25.1768 14.3354 25.3609L15.6478 26.5403ZM16.2856 26.5403H18.0499C18.0499 26.0724 17.864 25.6236 17.5332 25.2927C17.2023 24.9619 16.7535 24.776 16.2856 24.776V26.5403ZM16.2856 28.5H14.5213C14.5213 28.9679 14.7072 29.4167 15.0381 29.7475C15.369 30.0784 15.8177 30.2643 16.2856 30.2643V28.5ZM27.7426 28.5V30.2643C28.2105 30.2643 28.6593 30.0784 28.9902 29.7475C29.321 29.4167 29.5069 28.9679 29.5069 28.5H27.7426ZM27.9001 30.2331C29.8572 30.0562 31.6774 29.1537 33.0029 27.7029C34.3284 26.2521 35.0632 24.358 35.0631 22.3929H31.5345C31.5345 23.4766 31.1294 24.5211 30.3987 25.3214C29.668 26.1217 28.6644 26.6199 27.5852 26.7181L27.9001 30.2331ZM35.0631 22.3929C35.0632 20.8638 34.618 19.3679 33.782 18.0877C32.9459 16.8074 31.7552 15.7984 30.3551 15.1837L28.9356 18.4137C29.7085 18.7528 30.3659 19.3097 30.8274 20.0164C31.289 20.723 31.5347 21.5488 31.5345 22.3929H35.0631ZM31.3974 16.5843C31.1678 14.7521 30.3135 13.0552 28.9785 11.7796C27.6435 10.5039 25.9095 9.72758 24.0688 9.58143L23.7879 13.0991C24.8178 13.1806 25.7883 13.6142 26.5362 14.327C27.2841 15.0398 27.7638 15.9883 27.8946 17.0131L31.3974 16.5843ZM25.4233 10.4039C24.6716 9.20407 23.6272 8.2152 22.3881 7.53027C21.149 6.84533 19.7561 6.48683 18.3403 6.4885V10.0171C19.1583 10.0153 19.9633 10.2218 20.6794 10.6171C21.3955 11.0124 21.9991 11.5836 22.4335 12.2767L25.4233 10.4039ZM18.3403 6.4885C13.7423 6.4885 9.99798 10.1989 9.99798 14.7969H13.5266C13.5266 12.1654 15.6736 10.0171 18.3403 10.0171V6.4885ZM9.99798 14.7969C9.99798 15.4131 10.0658 16.0143 10.1934 16.5951L13.6378 15.8311C13.5632 15.4914 13.5258 15.1447 13.5266 14.7969H9.99798ZM12.1776 14.4685C11.7786 14.4087 11.3758 14.3788 10.9724 14.3789V17.9075C11.2058 17.9075 11.4338 17.9251 11.6537 17.9577L12.1776 14.4685ZM10.9724 14.3789C6.5427 14.3789 2.93677 17.9536 2.93677 22.382H6.46534C6.46534 19.9188 8.47391 17.9075 10.9724 17.9075V14.3789ZM2.93677 22.382C2.93677 26.8104 6.5427 30.3851 10.9724 30.3851V26.8565C8.47527 26.8565 6.46534 24.8439 6.46534 22.382H2.93677ZM10.9724 30.3851C12.1014 30.3865 13.218 30.1501 14.2495 29.691C15.281 29.232 16.2041 28.5607 16.9588 27.721L14.3354 25.3609C13.9117 25.8329 13.3931 26.21 12.8136 26.4678C12.2341 26.7255 11.6067 26.8579 10.9724 26.8565V30.3851ZM15.6478 28.3059H16.2856V24.776H15.6478V28.3059ZM18.0499 28.5V26.5403H14.5213V28.5H18.0499ZM27.7426 26.7357H16.2856V30.2643H27.7426V26.7357ZM25.9783 28.4756V28.5H29.5069V28.4756H25.9783Z" fill="currentColor"/>
</g>
</g>
<path d="M21.0409 27.686C21.0409 27.2003 20.6477 26.8063 20.162 26.8061C19.6762 26.8061 19.2821 27.2002 19.2821 27.686C19.2823 28.1717 19.6763 28.5649 20.162 28.5649C20.6476 28.5648 21.0407 28.1716 21.0409 27.686ZM21.996 27.686C21.9958 28.699 21.175 29.5198 20.162 29.52C19.1488 29.52 18.3272 28.6991 18.327 27.686C18.327 26.6728 19.1487 25.851 20.162 25.851C21.1751 25.8512 21.996 26.6729 21.996 27.686Z" fill="currentColor"/>
<path d="M20.1613 20.9868L20.6046 21.4624L14.254 27.3716L13.3693 26.4204L19.7189 20.5113L20.1613 20.9868Z" fill="currentColor"/>
<path d="M22.322 19.6951C22.322 19.2094 21.9288 18.8154 21.4431 18.8152C20.9573 18.8152 20.5632 19.2093 20.5632 19.6951C20.5634 20.1808 20.9574 20.574 21.4431 20.574C21.9287 20.5739 22.3219 20.1807 22.322 19.6951ZM23.2771 19.6951C23.2769 20.7082 22.4561 21.529 21.4431 21.5291C20.43 21.5291 19.6083 20.7082 19.6082 19.6951C19.6082 18.6819 20.4299 17.8602 21.4431 17.8602C22.4562 17.8603 23.2771 18.682 23.2771 19.6951Z" fill="currentColor"/>
<mask id="mask2_279_10363" style="mask-type:luminance" maskUnits="userSpaceOnUse" x="22" y="14" width="5" height="6">
<path d="M25.874 19.2796C26.3462 19.228 26.6937 18.8019 26.5702 18.3431C26.3476 17.5163 25.9358 16.7526 25.3672 16.1124C24.7986 15.4722 24.0888 14.973 23.294 14.6544C22.853 14.478 22.3875 14.7725 22.2816 15.2353C22.1757 15.6981 22.4716 16.1514 22.8991 16.359C23.3484 16.5767 23.7504 16.881 24.082 17.2543C24.4137 17.6276 24.6684 18.0626 24.8317 18.5345C24.9864 18.9824 25.4017 19.3298 25.874 19.2796Z" fill="white"/>
</mask>
<g mask="url(#mask2_279_10363)">
<path d="M20.3322 14.7892C20.6531 13.3869 22.1634 12.1657 23.8713 12.7365L24.0363 12.797L24.0383 12.798C25.121 13.232 26.0879 13.9121 26.8625 14.7843C27.6371 15.6565 28.198 16.697 28.5012 17.8234C28.9999 19.676 27.5576 21.1075 26.091 21.2677L26.0852 21.2687C24.4391 21.4436 23.311 20.2564 22.9416 19.1886L22.8752 19.0245C22.8013 18.8641 22.7048 18.7147 22.5871 18.5822C22.4302 18.4055 22.2392 18.2614 22.0266 18.1583H22.0256C21.0115 17.6658 19.9624 16.4058 20.3322 14.7892Z" fill="currentColor"/>
</g>
<path d="M31.8982 17.3199C32.342 17.3864 32.7614 17.0796 32.7817 16.6304C32.8315 15.5643 32.6607 14.4993 32.2801 13.5022C31.8995 12.5051 31.3172 11.5972 30.5696 10.8354C29.8195 10.0695 28.9199 9.46582 27.9268 9.06194C26.9337 8.65806 25.8681 8.46256 24.7963 8.48757C24.3485 8.49707 24.0322 8.90829 24.0879 9.35207C24.1435 9.79722 24.5493 10.108 24.9985 10.1107C25.8184 10.1157 26.6292 10.2826 27.3845 10.6016C28.1397 10.9207 28.8246 11.3857 29.3997 11.97C29.9707 12.5526 30.4201 13.243 30.7218 14.0009C31.0236 14.7588 31.1716 15.5692 31.1572 16.3848C31.1491 16.8354 31.4517 17.2534 31.8982 17.3199Z" fill="currentColor"/>
</svg>
