<svg width="38" height="38" viewBox="0 0 38 38" fill="none" xmlns="http://www.w3.org/2000/svg">
<path d="M7.91054 19.822L9.64084 20.3706C9.37556 21.3352 8.93345 22.0528 8.31448 22.523C7.69952 22.9892 6.91778 23.2223 5.96922 23.2223C4.79559 23.2223 3.83096 22.8224 3.07534 22.0225C2.31971 21.2187 1.94189 20.1214 1.94189 18.7307C1.94189 17.2597 2.32172 16.1182 3.08137 15.3063C3.84101 14.4904 4.8398 14.0824 6.07775 14.0824C7.15893 14.0824 8.03715 14.402 8.71238 15.0411C9.11431 15.4189 9.41576 15.9615 9.61673 16.6688L7.85024 17.0909C7.74574 16.6327 7.5267 16.2709 7.19309 16.0057C6.86352 15.7404 6.46159 15.6078 5.98731 15.6078C5.33216 15.6078 4.7996 15.8429 4.38964 16.3131C3.98369 16.7834 3.78071 17.545 3.78071 18.5982C3.78071 19.7155 3.98168 20.5113 4.38361 20.9856C4.78554 21.4598 5.30804 21.6971 5.95114 21.6971C6.42541 21.6971 6.83336 21.5463 7.17501 21.2449C7.51664 20.9434 7.76182 20.4691 7.91054 19.822ZM10.9948 19.7798C10.9948 19.2171 11.1334 18.6725 11.4108 18.146C11.6881 17.6194 12.08 17.2175 12.5864 16.9401C13.0968 16.6629 13.6656 16.5242 14.2926 16.5242C15.2613 16.5242 16.0551 16.8397 16.6741 17.4708C17.2929 18.0978 17.6025 18.8916 17.6025 19.8522C17.6025 20.8207 17.289 21.6247 16.662 22.2637C16.0389 22.8988 15.2531 23.2162 14.3046 23.2162C13.7178 23.2162 13.1571 23.0836 12.6226 22.8183C12.092 22.5531 11.6881 22.1653 11.4108 21.6548C11.1334 21.1404 10.9948 20.5154 10.9948 19.7798ZM12.7311 19.8702C12.7311 20.5053 12.8818 20.9916 13.1833 21.3293C13.4847 21.6668 13.8565 21.8356 14.2987 21.8356C14.7407 21.8356 15.1105 21.6668 15.408 21.3293C15.7094 20.9916 15.8601 20.5013 15.8601 19.8581C15.8601 19.2311 15.7094 18.7488 15.408 18.4113C15.1105 18.0736 14.7407 17.9048 14.2987 17.9048C13.8565 17.9048 13.4847 18.0736 13.1833 18.4113C12.8818 18.7488 12.7311 19.2352 12.7311 19.8702ZM27.1376 23.0716H25.1964L24.4246 21.0639H20.8917L20.1622 23.0716H18.2691L21.7117 14.2332H23.5986L27.1376 23.0716ZM23.8519 19.5748L22.6341 16.2951L21.4404 19.5748H23.8519ZM28.3108 23.0716V14.2332H31.1745C32.2596 14.2332 32.9671 14.2774 33.2966 14.3658C33.8031 14.4985 34.2271 14.7878 34.5687 15.2339C34.9104 15.6761 35.0813 16.2488 35.0813 16.9522C35.0813 17.4948 34.9827 17.9511 34.7858 18.3208C34.5889 18.6906 34.3377 18.982 34.0322 19.195C33.7308 19.404 33.4233 19.5427 33.1098 19.611C32.6837 19.6954 32.0668 19.7376 31.2589 19.7376H30.0953V23.0716H28.3108ZM30.0953 15.7283V18.2363H31.072C31.7754 18.2363 32.2457 18.1902 32.4828 18.0978C32.7198 18.0054 32.9048 17.8605 33.0374 17.6636C33.1741 17.4667 33.2423 17.2376 33.2423 16.9764C33.2423 16.6549 33.1479 16.3895 32.959 16.1805C32.7701 15.9715 32.5309 15.8408 32.2416 15.7886C32.0285 15.7484 31.6005 15.7283 30.9575 15.7283H30.0953Z" fill="currentColor"/>
</svg>
