<svg width="38" height="38" viewBox="0 0 38 38" fill="none" xmlns="http://www.w3.org/2000/svg">
<path fill-rule="evenodd" clip-rule="evenodd" d="M18.7786 12.1335C18.3314 13.2284 17.2559 13.9999 16.0001 13.9999C14.7371 13.9999 13.6564 13.2194 13.214 12.1145C13.1446 12.127 13.0731 12.1335 13.0001 12.1335H8.20012C7.53739 12.1335 7.00012 11.5962 7.00012 10.9335C7.00012 10.2707 7.53739 9.73348 8.20012 9.73348H13.0001C13.0915 9.73348 13.1806 9.7437 13.2661 9.76307C13.7373 8.72324 14.7843 7.99991 16.0001 7.99991C17.2044 7.99991 18.243 8.70954 18.7205 9.73348H29.8001C30.4629 9.73348 31.0001 10.2707 31.0001 10.9335C31.0001 11.5962 30.4629 12.1335 29.8001 12.1335H18.7786ZM8.20012 18.1334C7.53739 18.1334 7.00012 18.6708 7.00012 19.3334C7.00012 19.9962 7.53739 20.5334 8.20012 20.5334H22.6001C22.6731 20.5334 22.7446 20.5269 22.814 20.5145C23.2564 21.6194 24.3371 22.3999 25.6001 22.3999C26.8559 22.3999 27.9314 21.6284 28.3786 20.5334H29.8001C30.4629 20.5334 31.0001 19.9962 31.0001 19.3334C31.0001 18.6708 30.4629 18.1334 29.8001 18.1334H28.3205C27.843 17.1096 26.8044 16.3999 25.6001 16.3999C24.3843 16.3999 23.3373 17.1233 22.8662 18.1631C22.7806 18.1437 22.6916 18.1334 22.6001 18.1334H8.20012ZM8.20012 26.5334C7.53739 26.5334 7.00012 27.0708 7.00012 27.7334C7.00012 28.3962 7.53739 28.9334 8.20012 28.9334H9.62168C10.0688 30.0284 11.1444 30.7999 12.4001 30.7999C13.6631 30.7999 14.7438 30.0194 15.1863 28.9145C15.2556 28.9269 15.3272 28.9334 15.4001 28.9334H29.8001C30.4629 28.9334 31.0001 28.3962 31.0001 27.7334C31.0001 27.0708 30.4629 26.5334 29.8001 26.5334H15.4001C15.3087 26.5334 15.2196 26.5437 15.1341 26.5631C14.663 25.5233 13.616 24.7999 12.4001 24.7999C11.1958 24.7999 10.1572 25.5096 9.67975 26.5334H8.20012Z" fill="currentColor"/>
</svg>
