<svg width="38" height="38" viewBox="0 0 38 38" fill="none" xmlns="http://www.w3.org/2000/svg">
<path d="M37.2579 13.7774L33.9141 24.0424H32.4403L35.784 13.7774H37.2579Z" fill="currentColor"/>
<path d="M33.8 13.7774L30.4563 24.0424H28.9824L32.3262 13.7774H33.8Z" fill="currentColor"/>
<path d="M25.7909 22.2699C25.7909 21.9755 25.8948 21.7288 26.1025 21.5297C26.3146 21.3306 26.5895 21.231 26.9271 21.231C27.2691 21.231 27.5418 21.3306 27.7452 21.5297C27.953 21.7288 28.0568 21.9755 28.0568 22.2699C28.0568 22.5599 27.953 22.8044 27.7452 23.0035C27.5418 23.2026 27.2691 23.3022 26.9271 23.3022C26.5895 23.3022 26.3146 23.2026 26.1025 23.0035C25.8948 22.8044 25.7909 22.5599 25.7909 22.2699ZM25.7909 16.9978C25.7909 16.7034 25.8948 16.4567 26.1025 16.2576C26.3146 16.0585 26.5895 15.959 26.9271 15.959C27.2691 15.959 27.5418 16.0585 27.7452 16.2576C27.953 16.4567 28.0568 16.7034 28.0568 16.9978C28.0568 17.2878 27.953 17.5324 27.7452 17.7315C27.5418 17.9306 27.2691 18.0301 26.9271 18.0301C26.5895 18.0301 26.3146 17.9306 26.1025 17.7315C25.8948 17.5324 25.7909 17.2878 25.7909 16.9978Z" fill="currentColor"/>
<path d="M19.9891 17.5562V25.9317H17.9634V16.2057H19.8528L19.9891 17.5562ZM24.3717 19.6403V19.7767C24.3717 20.2874 24.3132 20.7614 24.1964 21.1986C24.0795 21.6314 23.9042 22.0101 23.6705 22.3348C23.4411 22.6594 23.1575 22.9126 22.8199 23.0944C22.4823 23.2719 22.0906 23.3606 21.6447 23.3606C21.2205 23.3606 20.8526 23.2719 20.541 23.0944C20.2337 22.9126 19.974 22.6616 19.7619 22.3413C19.5541 22.0166 19.3853 21.6466 19.2554 21.231C19.1299 20.8112 19.0325 20.3632 18.9633 19.887V19.6208C19.0325 19.1144 19.1321 18.6448 19.2619 18.2119C19.3918 17.7791 19.5606 17.4047 19.7683 17.0887C19.9761 16.7684 20.2337 16.5195 20.541 16.342C20.8483 16.1646 21.2141 16.0758 21.6382 16.0758C22.0797 16.0758 22.4715 16.1602 22.8134 16.329C23.1554 16.4978 23.4411 16.7402 23.6705 17.0562C23.9042 17.3679 24.0795 17.7423 24.1964 18.1795C24.3132 18.6166 24.3717 19.1036 24.3717 19.6403ZM22.3395 19.7767V19.6403C22.3395 19.3546 22.3178 19.0928 22.2745 18.8547C22.2312 18.6123 22.162 18.4024 22.0668 18.2249C21.9715 18.0431 21.846 17.9024 21.6902 17.8029C21.5344 17.7033 21.3439 17.6535 21.1188 17.6535C20.8764 17.6535 20.6708 17.6925 20.502 17.7704C20.3332 17.8483 20.1969 17.963 20.093 18.1145C19.9891 18.2617 19.9134 18.4435 19.8657 18.6599C19.8225 18.8763 19.7986 19.1231 19.7943 19.4001V20.1143C19.7986 20.4389 19.8441 20.7289 19.9307 20.9843C20.0216 21.2353 20.1622 21.4323 20.3527 21.5751C20.5475 21.7136 20.8072 21.7829 21.1318 21.7829C21.3612 21.7829 21.5517 21.7331 21.7032 21.6336C21.859 21.5297 21.9824 21.3847 22.0733 21.1986C22.1685 21.0124 22.2356 20.7982 22.2745 20.5558C22.3178 20.3134 22.3395 20.0537 22.3395 19.7767Z" fill="currentColor"/>
<path d="M16.7456 16.2057V17.6276H12.5773V16.2057H16.7456ZM13.5317 14.4656H15.5639V21.0297C15.5639 21.2245 15.5877 21.3739 15.6353 21.4777C15.6829 21.5816 15.7609 21.6552 15.8691 21.6985C15.9773 21.7374 16.1158 21.7569 16.2846 21.7569C16.4058 21.7569 16.5097 21.7526 16.5962 21.7439C16.6828 21.7353 16.7629 21.7245 16.8365 21.7115V23.1788C16.6633 23.2351 16.4794 23.2784 16.2846 23.3087C16.0898 23.3433 15.8777 23.3606 15.6483 23.3606C15.2111 23.3606 14.8324 23.2892 14.5121 23.1464C14.1961 23.0035 13.9537 22.7784 13.7849 22.4711C13.6161 22.1595 13.5317 21.7548 13.5317 21.257V14.4656Z" fill="currentColor"/>
<path d="M11.9632 16.2057V17.6276H7.79492V16.2057H11.9632ZM8.74935 14.4656H10.7816V21.0297C10.7816 21.2245 10.8054 21.3739 10.853 21.4777C10.9006 21.5816 10.9785 21.6552 11.0867 21.6985C11.1949 21.7374 11.3334 21.7569 11.5023 21.7569C11.6234 21.7569 11.7273 21.7526 11.8139 21.7439C11.9005 21.7353 11.9805 21.7245 12.0541 21.7115V23.1788C11.881 23.2351 11.697 23.2784 11.5023 23.3087C11.3075 23.3433 11.0954 23.3606 10.866 23.3606C10.4288 23.3606 10.0501 23.2892 9.72974 23.1464C9.41377 23.0035 9.17137 22.7784 9.00256 22.4711C8.83375 22.1595 8.74935 21.7548 8.74935 21.257V14.4656Z" fill="currentColor"/>
<path d="M2.65548 13.258V23.2308H0.629761V13.258H2.65548ZM2.38928 19.4715L1.88285 19.4845C1.88285 18.991 1.94345 18.5387 2.06465 18.1275C2.19017 17.712 2.36764 17.3506 2.59705 17.0432C2.82646 16.7359 3.10131 16.4978 3.42162 16.329C3.74625 16.1602 4.10335 16.0758 4.49291 16.0758C4.83919 16.0758 5.15517 16.1256 5.44085 16.2251C5.72653 16.3247 5.97325 16.4827 6.18102 16.6991C6.38878 16.9155 6.54893 17.1991 6.66147 17.5497C6.77401 17.9003 6.83029 18.3266 6.83029 18.8287V23.2308H4.79158V18.8157C4.79158 18.5171 4.74829 18.2833 4.66172 18.1145C4.57948 17.9457 4.45829 17.8267 4.29813 17.7574C4.14231 17.6882 3.95186 17.6535 3.72678 17.6535C3.46274 17.6535 3.24415 17.7012 3.07101 17.7964C2.89788 17.8873 2.76153 18.015 2.66197 18.1795C2.56242 18.3439 2.491 18.5365 2.44772 18.7573C2.40876 18.9781 2.38928 19.2161 2.38928 19.4715Z" fill="currentColor"/>
</svg>
