<svg width="38" height="38" viewBox="0 0 38 38" fill="none" xmlns="http://www.w3.org/2000/svg">
<path d="M25.2927 24.7725C25.8518 23.8003 25.8559 22.4817 25.1731 21.0314C24.4926 19.5859 23.169 18.1247 21.327 17.0569C19.485 15.9892 17.5628 15.5691 15.9757 15.7001C14.383 15.8316 13.2479 16.4944 12.6887 17.4667C12.1298 18.4389 12.1261 19.7567 12.8089 21.207C13.4894 22.6525 14.8124 24.1146 16.6544 25.1823L16.0566 26.2219L15.6824 25.997C12.0051 23.6892 10.1985 19.8522 11.5087 17.1326L11.6504 16.8648C13.271 14.0465 17.8714 13.6667 21.9253 16.0165L22.2991 16.2422C26.0988 18.6269 27.9011 22.6443 26.3311 25.3744L26.1701 25.631C24.423 28.2131 19.9837 28.4981 16.0566 26.2219L16.6544 25.1823C18.4964 26.2499 20.4192 26.6693 22.0063 26.5383C23.5985 26.4067 24.7336 25.7446 25.2927 24.7725Z" fill="url(#paint0_linear_279_10774)"/>
<path d="M22.2793 14.7941C21.9268 14.5898 21.1171 14.5609 19.816 15.4477C18.5917 16.2823 17.2547 17.739 16.1594 19.6436C15.0643 21.5481 14.4767 23.4382 14.3689 24.9199C14.2543 26.4949 14.6842 27.1842 15.0367 27.3885C15.3893 27.5928 16.1988 27.622 17.5 26.7349C18.7243 25.9003 20.0609 24.4444 21.1561 22.5399L22.1945 23.1418L21.9723 23.5164C19.723 27.2151 16.5431 29.3833 14.6254 28.5249L14.4384 28.4289C12.4852 27.2968 12.7908 23.094 15.1211 19.0417C17.4514 14.9894 20.9239 12.6224 22.8771 13.7545L23.0534 13.8692C24.8093 15.1486 24.4521 19.2159 22.1945 23.1418L21.1561 22.5399C22.2513 20.6353 22.8394 18.7445 22.9471 17.2627C23.0616 15.6881 22.6317 14.9985 22.2793 14.7941Z" fill="url(#paint1_linear_279_10774)"/>
<path d="M24.8766 17.0572C24.4135 16.3608 23.4175 15.8795 21.8642 15.9468C20.3362 16.0131 18.4764 16.6201 16.6938 17.8149C14.911 19.0099 13.6391 20.5021 12.9923 21.8937C12.3349 23.3081 12.3958 24.4162 12.8589 25.1127C13.322 25.8091 14.3181 26.2904 15.8713 26.223C17.3994 26.1568 19.2598 25.5494 21.0425 24.3544L21.7071 25.3538L21.3424 25.5901C17.6865 27.8806 13.65 28.0557 12.0169 25.9945L11.8619 25.7809C10.294 23.4232 12.1599 19.4091 16.0292 16.8155L16.3931 16.5798C20.1709 14.2128 24.3547 14.1049 25.8736 16.389L26.0107 16.6145C27.3231 18.9959 25.4553 22.8413 21.7071 25.3538L21.0425 24.3544C22.825 23.1596 24.0964 21.6676 24.7432 20.2762C25.4006 18.8618 25.3397 17.7536 24.8766 17.0572Z" fill="url(#paint2_linear_279_10774)"/>
<path d="M18.9678 13.998C14.965 13.9981 11.7121 17.2567 11.7119 21.2871C11.7119 25.3176 14.9648 28.577 18.9678 28.5771C22.9708 28.5771 26.2246 25.3177 26.2246 21.2871L27.4238 21.2871L27.4131 21.7246C27.1865 26.2103 23.492 29.7773 18.9678 29.7773C14.2976 29.7772 10.5117 25.9758 10.5117 21.2871L10.5225 20.8506C10.7489 16.3648 14.4435 12.7979 18.9678 12.7978C23.6379 12.7978 27.4236 16.5984 27.4238 21.2871L26.2246 21.2871C26.2244 17.2567 22.9707 13.998 18.9678 13.998Z" fill="url(#paint3_linear_279_10774)"/>
<path fill-rule="evenodd" clip-rule="evenodd" d="M30.0457 13.7505C30.3273 13.5764 30.6954 13.6638 30.869 13.9459C31.0425 14.228 30.955 14.5974 30.6736 14.772L28.41 16.1754C28.1284 16.3498 27.7603 16.2631 27.5867 15.981C27.4132 15.6988 27.5006 15.3285 27.782 15.1539L30.0457 13.7505ZM7.13262 13.9898C7.30578 13.7074 7.67401 13.6195 7.95587 13.7935L10.1561 15.1529C10.4377 15.3271 10.5254 15.6967 10.3524 15.9791C10.1792 16.2615 9.81096 16.3494 9.52911 16.1754L7.32891 14.816C7.04734 14.6418 6.95969 14.2722 7.13262 13.9898ZM25.0369 8.9986C25.2006 8.71049 25.5668 8.61124 25.8543 8.77594C26.1415 8.94077 26.2416 9.30733 26.0779 9.59528L24.7029 12.0142C24.5391 12.302 24.174 12.4024 23.8865 12.2379C23.5991 12.0732 23.4985 11.7066 23.6619 11.4185L25.0369 8.9986ZM12.0496 8.8775C12.3325 8.70527 12.7004 8.79527 12.8719 9.07867L14.2469 11.3511C14.4181 11.6346 14.3275 12.0039 14.0447 12.1763C13.7619 12.3487 13.394 12.2584 13.2225 11.9752L11.8475 9.7027C11.6761 9.4192 11.7668 9.04999 12.0496 8.8775ZM18.9695 7.04059C19.3006 7.04075 19.5689 7.30914 19.5691 7.6402V10.2945C19.5691 10.6257 19.3007 10.8939 18.9695 10.8941C18.6382 10.8941 18.37 10.6258 18.3699 10.2945V7.6402C18.3702 7.30903 18.6383 7.04059 18.9695 7.04059Z" fill="currentColor"/>
<defs>
<linearGradient id="paint0_linear_279_10774" x1="21.8534" y1="19.8819" x2="16.0395" y2="26.2068" gradientUnits="userSpaceOnUse">
<stop stop-color="currentColor" stop-opacity="0"/>
<stop offset="0.510417" stop-color="currentColor"/>
</linearGradient>
<linearGradient id="paint1_linear_279_10774" x1="14.9156" y1="19.1285" x2="20.0375" y2="21.7483" gradientUnits="userSpaceOnUse">
<stop offset="0.369792" stop-color="currentColor"/>
<stop offset="1" stop-color="currentColor" stop-opacity="0"/>
</linearGradient>
<linearGradient id="paint2_linear_279_10774" x1="21.9341" y1="14.6039" x2="20.6299" y2="21.1446" gradientUnits="userSpaceOnUse">
<stop offset="0.369792" stop-color="currentColor"/>
<stop offset="1" stop-color="currentColor" stop-opacity="0"/>
</linearGradient>
<linearGradient id="paint3_linear_279_10774" x1="13.1622" y1="17.0967" x2="26.1406" y2="25.7677" gradientUnits="userSpaceOnUse">
<stop stop-color="currentColor" stop-opacity="0"/>
<stop offset="0.520833" stop-color="currentColor"/>
</linearGradient>
</defs>
</svg>
