<svg width="38" height="38" viewBox="0 0 38 38" fill="none" xmlns="http://www.w3.org/2000/svg">
<path fill-rule="evenodd" clip-rule="evenodd" d="M10.0055 15.8694H11.6033C11.6033 13.4347 12.8404 8.56515 18.1664 8.56515V26.3042C18.1664 26.8259 17.462 28.3911 16.3968 28.9129C16.2659 28.977 16.1555 29.0333 16.0588 29.0826C15.8502 29.189 15.7044 29.2633 15.5512 29.315C15.1976 29.4346 14.8035 29.4346 13.4998 29.4346V30.9998H19.3326L25.166 30.9999V29.4347C23.8623 29.4347 23.4683 29.4347 23.1147 29.3151C22.9616 29.2634 22.8162 29.1891 22.6075 29.0829C22.5107 29.0335 22.4003 28.9771 22.2692 28.913C21.204 28.3913 20.4992 26.8261 20.4992 26.3043V8.56529C25.8254 8.56529 27.0627 13.4348 27.0627 15.8695H28.6606V7.00009H19.3332L10.0055 6.99994V15.8694ZM23.9996 18.4285H28.6663V22.2863H23.9996V18.4285ZM14.6663 18.4285H9.99963V22.2051H14.6663V18.4285Z" fill="currentColor"/>
</svg>
