<svg width="38" height="38" viewBox="0 0 38 38" fill="none" xmlns="http://www.w3.org/2000/svg">
<mask id="mask0_279_10960" style="mask-type:luminance" maskUnits="userSpaceOnUse" x="12" y="7" width="15" height="24">
<path d="M26.8571 7H12V31H26.8571V7Z" fill="white"/>
</mask>
<g mask="url(#mask0_279_10960)">
<path d="M23.7079 20.2817C22.7695 20.2817 21.9282 20.6954 21.3521 21.3467L19.8757 20.3067C20.0325 19.8775 20.1225 19.4165 20.1225 18.9339C20.1225 18.4597 20.0356 18.0064 19.8841 17.5834L21.3571 16.5545C21.9331 17.2025 22.7722 17.6141 23.7079 17.6141C25.4401 17.6141 26.8494 16.2118 26.8494 14.488C26.8494 12.7642 25.4401 11.362 23.7079 11.362C21.9758 11.362 20.5665 12.7642 20.5665 14.488C20.5665 14.7966 20.6133 15.0941 20.6973 15.3758L19.2234 16.4053C18.6077 15.6451 17.7211 15.1145 16.711 14.9525V13.1848C18.134 12.8874 19.2062 11.6293 19.2062 10.126C19.2062 8.40222 17.7969 7 16.0647 7C14.3327 7 12.9233 8.40222 12.9233 10.126C12.9233 11.6092 13.9677 12.8517 15.3622 13.1704V14.961C13.4591 15.2935 12.0071 16.9462 12.0071 18.9339C12.0071 20.9312 13.4734 22.5901 15.3903 22.9112V24.8021C13.9816 25.1102 12.9233 26.3603 12.9233 27.8536C12.9233 29.5774 14.3327 30.9795 16.0647 30.9795C17.7969 30.9795 19.2062 29.5774 19.2062 27.8536C19.2062 26.3603 18.1479 25.1102 16.7391 24.8021V22.9111C17.7094 22.7485 18.5871 22.2405 19.209 21.4817L20.6951 22.5285C20.6126 22.8077 20.5665 23.1023 20.5665 23.4077C20.5665 25.1314 21.9758 26.5337 23.7079 26.5337C25.4401 26.5337 26.8494 25.1314 26.8494 23.4077C26.8494 21.6839 25.4401 20.2817 23.7079 20.2817ZM23.7079 12.9724C24.5478 12.9724 25.231 13.6524 25.231 14.488C25.231 15.3235 24.5478 16.0035 23.7079 16.0035C22.8679 16.0035 22.1849 15.3235 22.1849 14.488C22.1849 13.6524 22.8679 12.9724 23.7079 12.9724ZM14.5416 10.126C14.5416 9.29045 15.2249 8.61042 16.0647 8.61042C16.9047 8.61042 17.5878 9.29045 17.5878 10.126C17.5878 10.9616 16.9047 11.6416 16.0647 11.6416C15.2249 11.6416 14.5416 10.9616 14.5416 10.126ZM17.5878 27.8536C17.5878 28.6891 16.9047 29.3691 16.0647 29.3691C15.2249 29.3691 14.5416 28.6891 14.5416 27.8536C14.5416 27.0181 15.2249 26.3379 16.0647 26.3379C16.9047 26.3379 17.5878 27.0181 17.5878 27.8536ZM16.0646 21.0477C14.8932 21.0477 13.9402 20.0995 13.9402 18.9339C13.9402 17.7682 14.8932 16.8199 16.0646 16.8199C17.2361 16.8199 18.189 17.7682 18.189 18.9339C18.189 20.0995 17.2361 21.0477 16.0646 21.0477ZM23.7079 24.9233C22.8679 24.9233 22.1849 24.2432 22.1849 23.4077C22.1849 22.5721 22.8679 21.8921 23.7079 21.8921C24.5478 21.8921 25.231 22.5721 25.231 23.4077C25.231 24.2432 24.5478 24.9233 23.7079 24.9233Z" fill="currentColor"/>
</g>
</svg>
