<svg width="38" height="38" viewBox="0 0 38 38" fill="none" xmlns="http://www.w3.org/2000/svg">
<g clip-path="url(#clip0_269_15040)">
<path d="M6.50012 8.00005C19.4788 8.00005 30.0001 18.5214 30.0001 31.5001C30.0001 44.4787 19.4788 55.0001 6.50012 55.0001C-6.47857 55.0001 -16.9999 44.4787 -16.9999 31.5001C-16.9999 18.5214 -6.47857 8.00005 6.50012 8.00005ZM6.42883 11.254C-4.79216 11.254 -13.8885 20.3504 -13.8885 31.5713C-13.8885 42.7924 -4.79219 51.8887 6.42883 51.8887C17.6498 51.8886 26.7462 42.7923 26.7462 31.5713C26.7462 20.3504 17.6497 11.2541 6.42883 11.254ZM6.42883 13.794C16.247 13.7941 24.2069 21.7532 24.2072 31.5713C24.207 41.3896 16.2471 49.3496 6.42883 49.3497C-3.38927 49.3494 -11.3484 41.3895 -11.3485 31.5713C-11.3483 21.7533 -3.38922 13.7942 6.42883 13.794ZM6.42883 16.334C-1.98682 16.334 -8.80927 23.1557 -8.80945 31.5713C-8.8093 39.987 -1.98684 46.8096 6.42883 46.8096C14.8443 46.8094 21.666 39.9868 21.6661 31.5713C21.666 23.1559 14.8443 16.3343 6.42883 16.334ZM6.42786 18.8731C13.4409 18.8731 19.126 24.5583 19.1261 31.5713C19.126 38.5844 13.441 44.2696 6.42786 44.2696C-0.584967 44.2693 -6.27031 38.5842 -6.27039 31.5713C-6.27029 24.5585 -0.584955 18.8734 6.42786 18.8731ZM6.42883 21.4131C0.818638 21.4134 -3.73015 25.9611 -3.73035 31.5713C-3.73027 37.1817 0.81856 41.7303 6.42883 41.7305C12.0391 41.7303 16.587 37.1817 16.587 31.5713C16.5868 25.9611 12.039 21.4133 6.42883 21.4131ZM6.42883 23.9522C10.6367 23.9522 14.0479 27.3635 14.048 31.5713C14.048 35.7792 10.6367 39.1905 6.42883 39.1905C2.22097 39.1905 -1.19031 35.7792 -1.19031 31.5713C-1.19021 27.3636 2.22103 23.9522 6.42883 23.9522Z" fill="currentColor"/>
</g>
<defs>
<clipPath id="clip0_269_15040">
<rect x="7" y="7" width="24" height="24" rx="2" fill="currentColor"/>
</clipPath>
</defs>
</svg>
