<svg width="38" height="38" viewBox="0 0 38 38" fill="none" xmlns="http://www.w3.org/2000/svg">
<path fill-rule="evenodd" clip-rule="evenodd" d="M8.6381 18.2588C8.6381 16.262 9.41378 14.9785 10.4333 14.1807C11.472 13.3686 12.8016 13.0345 13.9181 13.0345C16.1328 13.0345 17.9453 14.3689 18.8679 15.2828L18.8688 15.2838L22.7607 19.1209L22.8739 19.2342C23.1005 19.4617 23.4231 19.7862 23.7898 20.0627C24.2189 20.3862 24.7824 20.703 25.4189 20.703C26.0141 20.703 26.6237 20.486 27.0845 20.0137C27.5482 19.5395 27.8237 18.8463 27.8237 17.9631C27.8237 16.9551 27.2208 16.2947 26.4989 15.975C25.8019 15.6649 24.9495 15.6467 24.2967 15.9126C24.2383 15.9364 24.1852 15.9715 24.1404 16.0159C24.0956 16.0602 24.0599 16.1129 24.0355 16.1711C24.0111 16.2292 23.9983 16.2916 23.998 16.3546C23.9977 16.4176 24.0098 16.4801 24.0336 16.5385C24.0574 16.5969 24.0925 16.65 24.1369 16.6948C24.1812 16.7396 24.234 16.7752 24.2921 16.7997C24.3502 16.8241 24.4126 16.8368 24.4756 16.8371C24.5387 16.8375 24.6012 16.8254 24.6595 16.8015C25.056 16.6393 25.6368 16.6422 26.1091 16.8524C26.5584 17.0511 26.8627 17.4092 26.8627 17.9631C26.8627 18.6419 26.6563 19.0787 26.3971 19.3436C26.2691 19.4725 26.1164 19.5743 25.9482 19.6429C25.7799 19.7115 25.5996 19.7455 25.4179 19.743C25.0944 19.743 24.7383 19.575 24.3667 19.2956C24.0595 19.0652 23.7936 18.7964 23.5661 18.5679L23.4355 18.4383L19.5437 14.6012C18.5453 13.6124 16.5034 12.0735 13.9181 12.0735C12.6346 12.0735 11.0842 12.4527 9.8429 13.4233C8.58242 14.4092 7.6781 15.9769 7.6781 18.2588C7.6781 20.5609 8.84162 22.6239 10.7367 23.7241C12.6432 24.83 15.2227 24.927 17.9866 23.4342C18.0421 23.4042 18.0911 23.3635 18.1308 23.3146C18.1706 23.2657 18.2003 23.2094 18.2183 23.1489C18.2363 23.0885 18.2423 23.0251 18.2358 22.9623C18.2293 22.8996 18.2105 22.8388 18.1805 22.7833C18.1505 22.7278 18.1099 22.6788 18.0609 22.6391C18.012 22.5993 17.9557 22.5696 17.8952 22.5515C17.8348 22.5335 17.7714 22.5276 17.7087 22.5341C17.6459 22.5406 17.5851 22.5594 17.5296 22.5894C15.0144 23.9487 12.793 23.8086 11.2195 22.8937C9.63362 21.974 8.6381 20.2345 8.6381 18.2588ZM21.985 12.8377C22.7635 12.4518 23.9165 12.0745 25.4381 12.0745C28.5523 12.0745 31.6781 14.6367 31.6781 18.2588C31.6781 21.9807 28.5466 24.4422 25.4381 24.4422C23.7063 24.4422 22.4093 23.5398 21.9975 23.2153C21.9303 23.1625 21.8602 23.103 21.7997 23.0521C21.7761 23.0319 21.7524 23.0117 21.7287 22.9916L16.4909 18.6275L16.4746 18.614L16.4602 18.5996C15.9744 18.1177 15.5194 17.6684 15.072 17.3372C14.6199 17.0012 14.2426 16.838 13.9181 16.838C13.5917 16.838 13.2279 17.0031 12.936 17.2921C12.6432 17.582 12.4781 17.9411 12.4781 18.2588C12.4781 18.662 12.5808 19.0134 12.7853 19.2572C12.9773 19.4847 13.3123 19.6796 13.9181 19.6796C14.0454 19.6796 14.1675 19.7302 14.2575 19.8202C14.3475 19.9102 14.3981 20.0323 14.3981 20.1596C14.3981 20.2869 14.3475 20.409 14.2575 20.499C14.1675 20.5891 14.0454 20.6396 13.9181 20.6396C13.0839 20.6396 12.4589 20.3593 12.0509 19.8745C11.6554 19.4051 11.5181 18.806 11.5181 18.2588C11.5181 17.6252 11.833 17.0339 12.2602 16.6105C12.6883 16.1862 13.2835 15.8771 13.9181 15.8771C14.5536 15.8771 15.1373 16.1891 15.6442 16.5663C16.152 16.9427 16.6522 17.438 17.1216 17.9027L22.3431 22.2543L22.4362 22.3331C22.4899 22.3782 22.5379 22.4195 22.5917 22.4607C22.9411 22.7363 24.0269 23.4822 25.4381 23.4822C28.0896 23.4822 30.7181 21.3807 30.7181 18.2588C30.7181 15.2252 28.0839 13.0345 25.4381 13.0345C24.0797 13.0345 23.0727 13.3705 22.4112 13.6969C22.0791 13.862 21.8343 14.0243 21.6739 14.1433C21.6006 14.1977 21.5298 14.2553 21.4618 14.3161L21.4551 14.3228C21.3644 14.4123 21.2419 14.4621 21.1146 14.4613C20.9872 14.4605 20.8654 14.4091 20.7759 14.3185C20.6864 14.2279 20.6365 14.1054 20.6374 13.978C20.6382 13.8506 20.6895 13.7288 20.7802 13.6393L21.1181 13.9811L20.7811 13.6393V13.6383L20.784 13.6355L20.7898 13.6297L20.809 13.6124L20.8714 13.5567C20.9251 13.5107 21.0019 13.4473 21.1018 13.3724C21.3024 13.2236 21.5962 13.0297 21.985 12.8377ZM24.5136 14.0377C24.8611 13.9619 25.1501 13.9647 25.4563 13.9763C28.0359 14.0751 29.7581 16.1113 29.7581 18.2579C29.7581 20.943 27.5789 22.5414 25.4381 22.5414C25.0637 22.5414 24.6634 22.4339 24.3149 22.3071C23.986 22.1846 23.6656 22.0403 23.3559 21.8751C22.9566 21.6566 22.5858 21.3896 22.2519 21.0803L17.9175 17.1894L17.9079 17.1817L17.9002 17.174C16.9133 16.1967 15.6096 14.9363 13.9181 14.9363C12.2189 14.9363 10.5581 16.19 10.5581 18.2579C10.5581 19.3551 10.8883 20.2691 11.5891 20.8633C12.2899 21.4585 13.4573 21.8137 15.2995 21.5852C15.4236 21.574 15.5472 21.6115 15.6442 21.6898C15.7411 21.7681 15.8038 21.881 15.8191 22.0047C15.8343 22.1284 15.8008 22.2531 15.7257 22.3526C15.6506 22.452 15.5398 22.5183 15.4167 22.5375C13.4199 22.7852 11.9453 22.4262 10.9671 21.5958C9.98786 20.7635 9.5981 19.5385 9.5981 18.2588C9.5981 15.5747 11.7773 13.9763 13.9181 13.9763C16.0368 13.9763 17.5997 15.5238 18.5367 16.4531L18.5674 16.4828L22.8931 20.366C23.1879 20.6291 23.4845 20.8575 23.8042 21.0255C24.0461 21.1532 24.3427 21.2963 24.6432 21.4047C24.9504 21.5171 25.2269 21.5814 25.4381 21.5814C27.1373 21.5814 28.7981 20.3276 28.7981 18.2588C28.7981 16.6191 27.4752 15.014 25.4189 14.9353C25.1338 14.9247 24.9437 14.9267 24.7181 14.9756C24.4877 15.0265 24.1949 15.1321 23.7312 15.3615C23.6173 15.417 23.486 15.4252 23.3661 15.3843C23.2461 15.3434 23.1473 15.2567 23.091 15.1431C23.0347 15.0296 23.0256 14.8984 23.0657 14.7782C23.1058 14.6579 23.1918 14.5584 23.305 14.5014C23.8013 14.2556 24.1719 14.1116 24.5136 14.0377Z" fill="currentColor"/>
</svg>
