<svg width="38" height="38" viewBox="0 0 38 38" fill="none" xmlns="http://www.w3.org/2000/svg">
<path d="M26.1736 18.435H25.8508V16.8685H26.1546C26.6863 16.8685 27.3508 16.9064 27.3508 17.609C27.3508 18.34 26.7337 18.435 26.1736 18.435ZM22.7273 16.1754H21.8348C21.1892 15.3779 20.2588 14.8272 19.186 14.5804H22.7273V16.1754ZM22.7273 17.9413H22.6893C22.5564 17.3432 22.3 16.8115 21.9677 16.3463H22.7273V17.9413ZM22.7273 21.4825H22.1102C22.4045 21.0268 22.6228 20.5047 22.7273 19.916V21.4825ZM22.7273 23.2484H19.7177C20.6481 22.9446 21.4361 22.4035 21.9867 21.6534H22.7273V23.2484ZM19.5753 21.6534L19.1195 22.1091L18.6638 21.6534L18.4929 21.4825L18.0467 21.0363L18.417 20.6756C18.2461 20.723 18.0657 20.7515 17.8758 20.7515C17.1923 20.7515 16.6606 20.4192 16.3948 19.8876H19.3569C19.3189 19.954 19.2809 20.0205 19.243 20.0869L20.1924 21.0363L19.6607 21.568L19.5753 21.6534ZM15.958 22.9256L14.7048 21.6724L14.7238 21.6534L14.8947 21.4825L15.958 20.4192L17.2113 21.6724L15.958 22.9256ZM14.6099 20.7705C14.6099 20.685 14.6764 20.6091 14.7713 20.6091C14.8662 20.6091 14.9422 20.685 14.9422 20.7705C14.9422 20.8654 14.8662 20.9319 14.7713 20.9319C14.6764 20.9319 14.6099 20.8559 14.6099 20.7705ZM14.9422 20.1534C14.9422 20.2483 14.8662 20.3148 14.7713 20.3148C14.6764 20.3148 14.6099 20.2388 14.6099 20.1534C14.6099 20.0679 14.6764 19.992 14.7713 19.992C14.8662 19.992 14.9422 20.0679 14.9422 20.1534ZM13.9738 19.8876L13.8029 19.7167L13.1668 19.0901L14.1447 18.1217L14.2966 17.9698L14.4485 18.1217L15.4169 19.0901L14.7903 19.7167L14.6194 19.8876L14.2966 20.2103L13.9738 19.8876ZM15.6732 19.5553C15.7682 19.5553 15.8441 19.6312 15.8441 19.7167C15.8441 19.8116 15.7682 19.8781 15.6732 19.8781C15.5783 19.8781 15.5118 19.8021 15.5118 19.7167C15.5118 19.6312 15.5783 19.5553 15.6732 19.5553ZM15.6732 18.9476C15.7682 18.9476 15.8441 19.0236 15.8441 19.109C15.8441 19.204 15.7682 19.2704 15.6732 19.2704C15.5783 19.2704 15.5118 19.1945 15.5118 19.109C15.5118 19.0141 15.5783 18.9476 15.6732 18.9476ZM16.1669 17.6944C16.2619 17.6944 16.3378 17.7704 16.3378 17.8558C16.3378 17.8843 16.3283 17.9128 16.3093 17.9413C16.2998 17.9603 16.2808 17.9698 16.2713 17.9888C16.2619 17.9888 16.2619 17.9982 16.2524 17.9982C16.2429 17.9982 16.2429 18.0077 16.2334 18.0077C16.2239 18.0077 16.2239 18.0077 16.2144 18.0172C16.2144 18.0172 16.2144 18.0172 16.2049 18.0172C16.1954 18.0172 16.1954 18.0172 16.1859 18.0172C16.1859 18.0172 16.1859 18.0172 16.1764 18.0172C16.1669 18.0172 16.1669 18.0172 16.1574 18.0172C16.1479 18.0172 16.1479 18.0172 16.1384 18.0172C16.1384 18.0172 16.1384 18.0172 16.1289 18.0172C16.1194 18.0172 16.1194 18.0172 16.1099 18.0172C16.1099 18.0172 16.1099 18.0172 16.1005 18.0172C16.091 18.0172 16.091 18.0172 16.0815 18.0077C16.072 18.0077 16.072 17.9982 16.0625 17.9982C16.053 17.9982 16.053 17.9888 16.0435 17.9888C16.0245 17.9793 16.015 17.9603 16.0055 17.9413C15.9865 17.9128 15.977 17.8843 15.977 17.8558C15.996 17.7704 16.072 17.6944 16.1669 17.6944ZM16.1669 17.0773C16.2619 17.0773 16.3378 17.1533 16.3378 17.2387C16.3378 17.3337 16.2619 17.4001 16.1669 17.4001C16.072 17.4001 16.0055 17.3242 16.0055 17.2387C15.996 17.1533 16.072 17.0773 16.1669 17.0773ZM18.6354 18.1122L18.8062 17.9413H16.5657C16.8505 17.571 17.3062 17.3337 17.8758 17.3337C18.3315 17.3337 18.7208 17.4951 18.9961 17.7514L19.8221 16.9254L20.8475 17.9413L21.0183 18.1122L21.0753 18.1691L19.8221 19.4223L19.5373 19.1375C19.5278 19.3464 19.4898 19.5363 19.4234 19.7167H16.3093C16.2334 19.5173 16.1954 19.2989 16.1954 19.0616C16.1954 18.7198 16.2808 18.397 16.4422 18.1217H18.6354V18.1122ZM33.0377 18.9287C33.0377 17.9603 33.8257 17.1913 34.8036 17.1913C35.5347 17.1913 36.1898 17.609 36.7119 18.0932L36.617 14.6943C35.9334 14.457 35.1739 14.3241 34.4429 14.3241C32.658 14.3241 31.1389 15.2925 30.3509 16.745C29.9617 15.169 28.5946 14.4095 26.8382 14.4095H1.43222V14.5804H16.5657C15.4928 14.8272 14.5719 15.3874 13.9168 16.1754H1.42273V16.3463H13.7839C13.4421 16.8115 13.1953 17.3432 13.0624 17.9413H1.42273V18.1122H13.0149C12.9579 18.397 12.9295 18.6913 12.9295 19.0046C12.9295 19.2515 12.9484 19.4793 12.9769 19.7072H1.42273V19.8781H13.0149C13.1193 20.4762 13.3377 21.0078 13.6415 21.473H1.42273V21.6439H13.7554C14.3061 22.394 15.0941 22.9351 16.0245 23.2389H1.42273V23.4098H16.86L16.3853 22.9351L17.6385 21.6819L18.8917 22.9351L18.417 23.4098H19.0531H25.8508V20.6945H27.5027C28.5091 20.6945 29.3066 20.3338 29.8193 19.7072C30.1421 21.9003 31.9934 23.5238 34.3004 23.5238C34.8796 23.5238 36.0853 23.4193 36.6075 23.1725L36.7024 19.8401C36.1803 20.3528 35.5916 20.6661 34.8416 20.6661C33.8732 20.6756 33.0377 19.916 33.0377 18.9287Z" fill="currentColor"/>
<path d="M4.77271 13.8513L5.28265 14.3612L4.77271 14.8671L4.26685 14.3612L4.77271 13.8513Z" fill="currentColor"/>
<path d="M6.02991 15.8013L6.53986 16.3112L6.02991 16.8171L5.52405 16.3112L6.02991 15.8013Z" fill="currentColor"/>
<path d="M7.2262 16.4604L7.73615 16.9703L7.2262 17.4762L6.72034 16.9703L7.2262 16.4604Z" fill="currentColor"/>
<path d="M8.91163 19.4416L9.42157 19.9515L8.91163 20.4574L8.40576 19.9515L8.91163 19.4416Z" fill="currentColor"/>
<path d="M5.98304 17.4762L6.49298 17.9861L5.98304 18.492L5.47717 17.9861L5.98304 17.4762Z" fill="currentColor"/>
<path d="M7.68853 18.0763L8.40575 18.7935L7.68853 19.505L6.97705 18.7935L7.68853 18.0763Z" fill="currentColor"/>
<path d="M8.72193 14.8446L9.23187 15.3546L8.72193 15.8604L8.21606 15.3546L8.72193 14.8446Z" fill="currentColor"/>
<path d="M11.4177 14.369L12.1664 15.1177L11.4177 15.8605L10.6749 15.1177L11.4177 14.369Z" fill="currentColor"/>
<path d="M10.4003 15.7336L11.1491 16.4823L10.4003 17.2251L9.65759 16.4823L10.4003 15.7336Z" fill="currentColor"/>
<path d="M12.0564 15.9666L13.0565 16.9667L12.0564 17.9588L11.0643 16.9667L12.0564 15.9666Z" fill="currentColor"/>
<path d="M10.8843 17.8762L11.8844 18.8763L10.8843 19.8685L9.89221 18.8763L10.8843 17.8762Z" fill="currentColor"/>
<path d="M11.7354 19.6986L12.7355 20.6987L11.7354 21.6908L10.7433 20.6987L11.7354 19.6986Z" fill="currentColor"/>
<path d="M13.5608 20.492L14.5609 21.4921L13.5608 22.4842L12.5687 21.4921L13.5608 20.492Z" fill="currentColor"/>
<path d="M12.6133 18.5459L13.6134 19.546L12.6133 20.5381L11.6212 19.546L12.6133 18.5459Z" fill="currentColor"/>
<path d="M13.1575 17.1131L14.1576 18.1132L13.1575 19.1053L12.1654 18.1132L13.1575 17.1131Z" fill="currentColor"/>
<path d="M10.2236 20.0633L11.2237 21.0634L10.2236 22.0555L9.23145 21.0634L10.2236 20.0633Z" fill="currentColor"/>
<path d="M9.1613 17.225L10.1614 18.2251L9.1613 19.2172L8.16919 18.2251L9.1613 17.225Z" fill="currentColor"/>
<path d="M6.78992 14.1344L7.29987 14.6444L6.78992 15.1502L6.28406 14.6444L6.78992 14.1344Z" fill="currentColor"/>
<path d="M13.4028 14.8446L14.1899 15.6362L13.4028 16.4233L12.6157 15.6362L13.4028 14.8446Z" fill="currentColor"/>
<path d="M5.39149 12.9285L5.84731 13.3843L5.39149 13.8401L4.93567 13.3843L5.39149 12.9285Z" fill="currentColor"/>
<path d="M14.473 18.5976C14.5679 18.5976 14.6439 18.6736 14.6439 18.759C14.6439 18.854 14.5679 18.9299 14.473 18.9299C14.3781 18.9299 14.3116 18.854 14.3116 18.759C14.3021 18.6736 14.3781 18.5976 14.473 18.5976ZM14.473 19.2147C14.5679 19.2147 14.6439 19.2907 14.6439 19.3856C14.6439 19.4806 14.5679 19.547 14.473 19.547C14.3781 19.547 14.3116 19.4711 14.3116 19.3856C14.3021 19.3002 14.3781 19.2147 14.473 19.2147Z" fill="currentColor"/>
<path d="M15.7155 21.2833C15.8105 21.2833 15.8864 21.3592 15.8864 21.4447C15.8864 21.5396 15.8105 21.6156 15.7155 21.6156C15.6206 21.6156 15.5541 21.5396 15.5541 21.4447C15.5447 21.3592 15.6206 21.2833 15.7155 21.2833ZM15.7155 21.9004C15.8105 21.9004 15.8864 21.9763 15.8864 22.0713C15.8864 22.1662 15.8105 22.2327 15.7155 22.2327C15.6206 22.2327 15.5541 22.1567 15.5541 22.0713C15.5447 21.9858 15.6206 21.9004 15.7155 21.9004Z" fill="currentColor"/>
<path d="M18.7258 20.3812C18.8207 20.3812 18.8967 20.4572 18.8967 20.5426C18.8967 20.6376 18.8207 20.7135 18.7258 20.7135C18.6309 20.7135 18.5644 20.6376 18.5644 20.5426C18.5549 20.4572 18.6309 20.3812 18.7258 20.3812ZM18.7258 20.9984C18.8207 20.9984 18.8967 21.0743 18.8967 21.1692C18.8967 21.2642 18.8207 21.3306 18.7258 21.3306C18.6309 21.3306 18.5644 21.2547 18.5644 21.1692C18.5549 21.0838 18.6309 20.9984 18.7258 20.9984Z" fill="currentColor"/>
<path d="M7.89699 15.1026C7.99193 15.1026 8.06789 15.1786 8.06789 15.264C8.06789 15.359 7.99193 15.4349 7.89699 15.4349C7.80205 15.4349 7.7356 15.359 7.7356 15.264C7.7356 15.1786 7.80205 15.1026 7.89699 15.1026ZM7.89699 15.7292C7.99193 15.7292 8.06789 15.8052 8.06789 15.9001C8.06789 15.9951 7.99193 16.0615 7.89699 16.0615C7.80205 16.0615 7.7356 15.9856 7.7356 15.9001C7.7356 15.8052 7.80205 15.7292 7.89699 15.7292Z" fill="currentColor"/>
<path d="M11.6415 20.2008C11.7364 20.2008 11.8124 20.2768 11.8124 20.3622C11.8124 20.4571 11.7364 20.5331 11.6415 20.5331C11.5466 20.5331 11.4801 20.4571 11.4801 20.3622C11.4801 20.2863 11.5466 20.2008 11.6415 20.2008ZM11.6415 20.8274C11.7364 20.8274 11.8124 20.9034 11.8124 20.9983C11.8124 21.0932 11.7364 21.1597 11.6415 21.1597C11.5466 21.1597 11.4801 21.0837 11.4801 20.9983C11.4801 20.9034 11.5466 20.8274 11.6415 20.8274Z" fill="currentColor"/>
<path d="M9.73083 15.2328C9.73083 15.1853 9.76888 15.1472 9.81643 15.1472C9.86399 15.1472 9.90203 15.1853 9.90203 15.2328C9.90203 15.2899 9.85447 15.3089 9.81643 15.3089C9.77839 15.3089 9.73083 15.2899 9.73083 15.2328ZM9.73083 14.7002C9.73083 14.6527 9.76888 14.6146 9.81643 14.6146C9.86399 14.6146 9.90203 14.6527 9.90203 14.7002C9.90203 14.7573 9.85447 14.7763 9.81643 14.7763C9.77839 14.7858 9.73083 14.7573 9.73083 14.7002Z" fill="currentColor"/>
<path d="M10.6066 14.4866C10.7015 14.4866 10.7775 14.5626 10.7775 14.648C10.7775 14.743 10.7015 14.8189 10.6066 14.8189C10.5116 14.8189 10.4452 14.743 10.4452 14.648C10.4452 14.5626 10.5116 14.4866 10.6066 14.4866ZM10.6066 15.1038C10.7015 15.1038 10.7775 15.1797 10.7775 15.2746C10.7775 15.3696 10.7015 15.436 10.6066 15.436C10.5116 15.436 10.4452 15.3601 10.4452 15.2746C10.4452 15.1797 10.5116 15.1038 10.6066 15.1038Z" fill="currentColor"/>
<path d="M8.22559 20.1169C8.22559 20.0693 8.26363 20.0218 8.31118 20.0218C8.35874 20.0218 8.40629 20.0598 8.40629 20.1169C8.40629 20.1739 8.34923 20.2025 8.31118 20.2025C8.27314 20.212 8.22559 20.1835 8.22559 20.1169ZM8.22559 19.5367C8.22559 19.4892 8.26363 19.4416 8.31118 19.4416C8.35874 19.4416 8.40629 19.4797 8.40629 19.5367C8.40629 19.5938 8.34923 19.6223 8.31118 19.6223C8.27314 19.6223 8.22559 19.5938 8.22559 19.5367Z" fill="currentColor"/>
<path d="M9.16049 20.6948C9.25543 20.6948 9.33138 20.7708 9.33138 20.8562C9.33138 20.9511 9.25543 21.0271 9.16049 21.0271C9.06555 21.0271 8.99909 20.9511 8.99909 20.8562C8.9896 20.7708 9.06555 20.6948 9.16049 20.6948ZM9.16049 21.3119C9.25543 21.3119 9.33138 21.3879 9.33138 21.4828C9.33138 21.5777 9.25543 21.6442 9.16049 21.6442C9.06555 21.6442 8.99909 21.5682 8.99909 21.4828C8.9896 21.3974 9.06555 21.3119 9.16049 21.3119Z" fill="currentColor"/>
<path d="M6.13269 14.7813C6.13269 14.7337 6.17073 14.6862 6.21829 14.6862C6.26584 14.6862 6.3134 14.7242 6.3134 14.7813C6.3134 14.8383 6.25633 14.8669 6.21829 14.8669C6.18976 14.8764 6.13269 14.8478 6.13269 14.7813ZM6.13269 14.2011C6.13269 14.1535 6.17073 14.106 6.21829 14.106C6.26584 14.106 6.3134 14.144 6.3134 14.2011C6.3134 14.2582 6.25633 14.2867 6.21829 14.2867C6.18976 14.2867 6.13269 14.2582 6.13269 14.2011Z" fill="currentColor"/>
<path d="M4.69922 13.6226C4.69922 13.5846 4.72775 13.5465 4.7753 13.5465C4.82286 13.5465 4.85139 13.5846 4.85139 13.6226C4.85139 13.6702 4.80384 13.6892 4.7753 13.6892C4.74677 13.6892 4.69922 13.6702 4.69922 13.6226ZM4.69922 13.1566C4.69922 13.1185 4.72775 13.0805 4.7753 13.0805C4.82286 13.0805 4.85139 13.1185 4.85139 13.1566C4.85139 13.2041 4.80384 13.2231 4.7753 13.2231C4.74677 13.2231 4.69922 13.2041 4.69922 13.1566Z" fill="currentColor"/>
<path d="M6.81165 16.5754C6.81165 16.5278 6.84969 16.4898 6.89724 16.4898C6.9448 16.4898 6.98284 16.5278 6.98284 16.5754C6.98284 16.6324 6.93529 16.6515 6.89724 16.6515C6.8592 16.661 6.81165 16.6324 6.81165 16.5754ZM6.81165 16.0523C6.81165 16.0047 6.84969 15.9667 6.89724 15.9667C6.9448 15.9667 6.98284 16.0047 6.98284 16.0523C6.98284 16.1093 6.93529 16.1284 6.89724 16.1284C6.8592 16.1284 6.81165 16.0998 6.81165 16.0523Z" fill="currentColor"/>
<path d="M5.3064 16.5564C5.3064 16.5089 5.34444 16.4708 5.39199 16.4708C5.43955 16.4708 5.47759 16.5089 5.47759 16.5564C5.47759 16.6135 5.43004 16.6325 5.39199 16.6325C5.35395 16.6325 5.3064 16.6135 5.3064 16.5564ZM5.3064 16.0334C5.3064 15.9858 5.34444 15.9478 5.39199 15.9478C5.43955 15.9478 5.47759 15.9858 5.47759 16.0334C5.47759 16.0904 5.43004 16.1094 5.39199 16.1094C5.35395 16.1094 5.3064 16.0809 5.3064 16.0334Z" fill="currentColor"/>
<path d="M4.10547 14.7906C4.10547 14.743 4.14351 14.705 4.18156 14.705C4.22911 14.705 4.26715 14.743 4.26715 14.7906C4.26715 14.8476 4.2196 14.8667 4.18156 14.8667C4.15302 14.8762 4.10547 14.8476 4.10547 14.7906ZM4.10547 14.2675C4.10547 14.2199 4.14351 14.1819 4.18156 14.1819C4.22911 14.1819 4.26715 14.2199 4.26715 14.2675C4.26715 14.3245 4.2196 14.3436 4.18156 14.3436C4.15302 14.3436 4.10547 14.315 4.10547 14.2675Z" fill="currentColor"/>
<path d="M19.4621 17.6283C19.557 17.6283 19.6329 17.7043 19.6329 17.7897C19.6329 17.8847 19.557 17.9606 19.4621 17.9606C19.3671 17.9606 19.3007 17.8847 19.3007 17.7897C19.3007 17.7043 19.3671 17.6283 19.4621 17.6283ZM19.4621 18.2549C19.557 18.2549 19.6329 18.3309 19.6329 18.4258C19.6329 18.5208 19.557 18.5872 19.4621 18.5872C19.3671 18.5872 19.3007 18.5113 19.3007 18.4258C19.3007 18.3309 19.3671 18.2549 19.4621 18.2549Z" fill="currentColor"/>
<path d="M5.22079 17.4762C5.31573 17.4762 5.39169 17.5521 5.39169 17.6375C5.39169 17.7325 5.31573 17.8084 5.22079 17.8084C5.12585 17.8084 5.0594 17.7325 5.0594 17.6375C5.0499 17.5521 5.12585 17.4762 5.22079 17.4762ZM5.22079 18.1028C5.31573 18.1028 5.39169 18.1787 5.39169 18.2736C5.39169 18.3686 5.31573 18.435 5.22079 18.435C5.12585 18.435 5.0594 18.3591 5.0594 18.2736C5.0499 18.1787 5.12585 18.1028 5.22079 18.1028Z" fill="currentColor"/>
<path d="M6.811 18.4921C6.90594 18.4921 6.9819 18.5681 6.9819 18.6535C6.9819 18.7484 6.90594 18.8244 6.811 18.8244C6.71606 18.8244 6.64961 18.7484 6.64961 18.6535C6.64011 18.5681 6.71606 18.4921 6.811 18.4921ZM6.811 19.1092C6.90594 19.1092 6.9819 19.1852 6.9819 19.2801C6.9819 19.3751 6.90594 19.4415 6.811 19.4415C6.71606 19.4415 6.64961 19.3656 6.64961 19.2801C6.64011 19.1852 6.71606 19.1092 6.811 19.1092Z" fill="currentColor"/>
<path d="M9.55996 16C9.6549 16 9.73085 16.0759 9.73085 16.1614C9.73085 16.2563 9.6549 16.3323 9.55996 16.3323C9.46502 16.3323 9.39856 16.2563 9.39856 16.1614C9.39856 16.0854 9.46502 16 9.55996 16ZM9.55996 16.6266C9.6549 16.6266 9.73085 16.7025 9.73085 16.7975C9.73085 16.8924 9.6549 16.9589 9.55996 16.9589C9.46502 16.9589 9.39856 16.8829 9.39856 16.7975C9.39856 16.7025 9.46502 16.6266 9.55996 16.6266Z" fill="currentColor"/>
<path d="M12.5648 15.1502C12.6598 15.1502 12.7357 15.2262 12.7357 15.3116C12.7357 15.4065 12.6598 15.4825 12.5648 15.4825C12.4699 15.4825 12.4034 15.4065 12.4034 15.3116C12.4034 15.2262 12.4699 15.1502 12.5648 15.1502ZM12.5648 15.7673C12.6598 15.7673 12.7357 15.8433 12.7357 15.9382C12.7357 16.0331 12.6598 16.0996 12.5648 16.0996C12.4699 16.0996 12.4034 16.0237 12.4034 15.9382C12.4034 15.8433 12.4699 15.7673 12.5648 15.7673Z" fill="currentColor"/>
<path d="M10.8935 16.4233C10.9884 16.4233 11.0643 16.4993 11.0643 16.5847C11.0643 16.6797 10.9884 16.7556 10.8935 16.7556C10.7985 16.7556 10.7321 16.6797 10.7321 16.5847C10.7321 16.4993 10.7985 16.4233 10.8935 16.4233ZM10.8935 17.0404C10.9884 17.0404 11.0643 17.1164 11.0643 17.2113C11.0643 17.3063 10.9884 17.3727 10.8935 17.3727C10.7985 17.3727 10.7321 17.2968 10.7321 17.2113C10.7321 17.1164 10.7985 17.0404 10.8935 17.0404Z" fill="currentColor"/>
<path d="M12.1614 16.7504C12.2563 16.7504 12.3323 16.8263 12.3323 16.9118C12.3323 17.0067 12.2563 17.0827 12.1614 17.0827C12.0665 17.0827 12 17.0067 12 16.9118C12 16.8263 12.0665 16.7504 12.1614 16.7504ZM12.1614 17.3675C12.2563 17.3675 12.3323 17.4434 12.3323 17.5384C12.3323 17.6333 12.2563 17.6998 12.1614 17.6998C12.0665 17.6998 12 17.6238 12 17.5384C12 17.4434 12.0665 17.3675 12.1614 17.3675Z" fill="currentColor"/>
<path d="M10.6067 18.3978C10.7017 18.3978 10.7776 18.4737 10.7776 18.5592C10.7776 18.6541 10.7017 18.7301 10.6067 18.7301C10.5118 18.7301 10.4453 18.6541 10.4453 18.5592C10.4453 18.4737 10.5118 18.3978 10.6067 18.3978ZM10.6067 19.0149C10.7017 19.0149 10.7776 19.0908 10.7776 19.1858C10.7776 19.2807 10.7017 19.3472 10.6067 19.3472C10.5118 19.3472 10.4453 19.2712 10.4453 19.1858C10.4453 19.0908 10.5118 19.0149 10.6067 19.0149Z" fill="currentColor"/>
<path d="M8.88308 17.7466C8.97802 17.7466 9.05397 17.8225 9.05397 17.908C9.05397 18.0029 8.97802 18.0788 8.88308 18.0788C8.78814 18.0788 8.72168 18.0029 8.72168 17.908C8.72168 17.8225 8.78814 17.7466 8.88308 17.7466ZM8.88308 18.3637C8.97802 18.3637 9.05397 18.4396 9.05397 18.5346C9.05397 18.6295 8.97802 18.696 8.88308 18.696C8.78814 18.696 8.72168 18.62 8.72168 18.5346C8.72168 18.4396 8.78814 18.3637 8.88308 18.3637Z" fill="currentColor"/>
<path d="M7.99904 17.6015C8.09398 17.6015 8.16994 17.6774 8.16994 17.7629C8.16994 17.8578 8.09398 17.9338 7.99904 17.9338C7.9041 17.9338 7.83765 17.8578 7.83765 17.7629C7.83765 17.6774 7.9041 17.6015 7.99904 17.6015ZM7.99904 18.2186C8.09398 18.2186 8.16994 18.2945 8.16994 18.3895C8.16994 18.4844 8.09398 18.5509 7.99904 18.5509C7.9041 18.5509 7.83765 18.4749 7.83765 18.3895C7.83765 18.2945 7.9041 18.2186 7.99904 18.2186Z" fill="currentColor"/>
</svg>
