<svg width="38" height="38" viewBox="0 0 38 38" fill="none" xmlns="http://www.w3.org/2000/svg">
	<path opacity="0.8" d="M23.9219 8C24.3004 8.00001 24.6723 8.09981 25 8.28906C25.3277 8.4783 25.5999 8.7504 25.7891 9.07812L30.7109 17.6035C30.9001 17.9312 31 18.3033 31 18.6816C30.9999 19.06 30.9001 19.4321 30.7109 19.7598L25.7891 28.2842C25.5998 28.6118 25.3277 28.884 25 29.0732C24.6722 29.2624 24.3003 29.3624 23.9219 29.3623H14.0781C13.6996 29.3624 13.3278 29.2625 13 29.0732C12.6722 28.8841 12.4002 28.612 12.2109 28.2842L7.28906 19.7588C7.0999 19.4311 7 19.0591 7 18.6807C7.00008 18.3025 7.09996 17.931 7.28906 17.6035L12.2109 9.07812C12.4002 8.75039 12.6723 8.4783 13 8.28906C13.3278 8.09983 13.6996 7.99999 14.0781 8H23.9219ZM19 22.2432C18.4486 22.2432 18.002 22.6898 18.002 23.2412C18.002 23.7926 18.4487 24.2393 19 24.2393C19.5514 24.2392 19.998 23.7926 19.998 23.2412C19.998 22.6899 19.5514 22.2432 19 22.2432ZM15.7959 19.9551C15.5736 19.7618 15.2835 19.6446 14.9658 19.6445C14.2661 19.6445 13.6984 20.2114 13.6982 20.9111C13.6982 21.611 14.266 22.1787 14.9658 22.1787C15.6655 22.1785 16.2324 21.6108 16.2324 20.9111C16.2324 20.8696 16.2295 20.8286 16.2256 20.7881L17.4912 20.0068C17.2787 19.7792 17.1158 19.5043 17.0215 19.1992L15.7959 19.9551ZM21.0127 19.1992C20.9184 19.5041 20.7564 19.7793 20.5439 20.0068L21.7754 20.7676C21.7701 20.8147 21.7666 20.8626 21.7666 20.9111C21.7666 21.611 22.3343 22.1787 23.0342 22.1787C23.7338 22.1786 24.3008 21.6109 24.3008 20.9111C24.3007 20.2114 23.7338 19.6446 23.0342 19.6445C22.7229 19.6445 22.4374 19.7562 22.2168 19.9424L21.0127 19.1992ZM19 16.9688C18.1093 16.9689 17.3877 17.6913 17.3877 18.582C17.3879 19.4725 18.1094 20.1942 19 20.1943C19.8906 20.1943 20.6131 19.4726 20.6133 18.582C20.6133 17.6912 19.8907 16.9688 19 16.9688ZM14.9658 15.2539C14.4146 15.2539 13.968 15.7008 13.9678 16.252C13.9678 16.8032 14.4145 17.251 14.9658 17.251C15.5171 17.2508 15.9639 16.8031 15.9639 16.252C15.9636 15.7009 15.5169 15.2541 14.9658 15.2539ZM23.0352 15.2539C22.4839 15.2539 22.0374 15.7008 22.0371 16.252C22.0371 16.8032 22.4838 17.251 23.0352 17.251C23.5863 17.2508 24.0332 16.8031 24.0332 16.252C24.033 15.7009 23.5861 15.2541 23.0352 15.2539ZM19 12.6553C18.3001 12.6553 17.7324 13.2229 17.7324 13.9229C17.7325 14.4574 18.064 14.9134 18.5322 15.0996V16.5508C18.6879 16.5137 18.8506 16.4941 19.0176 16.4941C19.1715 16.4942 19.3215 16.5104 19.4658 16.542V15.1006C19.9349 14.9149 20.2675 14.4581 20.2676 13.9229C20.2676 13.223 19.6999 12.6553 19 12.6553Z" fill="currentColor"/>
</svg>
