<svg width="38" height="38" viewBox="0 0 38 38" fill="none" xmlns="http://www.w3.org/2000/svg">
<path d="M28.7815 16.6H21.203C21.0204 16.6 20.8452 16.5277 20.716 16.399C20.5869 16.2706 20.5143 16.0962 20.5142 15.9145V8.05419C20.5142 7.4721 20.04 6.99994 19.4553 6.99994H16.75C16.165 6.99994 15.691 7.4721 15.691 8.05419V15.8669C15.691 16.2722 15.3618 16.6017 14.9545 16.6034L12.471 16.6152C12.0603 16.6174 11.7265 16.2857 11.7273 15.8773L11.7427 8.05596C11.7441 7.473 11.2696 6.99994 10.6839 6.99994H7.98083C7.39578 6.99994 6.92188 7.4721 6.92188 8.05419V30.0641C6.92188 30.5811 7.34279 30.9999 7.86194 30.9999H28.7815C29.3011 30.9999 29.7219 30.5811 29.7219 30.0641V17.536C29.7219 17.0188 29.3011 16.6 28.7815 16.6ZM25.2276 24.8638C25.2276 25.5415 24.6756 26.0908 23.9947 26.0908H21.8569C21.1758 26.0908 20.6238 25.5415 20.6238 24.8638V22.7361C20.6238 22.0584 21.1758 21.5089 21.8569 21.5089H23.9947C24.6756 21.5089 25.2276 22.0584 25.2276 22.7361V24.8638Z" fill="currentColor"/>
</svg>
