<svg width="38" height="38" viewBox="0 0 38 38" fill="none" xmlns="http://www.w3.org/2000/svg">
<path fill-rule="evenodd" clip-rule="evenodd" d="M18.9988 14.7324C23.9067 10.2175 28.879 7.90163 30.489 9.51074C32.1498 11.1721 29.6297 16.4137 24.8269 21.4707C26.9669 24.728 27.771 27.513 26.6414 28.6426C25.4562 29.8272 22.4503 28.8836 18.9881 26.5029V26.5195C15.536 28.8881 12.5407 29.8243 11.3582 28.6426C10.2287 27.5131 11.0313 24.7276 13.1707 21.4707C8.44765 16.4972 5.93363 11.3454 7.43239 9.59667L7.51052 9.51171C9.12009 7.90214 14.091 10.2179 18.9988 14.7324ZM18.9881 23.2891C20.3514 24.3587 21.6458 25.1942 22.7713 25.7607C23.4477 26.1012 24.0039 26.3124 24.4334 26.4326C24.3131 26.0032 24.1008 25.4475 23.7605 24.7715C22.8359 22.9348 21.1933 20.6497 18.9881 18.3476V23.2891ZM9.72048 11.7207C9.84074 12.1501 10.0522 12.706 10.3924 13.3818C11.2534 15.0922 12.7369 17.1921 14.7176 19.332C15.4426 18.412 16.2564 17.4765 17.1463 16.5478C15.0708 14.6522 13.0426 13.2287 11.3816 12.3926C10.7059 12.0525 10.1498 11.841 9.72048 11.7207Z" fill="currentColor"/>
</svg>
