<svg width="38" height="38" viewBox="0 0 38 38" fill="none" xmlns="http://www.w3.org/2000/svg">
<path d="M9.27377 12.7244V24.4286H6.45222V12.7244H9.27377ZM12.7947 12.7244V14.9029H3.01172V12.7244H12.7947ZM20.7172 20.4656H23.5307C23.4932 21.2801 23.2735 21.9982 22.8715 22.6199C22.4697 23.2415 21.9123 23.7265 21.1995 24.0749C20.4922 24.4178 19.6562 24.5894 18.6915 24.5894C17.9091 24.5894 17.2098 24.458 16.5935 24.1954C15.9825 23.9328 15.4627 23.555 15.034 23.0621C14.6106 22.569 14.2864 21.9715 14.0614 21.2694C13.8416 20.5674 13.7317 19.777 13.7317 18.8981V18.2629C13.7317 17.384 13.8469 16.5936 14.0774 15.8916C14.3132 15.1843 14.6455 14.584 15.0742 14.0909C15.5082 13.5926 16.0281 13.2121 16.6337 12.9495C17.2392 12.6869 17.9118 12.5556 18.6514 12.5556C19.6696 12.5556 20.5296 12.7378 21.2317 13.1022C21.9337 13.4666 22.4777 13.9677 22.8635 14.6054C23.2493 15.2379 23.4772 15.9586 23.5468 16.7678H20.7333C20.7226 16.3283 20.6476 15.9612 20.5082 15.6666C20.369 15.3664 20.1492 15.1414 19.849 14.9913C19.549 14.8412 19.1497 14.7663 18.6514 14.7663C18.303 14.7663 18.0002 14.8304 17.743 14.9591C17.4857 15.0878 17.2714 15.2913 17.0999 15.5701C16.9285 15.8487 16.7998 16.2105 16.714 16.6553C16.6337 17.0947 16.5935 17.6252 16.5935 18.2469V18.8981C16.5935 19.5196 16.631 20.0503 16.706 20.4897C16.7811 20.9292 16.9016 21.2881 17.0677 21.5669C17.2338 21.8455 17.4482 22.0518 17.7109 22.1858C17.9788 22.3144 18.3057 22.3787 18.6915 22.3787C19.1202 22.3787 19.4819 22.3117 19.7767 22.1777C20.0715 22.0384 20.2992 21.8294 20.46 21.5507C20.6208 21.2667 20.7065 20.905 20.7172 20.4656ZM29.8296 20.4576H26.9196V18.2791H29.8296C30.2262 18.2791 30.5477 18.212 30.7941 18.0781C31.0407 17.9441 31.2203 17.7593 31.3328 17.5234C31.4507 17.2823 31.5096 17.0116 31.5096 16.7116C31.5096 16.3899 31.4507 16.0926 31.3328 15.8193C31.2203 15.5459 31.0407 15.3262 30.7941 15.1601C30.5477 14.9886 30.2262 14.9029 29.8296 14.9029H27.9806V24.4286H25.1591V12.7244H29.8296C30.7674 12.7244 31.5739 12.8959 32.2491 13.2389C32.9297 13.5819 33.4522 14.0535 33.8167 14.6536C34.1811 15.2486 34.3633 15.9291 34.3633 16.6954C34.3633 17.4511 34.1811 18.1103 33.8167 18.6729C33.4522 19.2356 32.9297 19.675 32.2491 19.9913C31.5739 20.302 30.7674 20.4576 29.8296 20.4576Z" fill="currentColor"/>
</svg>
