<svg width="38" height="38" viewBox="0 0 38 38" fill="none" xmlns="http://www.w3.org/2000/svg">
	<path fill-rule="evenodd" clip-rule="evenodd" d="M8.40975 12.1845L12.3257 10.7351L12.3093 10.6513C12.1407 9.7899 11.2405 9.28457 10.4173 9.58923L1.58795 12.8571C0.92957 13.1007 0.546969 13.7879 0.686566 14.4758L3.19308 26.8295C3.36194 27.6617 4.2169 28.1621 5.0252 27.9019L9.46411 26.473L7.05767 14.6126C6.84828 13.5807 7.42217 12.55 8.40975 12.1845Z" fill="currentColor"/>
	<path opacity="0.8" fill-rule="evenodd" clip-rule="evenodd" d="M15.4679 12.2005L19.3867 10.7501L19.3673 10.6513C19.1988 9.7899 18.2986 9.28457 17.4753 9.58923L8.64606 12.8571C7.98767 13.1007 7.60507 13.7879 7.74468 14.4758L10.2512 26.8295C10.42 27.6617 11.275 28.1621 12.0833 27.9019L16.5191 26.4739L14.1157 14.6288C13.9063 13.5967 14.4803 12.566 15.4679 12.2005Z" fill="currentColor"/>
	<path opacity="0.6" fill-rule="evenodd" clip-rule="evenodd" d="M23.1813 12.4597L26.5371 11.2177L26.4262 10.6513C26.2577 9.7899 25.3575 9.28457 24.5342 9.58923L15.7049 12.8571C15.0466 13.1007 14.6639 13.7879 14.8035 14.4758L17.31 26.8295C17.4789 27.6617 18.3339 28.1621 19.1422 27.9019L24.1431 26.2921L21.8292 14.8879C21.6198 13.8559 22.1937 12.8252 23.1813 12.4597Z" fill="currentColor"/>
	<path opacity="0.4" d="M32.2537 9.85418C33.0769 9.54952 33.9777 10.0543 34.1463 10.9157L36.6473 23.6969C36.7857 24.4049 36.373 25.1046 35.6863 25.3258L26.8621 28.1666C26.054 28.4267 25.1991 27.9263 25.0301 27.0944L24.825 26.0729L22.5272 14.7467C22.3875 14.0587 22.77 13.3713 23.4285 13.1276L26.6756 11.9255L32.2537 9.85418Z" fill="currentColor"/>
</svg>
