<svg width="38" height="38" viewBox="0 0 38 38" fill="none" xmlns="http://www.w3.org/2000/svg">
<path fill-rule="evenodd" clip-rule="evenodd" d="M11.79 22.9717L9.71476 27.5834L13.8555 22.4224L11.79 22.9717ZM12.4223 21.5666L15.0496 20.9342L18.4825 16.6556L17.7373 9.96811H17.6417L12.4223 21.5666ZM15.7598 21.9162L11.0693 28.0321H13.393L15.0899 24.9916C15.2814 24.6487 15.6435 24.436 16.0363 24.436H19.3494L18.9735 21.0616L15.7598 21.9162ZM18.8571 20.0179L16.844 20.5023L18.6488 18.149L18.8571 20.0179ZM20.5065 20.654L21.1387 24.436H21.9634C22.3563 24.436 22.7183 24.6487 22.9098 24.9916L24.6068 28.0321H24.7502L27.5362 25.9196L24.6688 19.5474L20.5065 20.654ZM24.2919 18.7099L20.3405 19.6608L19.8304 16.6085L22.0461 13.7193L24.2919 18.7099ZM20.3582 9.96811L21.6122 12.7548L19.6045 15.2571L18.7204 9.96811H20.3582ZM28.487 28.0321H26.4995L27.9095 26.7492L28.487 28.0321ZM16.0563 8.60006C16.2314 8.21113 16.6182 7.961 17.0446 7.961H20.9551C21.3815 7.961 21.7685 8.21113 21.9435 8.60006L30.9032 28.5106C31.2259 29.2278 30.7013 30.0392 29.9148 30.0392H24.0647C23.6719 30.0392 23.3098 29.8267 23.1184 29.4836L21.4214 26.4432H16.5784L14.8814 29.4836C14.6899 29.8267 14.3278 30.0392 13.935 30.0392H8.08496C7.29847 30.0392 6.77383 29.2279 7.09658 28.5106L16.0563 8.60006Z" fill="currentColor"/>
</svg>
