<svg width="38" height="38" viewBox="0 0 38 38" fill="none" xmlns="http://www.w3.org/2000/svg">
<g clip-path="url(#clip0_279_10367)">
<path d="M26.2752 16.3311C26.3383 16.0842 26.5915 15.9322 26.8271 16.0294C27.4457 16.2845 27.9751 16.7247 28.3392 17.295C28.7032 17.8652 28.8798 18.5307 28.8508 19.1993C28.8398 19.4539 28.5954 19.6196 28.3448 19.573C28.0943 19.5263 27.9338 19.2843 27.9308 19.0294C27.9255 18.5934 27.7991 18.1642 27.5612 17.7916C27.3234 17.4191 26.9872 17.1237 26.5939 16.9355C26.3641 16.8254 26.212 16.578 26.2752 16.3311Z" fill="currentColor"/>
<path d="M26.5973 14.7758C26.6897 14.4877 26.9996 14.3265 27.2768 14.4477C28.2398 14.8686 29.0623 15.5644 29.6377 16.4534C30.2131 17.3423 30.5111 18.3777 30.5009 19.4286C30.4979 19.7311 30.2239 19.9478 29.9233 19.9142C29.6226 19.8805 29.4938 19.5312 29.4889 19.2287C29.4759 18.4303 29.2397 17.6475 28.8019 16.9711C28.3641 16.2947 27.7466 15.7587 27.0235 15.4199C26.7496 15.2915 26.5049 15.0639 26.5973 14.7758Z" fill="currentColor"/>
<path d="M19.4659 14.0001C21.4283 14.0002 23.0413 15.4445 23.2296 17.2931C23.6692 16.9716 24.2159 16.7794 24.8097 16.7794C26.2578 16.7795 27.4318 17.9141 27.4318 19.3136C27.4317 19.8063 27.2832 20.2643 27.0314 20.6534C27.6931 20.9787 28.1475 21.6417 28.1476 22.4083C28.1476 23.4797 27.2617 24.3494 26.1593 24.3751V24.378H9.89172V24.3643C9.80323 24.3731 9.71307 24.378 9.62219 24.378C8.17413 24.3778 7.00014 23.2433 7.00012 21.8438C7.00012 20.5339 8.02863 19.4551 9.34778 19.3224C9.6535 18.3906 10.4709 17.6927 11.4679 17.5577C11.6393 16.4419 12.6011 15.587 13.7648 15.587C14.6366 15.5871 15.3948 16.0677 15.7931 16.7774C16.2 15.1827 17.6901 14.0001 19.4659 14.0001Z" fill="currentColor"/>
</g>
<defs>
<clipPath id="clip0_279_10367">
<rect width="24" height="11" fill="currentColor" transform="translate(7.00012 14.0001)"/>
</clipPath>
</defs>
</svg>
