<svg width="38" height="38" viewBox="0 0 38 38" fill="null" xmlns="http://www.w3.org/2000/svg">
	<path d="M30.2461 12C31.7669 12.0001 32.9999 13.2536 33 14.7998V26H7.75391C6.23301 25.9999 5.0001 24.7464 5 23.2002V12H30.2461ZM22.4316 16.1729C22.0624 16.1729 21.7559 16.4849 21.7559 16.8604V18.9199C21.7557 19.6815 21.1544 20.293 20.4053 20.293C19.6563 20.2928 19.0548 19.6814 19.0547 18.9199V16.8604C19.0547 16.4849 18.7482 16.1729 18.3789 16.1729C18.0099 16.1732 17.7041 16.4851 17.7041 16.8604V18.9199C17.7042 20.4324 18.9176 21.6659 20.4053 21.666C20.8801 21.666 21.3235 21.5368 21.7139 21.3223C21.5661 21.9123 21.2405 22.7607 20.6074 22.7607C20.2593 22.7607 19.9218 22.6313 19.6475 22.3633C19.5209 22.2346 19.3512 22.1592 19.1719 22.1592C18.8135 22.1595 18.4973 22.4813 18.4971 22.8457C18.4971 23.028 18.5707 23.2004 18.6973 23.3291C19.2248 23.8655 19.9216 24.1337 20.6074 24.1338C22.0952 24.1338 23.1064 22.4921 23.1064 20.9795V16.8604C23.1064 16.485 22.8008 16.173 22.4316 16.1729ZM26.4004 16.1729C24.9127 16.173 23.6992 17.4074 23.6992 18.9199C23.6994 20.4324 24.9127 21.6659 26.4004 21.666C26.7489 21.666 27.0975 21.3962 27.0977 21.042C27.0977 20.7098 26.7873 20.3415 26.4648 20.2969L26.4004 20.293L26.2617 20.2861C25.5785 20.216 25.0499 19.6338 25.0498 18.9199C25.0498 18.1583 25.6513 17.547 26.4004 17.5469C27.1496 17.5469 27.751 18.1582 27.751 18.9199V18.9453L27.7305 21.3018C27.8572 21.5696 28.1211 21.7519 28.4268 21.752C28.8485 21.7518 29.0487 21.4873 29.0488 21.0586V20.1641C29.0488 19.9461 29.0611 19.7617 29.0742 19.5732C29.0877 19.3754 29.1016 19.1725 29.1016 18.9199C29.1016 17.4073 27.8882 16.1729 26.4004 16.1729ZM8.92285 14.7998C8.55371 14.7999 8.24726 15.1111 8.24707 15.4863V16.1729H7.74023C7.37133 16.1732 7.06569 16.4843 7.06543 16.8594C7.06543 17.2347 7.37117 17.5465 7.74023 17.5469H8.24707V19.6064C8.2472 20.7435 9.15506 21.6659 10.2734 21.666H10.6104C10.9796 21.666 11.2861 21.3549 11.2861 20.9795C11.2861 20.604 10.9797 20.293 10.6104 20.293H10.2734C9.90426 20.2929 9.59778 19.9818 9.59766 19.6064V17.5469H10.6104C10.9797 17.5469 11.2861 17.2349 11.2861 16.8594C11.2859 16.4841 10.9795 16.1729 10.6104 16.1729H9.59766V15.4863C9.59747 15.1111 9.29191 14.8 8.92285 14.7998ZM16.1895 15.9268C15.8202 15.9268 15.5137 16.2379 15.5137 16.6133V18.6729C15.5137 19.4345 14.9123 20.0459 14.1631 20.0459C13.414 20.0458 12.8125 19.4345 12.8125 18.6729V16.6133C12.8125 16.2378 12.506 15.9268 12.1367 15.9268C11.7677 15.9271 11.4619 16.238 11.4619 16.6133V18.6729C11.4619 20.1854 12.6753 21.4188 14.1631 21.4189C14.6484 21.4189 15.1028 21.2907 15.4932 21.0547C15.5086 21.0452 16.2239 20.6046 16.5059 20.0352C16.7274 19.6276 16.8643 19.1662 16.8643 18.6729V16.6133C16.8643 16.2379 16.5586 15.9269 16.1895 15.9268ZM28.3818 13.415C27.9874 13.4603 27.6133 13.6088 27.2949 13.8428C27.1312 13.9632 27.1325 14.2014 27.2754 14.3467C27.4183 14.492 27.649 14.4875 27.8213 14.3799C28.0155 14.2587 28.2345 14.1806 28.4639 14.1543C28.8153 14.114 29.1701 14.1966 29.4697 14.3877C29.7694 14.579 29.997 14.8685 30.1143 15.208C30.1906 15.4295 30.2175 15.6641 30.1943 15.8945C30.174 16.0989 30.2695 16.312 30.46 16.3799C30.6508 16.4476 30.863 16.3448 30.8984 16.1426C30.9673 15.7493 30.936 15.3418 30.8047 14.9609C30.6325 14.4625 30.2994 14.0377 29.8594 13.7568C29.4191 13.4761 28.8983 13.3558 28.3818 13.415ZM28.3828 14.5752C28.1901 14.5973 28.006 14.6638 27.8447 14.7686C27.7175 14.8513 27.7184 15.031 27.8252 15.1396C27.932 15.2482 28.1051 15.2417 28.2441 15.1816C28.3074 15.1543 28.3751 15.1359 28.4443 15.1279C28.6048 15.1095 28.7672 15.147 28.9043 15.2344C29.0412 15.3218 29.1447 15.4543 29.1982 15.6094C29.2214 15.6761 29.235 15.7458 29.2383 15.8154C29.2454 15.9689 29.3154 16.1309 29.458 16.1816C29.6006 16.2319 29.7595 16.1544 29.7773 16.002C29.8 15.8088 29.7799 15.6116 29.7158 15.4258C29.6213 15.1516 29.4373 14.9182 29.1953 14.7637C28.9533 14.6092 28.6668 14.5427 28.3828 14.5752Z" fill="currentColor"/>
</svg>
