<svg width="38" height="38" viewBox="0 0 38 38" fill="none" xmlns="http://www.w3.org/2000/svg">
<path d="M11.8786 14.0001H14.0325V19.8357C14.0325 20.5311 13.8872 21.1202 13.5968 21.603C13.3063 22.0816 12.8993 22.4436 12.3756 22.6891C11.852 22.9345 11.2363 23.0573 10.5286 23.0573C9.82908 23.0573 9.2134 22.9345 8.68159 22.6891C8.15387 22.4436 7.74068 22.0816 7.44205 21.603C7.14751 21.1202 7.00024 20.5311 7.00024 19.8357V14.0001H9.16022V19.8357C9.16022 20.2039 9.2134 20.5045 9.31976 20.7377C9.42613 20.9668 9.58158 21.1345 9.78612 21.2409C9.99067 21.3473 10.2382 21.4004 10.5286 21.4004C10.8232 21.4004 11.0707 21.3473 11.2711 21.2409C11.4716 21.1345 11.6229 20.9668 11.7252 20.7377C11.8275 20.5045 11.8786 20.2039 11.8786 19.8357V14.0001ZM18.5155 22.9345H16.5334L16.5458 21.2777H18.5155C18.9246 21.2777 19.2702 21.1796 19.5525 20.9831C19.8388 20.7868 20.0557 20.4944 20.203 20.1057C20.3543 19.7129 20.43 19.2303 20.43 18.6576V18.2709C20.43 17.8414 20.3871 17.465 20.3011 17.1418C20.2194 16.8145 20.0966 16.5425 19.9329 16.3258C19.7693 16.1048 19.5647 15.9391 19.3193 15.8287C19.0779 15.7183 18.7997 15.663 18.4848 15.663H16.4966V14.0001H18.4848C19.0902 14.0001 19.6446 14.1044 20.1477 14.313C20.655 14.5176 21.0927 14.8121 21.4609 15.1966C21.8331 15.5771 22.1196 16.0292 22.3199 16.5528C22.5245 17.0723 22.6268 17.6491 22.6268 18.2832V18.6576C22.6268 19.2875 22.5245 19.8643 22.3199 20.388C22.1196 20.9116 21.8352 21.3637 21.467 21.7441C21.0988 22.1245 20.6632 22.4191 20.16 22.6277C19.6609 22.8323 19.1127 22.9345 18.5155 22.9345ZM17.7669 14.0001V22.9345H15.613V14.0001H17.7669ZM27.5393 19.9032H25.318V18.2403H27.5393C27.842 18.2403 28.0876 18.1891 28.2757 18.0868C28.4638 17.9846 28.6009 17.8435 28.6869 17.6634C28.7768 17.4793 28.8219 17.2728 28.8219 17.0437C28.8219 16.7982 28.7768 16.5712 28.6869 16.3625C28.6009 16.1539 28.4638 15.9862 28.2757 15.8594C28.0876 15.7284 27.842 15.663 27.5393 15.663H26.128V22.9345H23.9742V14.0001H27.5393C28.2553 14.0001 28.8709 14.131 29.3864 14.3928C29.9059 14.6546 30.3048 15.0146 30.5829 15.4727C30.8611 15.9269 31.0002 16.4464 31.0002 17.0314C31.0002 17.6082 30.8611 18.1114 30.5829 18.5409C30.3048 18.9704 29.9059 19.3059 29.3864 19.5473C28.8709 19.7845 28.2553 19.9032 27.5393 19.9032Z" fill="currentColor"/>
</svg>
