<svg width="100" height="200" viewBox="0 0 100 200" fill="none" xmlns="http://www.w3.org/2000/svg">
<g clip-path="url(#clip0_19145_190587)">
<path d="M7 187.5C3.96243 187.5 1.5 189.962 1.5 193C1.5 196.038 3.96243 198.5 7 198.5H93C96.0376 198.5 98.5 196.038 98.5 193C98.5 189.962 96.0376 187.5 93 187.5H7Z" fill="#D9D9D9" stroke="#727171" stroke-width="3"/>
<path d="M13.0749 186C13.0749 186 7.5058 160.118 4.267 143C1.1201 126.368 0.5 116.818 0.5 100C0.5 83.182 1.1201 73.632 4.267 57C7.5058 39.882 13.0749 14 13.0749 14H86.9079C86.9079 14 91.7239 39.882 94.9629 57C98.1099 73.632 99.3369 83.182 99.4829 100C99.6299 116.807 98.8439 126.377 95.7159 143C92.4849 160.177 86.9079 186 86.9079 186H13.0749Z" fill="#1C943E"/>
<path d="M13.0749 186C13.0749 186 7.5058 160.118 4.267 143C1.1201 126.368 0.5 116.818 0.5 100C0.5 83.182 1.1201 73.632 4.267 57C7.5058 39.882 13.0749 14 13.0749 14H86.9079C86.9079 14 91.7239 39.882 94.9629 57C98.1099 73.632 99.3369 83.182 99.4829 100C99.6299 116.807 98.8439 126.377 95.7159 143C92.4849 160.177 86.9079 186 86.9079 186H13.0749Z" fill="url(#paint0_linear_19145_190587)"/>
<path d="M13.6213 18.6201C13.9023 17.2991 14.1292 16.2361 14.2874 15.4971H85.6624C85.7994 16.2351 85.9954 17.2841 86.2374 18.5831C86.7394 21.2771 87.4424 25.0481 88.2474 29.3531C89.8554 37.9641 91.8694 48.7151 93.4894 57.2761C96.6244 73.8441 97.8384 83.3021 97.9834 100.01C98.1294 116.724 97.3514 126.196 94.2424 142.72C92.6294 151.293 90.4304 162.031 88.6324 170.632C87.7344 174.931 86.9364 178.694 86.3634 181.381C86.0824 182.7 85.8554 183.759 85.6974 184.497H14.2874C14.1292 183.758 13.9023 182.695 13.6213 181.373C13.0489 178.681 12.2519 174.913 11.3538 170.609C9.5571 162.001 7.3575 151.262 5.7409 142.717C2.615 126.196 2 116.742 2 99.9965C2 83.2505 2.615 73.7965 5.7409 57.2755C7.3575 48.7305 9.5571 37.9925 11.3538 29.3835C12.2519 25.0805 13.0489 21.3131 13.6213 18.6201Z" stroke="black" stroke-opacity="0.12" stroke-width="3"/>
<path d="M7 1.5C3.96243 1.5 1.5 3.96243 1.5 7C1.5 10.0376 3.96243 12.5 7 12.5L93 12.5C96.0376 12.5 98.5 10.0376 98.5 7C98.5 3.96243 96.0376 1.5 93 1.5L7 1.5Z" fill="#D9D9D9" stroke="#727171" stroke-width="3"/>
<g filter="url(#filter0_d_19145_190587)">
<path d="M30.1738 100C30.1738 100 38.0498 78.762 38.1738 54.5C38.2464 40.302 37.1213 26.173 36.0212 15.86C35.1304 7.51 41.6022 0 50.0002 0C58.3983 0 64.8692 7.51 63.9792 15.86C62.8792 26.173 61.7532 40.302 61.8262 54.5C61.9502 78.762 69.8262 100 69.8262 100H30.1738Z" fill="url(#paint1_radial_19145_190587)"/>
</g>
<g filter="url(#filter1_d_19145_190587)">
<path d="M69.1197 99.5H30.8857C30.9172 99.41 30.9516 99.31 30.9886 99.202C31.2056 98.57 31.5152 97.641 31.8869 96.452C32.6301 94.072 33.6217 90.648 34.617 86.464C36.607 78.099 38.6148 66.684 38.677 54.503C38.7497 40.279 37.6228 26.13 36.5216 15.807C35.6609 7.73901 41.9158 0.5 50.0036 0.5C58.0907 0.5 64.3456 7.73901 63.4846 15.807C62.3836 26.13 61.2566 40.279 61.3296 54.503C61.3916 66.684 63.3996 78.099 65.3896 86.464C66.3846 90.648 67.3766 94.072 68.1196 96.452C68.4916 97.641 68.8006 98.57 69.0176 99.202C69.0546 99.31 69.0887 99.41 69.1197 99.5Z" stroke="black" stroke-opacity="0.12" shape-rendering="crispEdges"/>
</g>
<g filter="url(#filter2_ii_19145_190587)">
<path d="M50 127C64.9117 127 77 114.912 77 100C77 85.0883 64.9117 73 50 73C35.0883 73 23 85.0883 23 100C23 114.912 35.0883 127 50 127Z" fill="#D9D9D9"/>
</g>
<g filter="url(#filter3_d_19145_190587)">
<path d="M73 100C73 112.703 62.703 123 50 123C37.298 123 27 112.703 27 100C27 87.298 37.298 77 50 77C62.703 77 73 87.298 73 100Z" fill="black" fill-opacity="0.05" shape-rendering="crispEdges"/>
</g>
<g filter="url(#filter4_i_19145_190587)">
<path d="M73 100C73 112.703 62.703 123 50 123C37.298 123 27 112.703 27 100C27 87.298 37.298 77 50 77C62.703 77 73 87.298 73 100Z" fill="#1C943E"/>
</g>
<path d="M72 100C72 112.15 62.15 122 50 122C37.85 122 28 112.15 28 100C28 87.85 37.8497 78 50 78C62.15 78 72 87.8497 72 100Z" stroke="white" stroke-width="2"/>
<path fill-rule="evenodd" clip-rule="evenodd" d="M47.2832 90.6136C47.2832 89.9666 46.672 89.4922 46.0677 89.7235C41.9347 91.306 39 95.3102 39 99.9995C39 106.075 43.9249 111 50 111C56.075 111 61 106.075 61 99.9995C61 95.4353 58.22 91.5204 54.261 89.8555C53.652 89.5992 53.018 90.0764 53.018 90.7375C53.018 91.1598 53.286 91.5313 53.673 91.7024C56.853 93.1122 59.071 96.2968 59.071 99.9997C59.071 105.01 55.01 109.071 50 109.071C44.99 109.071 40.9286 105.01 40.9286 99.9997C40.9286 96.1929 43.2733 92.9339 46.5974 91.588C46.9993 91.4252 47.2832 91.0472 47.2832 90.6136Z" fill="white"/>
<path d="M49.5137 87.6372C49.5137 87.2853 49.7989 87 50.151 87C50.503 87 50.788 87.2853 50.788 87.6372V98.0382C50.788 98.3901 50.503 98.6754 50.151 98.6754C49.7989 98.6754 49.5137 98.3901 49.5137 98.0382V87.6372Z" fill="white"/>
</g>
<defs>
<filter id="filter0_d_19145_190587" x="26.1738" y="-4" width="47.6523" height="108" filterUnits="userSpaceOnUse" color-interpolation-filters="sRGB">
<feFlood flood-opacity="0" result="BackgroundImageFix"/>
<feColorMatrix in="SourceAlpha" type="matrix" values="0 0 0 0 0 0 0 0 0 0 0 0 0 0 0 0 0 0 127 0" result="hardAlpha"/>
<feOffset/>
<feGaussianBlur stdDeviation="2"/>
<feComposite in2="hardAlpha" operator="out"/>
<feColorMatrix type="matrix" values="0 0 0 0 0 0 0 0 0 0 0 0 0 0 0 0 0 0 0.25 0"/>
<feBlend mode="normal" in2="BackgroundImageFix" result="effect1_dropShadow_19145_190587"/>
<feBlend mode="normal" in="SourceGraphic" in2="effect1_dropShadow_19145_190587" result="shape"/>
</filter>
<filter id="filter1_d_19145_190587" x="26.1807" y="-4" width="47.6396" height="108" filterUnits="userSpaceOnUse" color-interpolation-filters="sRGB">
<feFlood flood-opacity="0" result="BackgroundImageFix"/>
<feColorMatrix in="SourceAlpha" type="matrix" values="0 0 0 0 0 0 0 0 0 0 0 0 0 0 0 0 0 0 127 0" result="hardAlpha"/>
<feOffset/>
<feGaussianBlur stdDeviation="2"/>
<feComposite in2="hardAlpha" operator="out"/>
<feColorMatrix type="matrix" values="0 0 0 0 0 0 0 0 0 0 0 0 0 0 0 0 0 0 0.25 0"/>
<feBlend mode="normal" in2="BackgroundImageFix" result="effect1_dropShadow_19145_190587"/>
<feBlend mode="normal" in="SourceGraphic" in2="effect1_dropShadow_19145_190587" result="shape"/>
</filter>
<filter id="filter2_ii_19145_190587" x="19.875" y="69.875" width="60.2499" height="60.2499" filterUnits="userSpaceOnUse" color-interpolation-filters="sRGB">
<feFlood flood-opacity="0" result="BackgroundImageFix"/>
<feBlend mode="normal" in="SourceGraphic" in2="BackgroundImageFix" result="shape"/>
<feColorMatrix in="SourceAlpha" type="matrix" values="0 0 0 0 0 0 0 0 0 0 0 0 0 0 0 0 0 0 127 0" result="hardAlpha"/>
<feOffset dx="3.12497" dy="-3.12497"/>
<feGaussianBlur stdDeviation="3.12497"/>
<feComposite in2="hardAlpha" operator="arithmetic" k2="-1" k3="1"/>
<feColorMatrix type="matrix" values="0 0 0 0 0 0 0 0 0 0 0 0 0 0 0 0 0 0 0.5 0"/>
<feBlend mode="normal" in2="shape" result="effect1_innerShadow_19145_190587"/>
<feColorMatrix in="SourceAlpha" type="matrix" values="0 0 0 0 0 0 0 0 0 0 0 0 0 0 0 0 0 0 127 0" result="hardAlpha"/>
<feOffset dx="-3.12497" dy="3.12497"/>
<feGaussianBlur stdDeviation="3.12497"/>
<feComposite in2="hardAlpha" operator="arithmetic" k2="-1" k3="1"/>
<feColorMatrix type="matrix" values="0 0 0 0 1 0 0 0 0 1 0 0 0 0 1 0 0 0 0.5 0"/>
<feBlend mode="normal" in2="effect1_innerShadow_19145_190587" result="effect2_innerShadow_19145_190587"/>
</filter>
<filter id="filter3_d_19145_190587" x="19" y="69" width="62" height="62" filterUnits="userSpaceOnUse" color-interpolation-filters="sRGB">
<feFlood flood-opacity="0" result="BackgroundImageFix"/>
<feColorMatrix in="SourceAlpha" type="matrix" values="0 0 0 0 0 0 0 0 0 0 0 0 0 0 0 0 0 0 127 0" result="hardAlpha"/>
<feOffset/>
<feGaussianBlur stdDeviation="4"/>
<feComposite in2="hardAlpha" operator="out"/>
<feColorMatrix type="matrix" values="0 0 0 0 0 0 0 0 0 0 0 0 0 0 0 0 0 0 0.25 0"/>
<feBlend mode="normal" in2="BackgroundImageFix" result="effect1_dropShadow_19145_190587"/>
<feBlend mode="normal" in="SourceGraphic" in2="effect1_dropShadow_19145_190587" result="shape"/>
</filter>
<filter id="filter4_i_19145_190587" x="22" y="77" width="51" height="51" filterUnits="userSpaceOnUse" color-interpolation-filters="sRGB">
<feFlood flood-opacity="0" result="BackgroundImageFix"/>
<feBlend mode="normal" in="SourceGraphic" in2="BackgroundImageFix" result="shape"/>
<feColorMatrix in="SourceAlpha" type="matrix" values="0 0 0 0 0 0 0 0 0 0 0 0 0 0 0 0 0 0 127 0" result="hardAlpha"/>
<feOffset dx="-5" dy="5"/>
<feGaussianBlur stdDeviation="4"/>
<feComposite in2="hardAlpha" operator="arithmetic" k2="-1" k3="1"/>
<feColorMatrix type="matrix" values="0 0 0 0 0 0 0 0 0 0 0 0 0 0 0 0 0 0 0.15 0"/>
<feBlend mode="normal" in2="shape" result="effect1_innerShadow_19145_190587"/>
</filter>
<linearGradient id="paint0_linear_19145_190587" x1="-3.5001" y1="141.28" x2="103.51" y2="141.7" gradientUnits="userSpaceOnUse">
<stop stop-color="#020202" stop-opacity="0.35"/>
<stop offset="0.18316" stop-color="#020202" stop-opacity="0.12"/>
<stop offset="0.35085" stop-color="white" stop-opacity="0.08"/>
<stop offset="0.49829" stop-color="white" stop-opacity="0.25"/>
<stop offset="0.64825" stop-color="white" stop-opacity="0.08"/>
<stop offset="0.82318" stop-color="#020202" stop-opacity="0.12"/>
<stop offset="1" stop-color="#020202" stop-opacity="0.35"/>
</linearGradient>
<radialGradient id="paint1_radial_19145_190587" cx="0" cy="0" r="1" gradientUnits="userSpaceOnUse" gradientTransform="translate(50.5198 19.17) scale(10.846 89.342)">
<stop stop-color="white"/>
<stop offset="1" stop-color="#9B9B9B"/>
</radialGradient>
<clipPath id="clip0_19145_190587">
<rect width="100" height="200" fill="white"/>
</clipPath>
</defs>
</svg>
