<svg width="200" height="100" viewBox="0 0 200 100" fill="none" xmlns="http://www.w3.org/2000/svg">
<g clip-path="url(#clip0_19145_190552)">
<path d="M12.5 7C12.5 3.96243 10.0376 1.5 7 1.5C3.96243 1.5 1.5 3.96243 1.5 7V93C1.5 96.0376 3.96243 98.5 7 98.5C10.0376 98.5 12.5 96.0376 12.5 93V7Z" fill="#D9D9D9" stroke="#727171" stroke-width="3"/>
<path d="M14 13.0749C14 13.0749 39.882 7.5058 57 4.267C73.632 1.1201 83.182 0.5 100 0.5C116.818 0.5 126.368 1.1201 143 4.267C160.118 7.5058 186 13.0749 186 13.0749V86.9079C186 86.9079 160.118 91.7239 143 94.9629C126.368 98.1099 116.818 99.3369 100 99.4829C83.193 99.6299 73.623 98.8439 57 95.7159C39.823 92.4849 14 86.9079 14 86.9079V13.0749Z" fill="#1C943E"/>
<path d="M14 13.0749C14 13.0749 39.882 7.5058 57 4.267C73.632 1.1201 83.182 0.5 100 0.5C116.818 0.5 126.368 1.1201 143 4.267C160.118 7.5058 186 13.0749 186 13.0749V86.9079C186 86.9079 160.118 91.7239 143 94.9629C126.368 98.1099 116.818 99.3369 100 99.4829C83.193 99.6299 73.623 98.8439 57 95.7159C39.823 92.4849 14 86.9079 14 86.9079V13.0749Z" fill="url(#paint0_linear_19145_190552)"/>
<path d="M181.38 13.6213C182.701 13.9023 183.764 14.1292 184.503 14.2874V85.6624C183.765 85.7994 182.716 85.9954 181.417 86.2374C178.723 86.7394 174.952 87.4424 170.647 88.2474C162.036 89.8554 151.285 91.8694 142.724 93.4894C126.156 96.6244 116.698 97.8384 99.9898 97.9834C83.2758 98.1294 73.8038 97.3514 57.2798 94.2424C48.7065 92.6294 37.9688 90.4304 29.3678 88.6324C25.0688 87.7344 21.3062 86.9364 18.6188 86.3634C17.3002 86.0824 16.2404 85.8554 15.5029 85.6974V14.2874C16.242 14.1292 17.3045 13.9023 18.6264 13.6213C21.3189 13.0489 25.0872 12.2519 29.3904 11.3538C37.9987 9.5571 48.7374 7.3575 57.2824 5.7409C73.8034 2.615 83.2574 2 100.003 2C116.749 2 126.203 2.615 142.724 5.7409C151.269 7.3575 162.007 9.5571 170.616 11.3538C174.919 12.2519 178.687 13.0489 181.38 13.6213Z" stroke="black" stroke-opacity="0.12" stroke-width="3"/>
<path d="M198.5 7C198.5 3.96243 196.038 1.5 193 1.5C189.962 1.5 187.5 3.96243 187.5 7V93C187.5 96.0376 189.962 98.5 193 98.5C196.038 98.5 198.5 96.0376 198.5 93V7Z" fill="#D9D9D9" stroke="#727171" stroke-width="3"/>
<g filter="url(#filter0_d_19145_190552)">
<path d="M100 30.1738C100 30.1738 121.238 38.0498 145.5 38.1738C159.698 38.2464 173.827 37.1213 184.14 36.0212C192.49 35.1304 200 41.6022 200 50.0002C200 58.3983 192.49 64.8692 184.14 63.9792C173.827 62.8792 159.698 61.7532 145.5 61.8262C121.238 61.9502 100 69.8262 100 69.8262V30.1738Z" fill="url(#paint1_radial_19145_190552)"/>
</g>
<g filter="url(#filter1_d_19145_190552)">
<path d="M100.5 69.1197V30.8857C100.59 30.9172 100.69 30.9516 100.798 30.9886C101.43 31.2056 102.359 31.5152 103.548 31.8869C105.928 32.6301 109.352 33.6217 113.536 34.617C121.901 36.607 133.316 38.6148 145.497 38.677C159.721 38.7497 173.87 37.6228 184.193 36.5216C192.261 35.6609 199.5 41.9158 199.5 50.0036C199.5 58.0907 192.261 64.3456 184.193 63.4846C173.87 62.3836 159.721 61.2566 145.497 61.3296C133.316 61.3916 121.901 63.3996 113.536 65.3896C109.352 66.3846 105.928 67.3766 103.548 68.1196C102.359 68.4916 101.43 68.8006 100.798 69.0176C100.69 69.0546 100.59 69.0887 100.5 69.1197Z" stroke="black" stroke-opacity="0.12" shape-rendering="crispEdges"/>
</g>
<g filter="url(#filter2_ii_19145_190552)">
<path d="M100 77C114.912 77 127 64.9117 127 50C127 35.0883 114.912 23 100 23C85.0883 23 73 35.0883 73 50C73 64.9117 85.0883 77 100 77Z" fill="#D9D9D9"/>
</g>
<g filter="url(#filter3_d_19145_190552)">
<path d="M123 50C123 62.703 112.703 73 100 73C87.298 73 77 62.703 77 50C77 37.298 87.298 27 100 27C112.703 27 123 37.298 123 50Z" fill="black" fill-opacity="0.05" shape-rendering="crispEdges"/>
</g>
<g filter="url(#filter4_i_19145_190552)">
<path d="M123 50C123 62.703 112.703 73 100 73C87.298 73 77 62.703 77 50C77 37.298 87.298 27 100 27C112.703 27 123 37.298 123 50Z" fill="#1C943E"/>
</g>
<path d="M122 50C122 62.15 112.15 72 100 72C87.85 72 78 62.15 78 50C78 37.85 87.8497 28 100 28C112.15 28 122 37.8497 122 50Z" stroke="white" stroke-width="2"/>
<path fill-rule="evenodd" clip-rule="evenodd" d="M97.2832 40.6136C97.2832 39.9666 96.672 39.4922 96.0677 39.7235C91.9347 41.306 89 45.3102 89 49.9995C89 56.0746 93.9249 60.9995 100 60.9995C106.075 60.9995 111 56.0745 111 49.9995C111 45.4353 108.22 41.5204 104.261 39.8555C103.652 39.5992 103.018 40.0764 103.018 40.7375C103.018 41.1598 103.286 41.5313 103.673 41.7024C106.853 43.1122 109.071 46.2968 109.071 49.9997C109.071 55.0098 105.01 59.0708 100 59.0708C94.99 59.0708 90.9286 55.0098 90.9286 49.9997C90.9286 46.1929 93.2733 42.9339 96.5974 41.588C96.9993 41.4252 97.2832 41.0472 97.2832 40.6136Z" fill="white"/>
<path d="M99.5137 37.6372C99.5137 37.2853 99.7989 37 100.151 37C100.503 37 100.788 37.2853 100.788 37.6372V48.0382C100.788 48.3901 100.503 48.6754 100.151 48.6754C99.7989 48.6754 99.5137 48.3901 99.5137 48.0382V37.6372Z" fill="white"/>
</g>
<defs>
<filter id="filter0_d_19145_190552" x="96" y="26.1738" width="108" height="47.6523" filterUnits="userSpaceOnUse" color-interpolation-filters="sRGB">
<feFlood flood-opacity="0" result="BackgroundImageFix"/>
<feColorMatrix in="SourceAlpha" type="matrix" values="0 0 0 0 0 0 0 0 0 0 0 0 0 0 0 0 0 0 127 0" result="hardAlpha"/>
<feOffset/>
<feGaussianBlur stdDeviation="2"/>
<feComposite in2="hardAlpha" operator="out"/>
<feColorMatrix type="matrix" values="0 0 0 0 0 0 0 0 0 0 0 0 0 0 0 0 0 0 0.25 0"/>
<feBlend mode="normal" in2="BackgroundImageFix" result="effect1_dropShadow_19145_190552"/>
<feBlend mode="normal" in="SourceGraphic" in2="effect1_dropShadow_19145_190552" result="shape"/>
</filter>
<filter id="filter1_d_19145_190552" x="96" y="26.1807" width="108" height="47.6396" filterUnits="userSpaceOnUse" color-interpolation-filters="sRGB">
<feFlood flood-opacity="0" result="BackgroundImageFix"/>
<feColorMatrix in="SourceAlpha" type="matrix" values="0 0 0 0 0 0 0 0 0 0 0 0 0 0 0 0 0 0 127 0" result="hardAlpha"/>
<feOffset/>
<feGaussianBlur stdDeviation="2"/>
<feComposite in2="hardAlpha" operator="out"/>
<feColorMatrix type="matrix" values="0 0 0 0 0 0 0 0 0 0 0 0 0 0 0 0 0 0 0.25 0"/>
<feBlend mode="normal" in2="BackgroundImageFix" result="effect1_dropShadow_19145_190552"/>
<feBlend mode="normal" in="SourceGraphic" in2="effect1_dropShadow_19145_190552" result="shape"/>
</filter>
<filter id="filter2_ii_19145_190552" x="69.875" y="19.875" width="60.2499" height="60.2499" filterUnits="userSpaceOnUse" color-interpolation-filters="sRGB">
<feFlood flood-opacity="0" result="BackgroundImageFix"/>
<feBlend mode="normal" in="SourceGraphic" in2="BackgroundImageFix" result="shape"/>
<feColorMatrix in="SourceAlpha" type="matrix" values="0 0 0 0 0 0 0 0 0 0 0 0 0 0 0 0 0 0 127 0" result="hardAlpha"/>
<feOffset dx="3.12497" dy="-3.12497"/>
<feGaussianBlur stdDeviation="3.12497"/>
<feComposite in2="hardAlpha" operator="arithmetic" k2="-1" k3="1"/>
<feColorMatrix type="matrix" values="0 0 0 0 0 0 0 0 0 0 0 0 0 0 0 0 0 0 0.5 0"/>
<feBlend mode="normal" in2="shape" result="effect1_innerShadow_19145_190552"/>
<feColorMatrix in="SourceAlpha" type="matrix" values="0 0 0 0 0 0 0 0 0 0 0 0 0 0 0 0 0 0 127 0" result="hardAlpha"/>
<feOffset dx="-3.12497" dy="3.12497"/>
<feGaussianBlur stdDeviation="3.12497"/>
<feComposite in2="hardAlpha" operator="arithmetic" k2="-1" k3="1"/>
<feColorMatrix type="matrix" values="0 0 0 0 1 0 0 0 0 1 0 0 0 0 1 0 0 0 0.5 0"/>
<feBlend mode="normal" in2="effect1_innerShadow_19145_190552" result="effect2_innerShadow_19145_190552"/>
</filter>
<filter id="filter3_d_19145_190552" x="69" y="19" width="62" height="62" filterUnits="userSpaceOnUse" color-interpolation-filters="sRGB">
<feFlood flood-opacity="0" result="BackgroundImageFix"/>
<feColorMatrix in="SourceAlpha" type="matrix" values="0 0 0 0 0 0 0 0 0 0 0 0 0 0 0 0 0 0 127 0" result="hardAlpha"/>
<feOffset/>
<feGaussianBlur stdDeviation="4"/>
<feComposite in2="hardAlpha" operator="out"/>
<feColorMatrix type="matrix" values="0 0 0 0 0 0 0 0 0 0 0 0 0 0 0 0 0 0 0.25 0"/>
<feBlend mode="normal" in2="BackgroundImageFix" result="effect1_dropShadow_19145_190552"/>
<feBlend mode="normal" in="SourceGraphic" in2="effect1_dropShadow_19145_190552" result="shape"/>
</filter>
<filter id="filter4_i_19145_190552" x="72" y="27" width="51" height="51" filterUnits="userSpaceOnUse" color-interpolation-filters="sRGB">
<feFlood flood-opacity="0" result="BackgroundImageFix"/>
<feBlend mode="normal" in="SourceGraphic" in2="BackgroundImageFix" result="shape"/>
<feColorMatrix in="SourceAlpha" type="matrix" values="0 0 0 0 0 0 0 0 0 0 0 0 0 0 0 0 0 0 127 0" result="hardAlpha"/>
<feOffset dx="-5" dy="5"/>
<feGaussianBlur stdDeviation="4"/>
<feComposite in2="hardAlpha" operator="arithmetic" k2="-1" k3="1"/>
<feColorMatrix type="matrix" values="0 0 0 0 0 0 0 0 0 0 0 0 0 0 0 0 0 0 0.15 0"/>
<feBlend mode="normal" in2="shape" result="effect1_innerShadow_19145_190552"/>
</filter>
<linearGradient id="paint0_linear_19145_190552" x1="58.72" y1="-3.5001" x2="58.3" y2="103.51" gradientUnits="userSpaceOnUse">
<stop stop-color="#020202" stop-opacity="0.35"/>
<stop offset="0.18316" stop-color="#020202" stop-opacity="0.12"/>
<stop offset="0.35085" stop-color="white" stop-opacity="0.08"/>
<stop offset="0.49829" stop-color="white" stop-opacity="0.25"/>
<stop offset="0.64825" stop-color="white" stop-opacity="0.08"/>
<stop offset="0.82318" stop-color="#020202" stop-opacity="0.12"/>
<stop offset="1" stop-color="#020202" stop-opacity="0.35"/>
</linearGradient>
<radialGradient id="paint1_radial_19145_190552" cx="0" cy="0" r="1" gradientUnits="userSpaceOnUse" gradientTransform="translate(180.83 50.5198) rotate(90) scale(10.846 89.342)">
<stop stop-color="white"/>
<stop offset="1" stop-color="#9B9B9B"/>
</radialGradient>
<clipPath id="clip0_19145_190552">
<rect width="200" height="100" fill="white"/>
</clipPath>
</defs>
</svg>
