<svg xmlns="http://www.w3.org/2000/svg" xmlns:tb="https://thingsboard.io/svg" width="400" height="400" fill="none" version="1.1" viewBox="0 0 400 400">
<path d="m25 106c0-2.761 2.2386-5 5-5h210c2.761 0 5 2.239 5 5v266c0 2.761-2.239 5-5 5h-210c-2.7614 0-5-2.239-5-5v-266z" fill="#fff" stroke="#1A1A1A" stroke-width="2" tb:tag="background"/><rect x="143" y="146" width="86" height="36" rx="1" fill="#999" stroke="#1A1A1A" stroke-width="2"/><rect x="143" y="254" width="86" height="36" rx="1" fill="#999" stroke="#1A1A1A" stroke-width="2"/><rect x="143" y="200" width="86" height="36" rx="1" fill="#999" stroke="#1A1A1A" stroke-width="2"/><rect x="143" y="308" width="86" height="36" rx="1" fill="#999" stroke="#1A1A1A" stroke-width="2"/><path d="m155 6c0-2.7614 2.239-5 5-5h210c2.761 0 5 2.2386 5 5v366c0 2.761-2.239 5-5 5h-210c-2.761 0-5-2.239-5-5v-366z" fill="#fff" stroke="#1A1A1A" stroke-width="2" tb:tag="background"/><rect x="269" y="57" width="86" height="36" rx="1" fill="#999" stroke="#1A1A1A" stroke-width="2"/><rect x="269" y="165" width="86" height="36" rx="1" fill="#999" stroke="#1A1A1A" stroke-width="2"/><rect x="269" y="111" width="86" height="36" rx="1" fill="#999" stroke="#1A1A1A" stroke-width="2"/><rect x="269" y="219" width="86" height="36" rx="1" fill="#999" stroke="#1A1A1A" stroke-width="2"/><rect x="175" y="57" width="86" height="36" rx="1" fill="#999" stroke="#1A1A1A" stroke-width="2"/><rect x="175" y="165" width="86" height="36" rx="1" fill="#999" stroke="#1A1A1A" stroke-width="2"/><rect x="175" y="111" width="86" height="36" rx="1" fill="#999" stroke="#1A1A1A" stroke-width="2"/><rect x="175" y="219" width="86" height="36" rx="1" fill="#999" stroke="#1A1A1A" stroke-width="2"/><rect x="216" y="286" width="98" height="91" rx="1" fill="#999" stroke="#1A1A1A" stroke-width="2"/><rect x="49" y="146" width="86" height="36" rx="1" fill="#999" stroke="#1A1A1A" stroke-width="2"/><rect x="49" y="254" width="86" height="36" rx="1" fill="#999" stroke="#1A1A1A" stroke-width="2"/><rect x="49" y="200" width="86" height="36" rx="1" fill="#999" stroke="#1A1A1A" stroke-width="2"/><rect x="49" y="308" width="86" height="36" rx="1" fill="#999" stroke="#1A1A1A" stroke-width="2"/><rect x="1" y="377" width="398" height="22" rx="5" fill="#fff" stroke="#1A1A1A" stroke-width="2" tb:tag="background"/><path d="m134.53 0s-134.53 0-134.53 67v328.36c0 2.6512 3.5818 4.6403 8 4.6403h384c4.418 0 8-1.9892 8-4.6403v-328.36c0-67-132.14-67-132.14-67h-67.86zm134.14 81.2c-2.5774 0-4.6666 1.2536-4.6666 2.8v300.4c0 1.5464 2.0894 2.8 4.6666 2.8h29.332c2.5774 0 4.6666-1.2536 4.6666-2.8v-300.4c0-1.5464-2.0894-2.8-4.6666-2.8z" fill-opacity="0" fill="#000" tb:tag="clickArea"/><g transform="translate(0,316)" fill="#d12730" style="display: none;" tb:tag="critical">
  <rect width="84" height="84" rx="4" fill="#fff" style=""/>
  <rect width="84" height="84" rx="4" style=""/>
  <rect x="2" y="2" width="80" height="80" rx="2" stroke="#000" stroke-opacity=".87" stroke-width="4" style=""/>
  <path d="m44.559 27.562-0.4688 20.059h-4.0234l-0.4883-20.059zm-5.1172 26.211c0-0.7161 0.2344-1.3151 0.7031-1.7968 0.4818-0.4948 1.1459-0.7422 1.9922-0.7422 0.8334 0 1.4909 0.2474 1.9727 0.7422 0.4817 0.4817 0.7226 1.0807 0.7226 1.7968 0 0.6901-0.2409 1.2826-0.7226 1.7774-0.4818 0.4818-1.1393 0.7226-1.9727 0.7226-0.8463 0-1.5104-0.2408-1.9922-0.7226-0.4687-0.4948-0.7031-1.0873-0.7031-1.7774z" fill="#000" fill-opacity=".87" style=""/>
 </g><g transform="translate(0 320.94)" fill="#faa405" style="display: none;" tb:tag="warning">
  <path d="m35.955 2.2112c1.4741-2.9482 5.6813-2.9482 7.1554 0l35.528 71.056c1.3298 2.6596-0.6042 5.7889-3.5777 5.7889h-71.056c-2.9735 0-4.9075-3.1292-3.5777-5.7889z" fill="#fff" style=""/>
  <path d="m35.955 2.2112c1.4741-2.9482 5.6813-2.9482 7.1554 0l35.528 71.056c1.3298 2.6596-0.6042 5.7889-3.5777 5.7889h-71.056c-2.9735 0-4.9075-3.1292-3.5777-5.7889z" style=""/>
  <path d="m37.72 3.1061c0.7371-1.4741 2.8407-1.4741 3.5778-1e-5l35.528 71.056c0.6649 1.3298-0.3021 2.8944-1.7888 2.8944h-71.056c-1.4868 0-2.4538-1.5646-1.7889-2.8944z" stroke="#000" stroke-opacity=".87" stroke-width="4" style=""/>
  <path d="m42.092 32.618-0.4688 20.059h-4.0234l-0.4883-20.059zm-5.1172 26.211c0-0.7161 0.2344-1.3151 0.7031-1.7968 0.4818-0.4948 1.1459-0.7422 1.9922-0.7422 0.8334 0 1.4909 0.2474 1.9727 0.7422 0.4817 0.4817 0.7226 1.0807 0.7226 1.7968 0 0.6901-0.2409 1.2826-0.7226 1.7774-0.4818 0.4818-1.1393 0.7226-1.9727 0.7226-0.8463 0-1.5104-0.2408-1.9922-0.7226-0.4687-0.4948-0.7031-1.0873-0.7031-1.7774z" fill="#000" fill-opacity=".87" style=""/>
 </g>
</svg>