<svg xmlns="http://www.w3.org/2000/svg" xmlns:tb="https://thingsboard.io/svg" width="600" height="400" fill="none" version="1.1" viewBox="0 0 600 400">
<g fill="#fff" stroke="#1a1a1a" tb:tag="drawwork-background">
  <path d="m65.049 374 49.936-64h143.35l49.622 64z" stroke-width="2"/>
  <rect x="24.777" y="374" width="324" height="24.999" rx="3.6512" stroke-width="2.0011"/>
  <rect x="188" y="1" width="333" height="252" stroke-width="2"/>
  <rect x="521" y="1" width="78" height="398" stroke-width="2"/>
  <circle cx="187" cy="187" r="186" stroke-width="2"/>
 </g><mask id="path-6-inside-1_4465_2848" fill="#ffffff">
  <path d="m308.33 187c0 66.274-53.726 120-120 120s-120-53.726-120-120 53.726-120 120-120 120 53.726 120 120zm-221.31 0c0 55.95 45.357 101.31 101.31 101.31s101.31-45.357 101.31-101.31-45.357-101.31-101.31-101.31-101.31 45.357-101.31 101.31z"/>
 </mask><path d="m308.33 187c0 66.274-53.726 120-120 120s-120-53.726-120-120 53.726-120 120-120 120 53.726 120 120zm-221.31 0c0 55.95 45.357 101.31 101.31 101.31s101.31-45.357 101.31-101.31-45.357-101.31-101.31-101.31-101.31 45.357-101.31 101.31z" fill="#dedede" mask="url(#path-6-inside-1_4465_2848)" stroke="#1a1a1a" stroke-width="4" tb:tag="circle-background"/><line x1="421.5" x2="421.5" y1="4.3711e-8" y2="254" stroke="#1a1a1a" stroke-width="2"/><line x1="442" x2="442" y1="4.3711e-8" y2="254" stroke="#1a1a1a" stroke-width="2"/><line x1="462" x2="462" y1="4.3711e-8" y2="254" stroke="#1a1a1a" stroke-width="2"/><line x1="482" x2="482" y1="4.3711e-8" y2="254" stroke="#1a1a1a" stroke-width="2"/><line x1="502" x2="502" y1="4.3711e-8" y2="254" stroke="#1a1a1a" stroke-width="2"/><path d="m201.79 0s-201.79 0-201.79 67v328.36c0 2.6512 5.3727 4.6404 12 4.6404h576c6.627 0 12-1.9892 12-4.6404v-328.36c0-67-198.21-67-198.21-67h-101.79zm201.21 81.2c-3.8661 0-6.9999 1.2536-6.9999 2.8v300.4c0 1.5464 3.1341 2.8 6.9999 2.8h43.998c3.8661 0 6.9999-1.2536 6.9999-2.8v-300.4c0-1.5464-3.1341-2.8-6.9999-2.8z" fill="#000" fill-opacity="0" tb:tag="clickArea"/><g fill="#d12730" style="display: none;" tb:tag="critical">
  <rect width="84" height="84" rx="4" fill="#fff" style=""/>
  <rect width="84" height="84" rx="4" style=""/>
  <rect x="2" y="2" width="80" height="80" rx="2" stroke="#000" stroke-opacity=".87" stroke-width="4" style=""/>
  <path d="m44.559 27.562-0.4688 20.059h-4.0234l-0.4883-20.059zm-5.1172 26.211c0-0.7161 0.2344-1.3151 0.7031-1.7968 0.4818-0.4948 1.1459-0.7422 1.9922-0.7422 0.8334 0 1.4909 0.2474 1.9727 0.7422 0.4817 0.4817 0.7226 1.0807 0.7226 1.7968 0 0.6901-0.2409 1.2826-0.7226 1.7774-0.4818 0.4818-1.1393 0.7226-1.9727 0.7226-0.8463 0-1.5104-0.2408-1.9922-0.7226-0.4687-0.4948-0.7031-1.0873-0.7031-1.7774z" fill="#000" fill-opacity=".87" style=""/>
 </g><g fill="#faa405" style="display: none;" tb:tag="warning">
  <path d="m38.422 7.1554c1.4741-2.9482 5.6813-2.9482 7.1554 0l35.528 71.056c1.3298 2.6596-0.6042 5.7889-3.5777 5.7889h-71.056c-2.9735 0-4.9075-3.1292-3.5777-5.7889z" fill="#fff" style=""/>
  <path d="m38.422 7.1554c1.4741-2.9482 5.6813-2.9482 7.1554 0l35.528 71.056c1.3298 2.6596-0.6042 5.7889-3.5777 5.7889h-71.056c-2.9735 0-4.9075-3.1292-3.5777-5.7889z" style=""/>
  <path d="m40.211 8.0498c0.7371-1.4741 2.8407-1.4741 3.5778-1e-5l35.528 71.056c0.6649 1.3298-0.3021 2.8944-1.7888 2.8944h-71.056c-1.4868 0-2.4538-1.5646-1.7889-2.8944z" stroke="#000" stroke-opacity=".87" stroke-width="4" style=""/>
  <path d="m44.559 37.562-0.4688 20.059h-4.0234l-0.4883-20.059zm-5.1172 26.211c0-0.7161 0.2344-1.3151 0.7031-1.7968 0.4818-0.4948 1.1459-0.7422 1.9922-0.7422 0.8334 0 1.4909 0.2474 1.9727 0.7422 0.4817 0.4817 0.7226 1.0807 0.7226 1.7968 0 0.6901-0.2409 1.2826-0.7226 1.7774-0.4818 0.4818-1.1393 0.7226-1.9727 0.7226-0.8463 0-1.5104-0.2408-1.9922-0.7226-0.4687-0.4948-0.7031-1.0873-0.7031-1.7774z" fill="#000" fill-opacity=".87" style=""/>
 </g>
</svg>