<svg xmlns="http://www.w3.org/2000/svg" xmlns:tb="https://thingsboard.io/svg" width="800" height="400" fill="none" version="1.1" viewBox="0 0 800 400">
<text x="409.16602" y="97.234375" fill="#000000" font-family="Roboto, sans-serif" font-size="56px" font-weight="400" text-anchor="middle" tb:tag="label" xml:space="preserve"><tspan transform="translate(0,-144)" dominant-baseline="middle">Outdoor</tspan></text><text x="401.15625" y="345.75" fill="#000000" font-family="Roboto, sans-serif" font-size="40px" font-weight="400" text-anchor="middle" tb:tag="units" xml:space="preserve"><tspan transform="translate(0,-144)" dominant-baseline="middle">°C</tspan></text><g fill="#666" font-family="Roboto, sans-serif" font-size="32px" font-weight="500" text-anchor="middle" style="display: none;" tb:tag="minMaxValue">
  <text x="88.070312" y="268" tb:tag="minValue" xml:space="preserve" style=""><tspan dominant-baseline="middle">0</tspan></text>
  <text x="705.02344" y="268" tb:tag="maxValue" xml:space="preserve" style=""><tspan dominant-baseline="middle">100</tspan></text>
 </g><g transform="translate(180)" tb:tag="valueArrowPosition">
  <path d="m80 179 24-42h-48z" fill="#666" tb:tag="valuePointer"/>
 </g><g transform="translate(180)" tb:tag="valueTextPositon">
  <text x="79.779297" y="273.125" fill="#002878" font-family="Roboto, sans-serif" font-size="60px" font-weight="400" text-anchor="middle" tb:tag="value" xml:space="preserve"><tspan transform="translate(0,-144)" dominant-baseline="middle">26</tspan></text>
 </g><g stroke="#000" tb:tag="scale">
  <rect x="80.5" y="183.5" width="652" height="41" fill="#c8dff7" tb:tag="scaleBackground"/>
  <rect x="80.5" y="183.5" width="164" height="41" fill="#ebebeb" tb:tag="lowWarningScale"/>
  <rect x="80.5" y="183.5" width="81" height="41" fill="#666" tb:tag="lowCriticalScale"/>
  <rect transform="scale(-1,1)" x="-732.5" y="183.5" width="164" height="41" fill="#ebebeb" tb:tag="highWarningScale"/>
  <rect transform="scale(-1,1)" x="-732.5" y="183.5" width="81" height="41" fill="#666" tb:tag="highCriticalScale"/>
 </g><g transform="translate(400)" style="display: none;" tb:tag="target">
  <rect transform="rotate(45)" x="201.8" y="64.66" width="22" height="22" fill="#dedede" stroke="#000" stroke-width="2" tb:tag="targetBackground" style=""/>
 </g><path d="m269.06 0s-269.06 0-269.06 67v328.36c0 2.6512 7.1634 4.6404 16 4.6404h768c8.836 0 16-1.9892 16-4.6404v-328.36c0-67-264.28-67-264.28-67h-135.72zm268.28 81.2c-5.1546 0-9.3334 1.2536-9.3334 2.8v300.4c0 1.5464 4.1786 2.8 9.3334 2.8h58.666c5.1546 0 9.3334-1.2536 9.3334-2.8v-300.4c0-1.5464-4.1786-2.8-9.3334-2.8z" fill="#000" fill-opacity="0" tb:tag="clickArea"/>
</svg>