<svg xmlns="http://www.w3.org/2000/svg" xmlns:tb="https://thingsboard.io/svg" width="400" height="200" fill="none" version="1.1" viewBox="0 0 400 200">
<rect width="400" height="200" rx="8" fill="#dedede" tb:tag="background"/><rect x="1" y="1" width="398" height="198" rx="7" stroke="#000" stroke-opacity=".87" stroke-width="2"/><text x="198.7832" y="57.511719" fill="#000000" font-family="Roboto, sans-serif" font-size="56px" font-weight="400" text-anchor="middle" tb:tag="label" xml:space="preserve"><tspan dominant-baseline="middle">Heat pump</tspan></text><g tb:tag="onButton">
  <rect x="29" y="100" width="156" height="72" rx="9.8143" fill="#999" style="stroke-width:.95761"/>
  <path d="m29.957 109.03c0-4.4589 3.9482-8.0734 8.8189-8.0734h136.45c4.8707 0 8.8189 3.6144 8.8189 8.0734v53.938c0 4.4589-3.9482 8.0743-8.8189 8.0743h-136.45c-4.8707 0-8.8189-3.6153-8.8189-8.0743z" shape-rendering="crispEdges" stroke="#999" stroke-width="1.9147"/>
  <text x="107.44609" y="138.7375" fill="#000000" font-family="Roboto, sans-serif" font-size="34px" font-weight="500" text-anchor="middle" tb:tag="onLabel" xml:space="preserve"><tspan dominant-baseline="middle">On</tspan></text>
 </g><g tb:tag="offButton">
  <rect x="214" y="100" width="156" height="72" rx="9.8143" fill="#dedede" style="stroke-width:.95761"/>
  <path d="m214.96 109.03c0-4.4589 3.9482-8.0734 8.8189-8.0734h136.45c4.8707 0 8.8189 3.6144 8.8189 8.0734v53.938c0 4.4589-3.9482 8.0743-8.8189 8.0743h-136.45c-4.8707 0-8.8189-3.6153-8.8189-8.0743z" shape-rendering="crispEdges" stroke="#999" stroke-width="1.9147"/>
  <text x="290.68408" y="139.33516" fill="#000000" font-family="Roboto, sans-serif" font-size="34px" font-weight="500" text-anchor="middle" tb:tag="offLabel" xml:space="preserve"><tspan dominant-baseline="middle">Off</tspan></text>
 </g>
</svg>