<svg xmlns="http://www.w3.org/2000/svg" xmlns:tb="https://thingsboard.io/svg" width="600" height="400" fill="none" version="1.1" viewBox="0 0 600 400">
<g fill="#fff" stroke="#1A1A1A" stroke-width="2" tb:tag="background">
  <rect x="161" y="21" width="178" height="30" rx="1"/>
  <rect x="201" y="1" width="98" height="20" rx="1"/>
  <rect x="51" y="377" width="398" height="22" rx="3"/>
  <path d="m76.152 377 32.051-38h283.59l32.051 38h-347.7z"/>
  <path d="m1 100c0-27.062 21.938-49 49-49h446c1.657 0 3 1.3431 3 3v282c0 1.657-1.343 3-3 3h-446c-27.062 0-49-21.938-49-49v-190z"/>
  <path d="m499 116h16v158h-16v-158z"/>
  <path d="m515 29c0-1.6569 1.343-3 3-3h26c1.657 0 3 1.3431 3 3v332c0 1.657-1.343 3-3 3h-26c-1.657 0-3-1.343-3-3v-332z"/>
  <path d="m545 183c0-1.657 1.343-3 3-3h48c1.657 0 3 1.343 3 3v24c0 1.657-1.343 3-3 3h-48c-1.657 0-3-1.343-3-3v-24z"/>
 </g><path d="m56 50v290" stroke="#1A1A1A" stroke-width="2"/><path d="m56 83h389" stroke="#1A1A1A" stroke-width="2"/><path d="m56 67h389" stroke="#1A1A1A" stroke-width="2"/><path d="m56 99h389" stroke="#1A1A1A" stroke-width="2"/><path d="m56 115h389" stroke="#1A1A1A" stroke-width="2"/><path d="m56 131h389" stroke="#1A1A1A" stroke-width="2"/><path d="m56 147h389" stroke="#1A1A1A" stroke-width="2"/><path d="m56 163h389" stroke="#1A1A1A" stroke-width="2"/><path d="m56 179h389" stroke="#1A1A1A" stroke-width="2"/><path d="m56 211h389" stroke="#1A1A1A" stroke-width="2"/><path d="m56 195h389" stroke="#1A1A1A" stroke-width="2"/><path d="m56 227h389" stroke="#1A1A1A" stroke-width="2"/><path d="m56 259h389" stroke="#1A1A1A" stroke-width="2"/><path d="m56 243h389" stroke="#1A1A1A" stroke-width="2"/><path d="m56 275h389" stroke="#1A1A1A" stroke-width="2"/><path d="m56 291h389" stroke="#1A1A1A" stroke-width="2"/><path d="m56 307h389" stroke="#1A1A1A" stroke-width="2"/><path d="m56 323h389" stroke="#1A1A1A" stroke-width="2"/><path d="m445 50v290" stroke="#1A1A1A" stroke-width="2"/><path d="m201.79 0s-201.79 0-201.79 67v328.36c0 2.6512 5.3727 4.6404 12 4.6404h576c6.627 0 12-1.9892 12-4.6404v-328.36c0-67-198.21-67-198.21-67h-101.79zm201.21 81.2c-3.8661 0-6.9999 1.2536-6.9999 2.8v300.4c0 1.5464 3.1341 2.8 6.9999 2.8h43.998c3.8661 0 6.9999-1.2536 6.9999-2.8v-300.4c0-1.5464-3.1341-2.8-6.9999-2.8z" fill="#000" fill-opacity="0" tb:tag="clickArea"/><g transform="translate(0,316)" fill="#d12730" style="display: none;" tb:tag="critical">
  <rect width="84" height="84" rx="4" fill="#fff" style=""/>
  <rect width="84" height="84" rx="4" style=""/>
  <rect x="2" y="2" width="80" height="80" rx="2" stroke="#000" stroke-opacity=".87" stroke-width="4" style=""/>
  <path d="m44.559 27.562-0.4688 20.059h-4.0234l-0.4883-20.059zm-5.1172 26.211c0-0.7161 0.2344-1.3151 0.7031-1.7968 0.4818-0.4948 1.1459-0.7422 1.9922-0.7422 0.8334 0 1.4909 0.2474 1.9727 0.7422 0.4817 0.4817 0.7226 1.0807 0.7226 1.7968 0 0.6901-0.2409 1.2826-0.7226 1.7774-0.4818 0.4818-1.1393 0.7226-1.9727 0.7226-0.8463 0-1.5104-0.2408-1.9922-0.7226-0.4687-0.4948-0.7031-1.0873-0.7031-1.7774z" fill="#000" fill-opacity=".87" style=""/>
 </g><g transform="translate(0 316)" fill="#faa405" style="display: none;" tb:tag="warning">
  <path d="m38.422 7.1554c1.4741-2.9482 5.6813-2.9482 7.1554 0l35.528 71.056c1.3298 2.6596-0.6042 5.7889-3.5777 5.7889h-71.056c-2.9735 0-4.9075-3.1292-3.5777-5.7889z" fill="#fff" style=""/>
  <path d="m38.422 7.1554c1.4741-2.9482 5.6813-2.9482 7.1554 0l35.528 71.056c1.3298 2.6596-0.6042 5.7889-3.5777 5.7889h-71.056c-2.9735 0-4.9075-3.1292-3.5777-5.7889z" style=""/>
  <path d="m40.211 8.0498c0.7371-1.4741 2.8407-1.4741 3.5778-1e-5l35.528 71.056c0.6649 1.3298-0.3021 2.8944-1.7888 2.8944h-71.056c-1.4868 0-2.4538-1.5646-1.7889-2.8944z" stroke="#000" stroke-opacity=".87" stroke-width="4" style=""/>
  <path d="m44.559 37.562-0.4688 20.059h-4.0234l-0.4883-20.059zm-5.1172 26.211c0-0.7161 0.2344-1.3151 0.7031-1.7968 0.4818-0.4948 1.1459-0.7422 1.9922-0.7422 0.8334 0 1.4909 0.2474 1.9727 0.7422 0.4817 0.4817 0.7226 1.0807 0.7226 1.7968 0 0.6901-0.2409 1.2826-0.7226 1.7774-0.4818 0.4818-1.1393 0.7226-1.9727 0.7226-0.8463 0-1.5104-0.2408-1.9922-0.7226-0.4687-0.4948-0.7031-1.0873-0.7031-1.7774z" fill="#000" fill-opacity=".87" style=""/>
 </g>
</svg>