<svg xmlns="http://www.w3.org/2000/svg" xmlns:tb="https://thingsboard.io/svg" width="200" height="200" fill="none" version="1.1" viewBox="0 0 200 200">
<path d="M87 100H113C113 100 100 100 100 86C100 100 87 100 87 100Z" id="path12" fill="#1A1A1A" tb:tag="line-color"/><path d="M87 100H113C113 100 100 100 100 114C100 100 87 100 87 100Z" id="path10" fill="#1A1A1A" tb:tag="line-color"/><path d="M0 100H85C93.2843 100 100 93.2843 100 85V0" stroke-width="6" id="path8" stroke="#1A1A1A" tb:tag="line"/><path d="M200 100H115C106.716 100 100 93.2843 100 85V0" stroke-width="6" id="path6" stroke="#1A1A1A" tb:tag="line"/><path d="M0 100H85C93.2843 100 100 106.716 100 115V200" stroke-width="6" id="path4" stroke="#1A1A1A" tb:tag="line"/><path d="M200 100H115C106.716 100 100 106.716 100 115V200" stroke-width="6" id="path2" stroke="#1A1A1A" tb:tag="line"/><g tb:tag="animationGroup"><g tb:tag="leftLine"/><g tb:tag="topLine"/><g tb:tag="rightLine"/><g tb:tag="bottomLine"/></g>
</svg>
