<svg width="140" height="32" viewBox="0 0 140 32" fill="none" xmlns="http://www.w3.org/2000/svg">
<path d="M43.6403 1.07422H16.5022C8.25877 1.07422 1.57617 7.75681 1.57617 16.0002C1.57617 24.2436 8.25877 30.9262 16.5022 30.9262H43.6403C51.8837 30.9262 58.5663 24.2436 58.5663 16.0002C58.5663 7.75681 51.8837 1.07422 43.6403 1.07422Z" fill="#00695C"/>
<path d="M43.6399 28.2135C50.3845 28.2135 55.8521 22.7459 55.8521 16.0013C55.8521 9.25665 50.3845 3.78906 43.6399 3.78906C36.8953 3.78906 31.4277 9.25665 31.4277 16.0013C31.4277 22.7459 36.8953 28.2135 43.6399 28.2135Z" fill="white"/>
<path d="M79.2405 19.4717C79.2405 19.1494 79.1905 18.863 79.0905 18.6123C78.9975 18.3617 78.8285 18.1325 78.5855 17.9248C78.3415 17.7171 77.9985 17.5166 77.5545 17.3232C77.1175 17.1227 76.5585 16.9186 75.8785 16.7109C75.1335 16.4818 74.4465 16.2275 73.8155 15.9482C73.1925 15.6618 72.6485 15.3324 72.1835 14.96C71.7175 14.5804 71.3555 14.1471 71.0985 13.6602C70.8405 13.166 70.7115 12.5967 70.7115 11.9521C70.7115 11.3148 70.8435 10.7347 71.1085 10.2119C71.3815 9.6891 71.7645 9.238 72.2585 8.8584C72.7595 8.4717 73.3505 8.1745 74.0305 7.9668C74.7115 7.752 75.4635 7.6445 76.2865 7.6445C77.4465 7.6445 78.4455 7.8594 79.2835 8.2891C80.1285 8.7188 80.7765 9.2952 81.2285 10.0186C81.6865 10.7419 81.9155 11.5404 81.9155 12.4141H79.2405C79.2405 11.8984 79.1295 11.4437 78.9075 11.0498C78.6925 10.6488 78.3635 10.3337 77.9195 10.1045C77.4825 9.8753 76.9275 9.7607 76.2545 9.7607C75.6175 9.7607 75.0875 9.8574 74.6645 10.0508C74.2425 10.2441 73.9265 10.5055 73.7195 10.835C73.5115 11.1644 73.4075 11.5368 73.4075 11.9521C73.4075 12.2458 73.4755 12.5143 73.6115 12.7578C73.7475 12.9941 73.9555 13.2161 74.2345 13.4238C74.5145 13.6243 74.8655 13.8141 75.2875 13.9932C75.7105 14.1722 76.2075 14.3441 76.7805 14.5088C77.6475 14.7666 78.4025 15.0531 79.0475 15.3682C79.6915 15.6761 80.2285 16.027 80.6585 16.4209C81.0885 16.8148 81.4105 17.2624 81.6255 17.7637C81.8405 18.2578 81.9475 18.82 81.9475 19.4502C81.9475 20.109 81.8155 20.7035 81.5505 21.2334C81.2855 21.7562 80.9055 22.2038 80.4115 22.5762C79.9245 22.9414 79.3375 23.2243 78.6495 23.4248C77.9695 23.6182 77.2105 23.7148 76.3725 23.7148C75.6205 23.7148 74.8795 23.6146 74.1485 23.4141C73.4255 23.2135 72.7665 22.9092 72.1725 22.501C71.5775 22.0856 71.1055 21.57 70.7545 20.9541C70.4035 20.3311 70.2285 19.6042 70.2285 18.7734H72.9245C72.9245 19.2819 73.0105 19.7152 73.1825 20.0732C73.3615 20.4313 73.6085 20.7249 73.9235 20.9541C74.2385 21.1761 74.6035 21.3408 75.0195 21.4482C75.4415 21.5557 75.8925 21.6094 76.3725 21.6094C77.0025 21.6094 77.5295 21.5199 77.9515 21.3408C78.3815 21.1618 78.7035 20.9111 78.9185 20.5889C79.1335 20.2666 79.2405 19.8942 79.2405 19.4717ZM87.5765 20.9219L90.2625 11.877H91.9165L91.4655 14.584L88.7585 23.5H87.2755L87.5765 20.9219ZM85.9975 11.877L88.0925 20.9648L88.2645 23.5H86.6095L83.4625 11.877H85.9975ZM94.4305 20.8574L96.4605 11.877H98.9845L95.8485 23.5H94.1935L94.4305 20.8574ZM92.1955 11.877L94.8495 20.8145L95.1825 23.5H93.6995L90.9605 14.5732L90.5095 11.877H92.1955ZM103.862 11.877V23.5H101.263V11.877H103.862ZM101.091 8.8262C101.091 8.4323 101.22 8.1064 101.478 7.8486C101.743 7.5837 102.108 7.4512 102.573 7.4512C103.032 7.4512 103.393 7.5837 103.658 7.8486C103.923 8.1064 104.056 8.4323 104.056 8.8262C104.056 9.2129 103.923 9.5352 103.658 9.793C103.393 10.0508 103.032 10.1797 102.573 10.1797C102.108 10.1797 101.743 10.0508 101.478 9.793C101.22 9.5352 101.091 9.2129 101.091 8.8262ZM112.37 11.877V13.7676H105.817V11.877H112.37ZM107.708 9.0303H110.297V20.2881C110.297 20.6462 110.347 20.9219 110.447 21.1152C110.555 21.3014 110.701 21.4268 110.888 21.4912C111.074 21.5557 111.292 21.5879 111.543 21.5879C111.722 21.5879 111.894 21.5771 112.059 21.5557C112.223 21.5342 112.356 21.5127 112.456 21.4912L112.467 23.4678C112.252 23.5322 112.001 23.5895 111.715 23.6396C111.436 23.6898 111.113 23.7148 110.748 23.7148C110.154 23.7148 109.627 23.611 109.169 23.4033C108.711 23.1885 108.353 22.8411 108.095 22.3613C107.837 21.8815 107.708 21.2441 107.708 20.4492V9.0303ZM119.46 21.6523C119.882 21.6523 120.262 21.57 120.599 21.4053C120.942 21.2334 121.218 20.9971 121.426 20.6963C121.641 20.3955 121.759 20.0482 121.78 19.6543H124.219C124.204 20.4062 123.982 21.0902 123.553 21.7061C123.123 22.3219 122.554 22.8125 121.845 23.1777C121.136 23.5358 120.352 23.7148 119.492 23.7148C118.604 23.7148 117.831 23.5645 117.172 23.2637C116.513 22.9557 115.965 22.5332 115.528 21.9961C115.091 21.459 114.762 20.8395 114.54 20.1377C114.325 19.4359 114.218 18.6839 114.218 17.8818V17.5059C114.218 16.7038 114.325 15.9518 114.54 15.25C114.762 14.541 115.091 13.918 115.528 13.3809C115.965 12.8438 116.513 12.4248 117.172 12.124C117.831 11.8161 118.601 11.6621 119.481 11.6621C120.412 11.6621 121.229 11.8483 121.931 12.2207C122.632 12.5859 123.184 13.098 123.585 13.7568C123.993 14.4085 124.204 15.1676 124.219 16.0342H121.78C121.759 15.6045 121.651 15.2178 121.458 14.874C121.272 14.5231 121.007 14.2438 120.663 14.0361C120.326 13.8285 119.922 13.7246 119.449 13.7246C118.926 13.7246 118.493 13.832 118.149 14.0469C117.806 14.2546 117.537 14.541 117.344 14.9062C117.15 15.2643 117.011 15.6689 116.925 16.1201C116.846 16.5641 116.807 17.026 116.807 17.5059V17.8818C116.807 18.3617 116.846 18.8271 116.925 19.2783C117.004 19.7295 117.14 20.1341 117.333 20.4922C117.534 20.8431 117.806 21.126 118.149 21.3408C118.493 21.5485 118.93 21.6523 119.46 21.6523ZM129.106 7V23.5H126.528V7H129.106ZM128.655 17.2588L127.817 17.248C127.825 16.446 127.936 15.7048 128.15 15.0244C128.372 14.3441 128.68 13.7533 129.074 13.252C129.475 12.7435 129.955 12.3532 130.514 12.0811C131.072 11.8018 131.692 11.6621 132.372 11.6621C132.945 11.6621 133.461 11.7409 133.919 11.8984C134.384 12.056 134.785 12.3102 135.122 12.6611C135.459 13.0049 135.713 13.4561 135.885 14.0146C136.064 14.5661 136.153 15.2393 136.153 16.0342V23.5H133.554V16.0127C133.554 15.4541 133.471 15.0101 133.307 14.6807C133.149 14.3512 132.916 14.1149 132.608 13.9717C132.3 13.8213 131.924 13.7461 131.48 13.7461C131.015 13.7461 130.603 13.8392 130.245 14.0254C129.894 14.2116 129.601 14.4658 129.364 14.7881C129.128 15.1104 128.949 15.4827 128.827 15.9053C128.713 16.3278 128.655 16.779 128.655 17.2588Z" fill="black" fill-opacity="0.76"/>
</svg>
