<svg xmlns="http://www.w3.org/2000/svg" width="720" height="68" fill="none"><g clip-path="url(#a)"><path fill="#17181c" d="M0 0h720v68H0z"/><g fill="#353841" clip-path="url(#b)" opacity=".5"><circle cx="3" cy="17" r="1"/><circle cx="87" cy="17" r="1"/><circle cx="73" cy="17" r="1"/><circle cx="17" cy="17" r="1"/><circle cx="101" cy="17" r="1"/><circle cx="3" cy="3" r="1"/><circle cx="87" cy="3" r="1"/><circle cx="73" cy="3" r="1"/><circle cx="17" cy="3" r="1"/><circle cx="101" cy="3" r="1"/><circle cx="3" cy="31" r="1"/><circle cx="87" cy="31" r="1"/><circle cx="73" cy="31" r="1"/><circle cx="17" cy="31" r="1"/><circle cx="101" cy="31" r="1"/><circle cx="45" cy="17" r="1"/><circle cx="129" cy="17" r="1"/><circle cx="31" cy="17" r="1"/><circle cx="115" cy="17" r="1"/><circle cx="59" cy="17" r="1"/><circle cx="143" cy="17" r="1"/><circle cx="45" cy="3" r="1"/><circle cx="129" cy="3" r="1"/><circle cx="31" cy="3" r="1"/><circle cx="115" cy="3" r="1"/><circle cx="59" cy="3" r="1"/><circle cx="143" cy="3" r="1"/><circle cx="45" cy="31" r="1"/><circle cx="129" cy="31" r="1"/><circle cx="31" cy="31" r="1"/><circle cx="115" cy="31" r="1"/><circle cx="59" cy="31" r="1"/><circle cx="143" cy="31" r="1"/><circle cx="3" cy="59" r="1"/><circle cx="87" cy="59" r="1"/><circle cx="73" cy="59" r="1"/><circle cx="17" cy="59" r="1"/><circle cx="101" cy="59" r="1"/><circle cx="3" cy="45" r="1"/><circle cx="87" cy="45" r="1"/><circle cx="73" cy="45" r="1"/><circle cx="17" cy="45" r="1"/><circle cx="101" cy="45" r="1"/><circle cx="45" cy="59" r="1"/><circle cx="129" cy="59" r="1"/><circle cx="31" cy="59" r="1"/><circle cx="115" cy="59" r="1"/><circle cx="59" cy="59" r="1"/><circle cx="143" cy="59" r="1"/><circle cx="45" cy="45" r="1"/><circle cx="129" cy="45" r="1"/><circle cx="31" cy="45" r="1"/><circle cx="115" cy="45" r="1"/><circle cx="59" cy="45" r="1"/><circle cx="143" cy="45" r="1"/><circle cx="171" cy="17" r="1"/><circle cx="255" cy="17" r="1"/><circle cx="157" cy="17" r="1"/><circle cx="241" cy="17" r="1"/><circle cx="185" cy="17" r="1"/><circle cx="269" cy="17" r="1"/><circle cx="171" cy="3" r="1"/><circle cx="255" cy="3" r="1"/><circle cx="157" cy="3" r="1"/><circle cx="241" cy="3" r="1"/><circle cx="185" cy="3" r="1"/><circle cx="269" cy="3" r="1"/><circle cx="171" cy="31" r="1"/><circle cx="255" cy="31" r="1"/><circle cx="157" cy="31" r="1"/><circle cx="241" cy="31" r="1"/><circle cx="185" cy="31" r="1"/><circle cx="269" cy="31" r="1"/><circle cx="213" cy="17" r="1"/><circle cx="297" cy="17" r="1"/><circle cx="199" cy="17" r="1"/><circle cx="283" cy="17" r="1"/><circle cx="227" cy="17" r="1"/><circle cx="311" cy="17" r="1"/><circle cx="213" cy="3" r="1"/><circle cx="297" cy="3" r="1"/><circle cx="199" cy="3" r="1"/><circle cx="283" cy="3" r="1"/><circle cx="227" cy="3" r="1"/><circle cx="311" cy="3" r="1"/><circle cx="213" cy="31" r="1"/><circle cx="297" cy="31" r="1"/><circle cx="199" cy="31" r="1"/><circle cx="283" cy="31" r="1"/><circle cx="227" cy="31" r="1"/><circle cx="311" cy="31" r="1"/><circle cx="171" cy="59" r="1"/><circle cx="255" cy="59" r="1"/><circle cx="157" cy="59" r="1"/><circle cx="241" cy="59" r="1"/><circle cx="185" cy="59" r="1"/><circle cx="269" cy="59" r="1"/><circle cx="171" cy="45" r="1"/><circle cx="255" cy="45" r="1"/><circle cx="157" cy="45" r="1"/><circle cx="241" cy="45" r="1"/><circle cx="185" cy="45" r="1"/><circle cx="269" cy="45" r="1"/><circle cx="213" cy="59" r="1"/><circle cx="297" cy="59" r="1"/><circle cx="199" cy="59" r="1"/><circle cx="283" cy="59" r="1"/><circle cx="227" cy="59" r="1"/><circle cx="311" cy="59" r="1"/><circle cx="213" cy="45" r="1"/><circle cx="297" cy="45" r="1"/><circle cx="199" cy="45" r="1"/><circle cx="283" cy="45" r="1"/><circle cx="227" cy="45" r="1"/><circle cx="311" cy="45" r="1"/><circle cx="339" cy="17" r="1"/><circle cx="423" cy="17" r="1"/><circle cx="325" cy="17" r="1"/><circle cx="409" cy="17" r="1"/><circle cx="353" cy="17" r="1"/><circle cx="437" cy="17" r="1"/><circle cx="339" cy="3" r="1"/><circle cx="423" cy="3" r="1"/><circle cx="325" cy="3" r="1"/><circle cx="409" cy="3" r="1"/><circle cx="353" cy="3" r="1"/><circle cx="437" cy="3" r="1"/><circle cx="339" cy="31" r="1"/><circle cx="423" cy="31" r="1"/><circle cx="325" cy="31" r="1"/><circle cx="409" cy="31" r="1"/><circle cx="353" cy="31" r="1"/><circle cx="437" cy="31" r="1"/><circle cx="381" cy="17" r="1"/><circle cx="465" cy="17" r="1"/><circle cx="367" cy="17" r="1"/><circle cx="451" cy="17" r="1"/><circle cx="395" cy="17" r="1"/><circle cx="479" cy="17" r="1"/><circle cx="381" cy="3" r="1"/><circle cx="465" cy="3" r="1"/><circle cx="367" cy="3" r="1"/><circle cx="451" cy="3" r="1"/><circle cx="395" cy="3" r="1"/><circle cx="479" cy="3" r="1"/><circle cx="381" cy="31" r="1"/><circle cx="465" cy="31" r="1"/><circle cx="367" cy="31" r="1"/><circle cx="451" cy="31" r="1"/><circle cx="395" cy="31" r="1"/><circle cx="479" cy="31" r="1"/><circle cx="339" cy="59" r="1"/><circle cx="423" cy="59" r="1"/><circle cx="325" cy="59" r="1"/><circle cx="409" cy="59" r="1"/><circle cx="353" cy="59" r="1"/><circle cx="437" cy="59" r="1"/><circle cx="339" cy="45" r="1"/><circle cx="423" cy="45" r="1"/><circle cx="325" cy="45" r="1"/><circle cx="409" cy="45" r="1"/><circle cx="353" cy="45" r="1"/><circle cx="437" cy="45" r="1"/><circle cx="381" cy="59" r="1"/><circle cx="465" cy="59" r="1"/><circle cx="367" cy="59" r="1"/><circle cx="451" cy="59" r="1"/><circle cx="395" cy="59" r="1"/><circle cx="479" cy="59" r="1"/><circle cx="381" cy="45" r="1"/><circle cx="465" cy="45" r="1"/><circle cx="367" cy="45" r="1"/><circle cx="451" cy="45" r="1"/><circle cx="395" cy="45" r="1"/><circle cx="479" cy="45" r="1"/><circle cx="507" cy="17" r="1"/><circle cx="591" cy="17" r="1"/><circle cx="493" cy="17" r="1"/><circle cx="577" cy="17" r="1"/><circle cx="521" cy="17" r="1"/><circle cx="605" cy="17" r="1"/><circle cx="507" cy="3" r="1"/><circle cx="591" cy="3" r="1"/><circle cx="493" cy="3" r="1"/><circle cx="577" cy="3" r="1"/><circle cx="521" cy="3" r="1"/><circle cx="605" cy="3" r="1"/><circle cx="507" cy="31" r="1"/><circle cx="591" cy="31" r="1"/><circle cx="493" cy="31" r="1"/><circle cx="577" cy="31" r="1"/><circle cx="521" cy="31" r="1"/><circle cx="605" cy="31" r="1"/><circle cx="549" cy="17" r="1"/><circle cx="633" cy="17" r="1"/><circle cx="535" cy="17" r="1"/><circle cx="619" cy="17" r="1"/><circle cx="563" cy="17" r="1"/><circle cx="647" cy="17" r="1"/><circle cx="549" cy="3" r="1"/><circle cx="633" cy="3" r="1"/><circle cx="535" cy="3" r="1"/><circle cx="619" cy="3" r="1"/><circle cx="563" cy="3" r="1"/><circle cx="647" cy="3" r="1"/><circle cx="549" cy="31" r="1"/><circle cx="633" cy="31" r="1"/><circle cx="535" cy="31" r="1"/><circle cx="619" cy="31" r="1"/><circle cx="563" cy="31" r="1"/><circle cx="647" cy="31" r="1"/><circle cx="507" cy="59" r="1"/><circle cx="591" cy="59" r="1"/><circle cx="493" cy="59" r="1"/><circle cx="577" cy="59" r="1"/><circle cx="521" cy="59" r="1"/><circle cx="605" cy="59" r="1"/><circle cx="507" cy="45" r="1"/><circle cx="591" cy="45" r="1"/><circle cx="493" cy="45" r="1"/><circle cx="577" cy="45" r="1"/><circle cx="521" cy="45" r="1"/><circle cx="605" cy="45" r="1"/><circle cx="549" cy="59" r="1"/><circle cx="633" cy="59" r="1"/><circle cx="535" cy="59" r="1"/><circle cx="619" cy="59" r="1"/><circle cx="563" cy="59" r="1"/><circle cx="647" cy="59" r="1"/><circle cx="549" cy="45" r="1"/><circle cx="633" cy="45" r="1"/><circle cx="535" cy="45" r="1"/><circle cx="619" cy="45" r="1"/><circle cx="563" cy="45" r="1"/><circle cx="647" cy="45" r="1"/><circle cx="675" cy="17" r="1"/><circle cx="661" cy="17" r="1"/><circle cx="689" cy="17" r="1"/><circle cx="675" cy="3" r="1"/><circle cx="661" cy="3" r="1"/><circle cx="689" cy="3" r="1"/><circle cx="675" cy="31" r="1"/><circle cx="661" cy="31" r="1"/><circle cx="689" cy="31" r="1"/><circle cx="675" cy="59" r="1"/><circle cx="661" cy="59" r="1"/><circle cx="689" cy="59" r="1"/><circle cx="675" cy="45" r="1"/><circle cx="661" cy="45" r="1"/><circle cx="689" cy="45" r="1"/><circle cx="703" cy="17" r="1"/><circle cx="703" cy="3" r="1"/><circle cx="703" cy="31" r="1"/><circle cx="703" cy="59" r="1"/><circle cx="703" cy="45" r="1"/><circle cx="717" cy="17" r="1"/><circle cx="717" cy="3" r="1"/><circle cx="717" cy="31" r="1"/><circle cx="717" cy="59" r="1"/><circle cx="717" cy="45" r="1"/></g><rect width="115" height="43" x="85" y="12.5" fill="#23262f" rx="7.5"/><rect width="115" height="43" x="85" y="12.5" stroke="#888c96" rx="7.5"/><rect width="24" height="24" x="94.5" y="22" fill="#888c96" rx="3"/><path fill="#23262f" d="M111.75 31.75a.75.75 0 0 1-.75.75h-1.5a.75.75 0 0 1-.75-.75H108v7.5h4.5v-7.5zm-11.25-3v9h6v-6a1.5 1.5 0 0 1 1.5-1.5h2.25v-1.5zm11.25 1.5h.75a1.5 1.5 0 0 1 1.5 1.5v7.5a1.5 1.5 0 0 1-1.5 1.5H108a1.5 1.5 0 0 1-1.5-1.5h-6a1.5 1.5 0 0 1-1.5-1.5v-9a1.5 1.5 0 0 1 1.5-1.5h9.75a1.5 1.5 0 0 1 1.5 1.5z"/><path fill="#fff" d="M125.682 38h-2.465v-7.273h2.515q1.083 0 1.86.437.781.433 1.201 1.246.419.814.419 1.947 0 1.136-.423 1.953a2.9 2.9 0 0 1-1.211 1.253q-.788.437-1.896.437m-1.147-1.14h1.083q.76 0 1.268-.277.507-.28.763-.834.256-.558.256-1.393 0-.834-.256-1.384a1.74 1.74 0 0 0-.756-.828q-.498-.277-1.236-.277h-1.122zm8.286 1.246q-.82 0-1.417-.34a2.3 2.3 0 0 1-.912-.973q-.32-.633-.32-1.488 0-.842.32-1.478.323-.639.902-.994.579-.359 1.36-.359.504 0 .952.164.45.16.795.497.348.337.547.86.2.518.199 1.235v.394h-4.471v-.866h3.239a1.4 1.4 0 0 0-.16-.657 1.16 1.16 0 0 0-.437-.458 1.23 1.23 0 0 0-.646-.167q-.394 0-.693.192a1.3 1.3 0 0 0-.465.497 1.4 1.4 0 0 0-.167.67v.757q0 .477.174.817.174.337.487.519.312.177.731.177.28 0 .508-.078a1.1 1.1 0 0 0 .394-.238 1 1 0 0 0 .252-.387l1.201.135a1.9 1.9 0 0 1-.434.83q-.315.353-.809.548a3.1 3.1 0 0 1-1.13.191m8.229-5.56L139.108 38h-1.421l-1.942-5.455h1.371l1.253 4.052h.057l1.257-4.052zm.89 5.454v-5.455h1.285V38zm.646-6.229a.75.75 0 0 1-.525-.202.65.65 0 0 1-.221-.494q0-.29.221-.493a.74.74 0 0 1 .525-.206q.309 0 .526.206.22.203.22.493a.66.66 0 0 1-.22.494.74.74 0 0 1-.526.202m4.34 6.335q-.817 0-1.402-.358a2.4 2.4 0 0 1-.899-.99q-.312-.637-.312-1.464 0-.831.319-1.467.32-.639.902-.994.587-.359 1.385-.359.665 0 1.176.245.515.242.82.686.306.44.348 1.03h-1.229a1.17 1.17 0 0 0-.355-.657q-.276-.267-.742-.267a1.16 1.16 0 0 0-.692.213 1.37 1.37 0 0 0-.466.604 2.5 2.5 0 0 0-.163.945q0 .557.163.958.163.398.459.615.298.213.699.213.285 0 .508-.107.227-.11.38-.316a1.2 1.2 0 0 0 .209-.5h1.229a2.14 2.14 0 0 1-.341 1.026 2 2 0 0 1-.802.696q-.509.248-1.194.248m5.807 0q-.82 0-1.416-.34-.594-.345-.913-.973-.32-.633-.32-1.488 0-.842.32-1.478.323-.639.902-.994.579-.359 1.36-.359.504 0 .952.164.45.16.795.497.348.337.547.86.2.518.199 1.235v.394h-4.471v-.866h3.239a1.4 1.4 0 0 0-.16-.657 1.16 1.16 0 0 0-.437-.458 1.23 1.23 0 0 0-.646-.167q-.395 0-.693.192a1.3 1.3 0 0 0-.465.497 1.44 1.44 0 0 0-.167.67v.757q0 .477.174.817.174.337.487.519.312.177.731.177.281 0 .508-.078.228-.082.394-.238a1 1 0 0 0 .252-.387l1.201.135a1.9 1.9 0 0 1-.434.83q-.315.353-.809.548a3.1 3.1 0 0 1-1.13.191m7.825-4.119-1.172.128a.9.9 0 0 0-.174-.334.9.9 0 0 0-.327-.252 1.2 1.2 0 0 0-.504-.096q-.402 0-.675.174-.27.175-.266.451a.47.47 0 0 0 .174.387q.18.15.596.245l.931.2q.774.166 1.15.528.38.363.384.949a1.5 1.5 0 0 1-.302.909 1.94 1.94 0 0 1-.82.61q-.526.22-1.208.22-1.001 0-1.612-.419a1.69 1.69 0 0 1-.728-1.175l1.254-.12a.88.88 0 0 0 .362.557q.276.188.721.188.458 0 .735-.188.28-.188.28-.465a.48.48 0 0 0-.181-.387q-.177-.153-.554-.235l-.93-.195q-.785-.164-1.161-.55-.377-.39-.373-.988a1.4 1.4 0 0 1 .273-.873q.28-.373.778-.576a3 3 0 0 1 1.154-.206q.959 0 1.509.409.554.408.686 1.104"/><rect width="115" height="43" x="230" y="12.5" fill="#4e2232" rx="7.5"/><rect width="115" height="43" x="230" y="12.5" stroke="#ee5389" rx="7.5"/><rect width="24" height="24" x="239.5" y="22" fill="#f9c3d6" rx="3"/><path fill="#4e2232" d="M257.5 36.25a1.5 1.5 0 0 0-1.5-1.5h-9a1.5 1.5 0 0 0-1.5 1.5v1.5a1.5 1.5 0 0 0 1.5 1.5h9a1.5 1.5 0 0 0 1.5-1.5zm-10.5.757V37a.75.75 0 0 1 1.5 0v.007a.75.75 0 0 1-1.5 0m8.25-.757a.75.75 0 0 1 0 1.5h-4.5a.75.75 0 0 1 0-1.5zM247 31.007V31a.75.75 0 0 1 1.5 0v.007a.75.75 0 0 1-1.5 0m8.25-.757a.75.75 0 0 1 0 1.5h-4.5a.75.75 0 0 1 0-1.5zm2.25 0a1.5 1.5 0 0 0-1.5-1.5h-9a1.5 1.5 0 0 0-1.5 1.5v1.5a1.5 1.5 0 0 0 1.5 1.5h9a1.5 1.5 0 0 0 1.5-1.5zm1.5 1.5a3 3 0 0 1-1.017 2.25q.07.062.138.129c.563.563.879 1.325.879 2.121v1.5a3 3 0 0 1-3 3h-9a3 3 0 0 1-3-3v-1.5a3 3 0 0 1 1.017-2.25A2.998 2.998 0 0 1 244 31.75v-1.5a3 3 0 0 1 3-3h9a3 3 0 0 1 3 3z"/><path fill="#fff" d="M274.194 24.727V32h-1.172l-3.427-4.954h-.06V32h-1.318v-7.273h1.179l3.424 4.958h.064v-4.958zm3.793 7.38q-.82 0-1.417-.341a2.3 2.3 0 0 1-.912-.973q-.32-.633-.32-1.488 0-.842.32-1.478.323-.639.902-.994.579-.359 1.36-.359.504 0 .952.164.45.16.795.497.348.337.547.86.2.518.199 1.235v.394h-4.471v-.866h3.239a1.4 1.4 0 0 0-.16-.657 1.16 1.16 0 0 0-.437-.458 1.23 1.23 0 0 0-.646-.167q-.394 0-.693.192a1.3 1.3 0 0 0-.465.497 1.4 1.4 0 0 0-.167.67v.757q0 .477.174.817.174.338.487.519.312.177.731.177.28 0 .508-.078a1.1 1.1 0 0 0 .394-.238 1 1 0 0 0 .252-.387l1.201.135a1.9 1.9 0 0 1-.434.83q-.315.353-.809.548a3.1 3.1 0 0 1-1.13.191m6.237-5.561v.994h-3.136v-.994zm-2.361-1.307h1.285v5.12q0 .26.078.398.082.135.213.185a.8.8 0 0 0 .291.05q.121 0 .221-.018.102-.018.156-.032l.217 1.005q-.103.035-.295.078-.189.042-.462.05-.483.013-.87-.146a1.35 1.35 0 0 1-.614-.504q-.224-.342-.22-.853zM286.425 32l-1.541-5.454h1.31l.959 3.835h.05l.98-3.835h1.296l.98 3.813h.053l.945-3.814h1.314L291.226 32h-1.339l-1.022-3.686h-.075L287.767 32zm9.466.106q-.798 0-1.385-.351a2.4 2.4 0 0 1-.909-.984q-.32-.631-.319-1.477 0-.845.319-1.48a2.4 2.4 0 0 1 .909-.988q.587-.352 1.385-.352.8 0 1.385.352.587.351.906.987.323.636.323 1.481t-.323 1.477q-.32.633-.906.984-.585.351-1.385.351m.007-1.03q.434 0 .725-.237.29-.242.433-.646.146-.405.146-.902 0-.501-.146-.906a1.44 1.44 0 0 0-.433-.65 1.1 1.1 0 0 0-.725-.241q-.443 0-.738.241-.291.242-.437.65-.142.405-.142.906 0 .496.142.901.146.405.437.647.295.238.738.238m3.698.924v-5.454h1.247v.909h.056q.15-.473.512-.728.366-.26.834-.26.107 0 .238.011.135.007.224.025v1.182a1.4 1.4 0 0 0-.259-.05 2.4 2.4 0 0 0-.338-.024q-.351 0-.632.152-.276.15-.437.416a1.2 1.2 0 0 0-.159.614V32zm5.137-1.712-.004-1.552h.206l1.96-2.19h1.503l-2.412 2.684h-.266zM303.561 32v-7.273h1.285V32zm3.423 0-1.775-2.482.866-.906L308.522 32zm-34.814 6.727a.97.97 0 0 0-.419-.725q-.366-.26-.952-.26-.412 0-.707.125a1.05 1.05 0 0 0-.451.338.82.82 0 0 0-.159.486q0 .228.103.394a.9.9 0 0 0 .287.284q.182.114.401.192t.444.132l.682.17q.413.095.792.26.384.162.685.411.306.249.483.6.178.353.178.824 0 .64-.327 1.126-.327.483-.944.756-.615.27-1.488.27-.849 0-1.474-.263a2.2 2.2 0 0 1-.973-.767q-.349-.504-.376-1.228h1.296q.029.38.234.632t.536.376q.334.124.746.124.43 0 .753-.128.327-.13.511-.362a.87.87 0 0 0 .188-.547.7.7 0 0 0-.166-.468 1.2 1.2 0 0 0-.459-.313 4.4 4.4 0 0 0-.681-.227l-.828-.213q-.898-.23-1.42-.7-.519-.472-.519-1.253 0-.643.348-1.126.352-.483.956-.75.603-.27 1.367-.27.774 0 1.356.27.587.267.92.743.334.472.345 1.087zm4.899 5.38q-.82 0-1.416-.341-.594-.345-.913-.973-.32-.633-.32-1.488 0-.842.32-1.478.323-.639.902-.994.579-.359 1.36-.359.504 0 .952.164.45.16.795.497.348.337.547.86.2.518.199 1.235v.394h-4.471v-.866h3.239a1.4 1.4 0 0 0-.16-.657 1.16 1.16 0 0 0-.437-.458 1.23 1.23 0 0 0-.646-.167q-.394 0-.693.192a1.3 1.3 0 0 0-.465.497 1.44 1.44 0 0 0-.167.67v.757q0 .477.174.817.174.338.487.519.312.177.731.177.28 0 .508-.078.228-.082.394-.238a1 1 0 0 0 .252-.387l1.201.135a1.9 1.9 0 0 1-.434.83q-.315.353-.809.548a3.1 3.1 0 0 1-1.13.191m3.513-.107v-5.455h1.247v.91h.057a1.36 1.36 0 0 1 1.346-.988q.106 0 .237.011.135.007.224.025v1.182a1.3 1.3 0 0 0-.259-.05 2.4 2.4 0 0 0-.337-.024q-.352 0-.633.153-.276.148-.436.415-.16.266-.16.614V44zm9.003-5.455L287.643 44h-1.421l-1.942-5.455h1.371l1.253 4.052h.057l1.257-4.052zm3.119 5.561q-.82 0-1.417-.34a2.3 2.3 0 0 1-.912-.973q-.32-.633-.32-1.488 0-.842.32-1.478.323-.639.902-.994.579-.359 1.36-.359.504 0 .951.164.451.16.796.497.348.337.547.86.199.518.199 1.235v.394h-4.471v-.866h3.238a1.4 1.4 0 0 0-.159-.657 1.17 1.17 0 0 0-.437-.458 1.23 1.23 0 0 0-.647-.167q-.393 0-.692.192a1.3 1.3 0 0 0-.465.497 1.4 1.4 0 0 0-.167.67v.757q0 .477.174.817.174.338.486.519.313.177.732.177.28 0 .508-.078a1.1 1.1 0 0 0 .394-.238 1 1 0 0 0 .252-.387l1.2.135q-.113.476-.433.83-.316.353-.81.548a3.1 3.1 0 0 1-1.129.191m3.513-.106v-5.455h1.247v.91h.056q.15-.473.512-.728.366-.26.834-.26.107 0 .238.011.135.007.224.025v1.182a1.4 1.4 0 0 0-.259-.05 2.4 2.4 0 0 0-.338-.024q-.351 0-.632.153-.276.148-.437.415a1.2 1.2 0 0 0-.159.614V44z"/><path fill="#888c96" d="M203.22 33.47a.75.75 0 0 0 0 1.06l4.773 4.773a.75.75 0 1 0 1.06-1.06L204.811 34l4.242-4.243a.75.75 0 0 0-1.06-1.06zm23.56 1.06a.75.75 0 0 0 0-1.06l-4.773-4.773a.75.75 0 1 0-1.06 1.06L225.189 34l-4.242 4.243a.75.75 0 0 0 1.06 1.06zM203.75 34v.75h22.5v-1.5h-22.5z"/><rect width="115" height="43" x="375" y="12.5" fill="#40224e" rx="7.5"/><rect width="115" height="43" x="375" y="12.5" stroke="#bd53ee" rx="7.5"/><rect width="24" height="24" x="384.5" y="22" fill="#ebccfa" rx="3"/><path fill="#40224e" d="M400.47 35.72a.75.75 0 0 1 1.06 0l2.25 2.25a.75.75 0 0 1 0 1.06l-2.25 2.25a.75.75 0 1 1-1.06-1.06l.969-.97H390.5a.75.75 0 0 1 0-1.5h10.939l-.969-.97a.75.75 0 0 1 0-1.06m1.28-1.72v-4.5a.75.75 0 0 0-.75-.75h-9a.75.75 0 0 0-.75.75v6a.75.75 0 0 1-1.5 0v-6a2.25 2.25 0 0 1 2.25-2.25h9a2.25 2.25 0 0 1 2.25 2.25V34a.75.75 0 0 1-1.5 0"/><path fill="#fff" d="M413.217 32v-7.273h2.728q.837 0 1.406.313.572.312.863.86.295.542.295 1.235 0 .699-.295 1.243a2.1 2.1 0 0 1-.87.856q-.576.309-1.417.309h-1.808v-1.084h1.63q.49 0 .803-.17.312-.17.461-.469.153-.298.153-.685a1.46 1.46 0 0 0-.153-.682 1.03 1.03 0 0 0-.465-.458q-.312-.167-.806-.167h-1.207V32zm7.665-7.273V32h-1.286v-7.273zm2.891 7.383q-.519 0-.934-.185a1.53 1.53 0 0 1-.653-.554q-.238-.365-.238-.901 0-.462.17-.764.171-.301.465-.483.295-.18.665-.273.372-.096.77-.139.48-.05.778-.089.298-.041.433-.128.139-.088.139-.273V28.3q0-.402-.238-.622t-.686-.22q-.472 0-.749.206-.273.206-.369.487l-1.201-.17q.142-.498.469-.832a2.04 2.04 0 0 1 .799-.504q.472-.17 1.044-.17.395 0 .785.092t.714.305q.323.21.518.572.2.362.199.905V32h-1.236v-.75h-.042a1.57 1.57 0 0 1-.86.743 2.1 2.1 0 0 1-.742.117m.334-.944q.387 0 .671-.153.284-.157.437-.412a1.05 1.05 0 0 0 .156-.558v-.642a.6.6 0 0 1-.206.092 3 3 0 0 1-.319.075q-.178.031-.352.056l-.302.043a2.3 2.3 0 0 0-.515.128.85.85 0 0 0-.358.248.6.6 0 0 0-.132.405q0 .356.259.536.26.181.661.181m6.562-4.62v.994h-3.135v-.994zm-2.361-1.307h1.285v5.12q0 .26.079.398.081.135.213.185.13.05.291.05.12 0 .22-.018.103-.018.156-.032l.217 1.005q-.103.035-.295.078a2.4 2.4 0 0 1-.462.05q-.483.013-.87-.146a1.36 1.36 0 0 1-.614-.504q-.223-.342-.22-.853zm6.199 1.306v.995h-3.224v-.994zM432.089 32v-5.97q0-.55.227-.916.231-.366.618-.547.387-.18.86-.18.333 0 .593.053.258.053.383.095l-.256.995a2 2 0 0 0-.206-.05 1.2 1.2 0 0 0-.277-.028q-.358 0-.507.174-.146.17-.146.49V32zm5.599.106q-.798 0-1.385-.351a2.4 2.4 0 0 1-.909-.984q-.32-.631-.319-1.477 0-.845.319-1.48a2.4 2.4 0 0 1 .909-.988q.587-.352 1.385-.352.8 0 1.385.352.587.351.906.987.323.636.323 1.481t-.323 1.477q-.32.633-.906.984-.585.351-1.385.351m.007-1.03q.434 0 .725-.237.29-.242.433-.646.146-.405.146-.902 0-.501-.146-.906a1.44 1.44 0 0 0-.433-.65 1.1 1.1 0 0 0-.725-.241q-.444 0-.738.241-.291.242-.437.65-.142.405-.142.906 0 .496.142.901.146.405.437.647.294.238.738.238m3.698.924v-5.454h1.246v.909h.057q.15-.473.512-.728.365-.26.834-.26.106 0 .238.011.135.007.224.025v1.182a1.4 1.4 0 0 0-.26-.05 2.4 2.4 0 0 0-.337-.024q-.351 0-.632.152-.277.15-.437.416t-.16.614V32zm3.965 0v-5.454h1.228v.926h.064q.17-.468.565-.731a1.64 1.64 0 0 1 .941-.267q.554 0 .934.27.384.267.54.728h.057q.18-.454.61-.724.433-.273 1.027-.274.753 0 1.228.476.476.476.476 1.389V32h-1.289v-3.462q0-.508-.27-.742a.96.96 0 0 0-.66-.238q-.465 0-.728.29-.26.289-.259.75V32h-1.261v-3.516q0-.422-.256-.674-.252-.252-.66-.252a.94.94 0 0 0-.505.142 1 1 0 0 0-.362.394 1.2 1.2 0 0 0-.135.59V32zm-30.823 4.727V44h-1.318v-7.273zm2.655 4.077V44h-1.285v-5.455h1.228v.927h.064q.189-.458.6-.728.415-.27 1.027-.27.564 0 .983.242.423.24.654.7.234.457.231 1.111V44h-1.286v-3.274q0-.547-.284-.856-.28-.309-.778-.309-.337 0-.6.15a1.03 1.03 0 0 0-.408.422 1.4 1.4 0 0 0-.146.671m7.532-2.259v.995h-3.136v-.995zm-2.361-1.306h1.285v5.12q0 .26.078.398.083.135.213.185.132.05.292.05.12 0 .22-.018.102-.018.156-.032l.217 1.005q-.103.035-.295.078-.189.042-.462.05-.483.013-.87-.146a1.35 1.35 0 0 1-.614-.504q-.224-.342-.22-.853zm5.792 6.868q-.82 0-1.416-.341-.594-.345-.913-.973-.32-.633-.32-1.488 0-.842.32-1.478.323-.639.902-.994.579-.359 1.36-.359.504 0 .952.164.45.16.795.497.348.337.547.86.2.518.199 1.235v.394h-4.471v-.866h3.239a1.4 1.4 0 0 0-.16-.657 1.16 1.16 0 0 0-.437-.458 1.23 1.23 0 0 0-.646-.167q-.394 0-.693.192a1.3 1.3 0 0 0-.465.497 1.4 1.4 0 0 0-.167.67v.757q0 .477.174.817.174.338.487.519.312.177.731.177.28 0 .508-.078a1.1 1.1 0 0 0 .394-.238 1 1 0 0 0 .252-.387l1.201.135a1.9 1.9 0 0 1-.434.83q-.315.353-.809.548a3.1 3.1 0 0 1-1.13.191m5.886 2.052q-.693 0-1.19-.188a2.1 2.1 0 0 1-.799-.497 1.7 1.7 0 0 1-.419-.693l1.158-.28q.078.16.227.316.149.16.401.263.256.106.643.106.546 0 .905-.266.359-.262.359-.867V43.02h-.064a1.8 1.8 0 0 1-.291.408 1.5 1.5 0 0 1-.501.352q-.309.142-.777.142a2.24 2.24 0 0 1-1.14-.295 2.1 2.1 0 0 1-.81-.888q-.298-.593-.298-1.484 0-.898.298-1.516.302-.622.813-.941a2.1 2.1 0 0 1 1.14-.324q.48 0 .788.164.313.159.498.387.184.224.28.422h.071v-.902h1.268v5.544q0 .7-.334 1.157a2 2 0 0 1-.913.686 3.6 3.6 0 0 1-1.313.227m.01-3.246q.408 0 .696-.198.288-.2.437-.572.149-.373.149-.895 0-.515-.149-.902a1.3 1.3 0 0 0-.433-.6 1.12 1.12 0 0 0-.7-.217q-.429 0-.717.224t-.433.614a2.5 2.5 0 0 0-.146.88q0 .502.146.878.149.373.436.582.292.207.714.206M437.916 44v-5.455h1.247v.91h.057a1.36 1.36 0 0 1 1.346-.988q.107 0 .237.011.135.007.224.025v1.182a1.3 1.3 0 0 0-.259-.05 2.4 2.4 0 0 0-.337-.024q-.353 0-.633.153-.277.148-.436.415-.16.266-.16.614V44zm5.437.11q-.518 0-.934-.185a1.53 1.53 0 0 1-.653-.554q-.238-.365-.238-.902 0-.461.17-.763a1.3 1.3 0 0 1 .466-.483 2.3 2.3 0 0 1 .664-.273q.372-.096.77-.139.48-.05.778-.089.298-.041.433-.128.138-.088.139-.273V40.3q0-.402-.238-.622t-.686-.22q-.472 0-.749.206-.273.206-.369.487l-1.201-.17q.142-.498.469-.832a2.04 2.04 0 0 1 .799-.504q.473-.17 1.044-.17.395 0 .785.092t.714.305q.323.21.518.572.2.362.199.905V44h-1.236v-.75h-.042a1.55 1.55 0 0 1-.86.743 2.1 2.1 0 0 1-.742.117m.334-.944q.387 0 .671-.153.284-.156.437-.412a1.05 1.05 0 0 0 .156-.558v-.642a.6.6 0 0 1-.206.092 3 3 0 0 1-.319.075q-.178.031-.352.056l-.302.043a2.3 2.3 0 0 0-.515.128.85.85 0 0 0-.358.248.6.6 0 0 0-.132.405q0 .356.259.536.26.181.661.181m6.562-4.62v.994h-3.135v-.995zm-2.361-1.307h1.285v5.12q0 .26.079.398.081.135.213.185.13.05.291.05.12 0 .22-.018.103-.018.156-.032l.217 1.005q-.103.035-.295.078a2.4 2.4 0 0 1-.461.05q-.483.013-.871-.146a1.36 1.36 0 0 1-.614-.504q-.223-.342-.22-.853zM451.325 44v-5.455h1.285V44zm.646-6.229a.75.75 0 0 1-.526-.202.66.66 0 0 1-.22-.494q0-.29.22-.493a.74.74 0 0 1 .526-.206q.309 0 .525.206.22.203.221.493a.65.65 0 0 1-.221.494.74.74 0 0 1-.525.202m4.34 6.335q-.798 0-1.385-.351a2.4 2.4 0 0 1-.909-.984q-.32-.631-.319-1.477 0-.845.319-1.48a2.4 2.4 0 0 1 .909-.988q.587-.352 1.385-.352.8 0 1.385.352.587.351.906.987.323.636.323 1.481t-.323 1.477q-.32.633-.906.984-.585.351-1.385.351m.007-1.03q.434 0 .725-.237.29-.242.433-.646.146-.405.146-.902 0-.501-.146-.906a1.44 1.44 0 0 0-.433-.65 1.1 1.1 0 0 0-.725-.241q-.444 0-.738.241-.291.242-.437.65-.142.405-.142.906 0 .496.142.902.146.405.437.646.294.238.738.238m4.983-2.272V44h-1.285v-5.455h1.229v.927h.064q.188-.458.6-.728.416-.27 1.026-.27.564 0 .984.242.422.24.653.7.234.457.231 1.111V44h-1.286v-3.274q0-.547-.284-.856-.28-.309-.777-.309a1.2 1.2 0 0 0-.601.15 1.04 1.04 0 0 0-.408.422 1.4 1.4 0 0 0-.146.671"/><path fill="#ee5389" d="M348.22 33.47a.75.75 0 0 0 0 1.06l4.773 4.773a.75.75 0 1 0 1.06-1.06L349.811 34l4.242-4.243a.75.75 0 0 0-1.06-1.06zm23.56 1.06a.75.75 0 0 0 0-1.06l-4.773-4.773a.75.75 0 1 0-1.06 1.06L370.189 34l-4.242 4.243a.75.75 0 0 0 1.06 1.06zM348.75 34v.75h22.5v-1.5h-22.5z"/><rect width="115" height="43" x="520" y="12.5" fill="#17264f" rx="7.5"/><rect width="115" height="43" x="520" y="12.5" stroke="#3369ff" rx="7.5"/><rect width="24" height="24" x="529.5" y="22" fill="#b3c7ff" rx="3"/><path fill="#17264f" d="M541.084 26.5a7.05 7.05 0 0 0-3.638 1.01 1.7 1.7 0 0 0-1.081-.385c-.945 0-1.72.775-1.72 1.72.001.394.137.773.38 1.075A7.05 7.05 0 0 0 534 33.584a.4.4 0 0 0 .03.159q.03.076.089.135a.407.407 0 0 0 .584 0 .4.4 0 0 0 .119-.294c0-1.158.315-2.238.861-3.168.214.093.444.148.681.148.945 0 1.72-.774 1.72-1.719 0-.234-.053-.462-.145-.675a6.23 6.23 0 0 1 3.145-.848.42.42 0 0 0 .294-.119.4.4 0 0 0 .122-.292.41.41 0 0 0-.416-.411m-4.72 1.447c.278 0 .525.118.696.332l.008.01a.9.9 0 0 1 .194.556c0 .5-.397.898-.897.898a.899.899 0 0 1-.001-1.795"/><path fill="#17264f" fill-rule="evenodd" d="M537.138 31.32a.399.399 0 0 0 .004.543c.319.321.948.948.948.948l.555-.554-.945-.946a.4.4 0 0 0-.282-.109.38.38 0 0 0-.28.118m1.507.937-1.717 1.717a.48.48 0 0 0 0 .675l.851.85 1.488 1.49 1.429 1.428a.477.477 0 0 0 .675 0l1.162-1.162 1.777-1.777 1.718-1.718a.48.48 0 0 0 0-.675l-.874-.873-1.488-1.488-1.406-1.407a.477.477 0 0 0-.675 0l-1.162 1.162zm1.778-1.778-.946-.945a.39.39 0 0 0-.282-.11.383.383 0 0 0-.385.403.4.4 0 0 0 .109.259c.319.321.948.948.948.948zm3.243.245.946-.946a.39.39 0 0 0 .108-.282.38.38 0 0 0-.402-.385.4.4 0 0 0-.259.11c-.321.319-.948.947-.948.947zm1.488 1.488.946-.946a.4.4 0 0 0 .109-.281.38.38 0 0 0-.402-.386.4.4 0 0 0-.259.11c-.321.319-.948.948-.948.948zm-.844 3.266.946.945a.39.39 0 0 0 .282.11.383.383 0 0 0 .385-.403.4.4 0 0 0-.11-.259c-.319-.321-.948-.948-.948-.948zm-1.777 1.777.946.945a.39.39 0 0 0 .282.11.38.38 0 0 0 .385-.403.4.4 0 0 0-.11-.259c-.319-.321-.948-.948-.948-.948zm-3.266-.267-.945.946a.39.39 0 0 0-.109.282.38.38 0 0 0 .402.385.4.4 0 0 0 .259-.11c.321-.318.948-.947.948-.947zm-1.488-1.488-.945.946a.38.38 0 0 0-.109.282.38.38 0 0 0 .402.385.4.4 0 0 0 .259-.11c.321-.319.947-.948.947-.948zm4.089-4.245a.4.4 0 0 1 .295-.123.37.37 0 0 1 .214.07l.774.568c.15.108.194.312.104.483a.406.406 0 0 1-.466.208l.287 1.122a.41.41 0 0 1-.281.484l-2.092.639.386 1.494a.41.41 0 0 1-.279.488.367.367 0 0 1-.472-.258l-.482-1.864a.41.41 0 0 1 .28-.485l2.094-.639-.193-.755a.396.396 0 0 1-.497.082.37.37 0 0 1-.14-.47l.381-.913a.4.4 0 0 1 .087-.13" clip-rule="evenodd"/><path fill="#17264f" d="M541.916 41.5a7.05 7.05 0 0 0 3.638-1.01c.303.247.685.384 1.081.384.945 0 1.72-.774 1.72-1.719a1.72 1.72 0 0 0-.38-1.075A7.05 7.05 0 0 0 549 34.416a.4.4 0 0 0-.03-.159.407.407 0 0 0-.673-.135.4.4 0 0 0-.119.294 6.23 6.23 0 0 1-.861 3.168 1.7 1.7 0 0 0-.681-.149c-.945 0-1.72.775-1.72 1.72 0 .234.053.462.145.675a6.23 6.23 0 0 1-3.145.848.42.42 0 0 0-.294.119.4.4 0 0 0-.122.292.41.41 0 0 0 .416.411m4.72-1.447a.87.87 0 0 1-.696-.332l-.008-.01a.9.9 0 0 1-.194-.556c0-.5.397-.898.897-.898a.899.899 0 0 1 .001 1.795"/><path fill="#fff" d="M557.898 31.832v-1.105h5.802v1.105h-2.248V38h-1.306v-6.168zm8.15 2.972V38h-1.286v-7.273h1.257v2.745h.064q.192-.461.593-.728.405-.27 1.03-.27.568 0 .991.238.422.239.653.696.235.459.235 1.119V38h-1.286v-3.274q0-.55-.284-.856-.28-.309-.788-.309-.341 0-.611.15a1.04 1.04 0 0 0-.419.422q-.15.276-.149.671M570.895 38v-5.455h1.285V38zm.646-6.229a.75.75 0 0 1-.525-.202.65.65 0 0 1-.221-.494q0-.29.221-.493a.74.74 0 0 1 .525-.206q.309 0 .526.206.22.203.22.493a.65.65 0 0 1-.22.494.74.74 0 0 1-.526.202m3.247 3.033V38h-1.286v-5.455h1.229v.927h.064q.188-.458.6-.728.416-.27 1.026-.27.565 0 .984.242.423.24.653.7.236.457.231 1.111V38h-1.285v-3.274q0-.547-.284-.856-.281-.309-.778-.309-.337 0-.6.15a1.04 1.04 0 0 0-.409.422 1.4 1.4 0 0 0-.145.671m7.18 5.355q-.692 0-1.189-.188a2.1 2.1 0 0 1-.799-.497 1.7 1.7 0 0 1-.419-.693l1.157-.28q.078.16.227.316.15.16.402.263.255.105.643.106.546 0 .905-.266.359-.262.359-.867V37.02h-.064a1.8 1.8 0 0 1-.291.408 1.5 1.5 0 0 1-.501.352q-.309.142-.778.142-.628 0-1.14-.295a2.1 2.1 0 0 1-.809-.888q-.299-.593-.299-1.484 0-.898.299-1.516.302-.622.813-.941a2.1 2.1 0 0 1 1.14-.324q.479 0 .788.164.312.159.497.387.185.224.281.422h.071v-.902h1.268v5.544q0 .7-.334 1.157a2 2 0 0 1-.913.686 3.6 3.6 0 0 1-1.314.227m.011-3.246q.408 0 .696-.198.288-.2.437-.572.149-.373.149-.895 0-.515-.149-.902a1.3 1.3 0 0 0-.434-.6 1.12 1.12 0 0 0-.699-.217q-.43 0-.717.224-.288.224-.434.614a2.5 2.5 0 0 0-.145.88q0 .502.145.878.15.373.437.582.291.207.714.206m8.178-2.926-1.172.128a.9.9 0 0 0-.174-.334.86.86 0 0 0-.326-.252 1.2 1.2 0 0 0-.505-.096 1.23 1.23 0 0 0-.674.174q-.27.175-.267.451a.47.47 0 0 0 .174.387q.182.15.597.245l.93.2q.774.166 1.151.528.38.363.383.949a1.48 1.48 0 0 1-.302.909q-.294.39-.82.61t-1.207.22q-1.002 0-1.612-.419a1.68 1.68 0 0 1-.728-1.175l1.253-.12a.89.89 0 0 0 .362.557q.277.188.721.188.459 0 .735-.188.28-.188.281-.465a.49.49 0 0 0-.181-.387q-.178-.153-.554-.235l-.931-.195q-.785-.164-1.161-.55-.376-.39-.373-.988a1.4 1.4 0 0 1 .274-.873 1.8 1.8 0 0 1 .777-.576 3 3 0 0 1 1.155-.206q.959 0 1.509.409.554.408.685 1.104M591.391 38v-7.273h2.784q.789 0 1.311.249.525.245.784.671.264.426.263.966 0 .444-.17.76a1.44 1.44 0 0 1-.458.508 2 2 0 0 1-.643.28v.071q.387.022.742.238.359.213.586.604.227.39.227.945 0 .564-.273 1.015-.273.447-.824.707t-1.385.259zm1.318-1.1h1.417q.717 0 1.033-.274a.9.9 0 0 0 .32-.71 1.09 1.09 0 0 0-.615-.995 1.5 1.5 0 0 0-.703-.152h-1.452zm0-3.08h1.303q.34 0 .614-.124a.964.964 0 0 0 .59-.913q0-.421-.299-.696-.294-.273-.877-.273h-1.331zm7.577 4.286q-.799 0-1.385-.351a2.4 2.4 0 0 1-.909-.984q-.32-.631-.32-1.477 0-.845.32-1.48.322-.637.909-.988.586-.352 1.385-.352t1.385.352q.585.351.905.987.324.636.324 1.481t-.324 1.477q-.32.633-.905.984-.586.351-1.385.351m.007-1.03q.433 0 .724-.237.292-.242.434-.646.145-.405.145-.902 0-.501-.145-.906a1.43 1.43 0 0 0-.434-.65 1.1 1.1 0 0 0-.724-.241q-.444 0-.739.241a1.46 1.46 0 0 0-.436.65q-.143.405-.143.906 0 .496.143.902.145.405.436.646.295.238.739.238m5.267 1.034q-.518 0-.934-.185a1.53 1.53 0 0 1-.653-.554q-.238-.365-.238-.902 0-.461.17-.763a1.3 1.3 0 0 1 .466-.483 2.3 2.3 0 0 1 .664-.273q.372-.096.77-.139.48-.05.778-.089.298-.041.433-.128.139-.088.139-.273V34.3q0-.402-.238-.622t-.686-.22q-.472 0-.749.206-.273.206-.369.487l-1.201-.17q.142-.498.469-.832a2.04 2.04 0 0 1 .799-.504q.473-.17 1.044-.17.395 0 .785.092t.714.305q.323.21.518.572.2.362.199.905V38h-1.236v-.75h-.042a1.55 1.55 0 0 1-.86.743 2.1 2.1 0 0 1-.742.117m.334-.944q.387 0 .671-.153.285-.156.437-.412a1.05 1.05 0 0 0 .156-.558v-.642a.6.6 0 0 1-.206.092 3 3 0 0 1-.319.075q-.178.031-.352.056l-.302.043a2.3 2.3 0 0 0-.515.128.85.85 0 0 0-.358.248.6.6 0 0 0-.132.405q0 .356.259.536.26.181.661.181m3.839.834v-5.455h1.246v.91h.057a1.36 1.36 0 0 1 1.346-.988q.106 0 .238.011.135.007.224.025v1.182a1.4 1.4 0 0 0-.26-.05 2.4 2.4 0 0 0-.337-.024q-.351 0-.632.153-.277.148-.437.415-.16.266-.16.614V38zm5.764.096q-.643 0-1.15-.33-.508-.33-.803-.96-.294-.627-.295-1.526 0-.91.299-1.534.302-.63.813-.948a2.1 2.1 0 0 1 1.14-.324q.479 0 .788.164.309.159.49.387.181.224.281.422h.053v-2.72h1.289V38h-1.264v-.86h-.078a2.3 2.3 0 0 1-.288.423 1.6 1.6 0 0 1-.497.377q-.309.156-.778.156m.359-1.055q.408 0 .696-.22a1.4 1.4 0 0 0 .437-.621q.149-.399.149-.927 0-.53-.149-.92a1.3 1.3 0 0 0-.434-.607 1.12 1.12 0 0 0-.699-.217q-.43 0-.718.224a1.36 1.36 0 0 0-.433.618 2.6 2.6 0 0 0-.145.902q0 .51.145.912.15.398.437.629.291.227.714.227"/><path fill="#bd53ee" d="M493.22 33.47a.75.75 0 0 0 0 1.06l4.773 4.773a.75.75 0 1 0 1.06-1.06L494.811 34l4.242-4.243a.75.75 0 0 0-1.06-1.06zm23.56 1.06a.75.75 0 0 0 0-1.06l-4.773-4.773a.75.75 0 1 0-1.06 1.06L515.189 34l-4.242 4.243a.75.75 0 0 0 1.06 1.06zM493.75 34v.75h22.5v-1.5h-22.5z"/></g><defs><clipPath id="a"><path fill="#fff" d="M0 0h720v68H0z"/></clipPath><clipPath id="b"><path fill="#fff" d="M-12 2h730v646H-12z"/></clipPath></defs></svg>