<svg xmlns="http://www.w3.org/2000/svg" width="720" height="179" fill="none"><g clip-path="url(#a)"><path fill="#fff" d="M0 0h720v179H0z"/><g fill="#c1c3c8" clip-path="url(#b)" opacity=".5"><path d="M-11 317a1 1 0 1 1 0 2 1 1 0 0 1 0-2m14 0a1 1 0 1 1 0 2 1 1 0 0 1 0-2m14 0a1 1 0 1 1 0 2 1 1 0 0 1 0-2m14 0a1 1 0 1 1 0 2 1 1 0 0 1 0-2m14 0a1 1 0 1 1 0 2 1 1 0 0 1 0-2m14 0a1 1 0 1 1 0 2 1 1 0 0 1 0-2m14 0a1 1 0 1 1 0 2 1 1 0 0 1 0-2m14 0a1 1 0 1 1 0 2 1 1 0 0 1 0-2m14 0a1 1 0 1 1 0 2 1 1 0 0 1 0-2m14 0a1 1 0 1 1 0 2 1 1 0 0 1 0-2m14 0a1 1 0 1 1 0 2 1 1 0 0 1 0-2m14 0a1 1 0 1 1 0 2 1 1 0 0 1 0-2m14 0a1 1 0 1 1 0 2 1 1 0 0 1 0-2m14 0a1 1 0 1 1 0 2 1 1 0 0 1 0-2m14 0a1 1 0 1 1 0 2 1 1 0 0 1 0-2m14 0a1 1 0 1 1 0 2 1 1 0 0 1 0-2m14 0a1 1 0 1 1 0 2 1 1 0 0 1 0-2m14 0a1 1 0 1 1 0 2 1 1 0 0 1 0-2m14 0a1 1 0 1 1 0 2 1 1 0 0 1 0-2m14 0a1 1 0 1 1 0 2 1 1 0 0 1 0-2m14 0a1 1 0 1 1 0 2 1 1 0 0 1 0-2m14 0a1 1 0 1 1 0 2 1 1 0 0 1 0-2m14 0a1 1 0 1 1 0 2 1 1 0 0 1 0-2m14 0a1 1 0 1 1 0 2 1 1 0 0 1 0-2m14 0a1 1 0 1 1 0 2 1 1 0 0 1 0-2m14 0a1 1 0 1 1 0 2 1 1 0 0 1 0-2m14 0a1 1 0 1 1 0 2 1 1 0 0 1 0-2m14 0a1 1 0 1 1 0 2 1 1 0 0 1 0-2m14 0a1 1 0 1 1 0 2 1 1 0 0 1 0-2m14 0a1 1 0 1 1 0 2 1 1 0 0 1 0-2m14 0a1 1 0 1 1 0 2 1 1 0 0 1 0-2m14 0a1 1 0 1 1 0 2 1 1 0 0 1 0-2m14 0a1 1 0 1 1 0 2 1 1 0 0 1 0-2m14 0a1 1 0 1 1 0 2 1 1 0 0 1 0-2m14 0a1 1 0 1 1 0 2 1 1 0 0 1 0-2m14 0a1 1 0 1 1 0 2 1 1 0 0 1 0-2m14 0a1 1 0 1 1 0 2 1 1 0 0 1 0-2m14 0a1 1 0 1 1 0 2 1 1 0 0 1 0-2m14 0a1 1 0 1 1 0 2 1 1 0 0 1 0-2m14 0a1 1 0 1 1 0 2 1 1 0 0 1 0-2m14 0a1 1 0 1 1 0 2 1 1 0 0 1 0-2m14 0a1 1 0 1 1 0 2 1 1 0 0 1 0-2m14 0a1 1 0 1 1 0 2 1 1 0 0 1 0-2m14 0a1 1 0 1 1 0 2 1 1 0 0 1 0-2m14 0a1 1 0 1 1 0 2 1 1 0 0 1 0-2m14 0a1 1 0 1 1 0 2 1 1 0 0 1 0-2m14 0a1 1 0 1 1 0 2 1 1 0 0 1 0-2m14 0a1 1 0 1 1 0 2 1 1 0 0 1 0-2m14 0a1 1 0 1 1 0 2 1 1 0 0 1 0-2m14 0a1 1 0 1 1 0 2 1 1 0 0 1 0-2m14 0a1 1 0 1 1 0 2 1 1 0 0 1 0-2m14 0a1 1 0 1 1 0 2 1 1 0 0 1 0-2m-714-14a1 1 0 1 1 0 2 1 1 0 0 1 0-2m14 0a1 1 0 1 1 0 2 1 1 0 0 1 0-2m14 0a1 1 0 1 1 0 2 1 1 0 0 1 0-2m14 0a1 1 0 1 1 0 2 1 1 0 0 1 0-2m14 0a1 1 0 1 1 0 2 1 1 0 0 1 0-2m14 0a1 1 0 1 1 0 2 1 1 0 0 1 0-2m14 0a1 1 0 1 1 0 2 1 1 0 0 1 0-2m14 0a1 1 0 1 1 0 2 1 1 0 0 1 0-2m14 0a1 1 0 1 1 0 2 1 1 0 0 1 0-2m14 0a1 1 0 1 1 0 2 1 1 0 0 1 0-2m14 0a1 1 0 1 1 0 2 1 1 0 0 1 0-2m14 0a1 1 0 1 1 0 2 1 1 0 0 1 0-2m14 0a1 1 0 1 1 0 2 1 1 0 0 1 0-2m14 0a1 1 0 1 1 0 2 1 1 0 0 1 0-2m14 0a1 1 0 1 1 0 2 1 1 0 0 1 0-2m14 0a1 1 0 1 1 0 2 1 1 0 0 1 0-2m14 0a1 1 0 1 1 0 2 1 1 0 0 1 0-2m14 0a1 1 0 1 1 0 2 1 1 0 0 1 0-2m14 0a1 1 0 1 1 0 2 1 1 0 0 1 0-2m14 0a1 1 0 1 1 0 2 1 1 0 0 1 0-2m14 0a1 1 0 1 1 0 2 1 1 0 0 1 0-2m14 0a1 1 0 1 1 0 2 1 1 0 0 1 0-2m14 0a1 1 0 1 1 0 2 1 1 0 0 1 0-2m14 0a1 1 0 1 1 0 2 1 1 0 0 1 0-2m14 0a1 1 0 1 1 0 2 1 1 0 0 1 0-2m14 0a1 1 0 1 1 0 2 1 1 0 0 1 0-2m14 0a1 1 0 1 1 0 2 1 1 0 0 1 0-2m14 0a1 1 0 1 1 0 2 1 1 0 0 1 0-2m14 0a1 1 0 1 1 0 2 1 1 0 0 1 0-2m14 0a1 1 0 1 1 0 2 1 1 0 0 1 0-2m14 0a1 1 0 1 1 0 2 1 1 0 0 1 0-2m14 0a1 1 0 1 1 0 2 1 1 0 0 1 0-2m14 0a1 1 0 1 1 0 2 1 1 0 0 1 0-2m14 0a1 1 0 1 1 0 2 1 1 0 0 1 0-2m14 0a1 1 0 1 1 0 2 1 1 0 0 1 0-2m14 0a1 1 0 1 1 0 2 1 1 0 0 1 0-2m14 0a1 1 0 1 1 0 2 1 1 0 0 1 0-2m14 0a1 1 0 1 1 0 2 1 1 0 0 1 0-2m14 0a1 1 0 1 1 0 2 1 1 0 0 1 0-2m14 0a1 1 0 1 1 0 2 1 1 0 0 1 0-2m14 0a1 1 0 1 1 0 2 1 1 0 0 1 0-2m14 0a1 1 0 1 1 0 2 1 1 0 0 1 0-2m14 0a1 1 0 1 1 0 2 1 1 0 0 1 0-2m14 0a1 1 0 1 1 0 2 1 1 0 0 1 0-2m14 0a1 1 0 1 1 0 2 1 1 0 0 1 0-2m14 0a1 1 0 1 1 0 2 1 1 0 0 1 0-2m14 0a1 1 0 1 1 0 2 1 1 0 0 1 0-2m14 0a1 1 0 1 1 0 2 1 1 0 0 1 0-2m14 0a1 1 0 1 1 0 2 1 1 0 0 1 0-2m14 0a1 1 0 1 1 0 2 1 1 0 0 1 0-2m14 0a1 1 0 1 1 0 2 1 1 0 0 1 0-2m14 0a1 1 0 1 1 0 2 1 1 0 0 1 0-2m14 0a1 1 0 1 1 0 2 1 1 0 0 1 0-2m-728-14a1 1 0 1 1 0 2 1 1 0 0 1 0-2m14 0a1 1 0 1 1 0 2 1 1 0 0 1 0-2m14 0a1 1 0 1 1 0 2 1 1 0 0 1 0-2m14 0a1 1 0 1 1 0 2 1 1 0 0 1 0-2m14 0a1 1 0 1 1 0 2 1 1 0 0 1 0-2m14 0a1 1 0 1 1 0 2 1 1 0 0 1 0-2m14 0a1 1 0 1 1 0 2 1 1 0 0 1 0-2m14 0a1 1 0 1 1 0 2 1 1 0 0 1 0-2m14 0a1 1 0 1 1 0 2 1 1 0 0 1 0-2m14 0a1 1 0 1 1 0 2 1 1 0 0 1 0-2m14 0a1 1 0 1 1 0 2 1 1 0 0 1 0-2m14 0a1 1 0 1 1 0 2 1 1 0 0 1 0-2m14 0a1 1 0 1 1 0 2 1 1 0 0 1 0-2m14 0a1 1 0 1 1 0 2 1 1 0 0 1 0-2m14 0a1 1 0 1 1 0 2 1 1 0 0 1 0-2m14 0a1 1 0 1 1 0 2 1 1 0 0 1 0-2m14 0a1 1 0 1 1 0 2 1 1 0 0 1 0-2m14 0a1 1 0 1 1 0 2 1 1 0 0 1 0-2m14 0a1 1 0 1 1 0 2 1 1 0 0 1 0-2m14 0a1 1 0 1 1 0 2 1 1 0 0 1 0-2m14 0a1 1 0 1 1 0 2 1 1 0 0 1 0-2m14 0a1 1 0 1 1 0 2 1 1 0 0 1 0-2m14 0a1 1 0 1 1 0 2 1 1 0 0 1 0-2m14 0a1 1 0 1 1 0 2 1 1 0 0 1 0-2m14 0a1 1 0 1 1 0 2 1 1 0 0 1 0-2m14 0a1 1 0 1 1 0 2 1 1 0 0 1 0-2m14 0a1 1 0 1 1 0 2 1 1 0 0 1 0-2m14 0a1 1 0 1 1 0 2 1 1 0 0 1 0-2m14 0a1 1 0 1 1 0 2 1 1 0 0 1 0-2m14 0a1 1 0 1 1 0 2 1 1 0 0 1 0-2m14 0a1 1 0 1 1 0 2 1 1 0 0 1 0-2m14 0a1 1 0 1 1 0 2 1 1 0 0 1 0-2m14 0a1 1 0 1 1 0 2 1 1 0 0 1 0-2m14 0a1 1 0 1 1 0 2 1 1 0 0 1 0-2m14 0a1 1 0 1 1 0 2 1 1 0 0 1 0-2m14 0a1 1 0 1 1 0 2 1 1 0 0 1 0-2m14 0a1 1 0 1 1 0 2 1 1 0 0 1 0-2m14 0a1 1 0 1 1 0 2 1 1 0 0 1 0-2m14 0a1 1 0 1 1 0 2 1 1 0 0 1 0-2m14 0a1 1 0 1 1 0 2 1 1 0 0 1 0-2m14 0a1 1 0 1 1 0 2 1 1 0 0 1 0-2m14 0a1 1 0 1 1 0 2 1 1 0 0 1 0-2m14 0a1 1 0 1 1 0 2 1 1 0 0 1 0-2m14 0a1 1 0 1 1 0 2 1 1 0 0 1 0-2m14 0a1 1 0 1 1 0 2 1 1 0 0 1 0-2m14 0a1 1 0 1 1 0 2 1 1 0 0 1 0-2m14 0a1 1 0 1 1 0 2 1 1 0 0 1 0-2m14 0a1 1 0 1 1 0 2 1 1 0 0 1 0-2m14 0a1 1 0 1 1 0 2 1 1 0 0 1 0-2m14 0a1 1 0 1 1 0 2 1 1 0 0 1 0-2m14 0a1 1 0 1 1 0 2 1 1 0 0 1 0-2m14 0a1 1 0 1 1 0 2 1 1 0 0 1 0-2m14 0a1 1 0 1 1 0 2 1 1 0 0 1 0-2m-728-14a1 1 0 1 1 0 2 1 1 0 0 1 0-2m14 0a1 1 0 1 1 0 2 1 1 0 0 1 0-2m14 0a1 1 0 1 1 0 2 1 1 0 0 1 0-2m14 0a1 1 0 1 1 0 2 1 1 0 0 1 0-2m14 0a1 1 0 1 1 0 2 1 1 0 0 1 0-2m14 0a1 1 0 1 1 0 2 1 1 0 0 1 0-2m14 0a1 1 0 1 1 0 2 1 1 0 0 1 0-2m14 0a1 1 0 1 1 0 2 1 1 0 0 1 0-2m14 0a1 1 0 1 1 0 2 1 1 0 0 1 0-2m14 0a1 1 0 1 1 0 2 1 1 0 0 1 0-2m14 0a1 1 0 1 1 0 2 1 1 0 0 1 0-2m14 0a1 1 0 1 1 0 2 1 1 0 0 1 0-2m14 0a1 1 0 1 1 0 2 1 1 0 0 1 0-2m14 0a1 1 0 1 1 0 2 1 1 0 0 1 0-2m14 0a1 1 0 1 1 0 2 1 1 0 0 1 0-2m14 0a1 1 0 1 1 0 2 1 1 0 0 1 0-2m14 0a1 1 0 1 1 0 2 1 1 0 0 1 0-2m14 0a1 1 0 1 1 0 2 1 1 0 0 1 0-2m14 0a1 1 0 1 1 0 2 1 1 0 0 1 0-2m14 0a1 1 0 1 1 0 2 1 1 0 0 1 0-2m14 0a1 1 0 1 1 0 2 1 1 0 0 1 0-2m14 0a1 1 0 1 1 0 2 1 1 0 0 1 0-2m14 0a1 1 0 1 1 0 2 1 1 0 0 1 0-2m14 0a1 1 0 1 1 0 2 1 1 0 0 1 0-2m14 0a1 1 0 1 1 0 2 1 1 0 0 1 0-2m14 0a1 1 0 1 1 0 2 1 1 0 0 1 0-2m14 0a1 1 0 1 1 0 2 1 1 0 0 1 0-2m14 0a1 1 0 1 1 0 2 1 1 0 0 1 0-2m14 0a1 1 0 1 1 0 2 1 1 0 0 1 0-2m14 0a1 1 0 1 1 0 2 1 1 0 0 1 0-2m14 0a1 1 0 1 1 0 2 1 1 0 0 1 0-2m14 0a1 1 0 1 1 0 2 1 1 0 0 1 0-2m14 0a1 1 0 1 1 0 2 1 1 0 0 1 0-2m14 0a1 1 0 1 1 0 2 1 1 0 0 1 0-2m14 0a1 1 0 1 1 0 2 1 1 0 0 1 0-2m14 0a1 1 0 1 1 0 2 1 1 0 0 1 0-2m14 0a1 1 0 1 1 0 2 1 1 0 0 1 0-2m14 0a1 1 0 1 1 0 2 1 1 0 0 1 0-2m14 0a1 1 0 1 1 0 2 1 1 0 0 1 0-2m14 0a1 1 0 1 1 0 2 1 1 0 0 1 0-2m14 0a1 1 0 1 1 0 2 1 1 0 0 1 0-2m14 0a1 1 0 1 1 0 2 1 1 0 0 1 0-2m14 0a1 1 0 1 1 0 2 1 1 0 0 1 0-2m14 0a1 1 0 1 1 0 2 1 1 0 0 1 0-2m14 0a1 1 0 1 1 0 2 1 1 0 0 1 0-2m14 0a1 1 0 1 1 0 2 1 1 0 0 1 0-2m14 0a1 1 0 1 1 0 2 1 1 0 0 1 0-2m14 0a1 1 0 1 1 0 2 1 1 0 0 1 0-2m14 0a1 1 0 1 1 0 2 1 1 0 0 1 0-2m14 0a1 1 0 1 1 0 2 1 1 0 0 1 0-2m14 0a1 1 0 1 1 0 2 1 1 0 0 1 0-2m14 0a1 1 0 1 1 0 2 1 1 0 0 1 0-2m14 0a1 1 0 1 1 0 2 1 1 0 0 1 0-2m-728-14a1 1 0 1 1 0 2 1 1 0 0 1 0-2m14 0a1 1 0 1 1 0 2 1 1 0 0 1 0-2m14 0a1 1 0 1 1 0 2 1 1 0 0 1 0-2m14 0a1 1 0 1 1 0 2 1 1 0 0 1 0-2m14 0a1 1 0 1 1 0 2 1 1 0 0 1 0-2m14 0a1 1 0 1 1 0 2 1 1 0 0 1 0-2m14 0a1 1 0 1 1 0 2 1 1 0 0 1 0-2m14 0a1 1 0 1 1 0 2 1 1 0 0 1 0-2m14 0a1 1 0 1 1 0 2 1 1 0 0 1 0-2m14 0a1 1 0 1 1 0 2 1 1 0 0 1 0-2m14 0a1 1 0 1 1 0 2 1 1 0 0 1 0-2m14 0a1 1 0 1 1 0 2 1 1 0 0 1 0-2m14 0a1 1 0 1 1 0 2 1 1 0 0 1 0-2m14 0a1 1 0 1 1 0 2 1 1 0 0 1 0-2m14 0a1 1 0 1 1 0 2 1 1 0 0 1 0-2m14 0a1 1 0 1 1 0 2 1 1 0 0 1 0-2m14 0a1 1 0 1 1 0 2 1 1 0 0 1 0-2m14 0a1 1 0 1 1 0 2 1 1 0 0 1 0-2m14 0a1 1 0 1 1 0 2 1 1 0 0 1 0-2m14 0a1 1 0 1 1 0 2 1 1 0 0 1 0-2m14 0a1 1 0 1 1 0 2 1 1 0 0 1 0-2m14 0a1 1 0 1 1 0 2 1 1 0 0 1 0-2m14 0a1 1 0 1 1 0 2 1 1 0 0 1 0-2m14 0a1 1 0 1 1 0 2 1 1 0 0 1 0-2m14 0a1 1 0 1 1 0 2 1 1 0 0 1 0-2m14 0a1 1 0 1 1 0 2 1 1 0 0 1 0-2m14 0a1 1 0 1 1 0 2 1 1 0 0 1 0-2m14 0a1 1 0 1 1 0 2 1 1 0 0 1 0-2m14 0a1 1 0 1 1 0 2 1 1 0 0 1 0-2m14 0a1 1 0 1 1 0 2 1 1 0 0 1 0-2m14 0a1 1 0 1 1 0 2 1 1 0 0 1 0-2m14 0a1 1 0 1 1 0 2 1 1 0 0 1 0-2m14 0a1 1 0 1 1 0 2 1 1 0 0 1 0-2m14 0a1 1 0 1 1 0 2 1 1 0 0 1 0-2m14 0a1 1 0 1 1 0 2 1 1 0 0 1 0-2m14 0a1 1 0 1 1 0 2 1 1 0 0 1 0-2m14 0a1 1 0 1 1 0 2 1 1 0 0 1 0-2m14 0a1 1 0 1 1 0 2 1 1 0 0 1 0-2m14 0a1 1 0 1 1 0 2 1 1 0 0 1 0-2m14 0a1 1 0 1 1 0 2 1 1 0 0 1 0-2m14 0a1 1 0 1 1 0 2 1 1 0 0 1 0-2m14 0a1 1 0 1 1 0 2 1 1 0 0 1 0-2m14 0a1 1 0 1 1 0 2 1 1 0 0 1 0-2m14 0a1 1 0 1 1 0 2 1 1 0 0 1 0-2m14 0a1 1 0 1 1 0 2 1 1 0 0 1 0-2m14 0a1 1 0 1 1 0 2 1 1 0 0 1 0-2m14 0a1 1 0 1 1 0 2 1 1 0 0 1 0-2m14 0a1 1 0 1 1 0 2 1 1 0 0 1 0-2m14 0a1 1 0 1 1 0 2 1 1 0 0 1 0-2m14 0a1 1 0 1 1 0 2 1 1 0 0 1 0-2m14 0a1 1 0 1 1 0 2 1 1 0 0 1 0-2m14 0a1 1 0 1 1 0 2 1 1 0 0 1 0-2m14 0a1 1 0 1 1 0 2 1 1 0 0 1 0-2m-728-14a1 1 0 1 1 0 2 1 1 0 0 1 0-2m14 0a1 1 0 1 1 0 2 1 1 0 0 1 0-2m14 0a1 1 0 1 1 0 2 1 1 0 0 1 0-2m14 0a1 1 0 1 1 0 2 1 1 0 0 1 0-2m14 0a1 1 0 1 1 0 2 1 1 0 0 1 0-2m14 0a1 1 0 1 1 0 2 1 1 0 0 1 0-2m14 0a1 1 0 1 1 0 2 1 1 0 0 1 0-2m14 0a1 1 0 1 1 0 2 1 1 0 0 1 0-2m14 0a1 1 0 1 1 0 2 1 1 0 0 1 0-2m14 0a1 1 0 1 1 0 2 1 1 0 0 1 0-2m14 0a1 1 0 1 1 0 2 1 1 0 0 1 0-2m14 0a1 1 0 1 1 0 2 1 1 0 0 1 0-2m14 0a1 1 0 1 1 0 2 1 1 0 0 1 0-2m14 0a1 1 0 1 1 0 2 1 1 0 0 1 0-2m14 0a1 1 0 1 1 0 2 1 1 0 0 1 0-2m14 0a1 1 0 1 1 0 2 1 1 0 0 1 0-2m14 0a1 1 0 1 1 0 2 1 1 0 0 1 0-2m14 0a1 1 0 1 1 0 2 1 1 0 0 1 0-2m14 0a1 1 0 1 1 0 2 1 1 0 0 1 0-2m14 0a1 1 0 1 1 0 2 1 1 0 0 1 0-2m14 0a1 1 0 1 1 0 2 1 1 0 0 1 0-2m14 0a1 1 0 1 1 0 2 1 1 0 0 1 0-2m14 0a1 1 0 1 1 0 2 1 1 0 0 1 0-2m14 0a1 1 0 1 1 0 2 1 1 0 0 1 0-2m14 0a1 1 0 1 1 0 2 1 1 0 0 1 0-2m14 0a1 1 0 1 1 0 2 1 1 0 0 1 0-2m14 0a1 1 0 1 1 0 2 1 1 0 0 1 0-2m14 0a1 1 0 1 1 0 2 1 1 0 0 1 0-2m14 0a1 1 0 1 1 0 2 1 1 0 0 1 0-2m14 0a1 1 0 1 1 0 2 1 1 0 0 1 0-2m14 0a1 1 0 1 1 0 2 1 1 0 0 1 0-2m14 0a1 1 0 1 1 0 2 1 1 0 0 1 0-2m14 0a1 1 0 1 1 0 2 1 1 0 0 1 0-2m14 0a1 1 0 1 1 0 2 1 1 0 0 1 0-2m14 0a1 1 0 1 1 0 2 1 1 0 0 1 0-2m14 0a1 1 0 1 1 0 2 1 1 0 0 1 0-2m14 0a1 1 0 1 1 0 2 1 1 0 0 1 0-2m14 0a1 1 0 1 1 0 2 1 1 0 0 1 0-2m14 0a1 1 0 1 1 0 2 1 1 0 0 1 0-2m14 0a1 1 0 1 1 0 2 1 1 0 0 1 0-2m14 0a1 1 0 1 1 0 2 1 1 0 0 1 0-2m14 0a1 1 0 1 1 0 2 1 1 0 0 1 0-2m14 0a1 1 0 1 1 0 2 1 1 0 0 1 0-2m14 0a1 1 0 1 1 0 2 1 1 0 0 1 0-2m14 0a1 1 0 1 1 0 2 1 1 0 0 1 0-2m14 0a1 1 0 1 1 0 2 1 1 0 0 1 0-2m14 0a1 1 0 1 1 0 2 1 1 0 0 1 0-2m14 0a1 1 0 1 1 0 2 1 1 0 0 1 0-2m14 0a1 1 0 1 1 0 2 1 1 0 0 1 0-2m14 0a1 1 0 1 1 0 2 1 1 0 0 1 0-2m14 0a1 1 0 1 1 0 2 1 1 0 0 1 0-2m14 0a1 1 0 1 1 0 2 1 1 0 0 1 0-2m14 0a1 1 0 1 1 0 2 1 1 0 0 1 0-2m-728-14a1 1 0 1 1 0 2 1 1 0 0 1 0-2m14 0a1 1 0 1 1 0 2 1 1 0 0 1 0-2m14 0a1 1 0 1 1 0 2 1 1 0 0 1 0-2m14 0a1 1 0 1 1 0 2 1 1 0 0 1 0-2m14 0a1 1 0 1 1 0 2 1 1 0 0 1 0-2m14 0a1 1 0 1 1 0 2 1 1 0 0 1 0-2m14 0a1 1 0 1 1 0 2 1 1 0 0 1 0-2m14 0a1 1 0 1 1 0 2 1 1 0 0 1 0-2m14 0a1 1 0 1 1 0 2 1 1 0 0 1 0-2m14 0a1 1 0 1 1 0 2 1 1 0 0 1 0-2m14 0a1 1 0 1 1 0 2 1 1 0 0 1 0-2m14 0a1 1 0 1 1 0 2 1 1 0 0 1 0-2m14 0a1 1 0 1 1 0 2 1 1 0 0 1 0-2m14 0a1 1 0 1 1 0 2 1 1 0 0 1 0-2m14 0a1 1 0 1 1 0 2 1 1 0 0 1 0-2m14 0a1 1 0 1 1 0 2 1 1 0 0 1 0-2m14 0a1 1 0 1 1 0 2 1 1 0 0 1 0-2m14 0a1 1 0 1 1 0 2 1 1 0 0 1 0-2m14 0a1 1 0 1 1 0 2 1 1 0 0 1 0-2m14 0a1 1 0 1 1 0 2 1 1 0 0 1 0-2m14 0a1 1 0 1 1 0 2 1 1 0 0 1 0-2m14 0a1 1 0 1 1 0 2 1 1 0 0 1 0-2m14 0a1 1 0 1 1 0 2 1 1 0 0 1 0-2m14 0a1 1 0 1 1 0 2 1 1 0 0 1 0-2m14 0a1 1 0 1 1 0 2 1 1 0 0 1 0-2m14 0a1 1 0 1 1 0 2 1 1 0 0 1 0-2m14 0a1 1 0 1 1 0 2 1 1 0 0 1 0-2m14 0a1 1 0 1 1 0 2 1 1 0 0 1 0-2m14 0a1 1 0 1 1 0 2 1 1 0 0 1 0-2m14 0a1 1 0 1 1 0 2 1 1 0 0 1 0-2m14 0a1 1 0 1 1 0 2 1 1 0 0 1 0-2m14 0a1 1 0 1 1 0 2 1 1 0 0 1 0-2m14 0a1 1 0 1 1 0 2 1 1 0 0 1 0-2m14 0a1 1 0 1 1 0 2 1 1 0 0 1 0-2m14 0a1 1 0 1 1 0 2 1 1 0 0 1 0-2m14 0a1 1 0 1 1 0 2 1 1 0 0 1 0-2m14 0a1 1 0 1 1 0 2 1 1 0 0 1 0-2m14 0a1 1 0 1 1 0 2 1 1 0 0 1 0-2m14 0a1 1 0 1 1 0 2 1 1 0 0 1 0-2m14 0a1 1 0 1 1 0 2 1 1 0 0 1 0-2m14 0a1 1 0 1 1 0 2 1 1 0 0 1 0-2m14 0a1 1 0 1 1 0 2 1 1 0 0 1 0-2m14 0a1 1 0 1 1 0 2 1 1 0 0 1 0-2m14 0a1 1 0 1 1 0 2 1 1 0 0 1 0-2m14 0a1 1 0 1 1 0 2 1 1 0 0 1 0-2m14 0a1 1 0 1 1 0 2 1 1 0 0 1 0-2m14 0a1 1 0 1 1 0 2 1 1 0 0 1 0-2m14 0a1 1 0 1 1 0 2 1 1 0 0 1 0-2m14 0a1 1 0 1 1 0 2 1 1 0 0 1 0-2m14 0a1 1 0 1 1 0 2 1 1 0 0 1 0-2m14 0a1 1 0 1 1 0 2 1 1 0 0 1 0-2m14 0a1 1 0 1 1 0 2 1 1 0 0 1 0-2m14 0a1 1 0 1 1 0 2 1 1 0 0 1 0-2m-728-14a1 1 0 1 1 0 2 1 1 0 0 1 0-2m14 0a1 1 0 1 1 0 2 1 1 0 0 1 0-2m14 0a1 1 0 1 1 0 2 1 1 0 0 1 0-2m14 0a1 1 0 1 1 0 2 1 1 0 0 1 0-2m14 0a1 1 0 1 1 0 2 1 1 0 0 1 0-2m14 0a1 1 0 1 1 0 2 1 1 0 0 1 0-2m14 0a1 1 0 1 1 0 2 1 1 0 0 1 0-2m14 0a1 1 0 1 1 0 2 1 1 0 0 1 0-2m14 0a1 1 0 1 1 0 2 1 1 0 0 1 0-2m14 0a1 1 0 1 1 0 2 1 1 0 0 1 0-2m14 0a1 1 0 1 1 0 2 1 1 0 0 1 0-2m14 0a1 1 0 1 1 0 2 1 1 0 0 1 0-2m14 0a1 1 0 1 1 0 2 1 1 0 0 1 0-2m14 0a1 1 0 1 1 0 2 1 1 0 0 1 0-2m14 0a1 1 0 1 1 0 2 1 1 0 0 1 0-2m14 0a1 1 0 1 1 0 2 1 1 0 0 1 0-2m14 0a1 1 0 1 1 0 2 1 1 0 0 1 0-2m14 0a1 1 0 1 1 0 2 1 1 0 0 1 0-2m14 0a1 1 0 1 1 0 2 1 1 0 0 1 0-2m14 0a1 1 0 1 1 0 2 1 1 0 0 1 0-2m14 0a1 1 0 1 1 0 2 1 1 0 0 1 0-2m14 0a1 1 0 1 1 0 2 1 1 0 0 1 0-2m14 0a1 1 0 1 1 0 2 1 1 0 0 1 0-2m14 0a1 1 0 1 1 0 2 1 1 0 0 1 0-2m14 0a1 1 0 1 1 0 2 1 1 0 0 1 0-2m14 0a1 1 0 1 1 0 2 1 1 0 0 1 0-2m14 0a1 1 0 1 1 0 2 1 1 0 0 1 0-2m14 0a1 1 0 1 1 0 2 1 1 0 0 1 0-2m14 0a1 1 0 1 1 0 2 1 1 0 0 1 0-2m14 0a1 1 0 1 1 0 2 1 1 0 0 1 0-2m14 0a1 1 0 1 1 0 2 1 1 0 0 1 0-2m14 0a1 1 0 1 1 0 2 1 1 0 0 1 0-2m14 0a1 1 0 1 1 0 2 1 1 0 0 1 0-2m14 0a1 1 0 1 1 0 2 1 1 0 0 1 0-2m14 0a1 1 0 1 1 0 2 1 1 0 0 1 0-2m14 0a1 1 0 1 1 0 2 1 1 0 0 1 0-2m14 0a1 1 0 1 1 0 2 1 1 0 0 1 0-2m14 0a1 1 0 1 1 0 2 1 1 0 0 1 0-2m14 0a1 1 0 1 1 0 2 1 1 0 0 1 0-2m14 0a1 1 0 1 1 0 2 1 1 0 0 1 0-2m14 0a1 1 0 1 1 0 2 1 1 0 0 1 0-2m14 0a1 1 0 1 1 0 2 1 1 0 0 1 0-2m14 0a1 1 0 1 1 0 2 1 1 0 0 1 0-2m14 0a1 1 0 1 1 0 2 1 1 0 0 1 0-2m14 0a1 1 0 1 1 0 2 1 1 0 0 1 0-2m14 0a1 1 0 1 1 0 2 1 1 0 0 1 0-2m14 0a1 1 0 1 1 0 2 1 1 0 0 1 0-2m14 0a1 1 0 1 1 0 2 1 1 0 0 1 0-2m14 0a1 1 0 1 1 0 2 1 1 0 0 1 0-2m14 0a1 1 0 1 1 0 2 1 1 0 0 1 0-2m14 0a1 1 0 1 1 0 2 1 1 0 0 1 0-2m14 0a1 1 0 1 1 0 2 1 1 0 0 1 0-2m14 0a1 1 0 1 1 0 2 1 1 0 0 1 0-2m-728-14a1 1 0 1 1 0 2 1 1 0 0 1 0-2m14 0a1 1 0 1 1 0 2 1 1 0 0 1 0-2m14 0a1 1 0 1 1 0 2 1 1 0 0 1 0-2m14 0a1 1 0 1 1 0 2 1 1 0 0 1 0-2m14 0a1 1 0 1 1 0 2 1 1 0 0 1 0-2m14 0a1 1 0 1 1 0 2 1 1 0 0 1 0-2m14 0a1 1 0 1 1 0 2 1 1 0 0 1 0-2m14 0a1 1 0 1 1 0 2 1 1 0 0 1 0-2m14 0a1 1 0 1 1 0 2 1 1 0 0 1 0-2m14 0a1 1 0 1 1 0 2 1 1 0 0 1 0-2m14 0a1 1 0 1 1 0 2 1 1 0 0 1 0-2m14 0a1 1 0 1 1 0 2 1 1 0 0 1 0-2m14 0a1 1 0 1 1 0 2 1 1 0 0 1 0-2m14 0a1 1 0 1 1 0 2 1 1 0 0 1 0-2m14 0a1 1 0 1 1 0 2 1 1 0 0 1 0-2m14 0a1 1 0 1 1 0 2 1 1 0 0 1 0-2m14 0a1 1 0 1 1 0 2 1 1 0 0 1 0-2m14 0a1 1 0 1 1 0 2 1 1 0 0 1 0-2m14 0a1 1 0 1 1 0 2 1 1 0 0 1 0-2m14 0a1 1 0 1 1 0 2 1 1 0 0 1 0-2m14 0a1 1 0 1 1 0 2 1 1 0 0 1 0-2m14 0a1 1 0 1 1 0 2 1 1 0 0 1 0-2m14 0a1 1 0 1 1 0 2 1 1 0 0 1 0-2m14 0a1 1 0 1 1 0 2 1 1 0 0 1 0-2m14 0a1 1 0 1 1 0 2 1 1 0 0 1 0-2m14 0a1 1 0 1 1 0 2 1 1 0 0 1 0-2m14 0a1 1 0 1 1 0 2 1 1 0 0 1 0-2m14 0a1 1 0 1 1 0 2 1 1 0 0 1 0-2m14 0a1 1 0 1 1 0 2 1 1 0 0 1 0-2m14 0a1 1 0 1 1 0 2 1 1 0 0 1 0-2m14 0a1 1 0 1 1 0 2 1 1 0 0 1 0-2m14 0a1 1 0 1 1 0 2 1 1 0 0 1 0-2m14 0a1 1 0 1 1 0 2 1 1 0 0 1 0-2m14 0a1 1 0 1 1 0 2 1 1 0 0 1 0-2m14 0a1 1 0 1 1 0 2 1 1 0 0 1 0-2m14 0a1 1 0 1 1 0 2 1 1 0 0 1 0-2m14 0a1 1 0 1 1 0 2 1 1 0 0 1 0-2m14 0a1 1 0 1 1 0 2 1 1 0 0 1 0-2m14 0a1 1 0 1 1 0 2 1 1 0 0 1 0-2m14 0a1 1 0 1 1 0 2 1 1 0 0 1 0-2m14 0a1 1 0 1 1 0 2 1 1 0 0 1 0-2m14 0a1 1 0 1 1 0 2 1 1 0 0 1 0-2m14 0a1 1 0 1 1 0 2 1 1 0 0 1 0-2m14 0a1 1 0 1 1 0 2 1 1 0 0 1 0-2m14 0a1 1 0 1 1 0 2 1 1 0 0 1 0-2m14 0a1 1 0 1 1 0 2 1 1 0 0 1 0-2m14 0a1 1 0 1 1 0 2 1 1 0 0 1 0-2m14 0a1 1 0 1 1 0 2 1 1 0 0 1 0-2m14 0a1 1 0 1 1 0 2 1 1 0 0 1 0-2m14 0a1 1 0 1 1 0 2 1 1 0 0 1 0-2m14 0a1 1 0 1 1 0 2 1 1 0 0 1 0-2m14 0a1 1 0 1 1 0 2 1 1 0 0 1 0-2m14 0a1 1 0 1 1 0 2 1 1 0 0 1 0-2m-728-14a1 1 0 1 1 0 2 1 1 0 0 1 0-2m14 0a1 1 0 1 1 0 2 1 1 0 0 1 0-2m14 0a1 1 0 1 1 0 2 1 1 0 0 1 0-2m14 0a1 1 0 1 1 0 2 1 1 0 0 1 0-2m14 0a1 1 0 1 1 0 2 1 1 0 0 1 0-2m14 0a1 1 0 1 1 0 2 1 1 0 0 1 0-2m14 0a1 1 0 1 1 0 2 1 1 0 0 1 0-2m14 0a1 1 0 1 1 0 2 1 1 0 0 1 0-2m14 0a1 1 0 1 1 0 2 1 1 0 0 1 0-2m14 0a1 1 0 1 1 0 2 1 1 0 0 1 0-2m14 0a1 1 0 1 1 0 2 1 1 0 0 1 0-2m14 0a1 1 0 1 1 0 2 1 1 0 0 1 0-2m14 0a1 1 0 1 1 0 2 1 1 0 0 1 0-2m14 0a1 1 0 1 1 0 2 1 1 0 0 1 0-2m14 0a1 1 0 1 1 0 2 1 1 0 0 1 0-2m14 0a1 1 0 1 1 0 2 1 1 0 0 1 0-2m14 0a1 1 0 1 1 0 2 1 1 0 0 1 0-2m14 0a1 1 0 1 1 0 2 1 1 0 0 1 0-2m14 0a1 1 0 1 1 0 2 1 1 0 0 1 0-2m14 0a1 1 0 1 1 0 2 1 1 0 0 1 0-2m14 0a1 1 0 1 1 0 2 1 1 0 0 1 0-2m14 0a1 1 0 1 1 0 2 1 1 0 0 1 0-2m14 0a1 1 0 1 1 0 2 1 1 0 0 1 0-2m14 0a1 1 0 1 1 0 2 1 1 0 0 1 0-2m14 0a1 1 0 1 1 0 2 1 1 0 0 1 0-2m14 0a1 1 0 1 1 0 2 1 1 0 0 1 0-2m14 0a1 1 0 1 1 0 2 1 1 0 0 1 0-2m14 0a1 1 0 1 1 0 2 1 1 0 0 1 0-2m14 0a1 1 0 1 1 0 2 1 1 0 0 1 0-2m14 0a1 1 0 1 1 0 2 1 1 0 0 1 0-2m14 0a1 1 0 1 1 0 2 1 1 0 0 1 0-2m14 0a1 1 0 1 1 0 2 1 1 0 0 1 0-2m14 0a1 1 0 1 1 0 2 1 1 0 0 1 0-2m14 0a1 1 0 1 1 0 2 1 1 0 0 1 0-2m14 0a1 1 0 1 1 0 2 1 1 0 0 1 0-2m14 0a1 1 0 1 1 0 2 1 1 0 0 1 0-2m14 0a1 1 0 1 1 0 2 1 1 0 0 1 0-2m14 0a1 1 0 1 1 0 2 1 1 0 0 1 0-2m14 0a1 1 0 1 1 0 2 1 1 0 0 1 0-2m14 0a1 1 0 1 1 0 2 1 1 0 0 1 0-2m14 0a1 1 0 1 1 0 2 1 1 0 0 1 0-2m14 0a1 1 0 1 1 0 2 1 1 0 0 1 0-2m14 0a1 1 0 1 1 0 2 1 1 0 0 1 0-2m14 0a1 1 0 1 1 0 2 1 1 0 0 1 0-2m14 0a1 1 0 1 1 0 2 1 1 0 0 1 0-2m14 0a1 1 0 1 1 0 2 1 1 0 0 1 0-2m14 0a1 1 0 1 1 0 2 1 1 0 0 1 0-2m14 0a1 1 0 1 1 0 2 1 1 0 0 1 0-2m14 0a1 1 0 1 1 0 2 1 1 0 0 1 0-2m14 0a1 1 0 1 1 0 2 1 1 0 0 1 0-2m14 0a1 1 0 1 1 0 2 1 1 0 0 1 0-2m14 0a1 1 0 1 1 0 2 1 1 0 0 1 0-2m14 0a1 1 0 1 1 0 2 1 1 0 0 1 0-2m-728-14a1 1 0 1 1 0 2 1 1 0 0 1 0-2m14 0a1 1 0 1 1 0 2 1 1 0 0 1 0-2m14 0a1 1 0 1 1 0 2 1 1 0 0 1 0-2m14 0a1 1 0 1 1 0 2 1 1 0 0 1 0-2m14 0a1 1 0 1 1 0 2 1 1 0 0 1 0-2m14 0a1 1 0 1 1 0 2 1 1 0 0 1 0-2m14 0a1 1 0 1 1 0 2 1 1 0 0 1 0-2m14 0a1 1 0 1 1 0 2 1 1 0 0 1 0-2m14 0a1 1 0 1 1 0 2 1 1 0 0 1 0-2m14 0a1 1 0 1 1 0 2 1 1 0 0 1 0-2m14 0a1 1 0 1 1 0 2 1 1 0 0 1 0-2m14 0a1 1 0 1 1 0 2 1 1 0 0 1 0-2m14 0a1 1 0 1 1 0 2 1 1 0 0 1 0-2m14 0a1 1 0 1 1 0 2 1 1 0 0 1 0-2m14 0a1 1 0 1 1 0 2 1 1 0 0 1 0-2m14 0a1 1 0 1 1 0 2 1 1 0 0 1 0-2m14 0a1 1 0 1 1 0 2 1 1 0 0 1 0-2m14 0a1 1 0 1 1 0 2 1 1 0 0 1 0-2m14 0a1 1 0 1 1 0 2 1 1 0 0 1 0-2m14 0a1 1 0 1 1 0 2 1 1 0 0 1 0-2m14 0a1 1 0 1 1 0 2 1 1 0 0 1 0-2m14 0a1 1 0 1 1 0 2 1 1 0 0 1 0-2m14 0a1 1 0 1 1 0 2 1 1 0 0 1 0-2m14 0a1 1 0 1 1 0 2 1 1 0 0 1 0-2m14 0a1 1 0 1 1 0 2 1 1 0 0 1 0-2m14 0a1 1 0 1 1 0 2 1 1 0 0 1 0-2m14 0a1 1 0 1 1 0 2 1 1 0 0 1 0-2m14 0a1 1 0 1 1 0 2 1 1 0 0 1 0-2m14 0a1 1 0 1 1 0 2 1 1 0 0 1 0-2m14 0a1 1 0 1 1 0 2 1 1 0 0 1 0-2m14 0a1 1 0 1 1 0 2 1 1 0 0 1 0-2m14 0a1 1 0 1 1 0 2 1 1 0 0 1 0-2m14 0a1 1 0 1 1 0 2 1 1 0 0 1 0-2m14 0a1 1 0 1 1 0 2 1 1 0 0 1 0-2m14 0a1 1 0 1 1 0 2 1 1 0 0 1 0-2m14 0a1 1 0 1 1 0 2 1 1 0 0 1 0-2m14 0a1 1 0 1 1 0 2 1 1 0 0 1 0-2m14 0a1 1 0 1 1 0 2 1 1 0 0 1 0-2m14 0a1 1 0 1 1 0 2 1 1 0 0 1 0-2m14 0a1 1 0 1 1 0 2 1 1 0 0 1 0-2m14 0a1 1 0 1 1 0 2 1 1 0 0 1 0-2m14 0a1 1 0 1 1 0 2 1 1 0 0 1 0-2m14 0a1 1 0 1 1 0 2 1 1 0 0 1 0-2m14 0a1 1 0 1 1 0 2 1 1 0 0 1 0-2m14 0a1 1 0 1 1 0 2 1 1 0 0 1 0-2m14 0a1 1 0 1 1 0 2 1 1 0 0 1 0-2m14 0a1 1 0 1 1 0 2 1 1 0 0 1 0-2m14 0a1 1 0 1 1 0 2 1 1 0 0 1 0-2m14 0a1 1 0 1 1 0 2 1 1 0 0 1 0-2m14 0a1 1 0 1 1 0 2 1 1 0 0 1 0-2m14 0a1 1 0 1 1 0 2 1 1 0 0 1 0-2m14 0a1 1 0 1 1 0 2 1 1 0 0 1 0-2m14 0a1 1 0 1 1 0 2 1 1 0 0 1 0-2m-728-14a1 1 0 1 1 0 2 1 1 0 0 1 0-2m14 0a1 1 0 1 1 0 2 1 1 0 0 1 0-2m14 0a1 1 0 1 1 0 2 1 1 0 0 1 0-2m14 0a1 1 0 1 1 0 2 1 1 0 0 1 0-2m14 0a1 1 0 1 1 0 2 1 1 0 0 1 0-2m14 0a1 1 0 1 1 0 2 1 1 0 0 1 0-2m14 0a1 1 0 1 1 0 2 1 1 0 0 1 0-2m14 0a1 1 0 1 1 0 2 1 1 0 0 1 0-2m14 0a1 1 0 1 1 0 2 1 1 0 0 1 0-2m14 0a1 1 0 1 1 0 2 1 1 0 0 1 0-2m14 0a1 1 0 1 1 0 2 1 1 0 0 1 0-2m14 0a1 1 0 1 1 0 2 1 1 0 0 1 0-2m14 0a1 1 0 1 1 0 2 1 1 0 0 1 0-2m14 0a1 1 0 1 1 0 2 1 1 0 0 1 0-2m14 0a1 1 0 1 1 0 2 1 1 0 0 1 0-2m14 0a1 1 0 1 1 0 2 1 1 0 0 1 0-2m14 0a1 1 0 1 1 0 2 1 1 0 0 1 0-2m14 0a1 1 0 1 1 0 2 1 1 0 0 1 0-2m14 0a1 1 0 1 1 0 2 1 1 0 0 1 0-2m14 0a1 1 0 1 1 0 2 1 1 0 0 1 0-2m14 0a1 1 0 1 1 0 2 1 1 0 0 1 0-2m14 0a1 1 0 1 1 0 2 1 1 0 0 1 0-2m14 0a1 1 0 1 1 0 2 1 1 0 0 1 0-2m14 0a1 1 0 1 1 0 2 1 1 0 0 1 0-2m14 0a1 1 0 1 1 0 2 1 1 0 0 1 0-2m14 0a1 1 0 1 1 0 2 1 1 0 0 1 0-2m14 0a1 1 0 1 1 0 2 1 1 0 0 1 0-2m14 0a1 1 0 1 1 0 2 1 1 0 0 1 0-2m14 0a1 1 0 1 1 0 2 1 1 0 0 1 0-2m14 0a1 1 0 1 1 0 2 1 1 0 0 1 0-2m14 0a1 1 0 1 1 0 2 1 1 0 0 1 0-2m14 0a1 1 0 1 1 0 2 1 1 0 0 1 0-2m14 0a1 1 0 1 1 0 2 1 1 0 0 1 0-2m14 0a1 1 0 1 1 0 2 1 1 0 0 1 0-2m14 0a1 1 0 1 1 0 2 1 1 0 0 1 0-2m14 0a1 1 0 1 1 0 2 1 1 0 0 1 0-2m14 0a1 1 0 1 1 0 2 1 1 0 0 1 0-2m14 0a1 1 0 1 1 0 2 1 1 0 0 1 0-2m14 0a1 1 0 1 1 0 2 1 1 0 0 1 0-2m14 0a1 1 0 1 1 0 2 1 1 0 0 1 0-2m14 0a1 1 0 1 1 0 2 1 1 0 0 1 0-2m14 0a1 1 0 1 1 0 2 1 1 0 0 1 0-2m14 0a1 1 0 1 1 0 2 1 1 0 0 1 0-2m14 0a1 1 0 1 1 0 2 1 1 0 0 1 0-2m14 0a1 1 0 1 1 0 2 1 1 0 0 1 0-2m14 0a1 1 0 1 1 0 2 1 1 0 0 1 0-2m14 0a1 1 0 1 1 0 2 1 1 0 0 1 0-2m14 0a1 1 0 1 1 0 2 1 1 0 0 1 0-2m14 0a1 1 0 1 1 0 2 1 1 0 0 1 0-2m14 0a1 1 0 1 1 0 2 1 1 0 0 1 0-2m14 0a1 1 0 1 1 0 2 1 1 0 0 1 0-2m14 0a1 1 0 1 1 0 2 1 1 0 0 1 0-2m14 0a1 1 0 1 1 0 2 1 1 0 0 1 0-2m-728-14a1 1 0 1 1 0 2 1 1 0 0 1 0-2m14 0a1 1 0 1 1 0 2 1 1 0 0 1 0-2m14 0a1 1 0 1 1 0 2 1 1 0 0 1 0-2m14 0a1 1 0 1 1 0 2 1 1 0 0 1 0-2m14 0a1 1 0 1 1 0 2 1 1 0 0 1 0-2m14 0a1 1 0 1 1 0 2 1 1 0 0 1 0-2m14 0a1 1 0 1 1 0 2 1 1 0 0 1 0-2m14 0a1 1 0 1 1 0 2 1 1 0 0 1 0-2m14 0a1 1 0 1 1 0 2 1 1 0 0 1 0-2m14 0a1 1 0 1 1 0 2 1 1 0 0 1 0-2m14 0a1 1 0 1 1 0 2 1 1 0 0 1 0-2m14 0a1 1 0 1 1 0 2 1 1 0 0 1 0-2m14 0a1 1 0 1 1 0 2 1 1 0 0 1 0-2m14 0a1 1 0 1 1 0 2 1 1 0 0 1 0-2m14 0a1 1 0 1 1 0 2 1 1 0 0 1 0-2m14 0a1 1 0 1 1 0 2 1 1 0 0 1 0-2m14 0a1 1 0 1 1 0 2 1 1 0 0 1 0-2m14 0a1 1 0 1 1 0 2 1 1 0 0 1 0-2m14 0a1 1 0 1 1 0 2 1 1 0 0 1 0-2m14 0a1 1 0 1 1 0 2 1 1 0 0 1 0-2m14 0a1 1 0 1 1 0 2 1 1 0 0 1 0-2m14 0a1 1 0 1 1 0 2 1 1 0 0 1 0-2m14 0a1 1 0 1 1 0 2 1 1 0 0 1 0-2m14 0a1 1 0 1 1 0 2 1 1 0 0 1 0-2m14 0a1 1 0 1 1 0 2 1 1 0 0 1 0-2m14 0a1 1 0 1 1 0 2 1 1 0 0 1 0-2m14 0a1 1 0 1 1 0 2 1 1 0 0 1 0-2m14 0a1 1 0 1 1 0 2 1 1 0 0 1 0-2m14 0a1 1 0 1 1 0 2 1 1 0 0 1 0-2m14 0a1 1 0 1 1 0 2 1 1 0 0 1 0-2m14 0a1 1 0 1 1 0 2 1 1 0 0 1 0-2m14 0a1 1 0 1 1 0 2 1 1 0 0 1 0-2m14 0a1 1 0 1 1 0 2 1 1 0 0 1 0-2m14 0a1 1 0 1 1 0 2 1 1 0 0 1 0-2m14 0a1 1 0 1 1 0 2 1 1 0 0 1 0-2m14 0a1 1 0 1 1 0 2 1 1 0 0 1 0-2m14 0a1 1 0 1 1 0 2 1 1 0 0 1 0-2m14 0a1 1 0 1 1 0 2 1 1 0 0 1 0-2m14 0a1 1 0 1 1 0 2 1 1 0 0 1 0-2m14 0a1 1 0 1 1 0 2 1 1 0 0 1 0-2m14 0a1 1 0 1 1 0 2 1 1 0 0 1 0-2m14 0a1 1 0 1 1 0 2 1 1 0 0 1 0-2m14 0a1 1 0 1 1 0 2 1 1 0 0 1 0-2m14 0a1 1 0 1 1 0 2 1 1 0 0 1 0-2m14 0a1 1 0 1 1 0 2 1 1 0 0 1 0-2m14 0a1 1 0 1 1 0 2 1 1 0 0 1 0-2m14 0a1 1 0 1 1 0 2 1 1 0 0 1 0-2m14 0a1 1 0 1 1 0 2 1 1 0 0 1 0-2m14 0a1 1 0 1 1 0 2 1 1 0 0 1 0-2m14 0a1 1 0 1 1 0 2 1 1 0 0 1 0-2m14 0a1 1 0 1 1 0 2 1 1 0 0 1 0-2m14 0a1 1 0 1 1 0 2 1 1 0 0 1 0-2m14 0a1 1 0 1 1 0 2 1 1 0 0 1 0-2m-728-14a1 1 0 1 1 0 2 1 1 0 0 1 0-2m14 0a1 1 0 1 1 0 2 1 1 0 0 1 0-2m14 0a1 1 0 1 1 0 2 1 1 0 0 1 0-2m14 0a1 1 0 1 1 0 2 1 1 0 0 1 0-2m14 0a1 1 0 1 1 0 2 1 1 0 0 1 0-2m14 0a1 1 0 1 1 0 2 1 1 0 0 1 0-2m14 0a1 1 0 1 1 0 2 1 1 0 0 1 0-2m14 0a1 1 0 1 1 0 2 1 1 0 0 1 0-2m14 0a1 1 0 1 1 0 2 1 1 0 0 1 0-2m14 0a1 1 0 1 1 0 2 1 1 0 0 1 0-2m14 0a1 1 0 1 1 0 2 1 1 0 0 1 0-2m14 0a1 1 0 1 1 0 2 1 1 0 0 1 0-2m14 0a1 1 0 1 1 0 2 1 1 0 0 1 0-2m14 0a1 1 0 1 1 0 2 1 1 0 0 1 0-2m14 0a1 1 0 1 1 0 2 1 1 0 0 1 0-2m14 0a1 1 0 1 1 0 2 1 1 0 0 1 0-2m14 0a1 1 0 1 1 0 2 1 1 0 0 1 0-2m14 0a1 1 0 1 1 0 2 1 1 0 0 1 0-2m14 0a1 1 0 1 1 0 2 1 1 0 0 1 0-2m14 0a1 1 0 1 1 0 2 1 1 0 0 1 0-2m14 0a1 1 0 1 1 0 2 1 1 0 0 1 0-2m14 0a1 1 0 1 1 0 2 1 1 0 0 1 0-2m14 0a1 1 0 1 1 0 2 1 1 0 0 1 0-2m14 0a1 1 0 1 1 0 2 1 1 0 0 1 0-2m14 0a1 1 0 1 1 0 2 1 1 0 0 1 0-2m14 0a1 1 0 1 1 0 2 1 1 0 0 1 0-2m14 0a1 1 0 1 1 0 2 1 1 0 0 1 0-2m14 0a1 1 0 1 1 0 2 1 1 0 0 1 0-2m14 0a1 1 0 1 1 0 2 1 1 0 0 1 0-2m14 0a1 1 0 1 1 0 2 1 1 0 0 1 0-2m14 0a1 1 0 1 1 0 2 1 1 0 0 1 0-2m14 0a1 1 0 1 1 0 2 1 1 0 0 1 0-2m14 0a1 1 0 1 1 0 2 1 1 0 0 1 0-2m14 0a1 1 0 1 1 0 2 1 1 0 0 1 0-2m14 0a1 1 0 1 1 0 2 1 1 0 0 1 0-2m14 0a1 1 0 1 1 0 2 1 1 0 0 1 0-2m14 0a1 1 0 1 1 0 2 1 1 0 0 1 0-2m14 0a1 1 0 1 1 0 2 1 1 0 0 1 0-2m14 0a1 1 0 1 1 0 2 1 1 0 0 1 0-2m14 0a1 1 0 1 1 0 2 1 1 0 0 1 0-2m14 0a1 1 0 1 1 0 2 1 1 0 0 1 0-2m14 0a1 1 0 1 1 0 2 1 1 0 0 1 0-2m14 0a1 1 0 1 1 0 2 1 1 0 0 1 0-2m14 0a1 1 0 1 1 0 2 1 1 0 0 1 0-2m14 0a1 1 0 1 1 0 2 1 1 0 0 1 0-2m14 0a1 1 0 1 1 0 2 1 1 0 0 1 0-2m14 0a1 1 0 1 1 0 2 1 1 0 0 1 0-2m14 0a1 1 0 1 1 0 2 1 1 0 0 1 0-2m14 0a1 1 0 1 1 0 2 1 1 0 0 1 0-2m14 0a1 1 0 1 1 0 2 1 1 0 0 1 0-2m14 0a1 1 0 1 1 0 2 1 1 0 0 1 0-2m14 0a1 1 0 1 1 0 2 1 1 0 0 1 0-2m14 0a1 1 0 1 1 0 2 1 1 0 0 1 0-2m-728-14a1 1 0 1 1 0 2 1 1 0 0 1 0-2m14 0a1 1 0 1 1 0 2 1 1 0 0 1 0-2m14 0a1 1 0 1 1 0 2 1 1 0 0 1 0-2m14 0a1 1 0 1 1 0 2 1 1 0 0 1 0-2m14 0a1 1 0 1 1 0 2 1 1 0 0 1 0-2m14 0a1 1 0 1 1 0 2 1 1 0 0 1 0-2m14 0a1 1 0 1 1 0 2 1 1 0 0 1 0-2m14 0a1 1 0 1 1 0 2 1 1 0 0 1 0-2m14 0a1 1 0 1 1 0 2 1 1 0 0 1 0-2m14 0a1 1 0 1 1 0 2 1 1 0 0 1 0-2m14 0a1 1 0 1 1 0 2 1 1 0 0 1 0-2m14 0a1 1 0 1 1 0 2 1 1 0 0 1 0-2m14 0a1 1 0 1 1 0 2 1 1 0 0 1 0-2m14 0a1 1 0 1 1 0 2 1 1 0 0 1 0-2m14 0a1 1 0 1 1 0 2 1 1 0 0 1 0-2m14 0a1 1 0 1 1 0 2 1 1 0 0 1 0-2m14 0a1 1 0 1 1 0 2 1 1 0 0 1 0-2m14 0a1 1 0 1 1 0 2 1 1 0 0 1 0-2m14 0a1 1 0 1 1 0 2 1 1 0 0 1 0-2m14 0a1 1 0 1 1 0 2 1 1 0 0 1 0-2m14 0a1 1 0 1 1 0 2 1 1 0 0 1 0-2m14 0a1 1 0 1 1 0 2 1 1 0 0 1 0-2m14 0a1 1 0 1 1 0 2 1 1 0 0 1 0-2m14 0a1 1 0 1 1 0 2 1 1 0 0 1 0-2m14 0a1 1 0 1 1 0 2 1 1 0 0 1 0-2m14 0a1 1 0 1 1 0 2 1 1 0 0 1 0-2m14 0a1 1 0 1 1 0 2 1 1 0 0 1 0-2m14 0a1 1 0 1 1 0 2 1 1 0 0 1 0-2m14 0a1 1 0 1 1 0 2 1 1 0 0 1 0-2m14 0a1 1 0 1 1 0 2 1 1 0 0 1 0-2m14 0a1 1 0 1 1 0 2 1 1 0 0 1 0-2m14 0a1 1 0 1 1 0 2 1 1 0 0 1 0-2m14 0a1 1 0 1 1 0 2 1 1 0 0 1 0-2m14 0a1 1 0 1 1 0 2 1 1 0 0 1 0-2m14 0a1 1 0 1 1 0 2 1 1 0 0 1 0-2m14 0a1 1 0 1 1 0 2 1 1 0 0 1 0-2m14 0a1 1 0 1 1 0 2 1 1 0 0 1 0-2m14 0a1 1 0 1 1 0 2 1 1 0 0 1 0-2m14 0a1 1 0 1 1 0 2 1 1 0 0 1 0-2m14 0a1 1 0 1 1 0 2 1 1 0 0 1 0-2m14 0a1 1 0 1 1 0 2 1 1 0 0 1 0-2m14 0a1 1 0 1 1 0 2 1 1 0 0 1 0-2m14 0a1 1 0 1 1 0 2 1 1 0 0 1 0-2m14 0a1 1 0 1 1 0 2 1 1 0 0 1 0-2m14 0a1 1 0 1 1 0 2 1 1 0 0 1 0-2m14 0a1 1 0 1 1 0 2 1 1 0 0 1 0-2m14 0a1 1 0 1 1 0 2 1 1 0 0 1 0-2m14 0a1 1 0 1 1 0 2 1 1 0 0 1 0-2m14 0a1 1 0 1 1 0 2 1 1 0 0 1 0-2m14 0a1 1 0 1 1 0 2 1 1 0 0 1 0-2m14 0a1 1 0 1 1 0 2 1 1 0 0 1 0-2m14 0a1 1 0 1 1 0 2 1 1 0 0 1 0-2m14 0a1 1 0 1 1 0 2 1 1 0 0 1 0-2m-728-14a1 1 0 1 1 0 2 1 1 0 0 1 0-2m14 0a1 1 0 1 1 0 2 1 1 0 0 1 0-2m14 0a1 1 0 1 1 0 2 1 1 0 0 1 0-2m14 0a1 1 0 1 1 0 2 1 1 0 0 1 0-2m14 0a1 1 0 1 1 0 2 1 1 0 0 1 0-2m14 0a1 1 0 1 1 0 2 1 1 0 0 1 0-2m14 0a1 1 0 1 1 0 2 1 1 0 0 1 0-2m14 0a1 1 0 1 1 0 2 1 1 0 0 1 0-2m14 0a1 1 0 1 1 0 2 1 1 0 0 1 0-2m14 0a1 1 0 1 1 0 2 1 1 0 0 1 0-2m14 0a1 1 0 1 1 0 2 1 1 0 0 1 0-2m14 0a1 1 0 1 1 0 2 1 1 0 0 1 0-2m14 0a1 1 0 1 1 0 2 1 1 0 0 1 0-2m14 0a1 1 0 1 1 0 2 1 1 0 0 1 0-2m14 0a1 1 0 1 1 0 2 1 1 0 0 1 0-2m14 0a1 1 0 1 1 0 2 1 1 0 0 1 0-2m14 0a1 1 0 1 1 0 2 1 1 0 0 1 0-2m14 0a1 1 0 1 1 0 2 1 1 0 0 1 0-2m14 0a1 1 0 1 1 0 2 1 1 0 0 1 0-2m14 0a1 1 0 1 1 0 2 1 1 0 0 1 0-2m14 0a1 1 0 1 1 0 2 1 1 0 0 1 0-2m14 0a1 1 0 1 1 0 2 1 1 0 0 1 0-2m14 0a1 1 0 1 1 0 2 1 1 0 0 1 0-2m14 0a1 1 0 1 1 0 2 1 1 0 0 1 0-2m14 0a1 1 0 1 1 0 2 1 1 0 0 1 0-2m14 0a1 1 0 1 1 0 2 1 1 0 0 1 0-2m14 0a1 1 0 1 1 0 2 1 1 0 0 1 0-2m14 0a1 1 0 1 1 0 2 1 1 0 0 1 0-2m14 0a1 1 0 1 1 0 2 1 1 0 0 1 0-2m14 0a1 1 0 1 1 0 2 1 1 0 0 1 0-2m14 0a1 1 0 1 1 0 2 1 1 0 0 1 0-2m14 0a1 1 0 1 1 0 2 1 1 0 0 1 0-2m14 0a1 1 0 1 1 0 2 1 1 0 0 1 0-2m14 0a1 1 0 1 1 0 2 1 1 0 0 1 0-2m14 0a1 1 0 1 1 0 2 1 1 0 0 1 0-2m14 0a1 1 0 1 1 0 2 1 1 0 0 1 0-2m14 0a1 1 0 1 1 0 2 1 1 0 0 1 0-2m14 0a1 1 0 1 1 0 2 1 1 0 0 1 0-2m14 0a1 1 0 1 1 0 2 1 1 0 0 1 0-2m14 0a1 1 0 1 1 0 2 1 1 0 0 1 0-2m14 0a1 1 0 1 1 0 2 1 1 0 0 1 0-2m14 0a1 1 0 1 1 0 2 1 1 0 0 1 0-2m14 0a1 1 0 1 1 0 2 1 1 0 0 1 0-2m14 0a1 1 0 1 1 0 2 1 1 0 0 1 0-2m14 0a1 1 0 1 1 0 2 1 1 0 0 1 0-2m14 0a1 1 0 1 1 0 2 1 1 0 0 1 0-2m14 0a1 1 0 1 1 0 2 1 1 0 0 1 0-2m14 0a1 1 0 1 1 0 2 1 1 0 0 1 0-2m14 0a1 1 0 1 1 0 2 1 1 0 0 1 0-2m14 0a1 1 0 1 1 0 2 1 1 0 0 1 0-2m14 0a1 1 0 1 1 0 2 1 1 0 0 1 0-2m14 0a1 1 0 1 1 0 2 1 1 0 0 1 0-2m14 0a1 1 0 1 1 0 2 1 1 0 0 1 0-2M-11 93a1 1 0 1 1 0 2 1 1 0 0 1 0-2m14 0a1 1 0 1 1 0 2 1 1 0 0 1 0-2m14 0a1 1 0 1 1 0 2 1 1 0 0 1 0-2m14 0a1 1 0 1 1 0 2 1 1 0 0 1 0-2m14 0a1 1 0 1 1 0 2 1 1 0 0 1 0-2m14 0a1 1 0 1 1 0 2 1 1 0 0 1 0-2m14 0a1 1 0 1 1 0 2 1 1 0 0 1 0-2m14 0a1 1 0 1 1 0 2 1 1 0 0 1 0-2m14 0a1 1 0 1 1 0 2 1 1 0 0 1 0-2m14 0a1 1 0 1 1 0 2 1 1 0 0 1 0-2m14 0a1 1 0 1 1 0 2 1 1 0 0 1 0-2m14 0a1 1 0 1 1 0 2 1 1 0 0 1 0-2m14 0a1 1 0 1 1 0 2 1 1 0 0 1 0-2m14 0a1 1 0 1 1 0 2 1 1 0 0 1 0-2m14 0a1 1 0 1 1 0 2 1 1 0 0 1 0-2m14 0a1 1 0 1 1 0 2 1 1 0 0 1 0-2m14 0a1 1 0 1 1 0 2 1 1 0 0 1 0-2m14 0a1 1 0 1 1 0 2 1 1 0 0 1 0-2m14 0a1 1 0 1 1 0 2 1 1 0 0 1 0-2m14 0a1 1 0 1 1 0 2 1 1 0 0 1 0-2m14 0a1 1 0 1 1 0 2 1 1 0 0 1 0-2m14 0a1 1 0 1 1 0 2 1 1 0 0 1 0-2m14 0a1 1 0 1 1 0 2 1 1 0 0 1 0-2m14 0a1 1 0 1 1 0 2 1 1 0 0 1 0-2m14 0a1 1 0 1 1 0 2 1 1 0 0 1 0-2m14 0a1 1 0 1 1 0 2 1 1 0 0 1 0-2m14 0a1 1 0 1 1 0 2 1 1 0 0 1 0-2m14 0a1 1 0 1 1 0 2 1 1 0 0 1 0-2m14 0a1 1 0 1 1 0 2 1 1 0 0 1 0-2m14 0a1 1 0 1 1 0 2 1 1 0 0 1 0-2m14 0a1 1 0 1 1 0 2 1 1 0 0 1 0-2m14 0a1 1 0 1 1 0 2 1 1 0 0 1 0-2m14 0a1 1 0 1 1 0 2 1 1 0 0 1 0-2m14 0a1 1 0 1 1 0 2 1 1 0 0 1 0-2m14 0a1 1 0 1 1 0 2 1 1 0 0 1 0-2m14 0a1 1 0 1 1 0 2 1 1 0 0 1 0-2m14 0a1 1 0 1 1 0 2 1 1 0 0 1 0-2m14 0a1 1 0 1 1 0 2 1 1 0 0 1 0-2m14 0a1 1 0 1 1 0 2 1 1 0 0 1 0-2m14 0a1 1 0 1 1 0 2 1 1 0 0 1 0-2m14 0a1 1 0 1 1 0 2 1 1 0 0 1 0-2m14 0a1 1 0 1 1 0 2 1 1 0 0 1 0-2m14 0a1 1 0 1 1 0 2 1 1 0 0 1 0-2m14 0a1 1 0 1 1 0 2 1 1 0 0 1 0-2m14 0a1 1 0 1 1 0 2 1 1 0 0 1 0-2m14 0a1 1 0 1 1 0 2 1 1 0 0 1 0-2m14 0a1 1 0 1 1 0 2 1 1 0 0 1 0-2m14 0a1 1 0 1 1 0 2 1 1 0 0 1 0-2m14 0a1 1 0 1 1 0 2 1 1 0 0 1 0-2m14 0a1 1 0 1 1 0 2 1 1 0 0 1 0-2m14 0a1 1 0 1 1 0 2 1 1 0 0 1 0-2m14 0a1 1 0 1 1 0 2 1 1 0 0 1 0-2m14 0a1 1 0 1 1 0 2 1 1 0 0 1 0-2M-11 79a1 1 0 1 1 0 2 1 1 0 0 1 0-2m14 0a1 1 0 1 1 0 2 1 1 0 0 1 0-2m14 0a1 1 0 1 1 0 2 1 1 0 0 1 0-2m14 0a1 1 0 1 1 0 2 1 1 0 0 1 0-2m14 0a1 1 0 1 1 0 2 1 1 0 0 1 0-2m14 0a1 1 0 1 1 0 2 1 1 0 0 1 0-2m14 0a1 1 0 1 1 0 2 1 1 0 0 1 0-2m14 0a1 1 0 1 1 0 2 1 1 0 0 1 0-2m14 0a1 1 0 1 1 0 2 1 1 0 0 1 0-2m14 0a1 1 0 1 1 0 2 1 1 0 0 1 0-2m14 0a1 1 0 1 1 0 2 1 1 0 0 1 0-2m14 0a1 1 0 1 1 0 2 1 1 0 0 1 0-2m14 0a1 1 0 1 1 0 2 1 1 0 0 1 0-2m14 0a1 1 0 1 1 0 2 1 1 0 0 1 0-2m14 0a1 1 0 1 1 0 2 1 1 0 0 1 0-2m14 0a1 1 0 1 1 0 2 1 1 0 0 1 0-2m14 0a1 1 0 1 1 0 2 1 1 0 0 1 0-2m14 0a1 1 0 1 1 0 2 1 1 0 0 1 0-2m14 0a1 1 0 1 1 0 2 1 1 0 0 1 0-2m14 0a1 1 0 1 1 0 2 1 1 0 0 1 0-2m14 0a1 1 0 1 1 0 2 1 1 0 0 1 0-2m14 0a1 1 0 1 1 0 2 1 1 0 0 1 0-2m14 0a1 1 0 1 1 0 2 1 1 0 0 1 0-2m14 0a1 1 0 1 1 0 2 1 1 0 0 1 0-2m14 0a1 1 0 1 1 0 2 1 1 0 0 1 0-2m14 0a1 1 0 1 1 0 2 1 1 0 0 1 0-2m14 0a1 1 0 1 1 0 2 1 1 0 0 1 0-2m14 0a1 1 0 1 1 0 2 1 1 0 0 1 0-2m14 0a1 1 0 1 1 0 2 1 1 0 0 1 0-2m14 0a1 1 0 1 1 0 2 1 1 0 0 1 0-2m14 0a1 1 0 1 1 0 2 1 1 0 0 1 0-2m14 0a1 1 0 1 1 0 2 1 1 0 0 1 0-2m14 0a1 1 0 1 1 0 2 1 1 0 0 1 0-2m14 0a1 1 0 1 1 0 2 1 1 0 0 1 0-2m14 0a1 1 0 1 1 0 2 1 1 0 0 1 0-2m14 0a1 1 0 1 1 0 2 1 1 0 0 1 0-2m14 0a1 1 0 1 1 0 2 1 1 0 0 1 0-2m14 0a1 1 0 1 1 0 2 1 1 0 0 1 0-2m14 0a1 1 0 1 1 0 2 1 1 0 0 1 0-2m14 0a1 1 0 1 1 0 2 1 1 0 0 1 0-2m14 0a1 1 0 1 1 0 2 1 1 0 0 1 0-2m14 0a1 1 0 1 1 0 2 1 1 0 0 1 0-2m14 0a1 1 0 1 1 0 2 1 1 0 0 1 0-2m14 0a1 1 0 1 1 0 2 1 1 0 0 1 0-2m14 0a1 1 0 1 1 0 2 1 1 0 0 1 0-2m14 0a1 1 0 1 1 0 2 1 1 0 0 1 0-2m14 0a1 1 0 1 1 0 2 1 1 0 0 1 0-2m14 0a1 1 0 1 1 0 2 1 1 0 0 1 0-2m14 0a1 1 0 1 1 0 2 1 1 0 0 1 0-2m14 0a1 1 0 1 1 0 2 1 1 0 0 1 0-2m14 0a1 1 0 1 1 0 2 1 1 0 0 1 0-2m14 0a1 1 0 1 1 0 2 1 1 0 0 1 0-2m14 0a1 1 0 1 1 0 2 1 1 0 0 1 0-2M-11 65a1 1 0 1 1 0 2 1 1 0 0 1 0-2m14 0a1 1 0 1 1 0 2 1 1 0 0 1 0-2m14 0a1 1 0 1 1 0 2 1 1 0 0 1 0-2m14 0a1 1 0 1 1 0 2 1 1 0 0 1 0-2m14 0a1 1 0 1 1 0 2 1 1 0 0 1 0-2m14 0a1 1 0 1 1 0 2 1 1 0 0 1 0-2m14 0a1 1 0 1 1 0 2 1 1 0 0 1 0-2m14 0a1 1 0 1 1 0 2 1 1 0 0 1 0-2m14 0a1 1 0 1 1 0 2 1 1 0 0 1 0-2m14 0a1 1 0 1 1 0 2 1 1 0 0 1 0-2m14 0a1 1 0 1 1 0 2 1 1 0 0 1 0-2m14 0a1 1 0 1 1 0 2 1 1 0 0 1 0-2m14 0a1 1 0 1 1 0 2 1 1 0 0 1 0-2m14 0a1 1 0 1 1 0 2 1 1 0 0 1 0-2m14 0a1 1 0 1 1 0 2 1 1 0 0 1 0-2m14 0a1 1 0 1 1 0 2 1 1 0 0 1 0-2m14 0a1 1 0 1 1 0 2 1 1 0 0 1 0-2m14 0a1 1 0 1 1 0 2 1 1 0 0 1 0-2m14 0a1 1 0 1 1 0 2 1 1 0 0 1 0-2m14 0a1 1 0 1 1 0 2 1 1 0 0 1 0-2m14 0a1 1 0 1 1 0 2 1 1 0 0 1 0-2m14 0a1 1 0 1 1 0 2 1 1 0 0 1 0-2m14 0a1 1 0 1 1 0 2 1 1 0 0 1 0-2m14 0a1 1 0 1 1 0 2 1 1 0 0 1 0-2m14 0a1 1 0 1 1 0 2 1 1 0 0 1 0-2m14 0a1 1 0 1 1 0 2 1 1 0 0 1 0-2m14 0a1 1 0 1 1 0 2 1 1 0 0 1 0-2m14 0a1 1 0 1 1 0 2 1 1 0 0 1 0-2m14 0a1 1 0 1 1 0 2 1 1 0 0 1 0-2m14 0a1 1 0 1 1 0 2 1 1 0 0 1 0-2m14 0a1 1 0 1 1 0 2 1 1 0 0 1 0-2m14 0a1 1 0 1 1 0 2 1 1 0 0 1 0-2m14 0a1 1 0 1 1 0 2 1 1 0 0 1 0-2m14 0a1 1 0 1 1 0 2 1 1 0 0 1 0-2m14 0a1 1 0 1 1 0 2 1 1 0 0 1 0-2m14 0a1 1 0 1 1 0 2 1 1 0 0 1 0-2m14 0a1 1 0 1 1 0 2 1 1 0 0 1 0-2m14 0a1 1 0 1 1 0 2 1 1 0 0 1 0-2m14 0a1 1 0 1 1 0 2 1 1 0 0 1 0-2m14 0a1 1 0 1 1 0 2 1 1 0 0 1 0-2m14 0a1 1 0 1 1 0 2 1 1 0 0 1 0-2m14 0a1 1 0 1 1 0 2 1 1 0 0 1 0-2m14 0a1 1 0 1 1 0 2 1 1 0 0 1 0-2m14 0a1 1 0 1 1 0 2 1 1 0 0 1 0-2m14 0a1 1 0 1 1 0 2 1 1 0 0 1 0-2m14 0a1 1 0 1 1 0 2 1 1 0 0 1 0-2m14 0a1 1 0 1 1 0 2 1 1 0 0 1 0-2m14 0a1 1 0 1 1 0 2 1 1 0 0 1 0-2m14 0a1 1 0 1 1 0 2 1 1 0 0 1 0-2m14 0a1 1 0 1 1 0 2 1 1 0 0 1 0-2m14 0a1 1 0 1 1 0 2 1 1 0 0 1 0-2m14 0a1 1 0 1 1 0 2 1 1 0 0 1 0-2m14 0a1 1 0 1 1 0 2 1 1 0 0 1 0-2M-11 51a1 1 0 1 1 0 2 1 1 0 0 1 0-2m14 0a1 1 0 1 1 0 2 1 1 0 0 1 0-2m14 0a1 1 0 1 1 0 2 1 1 0 0 1 0-2m14 0a1 1 0 1 1 0 2 1 1 0 0 1 0-2m14 0a1 1 0 1 1 0 2 1 1 0 0 1 0-2m14 0a1 1 0 1 1 0 2 1 1 0 0 1 0-2m14 0a1 1 0 1 1 0 2 1 1 0 0 1 0-2m14 0a1 1 0 1 1 0 2 1 1 0 0 1 0-2m14 0a1 1 0 1 1 0 2 1 1 0 0 1 0-2m14 0a1 1 0 1 1 0 2 1 1 0 0 1 0-2m14 0a1 1 0 1 1 0 2 1 1 0 0 1 0-2m14 0a1 1 0 1 1 0 2 1 1 0 0 1 0-2m14 0a1 1 0 1 1 0 2 1 1 0 0 1 0-2m14 0a1 1 0 1 1 0 2 1 1 0 0 1 0-2m14 0a1 1 0 1 1 0 2 1 1 0 0 1 0-2m14 0a1 1 0 1 1 0 2 1 1 0 0 1 0-2m14 0a1 1 0 1 1 0 2 1 1 0 0 1 0-2m14 0a1 1 0 1 1 0 2 1 1 0 0 1 0-2m14 0a1 1 0 1 1 0 2 1 1 0 0 1 0-2m14 0a1 1 0 1 1 0 2 1 1 0 0 1 0-2m14 0a1 1 0 1 1 0 2 1 1 0 0 1 0-2m14 0a1 1 0 1 1 0 2 1 1 0 0 1 0-2m14 0a1 1 0 1 1 0 2 1 1 0 0 1 0-2m14 0a1 1 0 1 1 0 2 1 1 0 0 1 0-2m14 0a1 1 0 1 1 0 2 1 1 0 0 1 0-2m14 0a1 1 0 1 1 0 2 1 1 0 0 1 0-2m14 0a1 1 0 1 1 0 2 1 1 0 0 1 0-2m14 0a1 1 0 1 1 0 2 1 1 0 0 1 0-2m14 0a1 1 0 1 1 0 2 1 1 0 0 1 0-2m14 0a1 1 0 1 1 0 2 1 1 0 0 1 0-2m14 0a1 1 0 1 1 0 2 1 1 0 0 1 0-2m14 0a1 1 0 1 1 0 2 1 1 0 0 1 0-2m14 0a1 1 0 1 1 0 2 1 1 0 0 1 0-2m14 0a1 1 0 1 1 0 2 1 1 0 0 1 0-2m14 0a1 1 0 1 1 0 2 1 1 0 0 1 0-2m14 0a1 1 0 1 1 0 2 1 1 0 0 1 0-2m14 0a1 1 0 1 1 0 2 1 1 0 0 1 0-2m14 0a1 1 0 1 1 0 2 1 1 0 0 1 0-2m14 0a1 1 0 1 1 0 2 1 1 0 0 1 0-2m14 0a1 1 0 1 1 0 2 1 1 0 0 1 0-2m14 0a1 1 0 1 1 0 2 1 1 0 0 1 0-2m14 0a1 1 0 1 1 0 2 1 1 0 0 1 0-2m14 0a1 1 0 1 1 0 2 1 1 0 0 1 0-2m14 0a1 1 0 1 1 0 2 1 1 0 0 1 0-2m14 0a1 1 0 1 1 0 2 1 1 0 0 1 0-2m14 0a1 1 0 1 1 0 2 1 1 0 0 1 0-2m14 0a1 1 0 1 1 0 2 1 1 0 0 1 0-2m14 0a1 1 0 1 1 0 2 1 1 0 0 1 0-2m14 0a1 1 0 1 1 0 2 1 1 0 0 1 0-2m14 0a1 1 0 1 1 0 2 1 1 0 0 1 0-2m14 0a1 1 0 1 1 0 2 1 1 0 0 1 0-2m14 0a1 1 0 1 1 0 2 1 1 0 0 1 0-2m14 0a1 1 0 1 1 0 2 1 1 0 0 1 0-2M-11 37a1 1 0 1 1 0 2 1 1 0 0 1 0-2m14 0a1 1 0 1 1 0 2 1 1 0 0 1 0-2m14 0a1 1 0 1 1 0 2 1 1 0 0 1 0-2m14 0a1 1 0 1 1 0 2 1 1 0 0 1 0-2m14 0a1 1 0 1 1 0 2 1 1 0 0 1 0-2m14 0a1 1 0 1 1 0 2 1 1 0 0 1 0-2m14 0a1 1 0 1 1 0 2 1 1 0 0 1 0-2m14 0a1 1 0 1 1 0 2 1 1 0 0 1 0-2m14 0a1 1 0 1 1 0 2 1 1 0 0 1 0-2m14 0a1 1 0 1 1 0 2 1 1 0 0 1 0-2m14 0a1 1 0 1 1 0 2 1 1 0 0 1 0-2m14 0a1 1 0 1 1 0 2 1 1 0 0 1 0-2m14 0a1 1 0 1 1 0 2 1 1 0 0 1 0-2m14 0a1 1 0 1 1 0 2 1 1 0 0 1 0-2m14 0a1 1 0 1 1 0 2 1 1 0 0 1 0-2m14 0a1 1 0 1 1 0 2 1 1 0 0 1 0-2m14 0a1 1 0 1 1 0 2 1 1 0 0 1 0-2m14 0a1 1 0 1 1 0 2 1 1 0 0 1 0-2m14 0a1 1 0 1 1 0 2 1 1 0 0 1 0-2m14 0a1 1 0 1 1 0 2 1 1 0 0 1 0-2m14 0a1 1 0 1 1 0 2 1 1 0 0 1 0-2m14 0a1 1 0 1 1 0 2 1 1 0 0 1 0-2m14 0a1 1 0 1 1 0 2 1 1 0 0 1 0-2m14 0a1 1 0 1 1 0 2 1 1 0 0 1 0-2m14 0a1 1 0 1 1 0 2 1 1 0 0 1 0-2m14 0a1 1 0 1 1 0 2 1 1 0 0 1 0-2m14 0a1 1 0 1 1 0 2 1 1 0 0 1 0-2m14 0a1 1 0 1 1 0 2 1 1 0 0 1 0-2m14 0a1 1 0 1 1 0 2 1 1 0 0 1 0-2m14 0a1 1 0 1 1 0 2 1 1 0 0 1 0-2m14 0a1 1 0 1 1 0 2 1 1 0 0 1 0-2m14 0a1 1 0 1 1 0 2 1 1 0 0 1 0-2m14 0a1 1 0 1 1 0 2 1 1 0 0 1 0-2m14 0a1 1 0 1 1 0 2 1 1 0 0 1 0-2m14 0a1 1 0 1 1 0 2 1 1 0 0 1 0-2m14 0a1 1 0 1 1 0 2 1 1 0 0 1 0-2m14 0a1 1 0 1 1 0 2 1 1 0 0 1 0-2m14 0a1 1 0 1 1 0 2 1 1 0 0 1 0-2m14 0a1 1 0 1 1 0 2 1 1 0 0 1 0-2m14 0a1 1 0 1 1 0 2 1 1 0 0 1 0-2m14 0a1 1 0 1 1 0 2 1 1 0 0 1 0-2m14 0a1 1 0 1 1 0 2 1 1 0 0 1 0-2m14 0a1 1 0 1 1 0 2 1 1 0 0 1 0-2m14 0a1 1 0 1 1 0 2 1 1 0 0 1 0-2m14 0a1 1 0 1 1 0 2 1 1 0 0 1 0-2m14 0a1 1 0 1 1 0 2 1 1 0 0 1 0-2m14 0a1 1 0 1 1 0 2 1 1 0 0 1 0-2m14 0a1 1 0 1 1 0 2 1 1 0 0 1 0-2m14 0a1 1 0 1 1 0 2 1 1 0 0 1 0-2m14 0a1 1 0 1 1 0 2 1 1 0 0 1 0-2m14 0a1 1 0 1 1 0 2 1 1 0 0 1 0-2m14 0a1 1 0 1 1 0 2 1 1 0 0 1 0-2m14 0a1 1 0 1 1 0 2 1 1 0 0 1 0-2M-11 23a1 1 0 1 1 0 2 1 1 0 0 1 0-2m14 0a1 1 0 1 1 0 2 1 1 0 0 1 0-2m14 0a1 1 0 1 1 0 2 1 1 0 0 1 0-2m14 0a1 1 0 1 1 0 2 1 1 0 0 1 0-2m14 0a1 1 0 1 1 0 2 1 1 0 0 1 0-2m14 0a1 1 0 1 1 0 2 1 1 0 0 1 0-2m14 0a1 1 0 1 1 0 2 1 1 0 0 1 0-2m14 0a1 1 0 1 1 0 2 1 1 0 0 1 0-2m14 0a1 1 0 1 1 0 2 1 1 0 0 1 0-2m14 0a1 1 0 1 1 0 2 1 1 0 0 1 0-2m14 0a1 1 0 1 1 0 2 1 1 0 0 1 0-2m14 0a1 1 0 1 1 0 2 1 1 0 0 1 0-2m14 0a1 1 0 1 1 0 2 1 1 0 0 1 0-2m14 0a1 1 0 1 1 0 2 1 1 0 0 1 0-2m14 0a1 1 0 1 1 0 2 1 1 0 0 1 0-2m14 0a1 1 0 1 1 0 2 1 1 0 0 1 0-2m14 0a1 1 0 1 1 0 2 1 1 0 0 1 0-2m14 0a1 1 0 1 1 0 2 1 1 0 0 1 0-2m14 0a1 1 0 1 1 0 2 1 1 0 0 1 0-2m14 0a1 1 0 1 1 0 2 1 1 0 0 1 0-2m14 0a1 1 0 1 1 0 2 1 1 0 0 1 0-2m14 0a1 1 0 1 1 0 2 1 1 0 0 1 0-2m14 0a1 1 0 1 1 0 2 1 1 0 0 1 0-2m14 0a1 1 0 1 1 0 2 1 1 0 0 1 0-2m14 0a1 1 0 1 1 0 2 1 1 0 0 1 0-2m14 0a1 1 0 1 1 0 2 1 1 0 0 1 0-2m14 0a1 1 0 1 1 0 2 1 1 0 0 1 0-2m14 0a1 1 0 1 1 0 2 1 1 0 0 1 0-2m14 0a1 1 0 1 1 0 2 1 1 0 0 1 0-2m14 0a1 1 0 1 1 0 2 1 1 0 0 1 0-2m14 0a1 1 0 1 1 0 2 1 1 0 0 1 0-2m14 0a1 1 0 1 1 0 2 1 1 0 0 1 0-2m14 0a1 1 0 1 1 0 2 1 1 0 0 1 0-2m14 0a1 1 0 1 1 0 2 1 1 0 0 1 0-2m14 0a1 1 0 1 1 0 2 1 1 0 0 1 0-2m14 0a1 1 0 1 1 0 2 1 1 0 0 1 0-2m14 0a1 1 0 1 1 0 2 1 1 0 0 1 0-2m14 0a1 1 0 1 1 0 2 1 1 0 0 1 0-2m14 0a1 1 0 1 1 0 2 1 1 0 0 1 0-2m14 0a1 1 0 1 1 0 2 1 1 0 0 1 0-2m14 0a1 1 0 1 1 0 2 1 1 0 0 1 0-2m14 0a1 1 0 1 1 0 2 1 1 0 0 1 0-2m14 0a1 1 0 1 1 0 2 1 1 0 0 1 0-2m14 0a1 1 0 1 1 0 2 1 1 0 0 1 0-2m14 0a1 1 0 1 1 0 2 1 1 0 0 1 0-2m14 0a1 1 0 1 1 0 2 1 1 0 0 1 0-2m14 0a1 1 0 1 1 0 2 1 1 0 0 1 0-2m14 0a1 1 0 1 1 0 2 1 1 0 0 1 0-2m14 0a1 1 0 1 1 0 2 1 1 0 0 1 0-2m14 0a1 1 0 1 1 0 2 1 1 0 0 1 0-2m14 0a1 1 0 1 1 0 2 1 1 0 0 1 0-2m14 0a1 1 0 1 1 0 2 1 1 0 0 1 0-2m14 0a1 1 0 1 1 0 2 1 1 0 0 1 0-2M-11 9a1 1 0 1 1 0 2 1 1 0 0 1 0-2M3 9a1 1 0 1 1 0 2 1 1 0 0 1 0-2m14 0a1 1 0 1 1 0 2 1 1 0 0 1 0-2m14 0a1 1 0 1 1 0 2 1 1 0 0 1 0-2m14 0a1 1 0 1 1 0 2 1 1 0 0 1 0-2m14 0a1 1 0 1 1 0 2 1 1 0 0 1 0-2m14 0a1 1 0 1 1 0 2 1 1 0 0 1 0-2m14 0a1 1 0 1 1 0 2 1 1 0 0 1 0-2m14 0a1 1 0 1 1 0 2 1 1 0 0 1 0-2m14 0a1 1 0 1 1 0 2 1 1 0 0 1 0-2m14 0a1 1 0 1 1 0 2 1 1 0 0 1 0-2m14 0a1 1 0 1 1 0 2 1 1 0 0 1 0-2m14 0a1 1 0 1 1 0 2 1 1 0 0 1 0-2m14 0a1 1 0 1 1 0 2 1 1 0 0 1 0-2m14 0a1 1 0 1 1 0 2 1 1 0 0 1 0-2m14 0a1 1 0 1 1 0 2 1 1 0 0 1 0-2m14 0a1 1 0 1 1 0 2 1 1 0 0 1 0-2m14 0a1 1 0 1 1 0 2 1 1 0 0 1 0-2m14 0a1 1 0 1 1 0 2 1 1 0 0 1 0-2m14 0a1 1 0 1 1 0 2 1 1 0 0 1 0-2m14 0a1 1 0 1 1 0 2 1 1 0 0 1 0-2m14 0a1 1 0 1 1 0 2 1 1 0 0 1 0-2m14 0a1 1 0 1 1 0 2 1 1 0 0 1 0-2m14 0a1 1 0 1 1 0 2 1 1 0 0 1 0-2m14 0a1 1 0 1 1 0 2 1 1 0 0 1 0-2m14 0a1 1 0 1 1 0 2 1 1 0 0 1 0-2m14 0a1 1 0 1 1 0 2 1 1 0 0 1 0-2m14 0a1 1 0 1 1 0 2 1 1 0 0 1 0-2m14 0a1 1 0 1 1 0 2 1 1 0 0 1 0-2m14 0a1 1 0 1 1 0 2 1 1 0 0 1 0-2m14 0a1 1 0 1 1 0 2 1 1 0 0 1 0-2m14 0a1 1 0 1 1 0 2 1 1 0 0 1 0-2m14 0a1 1 0 1 1 0 2 1 1 0 0 1 0-2m14 0a1 1 0 1 1 0 2 1 1 0 0 1 0-2m14 0a1 1 0 1 1 0 2 1 1 0 0 1 0-2m14 0a1 1 0 1 1 0 2 1 1 0 0 1 0-2m14 0a1 1 0 1 1 0 2 1 1 0 0 1 0-2m14 0a1 1 0 1 1 0 2 1 1 0 0 1 0-2m14 0a1 1 0 1 1 0 2 1 1 0 0 1 0-2m14 0a1 1 0 1 1 0 2 1 1 0 0 1 0-2m14 0a1 1 0 1 1 0 2 1 1 0 0 1 0-2m14 0a1 1 0 1 1 0 2 1 1 0 0 1 0-2m14 0a1 1 0 1 1 0 2 1 1 0 0 1 0-2m14 0a1 1 0 1 1 0 2 1 1 0 0 1 0-2m14 0a1 1 0 1 1 0 2 1 1 0 0 1 0-2m14 0a1 1 0 1 1 0 2 1 1 0 0 1 0-2m14 0a1 1 0 1 1 0 2 1 1 0 0 1 0-2m14 0a1 1 0 1 1 0 2 1 1 0 0 1 0-2m14 0a1 1 0 1 1 0 2 1 1 0 0 1 0-2m14 0a1 1 0 1 1 0 2 1 1 0 0 1 0-2m14 0a1 1 0 1 1 0 2 1 1 0 0 1 0-2m14 0a1 1 0 1 1 0 2 1 1 0 0 1 0-2m14 0a1 1 0 1 1 0 2 1 1 0 0 1 0-2M-11-5a1 1 0 1 1 0 2 1 1 0 0 1 0-2M3-5a1 1 0 1 1 0 2 1 1 0 0 1 0-2m14 0a1 1 0 1 1 0 2 1 1 0 0 1 0-2m14 0a1 1 0 1 1 0 2 1 1 0 0 1 0-2m14 0a1 1 0 1 1 0 2 1 1 0 0 1 0-2m14 0a1 1 0 1 1 0 2 1 1 0 0 1 0-2m14 0a1 1 0 1 1 0 2 1 1 0 0 1 0-2m14 0a1 1 0 1 1 0 2 1 1 0 0 1 0-2m14 0a1 1 0 1 1 0 2 1 1 0 0 1 0-2m14 0a1 1 0 1 1 0 2 1 1 0 0 1 0-2m14 0a1 1 0 1 1 0 2 1 1 0 0 1 0-2m14 0a1 1 0 1 1 0 2 1 1 0 0 1 0-2m14 0a1 1 0 1 1 0 2 1 1 0 0 1 0-2m14 0a1 1 0 1 1 0 2 1 1 0 0 1 0-2m14 0a1 1 0 1 1 0 2 1 1 0 0 1 0-2m14 0a1 1 0 1 1 0 2 1 1 0 0 1 0-2m14 0a1 1 0 1 1 0 2 1 1 0 0 1 0-2m14 0a1 1 0 1 1 0 2 1 1 0 0 1 0-2m14 0a1 1 0 1 1 0 2 1 1 0 0 1 0-2m14 0a1 1 0 1 1 0 2 1 1 0 0 1 0-2m14 0a1 1 0 1 1 0 2 1 1 0 0 1 0-2m14 0a1 1 0 1 1 0 2 1 1 0 0 1 0-2m14 0a1 1 0 1 1 0 2 1 1 0 0 1 0-2m14 0a1 1 0 1 1 0 2 1 1 0 0 1 0-2m14 0a1 1 0 1 1 0 2 1 1 0 0 1 0-2m14 0a1 1 0 1 1 0 2 1 1 0 0 1 0-2m14 0a1 1 0 1 1 0 2 1 1 0 0 1 0-2m14 0a1 1 0 1 1 0 2 1 1 0 0 1 0-2m14 0a1 1 0 1 1 0 2 1 1 0 0 1 0-2m14 0a1 1 0 1 1 0 2 1 1 0 0 1 0-2m14 0a1 1 0 1 1 0 2 1 1 0 0 1 0-2m14 0a1 1 0 1 1 0 2 1 1 0 0 1 0-2m14 0a1 1 0 1 1 0 2 1 1 0 0 1 0-2m14 0a1 1 0 1 1 0 2 1 1 0 0 1 0-2m14 0a1 1 0 1 1 0 2 1 1 0 0 1 0-2m14 0a1 1 0 1 1 0 2 1 1 0 0 1 0-2m14 0a1 1 0 1 1 0 2 1 1 0 0 1 0-2m14 0a1 1 0 1 1 0 2 1 1 0 0 1 0-2m14 0a1 1 0 1 1 0 2 1 1 0 0 1 0-2m14 0a1 1 0 1 1 0 2 1 1 0 0 1 0-2m14 0a1 1 0 1 1 0 2 1 1 0 0 1 0-2m14 0a1 1 0 1 1 0 2 1 1 0 0 1 0-2m14 0a1 1 0 1 1 0 2 1 1 0 0 1 0-2m14 0a1 1 0 1 1 0 2 1 1 0 0 1 0-2m14 0a1 1 0 1 1 0 2 1 1 0 0 1 0-2m14 0a1 1 0 1 1 0 2 1 1 0 0 1 0-2m14 0a1 1 0 1 1 0 2 1 1 0 0 1 0-2m14 0a1 1 0 1 1 0 2 1 1 0 0 1 0-2m14 0a1 1 0 1 1 0 2 1 1 0 0 1 0-2m14 0a1 1 0 1 1 0 2 1 1 0 0 1 0-2m14 0a1 1 0 1 1 0 2 1 1 0 0 1 0-2m14 0a1 1 0 1 1 0 2 1 1 0 0 1 0-2m14 0a1 1 0 1 1 0 2 1 1 0 0 1 0-2"/></g><rect width="187.5" height="77.5" x="148.25" y="54.25" fill="#ebecfb" rx="3.75"/><rect width="187.5" height="77.5" x="148.25" y="54.25" stroke="#3d50f5" stroke-dasharray="6 6" stroke-width=".5" rx="3.75"/><rect width="40.5" height="15.5" x="160.25" y="46.25" fill="#0f1c8a" rx="1.75"/><rect width="40.5" height="15.5" x="160.25" y="46.25" stroke="#3d50f5" stroke-width=".5" rx="1.75"/><path fill="#fff" d="M168.67 52.727a.97.97 0 0 0-.419-.725q-.366-.26-.952-.26-.412 0-.707.125a1.05 1.05 0 0 0-.451.338.82.82 0 0 0-.159.486q0 .228.103.394a.9.9 0 0 0 .287.284q.182.114.401.192t.444.132l.682.17q.412.096.792.26.384.162.685.411.306.249.483.6.178.353.178.824 0 .64-.327 1.126-.326.483-.944.756-.615.27-1.488.27-.849 0-1.474-.263a2.2 2.2 0 0 1-.973-.767q-.348-.504-.376-1.228h1.296q.029.38.234.632t.536.376q.334.124.746.124.43 0 .753-.128.327-.13.511-.362a.87.87 0 0 0 .188-.547.7.7 0 0 0-.166-.468 1.2 1.2 0 0 0-.459-.313 4.4 4.4 0 0 0-.681-.227l-.828-.213q-.898-.23-1.42-.7-.519-.472-.519-1.253 0-.643.348-1.126.352-.483.956-.75.603-.27 1.367-.27.774 0 1.356.27.587.267.92.743.334.472.345 1.087zm4.899 5.38q-.82 0-1.416-.341-.594-.345-.913-.973-.32-.633-.32-1.488 0-.842.32-1.478.323-.639.902-.994.579-.359 1.36-.359.504 0 .952.164.45.16.795.497.348.337.547.86.2.518.199 1.235v.394h-4.471v-.866h3.239a1.4 1.4 0 0 0-.16-.657 1.16 1.16 0 0 0-.437-.458 1.23 1.23 0 0 0-.646-.167q-.395 0-.693.192a1.3 1.3 0 0 0-.465.497 1.44 1.44 0 0 0-.167.67v.757q0 .477.174.817.174.338.487.519.312.177.731.177.28 0 .508-.078.228-.082.394-.238a1 1 0 0 0 .252-.387l1.201.135a1.9 1.9 0 0 1-.434.83q-.315.353-.809.548a3.1 3.1 0 0 1-1.13.191m3.513-.107v-5.455h1.247v.91h.057a1.36 1.36 0 0 1 1.346-.988q.107 0 .237.011.135.007.224.025v1.182a1.3 1.3 0 0 0-.259-.05 2.4 2.4 0 0 0-.337-.024q-.352 0-.633.153-.276.148-.436.415-.16.266-.16.614V58zm9.003-5.455L184.143 58h-1.421l-1.942-5.455h1.371l1.253 4.052h.057l1.257-4.052zm3.119 5.561q-.82 0-1.417-.34a2.3 2.3 0 0 1-.912-.973q-.32-.633-.32-1.488 0-.842.32-1.478.323-.639.902-.994.579-.359 1.36-.359.504 0 .951.164.451.16.796.497.348.337.547.86.199.518.199 1.235v.394h-4.471v-.866h3.238a1.4 1.4 0 0 0-.159-.657 1.17 1.17 0 0 0-.437-.458 1.23 1.23 0 0 0-.647-.167q-.393 0-.692.192a1.3 1.3 0 0 0-.465.497 1.4 1.4 0 0 0-.167.67v.757q0 .477.174.817.174.338.486.519.314.177.732.177.28 0 .508-.078a1.1 1.1 0 0 0 .394-.238 1 1 0 0 0 .252-.387l1.2.135q-.113.476-.433.83-.316.353-.81.548a3.1 3.1 0 0 1-1.129.191m3.513-.106v-5.455h1.247v.91h.056q.15-.473.512-.728.366-.26.834-.26.107 0 .238.011.135.007.224.025v1.182a1.4 1.4 0 0 0-.259-.05 2.4 2.4 0 0 0-.338-.024q-.351 0-.632.153-.276.148-.437.415a1.2 1.2 0 0 0-.159.614V58z"/><rect width="163" height="55" x="160.5" y="66.5" fill="#fff" rx="9.5"/><rect width="163" height="55" x="160.5" y="66.5" stroke="#3d50f5" rx="9.5"/><rect width="30" height="30" x="172" y="79" fill="#cfd4fc" rx="4"/><path fill="#0f1c8a" d="M186.492 84.834a8.6 8.6 0 0 0-4.446 1.233 2.1 2.1 0 0 0-1.322-.469 2.11 2.11 0 0 0-2.102 2.102c.001.482.168.945.465 1.314a8.6 8.6 0 0 0-1.253 4.478.502.502 0 1 0 1.004 0c0-1.416.385-2.736 1.053-3.872.262.114.543.18.832.181a2.11 2.11 0 0 0 2.102-2.101 2.1 2.1 0 0 0-.176-.826 7.6 7.6 0 0 1 3.843-1.036.5.5 0 0 0 .47-.309.5.5 0 0 0 0-.387.5.5 0 0 0-.276-.272.5.5 0 0 0-.194-.037m-5.768 1.768c.338 0 .641.144.85.406l.01.012a1.096 1.096 0 0 1-1.547 1.533 1.1 1.1 0 0 1-.41-.854 1.09 1.09 0 0 1 1.097-1.097"/><path fill="#0f1c8a" fill-rule="evenodd" d="M181.67 90.724a.46.46 0 0 0-.129.348c.005.117.052.23.133.316.39.393 1.159 1.159 1.159 1.159l.679-.678-1.156-1.155a.47.47 0 0 0-.345-.133.47.47 0 0 0-.341.143m1.842 1.145-2.099 2.1a.583.583 0 0 0 0 .824l1.04 1.04 1.819 1.82 1.746 1.746a.583.583 0 0 0 .825 0l1.42-1.42 2.172-2.173 2.1-2.099a.584.584 0 0 0-.001-.825l-1.067-1.067-1.819-1.82-1.719-1.718a.584.584 0 0 0-.825 0l-1.42 1.42zm2.172-2.172-1.156-1.156a.47.47 0 0 0-.345-.133.467.467 0 0 0-.47.492c.005.117.052.23.134.316.389.393 1.158 1.159 1.158 1.159zm3.964.299 1.156-1.156a.48.48 0 0 0 .133-.345.47.47 0 0 0-.492-.47.5.5 0 0 0-.316.133c-.393.39-1.159 1.16-1.159 1.16zm1.819 1.819 1.156-1.156a.48.48 0 0 0 .133-.344.47.47 0 0 0-.492-.471.5.5 0 0 0-.316.134c-.393.39-1.159 1.158-1.159 1.158zm-1.032 3.991 1.156 1.156a.47.47 0 0 0 .345.133.47.47 0 0 0 .471-.492.5.5 0 0 0-.134-.316c-.39-.393-1.159-1.159-1.159-1.159zm-2.172 2.172 1.156 1.156a.47.47 0 0 0 .345.133.467.467 0 0 0 .47-.492.5.5 0 0 0-.134-.316c-.389-.393-1.158-1.158-1.158-1.158zm-3.991-.325-1.156 1.156a.48.48 0 0 0-.133.344.47.47 0 0 0 .492.47.5.5 0 0 0 .316-.133c.393-.39 1.159-1.159 1.159-1.159zm-1.819-1.82-1.156 1.156a.48.48 0 0 0-.133.345.467.467 0 0 0 .492.47.5.5 0 0 0 .316-.133c.393-.39 1.158-1.159 1.158-1.159zm4.998-5.188a.5.5 0 0 1 .36-.15.45.45 0 0 1 .262.087l.945.693a.46.46 0 0 1 .128.59.5.5 0 0 1-.57.254l.351 1.372a.5.5 0 0 1-.343.59l-2.558.782.473 1.826a.5.5 0 0 1-.342.597.45.45 0 0 1-.576-.316l-.589-2.278a.5.5 0 0 1 .342-.592l2.559-.782-.236-.923a.484.484 0 0 1-.607.1.455.455 0 0 1-.171-.575l.465-1.114a.5.5 0 0 1 .107-.16" clip-rule="evenodd"/><path fill="#0f1c8a" d="M187.509 103.167a8.6 8.6 0 0 0 4.447-1.234c.37.301.836.469 1.321.469a2.11 2.11 0 0 0 2.102-2.101 2.1 2.1 0 0 0-.464-1.314 8.6 8.6 0 0 0 1.252-4.478.5.5 0 0 0-.308-.47.503.503 0 0 0-.696.47 7.6 7.6 0 0 1-1.053 3.871 2.1 2.1 0 0 0-.832-.18 2.11 2.11 0 0 0-2.102 2.101c0 .286.065.565.176.825a7.6 7.6 0 0 1-3.843 1.036.5.5 0 0 0-.359.145.51.51 0 0 0 0 .715.5.5 0 0 0 .359.145m5.769-1.769c-.339 0-.642-.144-.85-.405l-.011-.013a1.1 1.1 0 0 1-.237-.679 1.09 1.09 0 0 1 1.097-1.097 1.1 1.1 0 0 1 1.098 1.097 1.09 1.09 0 0 1-1.097 1.097"/><path fill="#17181c" d="M207.517 84.481v-1.435h7.543v1.435h-2.922V92.5h-1.699v-8.019zm10.595 3.864V92.5h-1.671v-9.454h1.634v3.568h.083q.249-.6.771-.946.526-.351 1.339-.351.738 0 1.288.31.549.308.849.904.305.596.305 1.454V92.5h-1.671v-4.256q0-.716-.37-1.113-.364-.402-1.024-.402-.444 0-.795.194-.345.19-.544.55-.195.36-.194.872m6.301 4.155v-7.09h1.672v7.09zm.841-8.097a.98.98 0 0 1-.684-.263.85.85 0 0 1-.286-.642q0-.378.286-.642a.97.97 0 0 1 .684-.268q.4 0 .683.268.286.264.286.642 0 .374-.286.642a.97.97 0 0 1-.683.263m4.22 3.942V92.5h-1.671v-7.09h1.597v1.204h.083q.246-.596.781-.946.54-.351 1.334-.351.733 0 1.279.314.549.313.849.91.305.594.3 1.444V92.5h-1.671v-4.256q0-.711-.369-1.113-.366-.402-1.011-.402-.44 0-.781.194-.336.19-.531.55-.189.36-.189.872m9.335 6.962q-.9 0-1.547-.245-.646-.24-1.039-.646a2.24 2.24 0 0 1-.544-.9l1.505-.365q.101.207.295.41.194.21.522.342.332.14.835.139.711 0 1.178-.346.465-.342.466-1.127v-1.343h-.083q-.13.259-.379.53-.245.273-.651.458-.4.184-1.011.184a2.9 2.9 0 0 1-1.482-.383q-.66-.387-1.052-1.154-.388-.77-.388-1.93 0-1.167.388-1.97.392-.81 1.057-1.224.665-.42 1.482-.42.623 0 1.025.212.406.208.646.503.24.29.365.55h.092v-1.173h1.648v7.206q0 .91-.434 1.505a2.6 2.6 0 0 1-1.186.891q-.753.296-1.708.296m.014-4.22q.53 0 .904-.258.375-.258.568-.743.194-.485.194-1.164 0-.67-.194-1.172a1.67 1.67 0 0 0-.563-.78q-.369-.282-.909-.282-.56 0-.933.29-.374.291-.563.8a3.2 3.2 0 0 0-.189 1.144q0 .651.189 1.14.193.485.568.758.378.267.928.267m10.631-3.804-1.523.167a1.2 1.2 0 0 0-.226-.434 1.1 1.1 0 0 0-.425-.328 1.55 1.55 0 0 0-.656-.125q-.521 0-.877.226-.35.227-.346.587a.61.61 0 0 0 .226.503q.236.194.776.318l1.209.259q1.007.217 1.496.688.494.471.499 1.232-.004.67-.393 1.182-.383.508-1.066.794-.684.286-1.57.286-1.301 0-2.096-.544-.793-.55-.946-1.528l1.63-.157q.11.48.47.724.361.245.938.245.595 0 .955-.245.365-.244.365-.604a.63.63 0 0 0-.236-.503q-.23-.199-.72-.305l-1.209-.254q-1.02-.212-1.51-.716-.49-.507-.485-1.283a1.82 1.82 0 0 1 .356-1.136q.364-.484 1.011-.747.651-.268 1.5-.268 1.246 0 1.962.53.72.532.891 1.436m1.605 5.217v-9.454h3.619q1.025 0 1.703.323.684.318 1.021.872.34.554.341 1.256 0 .577-.221.988a1.9 1.9 0 0 1-.596.66q-.374.254-.836.365v.092q.504.027.965.31.466.276.762.784.295.508.295 1.228 0 .735-.355 1.32-.356.582-1.071.919t-1.8.337zm1.712-1.431h1.842q.933 0 1.344-.356.415-.36.415-.923a1.41 1.41 0 0 0-.799-1.293 1.96 1.96 0 0 0-.914-.198h-1.888zm0-4.003h1.694q.444 0 .799-.161a1.35 1.35 0 0 0 .559-.466 1.25 1.25 0 0 0 .207-.72q0-.55-.387-.905-.384-.356-1.141-.356h-1.731zm9.851 5.572q-1.04 0-1.801-.457a3.1 3.1 0 0 1-1.182-1.278q-.415-.822-.415-1.92 0-1.1.415-1.926.42-.825 1.182-1.283t1.801-.457q1.038 0 1.8.457t1.177 1.283q.42.827.42 1.925 0 1.1-.42 1.92a3.07 3.07 0 0 1-1.177 1.28q-.762.456-1.8.456m.009-1.338q.563 0 .942-.31.378-.314.563-.84a3.5 3.5 0 0 0 .189-1.172q0-.651-.189-1.178a1.87 1.87 0 0 0-.563-.844q-.38-.315-.942-.314-.577 0-.96.314-.38.313-.568.844-.185.527-.185 1.178 0 .645.185 1.172.189.526.568.84.382.31.96.31m6.847 1.343a3 3 0 0 1-1.214-.24 2 2 0 0 1-.849-.72q-.31-.475-.31-1.173 0-.6.222-.992.221-.393.605-.628.383-.235.863-.356a7 7 0 0 1 1.002-.18 40 40 0 0 0 1.011-.115q.387-.055.563-.166.18-.116.18-.356v-.027q0-.522-.309-.808t-.891-.287q-.615 0-.974.268-.356.269-.48.633l-1.561-.222q.184-.645.61-1.08.425-.439 1.038-.656.615-.22 1.358-.221.512 0 1.02.12t.928.397a2 2 0 0 1 .674.743q.258.47.258 1.177V92.5h-1.606v-.974h-.056a2.02 2.02 0 0 1-1.117.965 2.8 2.8 0 0 1-.965.152m.434-1.228q.504 0 .873-.198.369-.203.568-.536.203-.332.203-.725v-.835a.8.8 0 0 1-.268.12q-.185.055-.416.097-.23.04-.457.074l-.392.055q-.374.052-.669.166a1.1 1.1 0 0 0-.467.323.8.8 0 0 0-.17.527q0 .461.337.697.336.235.858.235m4.991 1.085v-7.09h1.62v1.18h.074q.194-.613.665-.946a1.83 1.83 0 0 1 1.085-.337q.138 0 .309.014.175.01.291.033v1.537a2 2 0 0 0-.337-.065 3 3 0 0 0-.439-.032 1.7 1.7 0 0 0-.822.199q-.36.193-.567.54-.208.346-.208.798V92.5zm7.493.125a2.7 2.7 0 0 1-1.495-.43q-.66-.429-1.044-1.246-.383-.818-.383-1.985 0-1.182.388-1.995.392-.816 1.057-1.232.664-.42 1.482-.42.623 0 1.025.212.402.208.637.503.235.29.365.55h.069v-3.536h1.676V92.5h-1.644v-1.117h-.101a3 3 0 0 1-.374.55q-.245.285-.647.488-.4.204-1.011.204m.467-1.371q.53 0 .904-.287.375-.29.568-.808a3.4 3.4 0 0 0 .194-1.205q0-.687-.194-1.195a1.7 1.7 0 0 0-.563-.79q-.369-.28-.909-.281-.56 0-.933.29a1.76 1.76 0 0 0-.563.804 3.4 3.4 0 0 0-.189 1.172q0 .666.189 1.187.193.517.568.817.378.296.928.296"/><path fill="#555962" d="M207.879 97.5h1.465l2.547 6.219h.093l2.547-6.219h1.465v8h-1.148v-5.79h-.075l-2.359 5.778h-.953l-2.359-5.781h-.075v5.793h-1.148zm12.306 8.121q-.844 0-1.473-.387a2.6 2.6 0 0 1-.977-1.082q-.347-.695-.347-1.625 0-.933.347-1.632a2.6 2.6 0 0 1 .977-1.086q.629-.387 1.473-.387.843 0 1.472.387a2.6 2.6 0 0 1 .977 1.086q.347.699.347 1.632 0 .93-.347 1.625a2.6 2.6 0 0 1-.977 1.082q-.629.387-1.472.387m.003-.98q.547 0 .907-.289.358-.29.531-.77.176-.48.176-1.059 0-.573-.176-1.054a1.73 1.73 0 0 0-.531-.778q-.36-.293-.907-.293-.55 0-.914.293a1.75 1.75 0 0 0-.535.778q-.172.48-.172 1.054 0 .579.172 1.059.176.48.535.77.364.288.914.289m5.265-2.704v3.563h-1.168v-6h1.121v.977h.074q.207-.477.649-.766.445-.29 1.121-.29.613 0 1.074.259.462.254.715.757.254.504.254 1.247v3.816h-1.168v-3.676q0-.653-.34-1.019-.34-.372-.933-.371-.406 0-.723.175a1.27 1.27 0 0 0-.496.516 1.7 1.7 0 0 0-.18.812m7.934 3.684q-.844 0-1.473-.387a2.6 2.6 0 0 1-.976-1.082q-.348-.695-.348-1.625 0-.933.348-1.632.347-.7.976-1.086t1.473-.387q.843 0 1.472.387.63.385.977 1.086.348.699.348 1.632 0 .93-.348 1.625a2.6 2.6 0 0 1-.977 1.082q-.629.387-1.472.387m.004-.98q.546 0 .906-.289.36-.29.531-.77.176-.48.176-1.059 0-.573-.176-1.054a1.7 1.7 0 0 0-.531-.778q-.36-.293-.906-.293-.552 0-.914.293-.36.294-.536.778-.171.48-.171 1.054 0 .579.171 1.059.177.48.536.77.362.288.914.289m5.264-7.141v8h-1.168v-8zm1.572 8v-6h1.168v6zm.589-6.926a.74.74 0 0 1-.523-.203.66.66 0 0 1-.215-.492q0-.29.215-.492a.73.73 0 0 1 .523-.207.72.72 0 0 1 .52.207q.219.203.219.492 0 .285-.219.492a.73.73 0 0 1-.52.203m4.951.926v.937h-3.278V99.5zm-2.399-1.437h1.168v5.675q0 .34.102.512a.52.52 0 0 0 .261.23q.165.06.356.059.141 0 .246-.019l.164-.032.211.965a2 2 0 0 1-.289.078 2.2 2.2 0 0 1-.469.047 2.05 2.05 0 0 1-.859-.164 1.5 1.5 0 0 1-.645-.531q-.246-.36-.246-.903zm4.987 3.874v3.563h-1.167v-8h1.152v2.977h.074q.212-.485.645-.77t1.132-.285q.617 0 1.079.254.464.254.718.758.258.5.258 1.25v3.816h-1.168v-3.676q0-.66-.34-1.023-.339-.367-.945-.367-.414 0-.742.175a1.27 1.27 0 0 0-.512.516 1.7 1.7 0 0 0-.184.812"/><rect width="187.5" height="141.5" x="384.25" y="22.25" fill="#ecf8e8" rx="3.75"/><rect width="187.5" height="141.5" x="384.25" y="22.25" stroke="#4fdf0c" stroke-dasharray="6 6" stroke-width=".5" rx="3.75"/><rect width="69.5" height="15.5" x="396.25" y="14.25" fill="#28650b" rx="1.75"/><rect width="69.5" height="15.5" x="396.25" y="14.25" stroke="#4fdf0c" stroke-width=".5" rx="1.75"/><path fill="#fff" d="M400.717 18.727h1.613l2.159 5.27h.085l2.159-5.27h1.612V26h-1.264v-4.996h-.068l-2.009 4.975h-.945l-2.01-4.986h-.067V26h-1.265zm10.576 7.383q-.519 0-.934-.185a1.5 1.5 0 0 1-.654-.554q-.238-.365-.238-.901 0-.462.171-.764a1.3 1.3 0 0 1 .465-.483q.295-.18.664-.273.373-.096.771-.139.478-.05.777-.089.299-.041.434-.128.138-.088.138-.273V22.3q0-.402-.238-.622-.237-.22-.685-.22-.472 0-.75.206-.273.206-.369.487l-1.2-.17q.142-.498.469-.832.326-.338.799-.504.472-.17 1.044-.17.394 0 .784.092.392.092.714.305.324.21.519.572.199.362.199.905V26h-1.236v-.75h-.043a1.57 1.57 0 0 1-.859.743 2.1 2.1 0 0 1-.742.117m.333-.944q.387 0 .672-.153.284-.157.436-.412.157-.255.157-.558v-.642a.6.6 0 0 1-.206.092 3 3 0 0 1-.32.075q-.178.031-.352.056l-.301.043a2.2 2.2 0 0 0-.515.128.86.86 0 0 0-.359.248.6.6 0 0 0-.131.405q0 .356.259.536.26.181.66.181m5.125-2.362V26h-1.286v-5.454h1.229v.926h.064q.187-.458.6-.728.416-.27 1.026-.27.566 0 .984.242.423.24.653.7.235.457.231 1.111V26h-1.285v-3.274q0-.547-.284-.856-.281-.309-.778-.309-.337 0-.6.15a1.04 1.04 0 0 0-.409.422 1.4 1.4 0 0 0-.145.671m6.378 3.306q-.519 0-.934-.185a1.5 1.5 0 0 1-.654-.554q-.238-.365-.238-.901 0-.462.171-.764a1.3 1.3 0 0 1 .465-.483q.295-.18.664-.273.373-.096.771-.139.478-.05.777-.089.299-.041.434-.128.138-.088.138-.273V22.3q0-.402-.238-.622t-.685-.22q-.473 0-.75.206-.273.206-.369.487l-1.2-.17q.142-.498.469-.832.326-.338.799-.504.471-.17 1.044-.17.394 0 .784.092.392.092.714.305.323.21.519.572.199.362.199.905V26h-1.236v-.75h-.043a1.57 1.57 0 0 1-.859.743 2.1 2.1 0 0 1-.742.117m.333-.944q.387 0 .672-.153.284-.157.436-.412.156-.255.157-.558v-.642a.6.6 0 0 1-.206.092 3 3 0 0 1-.32.075q-.178.031-.352.056l-.301.043a2.2 2.2 0 0 0-.515.128.86.86 0 0 0-.359.248.6.6 0 0 0-.131.405q0 .356.259.536.26.181.66.181m6.211 2.993q-.692 0-1.189-.188a2.1 2.1 0 0 1-.799-.497 1.7 1.7 0 0 1-.419-.693l1.157-.28q.078.16.228.316.149.16.401.262.256.108.643.107.546 0 .905-.266.359-.263.359-.867V25.02h-.064a1.8 1.8 0 0 1-.291.408 1.5 1.5 0 0 1-.501.352q-.309.142-.778.142-.628 0-1.14-.295a2.1 2.1 0 0 1-.809-.888q-.299-.593-.299-1.484 0-.898.299-1.516.302-.622.813-.941a2.1 2.1 0 0 1 1.14-.324q.479 0 .788.164.313.159.497.387.185.224.281.422h.071v-.901h1.268v5.543q0 .7-.334 1.157a2 2 0 0 1-.913.686 3.6 3.6 0 0 1-1.314.227m.011-3.246q.408 0 .696-.198.287-.2.437-.572.149-.373.149-.895 0-.515-.149-.902a1.3 1.3 0 0 0-.433-.6 1.12 1.12 0 0 0-.7-.217q-.43 0-.717.224-.288.224-.434.614a2.5 2.5 0 0 0-.145.88q0 .502.145.878.15.373.437.582.291.207.714.206m6.282 1.194q-.82 0-1.417-.341-.593-.345-.913-.973-.32-.633-.319-1.488 0-.842.319-1.478a2.4 2.4 0 0 1 .902-.994q.58-.359 1.36-.359.505 0 .952.164.451.16.796.497.348.337.546.86.2.518.199 1.235v.394h-4.471v-.866h3.239a1.4 1.4 0 0 0-.16-.657 1.15 1.15 0 0 0-.437-.458 1.23 1.23 0 0 0-.646-.167 1.25 1.25 0 0 0-.692.192 1.3 1.3 0 0 0-.465.497 1.4 1.4 0 0 0-.167.67v.757q0 .477.174.817.174.338.486.519.312.177.732.177.28 0 .507-.078.228-.082.395-.238a1 1 0 0 0 .252-.387l1.2.135q-.114.476-.433.83a2.1 2.1 0 0 1-.81.548 3.1 3.1 0 0 1-1.129.192m5.537-.011q-.642 0-1.151-.33-.508-.33-.802-.96-.295-.627-.295-1.526 0-.91.298-1.534.303-.63.814-.948a2.1 2.1 0 0 1 1.14-.324q.479 0 .788.164.309.159.49.387.181.224.281.422h.053v-2.72h1.289V26h-1.264v-.86h-.078a2.3 2.3 0 0 1-.288.423 1.6 1.6 0 0 1-.497.377q-.309.156-.778.156m.359-1.055q.408 0 .696-.22.287-.224.436-.621.15-.399.15-.927 0-.53-.15-.92a1.3 1.3 0 0 0-.433-.607 1.12 1.12 0 0 0-.699-.217q-.43 0-.718.224a1.36 1.36 0 0 0-.433.618 2.6 2.6 0 0 0-.145.902q0 .51.145.912.15.398.437.629.291.227.714.227m8.917.959h-2.464v-7.273h2.514q1.084 0 1.861.437.781.433 1.2 1.246.42.814.419 1.947 0 1.136-.422 1.953-.42.816-1.211 1.253-.789.437-1.897.437m-1.147-1.14h1.084q.76 0 1.267-.277.508-.28.764-.834.255-.558.255-1.392 0-.835-.255-1.385a1.75 1.75 0 0 0-.757-.828q-.497-.276-1.235-.277h-1.123zm5.929 1.14v-7.273h2.784q.789 0 1.311.249.526.245.784.671.263.426.263.966 0 .445-.17.76a1.44 1.44 0 0 1-.458.508 2 2 0 0 1-.643.28v.071q.387.021.742.238.358.213.586.604.227.39.227.944 0 .565-.273 1.016-.274.447-.824.707t-1.385.259zm1.318-1.1h1.416q.718 0 1.034-.274a.9.9 0 0 0 .319-.71 1.09 1.09 0 0 0-.614-.995 1.5 1.5 0 0 0-.703-.152h-1.452zm0-3.08h1.303q.34 0 .614-.124.273-.128.43-.359a.96.96 0 0 0 .16-.554q0-.422-.299-.696-.295-.273-.877-.273h-1.331z"/><rect width="163" height="55" x="396.5" y="34.5" fill="#fff" rx="9.5"/><rect width="163" height="55" x="396.5" y="34.5" stroke="#4fdf0c" rx="9.5"/><rect width="30" height="30" x="408" y="47" fill="#defbd0" rx="4"/><g clip-path="url(#c)"><path fill="#28650b" d="M429.199 58.262c.044-.287.085-.56.091-.863-.721-.089-1.549-.068-1.875.399-.636.908.605 3.134 1.135 4.084.136.245.235.42.28.53q.076.183.162.333c.364-.776.27-1.562.178-2.326-.045-.378-.092-.769-.08-1.145.012-.386.062-.705.109-1.013m-.607-.177a.63.63 0 0 1-.352.192l-.065.005c-.249 0-.464-.195-.482-.32-.02-.153.227-.268.483-.304q.085-.012.165-.011c.221 0 .368.065.382.17.01.069-.042.174-.131.268m-2.54-5.636a8 8 0 0 1 1.776-.168c1.767.04 3.165.7 4.155 1.965.759.97-.077 5.384-2.497 9.191l-.073-.092-.031-.039c.625-1.032.503-2.054.394-2.96-.044-.371-.087-.722-.076-1.052.011-.35.058-.65.102-.94.055-.357.111-.727.096-1.162a.5.5 0 0 0 .01-.164c-.039-.418-.517-1.668-1.489-2.8a6.7 6.7 0 0 0-2.367-1.78m-6.69 11.107q.104.109.216.205c-.298.32-.947 1.026-1.637 1.857-.489.588-.827.475-.938.438-.723-.241-1.562-1.77-2.301-4.193-.64-2.097-1.015-4.206-1.044-4.797-.094-1.87.36-3.173 1.347-3.874 1.607-1.14 4.25-.457 5.311-.111l-.046.044c-1.742 1.76-1.701 4.766-1.696 4.95q0 .103.014.31c.029.505.085 1.446-.064 2.512-.138.99.167 1.96.838 2.66m9.737.38c-.346.1-.965.33-.909 1.48-.045.575-.369 3.274-.534 4.228-.217 1.26-.681 1.73-1.984 2.009-1.352.29-1.83-.4-2.145-1.188-.204-.51-.304-2.804-.233-5.338a.3.3 0 0 0-.013-.097 1 1 0 0 0-.038-.18c-.105-.368-.363-.676-.671-.804a1.1 1.1 0 0 0-.422-.1.8.8 0 0 0-.196.024c.058-.237.158-.505.266-.795l.045-.123q.08-.206.184-.431c.367-.816.87-1.933.324-4.457-.204-.946-.887-1.407-1.922-1.3-.62.064-1.188.315-1.471.458q-.091.046-.169.09c.078-.951.375-2.728 1.493-3.857.703-.71 1.64-1.061 2.782-1.042 2.248.036 3.69 1.19 4.503 2.151.701.829 1.081 1.663 1.232 2.113-1.139-.116-1.914.11-2.307.67-.854 1.222.468 3.593 1.103 4.733.117.209.217.389.249.466.207.501.475.836.67 1.08.06.075.118.148.163.21m-6.443 1.083c.025.087.054.253-.039.382-.464.65-1.103.98-1.9.98-.262 0-.54-.036-.826-.108a1.4 1.4 0 0 1-.408-.175 2 2 0 0 1 .434-.13c1.105-.227 1.275-.387 1.648-.86.085-.109.182-.232.317-.382q.152-.17.268-.17a.5.5 0 0 1 .188.053c.134.056.265.224.318.41m9.512-.38.014-.002c-.17.158-.459.37-.869.56-.353.165-.944.287-1.505.314-.619.029-.935-.07-1.009-.13-.035-.716.232-.79.514-.87q.067-.019.129-.04.04.033.086.063c.498.329 1.386.364 2.64.106m-10.52-1.678.045-.121c.059-.157.127-.309.199-.47.351-.78.788-1.75.285-4.077-.098-.45-.332-.711-.715-.799-.842-.193-2.021.44-2.276.665l.011.19c.031.526.089 1.506-.068 2.632a2.57 2.57 0 0 0 .673 2.153c.426.443.984.689 1.559.69.066-.27.173-.556.287-.863m-.792-4.702c-.039-.052-.104-.153-.091-.245.019-.134.18-.215.433-.215q.084 0 .172.013c.272.037.553.166.526.36-.02.147-.253.364-.531.364l-.073-.005a.7.7 0 0 1-.436-.272m12.765 5.985c-.091-.412-.464-.893-1.216-.893-.151 0-.314.019-.5.057q-.537.111-.948.137c.957-1.643 1.728-3.492 2.175-5.222.414-1.602.727-3.742-.131-4.838-1.261-1.612-3.106-2.463-5.334-2.463-1.256 0-2.281.28-2.592.375a10 10 0 0 0-1.677-.143c-.991 0-1.879.225-2.64.669-.693-.232-2.031-.608-3.424-.608-1.568 0-2.803.462-3.67 1.374-.96 1.01-1.397 2.516-1.299 4.478.041.823.515 3.282 1.194 5.417 1.049 3.299 2.204 4.835 3.635 4.835.448 0 .873-.157 1.265-.467.344.375.843.544 1.117.613.389.097.773.147 1.141.147.491 0 .954-.086 1.377-.256l.008.258.016.518c.045 1.115.121 1.983.348 2.595.012.032.028.081.045.134.099.304.249.762.593 1.179.454.548 1.101.838 1.87.838.246 0 .51-.03.783-.088.827-.177 1.767-.448 2.45-1.42.641-.913.952-2.278 1.008-4.427l.025-.211.119.01q.115.004.232.004c.803 0 1.692-.172 2.266-.438.477-.222 2.014-1.032 1.764-2.164m-2.051 1.507c-.494.23-1.28.374-1.962.374-.327 0-.63-.033-.865-.106-.111 1.022-.348 2.93-.485 3.73-.258 1.494-.924 2.172-2.458 2.5q-.392.084-.714.082c-1.471 0-1.936-1.164-2.126-1.64-.233-.581-.314-2.49-.297-4.427-.528.478-1.19.728-1.946.728-.311 0-.639-.043-.974-.127-.097-.024-.947-.252-.936-.795.01-.498.72-.644.987-.699.939-.193 1-.27 1.291-.64q.088-.113.213-.264l-.003-.033a2.7 2.7 0 0 1-1.207-.324c-.253.27-.941 1.012-1.678 1.898-.444.534-.87.69-1.218.69a1.2 1.2 0 0 1-.382-.063c-.953-.318-1.859-1.863-2.692-4.594-.633-2.074-1.035-4.24-1.07-4.944-.104-2.093.436-3.575 1.605-4.403 2.095-1.484 5.479-.345 6.217-.068.728-.496 1.607-.74 2.626-.724.555.01 1.065.08 1.533.197.222-.097 1.368-.444 2.723-.43 1.972.022 3.601.782 4.711 2.2.749.958.255 3.289.007 4.246-.514 1.992-1.467 4.126-2.627 5.892.176.13.71.343 2.201.035.502-.104.805-.013.899.271.181.55-.819 1.181-1.373 1.438"/></g><path fill="#17181c" d="M443.933 67v-9.455h3.545q1.09 0 1.828.407.744.406 1.122 1.117.383.705.383 1.606 0 .91-.383 1.616-.384.706-1.131 1.113-.749.4-1.842.401h-2.35v-1.408h2.119q.638 0 1.043-.221.406-.222.601-.61.198-.387.198-.89 0-.504-.198-.887a1.35 1.35 0 0 0-.605-.596q-.406-.216-1.048-.216h-1.57V67zm11.283.138q-1.038 0-1.8-.457a3.1 3.1 0 0 1-1.182-1.278q-.415-.822-.415-1.92 0-1.1.415-1.926.42-.826 1.182-1.283t1.8-.457q1.04 0 1.801.457.762.456 1.177 1.283.42.827.42 1.925 0 1.1-.42 1.92a3.07 3.07 0 0 1-1.177 1.28q-.762.456-1.801.456m.01-1.338q.563 0 .941-.31.379-.314.564-.84a3.5 3.5 0 0 0 .189-1.172q0-.651-.189-1.178a1.87 1.87 0 0 0-.564-.844q-.378-.315-.941-.314-.577 0-.961.314-.378.313-.567.844-.186.527-.185 1.178 0 .645.185 1.172.189.526.567.84.384.31.961.31m10.411-4.017-1.524.167a1.2 1.2 0 0 0-.226-.434 1.1 1.1 0 0 0-.424-.328 1.55 1.55 0 0 0-.656-.125q-.522 0-.877.226-.35.227-.346.587a.61.61 0 0 0 .226.503q.235.194.775.318l1.21.259q1.006.217 1.496.688.494.471.498 1.232a1.93 1.93 0 0 1-.392 1.182q-.383.508-1.067.794-.682.286-1.569.286-1.302 0-2.096-.544-.794-.55-.946-1.528l1.629-.157q.111.48.471.724.36.245.937.245.596 0 .956-.245.365-.244.365-.604a.63.63 0 0 0-.236-.503q-.231-.199-.72-.305l-1.21-.254q-1.02-.213-1.509-.716-.49-.507-.485-1.283a1.8 1.8 0 0 1 .356-1.136q.364-.484 1.011-.748.651-.267 1.5-.267 1.247 0 1.962.53.72.532.891 1.436m5.071-1.874v1.293h-4.076v-1.293zm-3.07-1.699h1.671v6.657q0 .337.102.517a.55.55 0 0 0 .277.24q.171.065.378.065.157 0 .287-.023.134-.024.203-.042l.281 1.307q-.134.045-.383.101a3 3 0 0 1-.6.065 2.7 2.7 0 0 1-1.131-.19 1.76 1.76 0 0 1-.799-.655q-.29-.443-.286-1.108zm7.475 11.597q-.9 0-1.546-.245-.646-.24-1.039-.646a2.25 2.25 0 0 1-.545-.9l1.505-.365q.102.207.296.41.194.21.521.342.333.14.836.139.71 0 1.177-.346.467-.342.467-1.127v-1.343h-.084q-.129.259-.378.53-.245.273-.651.458-.402.184-1.011.184a2.9 2.9 0 0 1-1.482-.383q-.66-.387-1.052-1.154-.388-.77-.388-1.93 0-1.167.388-1.97.392-.81 1.057-1.224.665-.42 1.482-.42.623 0 1.024.212.407.208.647.503.24.29.364.55h.093v-1.173h1.648v7.206q0 .91-.434 1.505a2.6 2.6 0 0 1-1.187.891q-.752.296-1.708.296m.014-4.22q.531 0 .905-.258t.568-.743.194-1.164q0-.67-.194-1.172a1.67 1.67 0 0 0-.563-.78q-.37-.282-.91-.282-.558 0-.932.29-.374.291-.564.8a3.2 3.2 0 0 0-.189 1.144q0 .651.189 1.14.195.485.568.758.38.267.928.267M480.155 67v-7.09h1.62v1.18h.074q.194-.612.665-.946a1.83 1.83 0 0 1 1.084-.337q.14 0 .31.014.175.01.291.033v1.537a2 2 0 0 0-.337-.065 3 3 0 0 0-.439-.032 1.7 1.7 0 0 0-.822.199 1.46 1.46 0 0 0-.775 1.338V67zm8.001.138q-1.067 0-1.842-.443a3 3 0 0 1-1.186-1.265q-.416-.82-.416-1.934 0-1.095.416-1.92.42-.831 1.172-1.293.753-.466 1.768-.466.656 0 1.238.212.585.208 1.034.646.452.439.711 1.118.258.674.258 1.606v.513h-5.812v-1.127h4.21a1.8 1.8 0 0 0-.208-.854 1.5 1.5 0 0 0-.567-.595 1.6 1.6 0 0 0-.841-.217 1.63 1.63 0 0 0-.9.249q-.387.244-.605.646a1.9 1.9 0 0 0-.217.873v.983q0 .618.227 1.062.226.438.632.674.406.23.951.23.365 0 .66-.1a1.5 1.5 0 0 0 .513-.31q.216-.203.328-.503l1.56.175a2.44 2.44 0 0 1-.563 1.08 2.75 2.75 0 0 1-1.053.711q-.642.25-1.468.25m9.779-6.994a1.26 1.26 0 0 0-.545-.941q-.475-.337-1.237-.337-.535 0-.919.161a1.36 1.36 0 0 0-.586.439 1.07 1.07 0 0 0-.208.632q0 .296.134.513.138.216.374.37.236.146.522.248t.577.171l.886.222q.535.124 1.03.337.498.212.891.535.397.324.627.78.231.457.231 1.072 0 .83-.424 1.463-.426.628-1.228.983-.8.351-1.935.351-1.103 0-1.916-.341-.808-.341-1.264-.998-.453-.656-.49-1.597h1.685q.037.494.305.822.267.327.697.49.434.16.969.16.56 0 .979-.166.425-.17.665-.47.24-.305.245-.711a.9.9 0 0 0-.217-.61 1.6 1.6 0 0 0-.596-.406 6 6 0 0 0-.886-.295l-1.076-.277q-1.168-.3-1.847-.91-.674-.614-.674-1.63 0-.834.453-1.463a3 3 0 0 1 1.242-.974q.784-.35 1.777-.35 1.007 0 1.764.35.761.345 1.195.965.435.614.448 1.413zm6.827 3.68h1.551l.918 1.19.656.776 1.574 2.022h-1.662l-1.071-1.357-.457-.646zm4.925-1.551q0 1.527-.572 2.617-.569 1.086-1.551 1.662-.98.577-2.221.577t-2.225-.577q-.978-.582-1.551-1.666-.568-1.09-.568-2.613 0-1.529.568-2.613.573-1.09 1.551-1.667.984-.577 2.225-.577t2.221.577q.982.577 1.551 1.667.572 1.084.572 2.613m-1.722 0q0-1.075-.337-1.815-.332-.743-.923-1.121a2.45 2.45 0 0 0-1.362-.384q-.771 0-1.362.384-.59.378-.928 1.121-.332.74-.332 1.815t.332 1.819q.337.738.928 1.121a2.47 2.47 0 0 0 1.362.379 2.47 2.47 0 0 0 1.362-.379q.591-.383.923-1.121.337-.743.337-1.82M511.319 67v-9.455h1.713v8.02h4.164V67z"/><rect width="163" height="55" x="396.5" y="98.5" fill="#fff" rx="9.5"/><rect width="163" height="55" x="396.5" y="98.5" stroke="#4fdf0c" stroke-dasharray="6 6" rx="9.5"/><rect width="30" height="30" x="408" y="111" fill="#defbd0" rx="4"/><path fill="#28650b" d="M428.053 120.991c-.003.003-.229.233-.358.372-.333.365-.842.895-1.2 1.028h-.003l-.147-.047.645-1.303-.007.011c-.022.039-.659 1.296-1.526 1.114l-.003.003c-.015-.003-.025 0-.036-.003.415-.53.577-1.021.577-1.021s-.691 1.114-1.551.813a.08.08 0 0 1-.043-.043.13.13 0 0 1 0-.072c.007-.039.036-.086.061-.129.086-.161.237-.34.237-.34s-.143.139-.337.272l-.004.003c-.143.097-.314.19-.476.216a.6.6 0 0 1-.151 0c-.196-.036-.193-.229-.139-.419.057-.186.161-.365.161-.365s-.176.272-.365.537a2.3 2.3 0 0 1-.38.433l-.11.003c-.058-.161.089-.691.089-.694a4 4 0 0 1-.287.408 1.5 1.5 0 0 1-.311.308h-.025a4 4 0 0 0-.219.029.18.18 0 0 1-.057-.115c-.039-.246.111-.694.115-.698-.003.003-.086.236-.193.458v.004c-.029.064-.065.111-.1.165-.079.125-.161.222-.237.201-.118-.036-.186-.187-.225-.326a1.4 1.4 0 0 1-.054-.276s-.029.233-.107.448a.8.8 0 0 1-.133.24c-.021.024-.054.035-.079.05-.824.147-1.629.383-2.399.702-.205.075-.409.147-.62.236-.687.294-1.4.663-2.145 1.142a20 20 0 0 0-2.349 1.783c-.408.362-.831.753-1.26 1.182 3.262-1.754 4.554-4.347 10.663-4.576 4.623-.175 6.782 1.959 7.498 1.988 1.79.075 2.983-1.282 3.366-1.784.1-.129.161-.218.165-.225a5.4 5.4 0 0 1-.712.663l-.007.003c-.423.323-.964.623-1.443.552h-.004c-.061-.011-.125-.007-.186-.033.68-.397 1.131-1.088 1.357-1.461.071-.115.215-.329.215-.329s-1.6 1.64-2.793 1.529c-.05-.003-.097.007-.143-.003.519-.409.903-.957 1.171-1.419v-.003h.003c.29-.501.441-.903.441-.91-.004.007-.297.455-.702.949l-.007.011c-.405.494-.916 1.028-1.343 1.192-.064.021-.129.057-.186.065.992-.881 1.411-2.127 1.411-2.127s-1.007 1.461-1.859 1.729c-.05.015-.103.044-.157.051.522-.469.798-.845.97-1.139.219-.368.258-.595.258-.595l-.004.004a9 9 0 0 1-.251.304l-.014.015a9.4 9.4 0 0 1-.956.988l-.004.004a5 5 0 0 1-.293.229c-.029.018-.057.043-.083.061a2 2 0 0 1-.251.125c-.021.007-.039.021-.061.029-.061-.043-.118-.086-.186-.125-.044.053-.09.107-.129.161h-.004c-.018-.004-.039-.004-.057-.015.788-.856 1.321-1.941 1.321-1.941l-.006.004c-.007.007-1.093 1.475-1.583 1.565a3 3 0 0 0-.197-.093.5.5 0 0 1 .039-.151c.111-.258.427-.655.427-.655l-.115.086a4 4 0 0 1-.276.219c-.053.039-.107.068-.157.1-.061.036-.118.072-.176.097a.6.6 0 0 1-.239.079c-.04 0-.075-.003-.101-.025.415-.254 1.124-1.493 1.132-1.5zm-4.394 1.983a18 18 0 0 0-.834.007c-.265.011-.505.029-.752.05a3.2 3.2 0 0 0-.72.423.38.38 0 0 1-.011.326l.812.59.022-.014-.333-1.16.573 1.024.057-.021-.018-1.132.365 1.067.433-1.056.018 1.164q.005.006.011.007l.652-.921-.333 1.117.007.007.956-.634-.694.964v.006l.87-.311c.011-.018.029-.029.039-.047-.215-.264.029-.651.362-.577.107-.225.193-.462.247-.705q-.86-.149-1.726-.175zm-2.295.125h-.021c-.279.033-.555.072-.817.115q-.394.065-.755.147h-.011c.104.358.269.695.483.992.1-.218.226-.423.369-.608a.4.4 0 0 1 .522-.509c.072-.054.154-.089.229-.136zm4.086.083a3 3 0 0 1-.147.759c.265.24.05.676-.301.623a3 3 0 0 1-.505.576l.605.033-.909.215c-.025.018-.044.039-.068.054a2.95 2.95 0 0 1 1.41.633 3.63 3.63 0 0 0 .462-1.779c0-.491-.218-.849-.544-1.114zm-5.79.207a14 14 0 0 0-.78.211 1.36 1.36 0 0 0-.193.695c0 1.49.888 2.764 2.159 3.337l.003-.011a2.9 2.9 0 0 1-.533-.723c-.587.082-.838-.724-.308-.989-.05-.43-.007-.863.129-1.275a2.9 2.9 0 0 1-.476-1.246zm6.993.026c.13.376.208.77.208 1.185 0 2.234-2.02 4.05-4.512 4.05-2.489 0-4.508-1.816-4.508-4.05q.002-.327.057-.637c-.712.301-1.328.648-1.902 1.02-.196.355-.293.727-.261 1.099.079.903.874 1.654 2.087 2.167l-.236-.062c-2.098-.594-3.763.459-5.586-.454.423.333.903.659 2.288.663.473 0 1.98-.075 2.259.172.276.24-.938 1.386-.938 1.386s2.055-1.74 2.252-1.146c.125.368-.587 1.353-.587 1.353s.716-.97 1.25-1.178c.365-.143.673-.125.938.243.172.24-.835 1.422-.835 1.422s1.354-1.318 1.594-1.25c.243.068 0 1.25 0 1.25s.501-1.196.767-1.286c.365-.121-.835 2.779-.835 2.779s1.464-2.682 1.737-2.743c.469-.104.78 1.873.78 1.873s-.229-1.73.018-1.841c1.554-.701.658 2.987.658 2.987s1.017-2.503.394-3.058c1.648 1.092 1.447 3.058 1.447 3.058s.43-.934-.785-3.237c.659-.032 1.651 1.712 1.651 1.712s-1.078-1.908-.347-1.944c1.446-.068 1.594 2.535 1.594 2.535s.436-.365-.727-2.915c.741-.476 2.531 2.356 2.531 2.356s-1.65-2.764-1.386-2.95c.265-.183 1.236.88 1.236.88s-.738-1.016-.545-1.12c.197-.104 2.167 2.023 2.167 2.023s-1.737-2.08-1.437-2.338c.301-.255 1.572.72 1.572.72s-1.955-1.283-1.572-1.483c.53-.275 2.048.659 2.048.659s-.913-.752-.762-.934c.151-.187 1.944 1.178 1.944 1.178s-1.586-1.25-1.668-1.561c-.079-.312 1.25.104 1.25.104s-1.468-.681-1.49-.878c-.025-.196.97.219.97.219s-1.364-1.121-1.701-.208c-.075.147-.172.276-.258.412.083-.247.122-.498.1-.752a1.5 1.5 0 0 0-.05-.254c-.623-.337-1.558-.856-2.871-1.225zm-5.342.415a.39.39 0 0 1-.466.151c-.05.068-.092.139-.136.211l1.171.429c.011-.011.018-.024.029-.039zm-.606.362c-.086.143-.165.29-.222.451.111.115.24.215.362.311l.845-.025.003-.003zm3.839.497-.555.423.05.004q.274-.183.505-.427m-4.157.265q-.001.016-.007.032a2.6 2.6 0 0 0-.043.881.52.52 0 0 1 .411.433l.86-.551c-.079-.029-.158-.054-.229-.086l-.963-.072.583-.129a3 3 0 0 1-.612-.509zm.726.193c.13.079.258.147.394.208l.108-.025.003-.05zm2.862.627.841.824-1.099-.426.645.988-.985-.762-.011.003.319 1.175-.548-1.043-.085 1.218-.373-1.214-.43 1.156.104-1.246-.014-.007-.745 1.056.272-1.017a3 3 0 0 0-.726 1.092q.13.138.275.265a3.65 3.65 0 0 0 3.989-1.55 3.1 3.1 0 0 0-1.153-.494zm-2.231.205-.989.354c0 .018.007.033.007.047a.53.53 0 0 1-.168.387q.14.3.343.562c.075-.204.176-.397.294-.58l-.272.219zm3.33 2.556c-.172.044-.34.09-.515.125.175-.035.343-.082.515-.125m-.999.215c-.104.018-.207.043-.311.057-.187.029-.358.039-.537.057q.435-.044.848-.114m-1.239.157c-.101.007-.197.004-.297.011.103-.007.196-.003.297-.011"/><path fill="#17181c" d="M452.025 118.235h-1.726a2.2 2.2 0 0 0-.273-.752 2 2 0 0 0-1.168-.909 2.6 2.6 0 0 0-.808-.121q-.77 0-1.366.388-.596.384-.933 1.127-.337.738-.337 1.805 0 1.084.337 1.828.342.738.933 1.117a2.5 2.5 0 0 0 1.362.374q.425 0 .794-.111a2.2 2.2 0 0 0 .669-.337q.3-.221.503-.545.208-.323.287-.738l1.726.009a3.7 3.7 0 0 1-.42 1.265 3.7 3.7 0 0 1-.835 1.043 3.8 3.8 0 0 1-1.21.702 4.5 4.5 0 0 1-1.537.249q-1.247 0-2.225-.577-.98-.577-1.542-1.666-.564-1.09-.564-2.613 0-1.529.568-2.613.568-1.09 1.547-1.667.978-.576 2.216-.577a4.7 4.7 0 0 1 1.468.222q.678.221 1.209.651.531.425.873 1.043.346.614.452 1.403m3.535 6.408a3 3 0 0 1-1.214-.24 2 2 0 0 1-.849-.72q-.31-.475-.31-1.173 0-.6.222-.992.221-.393.605-.628.383-.236.863-.356a7 7 0 0 1 1.002-.18q.622-.064 1.011-.115.387-.055.563-.166.18-.116.18-.356v-.027q0-.522-.309-.808t-.891-.286q-.615 0-.974.267-.356.269-.48.633l-1.561-.222a2.5 2.5 0 0 1 .61-1.08 2.66 2.66 0 0 1 1.038-.656q.615-.22 1.358-.221.512 0 1.02.12.507.12.928.397.42.272.674.743.258.47.258 1.177v4.746h-1.606v-.974h-.056a2.02 2.02 0 0 1-1.117.965 2.8 2.8 0 0 1-.965.152m.434-1.228q.504 0 .873-.198.369-.203.568-.536.203-.332.203-.725v-.835a.8.8 0 0 1-.268.12 4 4 0 0 1-.416.097q-.23.04-.457.074l-.392.055a3 3 0 0 0-.669.166 1.1 1.1 0 0 0-.467.323.8.8 0 0 0-.17.527q0 .461.337.697.336.235.858.235m10.595-4.132-1.523.167a1.2 1.2 0 0 0-.227-.434 1.1 1.1 0 0 0-.424-.328 1.55 1.55 0 0 0-.656-.125q-.522 0-.877.226-.35.227-.346.587a.61.61 0 0 0 .226.503q.235.193.776.318l1.209.259q1.007.217 1.496.688.493.471.498 1.232a1.92 1.92 0 0 1-.392 1.182q-.383.508-1.066.794-.684.286-1.57.286-1.302 0-2.096-.544-.794-.55-.946-1.528l1.629-.157q.111.48.471.725.36.244.937.244.596 0 .956-.244.365-.246.365-.605a.63.63 0 0 0-.236-.503q-.231-.199-.72-.305l-1.209-.254q-1.021-.212-1.51-.716-.49-.507-.485-1.283a1.82 1.82 0 0 1 .356-1.136q.364-.484 1.011-.747.651-.268 1.5-.268 1.247 0 1.962.531.72.53.891 1.435m7.135 0-1.524.167a1.2 1.2 0 0 0-.226-.434 1.1 1.1 0 0 0-.425-.328 1.55 1.55 0 0 0-.655-.125q-.522 0-.877.226-.351.227-.346.587a.61.61 0 0 0 .226.503q.235.193.775.318l1.21.259q1.006.217 1.496.688.494.471.498 1.232a1.93 1.93 0 0 1-.392 1.182q-.383.508-1.067.794-.682.286-1.569.286-1.302 0-2.096-.544-.794-.55-.947-1.528l1.63-.157q.111.48.471.725.36.244.937.244.596 0 .956-.244.364-.246.364-.605a.63.63 0 0 0-.235-.503q-.231-.199-.72-.305l-1.21-.254q-1.02-.212-1.509-.716-.49-.507-.485-1.283a1.82 1.82 0 0 1 .355-1.136q.366-.484 1.011-.747.651-.268 1.501-.268 1.247 0 1.962.531.72.53.891 1.435m3.571 5.36q-.675 0-1.214-.24a2 2 0 0 1-.85-.72q-.309-.475-.309-1.173 0-.6.221-.992.222-.393.605-.628.383-.236.863-.356a7 7 0 0 1 1.002-.18 38 38 0 0 0 1.011-.115q.388-.055.563-.166.18-.116.18-.356v-.027q0-.522-.309-.808t-.891-.286q-.614 0-.974.267-.356.269-.48.633l-1.56-.222q.185-.647.609-1.08a2.66 2.66 0 0 1 1.039-.656 4 4 0 0 1 1.357-.221q.513 0 1.02.12.508.12.928.397.42.272.674.743.259.47.259 1.177v4.746h-1.607v-.974h-.055a2 2 0 0 1-.43.554 2.1 2.1 0 0 1-.688.411 2.8 2.8 0 0 1-.964.152m.434-1.228q.503 0 .872-.198a1.47 1.47 0 0 0 .568-.536q.203-.332.203-.725v-.835a.8.8 0 0 1-.268.12 4 4 0 0 1-.415.097q-.23.04-.457.074l-.393.055a3 3 0 0 0-.669.166 1.1 1.1 0 0 0-.466.323.8.8 0 0 0-.171.527q0 .461.337.697t.859.235m6.661-3.07v4.155h-1.671v-7.091h1.597v1.205h.083q.246-.595.781-.946.54-.351 1.334-.351.733 0 1.279.314.549.313.849.909.304.596.3 1.445v4.515h-1.671v-4.256q0-.711-.369-1.113-.366-.402-1.011-.402-.44 0-.781.194-.336.19-.531.55-.189.36-.189.872m8.882 4.28a2.7 2.7 0 0 1-1.495-.43q-.66-.429-1.044-1.246-.383-.818-.383-1.985 0-1.182.388-1.995.392-.816 1.057-1.232.664-.42 1.482-.42.623 0 1.025.212.402.208.637.503.235.29.365.55h.069v-3.537h1.676v9.455h-1.644v-1.117h-.101a3 3 0 0 1-.374.549 2.1 2.1 0 0 1-.647.49q-.4.203-1.011.203m.467-1.371q.53 0 .904-.287.375-.29.568-.808.194-.516.194-1.204 0-.689-.194-1.196a1.7 1.7 0 0 0-.563-.79q-.369-.28-.909-.281-.56 0-.933.291a1.76 1.76 0 0 0-.563.803 3.4 3.4 0 0 0-.189 1.173q0 .664.189 1.186.193.517.568.817.378.296.928.296m5.09 1.246v-7.091h1.621v1.182h.074q.193-.614.664-.946a1.83 1.83 0 0 1 1.085-.337q.14 0 .31.013.175.01.29.033v1.537a2 2 0 0 0-.337-.065 3 3 0 0 0-.438-.032q-.458 0-.822.199-.36.193-.568.54-.207.346-.207.798v4.169zm7.068.143a3 3 0 0 1-1.214-.24 2 2 0 0 1-.849-.72q-.31-.475-.31-1.173 0-.6.222-.992.221-.393.605-.628.383-.236.863-.356a7 7 0 0 1 1.002-.18q.622-.064 1.011-.115.387-.055.563-.166.18-.116.18-.356v-.027q0-.522-.309-.808-.31-.286-.891-.286-.615 0-.974.267-.356.269-.48.633l-1.561-.222a2.5 2.5 0 0 1 .61-1.08 2.66 2.66 0 0 1 1.038-.656q.615-.22 1.357-.221.513 0 1.021.12t.928.397q.42.272.674.743.258.47.258 1.177v4.746h-1.606v-.974h-.056a2.02 2.02 0 0 1-1.117.965 2.8 2.8 0 0 1-.965.152m.434-1.228q.503 0 .873-.198.369-.203.567-.536.204-.332.204-.725v-.835a.8.8 0 0 1-.268.12 4 4 0 0 1-.416.097q-.23.04-.457.074l-.392.055a3 3 0 0 0-.669.166 1.1 1.1 0 0 0-.467.323.8.8 0 0 0-.171.527q0 .461.337.697t.859.235"/><path fill="#555962" d="M450.828 133.5q0 1.281-.469 2.203a3.44 3.44 0 0 1-1.285 1.414q-.812.492-1.847.492-1.04 0-1.856-.492-.813-.496-1.281-1.418-.47-.921-.469-2.199 0-1.281.469-2.199.468-.922 1.281-1.414.816-.496 1.856-.496 1.035 0 1.847.496.816.492 1.285 1.414.47.918.469 2.199m-1.195 0q0-.976-.317-1.645-.312-.671-.859-1.015a2.23 2.23 0 0 0-1.23-.348 2.24 2.24 0 0 0-1.235.348q-.543.344-.859 1.015-.313.669-.313 1.645 0 .977.313 1.648.316.668.859 1.016.543.344 1.235.344.687 0 1.23-.344.547-.347.859-1.016.317-.671.317-1.648m2.606 6.25v-8.25h1.141v.973h.098q.1-.188.293-.434.19-.246.531-.43.34-.187.898-.187.727 0 1.297.367.57.368.895 1.059.327.691.328 1.664 0 .972-.324 1.668-.325.691-.891 1.066a2.3 2.3 0 0 1-1.293.371q-.547 0-.895-.183a1.7 1.7 0 0 1-.539-.43q-.195-.246-.3-.438h-.071v3.184zm1.145-5.25q0 .633.183 1.109.184.477.532.746.347.266.851.266.524 0 .875-.277.352-.282.531-.762.184-.48.184-1.082 0-.594-.18-1.066a1.6 1.6 0 0 0-.531-.746q-.351-.274-.879-.274-.508 0-.859.262a1.6 1.6 0 0 0-.528.73 3.1 3.1 0 0 0-.179 1.094m8.445-3v.937h-3.277v-.937zm-2.398-1.438h1.168v5.676q0 .34.101.512a.53.53 0 0 0 .262.23q.164.06.355.059.141 0 .246-.019l.165-.032.21.965a2 2 0 0 1-.289.078 2.2 2.2 0 0 1-.468.047 2.1 2.1 0 0 1-.86-.164 1.5 1.5 0 0 1-.644-.531q-.246-.36-.246-.903zm3.69 7.438v-6h1.168v6zm.59-6.926a.74.74 0 0 1-.523-.203.66.66 0 0 1-.215-.492q0-.29.215-.492a.73.73 0 0 1 .523-.207.72.72 0 0 1 .519.207.65.65 0 0 1 .219.492q0 .285-.219.492a.73.73 0 0 1-.519.203m4.677 7.047q-.844 0-1.473-.387a2.6 2.6 0 0 1-.977-1.082q-.347-.695-.347-1.625 0-.933.347-1.632.348-.7.977-1.086.628-.387 1.473-.387.843 0 1.472.387.63.386.977 1.086.348.699.348 1.632 0 .93-.348 1.625a2.6 2.6 0 0 1-.977 1.082q-.629.387-1.472.387m.004-.98q.546 0 .906-.289.36-.29.531-.77.176-.48.176-1.059 0-.573-.176-1.054a1.7 1.7 0 0 0-.531-.778q-.36-.293-.906-.293-.552 0-.914.293-.36.294-.536.778-.171.48-.171 1.054 0 .579.171 1.059.176.48.536.77.363.289.914.289m5.264-2.704v3.563h-1.168v-6h1.121v.977h.075q.207-.477.648-.766.446-.29 1.121-.289.613 0 1.074.258.462.254.715.757.254.504.254 1.247v3.816h-1.168v-3.676q0-.653-.34-1.019-.339-.371-.933-.371-.407 0-.723.175a1.27 1.27 0 0 0-.496.516 1.7 1.7 0 0 0-.18.812m7.153 3.696q-.57 0-1.032-.211a1.74 1.74 0 0 1-.73-.621q-.266-.406-.266-.996 0-.509.196-.836.195-.328.527-.52a2.8 2.8 0 0 1 .742-.289q.41-.097.836-.148l.875-.102q.336-.042.488-.137.153-.094.153-.304v-.028q0-.511-.289-.793-.286-.28-.852-.281-.59 0-.93.262a1.4 1.4 0 0 0-.464.574l-1.098-.25q.195-.547.57-.883a2.3 2.3 0 0 1 .871-.492 3.4 3.4 0 0 1 1.035-.156q.36 0 .762.086.407.082.758.304.356.223.582.637.227.41.227 1.067v3.984h-1.141v-.82h-.047a1.7 1.7 0 0 1-.34.445 1.8 1.8 0 0 1-.582.363 2.2 2.2 0 0 1-.851.145m.254-.938q.483 0 .828-.191.347-.191.527-.5a1.3 1.3 0 0 0 .184-.668v-.774a.6.6 0 0 1-.243.118 4 4 0 0 1-.402.09l-.441.066-.36.047a3 3 0 0 0-.621.144 1.1 1.1 0 0 0-.445.293q-.164.188-.164.5 0 .434.32.657.32.218.817.218m5.43-7.195v8h-1.168v-8z"/><path stroke="#555962" stroke-linecap="round" stroke-linejoin="bevel" stroke-width="1.5" d="M339.25 93h41.5"/></g><defs><clipPath id="a"><path fill="#fff" d="M0 0h720v179H0z"/></clipPath><clipPath id="b"><path fill="#fff" d="M0-7h720v314H0z"/></clipPath><clipPath id="c"><path fill="#fff" d="M412 51h22v22h-22z"/></clipPath></defs></svg>