<svg xmlns="http://www.w3.org/2000/svg" width="720" height="68" fill="none"><g clip-path="url(#a)"><path fill="#fff" d="M0 0h720v68H0z"/><g fill="#c1c3c8" clip-path="url(#b)" opacity=".5"><circle cx="3" cy="17" r="1"/><circle cx="87" cy="17" r="1"/><circle cx="73" cy="17" r="1"/><circle cx="17" cy="17" r="1"/><circle cx="101" cy="17" r="1"/><circle cx="3" cy="3" r="1"/><circle cx="87" cy="3" r="1"/><circle cx="73" cy="3" r="1"/><circle cx="17" cy="3" r="1"/><circle cx="101" cy="3" r="1"/><circle cx="3" cy="31" r="1"/><circle cx="87" cy="31" r="1"/><circle cx="73" cy="31" r="1"/><circle cx="17" cy="31" r="1"/><circle cx="101" cy="31" r="1"/><circle cx="45" cy="17" r="1"/><circle cx="129" cy="17" r="1"/><circle cx="31" cy="17" r="1"/><circle cx="115" cy="17" r="1"/><circle cx="59" cy="17" r="1"/><circle cx="143" cy="17" r="1"/><circle cx="45" cy="3" r="1"/><circle cx="129" cy="3" r="1"/><circle cx="31" cy="3" r="1"/><circle cx="115" cy="3" r="1"/><circle cx="59" cy="3" r="1"/><circle cx="143" cy="3" r="1"/><circle cx="45" cy="31" r="1"/><circle cx="129" cy="31" r="1"/><circle cx="31" cy="31" r="1"/><circle cx="115" cy="31" r="1"/><circle cx="59" cy="31" r="1"/><circle cx="143" cy="31" r="1"/><circle cx="3" cy="59" r="1"/><circle cx="87" cy="59" r="1"/><circle cx="73" cy="59" r="1"/><circle cx="17" cy="59" r="1"/><circle cx="101" cy="59" r="1"/><circle cx="3" cy="45" r="1"/><circle cx="87" cy="45" r="1"/><circle cx="73" cy="45" r="1"/><circle cx="17" cy="45" r="1"/><circle cx="101" cy="45" r="1"/><circle cx="45" cy="59" r="1"/><circle cx="129" cy="59" r="1"/><circle cx="31" cy="59" r="1"/><circle cx="115" cy="59" r="1"/><circle cx="59" cy="59" r="1"/><circle cx="143" cy="59" r="1"/><circle cx="45" cy="45" r="1"/><circle cx="129" cy="45" r="1"/><circle cx="31" cy="45" r="1"/><circle cx="115" cy="45" r="1"/><circle cx="59" cy="45" r="1"/><circle cx="143" cy="45" r="1"/><circle cx="171" cy="17" r="1"/><circle cx="255" cy="17" r="1"/><circle cx="157" cy="17" r="1"/><circle cx="241" cy="17" r="1"/><circle cx="185" cy="17" r="1"/><circle cx="269" cy="17" r="1"/><circle cx="171" cy="3" r="1"/><circle cx="255" cy="3" r="1"/><circle cx="157" cy="3" r="1"/><circle cx="241" cy="3" r="1"/><circle cx="185" cy="3" r="1"/><circle cx="269" cy="3" r="1"/><circle cx="171" cy="31" r="1"/><circle cx="255" cy="31" r="1"/><circle cx="157" cy="31" r="1"/><circle cx="241" cy="31" r="1"/><circle cx="185" cy="31" r="1"/><circle cx="269" cy="31" r="1"/><circle cx="213" cy="17" r="1"/><circle cx="297" cy="17" r="1"/><circle cx="199" cy="17" r="1"/><circle cx="283" cy="17" r="1"/><circle cx="227" cy="17" r="1"/><circle cx="311" cy="17" r="1"/><circle cx="213" cy="3" r="1"/><circle cx="297" cy="3" r="1"/><circle cx="199" cy="3" r="1"/><circle cx="283" cy="3" r="1"/><circle cx="227" cy="3" r="1"/><circle cx="311" cy="3" r="1"/><circle cx="213" cy="31" r="1"/><circle cx="297" cy="31" r="1"/><circle cx="199" cy="31" r="1"/><circle cx="283" cy="31" r="1"/><circle cx="227" cy="31" r="1"/><circle cx="311" cy="31" r="1"/><circle cx="171" cy="59" r="1"/><circle cx="255" cy="59" r="1"/><circle cx="157" cy="59" r="1"/><circle cx="241" cy="59" r="1"/><circle cx="185" cy="59" r="1"/><circle cx="269" cy="59" r="1"/><circle cx="171" cy="45" r="1"/><circle cx="255" cy="45" r="1"/><circle cx="157" cy="45" r="1"/><circle cx="241" cy="45" r="1"/><circle cx="185" cy="45" r="1"/><circle cx="269" cy="45" r="1"/><circle cx="213" cy="59" r="1"/><circle cx="297" cy="59" r="1"/><circle cx="199" cy="59" r="1"/><circle cx="283" cy="59" r="1"/><circle cx="227" cy="59" r="1"/><circle cx="311" cy="59" r="1"/><circle cx="213" cy="45" r="1"/><circle cx="297" cy="45" r="1"/><circle cx="199" cy="45" r="1"/><circle cx="283" cy="45" r="1"/><circle cx="227" cy="45" r="1"/><circle cx="311" cy="45" r="1"/><circle cx="339" cy="17" r="1"/><circle cx="423" cy="17" r="1"/><circle cx="325" cy="17" r="1"/><circle cx="409" cy="17" r="1"/><circle cx="353" cy="17" r="1"/><circle cx="437" cy="17" r="1"/><circle cx="339" cy="3" r="1"/><circle cx="423" cy="3" r="1"/><circle cx="325" cy="3" r="1"/><circle cx="409" cy="3" r="1"/><circle cx="353" cy="3" r="1"/><circle cx="437" cy="3" r="1"/><circle cx="339" cy="31" r="1"/><circle cx="423" cy="31" r="1"/><circle cx="325" cy="31" r="1"/><circle cx="409" cy="31" r="1"/><circle cx="353" cy="31" r="1"/><circle cx="437" cy="31" r="1"/><circle cx="381" cy="17" r="1"/><circle cx="465" cy="17" r="1"/><circle cx="367" cy="17" r="1"/><circle cx="451" cy="17" r="1"/><circle cx="395" cy="17" r="1"/><circle cx="479" cy="17" r="1"/><circle cx="381" cy="3" r="1"/><circle cx="465" cy="3" r="1"/><circle cx="367" cy="3" r="1"/><circle cx="451" cy="3" r="1"/><circle cx="395" cy="3" r="1"/><circle cx="479" cy="3" r="1"/><circle cx="381" cy="31" r="1"/><circle cx="465" cy="31" r="1"/><circle cx="367" cy="31" r="1"/><circle cx="451" cy="31" r="1"/><circle cx="395" cy="31" r="1"/><circle cx="479" cy="31" r="1"/><circle cx="339" cy="59" r="1"/><circle cx="423" cy="59" r="1"/><circle cx="325" cy="59" r="1"/><circle cx="409" cy="59" r="1"/><circle cx="353" cy="59" r="1"/><circle cx="437" cy="59" r="1"/><circle cx="339" cy="45" r="1"/><circle cx="423" cy="45" r="1"/><circle cx="325" cy="45" r="1"/><circle cx="409" cy="45" r="1"/><circle cx="353" cy="45" r="1"/><circle cx="437" cy="45" r="1"/><circle cx="381" cy="59" r="1"/><circle cx="465" cy="59" r="1"/><circle cx="367" cy="59" r="1"/><circle cx="451" cy="59" r="1"/><circle cx="395" cy="59" r="1"/><circle cx="479" cy="59" r="1"/><circle cx="381" cy="45" r="1"/><circle cx="465" cy="45" r="1"/><circle cx="367" cy="45" r="1"/><circle cx="451" cy="45" r="1"/><circle cx="395" cy="45" r="1"/><circle cx="479" cy="45" r="1"/><circle cx="507" cy="17" r="1"/><circle cx="591" cy="17" r="1"/><circle cx="493" cy="17" r="1"/><circle cx="577" cy="17" r="1"/><circle cx="521" cy="17" r="1"/><circle cx="605" cy="17" r="1"/><circle cx="507" cy="3" r="1"/><circle cx="591" cy="3" r="1"/><circle cx="493" cy="3" r="1"/><circle cx="577" cy="3" r="1"/><circle cx="521" cy="3" r="1"/><circle cx="605" cy="3" r="1"/><circle cx="507" cy="31" r="1"/><circle cx="591" cy="31" r="1"/><circle cx="493" cy="31" r="1"/><circle cx="577" cy="31" r="1"/><circle cx="521" cy="31" r="1"/><circle cx="605" cy="31" r="1"/><circle cx="549" cy="17" r="1"/><circle cx="633" cy="17" r="1"/><circle cx="535" cy="17" r="1"/><circle cx="619" cy="17" r="1"/><circle cx="563" cy="17" r="1"/><circle cx="647" cy="17" r="1"/><circle cx="549" cy="3" r="1"/><circle cx="633" cy="3" r="1"/><circle cx="535" cy="3" r="1"/><circle cx="619" cy="3" r="1"/><circle cx="563" cy="3" r="1"/><circle cx="647" cy="3" r="1"/><circle cx="549" cy="31" r="1"/><circle cx="633" cy="31" r="1"/><circle cx="535" cy="31" r="1"/><circle cx="619" cy="31" r="1"/><circle cx="563" cy="31" r="1"/><circle cx="647" cy="31" r="1"/><circle cx="507" cy="59" r="1"/><circle cx="591" cy="59" r="1"/><circle cx="493" cy="59" r="1"/><circle cx="577" cy="59" r="1"/><circle cx="521" cy="59" r="1"/><circle cx="605" cy="59" r="1"/><circle cx="507" cy="45" r="1"/><circle cx="591" cy="45" r="1"/><circle cx="493" cy="45" r="1"/><circle cx="577" cy="45" r="1"/><circle cx="521" cy="45" r="1"/><circle cx="605" cy="45" r="1"/><circle cx="549" cy="59" r="1"/><circle cx="633" cy="59" r="1"/><circle cx="535" cy="59" r="1"/><circle cx="619" cy="59" r="1"/><circle cx="563" cy="59" r="1"/><circle cx="647" cy="59" r="1"/><circle cx="549" cy="45" r="1"/><circle cx="633" cy="45" r="1"/><circle cx="535" cy="45" r="1"/><circle cx="619" cy="45" r="1"/><circle cx="563" cy="45" r="1"/><circle cx="647" cy="45" r="1"/><circle cx="675" cy="17" r="1"/><circle cx="661" cy="17" r="1"/><circle cx="689" cy="17" r="1"/><circle cx="675" cy="3" r="1"/><circle cx="661" cy="3" r="1"/><circle cx="689" cy="3" r="1"/><circle cx="675" cy="31" r="1"/><circle cx="661" cy="31" r="1"/><circle cx="689" cy="31" r="1"/><circle cx="675" cy="59" r="1"/><circle cx="661" cy="59" r="1"/><circle cx="689" cy="59" r="1"/><circle cx="675" cy="45" r="1"/><circle cx="661" cy="45" r="1"/><circle cx="689" cy="45" r="1"/><circle cx="703" cy="17" r="1"/><circle cx="703" cy="3" r="1"/><circle cx="703" cy="31" r="1"/><circle cx="703" cy="59" r="1"/><circle cx="703" cy="45" r="1"/><circle cx="717" cy="17" r="1"/><circle cx="717" cy="3" r="1"/><circle cx="717" cy="31" r="1"/><circle cx="717" cy="59" r="1"/><circle cx="717" cy="45" r="1"/></g><rect width="121" height="43" x="73.5" y="12.5" fill="#edeef3" rx="7.5"/><rect width="121" height="43" x="73.5" y="12.5" stroke="#555962" rx="7.5"/><rect width="24" height="24" x="83" y="22" fill="#555962" rx="3"/><path fill="#edeef3" d="M100.25 31.75a.75.75 0 0 1-.75.75H98a.75.75 0 0 1-.75-.75h-.75v7.5h4.5v-7.5zm-11.25-3v9h6v-6a1.5 1.5 0 0 1 1.5-1.5h2.25v-1.5zm11.25 1.5h.75a1.5 1.5 0 0 1 1.5 1.5v7.5a1.5 1.5 0 0 1-1.5 1.5h-4.5a1.5 1.5 0 0 1-1.5-1.5h-6a1.5 1.5 0 0 1-1.5-1.5v-9a1.5 1.5 0 0 1 1.5-1.5h9.75a1.5 1.5 0 0 1 1.5 1.5z"/><path fill="#17181c" d="M114.182 38h-2.465v-7.273h2.515q1.083 0 1.86.437.781.433 1.201 1.246.419.814.419 1.947 0 1.136-.423 1.953a2.9 2.9 0 0 1-1.211 1.253q-.788.437-1.896.437m-1.147-1.14h1.083q.76 0 1.268-.277.507-.28.763-.834.256-.558.256-1.393 0-.834-.256-1.384a1.74 1.74 0 0 0-.756-.828q-.498-.277-1.236-.277h-1.122zm8.286 1.246q-.82 0-1.417-.34a2.3 2.3 0 0 1-.912-.973q-.32-.633-.32-1.488 0-.842.32-1.478.323-.639.902-.994.579-.359 1.36-.359.504 0 .952.164.45.16.795.497.348.337.547.86.2.518.199 1.235v.394h-4.471v-.866h3.239a1.4 1.4 0 0 0-.16-.657 1.16 1.16 0 0 0-.437-.458 1.23 1.23 0 0 0-.646-.167q-.395 0-.693.192a1.3 1.3 0 0 0-.465.497 1.4 1.4 0 0 0-.167.67v.757q0 .477.174.817.174.337.487.519.312.177.731.177.28 0 .508-.078a1.1 1.1 0 0 0 .394-.238 1 1 0 0 0 .252-.387l1.201.135a1.9 1.9 0 0 1-.434.83q-.315.353-.809.548a3.1 3.1 0 0 1-1.13.191m8.229-5.56L127.608 38h-1.421l-1.942-5.455h1.371l1.253 4.052h.057l1.257-4.052zm.89 5.454v-5.455h1.285V38zm.646-6.229a.75.75 0 0 1-.525-.202.65.65 0 0 1-.221-.494q0-.29.221-.493a.74.74 0 0 1 .525-.206q.309 0 .526.206.22.203.22.493a.66.66 0 0 1-.22.494.74.74 0 0 1-.526.202m4.34 6.335q-.817 0-1.402-.358a2.4 2.4 0 0 1-.899-.99q-.312-.637-.312-1.464 0-.831.319-1.467.32-.639.902-.994.587-.359 1.385-.359.665 0 1.176.245.515.242.82.686.306.44.348 1.03h-1.229a1.17 1.17 0 0 0-.355-.657q-.276-.267-.742-.267a1.16 1.16 0 0 0-.692.213 1.37 1.37 0 0 0-.466.604 2.5 2.5 0 0 0-.163.945q0 .557.163.958.163.398.459.615.298.213.699.213.285 0 .508-.107.227-.11.38-.316a1.2 1.2 0 0 0 .209-.5h1.229a2.14 2.14 0 0 1-.341 1.026 2 2 0 0 1-.802.696q-.509.248-1.194.248m5.807 0q-.82 0-1.416-.34-.594-.345-.913-.973-.32-.633-.32-1.488 0-.842.32-1.478.323-.639.902-.994.579-.359 1.36-.359.504 0 .952.164.45.16.795.497.348.337.547.86.2.518.199 1.235v.394h-4.471v-.866h3.239a1.4 1.4 0 0 0-.16-.657 1.16 1.16 0 0 0-.437-.458 1.23 1.23 0 0 0-.646-.167q-.395 0-.693.192a1.3 1.3 0 0 0-.465.497 1.44 1.44 0 0 0-.167.67v.757q0 .477.174.817.174.337.487.519.312.177.731.177.281 0 .508-.078.228-.082.394-.238a1 1 0 0 0 .252-.387l1.201.135a1.9 1.9 0 0 1-.434.83q-.315.353-.809.548a3.1 3.1 0 0 1-1.13.191m7.825-4.119-1.172.128a.9.9 0 0 0-.174-.334.9.9 0 0 0-.327-.252 1.2 1.2 0 0 0-.504-.096q-.402 0-.675.174-.27.175-.266.451a.47.47 0 0 0 .174.387q.18.15.596.245l.931.2q.774.166 1.15.528.38.363.384.949a1.5 1.5 0 0 1-.302.909 1.94 1.94 0 0 1-.82.61q-.526.22-1.208.22-1.001 0-1.612-.419a1.69 1.69 0 0 1-.728-1.175l1.254-.12a.88.88 0 0 0 .362.557q.276.188.721.188.458 0 .735-.188.28-.188.28-.465a.48.48 0 0 0-.181-.387q-.177-.153-.554-.235l-.93-.195q-.785-.164-1.161-.55-.377-.39-.373-.988a1.4 1.4 0 0 1 .273-.873q.28-.373.778-.576a3 3 0 0 1 1.154-.206q.959 0 1.509.409.554.408.686 1.104"/><rect width="121" height="43" x="224.5" y="12.5" fill="#fceac5" rx="7.5"/><rect width="121" height="43" x="224.5" y="12.5" stroke="#f5bb3d" rx="7.5"/><rect width="24" height="24" x="234" y="22" fill="#73520d" rx="3"/><path fill="#fceac5" d="M244.907 27.419c1.212-.366 2.559-.13 3.54.646l.179.152a3.25 3.25 0 0 1 1.085 2.177A2.566 2.566 0 0 1 252 32.937v.004a2.567 2.567 0 0 1-2.569 2.558v.001h-2.681v.881c.313.111.601.289.841.528.239.24.416.528.527.841h4.632a.75.75 0 0 1 0 1.5h-4.632a2.25 2.25 0 0 1-.527.84 2.25 2.25 0 0 1-3.182 0 2.25 2.25 0 0 1-.527-.84h-4.632a.75.75 0 0 1 0-1.5h4.632a2.25 2.25 0 0 1 .527-.84c.24-.24.528-.418.841-.529v-.88h-2.055C241.466 35.5 240 34.155 240 32.421c0-1.543 1.163-2.778 2.638-3.03.4-.945 1.241-1.663 2.269-1.973M246 37.75a.75.75 0 0 0-.75.75.749.749 0 1 0 .75-.75m-4.5-5.328c0 .837.724 1.578 1.695 1.578h6.238a1.067 1.067 0 0 0 1.067-1.06 1.068 1.068 0 0 0-1.067-1.062h-.522a.751.751 0 0 1-.731-.915c.138-.611-.09-1.269-.662-1.72h-.001c-.58-.46-1.413-.618-2.176-.388h-.001c-.76.228-1.274.784-1.413 1.405a.75.75 0 0 1-.732.585c-.971 0-1.695.74-1.695 1.577"/><path fill="#17181c" d="M268.942 27.181h-1.328a1.7 1.7 0 0 0-.209-.579 1.6 1.6 0 0 0-.38-.433 1.6 1.6 0 0 0-.519-.266 2 2 0 0 0-.621-.093q-.593 0-1.051.299-.459.294-.718.866-.259.569-.259 1.389 0 .834.259 1.406.264.568.718.86.457.287 1.047.287.327 0 .611-.085.288-.09.515-.26.231-.17.387-.419.16-.248.22-.568l1.328.007q-.074.519-.323.973-.245.454-.642.803-.399.345-.931.54a3.5 3.5 0 0 1-1.182.191q-.96 0-1.712-.443a3.1 3.1 0 0 1-1.186-1.282q-.433-.84-.433-2.01 0-1.176.436-2.01.437-.838 1.19-1.282a3.3 3.3 0 0 1 1.705-.444q.606 0 1.129.17.522.17.93.501.409.327.671.803.267.471.348 1.08m2.436-2.454V32h-1.286v-7.273zm3.701 7.38q-.799 0-1.385-.352a2.4 2.4 0 0 1-.909-.984q-.32-.631-.32-1.477 0-.845.32-1.48.322-.637.909-.988.586-.352 1.385-.352t1.385.352q.585.351.905.987.323.636.323 1.481t-.323 1.477q-.32.633-.905.984-.586.351-1.385.351m.007-1.03q.433 0 .724-.238.291-.242.434-.646.145-.405.145-.902 0-.501-.145-.906a1.44 1.44 0 0 0-.434-.65 1.1 1.1 0 0 0-.724-.241q-.444 0-.739.241a1.46 1.46 0 0 0-.436.65q-.143.405-.143.906 0 .496.143.901.145.405.436.647.295.238.739.238m7.174-1.371v-3.16h1.286V32h-1.247v-.97h-.057a1.64 1.64 0 0 1-.607.75q-.419.291-1.033.291-.537 0-.948-.238a1.65 1.65 0 0 1-.64-.7q-.23-.461-.23-1.114v-3.473h1.285v3.274q0 .518.284.823.285.306.746.306.284 0 .55-.139a1.1 1.1 0 0 0 .437-.412q.174-.276.174-.692m4.632 2.39q-.643 0-1.151-.33t-.802-.96q-.295-.627-.295-1.526 0-.91.298-1.534.302-.63.813-.948a2.1 2.1 0 0 1 1.14-.324q.48 0 .789.164.309.159.49.387.18.224.28.422h.053v-2.72h1.29V32h-1.265v-.86h-.078a2.2 2.2 0 0 1-.287.423 1.6 1.6 0 0 1-.498.377q-.309.156-.777.156m.358-1.055q.41 0 .696-.22.288-.224.437-.621.15-.399.149-.927 0-.53-.149-.92a1.3 1.3 0 0 0-.433-.607 1.12 1.12 0 0 0-.7-.217q-.429 0-.717.224t-.433.618a2.6 2.6 0 0 0-.146.902q0 .51.146.912.149.398.437.629.291.227.713.227M262.717 44v-7.273h2.784q.789 0 1.311.249.525.245.785.671.262.426.262.966 0 .444-.17.76a1.44 1.44 0 0 1-.458.508 2 2 0 0 1-.643.28v.071q.387.022.742.238.359.213.586.604.227.39.227.945 0 .564-.273 1.015-.273.447-.824.707t-1.385.259zm1.318-1.1h1.417q.717 0 1.033-.274a.9.9 0 0 0 .32-.71 1.09 1.09 0 0 0-.615-.995 1.5 1.5 0 0 0-.703-.152h-1.452zm0-3.08h1.303q.34 0 .614-.124a1.03 1.03 0 0 0 .43-.359.96.96 0 0 0 .16-.554q0-.421-.298-.696-.295-.273-.878-.273h-1.331zm6.767 4.29q-.518 0-.934-.185a1.53 1.53 0 0 1-.653-.554q-.238-.365-.238-.902 0-.461.171-.763a1.3 1.3 0 0 1 .465-.483q.295-.18.664-.273.372-.096.77-.139.48-.05.778-.089.298-.041.433-.128.14-.088.139-.273V40.3q0-.402-.238-.622t-.685-.22q-.473 0-.75.206-.273.206-.369.487l-1.2-.17q.142-.498.468-.832.328-.337.799-.504.472-.17 1.044-.17.395 0 .785.092.392.092.714.305.323.21.518.572.2.362.199.905V44h-1.235v-.75h-.043a1.57 1.57 0 0 1-.859.743 2.1 2.1 0 0 1-.743.117m.334-.944q.387 0 .671-.153.284-.156.437-.412a1.05 1.05 0 0 0 .156-.558v-.642a.6.6 0 0 1-.206.092 3 3 0 0 1-.319.075q-.178.031-.352.056l-.302.043a2.3 2.3 0 0 0-.515.128.85.85 0 0 0-.358.248.6.6 0 0 0-.132.405q0 .356.26.536.259.181.66.181m6.218.94q-.816 0-1.402-.358a2.4 2.4 0 0 1-.899-.99q-.312-.637-.312-1.464 0-.831.319-1.467.32-.639.902-.994.586-.359 1.385-.359.664 0 1.176.245.514.242.82.686.304.44.348 1.03h-1.229a1.18 1.18 0 0 0-.355-.657q-.277-.267-.742-.267-.394 0-.693.213-.298.21-.465.604a2.5 2.5 0 0 0-.163.945q0 .557.163.958.164.398.458.615.298.213.7.213.284 0 .508-.107.227-.11.38-.316.152-.206.209-.5h1.229a2.15 2.15 0 0 1-.341 1.026 2 2 0 0 1-.803.696q-.507.248-1.193.248m4.564-1.818-.003-1.551h.206l1.96-2.192h1.502l-2.411 2.685h-.266zM280.746 44v-7.273h1.286V44zm3.424 0-1.776-2.482.867-.906L285.707 44zm4.46.106q-.82 0-1.417-.34-.593-.345-.913-.973-.32-.633-.319-1.488 0-.842.319-1.478.324-.639.902-.994.58-.359 1.36-.359.505 0 .952.164.451.16.796.497.348.337.547.86.198.518.198 1.235v.394h-4.47v-.866h3.238a1.4 1.4 0 0 0-.16-.657 1.16 1.16 0 0 0-.436-.458 1.23 1.23 0 0 0-.647-.167 1.25 1.25 0 0 0-.692.192 1.3 1.3 0 0 0-.465.497 1.4 1.4 0 0 0-.167.67v.757q0 .477.174.817.174.338.486.519.313.177.732.177.28 0 .508-.078a1.1 1.1 0 0 0 .394-.238 1 1 0 0 0 .252-.387l1.2.135q-.114.476-.433.83a2.1 2.1 0 0 1-.81.548 3.1 3.1 0 0 1-1.129.191m4.798-3.302V44h-1.285v-5.455h1.229v.927h.064q.188-.458.6-.728.416-.27 1.026-.27.564 0 .984.242.422.24.653.7.234.457.231 1.111V44h-1.286v-3.274q0-.547-.284-.856-.28-.309-.777-.309a1.2 1.2 0 0 0-.601.15 1.04 1.04 0 0 0-.408.422 1.4 1.4 0 0 0-.146.671m6.833 3.292q-.643 0-1.151-.33-.507-.33-.802-.96-.295-.627-.295-1.526 0-.91.298-1.534.302-.63.813-.948a2.1 2.1 0 0 1 1.14-.324q.48 0 .789.164.309.159.49.387.181.224.28.422h.054v-2.72h1.289V44h-1.265v-.86h-.078a2.2 2.2 0 0 1-.287.423 1.6 1.6 0 0 1-.497.377q-.31.156-.778.156m.358-1.055q.41 0 .697-.22.287-.224.436-.621.15-.399.149-.927 0-.53-.149-.92a1.3 1.3 0 0 0-.433-.607 1.12 1.12 0 0 0-.7-.217q-.429 0-.717.224-.288.223-.433.618a2.6 2.6 0 0 0-.146.902q0 .51.146.912.149.398.437.629.291.227.713.227"/><path fill="#555962" d="M197.72 33.47a.75.75 0 0 0 0 1.06l4.773 4.773a.75.75 0 1 0 1.06-1.06L199.311 34l4.242-4.243a.75.75 0 0 0-1.06-1.06zm23.56 1.06a.75.75 0 0 0 0-1.06l-4.773-4.773a.75.75 0 1 0-1.06 1.06L219.689 34l-4.242 4.243a.75.75 0 0 0 1.06 1.06zM198.25 34v.75h22.5v-1.5h-22.5z"/><rect width="121" height="43" x="375.5" y="12.5" fill="#edd1fa" rx="7.5"/><rect width="121" height="43" x="375.5" y="12.5" stroke="#bb3df5" rx="7.5"/><rect width="24" height="24" x="385" y="22" fill="#660891" rx="3"/><path fill="#edd1fa" d="M400.97 35.72a.75.75 0 0 1 1.06 0l2.25 2.25a.75.75 0 0 1 0 1.06l-2.25 2.25a.75.75 0 1 1-1.06-1.06l.969-.97H391a.75.75 0 0 1 0-1.5h10.939l-.969-.97a.75.75 0 0 1 0-1.06m1.28-1.72v-4.5a.75.75 0 0 0-.75-.75h-9a.75.75 0 0 0-.75.75v6a.75.75 0 0 1-1.5 0v-6a2.25 2.25 0 0 1 2.25-2.25h9a2.25 2.25 0 0 1 2.25 2.25V34a.75.75 0 0 1-1.5 0"/><path fill="#17181c" d="M413.717 32v-7.273h2.728q.837 0 1.406.313.572.312.863.86.295.542.295 1.235 0 .699-.295 1.243a2.1 2.1 0 0 1-.87.856q-.576.309-1.417.309h-1.808v-1.084h1.63q.49 0 .803-.17.312-.17.461-.469.153-.298.153-.685a1.46 1.46 0 0 0-.153-.682 1.03 1.03 0 0 0-.465-.458q-.312-.167-.806-.167h-1.207V32zm7.665-7.273V32h-1.286v-7.273zm2.891 7.383q-.519 0-.934-.185a1.53 1.53 0 0 1-.653-.554q-.238-.365-.238-.901 0-.462.17-.764.171-.301.465-.483.295-.18.665-.273.372-.096.77-.139.48-.05.778-.089.298-.041.433-.128.139-.088.139-.273V28.3q0-.402-.238-.622t-.686-.22q-.472 0-.749.206-.273.206-.369.487l-1.201-.17q.142-.498.469-.832a2.04 2.04 0 0 1 .799-.504q.472-.17 1.044-.17.395 0 .785.092t.714.305q.323.21.518.572.2.362.199.905V32h-1.236v-.75h-.042a1.57 1.57 0 0 1-.86.743 2.1 2.1 0 0 1-.742.117m.334-.944q.387 0 .671-.153.284-.157.437-.412a1.05 1.05 0 0 0 .156-.558v-.642a.6.6 0 0 1-.206.092 3 3 0 0 1-.319.075q-.178.031-.352.056l-.302.043a2.3 2.3 0 0 0-.515.128.85.85 0 0 0-.358.248.6.6 0 0 0-.132.405q0 .356.259.536.26.181.661.181m6.562-4.62v.994h-3.135v-.994zm-2.361-1.307h1.285v5.12q0 .26.079.398.081.135.213.185.13.05.291.05.12 0 .22-.018.103-.018.156-.032l.217 1.005q-.103.035-.295.078a2.4 2.4 0 0 1-.462.05q-.483.013-.87-.146a1.36 1.36 0 0 1-.614-.504q-.223-.342-.22-.853zm6.199 1.306v.995h-3.224v-.994zM432.589 32v-5.97q0-.55.227-.916.231-.366.618-.547.387-.18.86-.18.333 0 .593.053.258.053.383.095l-.256.995a2 2 0 0 0-.206-.05 1.2 1.2 0 0 0-.277-.028q-.358 0-.507.174-.146.17-.146.49V32zm5.599.106q-.798 0-1.385-.351a2.4 2.4 0 0 1-.909-.984q-.32-.631-.319-1.477 0-.845.319-1.48a2.4 2.4 0 0 1 .909-.988q.587-.352 1.385-.352.8 0 1.385.352.587.351.906.987.323.636.323 1.481t-.323 1.477q-.32.633-.906.984-.585.351-1.385.351m.007-1.03q.434 0 .725-.237.29-.242.433-.646.146-.405.146-.902 0-.501-.146-.906a1.44 1.44 0 0 0-.433-.65 1.1 1.1 0 0 0-.725-.241q-.444 0-.738.241-.291.242-.437.65-.142.405-.142.906 0 .496.142.901.146.405.437.647.294.238.738.238m3.698.924v-5.454h1.246v.909h.057q.15-.473.512-.728.365-.26.834-.26.106 0 .238.011.135.007.224.025v1.182a1.4 1.4 0 0 0-.26-.05 2.4 2.4 0 0 0-.337-.024q-.351 0-.632.152-.277.15-.437.416t-.16.614V32zm3.965 0v-5.454h1.228v.926h.064q.17-.468.565-.731a1.64 1.64 0 0 1 .941-.267q.554 0 .934.27.384.267.54.728h.057q.18-.454.61-.724.433-.273 1.027-.274.753 0 1.228.476.476.476.476 1.389V32h-1.289v-3.462q0-.508-.27-.742a.96.96 0 0 0-.66-.238q-.465 0-.728.29-.26.289-.259.75V32h-1.261v-3.516q0-.422-.256-.674-.252-.252-.66-.252a.94.94 0 0 0-.505.142 1 1 0 0 0-.362.394 1.2 1.2 0 0 0-.135.59V32zm-30.823 4.727V44h-1.318v-7.273zm2.655 4.077V44h-1.285v-5.455h1.228v.927h.064q.189-.458.6-.728.415-.27 1.027-.27.564 0 .983.242.423.24.654.7.234.457.231 1.111V44h-1.286v-3.274q0-.547-.284-.856-.28-.309-.778-.309-.337 0-.6.15a1.03 1.03 0 0 0-.408.422 1.4 1.4 0 0 0-.146.671m7.532-2.259v.995h-3.136v-.995zm-2.361-1.306h1.285v5.12q0 .26.078.398.083.135.213.185.132.05.292.05.12 0 .22-.018.102-.018.156-.032l.217 1.005q-.103.035-.295.078-.189.042-.462.05-.483.013-.87-.146a1.35 1.35 0 0 1-.614-.504q-.224-.342-.22-.853zm5.792 6.868q-.82 0-1.416-.341-.594-.345-.913-.973-.32-.633-.32-1.488 0-.842.32-1.478.323-.639.902-.994.579-.359 1.36-.359.504 0 .952.164.45.16.795.497.348.337.547.86.2.518.199 1.235v.394h-4.471v-.866h3.239a1.4 1.4 0 0 0-.16-.657 1.16 1.16 0 0 0-.437-.458 1.23 1.23 0 0 0-.646-.167q-.394 0-.693.192a1.3 1.3 0 0 0-.465.497 1.4 1.4 0 0 0-.167.67v.757q0 .477.174.817.174.338.487.519.312.177.731.177.28 0 .508-.078a1.1 1.1 0 0 0 .394-.238 1 1 0 0 0 .252-.387l1.201.135a1.9 1.9 0 0 1-.434.83q-.315.353-.809.548a3.1 3.1 0 0 1-1.13.191m5.886 2.052q-.693 0-1.19-.188a2.1 2.1 0 0 1-.799-.497 1.7 1.7 0 0 1-.419-.693l1.158-.28q.078.16.227.316.149.16.401.263.256.106.643.106.546 0 .905-.266.359-.262.359-.867V43.02h-.064a1.8 1.8 0 0 1-.291.408 1.5 1.5 0 0 1-.501.352q-.309.142-.777.142a2.24 2.24 0 0 1-1.14-.295 2.1 2.1 0 0 1-.81-.888q-.298-.593-.298-1.484 0-.898.298-1.516.302-.622.813-.941a2.1 2.1 0 0 1 1.14-.324q.48 0 .788.164.313.159.498.387.184.224.28.422h.071v-.902h1.268v5.544q0 .7-.334 1.157a2 2 0 0 1-.913.686 3.6 3.6 0 0 1-1.313.227m.01-3.246q.408 0 .696-.198.288-.2.437-.572.149-.373.149-.895 0-.515-.149-.902a1.3 1.3 0 0 0-.433-.6 1.12 1.12 0 0 0-.7-.217q-.429 0-.717.224t-.433.614a2.5 2.5 0 0 0-.146.88q0 .502.146.878.149.373.436.582.292.207.714.206M438.416 44v-5.455h1.247v.91h.057a1.36 1.36 0 0 1 1.346-.988q.107 0 .237.011.135.007.224.025v1.182a1.3 1.3 0 0 0-.259-.05 2.4 2.4 0 0 0-.337-.024q-.353 0-.633.153-.277.148-.436.415-.16.266-.16.614V44zm5.437.11q-.518 0-.934-.185a1.53 1.53 0 0 1-.653-.554q-.238-.365-.238-.902 0-.461.17-.763a1.3 1.3 0 0 1 .466-.483 2.3 2.3 0 0 1 .664-.273q.372-.096.77-.139.48-.05.778-.089.298-.041.433-.128.138-.088.139-.273V40.3q0-.402-.238-.622t-.686-.22q-.472 0-.749.206-.273.206-.369.487l-1.201-.17q.142-.498.469-.832a2.04 2.04 0 0 1 .799-.504q.473-.17 1.044-.17.395 0 .785.092t.714.305q.323.21.518.572.2.362.199.905V44h-1.236v-.75h-.042a1.55 1.55 0 0 1-.86.743 2.1 2.1 0 0 1-.742.117m.334-.944q.387 0 .671-.153.284-.156.437-.412a1.05 1.05 0 0 0 .156-.558v-.642a.6.6 0 0 1-.206.092 3 3 0 0 1-.319.075q-.178.031-.352.056l-.302.043a2.3 2.3 0 0 0-.515.128.85.85 0 0 0-.358.248.6.6 0 0 0-.132.405q0 .356.259.536.26.181.661.181m6.562-4.62v.994h-3.135v-.995zm-2.361-1.307h1.285v5.12q0 .26.079.398.081.135.213.185.13.05.291.05.12 0 .22-.018.103-.018.156-.032l.217 1.005q-.103.035-.295.078a2.4 2.4 0 0 1-.461.05q-.483.013-.871-.146a1.36 1.36 0 0 1-.614-.504q-.223-.342-.22-.853zM451.825 44v-5.455h1.285V44zm.646-6.229a.75.75 0 0 1-.526-.202.66.66 0 0 1-.22-.494q0-.29.22-.493a.74.74 0 0 1 .526-.206q.309 0 .525.206.22.203.221.493a.65.65 0 0 1-.221.494.74.74 0 0 1-.525.202m4.34 6.335q-.798 0-1.385-.351a2.4 2.4 0 0 1-.909-.984q-.32-.631-.319-1.477 0-.845.319-1.48a2.4 2.4 0 0 1 .909-.988q.587-.352 1.385-.352.8 0 1.385.352.587.351.906.987.323.636.323 1.481t-.323 1.477q-.32.633-.906.984-.585.351-1.385.351m.007-1.03q.434 0 .725-.237.29-.242.433-.646.146-.405.146-.902 0-.501-.146-.906a1.44 1.44 0 0 0-.433-.65 1.1 1.1 0 0 0-.725-.241q-.444 0-.738.241-.291.242-.437.65-.142.405-.142.906 0 .496.142.902.146.405.437.646.294.238.738.238m4.983-2.272V44h-1.285v-5.455h1.229v.927h.064q.188-.458.6-.728.416-.27 1.026-.27.564 0 .984.242.422.24.653.7.234.457.231 1.111V44h-1.286v-3.274q0-.547-.284-.856-.28-.309-.777-.309a1.2 1.2 0 0 0-.601.15 1.04 1.04 0 0 0-.408.422 1.4 1.4 0 0 0-.146.671"/><path fill="#f5bb3d" d="M348.72 33.47a.75.75 0 0 0 0 1.06l4.773 4.773a.75.75 0 1 0 1.06-1.06L350.311 34l4.242-4.243a.75.75 0 0 0-1.06-1.06zm23.56 1.06a.75.75 0 0 0 0-1.06l-4.773-4.773a.75.75 0 1 0-1.06 1.06L370.689 34l-4.242 4.243a.75.75 0 0 0 1.06 1.06zM349.25 34v.75h22.5v-1.5h-22.5z"/><rect width="121" height="43" x="526.5" y="12.5" fill="#cfd4fc" rx="7.5"/><rect width="121" height="43" x="526.5" y="12.5" stroke="#3d50f5" rx="7.5"/><rect width="24" height="24" x="536" y="22" fill="#3d50f5" rx="3"/><path fill="#cfd4fc" d="M547.584 26.5a7.05 7.05 0 0 0-3.638 1.01 1.7 1.7 0 0 0-1.081-.385c-.945 0-1.72.775-1.72 1.72.001.394.137.773.38 1.075a7.05 7.05 0 0 0-1.025 3.664.4.4 0 0 0 .03.159q.03.076.089.135a.407.407 0 0 0 .584 0 .4.4 0 0 0 .119-.294c0-1.158.315-2.238.861-3.168.214.093.444.148.681.148.945 0 1.72-.774 1.72-1.719 0-.234-.053-.462-.145-.675a6.23 6.23 0 0 1 3.145-.848.42.42 0 0 0 .294-.119.4.4 0 0 0 .122-.292.41.41 0 0 0-.416-.411m-4.72 1.447c.278 0 .525.118.696.332l.008.01a.9.9 0 0 1 .194.556c0 .5-.397.898-.897.898a.899.899 0 0 1-.001-1.795"/><path fill="#cfd4fc" fill-rule="evenodd" d="M543.638 31.32a.399.399 0 0 0 .004.543c.319.321.948.948.948.948l.555-.554-.945-.946a.4.4 0 0 0-.282-.109.38.38 0 0 0-.28.118m1.507.937-1.717 1.717a.48.48 0 0 0 0 .675l.851.85 1.488 1.49 1.429 1.428a.477.477 0 0 0 .675 0l1.162-1.162 1.777-1.777 1.718-1.718a.48.48 0 0 0 0-.675l-.874-.873-1.488-1.488-1.406-1.407a.477.477 0 0 0-.675 0l-1.162 1.162zm1.778-1.778-.946-.945a.39.39 0 0 0-.282-.11.383.383 0 0 0-.385.403.4.4 0 0 0 .109.259c.319.321.948.948.948.948zm3.243.245.946-.946a.39.39 0 0 0 .108-.282.38.38 0 0 0-.402-.385.4.4 0 0 0-.259.11c-.321.319-.948.947-.948.947zm1.488 1.488.946-.946a.4.4 0 0 0 .109-.281.38.38 0 0 0-.402-.386.4.4 0 0 0-.259.11c-.321.319-.948.948-.948.948zm-.844 3.266.946.945a.39.39 0 0 0 .282.11.383.383 0 0 0 .385-.403.4.4 0 0 0-.11-.259c-.319-.321-.948-.948-.948-.948zm-1.777 1.777.946.945a.39.39 0 0 0 .282.11.38.38 0 0 0 .385-.403.4.4 0 0 0-.11-.259c-.319-.321-.948-.948-.948-.948zm-3.266-.267-.945.946a.39.39 0 0 0-.109.282.38.38 0 0 0 .402.385.4.4 0 0 0 .259-.11c.321-.318.948-.947.948-.947zm-1.488-1.488-.945.946a.38.38 0 0 0-.109.282.38.38 0 0 0 .402.385.4.4 0 0 0 .259-.11c.321-.319.947-.948.947-.948zm4.089-4.245a.4.4 0 0 1 .295-.123.37.37 0 0 1 .214.07l.774.568c.15.108.194.312.104.483a.406.406 0 0 1-.466.208l.287 1.122a.41.41 0 0 1-.281.484l-2.092.639.386 1.494a.41.41 0 0 1-.279.488.367.367 0 0 1-.472-.258l-.482-1.864a.41.41 0 0 1 .28-.485l2.094-.639-.193-.755a.396.396 0 0 1-.497.082.37.37 0 0 1-.14-.47l.381-.913a.4.4 0 0 1 .087-.13" clip-rule="evenodd"/><path fill="#cfd4fc" d="M548.416 41.5a7.05 7.05 0 0 0 3.638-1.01c.303.247.685.384 1.081.384.945 0 1.72-.774 1.72-1.719a1.72 1.72 0 0 0-.38-1.075 7.05 7.05 0 0 0 1.025-3.664.4.4 0 0 0-.03-.159.407.407 0 0 0-.673-.135.4.4 0 0 0-.119.294 6.23 6.23 0 0 1-.861 3.168 1.7 1.7 0 0 0-.681-.149c-.945 0-1.72.775-1.72 1.72 0 .234.053.462.145.675a6.23 6.23 0 0 1-3.145.848.42.42 0 0 0-.294.119.4.4 0 0 0-.122.292.41.41 0 0 0 .416.411m4.72-1.447a.87.87 0 0 1-.696-.332l-.008-.01a.9.9 0 0 1-.194-.556c0-.5.397-.898.897-.898a.899.899 0 0 1 .001 1.795"/><path fill="#0f1c8a" d="M564.398 31.832v-1.105h5.802v1.105h-2.248V38h-1.306v-6.168zm8.15 2.972V38h-1.286v-7.273h1.257v2.745h.064q.192-.461.593-.728.405-.27 1.03-.27.568 0 .991.238.422.239.653.696.235.459.235 1.119V38h-1.286v-3.274q0-.55-.284-.856-.28-.309-.788-.309-.341 0-.611.15a1.04 1.04 0 0 0-.419.422q-.15.276-.149.671M577.395 38v-5.455h1.285V38zm.646-6.229a.75.75 0 0 1-.525-.202.65.65 0 0 1-.221-.494q0-.29.221-.493a.74.74 0 0 1 .525-.206q.309 0 .526.206.22.203.22.493a.65.65 0 0 1-.22.494.74.74 0 0 1-.526.202m3.247 3.033V38h-1.286v-5.455h1.229v.927h.064q.188-.458.6-.728.416-.27 1.026-.27.565 0 .984.242.423.24.653.7.236.457.231 1.111V38h-1.285v-3.274q0-.547-.284-.856-.281-.309-.778-.309-.337 0-.6.15a1.04 1.04 0 0 0-.409.422 1.4 1.4 0 0 0-.145.671m7.18 5.355q-.692 0-1.189-.188a2.1 2.1 0 0 1-.799-.497 1.7 1.7 0 0 1-.419-.693l1.157-.28q.078.16.227.316.15.16.402.263.255.105.643.106.546 0 .905-.266.359-.262.359-.867V37.02h-.064a1.8 1.8 0 0 1-.291.408 1.5 1.5 0 0 1-.501.352q-.309.142-.778.142-.628 0-1.14-.295a2.1 2.1 0 0 1-.809-.888q-.299-.593-.299-1.484 0-.898.299-1.516.302-.622.813-.941a2.1 2.1 0 0 1 1.14-.324q.479 0 .788.164.312.159.497.387.185.224.281.422h.071v-.902h1.268v5.544q0 .7-.334 1.157a2 2 0 0 1-.913.686 3.6 3.6 0 0 1-1.314.227m.011-3.246q.408 0 .696-.198.288-.2.437-.572.149-.373.149-.895 0-.515-.149-.902a1.3 1.3 0 0 0-.434-.6 1.12 1.12 0 0 0-.699-.217q-.43 0-.717.224-.288.224-.434.614a2.5 2.5 0 0 0-.145.88q0 .502.145.878.15.373.437.582.291.207.714.206m8.178-2.926-1.172.128a.9.9 0 0 0-.174-.334.86.86 0 0 0-.326-.252 1.2 1.2 0 0 0-.505-.096 1.23 1.23 0 0 0-.674.174q-.27.175-.267.451a.47.47 0 0 0 .174.387q.182.15.597.245l.93.2q.774.166 1.151.528.38.363.383.949a1.48 1.48 0 0 1-.302.909q-.294.39-.82.61t-1.207.22q-1.002 0-1.612-.419a1.68 1.68 0 0 1-.728-1.175l1.253-.12a.89.89 0 0 0 .362.557q.277.188.721.188.459 0 .735-.188.28-.188.281-.465a.49.49 0 0 0-.181-.387q-.178-.153-.554-.235l-.931-.195q-.785-.164-1.161-.55-.376-.39-.373-.988a1.4 1.4 0 0 1 .274-.873 1.8 1.8 0 0 1 .777-.576 3 3 0 0 1 1.155-.206q.959 0 1.509.409.554.408.685 1.104M597.891 38v-7.273h2.784q.789 0 1.311.249.525.245.784.671.264.426.263.966 0 .444-.17.76a1.44 1.44 0 0 1-.458.508 2 2 0 0 1-.643.28v.071q.387.022.742.238.359.213.586.604.227.39.227.945 0 .564-.273 1.015-.273.447-.824.707t-1.385.259zm1.318-1.1h1.417q.717 0 1.033-.274a.9.9 0 0 0 .32-.71 1.09 1.09 0 0 0-.615-.995 1.5 1.5 0 0 0-.703-.152h-1.452zm0-3.08h1.303q.34 0 .614-.124a.964.964 0 0 0 .59-.913q0-.421-.299-.696-.294-.273-.877-.273h-1.331zm7.577 4.286q-.799 0-1.385-.351a2.4 2.4 0 0 1-.909-.984q-.32-.631-.32-1.477 0-.845.32-1.48.322-.637.909-.988.586-.352 1.385-.352t1.385.352q.585.351.905.987.324.636.324 1.481t-.324 1.477q-.32.633-.905.984-.586.351-1.385.351m.007-1.03q.433 0 .724-.237.292-.242.434-.646.145-.405.145-.902 0-.501-.145-.906a1.43 1.43 0 0 0-.434-.65 1.1 1.1 0 0 0-.724-.241q-.444 0-.739.241a1.46 1.46 0 0 0-.436.65q-.143.405-.143.906 0 .496.143.902.145.405.436.646.295.238.739.238m5.267 1.034q-.518 0-.934-.185a1.53 1.53 0 0 1-.653-.554q-.238-.365-.238-.902 0-.461.17-.763a1.3 1.3 0 0 1 .466-.483 2.3 2.3 0 0 1 .664-.273q.372-.096.77-.139.48-.05.778-.089.298-.041.433-.128.139-.088.139-.273V34.3q0-.402-.238-.622t-.686-.22q-.472 0-.749.206-.273.206-.369.487l-1.201-.17q.142-.498.469-.832a2.04 2.04 0 0 1 .799-.504q.473-.17 1.044-.17.395 0 .785.092t.714.305q.323.21.518.572.2.362.199.905V38h-1.236v-.75h-.042a1.55 1.55 0 0 1-.86.743 2.1 2.1 0 0 1-.742.117m.334-.944q.387 0 .671-.153.285-.156.437-.412a1.05 1.05 0 0 0 .156-.558v-.642a.6.6 0 0 1-.206.092 3 3 0 0 1-.319.075q-.178.031-.352.056l-.302.043a2.3 2.3 0 0 0-.515.128.85.85 0 0 0-.358.248.6.6 0 0 0-.132.405q0 .356.259.536.26.181.661.181m3.839.834v-5.455h1.246v.91h.057a1.36 1.36 0 0 1 1.346-.988q.106 0 .238.011.135.007.224.025v1.182a1.4 1.4 0 0 0-.26-.05 2.4 2.4 0 0 0-.337-.024q-.351 0-.632.153-.277.148-.437.415-.16.266-.16.614V38zm5.764.096q-.643 0-1.15-.33-.508-.33-.803-.96-.294-.627-.295-1.526 0-.91.299-1.534.302-.63.813-.948a2.1 2.1 0 0 1 1.14-.324q.479 0 .788.164.309.159.49.387.181.224.281.422h.053v-2.72h1.289V38h-1.264v-.86h-.078a2.3 2.3 0 0 1-.288.423 1.6 1.6 0 0 1-.497.377q-.309.156-.778.156m.359-1.055q.408 0 .696-.22a1.4 1.4 0 0 0 .437-.621q.149-.399.149-.927 0-.53-.149-.92a1.3 1.3 0 0 0-.434-.607 1.12 1.12 0 0 0-.699-.217q-.43 0-.718.224a1.36 1.36 0 0 0-.433.618 2.6 2.6 0 0 0-.145.902q0 .51.145.912.15.398.437.629.291.227.714.227"/><path fill="#bb3df5" d="M499.72 33.47a.75.75 0 0 0 0 1.06l4.773 4.773a.75.75 0 1 0 1.06-1.06L501.311 34l4.242-4.243a.75.75 0 0 0-1.06-1.06zm23.56 1.06a.75.75 0 0 0 0-1.06l-4.773-4.773a.75.75 0 1 0-1.06 1.06L521.689 34l-4.242 4.243a.75.75 0 0 0 1.06 1.06zM500.25 34v.75h22.5v-1.5h-22.5z"/></g><defs><clipPath id="a"><path fill="#fff" d="M0 0h720v68H0z"/></clipPath><clipPath id="b"><path fill="#fff" d="M-12 2h730v646H-12z"/></clipPath></defs></svg>