<svg xmlns="http://www.w3.org/2000/svg" width="720" height="253" fill="none"><g clip-path="url(#a)"><path fill="#17181c" d="M0 0h720v253H0z"/><path fill="#3d50f5" fill-opacity=".08" d="M100 49h304v32H100z"/><path fill="#303030" fill-opacity=".08" d="M404 49h216v32H404z"/><g fill="#353841" clip-path="url(#b)" opacity=".5"><path d="M-11 316a1 1 0 1 1 0 2 1 1 0 0 1 0-2M3 316a1 1 0 1 1 0 2 1 1 0 0 1 0-2M17 316a1 1 0 1 1 0 2 1 1 0 0 1 0-2M31 316a1 1 0 1 1 0 2 1 1 0 0 1 0-2M45 316a1 1 0 1 1 0 2 1 1 0 0 1 0-2M59 316a1 1 0 1 1 0 2 1 1 0 0 1 0-2M73 316a1 1 0 1 1 0 2 1 1 0 0 1 0-2M87 316a1 1 0 1 1 0 2 1 1 0 0 1 0-2M101 316a1 1 0 1 1 0 2 1 1 0 0 1 0-2M115 316a1 1 0 1 1 0 2 1 1 0 0 1 0-2M129 316a1 1 0 1 1 0 2 1 1 0 0 1 0-2M143 316a1 1 0 1 1 0 2 1 1 0 0 1 0-2M157 316a1 1 0 1 1 0 2 1 1 0 0 1 0-2M171 316a1 1 0 1 1 0 2 1 1 0 0 1 0-2M185 316a1 1 0 1 1 0 2 1 1 0 0 1 0-2M199 316a1 1 0 1 1 0 2 1 1 0 0 1 0-2M213 316a1 1 0 1 1 0 2 1 1 0 0 1 0-2M227 316a1 1 0 1 1 0 2 1 1 0 0 1 0-2M241 316a1 1 0 1 1 0 2 1 1 0 0 1 0-2M255 316a1 1 0 1 1 0 2 1 1 0 0 1 0-2M269 316a1 1 0 1 1 0 2 1 1 0 0 1 0-2M283 316a1 1 0 1 1 0 2 1 1 0 0 1 0-2M297 316a1 1 0 1 1 0 2 1 1 0 0 1 0-2M311 316a1 1 0 1 1 0 2 1 1 0 0 1 0-2M325 316a1 1 0 1 1 0 2 1 1 0 0 1 0-2M339 316a1 1 0 1 1 0 2 1 1 0 0 1 0-2M353 316a1 1 0 1 1 0 2 1 1 0 0 1 0-2M367 316a1 1 0 1 1 0 2 1 1 0 0 1 0-2M381 316a1 1 0 1 1 0 2 1 1 0 0 1 0-2M395 316a1 1 0 1 1 0 2 1 1 0 0 1 0-2M409 316a1 1 0 1 1 0 2 1 1 0 0 1 0-2M423 316a1 1 0 1 1 0 2 1 1 0 0 1 0-2M437 316a1 1 0 1 1 0 2 1 1 0 0 1 0-2M451 316a1 1 0 1 1 0 2 1 1 0 0 1 0-2M465 316a1 1 0 1 1 0 2 1 1 0 0 1 0-2M479 316a1 1 0 1 1 0 2 1 1 0 0 1 0-2M493 316a1 1 0 1 1 0 2 1 1 0 0 1 0-2M507 316a1 1 0 1 1 0 2 1 1 0 0 1 0-2M521 316a1 1 0 1 1 0 2 1 1 0 0 1 0-2M535 316a1 1 0 1 1 0 2 1 1 0 0 1 0-2M549 316a1 1 0 1 1 0 2 1 1 0 0 1 0-2M563 316a1 1 0 1 1 0 2 1 1 0 0 1 0-2M577 316a1 1 0 1 1 0 2 1 1 0 0 1 0-2M591 316a1 1 0 1 1 0 2 1 1 0 0 1 0-2M605 316a1 1 0 1 1 0 2 1 1 0 0 1 0-2M619 316a1 1 0 1 1 0 2 1 1 0 0 1 0-2M633 316a1 1 0 1 1 0 2 1 1 0 0 1 0-2M647 316a1 1 0 1 1 0 2 1 1 0 0 1 0-2M661 316a1 1 0 1 1 0 2 1 1 0 0 1 0-2M675 316a1 1 0 1 1 0 2 1 1 0 0 1 0-2M689 316a1 1 0 1 1 0 2 1 1 0 0 1 0-2M703 316a1 1 0 1 1 0 2 1 1 0 0 1 0-2M-11 302a1 1 0 1 1 0 2 1 1 0 0 1 0-2M3 302a1 1 0 1 1 0 2 1 1 0 0 1 0-2M17 302a1 1 0 1 1 0 2 1 1 0 0 1 0-2M31 302a1 1 0 1 1 0 2 1 1 0 0 1 0-2M45 302a1 1 0 1 1 0 2 1 1 0 0 1 0-2M59 302a1 1 0 1 1 0 2 1 1 0 0 1 0-2M73 302a1 1 0 1 1 0 2 1 1 0 0 1 0-2M87 302a1 1 0 1 1 0 2 1 1 0 0 1 0-2M101 302a1 1 0 1 1 0 2 1 1 0 0 1 0-2M115 302a1 1 0 1 1 0 2 1 1 0 0 1 0-2M129 302a1 1 0 1 1 0 2 1 1 0 0 1 0-2M143 302a1 1 0 1 1 0 2 1 1 0 0 1 0-2M157 302a1 1 0 1 1 0 2 1 1 0 0 1 0-2M171 302a1 1 0 1 1 0 2 1 1 0 0 1 0-2M185 302a1 1 0 1 1 0 2 1 1 0 0 1 0-2M199 302a1 1 0 1 1 0 2 1 1 0 0 1 0-2M213 302a1 1 0 1 1 0 2 1 1 0 0 1 0-2M227 302a1 1 0 1 1 0 2 1 1 0 0 1 0-2M241 302a1 1 0 1 1 0 2 1 1 0 0 1 0-2M255 302a1 1 0 1 1 0 2 1 1 0 0 1 0-2M269 302a1 1 0 1 1 0 2 1 1 0 0 1 0-2M283 302a1 1 0 1 1 0 2 1 1 0 0 1 0-2M297 302a1 1 0 1 1 0 2 1 1 0 0 1 0-2M311 302a1 1 0 1 1 0 2 1 1 0 0 1 0-2M325 302a1 1 0 1 1 0 2 1 1 0 0 1 0-2M339 302a1 1 0 1 1 0 2 1 1 0 0 1 0-2M353 302a1 1 0 1 1 0 2 1 1 0 0 1 0-2M367 302a1 1 0 1 1 0 2 1 1 0 0 1 0-2M381 302a1 1 0 1 1 0 2 1 1 0 0 1 0-2M395 302a1 1 0 1 1 0 2 1 1 0 0 1 0-2M409 302a1 1 0 1 1 0 2 1 1 0 0 1 0-2M423 302a1 1 0 1 1 0 2 1 1 0 0 1 0-2M437 302a1 1 0 1 1 0 2 1 1 0 0 1 0-2M451 302a1 1 0 1 1 0 2 1 1 0 0 1 0-2M465 302a1 1 0 1 1 0 2 1 1 0 0 1 0-2M479 302a1 1 0 1 1 0 2 1 1 0 0 1 0-2M493 302a1 1 0 1 1 0 2 1 1 0 0 1 0-2M507 302a1 1 0 1 1 0 2 1 1 0 0 1 0-2M521 302a1 1 0 1 1 0 2 1 1 0 0 1 0-2M535 302a1 1 0 1 1 0 2 1 1 0 0 1 0-2M549 302a1 1 0 1 1 0 2 1 1 0 0 1 0-2M563 302a1 1 0 1 1 0 2 1 1 0 0 1 0-2M577 302a1 1 0 1 1 0 2 1 1 0 0 1 0-2M591 302a1 1 0 1 1 0 2 1 1 0 0 1 0-2M605 302a1 1 0 1 1 0 2 1 1 0 0 1 0-2M619 302a1 1 0 1 1 0 2 1 1 0 0 1 0-2M633 302a1 1 0 1 1 0 2 1 1 0 0 1 0-2M647 302a1 1 0 1 1 0 2 1 1 0 0 1 0-2M661 302a1 1 0 1 1 0 2 1 1 0 0 1 0-2M675 302a1 1 0 1 1 0 2 1 1 0 0 1 0-2M689 302a1 1 0 1 1 0 2 1 1 0 0 1 0-2M703 302a1 1 0 1 1 0 2 1 1 0 0 1 0-2M717 302a1 1 0 1 1 0 2 1 1 0 0 1 0-2M-11 288a1 1 0 1 1 0 2 1 1 0 0 1 0-2M3 288a1 1 0 1 1 0 2 1 1 0 0 1 0-2M17 288a1 1 0 1 1 0 2 1 1 0 0 1 0-2M31 288a1 1 0 1 1 0 2 1 1 0 0 1 0-2M45 288a1 1 0 1 1 0 2 1 1 0 0 1 0-2M59 288a1 1 0 1 1 0 2 1 1 0 0 1 0-2M73 288a1 1 0 1 1 0 2 1 1 0 0 1 0-2M87 288a1 1 0 1 1 0 2 1 1 0 0 1 0-2M101 288a1 1 0 1 1 0 2 1 1 0 0 1 0-2M115 288a1 1 0 1 1 0 2 1 1 0 0 1 0-2M129 288a1 1 0 1 1 0 2 1 1 0 0 1 0-2M143 288a1 1 0 1 1 0 2 1 1 0 0 1 0-2M157 288a1 1 0 1 1 0 2 1 1 0 0 1 0-2M171 288a1 1 0 1 1 0 2 1 1 0 0 1 0-2M185 288a1 1 0 1 1 0 2 1 1 0 0 1 0-2M199 288a1 1 0 1 1 0 2 1 1 0 0 1 0-2M213 288a1 1 0 1 1 0 2 1 1 0 0 1 0-2M227 288a1 1 0 1 1 0 2 1 1 0 0 1 0-2M241 288a1 1 0 1 1 0 2 1 1 0 0 1 0-2M255 288a1 1 0 1 1 0 2 1 1 0 0 1 0-2M269 288a1 1 0 1 1 0 2 1 1 0 0 1 0-2M283 288a1 1 0 1 1 0 2 1 1 0 0 1 0-2M297 288a1 1 0 1 1 0 2 1 1 0 0 1 0-2M311 288a1 1 0 1 1 0 2 1 1 0 0 1 0-2M325 288a1 1 0 1 1 0 2 1 1 0 0 1 0-2M339 288a1 1 0 1 1 0 2 1 1 0 0 1 0-2M353 288a1 1 0 1 1 0 2 1 1 0 0 1 0-2M367 288a1 1 0 1 1 0 2 1 1 0 0 1 0-2M381 288a1 1 0 1 1 0 2 1 1 0 0 1 0-2M395 288a1 1 0 1 1 0 2 1 1 0 0 1 0-2M409 288a1 1 0 1 1 0 2 1 1 0 0 1 0-2M423 288a1 1 0 1 1 0 2 1 1 0 0 1 0-2M437 288a1 1 0 1 1 0 2 1 1 0 0 1 0-2M451 288a1 1 0 1 1 0 2 1 1 0 0 1 0-2M465 288a1 1 0 1 1 0 2 1 1 0 0 1 0-2M479 288a1 1 0 1 1 0 2 1 1 0 0 1 0-2M493 288a1 1 0 1 1 0 2 1 1 0 0 1 0-2M507 288a1 1 0 1 1 0 2 1 1 0 0 1 0-2M521 288a1 1 0 1 1 0 2 1 1 0 0 1 0-2M535 288a1 1 0 1 1 0 2 1 1 0 0 1 0-2M549 288a1 1 0 1 1 0 2 1 1 0 0 1 0-2M563 288a1 1 0 1 1 0 2 1 1 0 0 1 0-2M577 288a1 1 0 1 1 0 2 1 1 0 0 1 0-2M591 288a1 1 0 1 1 0 2 1 1 0 0 1 0-2M605 288a1 1 0 1 1 0 2 1 1 0 0 1 0-2M619 288a1 1 0 1 1 0 2 1 1 0 0 1 0-2M633 288a1 1 0 1 1 0 2 1 1 0 0 1 0-2M647 288a1 1 0 1 1 0 2 1 1 0 0 1 0-2M661 288a1 1 0 1 1 0 2 1 1 0 0 1 0-2M675 288a1 1 0 1 1 0 2 1 1 0 0 1 0-2M689 288a1 1 0 1 1 0 2 1 1 0 0 1 0-2M703 288a1 1 0 1 1 0 2 1 1 0 0 1 0-2M717 288a1 1 0 1 1 0 2 1 1 0 0 1 0-2M-11 274a1 1 0 1 1 0 2 1 1 0 0 1 0-2M3 274a1 1 0 1 1 0 2 1 1 0 0 1 0-2M17 274a1 1 0 1 1 0 2 1 1 0 0 1 0-2M31 274a1 1 0 1 1 0 2 1 1 0 0 1 0-2M45 274a1 1 0 1 1 0 2 1 1 0 0 1 0-2M59 274a1 1 0 1 1 0 2 1 1 0 0 1 0-2M73 274a1 1 0 1 1 0 2 1 1 0 0 1 0-2M87 274a1 1 0 1 1 0 2 1 1 0 0 1 0-2M101 274a1 1 0 1 1 0 2 1 1 0 0 1 0-2M115 274a1 1 0 1 1 0 2 1 1 0 0 1 0-2M129 274a1 1 0 1 1 0 2 1 1 0 0 1 0-2M143 274a1 1 0 1 1 0 2 1 1 0 0 1 0-2M157 274a1 1 0 1 1 0 2 1 1 0 0 1 0-2M171 274a1 1 0 1 1 0 2 1 1 0 0 1 0-2M185 274a1 1 0 1 1 0 2 1 1 0 0 1 0-2M199 274a1 1 0 1 1 0 2 1 1 0 0 1 0-2M213 274a1 1 0 1 1 0 2 1 1 0 0 1 0-2M227 274a1 1 0 1 1 0 2 1 1 0 0 1 0-2M241 274a1 1 0 1 1 0 2 1 1 0 0 1 0-2M255 274a1 1 0 1 1 0 2 1 1 0 0 1 0-2M269 274a1 1 0 1 1 0 2 1 1 0 0 1 0-2M283 274a1 1 0 1 1 0 2 1 1 0 0 1 0-2M297 274a1 1 0 1 1 0 2 1 1 0 0 1 0-2M311 274a1 1 0 1 1 0 2 1 1 0 0 1 0-2M325 274a1 1 0 1 1 0 2 1 1 0 0 1 0-2M339 274a1 1 0 1 1 0 2 1 1 0 0 1 0-2M353 274a1 1 0 1 1 0 2 1 1 0 0 1 0-2M367 274a1 1 0 1 1 0 2 1 1 0 0 1 0-2M381 274a1 1 0 1 1 0 2 1 1 0 0 1 0-2M395 274a1 1 0 1 1 0 2 1 1 0 0 1 0-2M409 274a1 1 0 1 1 0 2 1 1 0 0 1 0-2M423 274a1 1 0 1 1 0 2 1 1 0 0 1 0-2M437 274a1 1 0 1 1 0 2 1 1 0 0 1 0-2M451 274a1 1 0 1 1 0 2 1 1 0 0 1 0-2M465 274a1 1 0 1 1 0 2 1 1 0 0 1 0-2M479 274a1 1 0 1 1 0 2 1 1 0 0 1 0-2M493 274a1 1 0 1 1 0 2 1 1 0 0 1 0-2M507 274a1 1 0 1 1 0 2 1 1 0 0 1 0-2M521 274a1 1 0 1 1 0 2 1 1 0 0 1 0-2M535 274a1 1 0 1 1 0 2 1 1 0 0 1 0-2M549 274a1 1 0 1 1 0 2 1 1 0 0 1 0-2M563 274a1 1 0 1 1 0 2 1 1 0 0 1 0-2M577 274a1 1 0 1 1 0 2 1 1 0 0 1 0-2M591 274a1 1 0 1 1 0 2 1 1 0 0 1 0-2M605 274a1 1 0 1 1 0 2 1 1 0 0 1 0-2M619 274a1 1 0 1 1 0 2 1 1 0 0 1 0-2M633 274a1 1 0 1 1 0 2 1 1 0 0 1 0-2M647 274a1 1 0 1 1 0 2 1 1 0 0 1 0-2M661 274a1 1 0 1 1 0 2 1 1 0 0 1 0-2M675 274a1 1 0 1 1 0 2 1 1 0 0 1 0-2M689 274a1 1 0 1 1 0 2 1 1 0 0 1 0-2M703 274a1 1 0 1 1 0 2 1 1 0 0 1 0-2M717 274a1 1 0 1 1 0 2 1 1 0 0 1 0-2M-11 260a1 1 0 1 1 0 2 1 1 0 0 1 0-2M3 260a1 1 0 1 1 0 2 1 1 0 0 1 0-2M17 260a1 1 0 1 1 0 2 1 1 0 0 1 0-2M31 260a1 1 0 1 1 0 2 1 1 0 0 1 0-2M45 260a1 1 0 1 1 0 2 1 1 0 0 1 0-2M59 260a1 1 0 1 1 0 2 1 1 0 0 1 0-2M73 260a1 1 0 1 1 0 2 1 1 0 0 1 0-2M87 260a1 1 0 1 1 0 2 1 1 0 0 1 0-2M101 260a1 1 0 1 1 0 2 1 1 0 0 1 0-2M115 260a1 1 0 1 1 0 2 1 1 0 0 1 0-2M129 260a1 1 0 1 1 0 2 1 1 0 0 1 0-2M143 260a1 1 0 1 1 0 2 1 1 0 0 1 0-2M157 260a1 1 0 1 1 0 2 1 1 0 0 1 0-2M171 260a1 1 0 1 1 0 2 1 1 0 0 1 0-2M185 260a1 1 0 1 1 0 2 1 1 0 0 1 0-2M199 260a1 1 0 1 1 0 2 1 1 0 0 1 0-2M213 260a1 1 0 1 1 0 2 1 1 0 0 1 0-2M227 260a1 1 0 1 1 0 2 1 1 0 0 1 0-2M241 260a1 1 0 1 1 0 2 1 1 0 0 1 0-2M255 260a1 1 0 1 1 0 2 1 1 0 0 1 0-2M269 260a1 1 0 1 1 0 2 1 1 0 0 1 0-2M283 260a1 1 0 1 1 0 2 1 1 0 0 1 0-2M297 260a1 1 0 1 1 0 2 1 1 0 0 1 0-2M311 260a1 1 0 1 1 0 2 1 1 0 0 1 0-2M325 260a1 1 0 1 1 0 2 1 1 0 0 1 0-2M339 260a1 1 0 1 1 0 2 1 1 0 0 1 0-2M353 260a1 1 0 1 1 0 2 1 1 0 0 1 0-2M367 260a1 1 0 1 1 0 2 1 1 0 0 1 0-2M381 260a1 1 0 1 1 0 2 1 1 0 0 1 0-2M395 260a1 1 0 1 1 0 2 1 1 0 0 1 0-2M409 260a1 1 0 1 1 0 2 1 1 0 0 1 0-2M423 260a1 1 0 1 1 0 2 1 1 0 0 1 0-2M437 260a1 1 0 1 1 0 2 1 1 0 0 1 0-2M451 260a1 1 0 1 1 0 2 1 1 0 0 1 0-2M465 260a1 1 0 1 1 0 2 1 1 0 0 1 0-2M479 260a1 1 0 1 1 0 2 1 1 0 0 1 0-2M493 260a1 1 0 1 1 0 2 1 1 0 0 1 0-2M507 260a1 1 0 1 1 0 2 1 1 0 0 1 0-2M521 260a1 1 0 1 1 0 2 1 1 0 0 1 0-2M535 260a1 1 0 1 1 0 2 1 1 0 0 1 0-2M549 260a1 1 0 1 1 0 2 1 1 0 0 1 0-2M563 260a1 1 0 1 1 0 2 1 1 0 0 1 0-2M577 260a1 1 0 1 1 0 2 1 1 0 0 1 0-2M591 260a1 1 0 1 1 0 2 1 1 0 0 1 0-2M605 260a1 1 0 1 1 0 2 1 1 0 0 1 0-2M619 260a1 1 0 1 1 0 2 1 1 0 0 1 0-2M633 260a1 1 0 1 1 0 2 1 1 0 0 1 0-2M647 260a1 1 0 1 1 0 2 1 1 0 0 1 0-2M661 260a1 1 0 1 1 0 2 1 1 0 0 1 0-2M675 260a1 1 0 1 1 0 2 1 1 0 0 1 0-2M689 260a1 1 0 1 1 0 2 1 1 0 0 1 0-2M703 260a1 1 0 1 1 0 2 1 1 0 0 1 0-2M717 260a1 1 0 1 1 0 2 1 1 0 0 1 0-2M-11 246a1 1 0 1 1 0 2 1 1 0 0 1 0-2M3 246a1 1 0 1 1 0 2 1 1 0 0 1 0-2M17 246a1 1 0 1 1 0 2 1 1 0 0 1 0-2M31 246a1 1 0 1 1 0 2 1 1 0 0 1 0-2M45 246a1 1 0 1 1 0 2 1 1 0 0 1 0-2M59 246a1 1 0 1 1 0 2 1 1 0 0 1 0-2M73 246a1 1 0 1 1 0 2 1 1 0 0 1 0-2M87 246a1 1 0 1 1 0 2 1 1 0 0 1 0-2M101 246a1 1 0 1 1 0 2 1 1 0 0 1 0-2M115 246a1 1 0 1 1 0 2 1 1 0 0 1 0-2M129 246a1 1 0 1 1 0 2 1 1 0 0 1 0-2M143 246a1 1 0 1 1 0 2 1 1 0 0 1 0-2M157 246a1 1 0 1 1 0 2 1 1 0 0 1 0-2M171 246a1 1 0 1 1 0 2 1 1 0 0 1 0-2M185 246a1 1 0 1 1 0 2 1 1 0 0 1 0-2M199 246a1 1 0 1 1 0 2 1 1 0 0 1 0-2M213 246a1 1 0 1 1 0 2 1 1 0 0 1 0-2M227 246a1 1 0 1 1 0 2 1 1 0 0 1 0-2M241 246a1 1 0 1 1 0 2 1 1 0 0 1 0-2M255 246a1 1 0 1 1 0 2 1 1 0 0 1 0-2M269 246a1 1 0 1 1 0 2 1 1 0 0 1 0-2M283 246a1 1 0 1 1 0 2 1 1 0 0 1 0-2M297 246a1 1 0 1 1 0 2 1 1 0 0 1 0-2M311 246a1 1 0 1 1 0 2 1 1 0 0 1 0-2M325 246a1 1 0 1 1 0 2 1 1 0 0 1 0-2M339 246a1 1 0 1 1 0 2 1 1 0 0 1 0-2M353 246a1 1 0 1 1 0 2 1 1 0 0 1 0-2M367 246a1 1 0 1 1 0 2 1 1 0 0 1 0-2M381 246a1 1 0 1 1 0 2 1 1 0 0 1 0-2M395 246a1 1 0 1 1 0 2 1 1 0 0 1 0-2M409 246a1 1 0 1 1 0 2 1 1 0 0 1 0-2M423 246a1 1 0 1 1 0 2 1 1 0 0 1 0-2M437 246a1 1 0 1 1 0 2 1 1 0 0 1 0-2M451 246a1 1 0 1 1 0 2 1 1 0 0 1 0-2M465 246a1 1 0 1 1 0 2 1 1 0 0 1 0-2M479 246a1 1 0 1 1 0 2 1 1 0 0 1 0-2M493 246a1 1 0 1 1 0 2 1 1 0 0 1 0-2M507 246a1 1 0 1 1 0 2 1 1 0 0 1 0-2M521 246a1 1 0 1 1 0 2 1 1 0 0 1 0-2M535 246a1 1 0 1 1 0 2 1 1 0 0 1 0-2M549 246a1 1 0 1 1 0 2 1 1 0 0 1 0-2M563 246a1 1 0 1 1 0 2 1 1 0 0 1 0-2M577 246a1 1 0 1 1 0 2 1 1 0 0 1 0-2M591 246a1 1 0 1 1 0 2 1 1 0 0 1 0-2M605 246a1 1 0 1 1 0 2 1 1 0 0 1 0-2M619 246a1 1 0 1 1 0 2 1 1 0 0 1 0-2M633 246a1 1 0 1 1 0 2 1 1 0 0 1 0-2M647 246a1 1 0 1 1 0 2 1 1 0 0 1 0-2M661 246a1 1 0 1 1 0 2 1 1 0 0 1 0-2M675 246a1 1 0 1 1 0 2 1 1 0 0 1 0-2M689 246a1 1 0 1 1 0 2 1 1 0 0 1 0-2M703 246a1 1 0 1 1 0 2 1 1 0 0 1 0-2M717 246a1 1 0 1 1 0 2 1 1 0 0 1 0-2M-11 232a1 1 0 1 1 0 2 1 1 0 0 1 0-2M3 232a1 1 0 1 1 0 2 1 1 0 0 1 0-2M17 232a1 1 0 1 1 0 2 1 1 0 0 1 0-2M31 232a1 1 0 1 1 0 2 1 1 0 0 1 0-2M45 232a1 1 0 1 1 0 2 1 1 0 0 1 0-2M59 232a1 1 0 1 1 0 2 1 1 0 0 1 0-2M73 232a1 1 0 1 1 0 2 1 1 0 0 1 0-2M87 232a1 1 0 1 1 0 2 1 1 0 0 1 0-2M101 232a1 1 0 1 1 0 2 1 1 0 0 1 0-2M115 232a1 1 0 1 1 0 2 1 1 0 0 1 0-2M129 232a1 1 0 1 1 0 2 1 1 0 0 1 0-2M143 232a1 1 0 1 1 0 2 1 1 0 0 1 0-2M157 232a1 1 0 1 1 0 2 1 1 0 0 1 0-2M171 232a1 1 0 1 1 0 2 1 1 0 0 1 0-2M185 232a1 1 0 1 1 0 2 1 1 0 0 1 0-2M199 232a1 1 0 1 1 0 2 1 1 0 0 1 0-2M213 232a1 1 0 1 1 0 2 1 1 0 0 1 0-2M227 232a1 1 0 1 1 0 2 1 1 0 0 1 0-2M241 232a1 1 0 1 1 0 2 1 1 0 0 1 0-2M255 232a1 1 0 1 1 0 2 1 1 0 0 1 0-2M269 232a1 1 0 1 1 0 2 1 1 0 0 1 0-2M283 232a1 1 0 1 1 0 2 1 1 0 0 1 0-2M297 232a1 1 0 1 1 0 2 1 1 0 0 1 0-2M311 232a1 1 0 1 1 0 2 1 1 0 0 1 0-2M325 232a1 1 0 1 1 0 2 1 1 0 0 1 0-2M339 232a1 1 0 1 1 0 2 1 1 0 0 1 0-2M353 232a1 1 0 1 1 0 2 1 1 0 0 1 0-2M367 232a1 1 0 1 1 0 2 1 1 0 0 1 0-2M381 232a1 1 0 1 1 0 2 1 1 0 0 1 0-2M395 232a1 1 0 1 1 0 2 1 1 0 0 1 0-2M409 232a1 1 0 1 1 0 2 1 1 0 0 1 0-2M423 232a1 1 0 1 1 0 2 1 1 0 0 1 0-2M437 232a1 1 0 1 1 0 2 1 1 0 0 1 0-2M451 232a1 1 0 1 1 0 2 1 1 0 0 1 0-2M465 232a1 1 0 1 1 0 2 1 1 0 0 1 0-2M479 232a1 1 0 1 1 0 2 1 1 0 0 1 0-2M493 232a1 1 0 1 1 0 2 1 1 0 0 1 0-2M507 232a1 1 0 1 1 0 2 1 1 0 0 1 0-2M521 232a1 1 0 1 1 0 2 1 1 0 0 1 0-2M535 232a1 1 0 1 1 0 2 1 1 0 0 1 0-2M549 232a1 1 0 1 1 0 2 1 1 0 0 1 0-2M563 232a1 1 0 1 1 0 2 1 1 0 0 1 0-2M577 232a1 1 0 1 1 0 2 1 1 0 0 1 0-2M591 232a1 1 0 1 1 0 2 1 1 0 0 1 0-2M605 232a1 1 0 1 1 0 2 1 1 0 0 1 0-2M619 232a1 1 0 1 1 0 2 1 1 0 0 1 0-2M633 232a1 1 0 1 1 0 2 1 1 0 0 1 0-2M647 232a1 1 0 1 1 0 2 1 1 0 0 1 0-2M661 232a1 1 0 1 1 0 2 1 1 0 0 1 0-2M675 232a1 1 0 1 1 0 2 1 1 0 0 1 0-2M689 232a1 1 0 1 1 0 2 1 1 0 0 1 0-2M703 232a1 1 0 1 1 0 2 1 1 0 0 1 0-2M717 232a1 1 0 1 1 0 2 1 1 0 0 1 0-2M-11 218a1 1 0 1 1 0 2 1 1 0 0 1 0-2M3 218a1 1 0 1 1 0 2 1 1 0 0 1 0-2M17 218a1 1 0 1 1 0 2 1 1 0 0 1 0-2M31 218a1 1 0 1 1 0 2 1 1 0 0 1 0-2M45 218a1 1 0 1 1 0 2 1 1 0 0 1 0-2M59 218a1 1 0 1 1 0 2 1 1 0 0 1 0-2M73 218a1 1 0 1 1 0 2 1 1 0 0 1 0-2M87 218a1 1 0 1 1 0 2 1 1 0 0 1 0-2M101 218a1 1 0 1 1 0 2 1 1 0 0 1 0-2M115 218a1 1 0 1 1 0 2 1 1 0 0 1 0-2M129 218a1 1 0 1 1 0 2 1 1 0 0 1 0-2M143 218a1 1 0 1 1 0 2 1 1 0 0 1 0-2M157 218a1 1 0 1 1 0 2 1 1 0 0 1 0-2M171 218a1 1 0 1 1 0 2 1 1 0 0 1 0-2M185 218a1 1 0 1 1 0 2 1 1 0 0 1 0-2M199 218a1 1 0 1 1 0 2 1 1 0 0 1 0-2M213 218a1 1 0 1 1 0 2 1 1 0 0 1 0-2M227 218a1 1 0 1 1 0 2 1 1 0 0 1 0-2M241 218a1 1 0 1 1 0 2 1 1 0 0 1 0-2M255 218a1 1 0 1 1 0 2 1 1 0 0 1 0-2M269 218a1 1 0 1 1 0 2 1 1 0 0 1 0-2M283 218a1 1 0 1 1 0 2 1 1 0 0 1 0-2M297 218a1 1 0 1 1 0 2 1 1 0 0 1 0-2M311 218a1 1 0 1 1 0 2 1 1 0 0 1 0-2M325 218a1 1 0 1 1 0 2 1 1 0 0 1 0-2M339 218a1 1 0 1 1 0 2 1 1 0 0 1 0-2M353 218a1 1 0 1 1 0 2 1 1 0 0 1 0-2M367 218a1 1 0 1 1 0 2 1 1 0 0 1 0-2M381 218a1 1 0 1 1 0 2 1 1 0 0 1 0-2M395 218a1 1 0 1 1 0 2 1 1 0 0 1 0-2M409 218a1 1 0 1 1 0 2 1 1 0 0 1 0-2M423 218a1 1 0 1 1 0 2 1 1 0 0 1 0-2M437 218a1 1 0 1 1 0 2 1 1 0 0 1 0-2M451 218a1 1 0 1 1 0 2 1 1 0 0 1 0-2M465 218a1 1 0 1 1 0 2 1 1 0 0 1 0-2M479 218a1 1 0 1 1 0 2 1 1 0 0 1 0-2M493 218a1 1 0 1 1 0 2 1 1 0 0 1 0-2M507 218a1 1 0 1 1 0 2 1 1 0 0 1 0-2M521 218a1 1 0 1 1 0 2 1 1 0 0 1 0-2M535 218a1 1 0 1 1 0 2 1 1 0 0 1 0-2M549 218a1 1 0 1 1 0 2 1 1 0 0 1 0-2M563 218a1 1 0 1 1 0 2 1 1 0 0 1 0-2M577 218a1 1 0 1 1 0 2 1 1 0 0 1 0-2M591 218a1 1 0 1 1 0 2 1 1 0 0 1 0-2M605 218a1 1 0 1 1 0 2 1 1 0 0 1 0-2M619 218a1 1 0 1 1 0 2 1 1 0 0 1 0-2M633 218a1 1 0 1 1 0 2 1 1 0 0 1 0-2M647 218a1 1 0 1 1 0 2 1 1 0 0 1 0-2M661 218a1 1 0 1 1 0 2 1 1 0 0 1 0-2M675 218a1 1 0 1 1 0 2 1 1 0 0 1 0-2M689 218a1 1 0 1 1 0 2 1 1 0 0 1 0-2M703 218a1 1 0 1 1 0 2 1 1 0 0 1 0-2M717 218a1 1 0 1 1 0 2 1 1 0 0 1 0-2M-11 204a1 1 0 1 1 0 2 1 1 0 0 1 0-2M3 204a1 1 0 1 1 0 2 1 1 0 0 1 0-2M17 204a1 1 0 1 1 0 2 1 1 0 0 1 0-2M31 204a1 1 0 1 1 0 2 1 1 0 0 1 0-2M45 204a1 1 0 1 1 0 2 1 1 0 0 1 0-2M59 204a1 1 0 1 1 0 2 1 1 0 0 1 0-2M73 204a1 1 0 1 1 0 2 1 1 0 0 1 0-2M87 204a1 1 0 1 1 0 2 1 1 0 0 1 0-2M101 204a1 1 0 1 1 0 2 1 1 0 0 1 0-2M115 204a1 1 0 1 1 0 2 1 1 0 0 1 0-2M129 204a1 1 0 1 1 0 2 1 1 0 0 1 0-2M143 204a1 1 0 1 1 0 2 1 1 0 0 1 0-2M157 204a1 1 0 1 1 0 2 1 1 0 0 1 0-2M171 204a1 1 0 1 1 0 2 1 1 0 0 1 0-2M185 204a1 1 0 1 1 0 2 1 1 0 0 1 0-2M199 204a1 1 0 1 1 0 2 1 1 0 0 1 0-2M213 204a1 1 0 1 1 0 2 1 1 0 0 1 0-2M227 204a1 1 0 1 1 0 2 1 1 0 0 1 0-2M241 204a1 1 0 1 1 0 2 1 1 0 0 1 0-2M255 204a1 1 0 1 1 0 2 1 1 0 0 1 0-2M269 204a1 1 0 1 1 0 2 1 1 0 0 1 0-2M283 204a1 1 0 1 1 0 2 1 1 0 0 1 0-2M297 204a1 1 0 1 1 0 2 1 1 0 0 1 0-2M311 204a1 1 0 1 1 0 2 1 1 0 0 1 0-2M325 204a1 1 0 1 1 0 2 1 1 0 0 1 0-2M339 204a1 1 0 1 1 0 2 1 1 0 0 1 0-2M353 204a1 1 0 1 1 0 2 1 1 0 0 1 0-2M367 204a1 1 0 1 1 0 2 1 1 0 0 1 0-2M381 204a1 1 0 1 1 0 2 1 1 0 0 1 0-2M395 204a1 1 0 1 1 0 2 1 1 0 0 1 0-2M409 204a1 1 0 1 1 0 2 1 1 0 0 1 0-2M423 204a1 1 0 1 1 0 2 1 1 0 0 1 0-2M437 204a1 1 0 1 1 0 2 1 1 0 0 1 0-2M451 204a1 1 0 1 1 0 2 1 1 0 0 1 0-2M465 204a1 1 0 1 1 0 2 1 1 0 0 1 0-2M479 204a1 1 0 1 1 0 2 1 1 0 0 1 0-2M493 204a1 1 0 1 1 0 2 1 1 0 0 1 0-2M507 204a1 1 0 1 1 0 2 1 1 0 0 1 0-2M521 204a1 1 0 1 1 0 2 1 1 0 0 1 0-2M535 204a1 1 0 1 1 0 2 1 1 0 0 1 0-2M549 204a1 1 0 1 1 0 2 1 1 0 0 1 0-2M563 204a1 1 0 1 1 0 2 1 1 0 0 1 0-2M577 204a1 1 0 1 1 0 2 1 1 0 0 1 0-2M591 204a1 1 0 1 1 0 2 1 1 0 0 1 0-2M605 204a1 1 0 1 1 0 2 1 1 0 0 1 0-2M619 204a1 1 0 1 1 0 2 1 1 0 0 1 0-2M633 204a1 1 0 1 1 0 2 1 1 0 0 1 0-2M647 204a1 1 0 1 1 0 2 1 1 0 0 1 0-2M661 204a1 1 0 1 1 0 2 1 1 0 0 1 0-2M675 204a1 1 0 1 1 0 2 1 1 0 0 1 0-2M689 204a1 1 0 1 1 0 2 1 1 0 0 1 0-2M703 204a1 1 0 1 1 0 2 1 1 0 0 1 0-2M717 204a1 1 0 1 1 0 2 1 1 0 0 1 0-2M-11 190a1 1 0 1 1 0 2 1 1 0 0 1 0-2M3 190a1 1 0 1 1 0 2 1 1 0 0 1 0-2M17 190a1 1 0 1 1 0 2 1 1 0 0 1 0-2M31 190a1 1 0 1 1 0 2 1 1 0 0 1 0-2M45 190a1 1 0 1 1 0 2 1 1 0 0 1 0-2M59 190a1 1 0 1 1 0 2 1 1 0 0 1 0-2M73 190a1 1 0 1 1 0 2 1 1 0 0 1 0-2M87 190a1 1 0 1 1 0 2 1 1 0 0 1 0-2M101 190a1 1 0 1 1 0 2 1 1 0 0 1 0-2M115 190a1 1 0 1 1 0 2 1 1 0 0 1 0-2M129 190a1 1 0 1 1 0 2 1 1 0 0 1 0-2M143 190a1 1 0 1 1 0 2 1 1 0 0 1 0-2M157 190a1 1 0 1 1 0 2 1 1 0 0 1 0-2M171 190a1 1 0 1 1 0 2 1 1 0 0 1 0-2M185 190a1 1 0 1 1 0 2 1 1 0 0 1 0-2M199 190a1 1 0 1 1 0 2 1 1 0 0 1 0-2M213 190a1 1 0 1 1 0 2 1 1 0 0 1 0-2M227 190a1 1 0 1 1 0 2 1 1 0 0 1 0-2M241 190a1 1 0 1 1 0 2 1 1 0 0 1 0-2M255 190a1 1 0 1 1 0 2 1 1 0 0 1 0-2M269 190a1 1 0 1 1 0 2 1 1 0 0 1 0-2M283 190a1 1 0 1 1 0 2 1 1 0 0 1 0-2M297 190a1 1 0 1 1 0 2 1 1 0 0 1 0-2M311 190a1 1 0 1 1 0 2 1 1 0 0 1 0-2M325 190a1 1 0 1 1 0 2 1 1 0 0 1 0-2M339 190a1 1 0 1 1 0 2 1 1 0 0 1 0-2M353 190a1 1 0 1 1 0 2 1 1 0 0 1 0-2M367 190a1 1 0 1 1 0 2 1 1 0 0 1 0-2M381 190a1 1 0 1 1 0 2 1 1 0 0 1 0-2M395 190a1 1 0 1 1 0 2 1 1 0 0 1 0-2M409 190a1 1 0 1 1 0 2 1 1 0 0 1 0-2M423 190a1 1 0 1 1 0 2 1 1 0 0 1 0-2M437 190a1 1 0 1 1 0 2 1 1 0 0 1 0-2M451 190a1 1 0 1 1 0 2 1 1 0 0 1 0-2M465 190a1 1 0 1 1 0 2 1 1 0 0 1 0-2M479 190a1 1 0 1 1 0 2 1 1 0 0 1 0-2M493 190a1 1 0 1 1 0 2 1 1 0 0 1 0-2M507 190a1 1 0 1 1 0 2 1 1 0 0 1 0-2M521 190a1 1 0 1 1 0 2 1 1 0 0 1 0-2M535 190a1 1 0 1 1 0 2 1 1 0 0 1 0-2M549 190a1 1 0 1 1 0 2 1 1 0 0 1 0-2M563 190a1 1 0 1 1 0 2 1 1 0 0 1 0-2M577 190a1 1 0 1 1 0 2 1 1 0 0 1 0-2M591 190a1 1 0 1 1 0 2 1 1 0 0 1 0-2M605 190a1 1 0 1 1 0 2 1 1 0 0 1 0-2M619 190a1 1 0 1 1 0 2 1 1 0 0 1 0-2M633 190a1 1 0 1 1 0 2 1 1 0 0 1 0-2M647 190a1 1 0 1 1 0 2 1 1 0 0 1 0-2M661 190a1 1 0 1 1 0 2 1 1 0 0 1 0-2M675 190a1 1 0 1 1 0 2 1 1 0 0 1 0-2M689 190a1 1 0 1 1 0 2 1 1 0 0 1 0-2M703 190a1 1 0 1 1 0 2 1 1 0 0 1 0-2M717 190a1 1 0 1 1 0 2 1 1 0 0 1 0-2M-11 176a1 1 0 1 1 0 2 1 1 0 0 1 0-2M3 176a1 1 0 1 1 0 2 1 1 0 0 1 0-2M17 176a1 1 0 1 1 0 2 1 1 0 0 1 0-2M31 176a1 1 0 1 1 0 2 1 1 0 0 1 0-2M45 176a1 1 0 1 1 0 2 1 1 0 0 1 0-2M59 176a1 1 0 1 1 0 2 1 1 0 0 1 0-2M73 176a1 1 0 1 1 0 2 1 1 0 0 1 0-2M87 176a1 1 0 1 1 0 2 1 1 0 0 1 0-2M101 176a1 1 0 1 1 0 2 1 1 0 0 1 0-2M115 176a1 1 0 1 1 0 2 1 1 0 0 1 0-2M129 176a1 1 0 1 1 0 2 1 1 0 0 1 0-2M143 176a1 1 0 1 1 0 2 1 1 0 0 1 0-2M157 176a1 1 0 1 1 0 2 1 1 0 0 1 0-2M171 176a1 1 0 1 1 0 2 1 1 0 0 1 0-2M185 176a1 1 0 1 1 0 2 1 1 0 0 1 0-2M199 176a1 1 0 1 1 0 2 1 1 0 0 1 0-2M213 176a1 1 0 1 1 0 2 1 1 0 0 1 0-2M227 176a1 1 0 1 1 0 2 1 1 0 0 1 0-2M241 176a1 1 0 1 1 0 2 1 1 0 0 1 0-2M255 176a1 1 0 1 1 0 2 1 1 0 0 1 0-2M269 176a1 1 0 1 1 0 2 1 1 0 0 1 0-2M283 176a1 1 0 1 1 0 2 1 1 0 0 1 0-2M297 176a1 1 0 1 1 0 2 1 1 0 0 1 0-2M311 176a1 1 0 1 1 0 2 1 1 0 0 1 0-2M325 176a1 1 0 1 1 0 2 1 1 0 0 1 0-2M339 176a1 1 0 1 1 0 2 1 1 0 0 1 0-2M353 176a1 1 0 1 1 0 2 1 1 0 0 1 0-2M367 176a1 1 0 1 1 0 2 1 1 0 0 1 0-2M381 176a1 1 0 1 1 0 2 1 1 0 0 1 0-2M395 176a1 1 0 1 1 0 2 1 1 0 0 1 0-2M409 176a1 1 0 1 1 0 2 1 1 0 0 1 0-2M423 176a1 1 0 1 1 0 2 1 1 0 0 1 0-2M437 176a1 1 0 1 1 0 2 1 1 0 0 1 0-2M451 176a1 1 0 1 1 0 2 1 1 0 0 1 0-2M465 176a1 1 0 1 1 0 2 1 1 0 0 1 0-2M479 176a1 1 0 1 1 0 2 1 1 0 0 1 0-2M493 176a1 1 0 1 1 0 2 1 1 0 0 1 0-2M507 176a1 1 0 1 1 0 2 1 1 0 0 1 0-2M521 176a1 1 0 1 1 0 2 1 1 0 0 1 0-2M535 176a1 1 0 1 1 0 2 1 1 0 0 1 0-2M549 176a1 1 0 1 1 0 2 1 1 0 0 1 0-2M563 176a1 1 0 1 1 0 2 1 1 0 0 1 0-2M577 176a1 1 0 1 1 0 2 1 1 0 0 1 0-2M591 176a1 1 0 1 1 0 2 1 1 0 0 1 0-2M605 176a1 1 0 1 1 0 2 1 1 0 0 1 0-2M619 176a1 1 0 1 1 0 2 1 1 0 0 1 0-2M633 176a1 1 0 1 1 0 2 1 1 0 0 1 0-2M647 176a1 1 0 1 1 0 2 1 1 0 0 1 0-2M661 176a1 1 0 1 1 0 2 1 1 0 0 1 0-2M675 176a1 1 0 1 1 0 2 1 1 0 0 1 0-2M689 176a1 1 0 1 1 0 2 1 1 0 0 1 0-2M703 176a1 1 0 1 1 0 2 1 1 0 0 1 0-2M717 176a1 1 0 1 1 0 2 1 1 0 0 1 0-2M-11 162a1 1 0 1 1 0 2 1 1 0 0 1 0-2M3 162a1 1 0 1 1 0 2 1 1 0 0 1 0-2M17 162a1 1 0 1 1 0 2 1 1 0 0 1 0-2M31 162a1 1 0 1 1 0 2 1 1 0 0 1 0-2M45 162a1 1 0 1 1 0 2 1 1 0 0 1 0-2M59 162a1 1 0 1 1 0 2 1 1 0 0 1 0-2M73 162a1 1 0 1 1 0 2 1 1 0 0 1 0-2M87 162a1 1 0 1 1 0 2 1 1 0 0 1 0-2M101 162a1 1 0 1 1 0 2 1 1 0 0 1 0-2M115 162a1 1 0 1 1 0 2 1 1 0 0 1 0-2M129 162a1 1 0 1 1 0 2 1 1 0 0 1 0-2M143 162a1 1 0 1 1 0 2 1 1 0 0 1 0-2M157 162a1 1 0 1 1 0 2 1 1 0 0 1 0-2M171 162a1 1 0 1 1 0 2 1 1 0 0 1 0-2M185 162a1 1 0 1 1 0 2 1 1 0 0 1 0-2M199 162a1 1 0 1 1 0 2 1 1 0 0 1 0-2M213 162a1 1 0 1 1 0 2 1 1 0 0 1 0-2M227 162a1 1 0 1 1 0 2 1 1 0 0 1 0-2M241 162a1 1 0 1 1 0 2 1 1 0 0 1 0-2M255 162a1 1 0 1 1 0 2 1 1 0 0 1 0-2M269 162a1 1 0 1 1 0 2 1 1 0 0 1 0-2M283 162a1 1 0 1 1 0 2 1 1 0 0 1 0-2M297 162a1 1 0 1 1 0 2 1 1 0 0 1 0-2M311 162a1 1 0 1 1 0 2 1 1 0 0 1 0-2M325 162a1 1 0 1 1 0 2 1 1 0 0 1 0-2M339 162a1 1 0 1 1 0 2 1 1 0 0 1 0-2M353 162a1 1 0 1 1 0 2 1 1 0 0 1 0-2M367 162a1 1 0 1 1 0 2 1 1 0 0 1 0-2M381 162a1 1 0 1 1 0 2 1 1 0 0 1 0-2M395 162a1 1 0 1 1 0 2 1 1 0 0 1 0-2M409 162a1 1 0 1 1 0 2 1 1 0 0 1 0-2M423 162a1 1 0 1 1 0 2 1 1 0 0 1 0-2M437 162a1 1 0 1 1 0 2 1 1 0 0 1 0-2M451 162a1 1 0 1 1 0 2 1 1 0 0 1 0-2M465 162a1 1 0 1 1 0 2 1 1 0 0 1 0-2M479 162a1 1 0 1 1 0 2 1 1 0 0 1 0-2M493 162a1 1 0 1 1 0 2 1 1 0 0 1 0-2M507 162a1 1 0 1 1 0 2 1 1 0 0 1 0-2M521 162a1 1 0 1 1 0 2 1 1 0 0 1 0-2M535 162a1 1 0 1 1 0 2 1 1 0 0 1 0-2M549 162a1 1 0 1 1 0 2 1 1 0 0 1 0-2M563 162a1 1 0 1 1 0 2 1 1 0 0 1 0-2M577 162a1 1 0 1 1 0 2 1 1 0 0 1 0-2M591 162a1 1 0 1 1 0 2 1 1 0 0 1 0-2M605 162a1 1 0 1 1 0 2 1 1 0 0 1 0-2M619 162a1 1 0 1 1 0 2 1 1 0 0 1 0-2M633 162a1 1 0 1 1 0 2 1 1 0 0 1 0-2M647 162a1 1 0 1 1 0 2 1 1 0 0 1 0-2M661 162a1 1 0 1 1 0 2 1 1 0 0 1 0-2M675 162a1 1 0 1 1 0 2 1 1 0 0 1 0-2M689 162a1 1 0 1 1 0 2 1 1 0 0 1 0-2M703 162a1 1 0 1 1 0 2 1 1 0 0 1 0-2M717 162a1 1 0 1 1 0 2 1 1 0 0 1 0-2M-11 148a1 1 0 1 1 0 2 1 1 0 0 1 0-2M3 148a1 1 0 1 1 0 2 1 1 0 0 1 0-2M17 148a1 1 0 1 1 0 2 1 1 0 0 1 0-2M31 148a1 1 0 1 1 0 2 1 1 0 0 1 0-2M45 148a1 1 0 1 1 0 2 1 1 0 0 1 0-2M59 148a1 1 0 1 1 0 2 1 1 0 0 1 0-2M73 148a1 1 0 1 1 0 2 1 1 0 0 1 0-2M87 148a1 1 0 1 1 0 2 1 1 0 0 1 0-2M101 148a1 1 0 1 1 0 2 1 1 0 0 1 0-2M115 148a1 1 0 1 1 0 2 1 1 0 0 1 0-2M129 148a1 1 0 1 1 0 2 1 1 0 0 1 0-2M143 148a1 1 0 1 1 0 2 1 1 0 0 1 0-2M157 148a1 1 0 1 1 0 2 1 1 0 0 1 0-2M171 148a1 1 0 1 1 0 2 1 1 0 0 1 0-2M185 148a1 1 0 1 1 0 2 1 1 0 0 1 0-2M199 148a1 1 0 1 1 0 2 1 1 0 0 1 0-2M213 148a1 1 0 1 1 0 2 1 1 0 0 1 0-2M227 148a1 1 0 1 1 0 2 1 1 0 0 1 0-2M241 148a1 1 0 1 1 0 2 1 1 0 0 1 0-2M255 148a1 1 0 1 1 0 2 1 1 0 0 1 0-2M269 148a1 1 0 1 1 0 2 1 1 0 0 1 0-2M283 148a1 1 0 1 1 0 2 1 1 0 0 1 0-2M297 148a1 1 0 1 1 0 2 1 1 0 0 1 0-2M311 148a1 1 0 1 1 0 2 1 1 0 0 1 0-2M325 148a1 1 0 1 1 0 2 1 1 0 0 1 0-2M339 148a1 1 0 1 1 0 2 1 1 0 0 1 0-2M353 148a1 1 0 1 1 0 2 1 1 0 0 1 0-2M367 148a1 1 0 1 1 0 2 1 1 0 0 1 0-2M381 148a1 1 0 1 1 0 2 1 1 0 0 1 0-2M395 148a1 1 0 1 1 0 2 1 1 0 0 1 0-2M409 148a1 1 0 1 1 0 2 1 1 0 0 1 0-2M423 148a1 1 0 1 1 0 2 1 1 0 0 1 0-2M437 148a1 1 0 1 1 0 2 1 1 0 0 1 0-2M451 148a1 1 0 1 1 0 2 1 1 0 0 1 0-2M465 148a1 1 0 1 1 0 2 1 1 0 0 1 0-2M479 148a1 1 0 1 1 0 2 1 1 0 0 1 0-2M493 148a1 1 0 1 1 0 2 1 1 0 0 1 0-2M507 148a1 1 0 1 1 0 2 1 1 0 0 1 0-2M521 148a1 1 0 1 1 0 2 1 1 0 0 1 0-2M535 148a1 1 0 1 1 0 2 1 1 0 0 1 0-2M549 148a1 1 0 1 1 0 2 1 1 0 0 1 0-2M563 148a1 1 0 1 1 0 2 1 1 0 0 1 0-2M577 148a1 1 0 1 1 0 2 1 1 0 0 1 0-2M591 148a1 1 0 1 1 0 2 1 1 0 0 1 0-2M605 148a1 1 0 1 1 0 2 1 1 0 0 1 0-2M619 148a1 1 0 1 1 0 2 1 1 0 0 1 0-2M633 148a1 1 0 1 1 0 2 1 1 0 0 1 0-2M647 148a1 1 0 1 1 0 2 1 1 0 0 1 0-2M661 148a1 1 0 1 1 0 2 1 1 0 0 1 0-2M675 148a1 1 0 1 1 0 2 1 1 0 0 1 0-2M689 148a1 1 0 1 1 0 2 1 1 0 0 1 0-2M703 148a1 1 0 1 1 0 2 1 1 0 0 1 0-2M717 148a1 1 0 1 1 0 2 1 1 0 0 1 0-2M-11 134a1 1 0 1 1 0 2 1 1 0 0 1 0-2M3 134a1 1 0 1 1 0 2 1 1 0 0 1 0-2M17 134a1 1 0 1 1 0 2 1 1 0 0 1 0-2M31 134a1 1 0 1 1 0 2 1 1 0 0 1 0-2M45 134a1 1 0 1 1 0 2 1 1 0 0 1 0-2M59 134a1 1 0 1 1 0 2 1 1 0 0 1 0-2M73 134a1 1 0 1 1 0 2 1 1 0 0 1 0-2M87 134a1 1 0 1 1 0 2 1 1 0 0 1 0-2M101 134a1 1 0 1 1 0 2 1 1 0 0 1 0-2M115 134a1 1 0 1 1 0 2 1 1 0 0 1 0-2M129 134a1 1 0 1 1 0 2 1 1 0 0 1 0-2M143 134a1 1 0 1 1 0 2 1 1 0 0 1 0-2M157 134a1 1 0 1 1 0 2 1 1 0 0 1 0-2M171 134a1 1 0 1 1 0 2 1 1 0 0 1 0-2M185 134a1 1 0 1 1 0 2 1 1 0 0 1 0-2M199 134a1 1 0 1 1 0 2 1 1 0 0 1 0-2M213 134a1 1 0 1 1 0 2 1 1 0 0 1 0-2M227 134a1 1 0 1 1 0 2 1 1 0 0 1 0-2M241 134a1 1 0 1 1 0 2 1 1 0 0 1 0-2M255 134a1 1 0 1 1 0 2 1 1 0 0 1 0-2M269 134a1 1 0 1 1 0 2 1 1 0 0 1 0-2M283 134a1 1 0 1 1 0 2 1 1 0 0 1 0-2M297 134a1 1 0 1 1 0 2 1 1 0 0 1 0-2M311 134a1 1 0 1 1 0 2 1 1 0 0 1 0-2M325 134a1 1 0 1 1 0 2 1 1 0 0 1 0-2M339 134a1 1 0 1 1 0 2 1 1 0 0 1 0-2M353 134a1 1 0 1 1 0 2 1 1 0 0 1 0-2M367 134a1 1 0 1 1 0 2 1 1 0 0 1 0-2M381 134a1 1 0 1 1 0 2 1 1 0 0 1 0-2M395 134a1 1 0 1 1 0 2 1 1 0 0 1 0-2M409 134a1 1 0 1 1 0 2 1 1 0 0 1 0-2M423 134a1 1 0 1 1 0 2 1 1 0 0 1 0-2M437 134a1 1 0 1 1 0 2 1 1 0 0 1 0-2M451 134a1 1 0 1 1 0 2 1 1 0 0 1 0-2M465 134a1 1 0 1 1 0 2 1 1 0 0 1 0-2M479 134a1 1 0 1 1 0 2 1 1 0 0 1 0-2M493 134a1 1 0 1 1 0 2 1 1 0 0 1 0-2M507 134a1 1 0 1 1 0 2 1 1 0 0 1 0-2M521 134a1 1 0 1 1 0 2 1 1 0 0 1 0-2M535 134a1 1 0 1 1 0 2 1 1 0 0 1 0-2M549 134a1 1 0 1 1 0 2 1 1 0 0 1 0-2M563 134a1 1 0 1 1 0 2 1 1 0 0 1 0-2M577 134a1 1 0 1 1 0 2 1 1 0 0 1 0-2M591 134a1 1 0 1 1 0 2 1 1 0 0 1 0-2M605 134a1 1 0 1 1 0 2 1 1 0 0 1 0-2M619 134a1 1 0 1 1 0 2 1 1 0 0 1 0-2M633 134a1 1 0 1 1 0 2 1 1 0 0 1 0-2M647 134a1 1 0 1 1 0 2 1 1 0 0 1 0-2M661 134a1 1 0 1 1 0 2 1 1 0 0 1 0-2M675 134a1 1 0 1 1 0 2 1 1 0 0 1 0-2M689 134a1 1 0 1 1 0 2 1 1 0 0 1 0-2M703 134a1 1 0 1 1 0 2 1 1 0 0 1 0-2M717 134a1 1 0 1 1 0 2 1 1 0 0 1 0-2M-11 120a1 1 0 1 1 0 2 1 1 0 0 1 0-2M3 120a1 1 0 1 1 0 2 1 1 0 0 1 0-2M17 120a1 1 0 1 1 0 2 1 1 0 0 1 0-2M31 120a1 1 0 1 1 0 2 1 1 0 0 1 0-2M45 120a1 1 0 1 1 0 2 1 1 0 0 1 0-2M59 120a1 1 0 1 1 0 2 1 1 0 0 1 0-2M73 120a1 1 0 1 1 0 2 1 1 0 0 1 0-2M87 120a1 1 0 1 1 0 2 1 1 0 0 1 0-2M101 120a1 1 0 1 1 0 2 1 1 0 0 1 0-2M115 120a1 1 0 1 1 0 2 1 1 0 0 1 0-2M129 120a1 1 0 1 1 0 2 1 1 0 0 1 0-2M143 120a1 1 0 1 1 0 2 1 1 0 0 1 0-2M157 120a1 1 0 1 1 0 2 1 1 0 0 1 0-2M171 120a1 1 0 1 1 0 2 1 1 0 0 1 0-2M185 120a1 1 0 1 1 0 2 1 1 0 0 1 0-2M199 120a1 1 0 1 1 0 2 1 1 0 0 1 0-2M213 120a1 1 0 1 1 0 2 1 1 0 0 1 0-2M227 120a1 1 0 1 1 0 2 1 1 0 0 1 0-2M241 120a1 1 0 1 1 0 2 1 1 0 0 1 0-2M255 120a1 1 0 1 1 0 2 1 1 0 0 1 0-2M269 120a1 1 0 1 1 0 2 1 1 0 0 1 0-2M283 120a1 1 0 1 1 0 2 1 1 0 0 1 0-2M297 120a1 1 0 1 1 0 2 1 1 0 0 1 0-2M311 120a1 1 0 1 1 0 2 1 1 0 0 1 0-2M325 120a1 1 0 1 1 0 2 1 1 0 0 1 0-2M339 120a1 1 0 1 1 0 2 1 1 0 0 1 0-2M353 120a1 1 0 1 1 0 2 1 1 0 0 1 0-2M367 120a1 1 0 1 1 0 2 1 1 0 0 1 0-2M381 120a1 1 0 1 1 0 2 1 1 0 0 1 0-2M395 120a1 1 0 1 1 0 2 1 1 0 0 1 0-2M409 120a1 1 0 1 1 0 2 1 1 0 0 1 0-2M423 120a1 1 0 1 1 0 2 1 1 0 0 1 0-2M437 120a1 1 0 1 1 0 2 1 1 0 0 1 0-2M451 120a1 1 0 1 1 0 2 1 1 0 0 1 0-2M465 120a1 1 0 1 1 0 2 1 1 0 0 1 0-2M479 120a1 1 0 1 1 0 2 1 1 0 0 1 0-2M493 120a1 1 0 1 1 0 2 1 1 0 0 1 0-2M507 120a1 1 0 1 1 0 2 1 1 0 0 1 0-2M521 120a1 1 0 1 1 0 2 1 1 0 0 1 0-2M535 120a1 1 0 1 1 0 2 1 1 0 0 1 0-2M549 120a1 1 0 1 1 0 2 1 1 0 0 1 0-2M563 120a1 1 0 1 1 0 2 1 1 0 0 1 0-2M577 120a1 1 0 1 1 0 2 1 1 0 0 1 0-2M591 120a1 1 0 1 1 0 2 1 1 0 0 1 0-2M605 120a1 1 0 1 1 0 2 1 1 0 0 1 0-2M619 120a1 1 0 1 1 0 2 1 1 0 0 1 0-2M633 120a1 1 0 1 1 0 2 1 1 0 0 1 0-2M647 120a1 1 0 1 1 0 2 1 1 0 0 1 0-2M661 120a1 1 0 1 1 0 2 1 1 0 0 1 0-2M675 120a1 1 0 1 1 0 2 1 1 0 0 1 0-2M689 120a1 1 0 1 1 0 2 1 1 0 0 1 0-2M703 120a1 1 0 1 1 0 2 1 1 0 0 1 0-2M717 120a1 1 0 1 1 0 2 1 1 0 0 1 0-2M-11 106a1 1 0 1 1 0 2 1 1 0 0 1 0-2M3 106a1 1 0 1 1 0 2 1 1 0 0 1 0-2M17 106a1 1 0 1 1 0 2 1 1 0 0 1 0-2M31 106a1 1 0 1 1 0 2 1 1 0 0 1 0-2M45 106a1 1 0 1 1 0 2 1 1 0 0 1 0-2M59 106a1 1 0 1 1 0 2 1 1 0 0 1 0-2M73 106a1 1 0 1 1 0 2 1 1 0 0 1 0-2M87 106a1 1 0 1 1 0 2 1 1 0 0 1 0-2M101 106a1 1 0 1 1 0 2 1 1 0 0 1 0-2M115 106a1 1 0 1 1 0 2 1 1 0 0 1 0-2M129 106a1 1 0 1 1 0 2 1 1 0 0 1 0-2M143 106a1 1 0 1 1 0 2 1 1 0 0 1 0-2M157 106a1 1 0 1 1 0 2 1 1 0 0 1 0-2M171 106a1 1 0 1 1 0 2 1 1 0 0 1 0-2M185 106a1 1 0 1 1 0 2 1 1 0 0 1 0-2M199 106a1 1 0 1 1 0 2 1 1 0 0 1 0-2M213 106a1 1 0 1 1 0 2 1 1 0 0 1 0-2M227 106a1 1 0 1 1 0 2 1 1 0 0 1 0-2M241 106a1 1 0 1 1 0 2 1 1 0 0 1 0-2M255 106a1 1 0 1 1 0 2 1 1 0 0 1 0-2M269 106a1 1 0 1 1 0 2 1 1 0 0 1 0-2M283 106a1 1 0 1 1 0 2 1 1 0 0 1 0-2M297 106a1 1 0 1 1 0 2 1 1 0 0 1 0-2M311 106a1 1 0 1 1 0 2 1 1 0 0 1 0-2M325 106a1 1 0 1 1 0 2 1 1 0 0 1 0-2M339 106a1 1 0 1 1 0 2 1 1 0 0 1 0-2M353 106a1 1 0 1 1 0 2 1 1 0 0 1 0-2M367 106a1 1 0 1 1 0 2 1 1 0 0 1 0-2M381 106a1 1 0 1 1 0 2 1 1 0 0 1 0-2M395 106a1 1 0 1 1 0 2 1 1 0 0 1 0-2M409 106a1 1 0 1 1 0 2 1 1 0 0 1 0-2M423 106a1 1 0 1 1 0 2 1 1 0 0 1 0-2M437 106a1 1 0 1 1 0 2 1 1 0 0 1 0-2M451 106a1 1 0 1 1 0 2 1 1 0 0 1 0-2M465 106a1 1 0 1 1 0 2 1 1 0 0 1 0-2M479 106a1 1 0 1 1 0 2 1 1 0 0 1 0-2M493 106a1 1 0 1 1 0 2 1 1 0 0 1 0-2M507 106a1 1 0 1 1 0 2 1 1 0 0 1 0-2M521 106a1 1 0 1 1 0 2 1 1 0 0 1 0-2M535 106a1 1 0 1 1 0 2 1 1 0 0 1 0-2M549 106a1 1 0 1 1 0 2 1 1 0 0 1 0-2M563 106a1 1 0 1 1 0 2 1 1 0 0 1 0-2M577 106a1 1 0 1 1 0 2 1 1 0 0 1 0-2M591 106a1 1 0 1 1 0 2 1 1 0 0 1 0-2M605 106a1 1 0 1 1 0 2 1 1 0 0 1 0-2M619 106a1 1 0 1 1 0 2 1 1 0 0 1 0-2M633 106a1 1 0 1 1 0 2 1 1 0 0 1 0-2M647 106a1 1 0 1 1 0 2 1 1 0 0 1 0-2M661 106a1 1 0 1 1 0 2 1 1 0 0 1 0-2M675 106a1 1 0 1 1 0 2 1 1 0 0 1 0-2M689 106a1 1 0 1 1 0 2 1 1 0 0 1 0-2M703 106a1 1 0 1 1 0 2 1 1 0 0 1 0-2M717 106a1 1 0 1 1 0 2 1 1 0 0 1 0-2M-11 92a1 1 0 1 1 0 2 1 1 0 0 1 0-2M3 92a1 1 0 1 1 0 2 1 1 0 0 1 0-2M17 92a1 1 0 1 1 0 2 1 1 0 0 1 0-2M31 92a1 1 0 1 1 0 2 1 1 0 0 1 0-2M45 92a1 1 0 1 1 0 2 1 1 0 0 1 0-2M59 92a1 1 0 1 1 0 2 1 1 0 0 1 0-2M73 92a1 1 0 1 1 0 2 1 1 0 0 1 0-2M87 92a1 1 0 1 1 0 2 1 1 0 0 1 0-2M101 92a1 1 0 1 1 0 2 1 1 0 0 1 0-2M115 92a1 1 0 1 1 0 2 1 1 0 0 1 0-2M129 92a1 1 0 1 1 0 2 1 1 0 0 1 0-2M143 92a1 1 0 1 1 0 2 1 1 0 0 1 0-2M157 92a1 1 0 1 1 0 2 1 1 0 0 1 0-2M171 92a1 1 0 1 1 0 2 1 1 0 0 1 0-2M185 92a1 1 0 1 1 0 2 1 1 0 0 1 0-2M199 92a1 1 0 1 1 0 2 1 1 0 0 1 0-2M213 92a1 1 0 1 1 0 2 1 1 0 0 1 0-2M227 92a1 1 0 1 1 0 2 1 1 0 0 1 0-2M241 92a1 1 0 1 1 0 2 1 1 0 0 1 0-2M255 92a1 1 0 1 1 0 2 1 1 0 0 1 0-2M269 92a1 1 0 1 1 0 2 1 1 0 0 1 0-2M283 92a1 1 0 1 1 0 2 1 1 0 0 1 0-2M297 92a1 1 0 1 1 0 2 1 1 0 0 1 0-2M311 92a1 1 0 1 1 0 2 1 1 0 0 1 0-2M325 92a1 1 0 1 1 0 2 1 1 0 0 1 0-2M339 92a1 1 0 1 1 0 2 1 1 0 0 1 0-2M353 92a1 1 0 1 1 0 2 1 1 0 0 1 0-2M367 92a1 1 0 1 1 0 2 1 1 0 0 1 0-2M381 92a1 1 0 1 1 0 2 1 1 0 0 1 0-2M395 92a1 1 0 1 1 0 2 1 1 0 0 1 0-2M409 92a1 1 0 1 1 0 2 1 1 0 0 1 0-2M423 92a1 1 0 1 1 0 2 1 1 0 0 1 0-2M437 92a1 1 0 1 1 0 2 1 1 0 0 1 0-2M451 92a1 1 0 1 1 0 2 1 1 0 0 1 0-2M465 92a1 1 0 1 1 0 2 1 1 0 0 1 0-2M479 92a1 1 0 1 1 0 2 1 1 0 0 1 0-2M493 92a1 1 0 1 1 0 2 1 1 0 0 1 0-2M507 92a1 1 0 1 1 0 2 1 1 0 0 1 0-2M521 92a1 1 0 1 1 0 2 1 1 0 0 1 0-2M535 92a1 1 0 1 1 0 2 1 1 0 0 1 0-2M549 92a1 1 0 1 1 0 2 1 1 0 0 1 0-2M563 92a1 1 0 1 1 0 2 1 1 0 0 1 0-2M577 92a1 1 0 1 1 0 2 1 1 0 0 1 0-2M591 92a1 1 0 1 1 0 2 1 1 0 0 1 0-2M605 92a1 1 0 1 1 0 2 1 1 0 0 1 0-2M619 92a1 1 0 1 1 0 2 1 1 0 0 1 0-2M633 92a1 1 0 1 1 0 2 1 1 0 0 1 0-2M647 92a1 1 0 1 1 0 2 1 1 0 0 1 0-2M661 92a1 1 0 1 1 0 2 1 1 0 0 1 0-2M675 92a1 1 0 1 1 0 2 1 1 0 0 1 0-2M689 92a1 1 0 1 1 0 2 1 1 0 0 1 0-2M703 92a1 1 0 1 1 0 2 1 1 0 0 1 0-2M717 92a1 1 0 1 1 0 2 1 1 0 0 1 0-2M-11 78a1 1 0 1 1 0 2 1 1 0 0 1 0-2M3 78a1 1 0 1 1 0 2 1 1 0 0 1 0-2M17 78a1 1 0 1 1 0 2 1 1 0 0 1 0-2M31 78a1 1 0 1 1 0 2 1 1 0 0 1 0-2M45 78a1 1 0 1 1 0 2 1 1 0 0 1 0-2M59 78a1 1 0 1 1 0 2 1 1 0 0 1 0-2M73 78a1 1 0 1 1 0 2 1 1 0 0 1 0-2M87 78a1 1 0 1 1 0 2 1 1 0 0 1 0-2M101 78a1 1 0 1 1 0 2 1 1 0 0 1 0-2M115 78a1 1 0 1 1 0 2 1 1 0 0 1 0-2M129 78a1 1 0 1 1 0 2 1 1 0 0 1 0-2M143 78a1 1 0 1 1 0 2 1 1 0 0 1 0-2M157 78a1 1 0 1 1 0 2 1 1 0 0 1 0-2M171 78a1 1 0 1 1 0 2 1 1 0 0 1 0-2M185 78a1 1 0 1 1 0 2 1 1 0 0 1 0-2M199 78a1 1 0 1 1 0 2 1 1 0 0 1 0-2M213 78a1 1 0 1 1 0 2 1 1 0 0 1 0-2M227 78a1 1 0 1 1 0 2 1 1 0 0 1 0-2M241 78a1 1 0 1 1 0 2 1 1 0 0 1 0-2M255 78a1 1 0 1 1 0 2 1 1 0 0 1 0-2M269 78a1 1 0 1 1 0 2 1 1 0 0 1 0-2M283 78a1 1 0 1 1 0 2 1 1 0 0 1 0-2M297 78a1 1 0 1 1 0 2 1 1 0 0 1 0-2M311 78a1 1 0 1 1 0 2 1 1 0 0 1 0-2M325 78a1 1 0 1 1 0 2 1 1 0 0 1 0-2M339 78a1 1 0 1 1 0 2 1 1 0 0 1 0-2M353 78a1 1 0 1 1 0 2 1 1 0 0 1 0-2M367 78a1 1 0 1 1 0 2 1 1 0 0 1 0-2M381 78a1 1 0 1 1 0 2 1 1 0 0 1 0-2M395 78a1 1 0 1 1 0 2 1 1 0 0 1 0-2M409 78a1 1 0 1 1 0 2 1 1 0 0 1 0-2M423 78a1 1 0 1 1 0 2 1 1 0 0 1 0-2M437 78a1 1 0 1 1 0 2 1 1 0 0 1 0-2M451 78a1 1 0 1 1 0 2 1 1 0 0 1 0-2M465 78a1 1 0 1 1 0 2 1 1 0 0 1 0-2M479 78a1 1 0 1 1 0 2 1 1 0 0 1 0-2M493 78a1 1 0 1 1 0 2 1 1 0 0 1 0-2M507 78a1 1 0 1 1 0 2 1 1 0 0 1 0-2M521 78a1 1 0 1 1 0 2 1 1 0 0 1 0-2M535 78a1 1 0 1 1 0 2 1 1 0 0 1 0-2M549 78a1 1 0 1 1 0 2 1 1 0 0 1 0-2M563 78a1 1 0 1 1 0 2 1 1 0 0 1 0-2M577 78a1 1 0 1 1 0 2 1 1 0 0 1 0-2M591 78a1 1 0 1 1 0 2 1 1 0 0 1 0-2M605 78a1 1 0 1 1 0 2 1 1 0 0 1 0-2M619 78a1 1 0 1 1 0 2 1 1 0 0 1 0-2M633 78a1 1 0 1 1 0 2 1 1 0 0 1 0-2M647 78a1 1 0 1 1 0 2 1 1 0 0 1 0-2M661 78a1 1 0 1 1 0 2 1 1 0 0 1 0-2M675 78a1 1 0 1 1 0 2 1 1 0 0 1 0-2M689 78a1 1 0 1 1 0 2 1 1 0 0 1 0-2M703 78a1 1 0 1 1 0 2 1 1 0 0 1 0-2M717 78a1 1 0 1 1 0 2 1 1 0 0 1 0-2M-11 64a1 1 0 1 1 0 2 1 1 0 0 1 0-2M3 64a1 1 0 1 1 0 2 1 1 0 0 1 0-2M17 64a1 1 0 1 1 0 2 1 1 0 0 1 0-2M31 64a1 1 0 1 1 0 2 1 1 0 0 1 0-2M45 64a1 1 0 1 1 0 2 1 1 0 0 1 0-2M59 64a1 1 0 1 1 0 2 1 1 0 0 1 0-2M73 64a1 1 0 1 1 0 2 1 1 0 0 1 0-2M87 64a1 1 0 1 1 0 2 1 1 0 0 1 0-2M101 64a1 1 0 1 1 0 2 1 1 0 0 1 0-2M115 64a1 1 0 1 1 0 2 1 1 0 0 1 0-2M129 64a1 1 0 1 1 0 2 1 1 0 0 1 0-2M143 64a1 1 0 1 1 0 2 1 1 0 0 1 0-2M157 64a1 1 0 1 1 0 2 1 1 0 0 1 0-2M171 64a1 1 0 1 1 0 2 1 1 0 0 1 0-2M185 64a1 1 0 1 1 0 2 1 1 0 0 1 0-2M199 64a1 1 0 1 1 0 2 1 1 0 0 1 0-2M213 64a1 1 0 1 1 0 2 1 1 0 0 1 0-2M227 64a1 1 0 1 1 0 2 1 1 0 0 1 0-2M241 64a1 1 0 1 1 0 2 1 1 0 0 1 0-2M255 64a1 1 0 1 1 0 2 1 1 0 0 1 0-2M269 64a1 1 0 1 1 0 2 1 1 0 0 1 0-2M283 64a1 1 0 1 1 0 2 1 1 0 0 1 0-2M297 64a1 1 0 1 1 0 2 1 1 0 0 1 0-2M311 64a1 1 0 1 1 0 2 1 1 0 0 1 0-2M325 64a1 1 0 1 1 0 2 1 1 0 0 1 0-2M339 64a1 1 0 1 1 0 2 1 1 0 0 1 0-2M353 64a1 1 0 1 1 0 2 1 1 0 0 1 0-2M367 64a1 1 0 1 1 0 2 1 1 0 0 1 0-2M381 64a1 1 0 1 1 0 2 1 1 0 0 1 0-2M395 64a1 1 0 1 1 0 2 1 1 0 0 1 0-2M409 64a1 1 0 1 1 0 2 1 1 0 0 1 0-2M423 64a1 1 0 1 1 0 2 1 1 0 0 1 0-2M437 64a1 1 0 1 1 0 2 1 1 0 0 1 0-2M451 64a1 1 0 1 1 0 2 1 1 0 0 1 0-2M465 64a1 1 0 1 1 0 2 1 1 0 0 1 0-2M479 64a1 1 0 1 1 0 2 1 1 0 0 1 0-2M493 64a1 1 0 1 1 0 2 1 1 0 0 1 0-2M507 64a1 1 0 1 1 0 2 1 1 0 0 1 0-2M521 64a1 1 0 1 1 0 2 1 1 0 0 1 0-2M535 64a1 1 0 1 1 0 2 1 1 0 0 1 0-2M549 64a1 1 0 1 1 0 2 1 1 0 0 1 0-2M563 64a1 1 0 1 1 0 2 1 1 0 0 1 0-2M577 64a1 1 0 1 1 0 2 1 1 0 0 1 0-2M591 64a1 1 0 1 1 0 2 1 1 0 0 1 0-2M605 64a1 1 0 1 1 0 2 1 1 0 0 1 0-2M619 64a1 1 0 1 1 0 2 1 1 0 0 1 0-2M633 64a1 1 0 1 1 0 2 1 1 0 0 1 0-2M647 64a1 1 0 1 1 0 2 1 1 0 0 1 0-2M661 64a1 1 0 1 1 0 2 1 1 0 0 1 0-2M675 64a1 1 0 1 1 0 2 1 1 0 0 1 0-2M689 64a1 1 0 1 1 0 2 1 1 0 0 1 0-2M703 64a1 1 0 1 1 0 2 1 1 0 0 1 0-2M717 64a1 1 0 1 1 0 2 1 1 0 0 1 0-2M-11 50a1 1 0 1 1 0 2 1 1 0 0 1 0-2M3 50a1 1 0 1 1 0 2 1 1 0 0 1 0-2M17 50a1 1 0 1 1 0 2 1 1 0 0 1 0-2M31 50a1 1 0 1 1 0 2 1 1 0 0 1 0-2M45 50a1 1 0 1 1 0 2 1 1 0 0 1 0-2M59 50a1 1 0 1 1 0 2 1 1 0 0 1 0-2M73 50a1 1 0 1 1 0 2 1 1 0 0 1 0-2M87 50a1 1 0 1 1 0 2 1 1 0 0 1 0-2M101 50a1 1 0 1 1 0 2 1 1 0 0 1 0-2M115 50a1 1 0 1 1 0 2 1 1 0 0 1 0-2M129 50a1 1 0 1 1 0 2 1 1 0 0 1 0-2M143 50a1 1 0 1 1 0 2 1 1 0 0 1 0-2M157 50a1 1 0 1 1 0 2 1 1 0 0 1 0-2M171 50a1 1 0 1 1 0 2 1 1 0 0 1 0-2M185 50a1 1 0 1 1 0 2 1 1 0 0 1 0-2M199 50a1 1 0 1 1 0 2 1 1 0 0 1 0-2M213 50a1 1 0 1 1 0 2 1 1 0 0 1 0-2M227 50a1 1 0 1 1 0 2 1 1 0 0 1 0-2M241 50a1 1 0 1 1 0 2 1 1 0 0 1 0-2M255 50a1 1 0 1 1 0 2 1 1 0 0 1 0-2M269 50a1 1 0 1 1 0 2 1 1 0 0 1 0-2M283 50a1 1 0 1 1 0 2 1 1 0 0 1 0-2M297 50a1 1 0 1 1 0 2 1 1 0 0 1 0-2M311 50a1 1 0 1 1 0 2 1 1 0 0 1 0-2M325 50a1 1 0 1 1 0 2 1 1 0 0 1 0-2M339 50a1 1 0 1 1 0 2 1 1 0 0 1 0-2M353 50a1 1 0 1 1 0 2 1 1 0 0 1 0-2M367 50a1 1 0 1 1 0 2 1 1 0 0 1 0-2M381 50a1 1 0 1 1 0 2 1 1 0 0 1 0-2M395 50a1 1 0 1 1 0 2 1 1 0 0 1 0-2M409 50a1 1 0 1 1 0 2 1 1 0 0 1 0-2M423 50a1 1 0 1 1 0 2 1 1 0 0 1 0-2M437 50a1 1 0 1 1 0 2 1 1 0 0 1 0-2M451 50a1 1 0 1 1 0 2 1 1 0 0 1 0-2M465 50a1 1 0 1 1 0 2 1 1 0 0 1 0-2M479 50a1 1 0 1 1 0 2 1 1 0 0 1 0-2M493 50a1 1 0 1 1 0 2 1 1 0 0 1 0-2M507 50a1 1 0 1 1 0 2 1 1 0 0 1 0-2M521 50a1 1 0 1 1 0 2 1 1 0 0 1 0-2M535 50a1 1 0 1 1 0 2 1 1 0 0 1 0-2M549 50a1 1 0 1 1 0 2 1 1 0 0 1 0-2M563 50a1 1 0 1 1 0 2 1 1 0 0 1 0-2M577 50a1 1 0 1 1 0 2 1 1 0 0 1 0-2M591 50a1 1 0 1 1 0 2 1 1 0 0 1 0-2M605 50a1 1 0 1 1 0 2 1 1 0 0 1 0-2M619 50a1 1 0 1 1 0 2 1 1 0 0 1 0-2M633 50a1 1 0 1 1 0 2 1 1 0 0 1 0-2M647 50a1 1 0 1 1 0 2 1 1 0 0 1 0-2M661 50a1 1 0 1 1 0 2 1 1 0 0 1 0-2M675 50a1 1 0 1 1 0 2 1 1 0 0 1 0-2M689 50a1 1 0 1 1 0 2 1 1 0 0 1 0-2M703 50a1 1 0 1 1 0 2 1 1 0 0 1 0-2M717 50a1 1 0 1 1 0 2 1 1 0 0 1 0-2M-11 36a1 1 0 1 1 0 2 1 1 0 0 1 0-2M3 36a1 1 0 1 1 0 2 1 1 0 0 1 0-2M17 36a1 1 0 1 1 0 2 1 1 0 0 1 0-2M31 36a1 1 0 1 1 0 2 1 1 0 0 1 0-2M45 36a1 1 0 1 1 0 2 1 1 0 0 1 0-2M59 36a1 1 0 1 1 0 2 1 1 0 0 1 0-2M73 36a1 1 0 1 1 0 2 1 1 0 0 1 0-2M87 36a1 1 0 1 1 0 2 1 1 0 0 1 0-2M101 36a1 1 0 1 1 0 2 1 1 0 0 1 0-2M115 36a1 1 0 1 1 0 2 1 1 0 0 1 0-2M129 36a1 1 0 1 1 0 2 1 1 0 0 1 0-2M143 36a1 1 0 1 1 0 2 1 1 0 0 1 0-2M157 36a1 1 0 1 1 0 2 1 1 0 0 1 0-2M171 36a1 1 0 1 1 0 2 1 1 0 0 1 0-2M185 36a1 1 0 1 1 0 2 1 1 0 0 1 0-2M199 36a1 1 0 1 1 0 2 1 1 0 0 1 0-2M213 36a1 1 0 1 1 0 2 1 1 0 0 1 0-2M227 36a1 1 0 1 1 0 2 1 1 0 0 1 0-2M241 36a1 1 0 1 1 0 2 1 1 0 0 1 0-2M255 36a1 1 0 1 1 0 2 1 1 0 0 1 0-2M269 36a1 1 0 1 1 0 2 1 1 0 0 1 0-2M283 36a1 1 0 1 1 0 2 1 1 0 0 1 0-2M297 36a1 1 0 1 1 0 2 1 1 0 0 1 0-2M311 36a1 1 0 1 1 0 2 1 1 0 0 1 0-2M325 36a1 1 0 1 1 0 2 1 1 0 0 1 0-2M339 36a1 1 0 1 1 0 2 1 1 0 0 1 0-2M353 36a1 1 0 1 1 0 2 1 1 0 0 1 0-2M367 36a1 1 0 1 1 0 2 1 1 0 0 1 0-2M381 36a1 1 0 1 1 0 2 1 1 0 0 1 0-2M395 36a1 1 0 1 1 0 2 1 1 0 0 1 0-2M409 36a1 1 0 1 1 0 2 1 1 0 0 1 0-2M423 36a1 1 0 1 1 0 2 1 1 0 0 1 0-2M437 36a1 1 0 1 1 0 2 1 1 0 0 1 0-2M451 36a1 1 0 1 1 0 2 1 1 0 0 1 0-2M465 36a1 1 0 1 1 0 2 1 1 0 0 1 0-2M479 36a1 1 0 1 1 0 2 1 1 0 0 1 0-2M493 36a1 1 0 1 1 0 2 1 1 0 0 1 0-2M507 36a1 1 0 1 1 0 2 1 1 0 0 1 0-2M521 36a1 1 0 1 1 0 2 1 1 0 0 1 0-2M535 36a1 1 0 1 1 0 2 1 1 0 0 1 0-2M549 36a1 1 0 1 1 0 2 1 1 0 0 1 0-2M563 36a1 1 0 1 1 0 2 1 1 0 0 1 0-2M577 36a1 1 0 1 1 0 2 1 1 0 0 1 0-2M591 36a1 1 0 1 1 0 2 1 1 0 0 1 0-2M605 36a1 1 0 1 1 0 2 1 1 0 0 1 0-2M619 36a1 1 0 1 1 0 2 1 1 0 0 1 0-2M633 36a1 1 0 1 1 0 2 1 1 0 0 1 0-2M647 36a1 1 0 1 1 0 2 1 1 0 0 1 0-2M661 36a1 1 0 1 1 0 2 1 1 0 0 1 0-2M675 36a1 1 0 1 1 0 2 1 1 0 0 1 0-2M689 36a1 1 0 1 1 0 2 1 1 0 0 1 0-2M703 36a1 1 0 1 1 0 2 1 1 0 0 1 0-2M717 36a1 1 0 1 1 0 2 1 1 0 0 1 0-2M-11 22a1 1 0 1 1 0 2 1 1 0 0 1 0-2M3 22a1 1 0 1 1 0 2 1 1 0 0 1 0-2M17 22a1 1 0 1 1 0 2 1 1 0 0 1 0-2M31 22a1 1 0 1 1 0 2 1 1 0 0 1 0-2M45 22a1 1 0 1 1 0 2 1 1 0 0 1 0-2M59 22a1 1 0 1 1 0 2 1 1 0 0 1 0-2M73 22a1 1 0 1 1 0 2 1 1 0 0 1 0-2M87 22a1 1 0 1 1 0 2 1 1 0 0 1 0-2M101 22a1 1 0 1 1 0 2 1 1 0 0 1 0-2M115 22a1 1 0 1 1 0 2 1 1 0 0 1 0-2M129 22a1 1 0 1 1 0 2 1 1 0 0 1 0-2M143 22a1 1 0 1 1 0 2 1 1 0 0 1 0-2M157 22a1 1 0 1 1 0 2 1 1 0 0 1 0-2M171 22a1 1 0 1 1 0 2 1 1 0 0 1 0-2M185 22a1 1 0 1 1 0 2 1 1 0 0 1 0-2M199 22a1 1 0 1 1 0 2 1 1 0 0 1 0-2M213 22a1 1 0 1 1 0 2 1 1 0 0 1 0-2M227 22a1 1 0 1 1 0 2 1 1 0 0 1 0-2M241 22a1 1 0 1 1 0 2 1 1 0 0 1 0-2M255 22a1 1 0 1 1 0 2 1 1 0 0 1 0-2M269 22a1 1 0 1 1 0 2 1 1 0 0 1 0-2M283 22a1 1 0 1 1 0 2 1 1 0 0 1 0-2M297 22a1 1 0 1 1 0 2 1 1 0 0 1 0-2M311 22a1 1 0 1 1 0 2 1 1 0 0 1 0-2M325 22a1 1 0 1 1 0 2 1 1 0 0 1 0-2M339 22a1 1 0 1 1 0 2 1 1 0 0 1 0-2M353 22a1 1 0 1 1 0 2 1 1 0 0 1 0-2M367 22a1 1 0 1 1 0 2 1 1 0 0 1 0-2M381 22a1 1 0 1 1 0 2 1 1 0 0 1 0-2M395 22a1 1 0 1 1 0 2 1 1 0 0 1 0-2M409 22a1 1 0 1 1 0 2 1 1 0 0 1 0-2M423 22a1 1 0 1 1 0 2 1 1 0 0 1 0-2M437 22a1 1 0 1 1 0 2 1 1 0 0 1 0-2M451 22a1 1 0 1 1 0 2 1 1 0 0 1 0-2M465 22a1 1 0 1 1 0 2 1 1 0 0 1 0-2M479 22a1 1 0 1 1 0 2 1 1 0 0 1 0-2M493 22a1 1 0 1 1 0 2 1 1 0 0 1 0-2M507 22a1 1 0 1 1 0 2 1 1 0 0 1 0-2M521 22a1 1 0 1 1 0 2 1 1 0 0 1 0-2M535 22a1 1 0 1 1 0 2 1 1 0 0 1 0-2M549 22a1 1 0 1 1 0 2 1 1 0 0 1 0-2M563 22a1 1 0 1 1 0 2 1 1 0 0 1 0-2M577 22a1 1 0 1 1 0 2 1 1 0 0 1 0-2M591 22a1 1 0 1 1 0 2 1 1 0 0 1 0-2M605 22a1 1 0 1 1 0 2 1 1 0 0 1 0-2M619 22a1 1 0 1 1 0 2 1 1 0 0 1 0-2M633 22a1 1 0 1 1 0 2 1 1 0 0 1 0-2M647 22a1 1 0 1 1 0 2 1 1 0 0 1 0-2M661 22a1 1 0 1 1 0 2 1 1 0 0 1 0-2M675 22a1 1 0 1 1 0 2 1 1 0 0 1 0-2M689 22a1 1 0 1 1 0 2 1 1 0 0 1 0-2M703 22a1 1 0 1 1 0 2 1 1 0 0 1 0-2M717 22a1 1 0 1 1 0 2 1 1 0 0 1 0-2M-11 8a1 1 0 1 1 0 2 1 1 0 0 1 0-2M3 8a1 1 0 1 1 0 2 1 1 0 0 1 0-2M17 8a1 1 0 1 1 0 2 1 1 0 0 1 0-2M31 8a1 1 0 1 1 0 2 1 1 0 0 1 0-2M45 8a1 1 0 1 1 0 2 1 1 0 0 1 0-2M59 8a1 1 0 1 1 0 2 1 1 0 0 1 0-2M73 8a1 1 0 1 1 0 2 1 1 0 0 1 0-2M87 8a1 1 0 1 1 0 2 1 1 0 0 1 0-2M101 8a1 1 0 1 1 0 2 1 1 0 0 1 0-2M115 8a1 1 0 1 1 0 2 1 1 0 0 1 0-2M129 8a1 1 0 1 1 0 2 1 1 0 0 1 0-2M143 8a1 1 0 1 1 0 2 1 1 0 0 1 0-2M157 8a1 1 0 1 1 0 2 1 1 0 0 1 0-2M171 8a1 1 0 1 1 0 2 1 1 0 0 1 0-2M185 8a1 1 0 1 1 0 2 1 1 0 0 1 0-2M199 8a1 1 0 1 1 0 2 1 1 0 0 1 0-2M213 8a1 1 0 1 1 0 2 1 1 0 0 1 0-2M227 8a1 1 0 1 1 0 2 1 1 0 0 1 0-2M241 8a1 1 0 1 1 0 2 1 1 0 0 1 0-2M255 8a1 1 0 1 1 0 2 1 1 0 0 1 0-2M269 8a1 1 0 1 1 0 2 1 1 0 0 1 0-2M283 8a1 1 0 1 1 0 2 1 1 0 0 1 0-2M297 8a1 1 0 1 1 0 2 1 1 0 0 1 0-2M311 8a1 1 0 1 1 0 2 1 1 0 0 1 0-2M325 8a1 1 0 1 1 0 2 1 1 0 0 1 0-2M339 8a1 1 0 1 1 0 2 1 1 0 0 1 0-2M353 8a1 1 0 1 1 0 2 1 1 0 0 1 0-2M367 8a1 1 0 1 1 0 2 1 1 0 0 1 0-2M381 8a1 1 0 1 1 0 2 1 1 0 0 1 0-2M395 8a1 1 0 1 1 0 2 1 1 0 0 1 0-2M409 8a1 1 0 1 1 0 2 1 1 0 0 1 0-2M423 8a1 1 0 1 1 0 2 1 1 0 0 1 0-2M437 8a1 1 0 1 1 0 2 1 1 0 0 1 0-2M451 8a1 1 0 1 1 0 2 1 1 0 0 1 0-2M465 8a1 1 0 1 1 0 2 1 1 0 0 1 0-2M479 8a1 1 0 1 1 0 2 1 1 0 0 1 0-2M493 8a1 1 0 1 1 0 2 1 1 0 0 1 0-2M507 8a1 1 0 1 1 0 2 1 1 0 0 1 0-2M521 8a1 1 0 1 1 0 2 1 1 0 0 1 0-2M535 8a1 1 0 1 1 0 2 1 1 0 0 1 0-2M549 8a1 1 0 1 1 0 2 1 1 0 0 1 0-2M563 8a1 1 0 1 1 0 2 1 1 0 0 1 0-2M577 8a1 1 0 1 1 0 2 1 1 0 0 1 0-2M591 8a1 1 0 1 1 0 2 1 1 0 0 1 0-2M605 8a1 1 0 1 1 0 2 1 1 0 0 1 0-2M619 8a1 1 0 1 1 0 2 1 1 0 0 1 0-2M633 8a1 1 0 1 1 0 2 1 1 0 0 1 0-2M647 8a1 1 0 1 1 0 2 1 1 0 0 1 0-2M661 8a1 1 0 1 1 0 2 1 1 0 0 1 0-2M675 8a1 1 0 1 1 0 2 1 1 0 0 1 0-2M689 8a1 1 0 1 1 0 2 1 1 0 0 1 0-2M703 8a1 1 0 1 1 0 2 1 1 0 0 1 0-2M717 8a1 1 0 1 1 0 2 1 1 0 0 1 0-2M-11-6a1 1 0 1 1 0 2 1 1 0 0 1 0-2M3-6a1 1 0 1 1 0 2 1 1 0 0 1 0-2M17-6a1 1 0 1 1 0 2 1 1 0 0 1 0-2M31-6a1 1 0 1 1 0 2 1 1 0 0 1 0-2M45-6a1 1 0 1 1 0 2 1 1 0 0 1 0-2M59-6a1 1 0 1 1 0 2 1 1 0 0 1 0-2M73-6a1 1 0 1 1 0 2 1 1 0 0 1 0-2M87-6a1 1 0 1 1 0 2 1 1 0 0 1 0-2M101-6a1 1 0 1 1 0 2 1 1 0 0 1 0-2M115-6a1 1 0 1 1 0 2 1 1 0 0 1 0-2M129-6a1 1 0 1 1 0 2 1 1 0 0 1 0-2M143-6a1 1 0 1 1 0 2 1 1 0 0 1 0-2M157-6a1 1 0 1 1 0 2 1 1 0 0 1 0-2M171-6a1 1 0 1 1 0 2 1 1 0 0 1 0-2M185-6a1 1 0 1 1 0 2 1 1 0 0 1 0-2M199-6a1 1 0 1 1 0 2 1 1 0 0 1 0-2M213-6a1 1 0 1 1 0 2 1 1 0 0 1 0-2M227-6a1 1 0 1 1 0 2 1 1 0 0 1 0-2M241-6a1 1 0 1 1 0 2 1 1 0 0 1 0-2M255-6a1 1 0 1 1 0 2 1 1 0 0 1 0-2M269-6a1 1 0 1 1 0 2 1 1 0 0 1 0-2M283-6a1 1 0 1 1 0 2 1 1 0 0 1 0-2M297-6a1 1 0 1 1 0 2 1 1 0 0 1 0-2M311-6a1 1 0 1 1 0 2 1 1 0 0 1 0-2M325-6a1 1 0 1 1 0 2 1 1 0 0 1 0-2M339-6a1 1 0 1 1 0 2 1 1 0 0 1 0-2M353-6a1 1 0 1 1 0 2 1 1 0 0 1 0-2M367-6a1 1 0 1 1 0 2 1 1 0 0 1 0-2M381-6a1 1 0 1 1 0 2 1 1 0 0 1 0-2M395-6a1 1 0 1 1 0 2 1 1 0 0 1 0-2M409-6a1 1 0 1 1 0 2 1 1 0 0 1 0-2M423-6a1 1 0 1 1 0 2 1 1 0 0 1 0-2M437-6a1 1 0 1 1 0 2 1 1 0 0 1 0-2M451-6a1 1 0 1 1 0 2 1 1 0 0 1 0-2M465-6a1 1 0 1 1 0 2 1 1 0 0 1 0-2M479-6a1 1 0 1 1 0 2 1 1 0 0 1 0-2M493-6a1 1 0 1 1 0 2 1 1 0 0 1 0-2M507-6a1 1 0 1 1 0 2 1 1 0 0 1 0-2M521-6a1 1 0 1 1 0 2 1 1 0 0 1 0-2M535-6a1 1 0 1 1 0 2 1 1 0 0 1 0-2M549-6a1 1 0 1 1 0 2 1 1 0 0 1 0-2M563-6a1 1 0 1 1 0 2 1 1 0 0 1 0-2M577-6a1 1 0 1 1 0 2 1 1 0 0 1 0-2M591-6a1 1 0 1 1 0 2 1 1 0 0 1 0-2M605-6a1 1 0 1 1 0 2 1 1 0 0 1 0-2M619-6a1 1 0 1 1 0 2 1 1 0 0 1 0-2M633-6a1 1 0 1 1 0 2 1 1 0 0 1 0-2M647-6a1 1 0 1 1 0 2 1 1 0 0 1 0-2M661-6a1 1 0 1 1 0 2 1 1 0 0 1 0-2M675-6a1 1 0 1 1 0 2 1 1 0 0 1 0-2M689-6a1 1 0 1 1 0 2 1 1 0 0 1 0-2M703-6a1 1 0 1 1 0 2 1 1 0 0 1 0-2M717-6a1 1 0 1 1 0 2 1 1 0 0 1 0-2"/></g><path stroke="#3369ff" stroke-width="1.5" d="M140.333 65H100"/><rect width="8" height="8" x="139.333" y="61" fill="#3369ff" rx="1"/><path stroke="#3369ff" stroke-width="1.5" d="M186.666 65h-40.333M227 65h-40.333"/><rect width="8" height="8" x="226" y="61" fill="#3369ff" rx="1"/><path stroke="#3369ff" stroke-width="1.5" d="M273.333 65H233M313.666 65h-40.333"/><rect width="8" height="8" x="312.666" y="61" fill="#3369ff" rx="1"/><path stroke="#3369ff" stroke-width="1.5" d="M359.999 65h-40.333M400.333 65H360"/><rect width="8" height="8" x="399.333" y="61" fill="#3369ff" rx="1"/><path stroke="#888c96" stroke-width="1.5" d="M446.666 65h-40.333M487 65h-40.333"/><rect width="8" height="8" x="486" y="61" fill="#888c96" rx="1"/><path stroke="#888c96" stroke-width="1.5" d="M533.333 65H493M573.666 65h-40.333"/><rect width="8" height="8" x="572.666" y="61" fill="#888c96" rx="1"/><path stroke="#888c96" stroke-width="1.5" d="M619.999 65h-40.333"/><path stroke="#888c96" d="M100 81V49M620 81V49"/><rect width="96" height="26" x="356" y="14.5" fill="#23262f" rx="5.5"/><rect width="96" height="26" x="356" y="14.5" stroke="#3369ff" rx="5.5"/><path fill="#b3c7ff" d="M375.533 23.273V32h-1.407l-4.112-5.945h-.072V32h-1.581v-8.727h1.415l4.108 5.949h.076v-5.95zm4.509 8.855q-.959 0-1.662-.422a2.87 2.87 0 0 1-1.091-1.18q-.383-.759-.383-1.773t.383-1.777a2.87 2.87 0 0 1 1.091-1.185q.704-.422 1.662-.422.959 0 1.662.422.703.421 1.087 1.185.387.762.388 1.777 0 1.014-.388 1.773-.384.758-1.087 1.18-.704.422-1.662.422m.009-1.236q.52 0 .869-.285.35-.29.52-.776.174-.486.175-1.082 0-.601-.175-1.087a1.7 1.7 0 0 0-.52-.78q-.35-.29-.869-.29-.533 0-.887.29a1.75 1.75 0 0 0-.524.78q-.17.486-.17 1.087 0 .596.17 1.082.175.486.524.776.354.285.887.285m5.6 1.108-1.849-6.546h1.572l1.151 4.603h.06l1.176-4.602h1.555l1.176 4.576h.064l1.134-4.576h1.576L391.413 32h-1.607l-1.227-4.423h-.09L387.262 32zm15.636-4.999v1.27h-3.929v-1.27zm7.808 5.165q-1.053 0-1.807-.532-.75-.537-1.154-1.547-.401-1.015-.401-2.442.005-1.427.405-2.43.405-1.004 1.155-1.533.753-.529 1.802-.529t1.803.529q.754.529 1.155 1.534.404 1.005.404 2.429 0 1.431-.404 2.446-.4 1.01-1.155 1.543-.75.532-1.803.532m0-1.334q.819 0 1.291-.805.478-.81.478-2.382 0-1.04-.218-1.747-.217-.708-.613-1.066a1.35 1.35 0 0 0-.938-.362q-.813 0-1.287.81-.472.805-.477 2.365-.004 1.044.209 1.756.217.711.613 1.073.397.359.942.358m8.004 1.334q-1.053 0-1.807-.532-.75-.537-1.155-1.547-.4-1.015-.4-2.442.004-1.427.405-2.43.405-1.004 1.155-1.533.753-.529 1.802-.529t1.803.529q.753.529 1.154 1.534.405 1.005.405 2.429 0 1.431-.405 2.446-.4 1.01-1.154 1.543-.75.532-1.803.532m0-1.334q.819 0 1.291-.805.477-.81.478-2.382 0-1.04-.218-1.747-.217-.708-.613-1.066a1.35 1.35 0 0 0-.938-.362q-.815 0-1.287.81-.472.805-.477 2.365-.004 1.044.209 1.756.217.711.613 1.073.397.359.942.358m5.745.12a.91.91 0 0 1-.664-.273.9.9 0 0 1-.273-.665.87.87 0 0 1 .273-.656.91.91 0 0 1 .664-.273q.376 0 .652.273a.895.895 0 0 1 .15 1.13 1 1 0 0 1-.341.34.9.9 0 0 1-.461.124m0-4.326a.91.91 0 0 1-.664-.272.9.9 0 0 1-.273-.665.87.87 0 0 1 .273-.656.9.9 0 0 1 .664-.277.9.9 0 0 1 .652.277q.282.272.286.656a.9.9 0 0 1-.136.469 1 1 0 0 1-.341.34.87.87 0 0 1-.461.128m5.646 5.493q-.92 0-1.637-.315a2.74 2.74 0 0 1-1.125-.878 2.3 2.3 0 0 1-.439-1.3h1.603q.021.354.234.618.213.261.567.405t.792.145q.47 0 .831-.162a1.36 1.36 0 0 0 .567-.46q.205-.294.2-.678a1.18 1.18 0 0 0-.204-.698 1.37 1.37 0 0 0-.605-.474q-.393-.17-.946-.17h-.772v-1.219h.772q.455 0 .797-.157.345-.158.541-.444.196-.29.192-.669a1.17 1.17 0 0 0-.167-.643 1.1 1.1 0 0 0-.473-.43 1.55 1.55 0 0 0-.711-.154q-.4 0-.742.145-.34.145-.549.413a1.04 1.04 0 0 0-.222.631h-1.521a2.2 2.2 0 0 1 .422-1.287 2.7 2.7 0 0 1 1.09-.87q.682-.315 1.53-.315.874 0 1.517.329.648.323 1.002.873t.353 1.215q.004.737-.434 1.235-.435.5-1.142.652v.069q.92.128 1.41.681.495.55.49 1.368 0 .733-.417 1.313-.414.575-1.142.903-.724.328-1.662.328m7.718 0q-.853 0-1.525-.32a2.7 2.7 0 0 1-1.07-.886 2.35 2.35 0 0 1-.418-1.287h1.534q.043.537.465.878.422.337 1.014.337a1.6 1.6 0 0 0 .827-.213q.362-.213.571-.593.209-.378.204-.864a1.74 1.74 0 0 0-.208-.878 1.56 1.56 0 0 0-.584-.601 1.63 1.63 0 0 0-.853-.222 2 2 0 0 0-.771.145q-.38.15-.601.392l-1.427-.234.456-4.5h5.062v1.32h-3.754l-.251 2.315h.051q.242-.285.686-.473.443-.192.971-.192.793 0 1.415.375.623.37.98 1.023.358.651.358 1.491 0 .865-.4 1.543a2.84 2.84 0 0 1-1.104 1.06q-.703.384-1.628.384"/><path fill="#3369ff" d="M404 81h-1V49h1z"/><rect width="59" height="26" x="70.5" y="14.5" fill="#23262f" rx="5.5"/><rect width="59" height="26" x="70.5" y="14.5" stroke="#888c96" rx="5.5"/><path fill="#edeef3" d="M86.001 32.166q-1.052 0-1.806-.532-.75-.537-1.155-1.547-.4-1.015-.4-2.442.003-1.427.404-2.43.405-1.004 1.155-1.533.755-.529 1.802-.529 1.05 0 1.803.529.755.529 1.155 1.534.405 1.005.405 2.429 0 1.431-.405 2.446-.4 1.01-1.155 1.543-.75.532-1.803.532m0-1.334q.819 0 1.292-.805.477-.81.477-2.382 0-1.04-.217-1.747-.218-.708-.614-1.066A1.34 1.34 0 0 0 86 24.47q-.813 0-1.287.81-.472.805-.477 2.365-.004 1.044.209 1.756.218.711.614 1.073.396.359.941.358m8.004 1.334q-1.052 0-1.806-.532-.75-.537-1.155-1.547-.4-1.015-.4-2.442.003-1.427.404-2.43.405-1.004 1.155-1.533.754-.529 1.802-.529 1.05 0 1.803.529.755.529 1.155 1.534.405 1.005.405 2.429 0 1.431-.405 2.446-.4 1.01-1.155 1.543-.75.532-1.803.532m0-1.334q.819 0 1.291-.805.478-.81.478-2.382 0-1.04-.218-1.747-.217-.708-.613-1.066a1.34 1.34 0 0 0-.938-.362q-.813 0-1.287.81-.472.805-.477 2.365-.004 1.044.209 1.756.218.711.614 1.073.396.359.941.358m5.746.12a.91.91 0 0 1-.665-.273.9.9 0 0 1-.273-.665.87.87 0 0 1 .273-.656.91.91 0 0 1 .665-.273.9.9 0 0 1 .652.273.9.9 0 0 1 .149 1.13 1 1 0 0 1-.341.34.9.9 0 0 1-.46.124m0-4.326a.91.91 0 0 1-.665-.272.9.9 0 0 1-.273-.665.87.87 0 0 1 .273-.656.9.9 0 0 1 .665-.277q.375 0 .652.277.28.272.285.656a.978.978 0 0 1-.477.81.86.86 0 0 1-.46.127m5.739 5.54q-1.053 0-1.807-.532-.75-.537-1.155-1.547-.4-1.015-.401-2.442.005-1.427.405-2.43.405-1.004 1.155-1.533.754-.529 1.803-.529t1.802.529q.755.529 1.155 1.534.405 1.005.405 2.429 0 1.431-.405 2.446-.4 1.01-1.155 1.543-.75.532-1.802.532m0-1.334q.818 0 1.291-.805.477-.81.477-2.382 0-1.04-.217-1.747-.218-.708-.614-1.066a1.34 1.34 0 0 0-.937-.362q-.815 0-1.287.81-.474.805-.478 2.365-.004 1.044.209 1.756.218.711.614 1.073.396.359.942.358m8.004 1.334q-1.053 0-1.807-.532-.75-.537-1.155-1.547-.4-1.015-.401-2.442.005-1.427.405-2.43.405-1.004 1.155-1.533.754-.529 1.803-.529 1.047 0 1.802.529t1.155 1.534q.405 1.005.405 2.429 0 1.431-.405 2.446-.4 1.01-1.155 1.543-.75.532-1.802.532m0-1.334q.817 0 1.291-.805.477-.81.477-2.382 0-1.04-.217-1.747-.218-.708-.614-1.066a1.34 1.34 0 0 0-.937-.362q-.815 0-1.287.81-.474.805-.478 2.365-.003 1.044.209 1.756.218.711.614 1.073.396.359.942.358"/><rect width="57" height="26" x="591.5" y="14.5" fill="#23262f" rx="5.5"/><rect width="57" height="26" x="591.5" y="14.5" stroke="#888c96" rx="5.5"/><path fill="#edeef3" d="M607.001 32.166q-1.052 0-1.806-.532-.75-.537-1.155-1.547-.4-1.015-.401-2.442.005-1.427.405-2.43.405-1.004 1.155-1.533.755-.529 1.802-.529t1.803.529q.755.529 1.155 1.534.405 1.005.405 2.429 0 1.431-.405 2.446-.4 1.01-1.155 1.543-.75.532-1.803.532m0-1.334q.819 0 1.292-.805.477-.81.477-2.382 0-1.04-.217-1.747-.218-.708-.614-1.066a1.34 1.34 0 0 0-.938-.362q-.813 0-1.287.81-.472.805-.477 2.365-.004 1.044.209 1.756.217.711.614 1.073.396.359.941.358m8.328-7.56V32h-1.581v-7.189h-.051l-2.041 1.304v-1.449l2.169-1.393zm3.183 7.68a.91.91 0 0 1-.664-.273.9.9 0 0 1-.273-.665.87.87 0 0 1 .273-.656.91.91 0 0 1 .664-.273q.375 0 .652.273a.895.895 0 0 1 .15 1.13 1 1 0 0 1-.341.34.9.9 0 0 1-.461.124m0-4.326a.91.91 0 0 1-.664-.272.9.9 0 0 1-.273-.665.87.87 0 0 1 .273-.656.9.9 0 0 1 .664-.277.9.9 0 0 1 .652.277q.282.272.286.656a.9.9 0 0 1-.136.469 1 1 0 0 1-.341.34.87.87 0 0 1-.461.128m5.739 5.54q-1.052 0-1.806-.532-.75-.537-1.155-1.547-.4-1.015-.401-2.442.005-1.427.405-2.43.405-1.004 1.155-1.533.755-.529 1.802-.529t1.803.529q.755.529 1.155 1.534.405 1.005.405 2.429 0 1.431-.405 2.446-.4 1.01-1.155 1.543-.75.532-1.803.532m0-1.334q.819 0 1.292-.805.477-.81.477-2.382 0-1.04-.217-1.747-.218-.708-.614-1.066a1.34 1.34 0 0 0-.938-.362q-.813 0-1.287.81-.472.805-.477 2.365-.004 1.044.209 1.756.217.711.614 1.073.396.359.941.358m8.004 1.334q-1.052 0-1.806-.532-.75-.537-1.155-1.547-.4-1.015-.401-2.442.005-1.427.405-2.43.405-1.004 1.155-1.533.754-.529 1.802-.529t1.803.529q.755.529 1.155 1.534.405 1.005.405 2.429 0 1.431-.405 2.446-.4 1.01-1.155 1.543-.75.532-1.803.532m0-1.334q.818 0 1.292-.805.477-.81.477-2.382 0-1.04-.218-1.747-.216-.708-.613-1.066a1.34 1.34 0 0 0-.938-.362q-.813 0-1.287.81-.472.805-.477 2.365-.004 1.044.209 1.756.217.711.614 1.073.396.359.941.358"/><path fill="#b3c7ff" d="M167.048 31.727V39h-1.098v-7.273zm2.574 4.034V39h-1.062v-5.455h1.02v.888h.067a1.56 1.56 0 0 1 .59-.696q.404-.263 1.019-.263.557 0 .976.235.42.23.65.689t.231 1.133V39h-1.062v-3.342q0-.593-.309-.927-.31-.337-.848-.337-.37 0-.657.16-.285.16-.451.469-.164.305-.164.738m7.461-2.216v.853h-2.979v-.853zm-2.18-1.306h1.062v5.16q0 .307.092.465a.48.48 0 0 0 .238.21 1 1 0 0 0 .323.052q.128 0 .224-.017l.149-.029.192.877a2.076 2.076 0 0 1-.689.114q-.42.008-.782-.15a1.34 1.34 0 0 1-.585-.482q-.224-.327-.224-.82zm5.647 6.871q-.805 0-1.389-.344a2.34 2.34 0 0 1-.894-.977q-.313-.632-.313-1.48 0-.84.313-1.478.316-.64.88-.998.569-.359 1.328-.359.462 0 .895.153t.778.48.543.848q.2.519.199 1.26v.377h-4.336v-.795h3.296q0-.42-.171-.742a1.3 1.3 0 0 0-.479-.515 1.34 1.34 0 0 0-.717-.188q-.448 0-.782.22a1.5 1.5 0 0 0-.511.568 1.65 1.65 0 0 0-.178.756v.622q0 .547.192.93.195.384.543.586.349.2.814.199.301 0 .55-.085a1.2 1.2 0 0 0 .43-.263q.18-.174.277-.43l1.005.181a1.8 1.8 0 0 1-.434.778q-.308.33-.777.515-.465.18-1.062.181m3.518-.11v-5.455h1.027v.867h.056q.15-.44.526-.693.38-.255.859-.255a5 5 0 0 1 .451.025v1.015a2 2 0 0 0-.227-.039 2 2 0 0 0-.327-.025q-.376 0-.671.16-.291.156-.461.437a1.2 1.2 0 0 0-.171.632V39zm3.838 0v-5.455h1.019v.888h.068q.17-.45.557-.703.387-.255.927-.256.547 0 .916.256.373.256.551.703h.057q.195-.437.621-.696.426-.263 1.016-.263.741 0 1.211.466.472.465.472 1.402V39h-1.062v-3.558q0-.554-.302-.803a1.1 1.1 0 0 0-.721-.248q-.518 0-.806.32-.287.315-.287.812V39h-1.059v-3.626q0-.444-.277-.714t-.72-.27a1.03 1.03 0 0 0-.558.16q-.252.157-.408.437a1.34 1.34 0 0 0-.153.65V39zm11.189.11q-.806 0-1.389-.344a2.34 2.34 0 0 1-.894-.977q-.313-.632-.313-1.48 0-.84.313-1.478.315-.64.88-.998.569-.359 1.328-.359.462 0 .895.153t.778.48.543.848q.2.519.199 1.26v.377h-4.336v-.795h3.296q0-.42-.171-.742a1.3 1.3 0 0 0-.479-.515 1.34 1.34 0 0 0-.718-.188q-.447 0-.781.22a1.5 1.5 0 0 0-.511.568 1.6 1.6 0 0 0-.178.756v.622q0 .547.192.93.195.384.543.586.348.2.814.199.301 0 .55-.085a1.2 1.2 0 0 0 .43-.263q.18-.174.277-.43l1.005.181a1.8 1.8 0 0 1-.434.778q-.309.33-.777.515-.465.18-1.062.181m5.56-.004q-.66 0-1.179-.337a2.3 2.3 0 0 1-.81-.97q-.291-.63-.291-1.516 0-.884.295-1.512.298-.63.817-.963a2.1 2.1 0 0 1 1.175-.334q.508 0 .817.17.312.167.483.392.174.223.27.394h.064v-2.703h1.062V39h-1.037v-.849h-.089a3 3 0 0 1-.277.398q-.178.225-.49.39-.313.168-.81.167m.234-.905q.459 0 .775-.242.32-.245.483-.678.166-.433.166-1.008 0-.569-.163-.995a1.47 1.47 0 0 0-.479-.664q-.316-.237-.782-.238-.478 0-.799.249a1.5 1.5 0 0 0-.482.678q-.16.43-.16.97 0 .546.163.983t.483.693q.323.252.795.252m3.984.799v-5.455h1.062V39zm.536-6.296a.68.68 0 0 1-.476-.185.6.6 0 0 1-.195-.447q0-.264.195-.448a.67.67 0 0 1 .476-.188q.277 0 .472.188a.59.59 0 0 1 .199.448.6.6 0 0 1-.199.447.66.66 0 0 1-.472.185m3.542 6.417q-.52 0-.938-.192a1.6 1.6 0 0 1-.664-.565q-.241-.37-.241-.905 0-.462.177-.76t.479-.472.675-.263a7 7 0 0 1 .76-.135l.796-.093q.305-.038.443-.124.14-.085.139-.277v-.025q0-.465-.263-.72-.26-.256-.774-.256-.536 0-.845.238a1.27 1.27 0 0 0-.423.522l-.998-.227q.178-.498.519-.803.344-.309.792-.447a3.1 3.1 0 0 1 .941-.143q.326 0 .692.079.37.075.689.277.324.202.529.578.206.373.206.97V39h-1.037v-.746h-.042a1.5 1.5 0 0 1-.309.405 1.6 1.6 0 0 1-.529.33 2.1 2.1 0 0 1-.774.132m.23-.852q.441 0 .753-.175a1.2 1.2 0 0 0 .48-.454q.167-.285.167-.607v-.703a.6.6 0 0 1-.221.106q-.16.045-.365.082l-.402.06q-.195.024-.326.043-.31.04-.565.131a1 1 0 0 0-.405.267.67.67 0 0 0-.149.454q0 .395.291.597.292.199.742.199m6.422-4.724v.853h-2.98v-.853zm-2.181-1.306h1.062v5.16q0 .307.092.465a.5.5 0 0 0 .238.21q.15.052.324.052.127 0 .223-.017l.149-.029.192.877a2.06 2.06 0 0 1-.689.114 1.9 1.9 0 0 1-.781-.15 1.34 1.34 0 0 1-.586-.482q-.224-.327-.224-.82zm5.648 6.871q-.807 0-1.389-.344a2.34 2.34 0 0 1-.895-.977q-.312-.632-.312-1.48 0-.84.312-1.478.316-.64.881-.998.568-.359 1.328-.359.462 0 .895.153t.778.48q.344.326.543.848.198.519.199 1.26v.377h-4.336v-.795h3.295q0-.42-.17-.742a1.29 1.29 0 0 0-1.197-.703q-.447 0-.781.22-.33.217-.512.568a1.65 1.65 0 0 0-.177.756v.622q0 .547.192.93.195.384.543.586.348.2.813.199.302 0 .551-.085.248-.09.429-.263a1.14 1.14 0 0 0 .277-.43l1.005.181q-.12.444-.433.778-.309.33-.778.515a2.9 2.9 0 0 1-1.061.181m6.25-.11v-7.273h2.592q.845 0 1.403.292.56.29.838.806.276.51.277 1.182 0 .668-.281 1.175a1.9 1.9 0 0 1-.838.785q-.558.28-1.403.28h-1.963v-.944h1.864q.533 0 .866-.152.338-.153.494-.444t.156-.7a1.5 1.5 0 0 0-.16-.714 1.03 1.03 0 0 0-.493-.461q-.334-.165-.877-.164h-1.378V39zm3.59-3.281L234.707 39h-1.25l-1.762-3.281zm5.052 3.391q-.806 0-1.388-.344a2.33 2.33 0 0 1-.895-.977q-.313-.632-.313-1.48 0-.84.313-1.478.316-.64.88-.998.569-.359 1.329-.359.461 0 .894.153t.778.48.543.848q.2.519.199 1.26v.377h-4.336v-.795h3.296q0-.42-.171-.742a1.3 1.3 0 0 0-.479-.515 1.34 1.34 0 0 0-.717-.188q-.448 0-.782.22a1.5 1.5 0 0 0-.511.568 1.65 1.65 0 0 0-.178.756v.622q0 .547.192.93.196.384.544.586.348.2.813.199.301 0 .55-.085a1.14 1.14 0 0 0 .707-.692l1.005.18a1.8 1.8 0 0 1-.433.778q-.31.33-.778.515-.465.18-1.062.181m7.606-4.233-.963.17a1.2 1.2 0 0 0-.191-.351.96.96 0 0 0-.348-.273 1.3 1.3 0 0 0-.551-.107q-.45 0-.753.203-.302.198-.302.514 0 .275.203.44.203.168.653.274l.867.199q.753.174 1.122.536t.369.941q0 .49-.284.874a1.86 1.86 0 0 1-.785.597 2.9 2.9 0 0 1-1.161.216q-.916 0-1.495-.39-.58-.394-.71-1.12l1.026-.155q.096.401.394.607.298.202.778.202.522 0 .835-.216.312-.22.312-.537a.56.56 0 0 0-.192-.43q-.187-.173-.579-.262l-.923-.203q-.763-.174-1.129-.553-.362-.381-.362-.963 0-.483.27-.845t.745-.565a2.7 2.7 0 0 1 1.091-.206q.883 0 1.392.384.507.38.671 1.02m4.729 1.86v-3.192h1.065V39h-1.044v-.945h-.057a1.7 1.7 0 0 1-.603.728q-.412.288-1.027.288-.525 0-.93-.23a1.63 1.63 0 0 1-.632-.693q-.227-.459-.227-1.133v-3.47h1.061v3.342q0 .558.309.888.31.33.803.33a1.3 1.3 0 0 0 .593-.149q.298-.15.494-.451.198-.302.195-.767m3.554-5.01V39h-1.062v-7.273zm3.974 1.818v.853h-2.979v-.853zm-2.18-1.306h1.062v5.16q0 .307.092.465a.5.5 0 0 0 .238.21 1 1 0 0 0 .323.052q.128 0 .224-.017l.149-.029.192.877a2.076 2.076 0 0 1-.689.114 1.9 1.9 0 0 1-.781-.15 1.34 1.34 0 0 1-.586-.482q-.224-.327-.224-.82zm12.127 1.853h-1.108A1.68 1.68 0 0 0 266 33.01a1.8 1.8 0 0 0-.565-.284 2.2 2.2 0 0 0-.657-.096 2.05 2.05 0 0 0-1.125.316q-.494.317-.781.927-.285.61-.285 1.492 0 .888.285 1.498.287.61.784.923t1.119.313q.345 0 .653-.092.313-.096.565-.28a1.72 1.72 0 0 0 .671-1.07l1.108.004a3 3 0 0 1-.344.987 2.7 2.7 0 0 1-.65.774 3 3 0 0 1-.902.5 3.3 3.3 0 0 1-1.108.178q-.945 0-1.683-.447-.74-.45-1.165-1.29-.423-.837-.423-1.998 0-1.165.426-2a3.1 3.1 0 0 1 1.165-1.285 3.16 3.16 0 0 1 1.68-.451q.58 0 1.079.167.505.164.906.483.401.315.664.774.263.455.355 1.04m2.815 5.029q-.518 0-.937-.192a1.57 1.57 0 0 1-.664-.565q-.242-.37-.242-.905 0-.462.178-.76.177-.298.479-.472.301-.174.675-.263a7 7 0 0 1 .76-.135l.795-.093q.306-.038.444-.124.14-.085.139-.277v-.025q0-.465-.263-.72-.26-.256-.774-.256-.536 0-.845.238a1.27 1.27 0 0 0-.423.522l-.998-.227a1.9 1.9 0 0 1 .519-.803q.344-.309.792-.447.447-.143.941-.143.326 0 .692.079.37.075.689.277.323.202.529.578.206.373.206.97V39h-1.037v-.746h-.043a1.5 1.5 0 0 1-.308.405 1.7 1.7 0 0 1-.53.33 2 2 0 0 1-.774.132m.231-.852q.441 0 .753-.175.316-.174.479-.454.168-.285.167-.607v-.703a.55.55 0 0 1-.22.106q-.159.045-.366.082l-.401.06q-.195.024-.327.043-.309.04-.564.131a1 1 0 0 0-.405.267.66.66 0 0 0-.149.454q0 .395.291.597.29.199.742.199m4.937-6.542V39h-1.062v-7.273zm3.726 7.383q-.792 0-1.364-.359a2.38 2.38 0 0 1-.873-.997q-.306-.636-.306-1.456 0-.831.313-1.467a2.4 2.4 0 0 1 .881-.998q.568-.359 1.338-.359.622 0 1.108.231.487.228.785.64.302.411.359.962h-1.034a1.24 1.24 0 0 0-.39-.66q-.302-.278-.81-.278a1.32 1.32 0 0 0-.778.235q-.33.231-.514.66-.185.426-.185 1.009 0 .595.181 1.03.181.432.511.67.335.24.785.239.302 0 .547-.11.248-.114.416-.324.17-.21.237-.504h1.034a2 2 0 0 1-.345.945 2 2 0 0 1-.77.653q-.48.238-1.126.238m6.832-2.372v-3.193h1.065V39h-1.044v-.945h-.057a1.7 1.7 0 0 1-.604.728q-.411.288-1.026.288-.525 0-.93-.23a1.6 1.6 0 0 1-.632-.693q-.228-.459-.228-1.133v-3.47h1.062v3.342q0 .558.309.888.31.33.803.33a1.3 1.3 0 0 0 1.086-.6q.2-.302.196-.767m3.553-5.01V39h-1.061v-7.273zm3.016 7.393q-.518 0-.937-.192a1.57 1.57 0 0 1-.664-.565q-.242-.37-.242-.905 0-.462.178-.76.177-.298.479-.472.301-.174.675-.263a7 7 0 0 1 .76-.135l.795-.093q.306-.038.444-.124.139-.085.139-.277v-.025q0-.465-.263-.72-.26-.256-.774-.256-.537 0-.845.238a1.27 1.27 0 0 0-.423.522l-.998-.227a1.9 1.9 0 0 1 .519-.803q.344-.309.791-.447.448-.143.941-.143.327 0 .693.079.37.075.689.277.323.202.529.578.206.373.206.97V39h-1.037v-.746h-.043a1.5 1.5 0 0 1-.309.405 1.6 1.6 0 0 1-.529.33 2 2 0 0 1-.774.132m.231-.852q.441 0 .753-.175.316-.174.479-.454.168-.285.167-.607v-.703a.55.55 0 0 1-.22.106q-.16.045-.366.082l-.401.06q-.195.024-.327.043-.309.04-.564.131a1 1 0 0 0-.405.267.66.66 0 0 0-.149.454q0 .395.291.597.29.199.742.199m6.421-4.724v.853h-2.979v-.853zm-2.18-1.306h1.062v5.16q0 .307.092.465a.5.5 0 0 0 .238.21 1 1 0 0 0 .323.052q.128 0 .224-.017l.149-.029.192.877a2.076 2.076 0 0 1-.689.114 1.9 1.9 0 0 1-.781-.15 1.34 1.34 0 0 1-.586-.482q-.224-.327-.224-.82zM300.709 39v-5.455h1.062V39zm.536-6.296a.68.68 0 0 1-.476-.185.6.6 0 0 1-.195-.447q0-.264.195-.448a.67.67 0 0 1 .476-.188q.277 0 .472.188a.59.59 0 0 1 .199.448.6.6 0 0 1-.199.447.66.66 0 0 1-.472.185m4.252 6.406q-.768 0-1.339-.352a2.37 2.37 0 0 1-.888-.983q-.316-.633-.316-1.477 0-.849.316-1.485a2.37 2.37 0 0 1 .888-.987q.571-.352 1.339-.352.767 0 1.338.352.573.351.888.987t.316 1.485q0 .844-.316 1.477a2.36 2.36 0 0 1-.888.983q-.571.352-1.338.352m.003-.891q.497 0 .824-.263.327-.262.483-.7.16-.436.16-.962a2.8 2.8 0 0 0-.16-.959 1.56 1.56 0 0 0-.483-.706q-.327-.267-.824-.267-.501 0-.831.267a1.6 1.6 0 0 0-.486.706q-.156.437-.156.959 0 .525.156.962.159.438.486.7.33.263.831.263m4.786-2.458V39h-1.061v-5.455h1.019v.888h.067a1.56 1.56 0 0 1 .59-.696q.404-.263 1.019-.263.558 0 .976.235.42.23.65.689t.231 1.133V39h-1.062v-3.342q0-.593-.309-.927-.31-.337-.848-.337-.37 0-.657.16-.285.16-.451.469-.164.305-.164.738m9.002-.884-.962.17a1.1 1.1 0 0 0-.192-.351.95.95 0 0 0-.348-.273 1.26 1.26 0 0 0-.55-.107q-.452 0-.753.203-.302.198-.302.514 0 .275.203.44.202.168.653.274l.866.199q.753.174 1.123.536.369.362.369.941 0 .49-.284.874a1.86 1.86 0 0 1-.785.597 2.9 2.9 0 0 1-1.161.216q-.916 0-1.495-.39-.58-.394-.71-1.12l1.026-.155q.096.401.394.607.298.202.778.202.522 0 .834-.216.313-.22.313-.537a.56.56 0 0 0-.192-.43q-.188-.173-.579-.262l-.923-.203q-.764-.174-1.129-.553-.363-.381-.363-.963 0-.483.27-.845t.746-.565a2.7 2.7 0 0 1 1.09-.206q.885 0 1.392.384.509.38.671 1.02"/><path fill="#888c96" d="M485.991 39v-7.273h4.51v.945h-3.412v2.216h3.089v.94h-3.089V39zm8.888-2.262v-3.193h1.065V39H494.9v-.945h-.057a1.7 1.7 0 0 1-.603.728q-.413.288-1.026.288-.526 0-.931-.23a1.63 1.63 0 0 1-.632-.693q-.227-.459-.227-1.133v-3.47h1.062v3.342q0 .558.308.888.31.33.803.33a1.3 1.3 0 0 0 .593-.149q.298-.15.494-.451.198-.302.195-.767m5.038-3.193v.853h-2.979v-.853zm-2.18-1.306h1.062v5.16q0 .307.092.465a.48.48 0 0 0 .238.21 1 1 0 0 0 .323.052q.128 0 .224-.017l.149-.029.192.877a2.076 2.076 0 0 1-.689.114q-.42.008-.782-.15a1.35 1.35 0 0 1-.586-.482q-.223-.327-.223-.82zm6.81 4.499v-3.193h1.065V39h-1.044v-.945h-.057a1.7 1.7 0 0 1-.603.728q-.412.288-1.027.288-.525 0-.93-.23a1.63 1.63 0 0 1-.632-.693q-.227-.459-.227-1.133v-3.47h1.061v3.342q0 .558.309.888.31.33.803.33a1.3 1.3 0 0 0 .593-.149q.298-.15.494-.451.198-.302.195-.767M507.039 39v-5.455h1.026v.867h.057q.15-.44.526-.693a1.5 1.5 0 0 1 .859-.255 5 5 0 0 1 .451.025v1.015a2 2 0 0 0-.227-.039 2 2 0 0 0-.327-.025q-.377 0-.671.16a1.19 1.19 0 0 0-.632 1.069V39zm5.993.11q-.806 0-1.388-.344a2.34 2.34 0 0 1-.895-.977q-.312-.632-.312-1.48 0-.84.312-1.478.316-.64.881-.998.567-.359 1.328-.359.462 0 .895.153t.777.48.544.848q.198.519.199 1.26v.377h-4.336v-.795h3.295q0-.42-.17-.742a1.29 1.29 0 0 0-1.197-.703q-.447 0-.781.22-.33.217-.512.568a1.65 1.65 0 0 0-.177.756v.622q0 .547.192.93.195.384.543.586.348.2.813.199.302 0 .55-.085a1.14 1.14 0 0 0 .707-.692l1.005.18q-.12.444-.433.778-.309.33-.778.515-.465.18-1.062.181m8.605-.11h-2.355v-7.273h2.429q1.07 0 1.836.437a2.9 2.9 0 0 1 1.176 1.246q.412.81.412 1.943 0 1.137-.416 1.953a2.9 2.9 0 0 1-1.193 1.257q-.782.437-1.889.437m-1.257-.959h1.196q.831 0 1.382-.312.55-.316.824-.913.273-.6.273-1.463 0-.856-.273-1.452-.27-.597-.806-.906-.537-.309-1.332-.309h-1.264zm7.621 1.08q-.518 0-.937-.192a1.57 1.57 0 0 1-.664-.565q-.242-.37-.242-.905 0-.462.178-.76.177-.298.479-.472t.675-.263a7 7 0 0 1 .76-.135l.795-.093q.306-.038.444-.124.14-.085.139-.277v-.025q0-.465-.263-.72-.26-.256-.774-.256-.536 0-.845.238a1.27 1.27 0 0 0-.423.522l-.998-.227a1.9 1.9 0 0 1 .519-.803q.344-.309.792-.447a3.1 3.1 0 0 1 .941-.143q.326 0 .692.079.37.075.689.277.323.202.529.578.206.373.206.97V39h-1.037v-.746h-.042a1.5 1.5 0 0 1-.309.405 1.7 1.7 0 0 1-.53.33 2 2 0 0 1-.774.132m.231-.852q.441 0 .753-.175.316-.174.479-.454.168-.285.167-.607v-.703a.55.55 0 0 1-.22.106q-.159.045-.366.082l-.401.06q-.195.024-.327.043-.309.04-.564.131a1 1 0 0 0-.405.267.66.66 0 0 0-.149.454q0 .395.291.597.29.199.742.199m6.421-4.724v.853h-2.979v-.853zm-2.18-1.306h1.062v5.16q0 .307.092.465a.5.5 0 0 0 .238.21q.15.052.323.052.128 0 .224-.017l.149-.029.192.877a2.068 2.068 0 0 1-.689.114 1.9 1.9 0 0 1-.781-.15 1.34 1.34 0 0 1-.586-.482q-.224-.327-.224-.82zm4.942 6.882q-.518 0-.937-.192a1.6 1.6 0 0 1-.664-.565q-.242-.37-.242-.905 0-.462.178-.76.177-.298.479-.472a2.5 2.5 0 0 1 .675-.263 7 7 0 0 1 .76-.135l.795-.093q.306-.038.444-.124.14-.085.139-.277v-.025q0-.465-.263-.72-.26-.256-.774-.256-.536 0-.845.238a1.27 1.27 0 0 0-.423.522l-.998-.227a1.9 1.9 0 0 1 .519-.803q.343-.309.792-.447a3.1 3.1 0 0 1 .941-.143q.326 0 .692.079.37.075.689.277.324.202.529.578.207.373.206.97V39h-1.037v-.746h-.042a1.5 1.5 0 0 1-.309.405 1.7 1.7 0 0 1-.529.33 2.1 2.1 0 0 1-.775.132m.231-.852q.441 0 .753-.175a1.21 1.21 0 0 0 .646-1.061v-.703a.55.55 0 0 1-.22.106q-.159.045-.366.082l-.401.06q-.195.024-.327.043-.309.04-.564.131a1 1 0 0 0-.405.267.67.67 0 0 0-.149.454q0 .395.291.597.292.199.742.199"/><path fill="#d9d9d9" fill-opacity=".01" d="M392.5 49h22v32h-22z"/><mask id="c" fill="#fff"><path d="M303.5 165a4 4 0 0 1 4-4h192a4 4 0 0 1 4 4v26h-200z"/></mask><path fill="#17264f" d="M303.5 165a4 4 0 0 1 4-4h192a4 4 0 0 1 4 4v26h-200z"/><path fill="#3369ff" d="M303 165a4.5 4.5 0 0 1 4.5-4.5h192a4.5 4.5 0 0 1 4.5 4.5h-1a3.5 3.5 0 0 0-3.5-3.5h-192a3.5 3.5 0 0 0-3.5 3.5zm200.5 26h-200zM303 191v-26a4.5 4.5 0 0 1 4.5-4.5v1a3.5 3.5 0 0 0-3.5 3.5v26zm196.5-30.5a4.5 4.5 0 0 1 4.5 4.5v26h-1v-26a3.5 3.5 0 0 0-3.5-3.5z" mask="url(#c)"/><path fill="#fff" d="M317.923 171.339V180h-1.569v-8.661zm3.162 4.855V180h-1.531v-6.495h1.464v1.103h.076a1.86 1.86 0 0 1 .714-.867q.495-.321 1.222-.321.673 0 1.172.287.503.288.778.834.28.544.275 1.323V180h-1.531v-3.899q0-.651-.338-1.019-.335-.368-.926-.368-.402 0-.715.178a1.2 1.2 0 0 0-.486.503q-.174.33-.174.799m8.97-2.689v1.184h-3.734v-1.184zm-2.813-1.557h1.531v6.098q0 .309.093.474.098.16.254.22.156.059.347.059.144 0 .262-.021.123-.021.186-.038l.258 1.197a2.975 2.975 0 0 1-.901.152 2.5 2.5 0 0 1-1.036-.174 1.6 1.6 0 0 1-.731-.6q-.266-.406-.263-1.015zm6.899 8.179q-.978 0-1.688-.406a2.75 2.75 0 0 1-1.086-1.159q-.381-.752-.381-1.772 0-1.002.381-1.759a2.87 2.87 0 0 1 1.074-1.184q.689-.427 1.619-.427.6 0 1.134.194.536.191.947.592.414.402.651 1.024.237.617.237 1.472v.469h-5.324v-1.032h3.857a1.65 1.65 0 0 0-.191-.782 1.4 1.4 0 0 0-.52-.546 1.47 1.47 0 0 0-.77-.199q-.468 0-.824.229a1.57 1.57 0 0 0-.554.592q-.195.363-.199.799v.901q0 .567.207.972.207.402.58.618.372.211.871.211.334 0 .605-.093a1.35 1.35 0 0 0 .469-.283 1.2 1.2 0 0 0 .3-.461l1.43.161a2.25 2.25 0 0 1-.516.989 2.5 2.5 0 0 1-.965.652q-.587.228-1.344.228m4.183-.127v-6.495h1.484v1.082h.068q.177-.562.609-.867.436-.309.994-.309.126 0 .283.013.16.009.267.03v1.408a1.6 1.6 0 0 0-.309-.059 3 3 0 0 0-.402-.03q-.418 0-.753.182-.33.177-.52.495a1.4 1.4 0 0 0-.19.731V180zm10.721-6.495L346.732 180h-1.691l-2.314-6.495h1.633l1.492 4.825h.068l1.497-4.825zm2.743 6.626q-.618 0-1.113-.22a1.8 1.8 0 0 1-.778-.66q-.283-.435-.283-1.074 0-.549.203-.909.203-.359.554-.575t.791-.326q.444-.114.917-.164.571-.06.927-.106.354-.051.515-.152.165-.106.165-.326v-.025q0-.479-.283-.74-.284-.263-.816-.263-.563 0-.892.246a1.2 1.2 0 0 0-.44.579l-1.43-.203a2.3 2.3 0 0 1 .559-.99q.389-.401.951-.6a3.7 3.7 0 0 1 1.243-.203q.47 0 .935.11t.85.364q.385.25.617.68.237.431.237 1.079V180h-1.471v-.892h-.051q-.14.27-.393.507a1.9 1.9 0 0 1-.631.377q-.376.14-.883.139m.397-1.125q.461 0 .799-.182.339-.186.521-.49a1.25 1.25 0 0 0 .186-.664v-.766a.7.7 0 0 1-.246.11 3 3 0 0 1-.38.089q-.212.038-.419.068l-.359.051a2.7 2.7 0 0 0-.614.152 1 1 0 0 0-.427.296.73.73 0 0 0-.156.482q0 .423.309.639.308.215.786.215m6.102-7.667V180h-1.53v-8.661zm7.713 8.826q-1.045 0-1.793-.529-.745-.533-1.146-1.535-.398-1.006-.398-2.423.005-1.417.402-2.41.402-.999 1.146-1.523.748-.524 1.789-.524t1.788.524q.749.524 1.146 1.523.402.998.402 2.41 0 1.421-.402 2.427-.397 1.003-1.146 1.531-.744.53-1.788.529m0-1.324q.812 0 1.281-.799.474-.804.474-2.364 0-1.032-.216-1.734t-.609-1.057a1.33 1.33 0 0 0-.93-.359q-.808 0-1.277.803-.47.8-.474 2.347-.005 1.037.207 1.742.216.706.609 1.066.393.355.935.355m7.942 1.324q-1.044 0-1.793-.529-.744-.533-1.146-1.535-.397-1.006-.397-2.423.005-1.417.402-2.41.402-.999 1.146-1.523.749-.524 1.788-.524t1.789.524q.748.524 1.146 1.523.402.998.402 2.41 0 1.421-.402 2.427-.397 1.003-1.146 1.531-.744.53-1.789.529m0-1.324q.813 0 1.282-.799.474-.804.473-2.364 0-1.032-.215-1.734-.216-.702-.609-1.057a1.33 1.33 0 0 0-.931-.359q-.807 0-1.277.803-.469.8-.473 2.347-.005 1.037.207 1.742.216.706.609 1.066.394.355.934.355m5.702.119a.9.9 0 0 1-.66-.271.88.88 0 0 1-.27-.66.87.87 0 0 1 .27-.651.9.9 0 0 1 .66-.271q.372 0 .647.271a.89.89 0 0 1 .148 1.121 1 1 0 0 1-.338.338.9.9 0 0 1-.457.123m0-4.293a.9.9 0 0 1-.66-.27.88.88 0 0 1-.27-.66.87.87 0 0 1 .27-.651.9.9 0 0 1 .66-.275q.372 0 .647.275a.884.884 0 0 1 .148 1.116 1 1 0 0 1-.338.339.86.86 0 0 1-.457.126m5.695 5.498q-1.044 0-1.793-.529-.744-.533-1.146-1.535-.397-1.006-.397-2.423.003-1.417.401-2.41.402-.999 1.146-1.523.749-.524 1.789-.524t1.789.524q.748.524 1.146 1.523.402.998.402 2.41 0 1.421-.402 2.427-.397 1.003-1.146 1.531-.744.53-1.789.529m0-1.324q.812 0 1.282-.799.473-.804.473-2.364 0-1.032-.216-1.734-.215-.702-.608-1.057a1.33 1.33 0 0 0-.931-.359q-.807 0-1.277.803-.47.8-.474 2.347-.003 1.037.208 1.742.214.706.609 1.066.393.355.934.355m7.943 1.324q-1.044 0-1.793-.529-.744-.533-1.146-1.535-.398-1.006-.398-2.423.005-1.417.402-2.41.402-.999 1.146-1.523.748-.524 1.789-.524t1.789.524 1.146 1.523q.402.998.402 2.41 0 1.421-.402 2.427-.397 1.003-1.146 1.531-.745.53-1.789.529m0-1.324q.812 0 1.281-.799.474-.804.474-2.364 0-1.032-.216-1.734-.214-.702-.609-1.057a1.33 1.33 0 0 0-.93-.359q-.807 0-1.277.803-.47.8-.474 2.347-.004 1.037.207 1.742.216.706.609 1.066.394.355.935.355m11.649-3.801v1.26h-3.899v-1.26zm7.749 5.125q-1.045 0-1.793-.529-.745-.533-1.146-1.535-.398-1.006-.398-2.423.004-1.417.402-2.41.402-.999 1.146-1.523.748-.524 1.789-.524t1.788.524 1.146 1.523q.402.998.402 2.41 0 1.421-.402 2.427-.397 1.003-1.146 1.531-.744.53-1.788.529m0-1.324q.811 0 1.281-.799.474-.804.474-2.364 0-1.032-.216-1.734t-.609-1.057a1.33 1.33 0 0 0-.93-.359q-.809 0-1.277.803-.47.8-.474 2.347-.005 1.037.207 1.742.216.706.609 1.066.393.355.935.355m8.264-7.502V180h-1.569v-7.134h-.051l-2.025 1.294v-1.438l2.152-1.383zm3.159 7.621a.9.9 0 0 1-.66-.271.9.9 0 0 1-.271-.66.87.87 0 0 1 .271-.651.9.9 0 0 1 .66-.271q.372 0 .647.271a.89.89 0 0 1 .148 1.121 1 1 0 0 1-.338.338.9.9 0 0 1-.457.123m0-4.293a.9.9 0 0 1-.66-.27.9.9 0 0 1-.271-.66.87.87 0 0 1 .271-.651.9.9 0 0 1 .66-.275q.372 0 .647.275.279.27.283.651a.9.9 0 0 1-.135.465 1 1 0 0 1-.338.339.87.87 0 0 1-.457.126m5.695 5.498q-1.044 0-1.793-.529-.744-.533-1.146-1.535-.398-1.006-.398-2.423.005-1.417.402-2.41.402-.999 1.146-1.523.748-.524 1.789-.524t1.789.524q.749.524 1.146 1.523.402.998.402 2.41 0 1.421-.402 2.427-.397 1.003-1.146 1.531-.744.53-1.789.529m0-1.324q.812 0 1.281-.799.474-.804.474-2.364 0-1.032-.216-1.734-.214-.702-.609-1.057a1.33 1.33 0 0 0-.93-.359q-.807 0-1.277.803-.47.8-.474 2.347-.005 1.037.207 1.742.216.706.609 1.066.394.355.935.355m7.943 1.324q-1.045 0-1.793-.529-.744-.533-1.146-1.535-.398-1.006-.398-2.423.005-1.417.402-2.41.402-.999 1.146-1.523.748-.524 1.789-.524t1.789.524 1.146 1.523q.4.998.401 2.41 0 1.421-.401 2.427-.397 1.003-1.146 1.531-.745.53-1.789.529m0-1.324q.812 0 1.281-.799.474-.804.474-2.364 0-1.032-.216-1.734t-.609-1.057a1.33 1.33 0 0 0-.93-.359q-.808 0-1.277.803-.47.8-.474 2.347-.005 1.037.207 1.742.216.706.609 1.066.393.355.935.355"/><path fill="#17181c" d="M503.25 191.25V235a3.75 3.75 0 0 1-3.75 3.75h-192a3.75 3.75 0 0 1-3.75-3.75v-43.75z"/><path stroke="#3369ff" stroke-width=".5" d="M503.25 191.25V235a3.75 3.75 0 0 1-3.75 3.75h-192a3.75 3.75 0 0 1-3.75-3.75v-43.75z"/><path fill="#fff" d="m318.508 203.579-1.04 3.731h2.08zm-.596-.869h1.196l2.232 7.29h-1.021l-.537-1.899h-2.553l-.528 1.899h-1.02zm4.102 1.821h.932l1.587 4.59 1.592-4.59h.933L325.114 210h-1.157zm11.006 2.285v.44h-3.892v.029q-.04 1.119.425 1.607.469.488 1.318.488.43 0 .899-.137a5.5 5.5 0 0 0 1.001-.415v.894a6 6 0 0 1-.992.312 4 4 0 0 1-.918.108q-1.273 0-1.992-.762-.718-.766-.718-2.109 0-1.31.703-2.09.704-.782 1.875-.782 1.046 0 1.646.708.605.708.645 1.709m-.899-.263a1.72 1.72 0 0 0-.415-.977q-.351-.415-1.016-.415-.65 0-1.069.43-.42.43-.459.967zm7.095-.894a2 2 0 0 0-.586-.327 2 2 0 0 0-.654-.103q-.84 0-1.285.528-.444.527-.444 1.523V210h-.903v-5.469h.903v1.07q.224-.582.689-.889.469-.312 1.108-.313.332 0 .62.083.288.084.552.259zm3.813 1.592h-.298q-.786 0-1.186.278-.396.274-.396.821 0 .493.298.766.298.274.825.274.743 0 1.167-.513.426-.517.43-1.426v-.2zm1.743-.371V210h-.903v-.811a1.86 1.86 0 0 1-.727.723q-.435.23-1.06.23-.835 0-1.333-.469-.498-.474-.498-1.265 0-.913.61-1.387.615-.473 1.802-.473h1.206v-.142q-.005-.654-.332-.947-.327-.298-1.045-.298-.459 0-.928.132a4 4 0 0 0-.913.386v-.899q.498-.19.953-.283.459-.098.888-.098.679 0 1.157.201.484.2.782.6.185.244.263.606.078.355.078 1.074m5.044.342q0-1.01-.332-1.534-.327-.527-.957-.527-.658 0-1.006.527-.346.523-.346 1.534 0 1.01.346 1.543.352.527 1.016.527.62 0 .947-.532.332-.533.332-1.538m.899 2.426q0 1.23-.581 1.866-.582.634-1.709.634-.371 0-.777-.068a5.6 5.6 0 0 1-.81-.2v-.889q.479.225.869.332t.718.108q.728 0 1.059-.396.332-.396.332-1.255v-.649a1.5 1.5 0 0 1-.586.683q-.37.225-.903.225a1.81 1.81 0 0 1-1.528-.767q-.571-.766-.571-2.05 0-1.29.571-2.056a1.81 1.81 0 0 1 1.528-.767q.528 0 .894.21t.595.65v-.708h.899zm6.406-2.832v.44h-3.892v.029q-.039 1.119.425 1.607.469.488 1.319.488.43 0 .898-.137a5.5 5.5 0 0 0 1.001-.415v.894a6 6 0 0 1-.991.312 4 4 0 0 1-.918.108q-1.275 0-1.992-.762-.718-.766-.718-2.109 0-1.31.703-2.09.704-.782 1.875-.782 1.045 0 1.646.708.605.708.644 1.709m-.898-.263a1.73 1.73 0 0 0-.415-.977q-.352-.415-1.016-.415-.65 0-1.069.43-.42.43-.459.967zm12.231-1.831v.879a3.4 3.4 0 0 0-.776-.337 2.9 2.9 0 0 0-.796-.113q-.61 0-.913.201-.298.195-.298.6 0 .366.225.547.224.18 1.118.352l.361.068q.669.127 1.011.508.346.38.346.991 0 .81-.576 1.27-.576.453-1.601.454-.405 0-.85-.088a8 8 0 0 1-.962-.254v-.928q.503.26.962.391.46.127.869.127.596 0 .923-.24a.8.8 0 0 0 .327-.678q0-.625-1.196-.865l-.039-.009-.337-.069q-.776-.151-1.133-.508-.356-.36-.356-.981 0-.786.532-1.211.532-.43 1.518-.43.44 0 .845.083.406.079.796.24m4.282.439q-.683 0-1.035.532t-.351 1.578q0 1.04.351 1.577.352.532 1.035.532.689 0 1.04-.532.352-.537.352-1.577 0-1.046-.352-1.578-.351-.532-1.04-.532m0-.762q1.138 0 1.739.738.605.737.605 2.134 0 1.401-.601 2.138-.6.733-1.743.733-1.138 0-1.738-.733-.6-.737-.601-2.138 0-1.397.601-2.134.6-.738 1.738-.738m14.234-1.997v.747h-1.021q-.483 0-.674.201-.185.195-.185.698v.483h1.88v.698h-1.88V210h-.899v-4.771h-1.46v-.698h1.46v-.381q0-.898.411-1.323.414-.425 1.289-.425zm4.262 4.849h-.297q-.787 0-1.187.278-.396.274-.395.821 0 .493.297.766.298.274.826.274.741 0 1.167-.513.425-.517.429-1.426v-.2zm1.744-.371V210h-.904v-.811a1.86 1.86 0 0 1-.727.723q-.435.23-1.06.23-.834 0-1.333-.469-.498-.474-.498-1.265 0-.913.61-1.387.616-.473 1.802-.473h1.206v-.142q-.005-.654-.332-.947-.327-.298-1.045-.298-.459 0-.927.132a4 4 0 0 0-.914.386v-.899q.499-.19.953-.283.459-.098.888-.098.68 0 1.158.201.483.2.781.6.185.244.263.606.08.355.079 1.074m6.494-1.221a2 2 0 0 0-.586-.327 2 2 0 0 0-.655-.103q-.839 0-1.284.528-.444.527-.444 1.523V210h-.903v-5.469h.903v1.07q.225-.582.688-.889a1.96 1.96 0 0 1 1.109-.313q.332 0 .62.083.288.084.552.259zm2.48-1.123h1.524v1.763h-1.524zm0 3.687h1.524V210h-1.524zm-86.221 10.487h5.562v.83h-2.28V226h-.991v-6.46h-2.291zm11.265 4.106v.44h-3.891v.029q-.04 1.119.424 1.607.469.488 1.319.488.43 0 .898-.137a5.5 5.5 0 0 0 1.001-.415v.894a6 6 0 0 1-.991.312 4 4 0 0 1-.918.108q-1.275 0-1.992-.762-.718-.766-.718-2.109 0-1.31.703-2.09.704-.782 1.875-.782 1.045 0 1.646.708.605.708.644 1.709m-.898-.263a1.73 1.73 0 0 0-.415-.977q-.352-.415-1.016-.415-.65 0-1.069.43-.42.43-.459.967zm4.966 1.469q0 .606.219.914.225.307.659.307h1.05V226h-1.137q-.807 0-1.25-.513-.44-.517-.44-1.465v-4.946h-1.44v-.703h2.339zm7.983-1.206v.44h-3.892v.029q-.039 1.119.425 1.607.47.488 1.318.488.43 0 .899-.137a5.5 5.5 0 0 0 1.001-.415v.894a6 6 0 0 1-.991.312 4 4 0 0 1-.918.108q-1.275 0-1.992-.762-.718-.766-.718-2.109 0-1.31.703-2.09.704-.782 1.875-.782 1.045 0 1.645.708.606.708.645 1.709m-.899-.263a1.72 1.72 0 0 0-.415-.977q-.35-.415-1.015-.415-.65 0-1.07.43-.419.43-.458.967zm4.756-1.465q.166-.351.42-.518a1.1 1.1 0 0 1 .62-.171q.66 0 .928.513.274.508.274 1.919V226h-.821v-3.13q0-1.157-.132-1.435-.126-.284-.468-.284-.392 0-.537.303-.142.298-.142 1.416V226h-.82v-3.13q0-1.172-.142-1.445-.137-.274-.498-.274-.357 0-.498.303-.137.298-.137 1.416V226h-.815v-5.469h.815V221q.161-.293.401-.444a1 1 0 0 1 .551-.157q.372 0 .616.171.249.171.385.518m8.194 1.728v.44h-3.892v.029q-.039 1.119.425 1.607.469.488 1.318.488.43 0 .899-.137a5.5 5.5 0 0 0 1.001-.415v.894a6 6 0 0 1-.992.312 4 4 0 0 1-.917.108q-1.275 0-1.993-.762-.717-.766-.717-2.109 0-1.31.703-2.09.702-.782 1.875-.782 1.045 0 1.645.708.606.708.645 1.709m-.899-.263a1.72 1.72 0 0 0-.415-.977q-.351-.415-1.015-.415-.65 0-1.07.43t-.459.967zm4.453-3.574v1.552h2.041v.698h-2.041v2.969q0 .606.23.845t.801.239h1.01V226h-1.098q-1.01 0-1.426-.405t-.415-1.397v-2.969h-1.46v-.698h1.46v-1.552zm8.667 2.68a2 2 0 0 0-.586-.327 2 2 0 0 0-.654-.103q-.84 0-1.284.528-.444.527-.444 1.523V226h-.904v-5.469h.904v1.07q.224-.582.688-.889a1.96 1.96 0 0 1 1.109-.313q.332 0 .62.083.288.084.551.259zm4.576 2.583q-.225.571-.572 1.504-.483 1.29-.649 1.572-.225.381-.562.572-.336.19-.786.19h-.722v-.752h.532q.395 0 .62-.229.225-.23.571-1.187l-2.114-5.381h.952l1.621 4.278 1.597-4.278h.952zm10.859-5.263v1.552h2.041v.698h-2.041v2.969q0 .606.229.845.23.239.801.239h1.011V226h-1.099q-1.01 0-1.425-.405t-.415-1.397v-2.969h-1.46v-.698h1.46v-1.552zm4.57 1.572h2.3v4.751h1.782V226h-4.463v-.698h1.783v-4.053h-1.402zm1.402-2.124h.898v1.133h-.898zm6.381 2.661q.166-.351.42-.518.26-.171.621-.171.659 0 .927.513.274.508.274 1.919V226h-.821v-3.13q0-1.157-.131-1.435-.127-.284-.469-.284-.392 0-.537.303-.142.298-.142 1.416V226h-.82v-3.13q0-1.172-.142-1.445-.137-.274-.498-.274-.357 0-.498.303-.137.298-.137 1.416V226h-.815v-5.469h.815V221q.161-.293.401-.444a1 1 0 0 1 .551-.157q.372 0 .616.171.249.171.385.518m8.194 1.728v.44h-3.892v.029q-.039 1.119.425 1.607.47.488 1.318.488.43 0 .899-.137a5.5 5.5 0 0 0 1.001-.415v.894a6 6 0 0 1-.991.312 4 4 0 0 1-.918.108q-1.275 0-1.993-.762-.717-.766-.717-2.109 0-1.31.703-2.09.703-.782 1.875-.782 1.045 0 1.645.708.606.708.645 1.709m-.899-.263a1.72 1.72 0 0 0-.415-.977q-.351-.415-1.015-.415-.65 0-1.07.43t-.459.967zm6.206-1.831v.879a3.4 3.4 0 0 0-.776-.337 2.9 2.9 0 0 0-.796-.113q-.61 0-.913.201-.297.195-.298.6 0 .366.225.547.225.18 1.118.352l.361.068q.669.127 1.011.508.347.38.347.991 0 .81-.576 1.27-.577.453-1.602.454-.405 0-.85-.088a8 8 0 0 1-.961-.254v-.928q.502.26.961.391.459.127.87.127.595 0 .922-.24a.8.8 0 0 0 .328-.678q0-.625-1.197-.865l-.039-.009-.337-.069q-.776-.151-1.133-.508-.356-.36-.356-.981 0-.786.532-1.211.532-.43 1.519-.43.439 0 .845.083.405.079.795.24m4.273-1.743v1.552h2.041v.698h-2.041v2.969q0 .606.229.845.23.239.801.239h1.011V226h-1.099q-1.011 0-1.425-.405-.416-.405-.416-1.397v-2.969h-1.459v-.698h1.459v-1.552zm6.455 4.272h-.298q-.786 0-1.186.278-.396.274-.396.821 0 .493.298.766.298.274.825.274.743 0 1.167-.513.425-.517.43-1.426v-.2zm1.743-.371V226h-.903v-.811a1.86 1.86 0 0 1-.728.723q-.434.23-1.059.23-.835 0-1.333-.469-.498-.474-.498-1.265 0-.913.61-1.387.615-.473 1.802-.473h1.206v-.142q-.005-.654-.332-.947-.328-.298-1.045-.298-.459 0-.928.132a4 4 0 0 0-.913.386v-.899q.498-.19.952-.283.459-.098.889-.098.678 0 1.157.201.483.2.781.6.186.244.264.606.078.355.078 1.074m4.155-1.792q.166-.351.42-.518.26-.171.62-.171.66 0 .928.513.274.508.274 1.919V226h-.821v-3.13q0-1.157-.132-1.435-.126-.284-.468-.284-.392 0-.537.303-.142.298-.142 1.416V226h-.82v-3.13q0-1.172-.142-1.445-.137-.274-.498-.274-.357 0-.498.303-.137.298-.137 1.416V226h-.815v-5.469h.815V221q.161-.293.401-.444a1 1 0 0 1 .551-.157q.372 0 .616.171.249.171.385.518m4.556 4.224v2.768h-.903v-7.549h.903v.698q.224-.405.596-.615.376-.215.864-.215.991 0 1.553.767.566.767.566 2.124 0 1.333-.566 2.095-.566.756-1.553.757-.498 0-.874-.21a1.53 1.53 0 0 1-.586-.62m2.637-2.041q0-1.046-.332-1.578-.327-.532-.977-.532-.654 0-.991.537-.337.532-.337 1.573 0 1.035.337 1.572t.991.537q.65 0 .977-.532.332-.533.332-1.577m3.652-2.735h1.524v1.763h-1.524zm0 3.687h1.524V226h-1.524z"/><path fill="#888c96" d="M468.717 209.175h1.533v-5.508l-1.836.884v-.947l1.826-.87h.987v6.441h1.513V210h-4.023zm6.528-.005h3.35v.83h-4.429v-.83q.913-.962 1.597-1.699t.942-1.04q.489-.596.659-.962.171-.372.171-.757 0-.61-.361-.957-.357-.347-.982-.347-.444 0-.932.161a5.3 5.3 0 0 0-1.035.489v-.996q.503-.24.986-.362a4 4 0 0 1 .962-.122q1.07 0 1.719.571.654.566.654 1.49 0 .469-.22.937-.214.47-.703 1.035-.274.318-.796.879-.517.562-1.582 1.68m6.104-1.143h1.718V210h-1.718zm7.714-4.419-2.299 3.853h2.299zm-.161-.898h1.143v4.751h.972v.801h-.972V210h-.982v-1.738h-3.09v-.933zm-24.521 15.893q1.166 0 1.763.952.6.952.6 2.817t-.6 2.817q-.597.953-1.763.953-1.167 0-1.763-.953-.596-.951-.596-2.817 0-1.865.596-2.817t1.763-.952m0 6.757q.694 0 1.03-.737.342-.737.342-2.251 0-.805-.098-1.455l-2.324 3.638q.366.805 1.05.805m0-5.976q-.689 0-1.03.737-.337.738-.337 2.251 0 .689.092 1.289l2.276-3.628q-.372-.65-1.001-.649m6.025-.781q1.167 0 1.763.952.6.952.601 2.817 0 1.866-.601 2.817-.596.953-1.763.953t-1.762-.953q-.597-.951-.596-2.817 0-1.865.596-2.817.595-.952 1.762-.952m0 6.757q.693 0 1.031-.737.34-.737.341-2.251 0-.805-.097-1.455l-2.325 3.638q.368.805 1.05.805m0-5.976q-.688 0-1.03.737-.337.738-.337 2.251 0 .689.093 1.289l2.275-3.628q-.37-.65-1.001-.649m5.113 1.152h1.523v1.763h-1.523zm0 3.687h1.523V226h-1.523zm6.938-5.62q1.167 0 1.763.952.6.952.6 2.817t-.6 2.817q-.596.953-1.763.953t-1.763-.953q-.595-.951-.595-2.817 0-1.865.595-2.817.596-.952 1.763-.952m0 6.757q.694 0 1.03-.737.342-.737.342-2.251a10 10 0 0 0-.098-1.455l-2.324 3.638q.366.805 1.05.805m0-5.976q-.688 0-1.03.737-.337.738-.337 2.251 0 .689.093 1.289l2.275-3.628q-.37-.65-1.001-.649m6.025-.781q1.167 0 1.763.952.601.952.601 2.817t-.601 2.817q-.596.953-1.763.953t-1.762-.953q-.596-.951-.596-2.817 0-1.865.596-2.817.595-.952 1.762-.952m0 6.757q.694 0 1.031-.737.341-.737.341-2.251 0-.805-.097-1.455l-2.324 3.638q.366.805 1.049.805m0-5.976q-.688 0-1.03.737-.337.738-.337 2.251 0 .689.093 1.289l2.275-3.628q-.37-.65-1.001-.649"/><path fill="#3369ff" d="M404.25 84.25a.75.75 0 0 0-1.5 0h1.5m-1.5 16.639a.75.75 0 0 0 1.5 0h-1.5m1.5 39.063a.75.75 0 1 0-1.5 0h1.5m-1.28 18.328a.75.75 0 0 0 1.06 0l4.773-4.773a.749.749 0 1 0-1.06-1.06l-4.243 4.242-4.243-4.242a.749.749 0 1 0-1.06 1.06zm-.22-68.484a.75.75 0 0 0 1.5 0h-1.5m1.5 5.547a.75.75 0 0 0-1.5 0h1.5m-1.5 50.541a.75.75 0 1 0 1.5 0h-1.5m1.5 5.933a.75.75 0 0 0-1.5 0h1.5m-.75-67.567h-.75v5.546h1.5V84.25zm0 11.093h-.75v5.546h1.5v-5.546zm0 44.609h-.75v5.932h1.5v-5.932zm0 11.865h-.75v5.933h1.5v-5.933z"/><path fill="#edeef3" d="M364.43 116.42h-1.165l2.617-7.272h1.268l2.617 7.272h-1.165l-2.056-5.951h-.057zm.195-2.848h3.778v.924h-3.778zm8.196 5.008q-.65 0-1.118-.171a2.2 2.2 0 0 1-.76-.451 1.9 1.9 0 0 1-.441-.614l.913-.377q.096.156.256.331.163.177.44.301.28.125.721.125.603 0 .998-.295.394-.291.394-.93v-1.073h-.068a2.4 2.4 0 0 1-.277.387 1.5 1.5 0 0 1-.49.369q-.312.157-.813.157-.646 0-1.165-.302a2.14 2.14 0 0 1-.816-.899q-.299-.596-.299-1.466t.295-1.492q.298-.621.817-.951a2.1 2.1 0 0 1 1.175-.334q.508 0 .821.17.312.168.486.391.178.223.274.394h.078v-.884h1.04v5.575q0 .704-.327 1.154a1.9 1.9 0 0 1-.884.668 3.4 3.4 0 0 1-1.25.217m-.01-3.122q.457 0 .774-.213.32-.216.483-.618.167-.405.167-.969 0-.55-.164-.97a1.45 1.45 0 0 0-.479-.653q-.316-.238-.781-.238-.48 0-.799.248a1.5 1.5 0 0 0-.483.668q-.16.423-.16.945 0 .536.163.941t.483.632q.324.227.796.227m6.072 3.122q-.65 0-1.119-.171a2.2 2.2 0 0 1-.759-.451 1.9 1.9 0 0 1-.441-.614l.913-.377q.096.156.255.331.163.177.441.301.28.125.721.125.603 0 .998-.295.393-.291.394-.93v-1.073h-.068a2.4 2.4 0 0 1-.277.387 1.5 1.5 0 0 1-.49.369q-.312.157-.813.157-.646 0-1.165-.302a2.15 2.15 0 0 1-.817-.899q-.297-.596-.298-1.466 0-.87.295-1.492.298-.621.817-.951a2.1 2.1 0 0 1 1.175-.334q.508 0 .82.17.313.168.487.391.177.223.273.394h.079v-.884h1.04v5.575q0 .704-.327 1.154a1.92 1.92 0 0 1-.884.668 3.4 3.4 0 0 1-1.25.217m-.011-3.122q.459 0 .775-.213.32-.216.483-.618.166-.405.166-.969 0-.55-.163-.97a1.45 1.45 0 0 0-.479-.653q-.316-.238-.782-.238-.479 0-.799.248a1.5 1.5 0 0 0-.483.668 2.7 2.7 0 0 0-.159.945q0 .536.163.941t.483.632q.323.227.795.227m3.786.962v-5.454h1.026v.866h.057q.15-.44.526-.692.38-.256.859-.256.099 0 .234.007.14.007.217.018v1.016a2 2 0 0 0-.227-.039 2 2 0 0 0-.327-.025q-.377 0-.671.16a1.19 1.19 0 0 0-.632 1.068v3.331zm5.883.11q-.806 0-1.388-.344a2.33 2.33 0 0 1-.895-.977q-.312-.632-.312-1.48 0-.838.312-1.478.316-.639.881-.997.568-.36 1.328-.359.462 0 .895.153.433.152.777.479t.544.849q.198.518.199 1.26v.377h-4.336v-.796h3.295q0-.418-.17-.742a1.3 1.3 0 0 0-1.197-.703q-.447 0-.781.22a1.5 1.5 0 0 0-.512.568 1.65 1.65 0 0 0-.177.757v.621q0 .547.192.931.195.383.543.586.348.198.813.198.302 0 .551-.085.248-.089.429-.263a1.14 1.14 0 0 0 .277-.429l1.005.181q-.12.444-.433.777a2.1 2.1 0 0 1-.778.515q-.465.181-1.062.181m5.696 2.05q-.65 0-1.119-.171a2.2 2.2 0 0 1-.76-.451 1.9 1.9 0 0 1-.44-.614l.912-.377q.096.156.256.331.164.177.44.301.281.125.721.125.604 0 .998-.295.394-.291.394-.93v-1.073h-.067a2.4 2.4 0 0 1-.277.387 1.5 1.5 0 0 1-.49.369q-.314.157-.813.157-.647 0-1.165-.302a2.14 2.14 0 0 1-.817-.899q-.298-.596-.298-1.466t.295-1.492q.298-.621.816-.951a2.12 2.12 0 0 1 1.176-.334q.508 0 .82.17.313.168.487.391.177.223.273.394h.078v-.884h1.041v5.575q0 .704-.327 1.154a1.93 1.93 0 0 1-.884.668 3.4 3.4 0 0 1-1.25.217m-.011-3.122q.457 0 .774-.213.32-.216.483-.618.167-.405.167-.969 0-.55-.163-.97a1.44 1.44 0 0 0-.48-.653q-.315-.238-.781-.238-.48 0-.799.248a1.5 1.5 0 0 0-.483.668q-.16.423-.16.945 0 .536.164.941.162.404.483.632.322.227.795.227m5.373 1.083q-.519 0-.938-.192-.418-.195-.664-.564-.241-.369-.241-.906 0-.462.177-.76.178-.298.48-.472t.675-.263a7 7 0 0 1 .76-.135l.795-.092q.306-.04.444-.124.138-.086.138-.277v-.025q0-.466-.262-.721-.26-.256-.775-.256-.536 0-.845.238-.305.234-.422.522l-.998-.227q.177-.498.518-.803.345-.309.792-.447a3 3 0 0 1 .941-.142q.327 0 .693.078.37.075.689.277.322.203.529.579.206.373.206.969v3.622h-1.037v-.745h-.043a1.5 1.5 0 0 1-.309.405 1.7 1.7 0 0 1-.529.33 2.1 2.1 0 0 1-.774.131m.231-.852q.44 0 .753-.174.315-.174.479-.455.167-.283.167-.607v-.703a.55.55 0 0 1-.22.106 4 4 0 0 1-.366.082l-.401.061-.327.042q-.309.039-.565.132a.96.96 0 0 0-.404.266.66.66 0 0 0-.15.454q0 .394.292.597.29.2.742.199m6.311-4.723v.852h-2.979v-.852zm-2.18-1.307h1.062v5.16q0 .309.092.465a.48.48 0 0 0 .238.21 1 1 0 0 0 .323.053q.128 0 .224-.018l.149-.028.192.877q-.093.035-.263.071-.171.039-.426.042a1.9 1.9 0 0 1-.782-.149 1.35 1.35 0 0 1-.586-.483q-.223-.326-.223-.82zm3.245 6.761v-5.454h1.061v5.454zm.536-6.296a.68.68 0 0 1-.476-.184.6.6 0 0 1-.195-.448q0-.263.195-.447a.67.67 0 0 1 .476-.189q.277 0 .472.189a.59.59 0 0 1 .199.447.6.6 0 0 1-.199.448.66.66 0 0 1-.472.184m4.141 6.406q-.767 0-1.338-.351a2.37 2.37 0 0 1-.888-.984q-.316-.632-.316-1.477 0-.85.316-1.484.317-.636.888-.988.571-.351 1.338-.351t1.339.351q.572.352.888.988.316.635.316 1.484 0 .845-.316 1.477a2.37 2.37 0 0 1-.888.984q-.571.351-1.339.351m.004-.891q.497 0 .824-.263t.483-.699q.16-.436.16-.963 0-.522-.16-.958a1.56 1.56 0 0 0-.483-.707q-.327-.267-.824-.266-.501 0-.831.266-.327.267-.486.707-.157.436-.157.958 0 .526.157.963.159.436.486.699.33.263.831.263m4.676-2.457v3.238h-1.062v-5.454h1.019v.888h.068q.188-.433.589-.696.405-.263 1.02-.263.557 0 .976.234.42.231.65.689.231.459.231 1.133v3.469h-1.062v-3.341q0-.594-.309-.927-.309-.337-.849-.337-.369 0-.657.159a1.16 1.16 0 0 0-.451.469 1.56 1.56 0 0 0-.163.739m7.341 3.238v-5.454h1.027v.866h.056q.15-.44.526-.692a1.5 1.5 0 0 1 .859-.256q.1 0 .235.007.138.007.216.018v1.016a2 2 0 0 0-.227-.039 2 2 0 0 0-.327-.025 1.4 1.4 0 0 0-.671.16 1.18 1.18 0 0 0-.632 1.068v3.331zm7.183-2.262v-3.192h1.066v5.454h-1.044v-.944h-.057a1.7 1.7 0 0 1-.604.728q-.411.288-1.026.287a1.85 1.85 0 0 1-.93-.23 1.62 1.62 0 0 1-.633-.693q-.227-.458-.227-1.133v-3.469h1.062v3.341q0 .558.309.888.308.33.803.331a1.3 1.3 0 0 0 .593-.15q.298-.148.493-.451.2-.302.195-.767m3.444-.976v3.238h-1.062v-5.454h1.02v.888h.067q.188-.433.59-.696.404-.263 1.019-.263.557 0 .976.234.42.231.65.689.231.459.231 1.133v3.469h-1.062v-3.341q0-.594-.309-.927-.31-.337-.848-.337-.37 0-.657.159-.285.16-.451.469-.164.306-.164.739m8.892-.884-.962.17a1.1 1.1 0 0 0-.192-.352.95.95 0 0 0-.348-.273 1.3 1.3 0 0 0-.55-.107q-.452 0-.753.203-.302.198-.302.515 0 .273.203.44.202.167.653.274l.866.198q.753.174 1.123.537.369.362.369.941 0 .49-.284.873a1.86 1.86 0 0 1-.785.597 2.9 2.9 0 0 1-1.161.216q-.916 0-1.495-.39-.58-.395-.71-1.119l1.026-.156a.98.98 0 0 0 .394.607q.298.203.778.203.522 0 .834-.217.313-.22.313-.536a.56.56 0 0 0-.192-.43q-.188-.173-.579-.263l-.923-.202q-.764-.174-1.129-.554-.363-.38-.363-.962 0-.483.27-.846.27-.361.746-.564a2.7 2.7 0 0 1 1.09-.206q.885 0 1.392.383.509.38.671 1.02m-57.461 19.243q-.52 0-.938-.192a1.6 1.6 0 0 1-.664-.564q-.242-.369-.242-.906 0-.462.178-.76.177-.298.479-.472.303-.174.675-.263a7 7 0 0 1 .76-.135l.796-.092q.305-.04.443-.124.14-.086.139-.277v-.025q0-.466-.263-.721-.26-.256-.774-.256-.536 0-.845.238-.306.234-.423.522l-.998-.227a1.9 1.9 0 0 1 .519-.803q.343-.309.792-.447a3 3 0 0 1 .941-.142q.326 0 .692.078.37.075.689.277.324.203.529.579.207.373.206.969v3.622h-1.037v-.745h-.042a1.5 1.5 0 0 1-.309.405 1.7 1.7 0 0 1-.529.33 2.1 2.1 0 0 1-.774.131m.23-.852q.441 0 .753-.174a1.2 1.2 0 0 0 .48-.455q.166-.283.166-.607v-.703a.54.54 0 0 1-.22.106 3 3 0 0 1-.365.082l-.402.061-.326.042a2.6 2.6 0 0 0-.565.132.97.97 0 0 0-.405.266.67.67 0 0 0-.149.454q0 .394.291.597.291.2.742.199m6.312-4.723v.852h-2.98v-.852zm-2.181-1.307h1.062v5.16q0 .309.092.465a.5.5 0 0 0 .238.21q.15.053.323.053.129 0 .224-.018l.149-.028.192.877a2.051 2.051 0 0 1-.689.113 1.9 1.9 0 0 1-.781-.149 1.33 1.33 0 0 1-.586-.483q-.224-.326-.224-.82zm8.299 6.882q-.841-.003-1.438-.444-.596-.44-.912-1.282t-.316-2.027q0-1.183.316-2.021.32-.838.916-1.278.6-.441 1.434-.441.835 0 1.432.444.596.44.912 1.279.32.834.32 2.017 0 1.19-.316 2.031-.316.838-.913 1.282-.597.44-1.435.44m0-.948q.74 0 1.155-.721.419-.72.419-2.084 0-.906-.192-1.531-.189-.628-.543-.952a1.2 1.2 0 0 0-.839-.326q-.735 0-1.154.724-.419.725-.422 2.085 0 .909.188 1.537.192.625.543.948.352.32.845.32m6.346.948q-.843-.003-1.439-.444-.596-.44-.912-1.282t-.316-2.027q0-1.183.316-2.021.32-.838.916-1.278.6-.441 1.435-.441.834 0 1.431.444.596.44.912 1.279.32.834.32 2.017 0 1.19-.316 2.031-.316.838-.913 1.282-.597.44-1.434.44m0-.948q.738 0 1.154-.721.419-.72.419-2.084 0-.906-.192-1.531-.189-.628-.543-.952a1.2 1.2 0 0 0-.838-.326q-.736 0-1.155.724-.419.725-.422 2.085 0 .909.188 1.537.192.625.543.948.352.32.846.32m4.526-.075a.68.68 0 0 1-.5-.206.68.68 0 0 1-.21-.504q0-.291.21-.497a.68.68 0 0 1 .5-.209q.292 0 .501.209a.67.67 0 0 1 .21.497q0 .195-.1.359a.74.74 0 0 1-.255.256.7.7 0 0 1-.356.095m0-3.643a.69.69 0 0 1-.5-.206.69.69 0 0 1-.21-.504q0-.291.21-.497a.68.68 0 0 1 .5-.21q.292 0 .501.21a.67.67 0 0 1 .21.497.67.67 0 0 1-.1.358.74.74 0 0 1-.255.256.7.7 0 0 1-.356.096m4.541 4.645q-.732 0-1.307-.252a2.2 2.2 0 0 1-.906-.7 1.86 1.86 0 0 1-.355-1.044h1.115a.96.96 0 0 0 .217.561q.198.234.518.362.32.129.711.128.429 0 .759-.149.334-.149.523-.415.188-.27.188-.622a1.1 1.1 0 0 0-.188-.643 1.24 1.24 0 0 0-.544-.44 2.1 2.1 0 0 0-.859-.16h-.615v-.895h.615q.404 0 .71-.145.309-.145.483-.405.174-.263.174-.614 0-.338-.153-.586a1.02 1.02 0 0 0-.426-.395 1.4 1.4 0 0 0-.646-.142q-.355 0-.664.132-.306.127-.497.369a.95.95 0 0 0-.206.572h-1.062q.018-.59.348-1.037.333-.448.881-.7a2.9 2.9 0 0 1 1.214-.252q.7 0 1.207.274.512.27.789.721.28.45.277.987.004.61-.341 1.037a1.65 1.65 0 0 1-.909.571v.057q.725.11 1.122.576.4.464.398 1.154a1.8 1.8 0 0 1-.334 1.076 2.3 2.3 0 0 1-.913.749q-.579.27-1.324.27m6.204 0q-.668 0-1.201-.256a2.2 2.2 0 0 1-.845-.71 1.87 1.87 0 0 1-.337-1.03h1.065q.04.469.416.771t.902.302q.418 0 .742-.192.327-.195.511-.536a1.6 1.6 0 0 0 .188-.778q0-.444-.191-.792a1.4 1.4 0 0 0-.53-.547 1.5 1.5 0 0 0-.767-.202q-.33 0-.664.113a1.5 1.5 0 0 0-.539.299l-1.005-.15.408-3.664h3.999v.941h-3.086l-.231 2.035h.042q.213-.207.565-.345a2.1 2.1 0 0 1 .76-.138 2.23 2.23 0 0 1 2.003 1.179q.301.542.298 1.25.003.707-.319 1.26-.32.555-.888.874-.566.316-1.296.316"/></g><defs><clipPath id="a"><path fill="#fff" d="M0 0h720v253H0z"/></clipPath><clipPath id="b"><path fill="#fff" d="M0-8h720v314H0z"/></clipPath></defs></svg>