<svg xmlns="http://www.w3.org/2000/svg" width="720" height="172" fill="none"><g clip-path="url(#a)"><path fill="#17181c" d="M0 0h720v172H0z"/><g fill="#353841" clip-path="url(#b)" opacity=".5"><path d="M-11 324a1 1 0 1 1 0 2 1 1 0 0 1 0-2M3 324a1 1 0 1 1 0 2 1 1 0 0 1 0-2M17 324a1 1 0 1 1 0 2 1 1 0 0 1 0-2M31 324a1 1 0 1 1 0 2 1 1 0 0 1 0-2M45 324a1 1 0 1 1 0 2 1 1 0 0 1 0-2M59 324a1 1 0 1 1 0 2 1 1 0 0 1 0-2M73 324a1 1 0 1 1 0 2 1 1 0 0 1 0-2M87 324a1 1 0 1 1 0 2 1 1 0 0 1 0-2M101 324a1 1 0 1 1 0 2 1 1 0 0 1 0-2M115 324a1 1 0 1 1 0 2 1 1 0 0 1 0-2M129 324a1 1 0 1 1 0 2 1 1 0 0 1 0-2M143 324a1 1 0 1 1 0 2 1 1 0 0 1 0-2M157 324a1 1 0 1 1 0 2 1 1 0 0 1 0-2M171 324a1 1 0 1 1 0 2 1 1 0 0 1 0-2M185 324a1 1 0 1 1 0 2 1 1 0 0 1 0-2M199 324a1 1 0 1 1 0 2 1 1 0 0 1 0-2M213 324a1 1 0 1 1 0 2 1 1 0 0 1 0-2M227 324a1 1 0 1 1 0 2 1 1 0 0 1 0-2M241 324a1 1 0 1 1 0 2 1 1 0 0 1 0-2M255 324a1 1 0 1 1 0 2 1 1 0 0 1 0-2M269 324a1 1 0 1 1 0 2 1 1 0 0 1 0-2M283 324a1 1 0 1 1 0 2 1 1 0 0 1 0-2M297 324a1 1 0 1 1 0 2 1 1 0 0 1 0-2M311 324a1 1 0 1 1 0 2 1 1 0 0 1 0-2M325 324a1 1 0 1 1 0 2 1 1 0 0 1 0-2M339 324a1 1 0 1 1 0 2 1 1 0 0 1 0-2M353 324a1 1 0 1 1 0 2 1 1 0 0 1 0-2M367 324a1 1 0 1 1 0 2 1 1 0 0 1 0-2M381 324a1 1 0 1 1 0 2 1 1 0 0 1 0-2M395 324a1 1 0 1 1 0 2 1 1 0 0 1 0-2M409 324a1 1 0 1 1 0 2 1 1 0 0 1 0-2M423 324a1 1 0 1 1 0 2 1 1 0 0 1 0-2M437 324a1 1 0 1 1 0 2 1 1 0 0 1 0-2M451 324a1 1 0 1 1 0 2 1 1 0 0 1 0-2M465 324a1 1 0 1 1 0 2 1 1 0 0 1 0-2M479 324a1 1 0 1 1 0 2 1 1 0 0 1 0-2M493 324a1 1 0 1 1 0 2 1 1 0 0 1 0-2M507 324a1 1 0 1 1 0 2 1 1 0 0 1 0-2M521 324a1 1 0 1 1 0 2 1 1 0 0 1 0-2M535 324a1 1 0 1 1 0 2 1 1 0 0 1 0-2M549 324a1 1 0 1 1 0 2 1 1 0 0 1 0-2M563 324a1 1 0 1 1 0 2 1 1 0 0 1 0-2M577 324a1 1 0 1 1 0 2 1 1 0 0 1 0-2M591 324a1 1 0 1 1 0 2 1 1 0 0 1 0-2M605 324a1 1 0 1 1 0 2 1 1 0 0 1 0-2M619 324a1 1 0 1 1 0 2 1 1 0 0 1 0-2M633 324a1 1 0 1 1 0 2 1 1 0 0 1 0-2M647 324a1 1 0 1 1 0 2 1 1 0 0 1 0-2M661 324a1 1 0 1 1 0 2 1 1 0 0 1 0-2M675 324a1 1 0 1 1 0 2 1 1 0 0 1 0-2M689 324a1 1 0 1 1 0 2 1 1 0 0 1 0-2M703 324a1 1 0 1 1 0 2 1 1 0 0 1 0-2M-11 310a1 1 0 1 1 0 2 1 1 0 0 1 0-2M3 310a1 1 0 1 1 0 2 1 1 0 0 1 0-2M17 310a1 1 0 1 1 0 2 1 1 0 0 1 0-2M31 310a1 1 0 1 1 0 2 1 1 0 0 1 0-2M45 310a1 1 0 1 1 0 2 1 1 0 0 1 0-2M59 310a1 1 0 1 1 0 2 1 1 0 0 1 0-2M73 310a1 1 0 1 1 0 2 1 1 0 0 1 0-2M87 310a1 1 0 1 1 0 2 1 1 0 0 1 0-2M101 310a1 1 0 1 1 0 2 1 1 0 0 1 0-2M115 310a1 1 0 1 1 0 2 1 1 0 0 1 0-2M129 310a1 1 0 1 1 0 2 1 1 0 0 1 0-2M143 310a1 1 0 1 1 0 2 1 1 0 0 1 0-2M157 310a1 1 0 1 1 0 2 1 1 0 0 1 0-2M171 310a1 1 0 1 1 0 2 1 1 0 0 1 0-2M185 310a1 1 0 1 1 0 2 1 1 0 0 1 0-2M199 310a1 1 0 1 1 0 2 1 1 0 0 1 0-2M213 310a1 1 0 1 1 0 2 1 1 0 0 1 0-2M227 310a1 1 0 1 1 0 2 1 1 0 0 1 0-2M241 310a1 1 0 1 1 0 2 1 1 0 0 1 0-2M255 310a1 1 0 1 1 0 2 1 1 0 0 1 0-2M269 310a1 1 0 1 1 0 2 1 1 0 0 1 0-2M283 310a1 1 0 1 1 0 2 1 1 0 0 1 0-2M297 310a1 1 0 1 1 0 2 1 1 0 0 1 0-2M311 310a1 1 0 1 1 0 2 1 1 0 0 1 0-2M325 310a1 1 0 1 1 0 2 1 1 0 0 1 0-2M339 310a1 1 0 1 1 0 2 1 1 0 0 1 0-2M353 310a1 1 0 1 1 0 2 1 1 0 0 1 0-2M367 310a1 1 0 1 1 0 2 1 1 0 0 1 0-2M381 310a1 1 0 1 1 0 2 1 1 0 0 1 0-2M395 310a1 1 0 1 1 0 2 1 1 0 0 1 0-2M409 310a1 1 0 1 1 0 2 1 1 0 0 1 0-2M423 310a1 1 0 1 1 0 2 1 1 0 0 1 0-2M437 310a1 1 0 1 1 0 2 1 1 0 0 1 0-2M451 310a1 1 0 1 1 0 2 1 1 0 0 1 0-2M465 310a1 1 0 1 1 0 2 1 1 0 0 1 0-2M479 310a1 1 0 1 1 0 2 1 1 0 0 1 0-2M493 310a1 1 0 1 1 0 2 1 1 0 0 1 0-2M507 310a1 1 0 1 1 0 2 1 1 0 0 1 0-2M521 310a1 1 0 1 1 0 2 1 1 0 0 1 0-2M535 310a1 1 0 1 1 0 2 1 1 0 0 1 0-2M549 310a1 1 0 1 1 0 2 1 1 0 0 1 0-2M563 310a1 1 0 1 1 0 2 1 1 0 0 1 0-2M577 310a1 1 0 1 1 0 2 1 1 0 0 1 0-2M591 310a1 1 0 1 1 0 2 1 1 0 0 1 0-2M605 310a1 1 0 1 1 0 2 1 1 0 0 1 0-2M619 310a1 1 0 1 1 0 2 1 1 0 0 1 0-2M633 310a1 1 0 1 1 0 2 1 1 0 0 1 0-2M647 310a1 1 0 1 1 0 2 1 1 0 0 1 0-2M661 310a1 1 0 1 1 0 2 1 1 0 0 1 0-2M675 310a1 1 0 1 1 0 2 1 1 0 0 1 0-2M689 310a1 1 0 1 1 0 2 1 1 0 0 1 0-2M703 310a1 1 0 1 1 0 2 1 1 0 0 1 0-2M717 310a1 1 0 1 1 0 2 1 1 0 0 1 0-2M-11 296a1 1 0 1 1 0 2 1 1 0 0 1 0-2M3 296a1 1 0 1 1 0 2 1 1 0 0 1 0-2M17 296a1 1 0 1 1 0 2 1 1 0 0 1 0-2M31 296a1 1 0 1 1 0 2 1 1 0 0 1 0-2M45 296a1 1 0 1 1 0 2 1 1 0 0 1 0-2M59 296a1 1 0 1 1 0 2 1 1 0 0 1 0-2M73 296a1 1 0 1 1 0 2 1 1 0 0 1 0-2M87 296a1 1 0 1 1 0 2 1 1 0 0 1 0-2M101 296a1 1 0 1 1 0 2 1 1 0 0 1 0-2M115 296a1 1 0 1 1 0 2 1 1 0 0 1 0-2M129 296a1 1 0 1 1 0 2 1 1 0 0 1 0-2M143 296a1 1 0 1 1 0 2 1 1 0 0 1 0-2M157 296a1 1 0 1 1 0 2 1 1 0 0 1 0-2M171 296a1 1 0 1 1 0 2 1 1 0 0 1 0-2M185 296a1 1 0 1 1 0 2 1 1 0 0 1 0-2M199 296a1 1 0 1 1 0 2 1 1 0 0 1 0-2M213 296a1 1 0 1 1 0 2 1 1 0 0 1 0-2M227 296a1 1 0 1 1 0 2 1 1 0 0 1 0-2M241 296a1 1 0 1 1 0 2 1 1 0 0 1 0-2M255 296a1 1 0 1 1 0 2 1 1 0 0 1 0-2M269 296a1 1 0 1 1 0 2 1 1 0 0 1 0-2M283 296a1 1 0 1 1 0 2 1 1 0 0 1 0-2M297 296a1 1 0 1 1 0 2 1 1 0 0 1 0-2M311 296a1 1 0 1 1 0 2 1 1 0 0 1 0-2M325 296a1 1 0 1 1 0 2 1 1 0 0 1 0-2M339 296a1 1 0 1 1 0 2 1 1 0 0 1 0-2M353 296a1 1 0 1 1 0 2 1 1 0 0 1 0-2M367 296a1 1 0 1 1 0 2 1 1 0 0 1 0-2M381 296a1 1 0 1 1 0 2 1 1 0 0 1 0-2M395 296a1 1 0 1 1 0 2 1 1 0 0 1 0-2M409 296a1 1 0 1 1 0 2 1 1 0 0 1 0-2M423 296a1 1 0 1 1 0 2 1 1 0 0 1 0-2M437 296a1 1 0 1 1 0 2 1 1 0 0 1 0-2M451 296a1 1 0 1 1 0 2 1 1 0 0 1 0-2M465 296a1 1 0 1 1 0 2 1 1 0 0 1 0-2M479 296a1 1 0 1 1 0 2 1 1 0 0 1 0-2M493 296a1 1 0 1 1 0 2 1 1 0 0 1 0-2M507 296a1 1 0 1 1 0 2 1 1 0 0 1 0-2M521 296a1 1 0 1 1 0 2 1 1 0 0 1 0-2M535 296a1 1 0 1 1 0 2 1 1 0 0 1 0-2M549 296a1 1 0 1 1 0 2 1 1 0 0 1 0-2M563 296a1 1 0 1 1 0 2 1 1 0 0 1 0-2M577 296a1 1 0 1 1 0 2 1 1 0 0 1 0-2M591 296a1 1 0 1 1 0 2 1 1 0 0 1 0-2M605 296a1 1 0 1 1 0 2 1 1 0 0 1 0-2M619 296a1 1 0 1 1 0 2 1 1 0 0 1 0-2M633 296a1 1 0 1 1 0 2 1 1 0 0 1 0-2M647 296a1 1 0 1 1 0 2 1 1 0 0 1 0-2M661 296a1 1 0 1 1 0 2 1 1 0 0 1 0-2M675 296a1 1 0 1 1 0 2 1 1 0 0 1 0-2M689 296a1 1 0 1 1 0 2 1 1 0 0 1 0-2M703 296a1 1 0 1 1 0 2 1 1 0 0 1 0-2M717 296a1 1 0 1 1 0 2 1 1 0 0 1 0-2M-11 282a1 1 0 1 1 0 2 1 1 0 0 1 0-2M3 282a1 1 0 1 1 0 2 1 1 0 0 1 0-2M17 282a1 1 0 1 1 0 2 1 1 0 0 1 0-2M31 282a1 1 0 1 1 0 2 1 1 0 0 1 0-2M45 282a1 1 0 1 1 0 2 1 1 0 0 1 0-2M59 282a1 1 0 1 1 0 2 1 1 0 0 1 0-2M73 282a1 1 0 1 1 0 2 1 1 0 0 1 0-2M87 282a1 1 0 1 1 0 2 1 1 0 0 1 0-2M101 282a1 1 0 1 1 0 2 1 1 0 0 1 0-2M115 282a1 1 0 1 1 0 2 1 1 0 0 1 0-2M129 282a1 1 0 1 1 0 2 1 1 0 0 1 0-2M143 282a1 1 0 1 1 0 2 1 1 0 0 1 0-2M157 282a1 1 0 1 1 0 2 1 1 0 0 1 0-2M171 282a1 1 0 1 1 0 2 1 1 0 0 1 0-2M185 282a1 1 0 1 1 0 2 1 1 0 0 1 0-2M199 282a1 1 0 1 1 0 2 1 1 0 0 1 0-2M213 282a1 1 0 1 1 0 2 1 1 0 0 1 0-2M227 282a1 1 0 1 1 0 2 1 1 0 0 1 0-2M241 282a1 1 0 1 1 0 2 1 1 0 0 1 0-2M255 282a1 1 0 1 1 0 2 1 1 0 0 1 0-2M269 282a1 1 0 1 1 0 2 1 1 0 0 1 0-2M283 282a1 1 0 1 1 0 2 1 1 0 0 1 0-2M297 282a1 1 0 1 1 0 2 1 1 0 0 1 0-2M311 282a1 1 0 1 1 0 2 1 1 0 0 1 0-2M325 282a1 1 0 1 1 0 2 1 1 0 0 1 0-2M339 282a1 1 0 1 1 0 2 1 1 0 0 1 0-2M353 282a1 1 0 1 1 0 2 1 1 0 0 1 0-2M367 282a1 1 0 1 1 0 2 1 1 0 0 1 0-2M381 282a1 1 0 1 1 0 2 1 1 0 0 1 0-2M395 282a1 1 0 1 1 0 2 1 1 0 0 1 0-2M409 282a1 1 0 1 1 0 2 1 1 0 0 1 0-2M423 282a1 1 0 1 1 0 2 1 1 0 0 1 0-2M437 282a1 1 0 1 1 0 2 1 1 0 0 1 0-2M451 282a1 1 0 1 1 0 2 1 1 0 0 1 0-2M465 282a1 1 0 1 1 0 2 1 1 0 0 1 0-2M479 282a1 1 0 1 1 0 2 1 1 0 0 1 0-2M493 282a1 1 0 1 1 0 2 1 1 0 0 1 0-2M507 282a1 1 0 1 1 0 2 1 1 0 0 1 0-2M521 282a1 1 0 1 1 0 2 1 1 0 0 1 0-2M535 282a1 1 0 1 1 0 2 1 1 0 0 1 0-2M549 282a1 1 0 1 1 0 2 1 1 0 0 1 0-2M563 282a1 1 0 1 1 0 2 1 1 0 0 1 0-2M577 282a1 1 0 1 1 0 2 1 1 0 0 1 0-2M591 282a1 1 0 1 1 0 2 1 1 0 0 1 0-2M605 282a1 1 0 1 1 0 2 1 1 0 0 1 0-2M619 282a1 1 0 1 1 0 2 1 1 0 0 1 0-2M633 282a1 1 0 1 1 0 2 1 1 0 0 1 0-2M647 282a1 1 0 1 1 0 2 1 1 0 0 1 0-2M661 282a1 1 0 1 1 0 2 1 1 0 0 1 0-2M675 282a1 1 0 1 1 0 2 1 1 0 0 1 0-2M689 282a1 1 0 1 1 0 2 1 1 0 0 1 0-2M703 282a1 1 0 1 1 0 2 1 1 0 0 1 0-2M717 282a1 1 0 1 1 0 2 1 1 0 0 1 0-2M-11 268a1 1 0 1 1 0 2 1 1 0 0 1 0-2M3 268a1 1 0 1 1 0 2 1 1 0 0 1 0-2M17 268a1 1 0 1 1 0 2 1 1 0 0 1 0-2M31 268a1 1 0 1 1 0 2 1 1 0 0 1 0-2M45 268a1 1 0 1 1 0 2 1 1 0 0 1 0-2M59 268a1 1 0 1 1 0 2 1 1 0 0 1 0-2M73 268a1 1 0 1 1 0 2 1 1 0 0 1 0-2M87 268a1 1 0 1 1 0 2 1 1 0 0 1 0-2M101 268a1 1 0 1 1 0 2 1 1 0 0 1 0-2M115 268a1 1 0 1 1 0 2 1 1 0 0 1 0-2M129 268a1 1 0 1 1 0 2 1 1 0 0 1 0-2M143 268a1 1 0 1 1 0 2 1 1 0 0 1 0-2M157 268a1 1 0 1 1 0 2 1 1 0 0 1 0-2M171 268a1 1 0 1 1 0 2 1 1 0 0 1 0-2M185 268a1 1 0 1 1 0 2 1 1 0 0 1 0-2M199 268a1 1 0 1 1 0 2 1 1 0 0 1 0-2M213 268a1 1 0 1 1 0 2 1 1 0 0 1 0-2M227 268a1 1 0 1 1 0 2 1 1 0 0 1 0-2M241 268a1 1 0 1 1 0 2 1 1 0 0 1 0-2M255 268a1 1 0 1 1 0 2 1 1 0 0 1 0-2M269 268a1 1 0 1 1 0 2 1 1 0 0 1 0-2M283 268a1 1 0 1 1 0 2 1 1 0 0 1 0-2M297 268a1 1 0 1 1 0 2 1 1 0 0 1 0-2M311 268a1 1 0 1 1 0 2 1 1 0 0 1 0-2M325 268a1 1 0 1 1 0 2 1 1 0 0 1 0-2M339 268a1 1 0 1 1 0 2 1 1 0 0 1 0-2M353 268a1 1 0 1 1 0 2 1 1 0 0 1 0-2M367 268a1 1 0 1 1 0 2 1 1 0 0 1 0-2M381 268a1 1 0 1 1 0 2 1 1 0 0 1 0-2M395 268a1 1 0 1 1 0 2 1 1 0 0 1 0-2M409 268a1 1 0 1 1 0 2 1 1 0 0 1 0-2M423 268a1 1 0 1 1 0 2 1 1 0 0 1 0-2M437 268a1 1 0 1 1 0 2 1 1 0 0 1 0-2M451 268a1 1 0 1 1 0 2 1 1 0 0 1 0-2M465 268a1 1 0 1 1 0 2 1 1 0 0 1 0-2M479 268a1 1 0 1 1 0 2 1 1 0 0 1 0-2M493 268a1 1 0 1 1 0 2 1 1 0 0 1 0-2M507 268a1 1 0 1 1 0 2 1 1 0 0 1 0-2M521 268a1 1 0 1 1 0 2 1 1 0 0 1 0-2M535 268a1 1 0 1 1 0 2 1 1 0 0 1 0-2M549 268a1 1 0 1 1 0 2 1 1 0 0 1 0-2M563 268a1 1 0 1 1 0 2 1 1 0 0 1 0-2M577 268a1 1 0 1 1 0 2 1 1 0 0 1 0-2M591 268a1 1 0 1 1 0 2 1 1 0 0 1 0-2M605 268a1 1 0 1 1 0 2 1 1 0 0 1 0-2M619 268a1 1 0 1 1 0 2 1 1 0 0 1 0-2M633 268a1 1 0 1 1 0 2 1 1 0 0 1 0-2M647 268a1 1 0 1 1 0 2 1 1 0 0 1 0-2M661 268a1 1 0 1 1 0 2 1 1 0 0 1 0-2M675 268a1 1 0 1 1 0 2 1 1 0 0 1 0-2M689 268a1 1 0 1 1 0 2 1 1 0 0 1 0-2M703 268a1 1 0 1 1 0 2 1 1 0 0 1 0-2M717 268a1 1 0 1 1 0 2 1 1 0 0 1 0-2M-11 254a1 1 0 1 1 0 2 1 1 0 0 1 0-2M3 254a1 1 0 1 1 0 2 1 1 0 0 1 0-2M17 254a1 1 0 1 1 0 2 1 1 0 0 1 0-2M31 254a1 1 0 1 1 0 2 1 1 0 0 1 0-2M45 254a1 1 0 1 1 0 2 1 1 0 0 1 0-2M59 254a1 1 0 1 1 0 2 1 1 0 0 1 0-2M73 254a1 1 0 1 1 0 2 1 1 0 0 1 0-2M87 254a1 1 0 1 1 0 2 1 1 0 0 1 0-2M101 254a1 1 0 1 1 0 2 1 1 0 0 1 0-2M115 254a1 1 0 1 1 0 2 1 1 0 0 1 0-2M129 254a1 1 0 1 1 0 2 1 1 0 0 1 0-2M143 254a1 1 0 1 1 0 2 1 1 0 0 1 0-2M157 254a1 1 0 1 1 0 2 1 1 0 0 1 0-2M171 254a1 1 0 1 1 0 2 1 1 0 0 1 0-2M185 254a1 1 0 1 1 0 2 1 1 0 0 1 0-2M199 254a1 1 0 1 1 0 2 1 1 0 0 1 0-2M213 254a1 1 0 1 1 0 2 1 1 0 0 1 0-2M227 254a1 1 0 1 1 0 2 1 1 0 0 1 0-2M241 254a1 1 0 1 1 0 2 1 1 0 0 1 0-2M255 254a1 1 0 1 1 0 2 1 1 0 0 1 0-2M269 254a1 1 0 1 1 0 2 1 1 0 0 1 0-2M283 254a1 1 0 1 1 0 2 1 1 0 0 1 0-2M297 254a1 1 0 1 1 0 2 1 1 0 0 1 0-2M311 254a1 1 0 1 1 0 2 1 1 0 0 1 0-2M325 254a1 1 0 1 1 0 2 1 1 0 0 1 0-2M339 254a1 1 0 1 1 0 2 1 1 0 0 1 0-2M353 254a1 1 0 1 1 0 2 1 1 0 0 1 0-2M367 254a1 1 0 1 1 0 2 1 1 0 0 1 0-2M381 254a1 1 0 1 1 0 2 1 1 0 0 1 0-2M395 254a1 1 0 1 1 0 2 1 1 0 0 1 0-2M409 254a1 1 0 1 1 0 2 1 1 0 0 1 0-2M423 254a1 1 0 1 1 0 2 1 1 0 0 1 0-2M437 254a1 1 0 1 1 0 2 1 1 0 0 1 0-2M451 254a1 1 0 1 1 0 2 1 1 0 0 1 0-2M465 254a1 1 0 1 1 0 2 1 1 0 0 1 0-2M479 254a1 1 0 1 1 0 2 1 1 0 0 1 0-2M493 254a1 1 0 1 1 0 2 1 1 0 0 1 0-2M507 254a1 1 0 1 1 0 2 1 1 0 0 1 0-2M521 254a1 1 0 1 1 0 2 1 1 0 0 1 0-2M535 254a1 1 0 1 1 0 2 1 1 0 0 1 0-2M549 254a1 1 0 1 1 0 2 1 1 0 0 1 0-2M563 254a1 1 0 1 1 0 2 1 1 0 0 1 0-2M577 254a1 1 0 1 1 0 2 1 1 0 0 1 0-2M591 254a1 1 0 1 1 0 2 1 1 0 0 1 0-2M605 254a1 1 0 1 1 0 2 1 1 0 0 1 0-2M619 254a1 1 0 1 1 0 2 1 1 0 0 1 0-2M633 254a1 1 0 1 1 0 2 1 1 0 0 1 0-2M647 254a1 1 0 1 1 0 2 1 1 0 0 1 0-2M661 254a1 1 0 1 1 0 2 1 1 0 0 1 0-2M675 254a1 1 0 1 1 0 2 1 1 0 0 1 0-2M689 254a1 1 0 1 1 0 2 1 1 0 0 1 0-2M703 254a1 1 0 1 1 0 2 1 1 0 0 1 0-2M717 254a1 1 0 1 1 0 2 1 1 0 0 1 0-2M-11 240a1 1 0 1 1 0 2 1 1 0 0 1 0-2M3 240a1 1 0 1 1 0 2 1 1 0 0 1 0-2M17 240a1 1 0 1 1 0 2 1 1 0 0 1 0-2M31 240a1 1 0 1 1 0 2 1 1 0 0 1 0-2M45 240a1 1 0 1 1 0 2 1 1 0 0 1 0-2M59 240a1 1 0 1 1 0 2 1 1 0 0 1 0-2M73 240a1 1 0 1 1 0 2 1 1 0 0 1 0-2M87 240a1 1 0 1 1 0 2 1 1 0 0 1 0-2M101 240a1 1 0 1 1 0 2 1 1 0 0 1 0-2M115 240a1 1 0 1 1 0 2 1 1 0 0 1 0-2M129 240a1 1 0 1 1 0 2 1 1 0 0 1 0-2M143 240a1 1 0 1 1 0 2 1 1 0 0 1 0-2M157 240a1 1 0 1 1 0 2 1 1 0 0 1 0-2M171 240a1 1 0 1 1 0 2 1 1 0 0 1 0-2M185 240a1 1 0 1 1 0 2 1 1 0 0 1 0-2M199 240a1 1 0 1 1 0 2 1 1 0 0 1 0-2M213 240a1 1 0 1 1 0 2 1 1 0 0 1 0-2M227 240a1 1 0 1 1 0 2 1 1 0 0 1 0-2M241 240a1 1 0 1 1 0 2 1 1 0 0 1 0-2M255 240a1 1 0 1 1 0 2 1 1 0 0 1 0-2M269 240a1 1 0 1 1 0 2 1 1 0 0 1 0-2M283 240a1 1 0 1 1 0 2 1 1 0 0 1 0-2M297 240a1 1 0 1 1 0 2 1 1 0 0 1 0-2M311 240a1 1 0 1 1 0 2 1 1 0 0 1 0-2M325 240a1 1 0 1 1 0 2 1 1 0 0 1 0-2M339 240a1 1 0 1 1 0 2 1 1 0 0 1 0-2M353 240a1 1 0 1 1 0 2 1 1 0 0 1 0-2M367 240a1 1 0 1 1 0 2 1 1 0 0 1 0-2M381 240a1 1 0 1 1 0 2 1 1 0 0 1 0-2M395 240a1 1 0 1 1 0 2 1 1 0 0 1 0-2M409 240a1 1 0 1 1 0 2 1 1 0 0 1 0-2M423 240a1 1 0 1 1 0 2 1 1 0 0 1 0-2M437 240a1 1 0 1 1 0 2 1 1 0 0 1 0-2M451 240a1 1 0 1 1 0 2 1 1 0 0 1 0-2M465 240a1 1 0 1 1 0 2 1 1 0 0 1 0-2M479 240a1 1 0 1 1 0 2 1 1 0 0 1 0-2M493 240a1 1 0 1 1 0 2 1 1 0 0 1 0-2M507 240a1 1 0 1 1 0 2 1 1 0 0 1 0-2M521 240a1 1 0 1 1 0 2 1 1 0 0 1 0-2M535 240a1 1 0 1 1 0 2 1 1 0 0 1 0-2M549 240a1 1 0 1 1 0 2 1 1 0 0 1 0-2M563 240a1 1 0 1 1 0 2 1 1 0 0 1 0-2M577 240a1 1 0 1 1 0 2 1 1 0 0 1 0-2M591 240a1 1 0 1 1 0 2 1 1 0 0 1 0-2M605 240a1 1 0 1 1 0 2 1 1 0 0 1 0-2M619 240a1 1 0 1 1 0 2 1 1 0 0 1 0-2M633 240a1 1 0 1 1 0 2 1 1 0 0 1 0-2M647 240a1 1 0 1 1 0 2 1 1 0 0 1 0-2M661 240a1 1 0 1 1 0 2 1 1 0 0 1 0-2M675 240a1 1 0 1 1 0 2 1 1 0 0 1 0-2M689 240a1 1 0 1 1 0 2 1 1 0 0 1 0-2M703 240a1 1 0 1 1 0 2 1 1 0 0 1 0-2M717 240a1 1 0 1 1 0 2 1 1 0 0 1 0-2M-11 226a1 1 0 1 1 0 2 1 1 0 0 1 0-2M3 226a1 1 0 1 1 0 2 1 1 0 0 1 0-2M17 226a1 1 0 1 1 0 2 1 1 0 0 1 0-2M31 226a1 1 0 1 1 0 2 1 1 0 0 1 0-2M45 226a1 1 0 1 1 0 2 1 1 0 0 1 0-2M59 226a1 1 0 1 1 0 2 1 1 0 0 1 0-2M73 226a1 1 0 1 1 0 2 1 1 0 0 1 0-2M87 226a1 1 0 1 1 0 2 1 1 0 0 1 0-2M101 226a1 1 0 1 1 0 2 1 1 0 0 1 0-2M115 226a1 1 0 1 1 0 2 1 1 0 0 1 0-2M129 226a1 1 0 1 1 0 2 1 1 0 0 1 0-2M143 226a1 1 0 1 1 0 2 1 1 0 0 1 0-2M157 226a1 1 0 1 1 0 2 1 1 0 0 1 0-2M171 226a1 1 0 1 1 0 2 1 1 0 0 1 0-2M185 226a1 1 0 1 1 0 2 1 1 0 0 1 0-2M199 226a1 1 0 1 1 0 2 1 1 0 0 1 0-2M213 226a1 1 0 1 1 0 2 1 1 0 0 1 0-2M227 226a1 1 0 1 1 0 2 1 1 0 0 1 0-2M241 226a1 1 0 1 1 0 2 1 1 0 0 1 0-2M255 226a1 1 0 1 1 0 2 1 1 0 0 1 0-2M269 226a1 1 0 1 1 0 2 1 1 0 0 1 0-2M283 226a1 1 0 1 1 0 2 1 1 0 0 1 0-2M297 226a1 1 0 1 1 0 2 1 1 0 0 1 0-2M311 226a1 1 0 1 1 0 2 1 1 0 0 1 0-2M325 226a1 1 0 1 1 0 2 1 1 0 0 1 0-2M339 226a1 1 0 1 1 0 2 1 1 0 0 1 0-2M353 226a1 1 0 1 1 0 2 1 1 0 0 1 0-2M367 226a1 1 0 1 1 0 2 1 1 0 0 1 0-2M381 226a1 1 0 1 1 0 2 1 1 0 0 1 0-2M395 226a1 1 0 1 1 0 2 1 1 0 0 1 0-2M409 226a1 1 0 1 1 0 2 1 1 0 0 1 0-2M423 226a1 1 0 1 1 0 2 1 1 0 0 1 0-2M437 226a1 1 0 1 1 0 2 1 1 0 0 1 0-2M451 226a1 1 0 1 1 0 2 1 1 0 0 1 0-2M465 226a1 1 0 1 1 0 2 1 1 0 0 1 0-2M479 226a1 1 0 1 1 0 2 1 1 0 0 1 0-2M493 226a1 1 0 1 1 0 2 1 1 0 0 1 0-2M507 226a1 1 0 1 1 0 2 1 1 0 0 1 0-2M521 226a1 1 0 1 1 0 2 1 1 0 0 1 0-2M535 226a1 1 0 1 1 0 2 1 1 0 0 1 0-2M549 226a1 1 0 1 1 0 2 1 1 0 0 1 0-2M563 226a1 1 0 1 1 0 2 1 1 0 0 1 0-2M577 226a1 1 0 1 1 0 2 1 1 0 0 1 0-2M591 226a1 1 0 1 1 0 2 1 1 0 0 1 0-2M605 226a1 1 0 1 1 0 2 1 1 0 0 1 0-2M619 226a1 1 0 1 1 0 2 1 1 0 0 1 0-2M633 226a1 1 0 1 1 0 2 1 1 0 0 1 0-2M647 226a1 1 0 1 1 0 2 1 1 0 0 1 0-2M661 226a1 1 0 1 1 0 2 1 1 0 0 1 0-2M675 226a1 1 0 1 1 0 2 1 1 0 0 1 0-2M689 226a1 1 0 1 1 0 2 1 1 0 0 1 0-2M703 226a1 1 0 1 1 0 2 1 1 0 0 1 0-2M717 226a1 1 0 1 1 0 2 1 1 0 0 1 0-2M-11 212a1 1 0 1 1 0 2 1 1 0 0 1 0-2M3 212a1 1 0 1 1 0 2 1 1 0 0 1 0-2M17 212a1 1 0 1 1 0 2 1 1 0 0 1 0-2M31 212a1 1 0 1 1 0 2 1 1 0 0 1 0-2M45 212a1 1 0 1 1 0 2 1 1 0 0 1 0-2M59 212a1 1 0 1 1 0 2 1 1 0 0 1 0-2M73 212a1 1 0 1 1 0 2 1 1 0 0 1 0-2M87 212a1 1 0 1 1 0 2 1 1 0 0 1 0-2M101 212a1 1 0 1 1 0 2 1 1 0 0 1 0-2M115 212a1 1 0 1 1 0 2 1 1 0 0 1 0-2M129 212a1 1 0 1 1 0 2 1 1 0 0 1 0-2M143 212a1 1 0 1 1 0 2 1 1 0 0 1 0-2M157 212a1 1 0 1 1 0 2 1 1 0 0 1 0-2M171 212a1 1 0 1 1 0 2 1 1 0 0 1 0-2M185 212a1 1 0 1 1 0 2 1 1 0 0 1 0-2M199 212a1 1 0 1 1 0 2 1 1 0 0 1 0-2M213 212a1 1 0 1 1 0 2 1 1 0 0 1 0-2M227 212a1 1 0 1 1 0 2 1 1 0 0 1 0-2M241 212a1 1 0 1 1 0 2 1 1 0 0 1 0-2M255 212a1 1 0 1 1 0 2 1 1 0 0 1 0-2M269 212a1 1 0 1 1 0 2 1 1 0 0 1 0-2M283 212a1 1 0 1 1 0 2 1 1 0 0 1 0-2M297 212a1 1 0 1 1 0 2 1 1 0 0 1 0-2M311 212a1 1 0 1 1 0 2 1 1 0 0 1 0-2M325 212a1 1 0 1 1 0 2 1 1 0 0 1 0-2M339 212a1 1 0 1 1 0 2 1 1 0 0 1 0-2M353 212a1 1 0 1 1 0 2 1 1 0 0 1 0-2M367 212a1 1 0 1 1 0 2 1 1 0 0 1 0-2M381 212a1 1 0 1 1 0 2 1 1 0 0 1 0-2M395 212a1 1 0 1 1 0 2 1 1 0 0 1 0-2M409 212a1 1 0 1 1 0 2 1 1 0 0 1 0-2M423 212a1 1 0 1 1 0 2 1 1 0 0 1 0-2M437 212a1 1 0 1 1 0 2 1 1 0 0 1 0-2M451 212a1 1 0 1 1 0 2 1 1 0 0 1 0-2M465 212a1 1 0 1 1 0 2 1 1 0 0 1 0-2M479 212a1 1 0 1 1 0 2 1 1 0 0 1 0-2M493 212a1 1 0 1 1 0 2 1 1 0 0 1 0-2M507 212a1 1 0 1 1 0 2 1 1 0 0 1 0-2M521 212a1 1 0 1 1 0 2 1 1 0 0 1 0-2M535 212a1 1 0 1 1 0 2 1 1 0 0 1 0-2M549 212a1 1 0 1 1 0 2 1 1 0 0 1 0-2M563 212a1 1 0 1 1 0 2 1 1 0 0 1 0-2M577 212a1 1 0 1 1 0 2 1 1 0 0 1 0-2M591 212a1 1 0 1 1 0 2 1 1 0 0 1 0-2M605 212a1 1 0 1 1 0 2 1 1 0 0 1 0-2M619 212a1 1 0 1 1 0 2 1 1 0 0 1 0-2M633 212a1 1 0 1 1 0 2 1 1 0 0 1 0-2M647 212a1 1 0 1 1 0 2 1 1 0 0 1 0-2M661 212a1 1 0 1 1 0 2 1 1 0 0 1 0-2M675 212a1 1 0 1 1 0 2 1 1 0 0 1 0-2M689 212a1 1 0 1 1 0 2 1 1 0 0 1 0-2M703 212a1 1 0 1 1 0 2 1 1 0 0 1 0-2M717 212a1 1 0 1 1 0 2 1 1 0 0 1 0-2M-11 198a1 1 0 1 1 0 2 1 1 0 0 1 0-2M3 198a1 1 0 1 1 0 2 1 1 0 0 1 0-2M17 198a1 1 0 1 1 0 2 1 1 0 0 1 0-2M31 198a1 1 0 1 1 0 2 1 1 0 0 1 0-2M45 198a1 1 0 1 1 0 2 1 1 0 0 1 0-2M59 198a1 1 0 1 1 0 2 1 1 0 0 1 0-2M73 198a1 1 0 1 1 0 2 1 1 0 0 1 0-2M87 198a1 1 0 1 1 0 2 1 1 0 0 1 0-2M101 198a1 1 0 1 1 0 2 1 1 0 0 1 0-2M115 198a1 1 0 1 1 0 2 1 1 0 0 1 0-2M129 198a1 1 0 1 1 0 2 1 1 0 0 1 0-2M143 198a1 1 0 1 1 0 2 1 1 0 0 1 0-2M157 198a1 1 0 1 1 0 2 1 1 0 0 1 0-2M171 198a1 1 0 1 1 0 2 1 1 0 0 1 0-2M185 198a1 1 0 1 1 0 2 1 1 0 0 1 0-2M199 198a1 1 0 1 1 0 2 1 1 0 0 1 0-2M213 198a1 1 0 1 1 0 2 1 1 0 0 1 0-2M227 198a1 1 0 1 1 0 2 1 1 0 0 1 0-2M241 198a1 1 0 1 1 0 2 1 1 0 0 1 0-2M255 198a1 1 0 1 1 0 2 1 1 0 0 1 0-2M269 198a1 1 0 1 1 0 2 1 1 0 0 1 0-2M283 198a1 1 0 1 1 0 2 1 1 0 0 1 0-2M297 198a1 1 0 1 1 0 2 1 1 0 0 1 0-2M311 198a1 1 0 1 1 0 2 1 1 0 0 1 0-2M325 198a1 1 0 1 1 0 2 1 1 0 0 1 0-2M339 198a1 1 0 1 1 0 2 1 1 0 0 1 0-2M353 198a1 1 0 1 1 0 2 1 1 0 0 1 0-2M367 198a1 1 0 1 1 0 2 1 1 0 0 1 0-2M381 198a1 1 0 1 1 0 2 1 1 0 0 1 0-2M395 198a1 1 0 1 1 0 2 1 1 0 0 1 0-2M409 198a1 1 0 1 1 0 2 1 1 0 0 1 0-2M423 198a1 1 0 1 1 0 2 1 1 0 0 1 0-2M437 198a1 1 0 1 1 0 2 1 1 0 0 1 0-2M451 198a1 1 0 1 1 0 2 1 1 0 0 1 0-2M465 198a1 1 0 1 1 0 2 1 1 0 0 1 0-2M479 198a1 1 0 1 1 0 2 1 1 0 0 1 0-2M493 198a1 1 0 1 1 0 2 1 1 0 0 1 0-2M507 198a1 1 0 1 1 0 2 1 1 0 0 1 0-2M521 198a1 1 0 1 1 0 2 1 1 0 0 1 0-2M535 198a1 1 0 1 1 0 2 1 1 0 0 1 0-2M549 198a1 1 0 1 1 0 2 1 1 0 0 1 0-2M563 198a1 1 0 1 1 0 2 1 1 0 0 1 0-2M577 198a1 1 0 1 1 0 2 1 1 0 0 1 0-2M591 198a1 1 0 1 1 0 2 1 1 0 0 1 0-2M605 198a1 1 0 1 1 0 2 1 1 0 0 1 0-2M619 198a1 1 0 1 1 0 2 1 1 0 0 1 0-2M633 198a1 1 0 1 1 0 2 1 1 0 0 1 0-2M647 198a1 1 0 1 1 0 2 1 1 0 0 1 0-2M661 198a1 1 0 1 1 0 2 1 1 0 0 1 0-2M675 198a1 1 0 1 1 0 2 1 1 0 0 1 0-2M689 198a1 1 0 1 1 0 2 1 1 0 0 1 0-2M703 198a1 1 0 1 1 0 2 1 1 0 0 1 0-2M717 198a1 1 0 1 1 0 2 1 1 0 0 1 0-2M-11 184a1 1 0 1 1 0 2 1 1 0 0 1 0-2M3 184a1 1 0 1 1 0 2 1 1 0 0 1 0-2M17 184a1 1 0 1 1 0 2 1 1 0 0 1 0-2M31 184a1 1 0 1 1 0 2 1 1 0 0 1 0-2M45 184a1 1 0 1 1 0 2 1 1 0 0 1 0-2M59 184a1 1 0 1 1 0 2 1 1 0 0 1 0-2M73 184a1 1 0 1 1 0 2 1 1 0 0 1 0-2M87 184a1 1 0 1 1 0 2 1 1 0 0 1 0-2M101 184a1 1 0 1 1 0 2 1 1 0 0 1 0-2M115 184a1 1 0 1 1 0 2 1 1 0 0 1 0-2M129 184a1 1 0 1 1 0 2 1 1 0 0 1 0-2M143 184a1 1 0 1 1 0 2 1 1 0 0 1 0-2M157 184a1 1 0 1 1 0 2 1 1 0 0 1 0-2M171 184a1 1 0 1 1 0 2 1 1 0 0 1 0-2M185 184a1 1 0 1 1 0 2 1 1 0 0 1 0-2M199 184a1 1 0 1 1 0 2 1 1 0 0 1 0-2M213 184a1 1 0 1 1 0 2 1 1 0 0 1 0-2M227 184a1 1 0 1 1 0 2 1 1 0 0 1 0-2M241 184a1 1 0 1 1 0 2 1 1 0 0 1 0-2M255 184a1 1 0 1 1 0 2 1 1 0 0 1 0-2M269 184a1 1 0 1 1 0 2 1 1 0 0 1 0-2M283 184a1 1 0 1 1 0 2 1 1 0 0 1 0-2M297 184a1 1 0 1 1 0 2 1 1 0 0 1 0-2M311 184a1 1 0 1 1 0 2 1 1 0 0 1 0-2M325 184a1 1 0 1 1 0 2 1 1 0 0 1 0-2M339 184a1 1 0 1 1 0 2 1 1 0 0 1 0-2M353 184a1 1 0 1 1 0 2 1 1 0 0 1 0-2M367 184a1 1 0 1 1 0 2 1 1 0 0 1 0-2M381 184a1 1 0 1 1 0 2 1 1 0 0 1 0-2M395 184a1 1 0 1 1 0 2 1 1 0 0 1 0-2M409 184a1 1 0 1 1 0 2 1 1 0 0 1 0-2M423 184a1 1 0 1 1 0 2 1 1 0 0 1 0-2M437 184a1 1 0 1 1 0 2 1 1 0 0 1 0-2M451 184a1 1 0 1 1 0 2 1 1 0 0 1 0-2M465 184a1 1 0 1 1 0 2 1 1 0 0 1 0-2M479 184a1 1 0 1 1 0 2 1 1 0 0 1 0-2M493 184a1 1 0 1 1 0 2 1 1 0 0 1 0-2M507 184a1 1 0 1 1 0 2 1 1 0 0 1 0-2M521 184a1 1 0 1 1 0 2 1 1 0 0 1 0-2M535 184a1 1 0 1 1 0 2 1 1 0 0 1 0-2M549 184a1 1 0 1 1 0 2 1 1 0 0 1 0-2M563 184a1 1 0 1 1 0 2 1 1 0 0 1 0-2M577 184a1 1 0 1 1 0 2 1 1 0 0 1 0-2M591 184a1 1 0 1 1 0 2 1 1 0 0 1 0-2M605 184a1 1 0 1 1 0 2 1 1 0 0 1 0-2M619 184a1 1 0 1 1 0 2 1 1 0 0 1 0-2M633 184a1 1 0 1 1 0 2 1 1 0 0 1 0-2M647 184a1 1 0 1 1 0 2 1 1 0 0 1 0-2M661 184a1 1 0 1 1 0 2 1 1 0 0 1 0-2M675 184a1 1 0 1 1 0 2 1 1 0 0 1 0-2M689 184a1 1 0 1 1 0 2 1 1 0 0 1 0-2M703 184a1 1 0 1 1 0 2 1 1 0 0 1 0-2M717 184a1 1 0 1 1 0 2 1 1 0 0 1 0-2M-11 170a1 1 0 1 1 0 2 1 1 0 0 1 0-2M3 170a1 1 0 1 1 0 2 1 1 0 0 1 0-2M17 170a1 1 0 1 1 0 2 1 1 0 0 1 0-2M31 170a1 1 0 1 1 0 2 1 1 0 0 1 0-2M45 170a1 1 0 1 1 0 2 1 1 0 0 1 0-2M59 170a1 1 0 1 1 0 2 1 1 0 0 1 0-2M73 170a1 1 0 1 1 0 2 1 1 0 0 1 0-2M87 170a1 1 0 1 1 0 2 1 1 0 0 1 0-2M101 170a1 1 0 1 1 0 2 1 1 0 0 1 0-2M115 170a1 1 0 1 1 0 2 1 1 0 0 1 0-2M129 170a1 1 0 1 1 0 2 1 1 0 0 1 0-2M143 170a1 1 0 1 1 0 2 1 1 0 0 1 0-2M157 170a1 1 0 1 1 0 2 1 1 0 0 1 0-2M171 170a1 1 0 1 1 0 2 1 1 0 0 1 0-2M185 170a1 1 0 1 1 0 2 1 1 0 0 1 0-2M199 170a1 1 0 1 1 0 2 1 1 0 0 1 0-2M213 170a1 1 0 1 1 0 2 1 1 0 0 1 0-2M227 170a1 1 0 1 1 0 2 1 1 0 0 1 0-2M241 170a1 1 0 1 1 0 2 1 1 0 0 1 0-2M255 170a1 1 0 1 1 0 2 1 1 0 0 1 0-2M269 170a1 1 0 1 1 0 2 1 1 0 0 1 0-2M283 170a1 1 0 1 1 0 2 1 1 0 0 1 0-2M297 170a1 1 0 1 1 0 2 1 1 0 0 1 0-2M311 170a1 1 0 1 1 0 2 1 1 0 0 1 0-2M325 170a1 1 0 1 1 0 2 1 1 0 0 1 0-2M339 170a1 1 0 1 1 0 2 1 1 0 0 1 0-2M353 170a1 1 0 1 1 0 2 1 1 0 0 1 0-2M367 170a1 1 0 1 1 0 2 1 1 0 0 1 0-2M381 170a1 1 0 1 1 0 2 1 1 0 0 1 0-2M395 170a1 1 0 1 1 0 2 1 1 0 0 1 0-2M409 170a1 1 0 1 1 0 2 1 1 0 0 1 0-2M423 170a1 1 0 1 1 0 2 1 1 0 0 1 0-2M437 170a1 1 0 1 1 0 2 1 1 0 0 1 0-2M451 170a1 1 0 1 1 0 2 1 1 0 0 1 0-2M465 170a1 1 0 1 1 0 2 1 1 0 0 1 0-2M479 170a1 1 0 1 1 0 2 1 1 0 0 1 0-2M493 170a1 1 0 1 1 0 2 1 1 0 0 1 0-2M507 170a1 1 0 1 1 0 2 1 1 0 0 1 0-2M521 170a1 1 0 1 1 0 2 1 1 0 0 1 0-2M535 170a1 1 0 1 1 0 2 1 1 0 0 1 0-2M549 170a1 1 0 1 1 0 2 1 1 0 0 1 0-2M563 170a1 1 0 1 1 0 2 1 1 0 0 1 0-2M577 170a1 1 0 1 1 0 2 1 1 0 0 1 0-2M591 170a1 1 0 1 1 0 2 1 1 0 0 1 0-2M605 170a1 1 0 1 1 0 2 1 1 0 0 1 0-2M619 170a1 1 0 1 1 0 2 1 1 0 0 1 0-2M633 170a1 1 0 1 1 0 2 1 1 0 0 1 0-2M647 170a1 1 0 1 1 0 2 1 1 0 0 1 0-2M661 170a1 1 0 1 1 0 2 1 1 0 0 1 0-2M675 170a1 1 0 1 1 0 2 1 1 0 0 1 0-2M689 170a1 1 0 1 1 0 2 1 1 0 0 1 0-2M703 170a1 1 0 1 1 0 2 1 1 0 0 1 0-2M717 170a1 1 0 1 1 0 2 1 1 0 0 1 0-2M-11 156a1 1 0 1 1 0 2 1 1 0 0 1 0-2M3 156a1 1 0 1 1 0 2 1 1 0 0 1 0-2M17 156a1 1 0 1 1 0 2 1 1 0 0 1 0-2M31 156a1 1 0 1 1 0 2 1 1 0 0 1 0-2M45 156a1 1 0 1 1 0 2 1 1 0 0 1 0-2M59 156a1 1 0 1 1 0 2 1 1 0 0 1 0-2M73 156a1 1 0 1 1 0 2 1 1 0 0 1 0-2M87 156a1 1 0 1 1 0 2 1 1 0 0 1 0-2M101 156a1 1 0 1 1 0 2 1 1 0 0 1 0-2M115 156a1 1 0 1 1 0 2 1 1 0 0 1 0-2M129 156a1 1 0 1 1 0 2 1 1 0 0 1 0-2M143 156a1 1 0 1 1 0 2 1 1 0 0 1 0-2M157 156a1 1 0 1 1 0 2 1 1 0 0 1 0-2M171 156a1 1 0 1 1 0 2 1 1 0 0 1 0-2M185 156a1 1 0 1 1 0 2 1 1 0 0 1 0-2M199 156a1 1 0 1 1 0 2 1 1 0 0 1 0-2M213 156a1 1 0 1 1 0 2 1 1 0 0 1 0-2M227 156a1 1 0 1 1 0 2 1 1 0 0 1 0-2M241 156a1 1 0 1 1 0 2 1 1 0 0 1 0-2M255 156a1 1 0 1 1 0 2 1 1 0 0 1 0-2M269 156a1 1 0 1 1 0 2 1 1 0 0 1 0-2M283 156a1 1 0 1 1 0 2 1 1 0 0 1 0-2M297 156a1 1 0 1 1 0 2 1 1 0 0 1 0-2M311 156a1 1 0 1 1 0 2 1 1 0 0 1 0-2M325 156a1 1 0 1 1 0 2 1 1 0 0 1 0-2M339 156a1 1 0 1 1 0 2 1 1 0 0 1 0-2M353 156a1 1 0 1 1 0 2 1 1 0 0 1 0-2M367 156a1 1 0 1 1 0 2 1 1 0 0 1 0-2M381 156a1 1 0 1 1 0 2 1 1 0 0 1 0-2M395 156a1 1 0 1 1 0 2 1 1 0 0 1 0-2M409 156a1 1 0 1 1 0 2 1 1 0 0 1 0-2M423 156a1 1 0 1 1 0 2 1 1 0 0 1 0-2M437 156a1 1 0 1 1 0 2 1 1 0 0 1 0-2M451 156a1 1 0 1 1 0 2 1 1 0 0 1 0-2M465 156a1 1 0 1 1 0 2 1 1 0 0 1 0-2M479 156a1 1 0 1 1 0 2 1 1 0 0 1 0-2M493 156a1 1 0 1 1 0 2 1 1 0 0 1 0-2M507 156a1 1 0 1 1 0 2 1 1 0 0 1 0-2M521 156a1 1 0 1 1 0 2 1 1 0 0 1 0-2M535 156a1 1 0 1 1 0 2 1 1 0 0 1 0-2M549 156a1 1 0 1 1 0 2 1 1 0 0 1 0-2M563 156a1 1 0 1 1 0 2 1 1 0 0 1 0-2M577 156a1 1 0 1 1 0 2 1 1 0 0 1 0-2M591 156a1 1 0 1 1 0 2 1 1 0 0 1 0-2M605 156a1 1 0 1 1 0 2 1 1 0 0 1 0-2M619 156a1 1 0 1 1 0 2 1 1 0 0 1 0-2M633 156a1 1 0 1 1 0 2 1 1 0 0 1 0-2M647 156a1 1 0 1 1 0 2 1 1 0 0 1 0-2M661 156a1 1 0 1 1 0 2 1 1 0 0 1 0-2M675 156a1 1 0 1 1 0 2 1 1 0 0 1 0-2M689 156a1 1 0 1 1 0 2 1 1 0 0 1 0-2M703 156a1 1 0 1 1 0 2 1 1 0 0 1 0-2M717 156a1 1 0 1 1 0 2 1 1 0 0 1 0-2M-11 142a1 1 0 1 1 0 2 1 1 0 0 1 0-2M3 142a1 1 0 1 1 0 2 1 1 0 0 1 0-2M17 142a1 1 0 1 1 0 2 1 1 0 0 1 0-2M31 142a1 1 0 1 1 0 2 1 1 0 0 1 0-2M45 142a1 1 0 1 1 0 2 1 1 0 0 1 0-2M59 142a1 1 0 1 1 0 2 1 1 0 0 1 0-2M73 142a1 1 0 1 1 0 2 1 1 0 0 1 0-2M87 142a1 1 0 1 1 0 2 1 1 0 0 1 0-2M101 142a1 1 0 1 1 0 2 1 1 0 0 1 0-2M115 142a1 1 0 1 1 0 2 1 1 0 0 1 0-2M129 142a1 1 0 1 1 0 2 1 1 0 0 1 0-2M143 142a1 1 0 1 1 0 2 1 1 0 0 1 0-2M157 142a1 1 0 1 1 0 2 1 1 0 0 1 0-2M171 142a1 1 0 1 1 0 2 1 1 0 0 1 0-2M185 142a1 1 0 1 1 0 2 1 1 0 0 1 0-2M199 142a1 1 0 1 1 0 2 1 1 0 0 1 0-2M213 142a1 1 0 1 1 0 2 1 1 0 0 1 0-2M227 142a1 1 0 1 1 0 2 1 1 0 0 1 0-2M241 142a1 1 0 1 1 0 2 1 1 0 0 1 0-2M255 142a1 1 0 1 1 0 2 1 1 0 0 1 0-2M269 142a1 1 0 1 1 0 2 1 1 0 0 1 0-2M283 142a1 1 0 1 1 0 2 1 1 0 0 1 0-2M297 142a1 1 0 1 1 0 2 1 1 0 0 1 0-2M311 142a1 1 0 1 1 0 2 1 1 0 0 1 0-2M325 142a1 1 0 1 1 0 2 1 1 0 0 1 0-2M339 142a1 1 0 1 1 0 2 1 1 0 0 1 0-2M353 142a1 1 0 1 1 0 2 1 1 0 0 1 0-2M367 142a1 1 0 1 1 0 2 1 1 0 0 1 0-2M381 142a1 1 0 1 1 0 2 1 1 0 0 1 0-2M395 142a1 1 0 1 1 0 2 1 1 0 0 1 0-2M409 142a1 1 0 1 1 0 2 1 1 0 0 1 0-2M423 142a1 1 0 1 1 0 2 1 1 0 0 1 0-2M437 142a1 1 0 1 1 0 2 1 1 0 0 1 0-2M451 142a1 1 0 1 1 0 2 1 1 0 0 1 0-2M465 142a1 1 0 1 1 0 2 1 1 0 0 1 0-2M479 142a1 1 0 1 1 0 2 1 1 0 0 1 0-2M493 142a1 1 0 1 1 0 2 1 1 0 0 1 0-2M507 142a1 1 0 1 1 0 2 1 1 0 0 1 0-2M521 142a1 1 0 1 1 0 2 1 1 0 0 1 0-2M535 142a1 1 0 1 1 0 2 1 1 0 0 1 0-2M549 142a1 1 0 1 1 0 2 1 1 0 0 1 0-2M563 142a1 1 0 1 1 0 2 1 1 0 0 1 0-2M577 142a1 1 0 1 1 0 2 1 1 0 0 1 0-2M591 142a1 1 0 1 1 0 2 1 1 0 0 1 0-2M605 142a1 1 0 1 1 0 2 1 1 0 0 1 0-2M619 142a1 1 0 1 1 0 2 1 1 0 0 1 0-2M633 142a1 1 0 1 1 0 2 1 1 0 0 1 0-2M647 142a1 1 0 1 1 0 2 1 1 0 0 1 0-2M661 142a1 1 0 1 1 0 2 1 1 0 0 1 0-2M675 142a1 1 0 1 1 0 2 1 1 0 0 1 0-2M689 142a1 1 0 1 1 0 2 1 1 0 0 1 0-2M703 142a1 1 0 1 1 0 2 1 1 0 0 1 0-2M717 142a1 1 0 1 1 0 2 1 1 0 0 1 0-2M-11 128a1 1 0 1 1 0 2 1 1 0 0 1 0-2M3 128a1 1 0 1 1 0 2 1 1 0 0 1 0-2M17 128a1 1 0 1 1 0 2 1 1 0 0 1 0-2M31 128a1 1 0 1 1 0 2 1 1 0 0 1 0-2M45 128a1 1 0 1 1 0 2 1 1 0 0 1 0-2M59 128a1 1 0 1 1 0 2 1 1 0 0 1 0-2M73 128a1 1 0 1 1 0 2 1 1 0 0 1 0-2M87 128a1 1 0 1 1 0 2 1 1 0 0 1 0-2M101 128a1 1 0 1 1 0 2 1 1 0 0 1 0-2M115 128a1 1 0 1 1 0 2 1 1 0 0 1 0-2M129 128a1 1 0 1 1 0 2 1 1 0 0 1 0-2M143 128a1 1 0 1 1 0 2 1 1 0 0 1 0-2M157 128a1 1 0 1 1 0 2 1 1 0 0 1 0-2M171 128a1 1 0 1 1 0 2 1 1 0 0 1 0-2M185 128a1 1 0 1 1 0 2 1 1 0 0 1 0-2M199 128a1 1 0 1 1 0 2 1 1 0 0 1 0-2M213 128a1 1 0 1 1 0 2 1 1 0 0 1 0-2M227 128a1 1 0 1 1 0 2 1 1 0 0 1 0-2M241 128a1 1 0 1 1 0 2 1 1 0 0 1 0-2M255 128a1 1 0 1 1 0 2 1 1 0 0 1 0-2M269 128a1 1 0 1 1 0 2 1 1 0 0 1 0-2M283 128a1 1 0 1 1 0 2 1 1 0 0 1 0-2M297 128a1 1 0 1 1 0 2 1 1 0 0 1 0-2M311 128a1 1 0 1 1 0 2 1 1 0 0 1 0-2M325 128a1 1 0 1 1 0 2 1 1 0 0 1 0-2M339 128a1 1 0 1 1 0 2 1 1 0 0 1 0-2M353 128a1 1 0 1 1 0 2 1 1 0 0 1 0-2M367 128a1 1 0 1 1 0 2 1 1 0 0 1 0-2M381 128a1 1 0 1 1 0 2 1 1 0 0 1 0-2M395 128a1 1 0 1 1 0 2 1 1 0 0 1 0-2M409 128a1 1 0 1 1 0 2 1 1 0 0 1 0-2M423 128a1 1 0 1 1 0 2 1 1 0 0 1 0-2M437 128a1 1 0 1 1 0 2 1 1 0 0 1 0-2M451 128a1 1 0 1 1 0 2 1 1 0 0 1 0-2M465 128a1 1 0 1 1 0 2 1 1 0 0 1 0-2M479 128a1 1 0 1 1 0 2 1 1 0 0 1 0-2M493 128a1 1 0 1 1 0 2 1 1 0 0 1 0-2M507 128a1 1 0 1 1 0 2 1 1 0 0 1 0-2M521 128a1 1 0 1 1 0 2 1 1 0 0 1 0-2M535 128a1 1 0 1 1 0 2 1 1 0 0 1 0-2M549 128a1 1 0 1 1 0 2 1 1 0 0 1 0-2M563 128a1 1 0 1 1 0 2 1 1 0 0 1 0-2M577 128a1 1 0 1 1 0 2 1 1 0 0 1 0-2M591 128a1 1 0 1 1 0 2 1 1 0 0 1 0-2M605 128a1 1 0 1 1 0 2 1 1 0 0 1 0-2M619 128a1 1 0 1 1 0 2 1 1 0 0 1 0-2M633 128a1 1 0 1 1 0 2 1 1 0 0 1 0-2M647 128a1 1 0 1 1 0 2 1 1 0 0 1 0-2M661 128a1 1 0 1 1 0 2 1 1 0 0 1 0-2M675 128a1 1 0 1 1 0 2 1 1 0 0 1 0-2M689 128a1 1 0 1 1 0 2 1 1 0 0 1 0-2M703 128a1 1 0 1 1 0 2 1 1 0 0 1 0-2M717 128a1 1 0 1 1 0 2 1 1 0 0 1 0-2M-11 114a1 1 0 1 1 0 2 1 1 0 0 1 0-2M3 114a1 1 0 1 1 0 2 1 1 0 0 1 0-2M17 114a1 1 0 1 1 0 2 1 1 0 0 1 0-2M31 114a1 1 0 1 1 0 2 1 1 0 0 1 0-2M45 114a1 1 0 1 1 0 2 1 1 0 0 1 0-2M59 114a1 1 0 1 1 0 2 1 1 0 0 1 0-2M73 114a1 1 0 1 1 0 2 1 1 0 0 1 0-2M87 114a1 1 0 1 1 0 2 1 1 0 0 1 0-2M101 114a1 1 0 1 1 0 2 1 1 0 0 1 0-2M115 114a1 1 0 1 1 0 2 1 1 0 0 1 0-2M129 114a1 1 0 1 1 0 2 1 1 0 0 1 0-2M143 114a1 1 0 1 1 0 2 1 1 0 0 1 0-2M157 114a1 1 0 1 1 0 2 1 1 0 0 1 0-2M171 114a1 1 0 1 1 0 2 1 1 0 0 1 0-2M185 114a1 1 0 1 1 0 2 1 1 0 0 1 0-2M199 114a1 1 0 1 1 0 2 1 1 0 0 1 0-2M213 114a1 1 0 1 1 0 2 1 1 0 0 1 0-2M227 114a1 1 0 1 1 0 2 1 1 0 0 1 0-2M241 114a1 1 0 1 1 0 2 1 1 0 0 1 0-2M255 114a1 1 0 1 1 0 2 1 1 0 0 1 0-2M269 114a1 1 0 1 1 0 2 1 1 0 0 1 0-2M283 114a1 1 0 1 1 0 2 1 1 0 0 1 0-2M297 114a1 1 0 1 1 0 2 1 1 0 0 1 0-2M311 114a1 1 0 1 1 0 2 1 1 0 0 1 0-2M325 114a1 1 0 1 1 0 2 1 1 0 0 1 0-2M339 114a1 1 0 1 1 0 2 1 1 0 0 1 0-2M353 114a1 1 0 1 1 0 2 1 1 0 0 1 0-2M367 114a1 1 0 1 1 0 2 1 1 0 0 1 0-2M381 114a1 1 0 1 1 0 2 1 1 0 0 1 0-2M395 114a1 1 0 1 1 0 2 1 1 0 0 1 0-2M409 114a1 1 0 1 1 0 2 1 1 0 0 1 0-2M423 114a1 1 0 1 1 0 2 1 1 0 0 1 0-2M437 114a1 1 0 1 1 0 2 1 1 0 0 1 0-2M451 114a1 1 0 1 1 0 2 1 1 0 0 1 0-2M465 114a1 1 0 1 1 0 2 1 1 0 0 1 0-2M479 114a1 1 0 1 1 0 2 1 1 0 0 1 0-2M493 114a1 1 0 1 1 0 2 1 1 0 0 1 0-2M507 114a1 1 0 1 1 0 2 1 1 0 0 1 0-2M521 114a1 1 0 1 1 0 2 1 1 0 0 1 0-2M535 114a1 1 0 1 1 0 2 1 1 0 0 1 0-2M549 114a1 1 0 1 1 0 2 1 1 0 0 1 0-2M563 114a1 1 0 1 1 0 2 1 1 0 0 1 0-2M577 114a1 1 0 1 1 0 2 1 1 0 0 1 0-2M591 114a1 1 0 1 1 0 2 1 1 0 0 1 0-2M605 114a1 1 0 1 1 0 2 1 1 0 0 1 0-2M619 114a1 1 0 1 1 0 2 1 1 0 0 1 0-2M633 114a1 1 0 1 1 0 2 1 1 0 0 1 0-2M647 114a1 1 0 1 1 0 2 1 1 0 0 1 0-2M661 114a1 1 0 1 1 0 2 1 1 0 0 1 0-2M675 114a1 1 0 1 1 0 2 1 1 0 0 1 0-2M689 114a1 1 0 1 1 0 2 1 1 0 0 1 0-2M703 114a1 1 0 1 1 0 2 1 1 0 0 1 0-2M717 114a1 1 0 1 1 0 2 1 1 0 0 1 0-2M-11 100a1 1 0 1 1 0 2 1 1 0 0 1 0-2M3 100a1 1 0 1 1 0 2 1 1 0 0 1 0-2M17 100a1 1 0 1 1 0 2 1 1 0 0 1 0-2M31 100a1 1 0 1 1 0 2 1 1 0 0 1 0-2M45 100a1 1 0 1 1 0 2 1 1 0 0 1 0-2M59 100a1 1 0 1 1 0 2 1 1 0 0 1 0-2M73 100a1 1 0 1 1 0 2 1 1 0 0 1 0-2M87 100a1 1 0 1 1 0 2 1 1 0 0 1 0-2M101 100a1 1 0 1 1 0 2 1 1 0 0 1 0-2M115 100a1 1 0 1 1 0 2 1 1 0 0 1 0-2M129 100a1 1 0 1 1 0 2 1 1 0 0 1 0-2M143 100a1 1 0 1 1 0 2 1 1 0 0 1 0-2M157 100a1 1 0 1 1 0 2 1 1 0 0 1 0-2M171 100a1 1 0 1 1 0 2 1 1 0 0 1 0-2M185 100a1 1 0 1 1 0 2 1 1 0 0 1 0-2M199 100a1 1 0 1 1 0 2 1 1 0 0 1 0-2M213 100a1 1 0 1 1 0 2 1 1 0 0 1 0-2M227 100a1 1 0 1 1 0 2 1 1 0 0 1 0-2M241 100a1 1 0 1 1 0 2 1 1 0 0 1 0-2M255 100a1 1 0 1 1 0 2 1 1 0 0 1 0-2M269 100a1 1 0 1 1 0 2 1 1 0 0 1 0-2M283 100a1 1 0 1 1 0 2 1 1 0 0 1 0-2M297 100a1 1 0 1 1 0 2 1 1 0 0 1 0-2M311 100a1 1 0 1 1 0 2 1 1 0 0 1 0-2M325 100a1 1 0 1 1 0 2 1 1 0 0 1 0-2M339 100a1 1 0 1 1 0 2 1 1 0 0 1 0-2M353 100a1 1 0 1 1 0 2 1 1 0 0 1 0-2M367 100a1 1 0 1 1 0 2 1 1 0 0 1 0-2M381 100a1 1 0 1 1 0 2 1 1 0 0 1 0-2M395 100a1 1 0 1 1 0 2 1 1 0 0 1 0-2M409 100a1 1 0 1 1 0 2 1 1 0 0 1 0-2M423 100a1 1 0 1 1 0 2 1 1 0 0 1 0-2M437 100a1 1 0 1 1 0 2 1 1 0 0 1 0-2M451 100a1 1 0 1 1 0 2 1 1 0 0 1 0-2M465 100a1 1 0 1 1 0 2 1 1 0 0 1 0-2M479 100a1 1 0 1 1 0 2 1 1 0 0 1 0-2M493 100a1 1 0 1 1 0 2 1 1 0 0 1 0-2M507 100a1 1 0 1 1 0 2 1 1 0 0 1 0-2M521 100a1 1 0 1 1 0 2 1 1 0 0 1 0-2M535 100a1 1 0 1 1 0 2 1 1 0 0 1 0-2M549 100a1 1 0 1 1 0 2 1 1 0 0 1 0-2M563 100a1 1 0 1 1 0 2 1 1 0 0 1 0-2M577 100a1 1 0 1 1 0 2 1 1 0 0 1 0-2M591 100a1 1 0 1 1 0 2 1 1 0 0 1 0-2M605 100a1 1 0 1 1 0 2 1 1 0 0 1 0-2M619 100a1 1 0 1 1 0 2 1 1 0 0 1 0-2M633 100a1 1 0 1 1 0 2 1 1 0 0 1 0-2M647 100a1 1 0 1 1 0 2 1 1 0 0 1 0-2M661 100a1 1 0 1 1 0 2 1 1 0 0 1 0-2M675 100a1 1 0 1 1 0 2 1 1 0 0 1 0-2M689 100a1 1 0 1 1 0 2 1 1 0 0 1 0-2M703 100a1 1 0 1 1 0 2 1 1 0 0 1 0-2M717 100a1 1 0 1 1 0 2 1 1 0 0 1 0-2M-11 86a1 1 0 1 1 0 2 1 1 0 0 1 0-2M3 86a1 1 0 1 1 0 2 1 1 0 0 1 0-2M17 86a1 1 0 1 1 0 2 1 1 0 0 1 0-2M31 86a1 1 0 1 1 0 2 1 1 0 0 1 0-2M45 86a1 1 0 1 1 0 2 1 1 0 0 1 0-2M59 86a1 1 0 1 1 0 2 1 1 0 0 1 0-2M73 86a1 1 0 1 1 0 2 1 1 0 0 1 0-2M87 86a1 1 0 1 1 0 2 1 1 0 0 1 0-2M101 86a1 1 0 1 1 0 2 1 1 0 0 1 0-2M115 86a1 1 0 1 1 0 2 1 1 0 0 1 0-2M129 86a1 1 0 1 1 0 2 1 1 0 0 1 0-2M143 86a1 1 0 1 1 0 2 1 1 0 0 1 0-2M157 86a1 1 0 1 1 0 2 1 1 0 0 1 0-2M171 86a1 1 0 1 1 0 2 1 1 0 0 1 0-2M185 86a1 1 0 1 1 0 2 1 1 0 0 1 0-2M199 86a1 1 0 1 1 0 2 1 1 0 0 1 0-2M213 86a1 1 0 1 1 0 2 1 1 0 0 1 0-2M227 86a1 1 0 1 1 0 2 1 1 0 0 1 0-2M241 86a1 1 0 1 1 0 2 1 1 0 0 1 0-2M255 86a1 1 0 1 1 0 2 1 1 0 0 1 0-2M269 86a1 1 0 1 1 0 2 1 1 0 0 1 0-2M283 86a1 1 0 1 1 0 2 1 1 0 0 1 0-2M297 86a1 1 0 1 1 0 2 1 1 0 0 1 0-2M311 86a1 1 0 1 1 0 2 1 1 0 0 1 0-2M325 86a1 1 0 1 1 0 2 1 1 0 0 1 0-2M339 86a1 1 0 1 1 0 2 1 1 0 0 1 0-2M353 86a1 1 0 1 1 0 2 1 1 0 0 1 0-2M367 86a1 1 0 1 1 0 2 1 1 0 0 1 0-2M381 86a1 1 0 1 1 0 2 1 1 0 0 1 0-2M395 86a1 1 0 1 1 0 2 1 1 0 0 1 0-2M409 86a1 1 0 1 1 0 2 1 1 0 0 1 0-2M423 86a1 1 0 1 1 0 2 1 1 0 0 1 0-2M437 86a1 1 0 1 1 0 2 1 1 0 0 1 0-2M451 86a1 1 0 1 1 0 2 1 1 0 0 1 0-2M465 86a1 1 0 1 1 0 2 1 1 0 0 1 0-2M479 86a1 1 0 1 1 0 2 1 1 0 0 1 0-2M493 86a1 1 0 1 1 0 2 1 1 0 0 1 0-2M507 86a1 1 0 1 1 0 2 1 1 0 0 1 0-2M521 86a1 1 0 1 1 0 2 1 1 0 0 1 0-2M535 86a1 1 0 1 1 0 2 1 1 0 0 1 0-2M549 86a1 1 0 1 1 0 2 1 1 0 0 1 0-2M563 86a1 1 0 1 1 0 2 1 1 0 0 1 0-2M577 86a1 1 0 1 1 0 2 1 1 0 0 1 0-2M591 86a1 1 0 1 1 0 2 1 1 0 0 1 0-2M605 86a1 1 0 1 1 0 2 1 1 0 0 1 0-2M619 86a1 1 0 1 1 0 2 1 1 0 0 1 0-2M633 86a1 1 0 1 1 0 2 1 1 0 0 1 0-2M647 86a1 1 0 1 1 0 2 1 1 0 0 1 0-2M661 86a1 1 0 1 1 0 2 1 1 0 0 1 0-2M675 86a1 1 0 1 1 0 2 1 1 0 0 1 0-2M689 86a1 1 0 1 1 0 2 1 1 0 0 1 0-2M703 86a1 1 0 1 1 0 2 1 1 0 0 1 0-2M717 86a1 1 0 1 1 0 2 1 1 0 0 1 0-2M-11 72a1 1 0 1 1 0 2 1 1 0 0 1 0-2M3 72a1 1 0 1 1 0 2 1 1 0 0 1 0-2M17 72a1 1 0 1 1 0 2 1 1 0 0 1 0-2M31 72a1 1 0 1 1 0 2 1 1 0 0 1 0-2M45 72a1 1 0 1 1 0 2 1 1 0 0 1 0-2M59 72a1 1 0 1 1 0 2 1 1 0 0 1 0-2M73 72a1 1 0 1 1 0 2 1 1 0 0 1 0-2M87 72a1 1 0 1 1 0 2 1 1 0 0 1 0-2M101 72a1 1 0 1 1 0 2 1 1 0 0 1 0-2M115 72a1 1 0 1 1 0 2 1 1 0 0 1 0-2M129 72a1 1 0 1 1 0 2 1 1 0 0 1 0-2M143 72a1 1 0 1 1 0 2 1 1 0 0 1 0-2M157 72a1 1 0 1 1 0 2 1 1 0 0 1 0-2M171 72a1 1 0 1 1 0 2 1 1 0 0 1 0-2M185 72a1 1 0 1 1 0 2 1 1 0 0 1 0-2M199 72a1 1 0 1 1 0 2 1 1 0 0 1 0-2M213 72a1 1 0 1 1 0 2 1 1 0 0 1 0-2M227 72a1 1 0 1 1 0 2 1 1 0 0 1 0-2M241 72a1 1 0 1 1 0 2 1 1 0 0 1 0-2M255 72a1 1 0 1 1 0 2 1 1 0 0 1 0-2M269 72a1 1 0 1 1 0 2 1 1 0 0 1 0-2M283 72a1 1 0 1 1 0 2 1 1 0 0 1 0-2M297 72a1 1 0 1 1 0 2 1 1 0 0 1 0-2M311 72a1 1 0 1 1 0 2 1 1 0 0 1 0-2M325 72a1 1 0 1 1 0 2 1 1 0 0 1 0-2M339 72a1 1 0 1 1 0 2 1 1 0 0 1 0-2M353 72a1 1 0 1 1 0 2 1 1 0 0 1 0-2M367 72a1 1 0 1 1 0 2 1 1 0 0 1 0-2M381 72a1 1 0 1 1 0 2 1 1 0 0 1 0-2M395 72a1 1 0 1 1 0 2 1 1 0 0 1 0-2M409 72a1 1 0 1 1 0 2 1 1 0 0 1 0-2M423 72a1 1 0 1 1 0 2 1 1 0 0 1 0-2M437 72a1 1 0 1 1 0 2 1 1 0 0 1 0-2M451 72a1 1 0 1 1 0 2 1 1 0 0 1 0-2M465 72a1 1 0 1 1 0 2 1 1 0 0 1 0-2M479 72a1 1 0 1 1 0 2 1 1 0 0 1 0-2M493 72a1 1 0 1 1 0 2 1 1 0 0 1 0-2M507 72a1 1 0 1 1 0 2 1 1 0 0 1 0-2M521 72a1 1 0 1 1 0 2 1 1 0 0 1 0-2M535 72a1 1 0 1 1 0 2 1 1 0 0 1 0-2M549 72a1 1 0 1 1 0 2 1 1 0 0 1 0-2M563 72a1 1 0 1 1 0 2 1 1 0 0 1 0-2M577 72a1 1 0 1 1 0 2 1 1 0 0 1 0-2M591 72a1 1 0 1 1 0 2 1 1 0 0 1 0-2M605 72a1 1 0 1 1 0 2 1 1 0 0 1 0-2M619 72a1 1 0 1 1 0 2 1 1 0 0 1 0-2M633 72a1 1 0 1 1 0 2 1 1 0 0 1 0-2M647 72a1 1 0 1 1 0 2 1 1 0 0 1 0-2M661 72a1 1 0 1 1 0 2 1 1 0 0 1 0-2M675 72a1 1 0 1 1 0 2 1 1 0 0 1 0-2M689 72a1 1 0 1 1 0 2 1 1 0 0 1 0-2M703 72a1 1 0 1 1 0 2 1 1 0 0 1 0-2M717 72a1 1 0 1 1 0 2 1 1 0 0 1 0-2M-11 58a1 1 0 1 1 0 2 1 1 0 0 1 0-2M3 58a1 1 0 1 1 0 2 1 1 0 0 1 0-2M17 58a1 1 0 1 1 0 2 1 1 0 0 1 0-2M31 58a1 1 0 1 1 0 2 1 1 0 0 1 0-2M45 58a1 1 0 1 1 0 2 1 1 0 0 1 0-2M59 58a1 1 0 1 1 0 2 1 1 0 0 1 0-2M73 58a1 1 0 1 1 0 2 1 1 0 0 1 0-2M87 58a1 1 0 1 1 0 2 1 1 0 0 1 0-2M101 58a1 1 0 1 1 0 2 1 1 0 0 1 0-2M115 58a1 1 0 1 1 0 2 1 1 0 0 1 0-2M129 58a1 1 0 1 1 0 2 1 1 0 0 1 0-2M143 58a1 1 0 1 1 0 2 1 1 0 0 1 0-2M157 58a1 1 0 1 1 0 2 1 1 0 0 1 0-2M171 58a1 1 0 1 1 0 2 1 1 0 0 1 0-2M185 58a1 1 0 1 1 0 2 1 1 0 0 1 0-2M199 58a1 1 0 1 1 0 2 1 1 0 0 1 0-2M213 58a1 1 0 1 1 0 2 1 1 0 0 1 0-2M227 58a1 1 0 1 1 0 2 1 1 0 0 1 0-2M241 58a1 1 0 1 1 0 2 1 1 0 0 1 0-2M255 58a1 1 0 1 1 0 2 1 1 0 0 1 0-2M269 58a1 1 0 1 1 0 2 1 1 0 0 1 0-2M283 58a1 1 0 1 1 0 2 1 1 0 0 1 0-2M297 58a1 1 0 1 1 0 2 1 1 0 0 1 0-2M311 58a1 1 0 1 1 0 2 1 1 0 0 1 0-2M325 58a1 1 0 1 1 0 2 1 1 0 0 1 0-2M339 58a1 1 0 1 1 0 2 1 1 0 0 1 0-2M353 58a1 1 0 1 1 0 2 1 1 0 0 1 0-2M367 58a1 1 0 1 1 0 2 1 1 0 0 1 0-2M381 58a1 1 0 1 1 0 2 1 1 0 0 1 0-2M395 58a1 1 0 1 1 0 2 1 1 0 0 1 0-2M409 58a1 1 0 1 1 0 2 1 1 0 0 1 0-2M423 58a1 1 0 1 1 0 2 1 1 0 0 1 0-2M437 58a1 1 0 1 1 0 2 1 1 0 0 1 0-2M451 58a1 1 0 1 1 0 2 1 1 0 0 1 0-2M465 58a1 1 0 1 1 0 2 1 1 0 0 1 0-2M479 58a1 1 0 1 1 0 2 1 1 0 0 1 0-2M493 58a1 1 0 1 1 0 2 1 1 0 0 1 0-2M507 58a1 1 0 1 1 0 2 1 1 0 0 1 0-2M521 58a1 1 0 1 1 0 2 1 1 0 0 1 0-2M535 58a1 1 0 1 1 0 2 1 1 0 0 1 0-2M549 58a1 1 0 1 1 0 2 1 1 0 0 1 0-2M563 58a1 1 0 1 1 0 2 1 1 0 0 1 0-2M577 58a1 1 0 1 1 0 2 1 1 0 0 1 0-2M591 58a1 1 0 1 1 0 2 1 1 0 0 1 0-2M605 58a1 1 0 1 1 0 2 1 1 0 0 1 0-2M619 58a1 1 0 1 1 0 2 1 1 0 0 1 0-2M633 58a1 1 0 1 1 0 2 1 1 0 0 1 0-2M647 58a1 1 0 1 1 0 2 1 1 0 0 1 0-2M661 58a1 1 0 1 1 0 2 1 1 0 0 1 0-2M675 58a1 1 0 1 1 0 2 1 1 0 0 1 0-2M689 58a1 1 0 1 1 0 2 1 1 0 0 1 0-2M703 58a1 1 0 1 1 0 2 1 1 0 0 1 0-2M717 58a1 1 0 1 1 0 2 1 1 0 0 1 0-2M-11 44a1 1 0 1 1 0 2 1 1 0 0 1 0-2M3 44a1 1 0 1 1 0 2 1 1 0 0 1 0-2M17 44a1 1 0 1 1 0 2 1 1 0 0 1 0-2M31 44a1 1 0 1 1 0 2 1 1 0 0 1 0-2M45 44a1 1 0 1 1 0 2 1 1 0 0 1 0-2M59 44a1 1 0 1 1 0 2 1 1 0 0 1 0-2M73 44a1 1 0 1 1 0 2 1 1 0 0 1 0-2M87 44a1 1 0 1 1 0 2 1 1 0 0 1 0-2M101 44a1 1 0 1 1 0 2 1 1 0 0 1 0-2M115 44a1 1 0 1 1 0 2 1 1 0 0 1 0-2M129 44a1 1 0 1 1 0 2 1 1 0 0 1 0-2M143 44a1 1 0 1 1 0 2 1 1 0 0 1 0-2M157 44a1 1 0 1 1 0 2 1 1 0 0 1 0-2M171 44a1 1 0 1 1 0 2 1 1 0 0 1 0-2M185 44a1 1 0 1 1 0 2 1 1 0 0 1 0-2M199 44a1 1 0 1 1 0 2 1 1 0 0 1 0-2M213 44a1 1 0 1 1 0 2 1 1 0 0 1 0-2M227 44a1 1 0 1 1 0 2 1 1 0 0 1 0-2M241 44a1 1 0 1 1 0 2 1 1 0 0 1 0-2M255 44a1 1 0 1 1 0 2 1 1 0 0 1 0-2M269 44a1 1 0 1 1 0 2 1 1 0 0 1 0-2M283 44a1 1 0 1 1 0 2 1 1 0 0 1 0-2M297 44a1 1 0 1 1 0 2 1 1 0 0 1 0-2M311 44a1 1 0 1 1 0 2 1 1 0 0 1 0-2M325 44a1 1 0 1 1 0 2 1 1 0 0 1 0-2M339 44a1 1 0 1 1 0 2 1 1 0 0 1 0-2M353 44a1 1 0 1 1 0 2 1 1 0 0 1 0-2M367 44a1 1 0 1 1 0 2 1 1 0 0 1 0-2M381 44a1 1 0 1 1 0 2 1 1 0 0 1 0-2M395 44a1 1 0 1 1 0 2 1 1 0 0 1 0-2M409 44a1 1 0 1 1 0 2 1 1 0 0 1 0-2M423 44a1 1 0 1 1 0 2 1 1 0 0 1 0-2M437 44a1 1 0 1 1 0 2 1 1 0 0 1 0-2M451 44a1 1 0 1 1 0 2 1 1 0 0 1 0-2M465 44a1 1 0 1 1 0 2 1 1 0 0 1 0-2M479 44a1 1 0 1 1 0 2 1 1 0 0 1 0-2M493 44a1 1 0 1 1 0 2 1 1 0 0 1 0-2M507 44a1 1 0 1 1 0 2 1 1 0 0 1 0-2M521 44a1 1 0 1 1 0 2 1 1 0 0 1 0-2M535 44a1 1 0 1 1 0 2 1 1 0 0 1 0-2M549 44a1 1 0 1 1 0 2 1 1 0 0 1 0-2M563 44a1 1 0 1 1 0 2 1 1 0 0 1 0-2M577 44a1 1 0 1 1 0 2 1 1 0 0 1 0-2M591 44a1 1 0 1 1 0 2 1 1 0 0 1 0-2M605 44a1 1 0 1 1 0 2 1 1 0 0 1 0-2M619 44a1 1 0 1 1 0 2 1 1 0 0 1 0-2M633 44a1 1 0 1 1 0 2 1 1 0 0 1 0-2M647 44a1 1 0 1 1 0 2 1 1 0 0 1 0-2M661 44a1 1 0 1 1 0 2 1 1 0 0 1 0-2M675 44a1 1 0 1 1 0 2 1 1 0 0 1 0-2M689 44a1 1 0 1 1 0 2 1 1 0 0 1 0-2M703 44a1 1 0 1 1 0 2 1 1 0 0 1 0-2M717 44a1 1 0 1 1 0 2 1 1 0 0 1 0-2M-11 30a1 1 0 1 1 0 2 1 1 0 0 1 0-2M3 30a1 1 0 1 1 0 2 1 1 0 0 1 0-2M17 30a1 1 0 1 1 0 2 1 1 0 0 1 0-2M31 30a1 1 0 1 1 0 2 1 1 0 0 1 0-2M45 30a1 1 0 1 1 0 2 1 1 0 0 1 0-2M59 30a1 1 0 1 1 0 2 1 1 0 0 1 0-2M73 30a1 1 0 1 1 0 2 1 1 0 0 1 0-2M87 30a1 1 0 1 1 0 2 1 1 0 0 1 0-2M101 30a1 1 0 1 1 0 2 1 1 0 0 1 0-2M115 30a1 1 0 1 1 0 2 1 1 0 0 1 0-2M129 30a1 1 0 1 1 0 2 1 1 0 0 1 0-2M143 30a1 1 0 1 1 0 2 1 1 0 0 1 0-2M157 30a1 1 0 1 1 0 2 1 1 0 0 1 0-2M171 30a1 1 0 1 1 0 2 1 1 0 0 1 0-2M185 30a1 1 0 1 1 0 2 1 1 0 0 1 0-2M199 30a1 1 0 1 1 0 2 1 1 0 0 1 0-2M213 30a1 1 0 1 1 0 2 1 1 0 0 1 0-2M227 30a1 1 0 1 1 0 2 1 1 0 0 1 0-2M241 30a1 1 0 1 1 0 2 1 1 0 0 1 0-2M255 30a1 1 0 1 1 0 2 1 1 0 0 1 0-2M269 30a1 1 0 1 1 0 2 1 1 0 0 1 0-2M283 30a1 1 0 1 1 0 2 1 1 0 0 1 0-2M297 30a1 1 0 1 1 0 2 1 1 0 0 1 0-2M311 30a1 1 0 1 1 0 2 1 1 0 0 1 0-2M325 30a1 1 0 1 1 0 2 1 1 0 0 1 0-2M339 30a1 1 0 1 1 0 2 1 1 0 0 1 0-2M353 30a1 1 0 1 1 0 2 1 1 0 0 1 0-2M367 30a1 1 0 1 1 0 2 1 1 0 0 1 0-2M381 30a1 1 0 1 1 0 2 1 1 0 0 1 0-2M395 30a1 1 0 1 1 0 2 1 1 0 0 1 0-2M409 30a1 1 0 1 1 0 2 1 1 0 0 1 0-2M423 30a1 1 0 1 1 0 2 1 1 0 0 1 0-2M437 30a1 1 0 1 1 0 2 1 1 0 0 1 0-2M451 30a1 1 0 1 1 0 2 1 1 0 0 1 0-2M465 30a1 1 0 1 1 0 2 1 1 0 0 1 0-2M479 30a1 1 0 1 1 0 2 1 1 0 0 1 0-2M493 30a1 1 0 1 1 0 2 1 1 0 0 1 0-2M507 30a1 1 0 1 1 0 2 1 1 0 0 1 0-2M521 30a1 1 0 1 1 0 2 1 1 0 0 1 0-2M535 30a1 1 0 1 1 0 2 1 1 0 0 1 0-2M549 30a1 1 0 1 1 0 2 1 1 0 0 1 0-2M563 30a1 1 0 1 1 0 2 1 1 0 0 1 0-2M577 30a1 1 0 1 1 0 2 1 1 0 0 1 0-2M591 30a1 1 0 1 1 0 2 1 1 0 0 1 0-2M605 30a1 1 0 1 1 0 2 1 1 0 0 1 0-2M619 30a1 1 0 1 1 0 2 1 1 0 0 1 0-2M633 30a1 1 0 1 1 0 2 1 1 0 0 1 0-2M647 30a1 1 0 1 1 0 2 1 1 0 0 1 0-2M661 30a1 1 0 1 1 0 2 1 1 0 0 1 0-2M675 30a1 1 0 1 1 0 2 1 1 0 0 1 0-2M689 30a1 1 0 1 1 0 2 1 1 0 0 1 0-2M703 30a1 1 0 1 1 0 2 1 1 0 0 1 0-2M717 30a1 1 0 1 1 0 2 1 1 0 0 1 0-2M-11 16a1 1 0 1 1 0 2 1 1 0 0 1 0-2M3 16a1 1 0 1 1 0 2 1 1 0 0 1 0-2M17 16a1 1 0 1 1 0 2 1 1 0 0 1 0-2M31 16a1 1 0 1 1 0 2 1 1 0 0 1 0-2M45 16a1 1 0 1 1 0 2 1 1 0 0 1 0-2M59 16a1 1 0 1 1 0 2 1 1 0 0 1 0-2M73 16a1 1 0 1 1 0 2 1 1 0 0 1 0-2M87 16a1 1 0 1 1 0 2 1 1 0 0 1 0-2M101 16a1 1 0 1 1 0 2 1 1 0 0 1 0-2M115 16a1 1 0 1 1 0 2 1 1 0 0 1 0-2M129 16a1 1 0 1 1 0 2 1 1 0 0 1 0-2M143 16a1 1 0 1 1 0 2 1 1 0 0 1 0-2M157 16a1 1 0 1 1 0 2 1 1 0 0 1 0-2M171 16a1 1 0 1 1 0 2 1 1 0 0 1 0-2M185 16a1 1 0 1 1 0 2 1 1 0 0 1 0-2M199 16a1 1 0 1 1 0 2 1 1 0 0 1 0-2M213 16a1 1 0 1 1 0 2 1 1 0 0 1 0-2M227 16a1 1 0 1 1 0 2 1 1 0 0 1 0-2M241 16a1 1 0 1 1 0 2 1 1 0 0 1 0-2M255 16a1 1 0 1 1 0 2 1 1 0 0 1 0-2M269 16a1 1 0 1 1 0 2 1 1 0 0 1 0-2M283 16a1 1 0 1 1 0 2 1 1 0 0 1 0-2M297 16a1 1 0 1 1 0 2 1 1 0 0 1 0-2M311 16a1 1 0 1 1 0 2 1 1 0 0 1 0-2M325 16a1 1 0 1 1 0 2 1 1 0 0 1 0-2M339 16a1 1 0 1 1 0 2 1 1 0 0 1 0-2M353 16a1 1 0 1 1 0 2 1 1 0 0 1 0-2M367 16a1 1 0 1 1 0 2 1 1 0 0 1 0-2M381 16a1 1 0 1 1 0 2 1 1 0 0 1 0-2M395 16a1 1 0 1 1 0 2 1 1 0 0 1 0-2M409 16a1 1 0 1 1 0 2 1 1 0 0 1 0-2M423 16a1 1 0 1 1 0 2 1 1 0 0 1 0-2M437 16a1 1 0 1 1 0 2 1 1 0 0 1 0-2M451 16a1 1 0 1 1 0 2 1 1 0 0 1 0-2M465 16a1 1 0 1 1 0 2 1 1 0 0 1 0-2M479 16a1 1 0 1 1 0 2 1 1 0 0 1 0-2M493 16a1 1 0 1 1 0 2 1 1 0 0 1 0-2M507 16a1 1 0 1 1 0 2 1 1 0 0 1 0-2M521 16a1 1 0 1 1 0 2 1 1 0 0 1 0-2M535 16a1 1 0 1 1 0 2 1 1 0 0 1 0-2M549 16a1 1 0 1 1 0 2 1 1 0 0 1 0-2M563 16a1 1 0 1 1 0 2 1 1 0 0 1 0-2M577 16a1 1 0 1 1 0 2 1 1 0 0 1 0-2M591 16a1 1 0 1 1 0 2 1 1 0 0 1 0-2M605 16a1 1 0 1 1 0 2 1 1 0 0 1 0-2M619 16a1 1 0 1 1 0 2 1 1 0 0 1 0-2M633 16a1 1 0 1 1 0 2 1 1 0 0 1 0-2M647 16a1 1 0 1 1 0 2 1 1 0 0 1 0-2M661 16a1 1 0 1 1 0 2 1 1 0 0 1 0-2M675 16a1 1 0 1 1 0 2 1 1 0 0 1 0-2M689 16a1 1 0 1 1 0 2 1 1 0 0 1 0-2M703 16a1 1 0 1 1 0 2 1 1 0 0 1 0-2M717 16a1 1 0 1 1 0 2 1 1 0 0 1 0-2M-11 2a1 1 0 1 1 0 2 1 1 0 0 1 0-2M3 2a1 1 0 1 1 0 2 1 1 0 0 1 0-2M17 2a1 1 0 1 1 0 2 1 1 0 0 1 0-2M31 2a1 1 0 1 1 0 2 1 1 0 0 1 0-2M45 2a1 1 0 1 1 0 2 1 1 0 0 1 0-2M59 2a1 1 0 1 1 0 2 1 1 0 0 1 0-2M73 2a1 1 0 1 1 0 2 1 1 0 0 1 0-2M87 2a1 1 0 1 1 0 2 1 1 0 0 1 0-2M101 2a1 1 0 1 1 0 2 1 1 0 0 1 0-2M115 2a1 1 0 1 1 0 2 1 1 0 0 1 0-2M129 2a1 1 0 1 1 0 2 1 1 0 0 1 0-2M143 2a1 1 0 1 1 0 2 1 1 0 0 1 0-2M157 2a1 1 0 1 1 0 2 1 1 0 0 1 0-2M171 2a1 1 0 1 1 0 2 1 1 0 0 1 0-2M185 2a1 1 0 1 1 0 2 1 1 0 0 1 0-2M199 2a1 1 0 1 1 0 2 1 1 0 0 1 0-2M213 2a1 1 0 1 1 0 2 1 1 0 0 1 0-2M227 2a1 1 0 1 1 0 2 1 1 0 0 1 0-2M241 2a1 1 0 1 1 0 2 1 1 0 0 1 0-2M255 2a1 1 0 1 1 0 2 1 1 0 0 1 0-2M269 2a1 1 0 1 1 0 2 1 1 0 0 1 0-2M283 2a1 1 0 1 1 0 2 1 1 0 0 1 0-2M297 2a1 1 0 1 1 0 2 1 1 0 0 1 0-2M311 2a1 1 0 1 1 0 2 1 1 0 0 1 0-2M325 2a1 1 0 1 1 0 2 1 1 0 0 1 0-2M339 2a1 1 0 1 1 0 2 1 1 0 0 1 0-2M353 2a1 1 0 1 1 0 2 1 1 0 0 1 0-2M367 2a1 1 0 1 1 0 2 1 1 0 0 1 0-2M381 2a1 1 0 1 1 0 2 1 1 0 0 1 0-2M395 2a1 1 0 1 1 0 2 1 1 0 0 1 0-2M409 2a1 1 0 1 1 0 2 1 1 0 0 1 0-2M423 2a1 1 0 1 1 0 2 1 1 0 0 1 0-2M437 2a1 1 0 1 1 0 2 1 1 0 0 1 0-2M451 2a1 1 0 1 1 0 2 1 1 0 0 1 0-2M465 2a1 1 0 1 1 0 2 1 1 0 0 1 0-2M479 2a1 1 0 1 1 0 2 1 1 0 0 1 0-2M493 2a1 1 0 1 1 0 2 1 1 0 0 1 0-2M507 2a1 1 0 1 1 0 2 1 1 0 0 1 0-2M521 2a1 1 0 1 1 0 2 1 1 0 0 1 0-2M535 2a1 1 0 1 1 0 2 1 1 0 0 1 0-2M549 2a1 1 0 1 1 0 2 1 1 0 0 1 0-2M563 2a1 1 0 1 1 0 2 1 1 0 0 1 0-2M577 2a1 1 0 1 1 0 2 1 1 0 0 1 0-2M591 2a1 1 0 1 1 0 2 1 1 0 0 1 0-2M605 2a1 1 0 1 1 0 2 1 1 0 0 1 0-2M619 2a1 1 0 1 1 0 2 1 1 0 0 1 0-2M633 2a1 1 0 1 1 0 2 1 1 0 0 1 0-2M647 2a1 1 0 1 1 0 2 1 1 0 0 1 0-2M661 2a1 1 0 1 1 0 2 1 1 0 0 1 0-2M675 2a1 1 0 1 1 0 2 1 1 0 0 1 0-2M689 2a1 1 0 1 1 0 2 1 1 0 0 1 0-2M703 2a1 1 0 1 1 0 2 1 1 0 0 1 0-2M717 2a1 1 0 1 1 0 2 1 1 0 0 1 0-2"/></g><mask id="c" fill="#fff"><path d="M215 18a4 4 0 0 1 4-4h332a4 4 0 0 1 4 4v36H215z"/></mask><path fill="#17264f" d="M215 18a4 4 0 0 1 4-4h332a4 4 0 0 1 4 4v36H215z"/><path fill="#3369ff" d="M214.5 18a4.5 4.5 0 0 1 4.5-4.5h332a4.5 4.5 0 0 1 4.5 4.5h-1a3.5 3.5 0 0 0-3.5-3.5H219a3.5 3.5 0 0 0-3.5 3.5zM555 54H215zm-340.5 0V18a4.5 4.5 0 0 1 4.5-4.5v1a3.5 3.5 0 0 0-3.5 3.5v36zM551 13.5a4.5 4.5 0 0 1 4.5 4.5v36h-1V18a3.5 3.5 0 0 0-3.5-3.5z" mask="url(#c)"/><path fill="#b3c7ff" d="M241.293 27.293a1 1 0 0 1 1.414 0l6 6a1 1 0 0 1 0 1.414l-6 6a1 1 0 1 1-1.414-1.414L246.586 34l-5.293-5.293a1 1 0 0 1 0-1.414M235.293 27.293a1 1 0 1 1 1.414 1.414L231.414 34l5.293 5.293a1 1 0 0 1-1.414 1.414l-6-6a1 1 0 0 1 0-1.414z"/><path fill="#b3c7ff" d="M235.01 33a1 1 0 0 1 0 2H235a1 1 0 0 1 0-2zm4 0a1 1 0 0 1 0 2H239a1 1 0 0 1 0-2zm4 0a1 1 0 0 1 0 2H243a1 1 0 0 1 0-2z"/><path fill="#fff" d="M255.933 39v-9.454h3.545q1.09 0 1.828.378.744.378 1.122 1.062.383.678.383 1.583 0 .91-.388 1.58a2.56 2.56 0 0 1-1.131 1.029q-.748.36-1.837.36h-2.525v-1.422h2.294q.638 0 1.043-.176.406-.18.601-.521.198-.346.198-.85 0-.503-.198-.858a1.26 1.26 0 0 0-.605-.545q-.406-.19-1.048-.19h-1.57V39zm4.884-4.284 2.34 4.284h-1.911l-2.299-4.284zm8.016 1.302v-4.109h1.671V39h-1.62v-1.26h-.074q-.24.595-.789.974-.545.378-1.344.378a2.4 2.4 0 0 1-1.232-.309 2.15 2.15 0 0 1-.831-.91q-.3-.6-.3-1.449v-4.515h1.671v4.257q0 .674.369 1.07.37.398.97.398.369 0 .715-.18.346-.181.568-.536.226-.36.226-.9m5.061-6.472V39h-1.671v-9.454zm4.858 9.593q-1.066 0-1.842-.444a3 3 0 0 1-1.187-1.265q-.415-.82-.415-1.934 0-1.095.415-1.92a3.14 3.14 0 0 1 1.173-1.293q.753-.465 1.768-.466.655 0 1.237.212a2.8 2.8 0 0 1 1.034.646q.453.439.711 1.118.26.674.259 1.606v.513h-5.812v-1.127h4.21a1.8 1.8 0 0 0-.208-.854 1.5 1.5 0 0 0-.568-.595 1.6 1.6 0 0 0-.84-.217q-.512 0-.9.249-.388.244-.605.646a1.87 1.87 0 0 0-.217.873v.983q0 .618.226 1.062.227.438.633.674.406.23.951.23.365 0 .66-.1.296-.108.512-.31.217-.203.328-.503l1.561.175a2.44 2.44 0 0 1-.564 1.08 2.74 2.74 0 0 1-1.052.711q-.642.25-1.468.25m7.865-.139v-9.454h6.149v1.435h-4.436v2.567h4.118v1.436h-4.118v2.58h4.473V39zm9.494-4.155V39h-1.671v-7.09h1.597v1.204h.083q.245-.595.78-.946.54-.351 1.334-.351.735 0 1.279.314.55.313.85.91.304.594.3 1.444V39h-1.671v-4.256q0-.711-.37-1.113-.364-.402-1.011-.402-.438 0-.78.194a1.34 1.34 0 0 0-.531.55q-.189.36-.189.872m9.334 6.962q-.9 0-1.546-.245-.646-.24-1.039-.646a2.25 2.25 0 0 1-.545-.9l1.505-.365q.102.207.296.41.193.21.522.342.332.14.835.139.71 0 1.177-.346.467-.342.467-1.127v-1.343h-.084q-.129.259-.378.53-.245.273-.651.458-.402.184-1.011.184a2.9 2.9 0 0 1-1.482-.383q-.66-.387-1.052-1.154-.388-.77-.388-1.93 0-1.167.388-1.97.392-.81 1.057-1.224.664-.42 1.482-.42.623 0 1.024.212.407.208.647.503.24.29.364.55h.093v-1.173h1.648v7.206q0 .91-.434 1.505a2.6 2.6 0 0 1-1.187.891q-.752.296-1.708.296m.014-4.22q.531 0 .905-.258t.568-.743.194-1.164q0-.67-.194-1.172a1.67 1.67 0 0 0-.563-.78q-.37-.282-.91-.282-.558 0-.932.29-.375.291-.563.8-.19.502-.19 1.144 0 .651.19 1.14.194.486.567.758.38.267.928.267M310.487 39v-7.09h1.671V39zm.84-8.097a.97.97 0 0 1-.683-.263.85.85 0 0 1-.287-.642q0-.379.287-.642a.96.96 0 0 1 .683-.268q.401 0 .683.268.286.264.286.642 0 .374-.286.642a.96.96 0 0 1-.683.263m4.22 3.942V39h-1.671v-7.09h1.598v1.204h.083q.245-.595.78-.946.54-.351 1.334-.351.734 0 1.279.314.549.313.849.91.304.594.3 1.444V39h-1.671v-4.256q0-.711-.369-1.113-.364-.402-1.011-.402-.44 0-.78.194a1.34 1.34 0 0 0-.531.55q-.19.36-.19.872m9.39 4.294q-1.067 0-1.842-.444a3 3 0 0 1-1.186-1.265q-.416-.82-.416-1.934 0-1.095.416-1.92.42-.831 1.172-1.293.753-.465 1.769-.466.655 0 1.237.212.586.208 1.034.646.453.439.711 1.118.258.674.258 1.606v.513h-5.812v-1.127h4.21a1.8 1.8 0 0 0-.207-.854 1.5 1.5 0 0 0-.568-.595 1.6 1.6 0 0 0-.84-.217 1.63 1.63 0 0 0-.901.249q-.387.244-.604.646a1.85 1.85 0 0 0-.217.873v.983q0 .618.226 1.062.227.438.632.674.407.23.951.23.366 0 .661-.1.295-.108.512-.31.217-.203.328-.503l1.56.175a2.4 2.4 0 0 1-.563 1.08 2.75 2.75 0 0 1-1.053.711q-.641.25-1.468.25m7.866-9.594h2.096l2.806 6.851h.111l2.807-6.85h2.096V39h-1.644v-6.495h-.087l-2.613 6.467h-1.228l-2.613-6.481h-.088V39h-1.643zm14.846 9.593q-1.067 0-1.842-.443a3 3 0 0 1-1.186-1.265q-.416-.82-.416-1.934 0-1.095.416-1.92.42-.831 1.172-1.293.752-.465 1.769-.466.655 0 1.237.212.586.208 1.034.646.451.439.711 1.118.258.674.258 1.606v.513h-5.812v-1.127h4.21a1.8 1.8 0 0 0-.207-.854 1.5 1.5 0 0 0-.568-.595 1.6 1.6 0 0 0-.84-.217 1.63 1.63 0 0 0-.901.249q-.387.244-.604.646a1.85 1.85 0 0 0-.217.873v.983q0 .618.226 1.062.226.438.632.674.407.23.951.23.365 0 .66-.1a1.5 1.5 0 0 0 .513-.31q.217-.203.328-.503l1.56.175a2.4 2.4 0 0 1-.563 1.08 2.75 2.75 0 0 1-1.053.711q-.642.25-1.468.25m10.171-5.355-1.523.167a1.2 1.2 0 0 0-.226-.434 1.1 1.1 0 0 0-.425-.328 1.55 1.55 0 0 0-.655-.125q-.522 0-.878.226-.35.227-.346.587a.62.62 0 0 0 .226.503q.236.194.776.318l1.21.259q1.006.217 1.495.688.495.471.499 1.232-.004.67-.393 1.182-.382.508-1.066.794-.683.287-1.57.287-1.301 0-2.095-.545-.794-.55-.947-1.528l1.63-.157q.111.48.471.724.36.245.937.245.595 0 .955-.245.365-.244.365-.604a.63.63 0 0 0-.235-.503q-.231-.199-.72-.305l-1.21-.254q-1.02-.213-1.51-.716-.489-.507-.484-1.283a1.82 1.82 0 0 1 .355-1.136q.364-.484 1.011-.748.65-.267 1.501-.267 1.245 0 1.962.53.72.532.89 1.436m7.135 0-1.523.167a1.2 1.2 0 0 0-.226-.434 1.1 1.1 0 0 0-.425-.328 1.55 1.55 0 0 0-.656-.125q-.521 0-.877.226-.35.227-.346.587a.61.61 0 0 0 .226.503q.236.194.776.318l1.209.259q1.007.217 1.496.688.494.471.499 1.232-.004.67-.393 1.182-.383.508-1.066.794-.684.287-1.57.287-1.301 0-2.096-.545-.794-.55-.946-1.528l1.63-.157q.11.48.47.724.36.245.938.245.595 0 .955-.245.365-.244.365-.604a.63.63 0 0 0-.236-.503q-.23-.199-.72-.305l-1.209-.254q-1.02-.213-1.51-.716-.49-.507-.485-1.283a1.82 1.82 0 0 1 .356-1.136q.364-.484 1.011-.748.651-.267 1.5-.267 1.247 0 1.962.53.72.532.891 1.436m3.571 5.36a3 3 0 0 1-1.214-.24 2 2 0 0 1-.849-.72q-.31-.475-.31-1.173 0-.6.222-.992.221-.393.605-.628.383-.236.863-.356a7 7 0 0 1 1.002-.18 40 40 0 0 0 1.011-.115q.387-.055.563-.166.18-.116.18-.356v-.027q0-.522-.309-.808-.31-.286-.891-.286-.615 0-.974.267-.355.268-.481.633l-1.56-.222q.185-.645.609-1.08a2.66 2.66 0 0 1 1.039-.656 4 4 0 0 1 1.357-.221q.513 0 1.021.12t.928.397a2 2 0 0 1 .674.743q.258.47.258 1.177V39h-1.606v-.974h-.056a2 2 0 0 1-.429.554 2.1 2.1 0 0 1-.688.41 2.8 2.8 0 0 1-.965.153m.434-1.228q.503 0 .873-.198.369-.204.567-.536a1.36 1.36 0 0 0 .204-.725v-.835a.8.8 0 0 1-.268.12q-.185.055-.416.097-.23.04-.457.074l-.392.055q-.374.052-.67.166a1.1 1.1 0 0 0-.466.323.8.8 0 0 0-.171.527q0 .461.337.697t.859.235m8.074 3.892q-.9 0-1.546-.245-.646-.24-1.039-.646a2.24 2.24 0 0 1-.545-.9l1.505-.365q.101.207.296.41.194.21.521.342.333.14.836.139.71 0 1.177-.346.466-.342.466-1.127v-1.343h-.083q-.129.259-.378.53-.245.273-.651.458-.402.184-1.011.184a2.9 2.9 0 0 1-1.482-.383q-.66-.387-1.053-1.154-.387-.77-.387-1.93 0-1.167.387-1.97.392-.81 1.058-1.224.665-.42 1.481-.42.624 0 1.025.212.407.208.647.503.24.29.364.55h.093v-1.173h1.648v7.206q0 .91-.434 1.505a2.6 2.6 0 0 1-1.187.891q-.752.296-1.708.296m.014-4.22q.531 0 .905-.258t.568-.743.194-1.164q0-.67-.194-1.172a1.67 1.67 0 0 0-.563-.78q-.37-.282-.91-.282-.558 0-.932.29-.374.291-.564.8a3.2 3.2 0 0 0-.189 1.144q0 .651.189 1.14.195.486.568.758.38.267.928.267m8.167 1.551q-1.066 0-1.842-.443a3 3 0 0 1-1.187-1.265q-.415-.82-.415-1.934 0-1.095.415-1.92a3.14 3.14 0 0 1 1.173-1.293q.752-.465 1.768-.466.655 0 1.237.212a2.8 2.8 0 0 1 1.034.646q.453.439.711 1.118.26.674.259 1.606v.513h-5.812v-1.127h4.21a1.8 1.8 0 0 0-.208-.854 1.5 1.5 0 0 0-.568-.595 1.6 1.6 0 0 0-.84-.217q-.513 0-.9.249-.388.244-.605.646a1.85 1.85 0 0 0-.217.873v.983q0 .618.226 1.062.226.438.633.674.406.23.951.23.364 0 .66-.1.296-.108.512-.31.217-.203.328-.503l1.56.175a2.4 2.4 0 0 1-.563 1.08 2.75 2.75 0 0 1-1.052.711q-.642.25-1.468.25"/><path fill="#17181c" d="M554.75 54.25V154a3.75 3.75 0 0 1-3.75 3.75H219a3.75 3.75 0 0 1-3.75-3.75V54.25z"/><path stroke="#3369ff" stroke-width=".5" d="M554.75 54.25V154a3.75 3.75 0 0 1-3.75 3.75H219a3.75 3.75 0 0 1-3.75-3.75V54.25z"/><path fill="#fff" d="M230.598 68.574v1.864h2.449v.837h-2.449v3.563q0 .726.275 1.014.276.287.961.287h1.213V77h-1.318q-1.213 0-1.711-.486-.498-.487-.498-1.676v-3.563h-1.752v-.838h1.752v-1.863zm8.66 6.317q-.27.685-.686 1.804-.58 1.547-.779 1.887-.27.457-.674.686a1.9 1.9 0 0 1-.943.228h-.867v-.902h.638q.476 0 .744-.276.27-.275.686-1.424l-2.537-6.457h1.142l1.946 5.133 1.916-5.132h1.142zm4.4 1.283v3.322h-1.084v-9.058h1.084v.837q.27-.486.715-.738a2.06 2.06 0 0 1 1.037-.258q1.19 0 1.863.92.68.92.68 2.549 0 1.599-.68 2.514-.68.908-1.863.908-.597 0-1.049-.252a1.8 1.8 0 0 1-.703-.744m3.164-2.45q0-1.253-.398-1.892-.393-.639-1.172-.639-.785 0-1.19.645-.404.639-.404 1.887 0 1.242.404 1.886.405.645 1.19.645.779 0 1.172-.639.398-.638.398-1.892m8.432-.544v.527h-4.67v.035q-.046 1.342.51 1.928.562.585 1.582.586.516 0 1.078-.164.562-.165 1.201-.498v1.072q-.616.252-1.189.375a5 5 0 0 1-1.102.129q-1.529 0-2.391-.914-.861-.92-.861-2.531 0-1.57.844-2.508.843-.938 2.25-.938 1.254 0 1.974.85.727.85.774 2.05m-1.078-.317a2.07 2.07 0 0 0-.498-1.172q-.423-.498-1.219-.498-.78 0-1.283.516-.504.516-.551 1.16zm4.26-2.42h1.828v2.116h-1.828zm0 4.424h1.828V77h-1.828zm-27.827 18.326q-.82 0-1.242.639t-.422 1.893q0 1.248.422 1.892.422.639 1.242.639.827 0 1.248-.639.423-.644.422-1.892 0-1.254-.422-1.893t-1.248-.639m0-.914q1.366 0 2.086.885.727.885.727 2.56 0 1.683-.721 2.567-.72.879-2.092.879-1.365 0-2.086-.879-.72-.885-.72-2.566 0-1.677.72-2.56.721-.885 2.086-.886m10.389 1.512q-.346-.27-.703-.393a2.4 2.4 0 0 0-.785-.123q-1.008 0-1.541.633-.534.633-.533 1.828V99h-1.084v-6.562h1.084v1.283q.269-.697.826-1.067.562-.375 1.33-.375.398 0 .744.1.345.1.662.31zm2.314-1.33h2.76v5.701h2.139V99h-5.356v-.838h2.139V93.3h-1.682zm1.682-2.549h1.078v1.36h-1.078zm8.725 5.754q0-1.213-.399-1.84-.392-.633-1.148-.633-.791 0-1.207.633-.416.627-.416 1.84t.416 1.852q.421.632 1.219.632.744 0 1.136-.638.399-.639.399-1.846m1.078 2.912q0 1.477-.697 2.238-.698.762-2.051.762-.446 0-.932-.082a7 7 0 0 1-.972-.24v-1.067q.573.27 1.043.399.468.129.861.129.873 0 1.271-.475.399-.474.399-1.506v-.779q-.259.55-.703.82-.446.27-1.084.27-1.149 0-1.834-.92-.686-.92-.686-2.461 0-1.546.686-2.467.685-.92 1.834-.92.633 0 1.072.252t.715.78v-.85h1.078zm2.976-6.117h2.76v5.701h2.139V99h-5.356v-.838h2.139V93.3h-1.682zm1.682-2.549h1.078v1.36h-1.078zm9.856 5.022V99h-1.084v-4.066q0-.885-.311-1.301-.31-.416-.973-.416-.755 0-1.166.539-.404.533-.404 1.535V99h-1.078v-6.562h1.078v.984q.287-.562.779-.85.492-.293 1.166-.293 1.002 0 1.494.662.5.657.499 1.993m5.185.767h-.357q-.944 0-1.424.334-.475.328-.475.984 0 .593.358.92.357.33.99.329.89 0 1.4-.616.51-.621.516-1.71v-.24zm2.092-.445V99h-1.084v-.973q-.346.587-.873.867-.522.276-1.272.276-1.002 0-1.599-.563-.598-.568-.598-1.517 0-1.095.733-1.664.738-.57 2.162-.569h1.447v-.17q-.006-.785-.399-1.136-.392-.358-1.253-.358-.552 0-1.114.159-.563.158-1.095.462v-1.078a7.3 7.3 0 0 1 1.142-.34 5 5 0 0 1 1.067-.117q.814 0 1.388.24.58.24.938.721.223.294.316.727.094.428.094 1.289m4.623-4.682v1.864h2.449v.837h-2.449v3.563q0 .726.275 1.014.276.287.961.287h1.213V99h-1.318q-1.213 0-1.711-.486-.498-.487-.498-1.676v-3.563h-1.752v-.838h1.752v-1.863zm7.242 2.62q-.82 0-1.242.638-.422.639-.422 1.893 0 1.248.422 1.892.422.639 1.242.639.827 0 1.248-.639.422-.644.422-1.892 0-1.254-.422-1.893t-1.248-.639m0-.915q1.365 0 2.086.885.726.885.727 2.56 0 1.683-.721 2.567-.721.879-2.092.879-1.365 0-2.086-.879-.72-.885-.721-2.566 0-1.677.721-2.56.721-.885 2.086-.886m10.389 1.512a2.5 2.5 0 0 0-.703-.393 2.4 2.4 0 0 0-.785-.123q-1.008 0-1.542.633-.533.633-.533 1.828V99h-1.084v-6.562h1.084v1.283q.27-.697.826-1.067.563-.375 1.331-.375.397 0 .744.1.345.1.662.31zm2.976-1.348h1.828v2.116h-1.828zm0 4.424h1.828V99h-1.828zm-72.621 23.307v3.322h-1.084v-9.058h1.084v.837q.27-.486.715-.738a2.05 2.05 0 0 1 1.037-.258q1.19 0 1.863.92.68.92.68 2.549 0 1.599-.68 2.514-.68.908-1.863.908-.597 0-1.049-.252a1.83 1.83 0 0 1-.703-.744m3.164-2.449q0-1.254-.398-1.893-.393-.639-1.172-.639-.785 0-1.189.645-.405.639-.405 1.887 0 1.242.405 1.886.404.645 1.189.645.78 0 1.172-.639.398-.639.398-1.892m5.983-.024h-.358q-.943 0-1.424.334-.474.328-.474.985 0 .592.357.919.358.329.991.329.89 0 1.4-.616.51-.62.516-1.711v-.24zm2.092-.445V121h-1.084v-.973q-.346.586-.873.868-.522.275-1.272.275-1.002 0-1.6-.563-.597-.567-.597-1.517 0-1.096.732-1.664.738-.569 2.162-.569h1.448v-.169q-.006-.786-.399-1.137-.393-.358-1.254-.358-.55 0-1.113.159-.562.157-1.096.462v-1.078q.599-.228 1.143-.34a5 5 0 0 1 1.066-.117q.815 0 1.389.241.58.24.937.72.223.294.317.727.094.428.094 1.289m6.052 1.635q-.269.685-.685 1.804-.58 1.547-.78 1.887a1.83 1.83 0 0 1-.673.686 1.9 1.9 0 0 1-.944.228h-.867v-.902h.639q.474 0 .744-.276.27-.275.685-1.423l-2.537-6.457h1.143l1.945 5.132 1.916-5.132h1.143zm6.416-.264q0 .726.264 1.096.27.369.791.369h1.26V121h-1.365q-.968 0-1.5-.615-.528-.621-.528-1.758v-5.936h-1.728v-.843h2.806zm6.627-3.434q-.82 0-1.242.639t-.422 1.893q0 1.248.422 1.892.422.639 1.242.639.826 0 1.248-.639.423-.644.422-1.892 0-1.254-.422-1.893t-1.248-.639m0-.914q1.366 0 2.086.885.727.885.727 2.561 0 1.681-.721 2.566-.72.879-2.092.879-1.365 0-2.086-.879-.72-.885-.72-2.566 0-1.677.72-2.561.721-.885 2.086-.885m7.735 3.422h-.358q-.943 0-1.424.334-.474.328-.474.985 0 .592.357.919.358.329.99.329.891 0 1.401-.616.51-.62.515-1.711v-.24zm2.091-.445V121h-1.084v-.973q-.345.586-.873.868-.52.275-1.271.275-1.002 0-1.6-.563-.597-.567-.597-1.517 0-1.096.732-1.664.738-.569 2.162-.569h1.447v-.169q-.005-.786-.398-1.137-.393-.358-1.254-.358-.55 0-1.113.159-.562.157-1.096.462v-1.078a7.4 7.4 0 0 1 1.143-.34 5 5 0 0 1 1.066-.117q.814 0 1.389.241.58.24.937.72.223.294.317.727.093.428.093 1.289m6.053-1.981v-3.392h1.078V121h-1.078v-.826q-.27.486-.721.744-.444.252-1.031.252-1.19 0-1.875-.92-.68-.926-.679-2.549 0-1.599.685-2.508.685-.914 1.869-.914.592 0 1.043.258.451.252.709.738m-3.17 2.45q0 1.254.399 1.892.398.639 1.177.639.78 0 1.184-.645.41-.644.41-1.886 0-1.248-.41-1.887-.404-.645-1.184-.645t-1.177.639q-.399.639-.399 1.893m7.887-3.282h1.828v2.116h-1.828zm0 4.424h1.828V121h-1.828zm-49.166 18.238q.2-.422.504-.621.31-.204.744-.205.79 0 1.113.616.328.609.328 2.302V143h-.984v-3.756q0-1.389-.158-1.723-.153-.339-.563-.339-.468 0-.644.363-.17.357-.17 1.699V143h-.985v-3.756q0-1.406-.169-1.734-.165-.328-.598-.328-.427 0-.598.363-.164.357-.164 1.699V143h-.978v-6.562h.978V137q.193-.351.481-.533.293-.188.662-.188.445 0 .738.205.299.206.463.621m9.832 2.075v.527h-4.67v.035q-.046 1.342.51 1.928.562.586 1.582.586a3.9 3.9 0 0 0 1.078-.164q.562-.165 1.201-.498v1.072q-.615.252-1.189.375a5 5 0 0 1-1.102.129q-1.528 0-2.391-.914-.861-.92-.861-2.531 0-1.57.844-2.508.843-.938 2.25-.938 1.254 0 1.975.85.726.85.773 2.051m-1.078-.317a2.07 2.07 0 0 0-.498-1.172q-.422-.498-1.219-.498-.779 0-1.283.516-.504.515-.551 1.16zm5.344-4.289v1.864h2.449v.837h-2.449v3.563q0 .726.275 1.014.276.287.961.287h1.213V143h-1.319q-1.212 0-1.71-.486-.5-.487-.499-1.676v-3.563h-1.751v-.837h1.751v-1.864zm7.746 5.127h-.358q-.943 0-1.424.334-.474.328-.474.985 0 .592.357.919.358.329.99.329.891 0 1.401-.616.51-.62.515-1.711v-.24zm2.091-.445V143h-1.084v-.973q-.345.586-.873.868-.52.275-1.271.275-1.002 0-1.6-.563-.597-.567-.597-1.517 0-1.096.732-1.664.738-.569 2.162-.569h1.447v-.169q-.005-.786-.398-1.137-.393-.358-1.254-.358-.55 0-1.113.159-.562.157-1.096.462v-1.078a7.4 7.4 0 0 1 1.143-.34 5 5 0 0 1 1.066-.117q.815 0 1.389.241.58.24.937.72.223.294.317.727.093.428.093 1.289m6.053-1.981v-3.392h1.078V143h-1.078v-.826a1.9 1.9 0 0 1-.72.744 2.06 2.06 0 0 1-1.032.252q-1.19 0-1.875-.92-.68-.926-.679-2.549 0-1.599.685-2.508.685-.914 1.869-.914.592 0 1.043.258.451.252.709.738m-3.17 2.45q0 1.254.399 1.892.398.639 1.177.639.78 0 1.184-.645.41-.644.41-1.886 0-1.248-.41-1.887-.404-.645-1.184-.645t-1.177.639q-.399.639-.399 1.893m9.487-.024h-.358q-.943 0-1.424.334-.474.328-.474.985 0 .592.357.919.358.329.99.329.891 0 1.401-.616.51-.62.515-1.711v-.24zm2.091-.445V143h-1.084v-.973q-.345.586-.873.868-.52.275-1.271.275-1.002 0-1.6-.563-.597-.567-.597-1.517 0-1.096.732-1.664.738-.569 2.162-.569h1.447v-.169q-.005-.786-.398-1.137-.393-.358-1.254-.358-.55 0-1.113.159-.562.157-1.096.462v-1.078a7.4 7.4 0 0 1 1.143-.34 5 5 0 0 1 1.066-.117q.814 0 1.389.241.58.24.937.72.223.294.317.727.093.428.093 1.289m4.623-4.682v1.864h2.45v.837h-2.45v3.563q0 .726.276 1.014.275.287.961.287h1.213V143h-1.319q-1.212 0-1.711-.486-.498-.487-.498-1.676v-3.563h-1.752v-.837h1.752v-1.864zm7.747 5.127h-.358q-.943 0-1.424.334-.474.328-.474.985 0 .592.357.919.357.329.99.329.891 0 1.401-.616.51-.62.515-1.711v-.24zm2.091-.445V143h-1.084v-.973q-.345.586-.873.868-.52.275-1.271.275-1.002 0-1.6-.563-.597-.567-.597-1.517 0-1.096.732-1.664.738-.569 2.162-.569h1.447v-.169q-.006-.786-.398-1.137-.393-.358-1.254-.358-.55 0-1.113.159-.562.157-1.096.462v-1.078a7.4 7.4 0 0 1 1.143-.34 5 5 0 0 1 1.066-.117q.814 0 1.389.241.58.24.937.72.223.294.317.727.093.428.093 1.289m3.539-2.813h1.829v2.116h-1.829zm0 4.424h1.829V143h-1.829z"/><path fill="#b3c7ff" d="M386.268 69.225v3.287h1.371q.82 0 1.277-.434.463-.433.463-1.213t-.457-1.207q-.458-.433-1.283-.433zm-1.184-.973h2.555q1.464 0 2.22.668.756.662.756 1.945 0 1.296-.756 1.957-.75.662-2.22.662h-1.371V77h-1.184zm11.379 4.383q0-1.927-.399-2.754-.392-.825-1.294-.826-.897 0-1.295.826-.393.826-.393 2.754 0 1.922.393 2.748.398.826 1.295.826.902 0 1.294-.82.399-.827.399-2.754m1.236 0q0 2.285-.726 3.41-.721 1.125-2.203 1.125-1.483 0-2.204-1.12-.72-1.118-.72-3.415 0-2.291.72-3.416.727-1.125 2.204-1.125 1.482 0 2.203 1.125.726 1.125.726 3.416m6.621-4.084v1.201a4.6 4.6 0 0 0-1.084-.521 3.5 3.5 0 0 0-1.09-.176q-.837 0-1.324.392-.486.387-.486 1.05 0 .579.316.884.323.305 1.196.51l.621.14q1.23.287 1.793.903.562.615.562 1.675 0 1.248-.773 1.905-.774.656-2.25.656-.615 0-1.237-.135a6.8 6.8 0 0 1-1.248-.392v-1.26q.674.428 1.272.627.603.2 1.213.199.896 0 1.394-.398.498-.405.498-1.126 0-.655-.345-1.001-.34-.346-1.19-.534l-.633-.146q-1.218-.276-1.769-.832-.55-.557-.551-1.494 0-1.172.785-1.875.792-.71 2.098-.71.504 0 1.06.118.558.11 1.172.34m1.576-.299h6.674v.996h-2.736V77h-1.189v-7.752h-2.749zm14.127 9.861v.996h-7.171v-.996zm.334-9.861h6.674v.996h-2.736V77h-1.19v-7.752h-2.748zm8.11 0h5.191v.996h-4.008v2.355h3.832v.997h-3.832v3.404h4.12V77h-5.303zm7.336 0h1.189v7.752h4.225V77h-5.414zm7.125 0h5.191v.996h-4.008v2.355h3.832v.997h-3.832v3.404h4.119V77h-5.302zm6.287.03h1.582l1.512 4.44 1.523-4.44h1.588V77h-1.096v-7.705l-1.558 4.594h-.897l-1.564-4.594V77h-1.09zm8.174-.03h5.191v.996h-4.008v2.355h3.832v.997h-3.832v3.404h4.119V77h-5.302zm6.351 0h6.674v.996h-2.736V77h-1.19v-7.752h-2.748zm11.408 4.617q.458.118.78.445.322.323.802 1.295L477.92 77h-1.272l-1.043-2.209q-.45-.943-.814-1.213-.357-.275-.937-.275h-1.131V77h-1.19v-8.748h2.438q1.441 0 2.209.65.767.65.767 1.881 0 .867-.474 1.418-.469.546-1.325.668m-2.425-3.644v3.105h1.295q.85 0 1.265-.38.416-.382.416-1.167 0-.756-.445-1.154-.44-.404-1.283-.404zm5.42-.973h1.259l2.133 3.861 2.127-3.861h1.272l-2.807 4.822V77h-1.189v-3.926zm18.697 4.617q.457.118.779.445.323.323.803 1.295L499.611 77h-1.271l-1.043-2.209q-.451-.943-.815-1.213-.357-.275-.937-.275h-1.131V77h-1.189v-8.748h2.437q1.441 0 2.209.65t.768 1.881q0 .867-.475 1.418-.468.546-1.324.668m-2.426-3.644v3.105h1.295q.849 0 1.266-.38.416-.382.416-1.167 0-.756-.446-1.154-.439-.404-1.283-.404zm6.357-.973h5.192v.996h-4.008v2.355h3.832v.997h-3.832v3.404h4.119V77h-5.303zm9.915 8.906q-.042 0-.118.006t-.123.006q-1.464 0-2.191-1.125-.721-1.125-.721-3.41 0-2.291.721-3.416.726-1.125 2.203-1.125 1.483 0 2.203 1.125.727 1.125.727 3.416 0 1.722-.405 2.777-.398 1.05-1.212 1.47l1.171 1.114-.884.586zm1.464-4.523q0-1.927-.398-2.754-.392-.825-1.295-.826-.896 0-1.295.826-.393.826-.392 2.754 0 1.922.392 2.748.399.826 1.295.826.903 0 1.295-.82.398-.827.398-2.754m2.789 1.008v-5.391h1.19v5.93q0 .638.035.914.036.27.123.416.188.345.539.521.358.176.862.176.509 0 .861-.176.351-.175.545-.521.087-.147.123-.416.035-.27.035-.903v-5.941h1.184v5.39q0 1.343-.17 1.91-.165.564-.575.932-.386.346-.884.516t-1.119.17q-.616 0-1.114-.17a2.6 2.6 0 0 1-.89-.516 2 2 0 0 1-.575-.937q-.17-.58-.17-1.904m7.524-5.391h5.191v.996h-4.008v2.355h3.833v.997h-3.833v3.404h4.12V77h-5.303zm12.006.299v1.201a4.7 4.7 0 0 0-1.084-.521 3.5 3.5 0 0 0-1.09-.176q-.838 0-1.324.392-.487.387-.487 1.05 0 .579.317.884.322.305 1.195.51l.621.14q1.231.287 1.793.903.563.615.563 1.675 0 1.248-.774 1.905-.772.656-2.25.656-.615 0-1.236-.135a6.8 6.8 0 0 1-1.248-.392v-1.26q.674.428 1.271.627.604.2 1.213.199.897 0 1.395-.398.498-.405.498-1.126 0-.655-.346-1.001-.34-.346-1.189-.534l-.633-.146q-1.22-.276-1.77-.832-.55-.557-.55-1.494 0-1.172.785-1.875.79-.71 2.097-.71.504 0 1.061.118a8 8 0 0 1 1.172.34m1.576-.299h6.674v.996h-2.737V77h-1.189v-7.752h-2.748z"/><path fill="#c1c3c8" d="M400.945 98.027q1.495 0 2.086-.732.592-.738.592-2.66 0-1.94-.592-2.672-.585-.738-2.086-.738h-.562v6.802zm.024-7.775q2.004 0 2.953 1.066.95 1.067.949 3.317 0 2.238-.949 3.304-.95 1.061-2.953 1.061h-1.776v-8.748zm11.215 4.928v.527h-4.67v.035q-.048 1.342.509 1.928.563.586 1.582.586.516 0 1.079-.164.562-.165 1.201-.498v1.072q-.615.252-1.19.375a5 5 0 0 1-1.101.129q-1.53 0-2.391-.914-.861-.92-.861-2.531 0-1.57.844-2.508.843-.938 2.25-.938 1.253 0 1.974.85.727.85.774 2.05m-1.079-.317a2.05 2.05 0 0 0-.498-1.172q-.421-.498-1.218-.498-.78 0-1.284.516-.503.516-.55 1.16zm2.333-2.425h1.119l1.904 5.507 1.91-5.507h1.119L417.158 99h-1.388zm8.496.023h2.759v5.701h2.139V99h-5.355v-.838h2.138V93.3h-1.681zm1.681-2.549h1.078v1.36h-1.078zm9.914 8.754a3.6 3.6 0 0 1-.896.375 3.4 3.4 0 0 1-.938.129q-1.523 0-2.384-.914-.856-.915-.856-2.531t.856-2.532q.861-.914 2.384-.914.475 0 .926.123.452.124.908.381v1.131a2.9 2.9 0 0 0-.861-.55 2.6 2.6 0 0 0-.973-.17q-1.013 0-1.558.656-.546.655-.545 1.875 0 1.212.545 1.875.55.656 1.558.656.563 0 1.008-.17a2.6 2.6 0 0 0 .826-.54zm7.576-3.486v.527h-4.669v.035q-.048 1.342.509 1.928.563.586 1.582.586.516 0 1.078-.164.563-.165 1.202-.498v1.072a7 7 0 0 1-1.19.375 5 5 0 0 1-1.101.129q-1.53 0-2.391-.914-.861-.92-.861-2.531 0-1.57.843-2.508.844-.938 2.25-.938 1.255 0 1.975.85.726.85.773 2.05m-1.078-.317a2.07 2.07 0 0 0-.498-1.172q-.422-.498-1.218-.498-.78 0-1.284.516t-.55 1.16zm14.186-4.611h1.113l-4.605 9.861h-1.119zm12.861 1.043-1.248 4.477h2.496zm-.715-1.043h1.436L470.473 99h-1.225l-.644-2.28h-3.065l-.633 2.28h-1.224zm10.037 2.414v1.055a4 4 0 0 0-.931-.405 3.5 3.5 0 0 0-.955-.134q-.733 0-1.096.24-.357.234-.357.72 0 .44.269.657.27.216 1.342.422l.434.082q.803.151 1.212.61.416.456.416 1.189 0 .972-.691 1.523-.691.545-1.922.545a5.3 5.3 0 0 1-1.019-.106 9 9 0 0 1-1.155-.304v-1.114q.604.31 1.155.47a4 4 0 0 0 1.043.152q.714 0 1.107-.287.393-.293.393-.815 0-.75-1.436-1.037l-.047-.012-.404-.082q-.932-.18-1.359-.61-.428-.432-.428-1.177 0-.943.638-1.453.64-.516 1.823-.516.527 0 1.013.1.487.093.955.287m7.231 0v1.055a4 4 0 0 0-.932-.405 3.4 3.4 0 0 0-.955-.134q-.732 0-1.095.24-.358.234-.358.72 0 .44.27.657.27.216 1.341.422l.434.082q.802.151 1.213.61.416.456.416 1.189 0 .972-.691 1.523-.692.545-1.922.545a5.3 5.3 0 0 1-1.02-.106 9 9 0 0 1-1.154-.304v-1.114q.603.31 1.154.47.55.151 1.043.152.715 0 1.108-.287.392-.293.392-.815 0-.75-1.435-1.037l-.047-.012-.405-.082q-.931-.18-1.359-.61-.428-.432-.428-1.177 0-.943.639-1.453.639-.516 1.822-.516.528 0 1.014.1.486.093.955.287m8.092 2.514v.527h-4.67v.035q-.047 1.342.51 1.928.562.586 1.582.586a3.9 3.9 0 0 0 1.078-.164q.562-.165 1.201-.498v1.072q-.615.252-1.19.375a5 5 0 0 1-1.101.129q-1.53 0-2.391-.914-.861-.92-.861-2.531 0-1.57.844-2.508.843-.938 2.25-.938 1.254 0 1.974.85.727.85.774 2.05m-1.078-.317a2.07 2.07 0 0 0-.498-1.172q-.423-.498-1.219-.498-.78 0-1.283.516-.504.516-.551 1.16zm5.343-4.289v1.864h2.45v.837h-2.45v3.563q0 .726.276 1.014.275.287.961.287h1.213V99h-1.319q-1.212 0-1.711-.486-.498-.487-.498-1.676v-3.563h-1.752v-.838h1.752v-1.863zm16.073-.322h1.113l-4.606 9.861h-1.119zm11.531 6.38h2.062V99h-2.062zm7.23 0h2.063V99h-2.063zm7.231 0h2.062V99h-2.062zM382.746 121.3v.844h-.375q-1.46 0-1.957-.434-.492-.433-.492-1.729v-1.171q0-.639-.363-1.102-.358-.463-1.114-.463h-.715v-.838h.715q.827 0 1.149-.392.327-.393.328-1.155v-1.523q0-1.295.492-1.723.498-.433 1.957-.433h.375v.838h-.41q-.82 0-1.072.257-.246.253-.246 1.084v1.571q0 1.03-.405 1.388-.404.353-1.576.51 1.136.135 1.559.522.422.38.422 1.382v1.225q0 .838.246 1.09.252.252 1.072.252zm104.924-6.856h1.828v2.116h-1.828zm0 4.424h1.828V121h-1.828zm14.133 1.137h4.019V121h-5.314v-.996q1.095-1.154 1.916-2.039.82-.885 1.131-1.248.585-.716.791-1.155.205-.444.205-.908 0-.732-.434-1.148-.428-.416-1.178-.416a3.6 3.6 0 0 0-1.119.193q-.585.193-1.242.586v-1.195a6.4 6.4 0 0 1 1.184-.434q.585-.146 1.154-.146 1.283 0 2.063.685.785.68.785 1.787 0 .562-.264 1.125-.258.562-.844 1.243-.328.38-.955 1.054-.621.674-1.898 2.016m7.23 0h4.02V121h-5.315v-.996q1.096-1.154 1.916-2.039t1.131-1.248q.586-.716.791-1.155.205-.444.205-.908 0-.732-.433-1.148-.428-.416-1.178-.416a3.6 3.6 0 0 0-1.119.193 6.3 6.3 0 0 0-1.242.586v-1.195a6.4 6.4 0 0 1 1.183-.434 4.8 4.8 0 0 1 1.154-.146q1.284 0 2.063.685.785.68.785 1.787 0 .562-.264 1.125-.257.562-.843 1.243-.328.38-.955 1.054a181 181 0 0 1-1.899 2.016m7.324-1.371h2.063V121h-2.063zm5.766-6.381h5.508v.504L524.502 121h-1.236l3.046-7.752h-4.189zm15.34 9.047q.82 0 1.066-.252.252-.252.252-1.09v-1.225q0-1.001.422-1.382.422-.387 1.559-.522-1.173-.157-1.576-.51-.405-.357-.405-1.388v-1.571q0-.831-.252-1.084-.246-.257-1.066-.257h-.41v-.838h.375q1.459 0 1.951.433.498.428.498 1.723v1.523q0 .762.322 1.155.329.392 1.155.392h.714v.838h-.714q-.756 0-1.12.463a1.75 1.75 0 0 0-.357 1.102v1.171q0 1.296-.498 1.729-.492.434-1.951.434h-.375v-.844zm-212.561 22v.844h-.375q-1.459 0-1.957-.434-.492-.433-.492-1.729v-1.171q0-.639-.363-1.102-.358-.463-1.113-.463h-.715v-.838h.715q.825 0 1.148-.392.328-.393.328-1.155v-1.523q0-1.295.492-1.723.498-.433 1.957-.433h.375v.838h-.41q-.82 0-1.072.257-.246.253-.246 1.084v1.571q0 1.03-.404 1.388-.404.353-1.577.51 1.137.135 1.559.522.422.38.422 1.382v1.225q0 .838.246 1.09.252.252 1.072.252zm83.309-2.414h1.828v1.553l-1.301 2.525-1.172.006.645-2.531zm86.766 0h1.828v1.553l-1.301 2.525-1.172.006.645-2.531zm14.15-.252h2.062V143h-2.062zm7.23 0h2.063V143h-2.063zm7.231 0h2.062V143h-2.062zm13.875 2.666q.82 0 1.066-.252.252-.252.252-1.09v-1.225q0-1.001.422-1.382.422-.387 1.559-.522-1.173-.157-1.576-.51-.405-.357-.405-1.388v-1.571q0-.831-.252-1.084-.246-.257-1.066-.257h-.41v-.838h.375q1.459 0 1.951.433.498.428.498 1.723v1.523q0 .762.322 1.155.329.392 1.155.392h.714v.838h-.714q-.756 0-1.12.463a1.75 1.75 0 0 0-.357 1.102v1.171q0 1.296-.498 1.729-.492.434-1.951.434h-.375v-.844z"/><path fill="#ee5389" d="M396.574 115.334h-1.476v-1.213l1.148-2.238h.902l-.574 2.238zm-2.689 0h-1.489v-1.213l1.166-2.238h.897l-.574 2.238zm8.103-2.76v1.864h2.45v.837h-2.45v3.563q0 .726.276 1.014.275.287.961.287h1.213V121h-1.319q-1.213 0-1.711-.486-.498-.487-.498-1.676v-3.563h-1.752v-.837h1.752v-1.864zm10.196 4.606v.527h-4.67v.035q-.048 1.342.509 1.928.563.586 1.582.586.516 0 1.079-.164.562-.165 1.201-.498v1.072q-.615.252-1.19.375a5 5 0 0 1-1.101.129q-1.53 0-2.391-.914-.861-.92-.861-2.531 0-1.57.844-2.508.843-.938 2.25-.938 1.253 0 1.974.85.727.85.774 2.051m-1.079-.317a2.06 2.06 0 0 0-.498-1.172q-.421-.498-1.218-.498-.78 0-1.284.516-.503.516-.55 1.16zm5.707-1.758q.2-.422.504-.621.31-.204.745-.205.79 0 1.113.616.328.609.328 2.302V121h-.984v-3.756q0-1.389-.159-1.723-.152-.339-.562-.339-.469 0-.645.363-.17.358-.17 1.699V121h-.984v-3.756q0-1.405-.17-1.734-.163-.328-.598-.328-.428 0-.597.363-.165.358-.164 1.699V121h-.979v-6.562h.979V115a1.43 1.43 0 0 1 .48-.533q.294-.188.662-.188.445 0 .739.205.299.206.462.621m5.467 5.069v3.322h-1.084v-9.058h1.084v.837q.27-.486.715-.738a2.05 2.05 0 0 1 1.037-.258q1.19 0 1.864.92.68.92.679 2.549 0 1.599-.679 2.514-.68.908-1.864.908-.597 0-1.049-.252a1.83 1.83 0 0 1-.703-.744m3.164-2.449q0-1.254-.398-1.893-.392-.639-1.172-.639-.785 0-1.189.645-.405.639-.405 1.887 0 1.242.405 1.886.404.645 1.189.645.78 0 1.172-.639.399-.639.398-1.892m8.432-.545v.527h-4.67v.035q-.046 1.342.51 1.928.562.586 1.582.586a3.9 3.9 0 0 0 1.078-.164q.562-.165 1.201-.498v1.072q-.615.252-1.189.375a5 5 0 0 1-1.102.129q-1.529 0-2.39-.914-.862-.92-.862-2.531 0-1.57.844-2.508.843-.938 2.25-.938 1.254 0 1.975.85.726.85.773 2.051m-1.078-.317a2.07 2.07 0 0 0-.498-1.172q-.422-.498-1.219-.498-.779 0-1.283.516t-.551 1.16zm8.514-1.072a2.4 2.4 0 0 0-.704-.393 2.4 2.4 0 0 0-.785-.123q-1.008 0-1.541.633t-.533 1.828V121h-1.084v-6.562h1.084v1.283q.27-.698.826-1.067.563-.375 1.33-.375.399 0 .744.1.347.1.663.31zm4.576 1.91h-.358q-.943 0-1.424.334-.474.328-.474.985 0 .592.357.919.358.329.991.329.89 0 1.4-.616.51-.62.516-1.711v-.24zm2.092-.445V121h-1.084v-.973q-.346.586-.874.868-.52.275-1.271.275-1.002 0-1.6-.563-.597-.567-.597-1.517 0-1.096.732-1.664.738-.569 2.162-.569h1.448v-.169q-.006-.786-.399-1.137-.393-.358-1.254-.358-.55 0-1.113.159-.562.157-1.096.462v-1.078a7.4 7.4 0 0 1 1.143-.34 5 5 0 0 1 1.066-.117q.814 0 1.389.241.58.24.937.72.223.294.317.727.093.428.094 1.289m4.623-4.682v1.864h2.449v.837h-2.449v3.563q0 .726.275 1.014.276.287.961.287h1.213V121h-1.319q-1.212 0-1.711-.486-.498-.487-.498-1.676v-3.563h-1.752v-.837h1.752v-1.864zm4.775 5.942v-4.067h1.078v4.067q0 .884.311 1.3.317.417.972.416.762 0 1.166-.533.405-.539.405-1.541v-3.709h1.084V121h-1.084v-.984a2.03 2.03 0 0 1-.786.861q-.492.293-1.154.293-1.008 0-1.5-.656-.492-.663-.492-1.998m12.855-2.725a2.4 2.4 0 0 0-.703-.393 2.4 2.4 0 0 0-.785-.123q-1.008 0-1.541.633t-.533 1.828V121h-1.084v-6.562h1.084v1.283q.27-.698.826-1.067.562-.375 1.33-.375.399 0 .744.1.346.1.662.31zm7.026 1.389v.527h-4.67v.035q-.046 1.342.51 1.928.562.586 1.582.586.515 0 1.078-.164.562-.165 1.201-.498v1.072q-.616.252-1.189.375a5 5 0 0 1-1.102.129q-1.53 0-2.391-.914-.861-.92-.861-2.531 0-1.57.844-2.508.843-.938 2.25-.938 1.254 0 1.974.85.728.85.774 2.051m-1.078-.317a2.07 2.07 0 0 0-.498-1.172q-.423-.498-1.219-.498-.78 0-1.283.516-.504.516-.551 1.16zm6.246-4.98h1.476v1.207l-1.154 2.244h-.896l.574-2.244zm-2.69 0h1.477v1.207l-1.149 2.244h-.902l.574-2.244z"/><path fill="#bd53ee" d="M338.344 137.275v-3.392h1.078V143h-1.078v-.826q-.27.486-.721.744a2.06 2.06 0 0 1-1.031.252q-1.19 0-1.875-.92-.68-.926-.68-2.549 0-1.599.686-2.508.685-.914 1.869-.914.591 0 1.043.258.451.252.709.738m-3.17 2.45q0 1.254.398 1.892.399.639 1.178.639.78 0 1.184-.645.41-.644.41-1.886 0-1.248-.41-1.887-.404-.645-1.184-.645t-1.178.639-.398 1.893m11.935-.545v.527h-4.67v.035q-.046 1.342.51 1.928.563.586 1.582.586a3.9 3.9 0 0 0 1.078-.164 6.7 6.7 0 0 0 1.202-.498v1.072a7 7 0 0 1-1.19.375 5 5 0 0 1-1.101.129q-1.53 0-2.391-.914-.861-.92-.861-2.531 0-1.57.843-2.508.844-.938 2.25-.938 1.254 0 1.975.85.726.85.773 2.051m-1.078-.317a2.07 2.07 0 0 0-.498-1.172q-.421-.498-1.219-.498-.779 0-1.283.516-.503.515-.551 1.16zm2.332-2.425h1.119l1.905 5.507 1.91-5.507h1.119L352.084 143h-1.389zm8.496.023h2.76v5.701h2.139V143h-5.356v-.838h2.139v-4.863h-1.682zm1.682-2.549h1.078v1.359h-1.078zm9.914 8.754a3.6 3.6 0 0 1-.896.375 3.4 3.4 0 0 1-.938.129q-1.523 0-2.385-.914-.855-.915-.855-2.531 0-1.618.855-2.532.862-.914 2.385-.914.475 0 .926.123t.908.381v1.131a2.9 2.9 0 0 0-.861-.551 2.6 2.6 0 0 0-.973-.17q-1.013 0-1.559.657-.544.655-.544 1.875 0 1.212.544 1.875.551.656 1.559.656.563 0 1.008-.17.445-.176.826-.539zm7.576-3.486v.527h-4.67v.035q-.046 1.342.51 1.928.562.586 1.582.586a3.9 3.9 0 0 0 1.078-.164q.563-.165 1.201-.498v1.072q-.615.252-1.189.375a5 5 0 0 1-1.102.129q-1.529 0-2.39-.914-.861-.92-.862-2.531 0-1.57.844-2.508t2.25-.938q1.254 0 1.975.85.726.85.773 2.051m-1.078-.317a2.07 2.07 0 0 0-.498-1.172q-.421-.498-1.219-.498-.779 0-1.283.516-.504.515-.551 1.16zm1.858-4.582h1.617l3.422 7.178v-7.178h1.259V143h-1.617l-3.422-7.178V143h-1.259zm11.232 5.42h-.357q-.944 0-1.424.334-.475.328-.475.985 0 .592.358.919.357.329.99.329.89 0 1.4-.616.51-.62.516-1.711v-.24zm2.092-.445V143h-1.084v-.973q-.346.586-.873.868-.522.275-1.272.275-1.002 0-1.599-.563-.598-.567-.598-1.517 0-1.096.732-1.664.739-.569 2.163-.569h1.447v-.169q-.006-.786-.399-1.137-.392-.358-1.254-.358-.55 0-1.113.159-.562.157-1.096.462v-1.078q.599-.228 1.143-.34a5 5 0 0 1 1.066-.117q.814 0 1.389.241.58.24.938.72.223.294.316.727.094.428.094 1.289m4.986-2.151q.2-.422.504-.621.31-.204.744-.205.791 0 1.113.616.329.609.329 2.302V143h-.985v-3.756q0-1.389-.158-1.723-.152-.339-.563-.339-.468 0-.644.363-.17.357-.17 1.699V143h-.984v-3.756q0-1.406-.17-1.734-.165-.328-.598-.328-.427 0-.598.363-.164.357-.164 1.699V143h-.978v-6.562h.978V137q.193-.351.481-.533.293-.188.662-.188.445 0 .738.205.299.206.463.621m9.832 2.075v.527h-4.67v.035q-.046 1.342.51 1.928.562.586 1.582.586a3.9 3.9 0 0 0 1.078-.164q.563-.165 1.201-.498v1.072q-.615.252-1.189.375a5 5 0 0 1-1.102.129q-1.529 0-2.39-.914-.862-.92-.862-2.531 0-1.57.844-2.508t2.25-.938q1.254 0 1.975.85.726.85.773 2.051m-1.078-.317a2.07 2.07 0 0 0-.498-1.172q-.422-.498-1.219-.498-.779 0-1.283.516-.504.515-.551 1.16zm21.234-1.588v-3.392h1.079V143h-1.079v-.826a1.9 1.9 0 0 1-.72.744 2.06 2.06 0 0 1-1.032.252q-1.19 0-1.875-.92-.68-.926-.679-2.549 0-1.599.685-2.508.685-.914 1.869-.914.593 0 1.043.258.452.252.709.738m-3.17 2.45q0 1.254.399 1.892.399.639 1.178.639t1.183-.645q.41-.644.41-1.886 0-1.248-.41-1.887-.404-.645-1.183-.645-.78 0-1.178.639-.399.639-.399 1.893m11.936-.545v.527h-4.67v.035q-.046 1.342.51 1.928.562.586 1.582.586a3.9 3.9 0 0 0 1.078-.164q.562-.165 1.201-.498v1.072q-.615.252-1.189.375a5 5 0 0 1-1.102.129q-1.529 0-2.39-.914-.862-.92-.862-2.531 0-1.57.844-2.508.843-.938 2.25-.938 1.254 0 1.975.85.726.85.773 2.051m-1.078-.317a2.07 2.07 0 0 0-.498-1.172q-.422-.498-1.219-.498-.779 0-1.283.516-.504.515-.551 1.16zm2.332-2.425h1.119l1.904 5.507 1.91-5.507h1.12L438.85 143h-1.389zm8.496.023h2.76v5.701h2.138V143h-5.355v-.838h2.139v-4.863h-1.682zm1.682-2.549h1.078v1.359h-1.078zm9.914 8.754a3.6 3.6 0 0 1-.897.375 3.4 3.4 0 0 1-.937.129q-1.524 0-2.385-.914-.855-.915-.856-2.531 0-1.618.856-2.532.861-.914 2.385-.914.474 0 .925.123t.909.381v1.131a2.9 2.9 0 0 0-.862-.551 2.6 2.6 0 0 0-.972-.17q-1.014 0-1.559.657-.545.655-.545 1.875 0 1.212.545 1.875.55.656 1.559.656.563 0 1.008-.17.444-.176.826-.539zm7.576-3.486v.527h-4.67v.035q-.046 1.342.51 1.928.562.586 1.582.586.515 0 1.078-.164.562-.165 1.201-.498v1.072q-.616.252-1.189.375a5 5 0 0 1-1.102.129q-1.529 0-2.391-.914-.861-.92-.861-2.531 0-1.57.844-2.508.843-.938 2.25-.938 1.254 0 1.974.85.727.85.774 2.051m-1.078-.317a2.07 2.07 0 0 0-.498-1.172q-.423-.498-1.219-.498-.78 0-1.283.516-.504.515-.551 1.16zm2.021-4.611h6.674v.996h-2.736V143h-1.19v-7.752h-2.748zm11.983 6.639q-.27.685-.686 1.804-.58 1.547-.779 1.887-.27.457-.674.686a1.9 1.9 0 0 1-.943.228h-.868v-.902h.639q.476 0 .744-.276.27-.275.686-1.423l-2.537-6.457h1.142l1.946 5.132 1.916-5.132h1.142zm4.4 1.283v3.322h-1.084v-9.058h1.084v.837q.27-.486.715-.738a2.05 2.05 0 0 1 1.037-.258q1.19 0 1.863.92.68.92.68 2.549 0 1.599-.68 2.514-.68.908-1.863.908-.597 0-1.049-.252a1.83 1.83 0 0 1-.703-.744m3.164-2.449q0-1.254-.398-1.893-.393-.639-1.172-.639-.786 0-1.19.645-.404.639-.404 1.887 0 1.242.404 1.886.404.645 1.19.645.779 0 1.172-.639.398-.638.398-1.892m8.432-.545v.527h-4.67v.035q-.047 1.342.51 1.928.562.586 1.582.586.515 0 1.078-.164.562-.165 1.201-.498v1.072q-.615.252-1.19.375a5 5 0 0 1-1.101.129q-1.53 0-2.391-.914-.861-.92-.861-2.531 0-1.57.844-2.508.843-.938 2.25-.938 1.254 0 1.974.85.727.85.774 2.051m-1.078-.317a2.07 2.07 0 0 0-.498-1.172q-.423-.498-1.219-.498-.78 0-1.283.516-.504.515-.551 1.16z"/></g><defs><clipPath id="a"><path fill="#fff" d="M0 0h720v172H0z"/></clipPath><clipPath id="b"><path fill="#fff" d="M0 0h720v314H0z"/></clipPath></defs></svg>