<svg xmlns="http://www.w3.org/2000/svg" width="720" height="90" fill="none"><g clip-path="url(#a)"><path fill="#17181c" d="M0 0h720v90H0z"/><g fill="#353841" clip-path="url(#b)" opacity=".5"><circle cx="3" cy="20" r="1"/><circle cx="87" cy="20" r="1"/><circle cx="73" cy="20" r="1"/><circle cx="17" cy="20" r="1"/><circle cx="101" cy="20" r="1"/><circle cx="3" cy="6" r="1"/><circle cx="87" cy="6" r="1"/><circle cx="73" cy="6" r="1"/><circle cx="17" cy="6" r="1"/><circle cx="101" cy="6" r="1"/><circle cx="3" cy="34" r="1"/><circle cx="87" cy="34" r="1"/><circle cx="73" cy="34" r="1"/><circle cx="17" cy="34" r="1"/><circle cx="101" cy="34" r="1"/><circle cx="45" cy="20" r="1"/><circle cx="129" cy="20" r="1"/><circle cx="31" cy="20" r="1"/><circle cx="115" cy="20" r="1"/><circle cx="59" cy="20" r="1"/><circle cx="143" cy="20" r="1"/><circle cx="45" cy="6" r="1"/><circle cx="129" cy="6" r="1"/><circle cx="31" cy="6" r="1"/><circle cx="115" cy="6" r="1"/><circle cx="59" cy="6" r="1"/><circle cx="143" cy="6" r="1"/><circle cx="45" cy="34" r="1"/><circle cx="129" cy="34" r="1"/><circle cx="31" cy="34" r="1"/><circle cx="115" cy="34" r="1"/><circle cx="59" cy="34" r="1"/><circle cx="143" cy="34" r="1"/><circle cx="3" cy="62" r="1"/><circle cx="87" cy="62" r="1"/><circle cx="73" cy="62" r="1"/><circle cx="17" cy="62" r="1"/><circle cx="101" cy="62" r="1"/><circle cx="3" cy="48" r="1"/><circle cx="87" cy="48" r="1"/><circle cx="3" cy="90" r="1"/><circle cx="87" cy="90" r="1"/><circle cx="73" cy="48" r="1"/><circle cx="73" cy="90" r="1"/><circle cx="17" cy="48" r="1"/><circle cx="101" cy="48" r="1"/><circle cx="17" cy="90" r="1"/><circle cx="101" cy="90" r="1"/><circle cx="3" cy="76" r="1"/><circle cx="87" cy="76" r="1"/><circle cx="73" cy="76" r="1"/><circle cx="17" cy="76" r="1"/><circle cx="101" cy="76" r="1"/><circle cx="45" cy="62" r="1"/><circle cx="129" cy="62" r="1"/><circle cx="31" cy="62" r="1"/><circle cx="115" cy="62" r="1"/><circle cx="59" cy="62" r="1"/><circle cx="143" cy="62" r="1"/><circle cx="45" cy="48" r="1"/><circle cx="129" cy="48" r="1"/><circle cx="45" cy="90" r="1"/><circle cx="129" cy="90" r="1"/><circle cx="31" cy="48" r="1"/><circle cx="115" cy="48" r="1"/><circle cx="31" cy="90" r="1"/><circle cx="115" cy="90" r="1"/><circle cx="59" cy="48" r="1"/><circle cx="143" cy="48" r="1"/><circle cx="59" cy="90" r="1"/><circle cx="143" cy="90" r="1"/><circle cx="45" cy="76" r="1"/><circle cx="129" cy="76" r="1"/><circle cx="31" cy="76" r="1"/><circle cx="115" cy="76" r="1"/><circle cx="59" cy="76" r="1"/><circle cx="143" cy="76" r="1"/><circle cx="171" cy="20" r="1"/><circle cx="255" cy="20" r="1"/><circle cx="157" cy="20" r="1"/><circle cx="241" cy="20" r="1"/><circle cx="185" cy="20" r="1"/><circle cx="269" cy="20" r="1"/><circle cx="171" cy="6" r="1"/><circle cx="255" cy="6" r="1"/><circle cx="157" cy="6" r="1"/><circle cx="241" cy="6" r="1"/><circle cx="185" cy="6" r="1"/><circle cx="269" cy="6" r="1"/><circle cx="171" cy="34" r="1"/><circle cx="255" cy="34" r="1"/><circle cx="157" cy="34" r="1"/><circle cx="241" cy="34" r="1"/><circle cx="185" cy="34" r="1"/><circle cx="269" cy="34" r="1"/><circle cx="213" cy="20" r="1"/><circle cx="297" cy="20" r="1"/><circle cx="199" cy="20" r="1"/><circle cx="283" cy="20" r="1"/><circle cx="227" cy="20" r="1"/><circle cx="311" cy="20" r="1"/><circle cx="213" cy="6" r="1"/><circle cx="297" cy="6" r="1"/><circle cx="199" cy="6" r="1"/><circle cx="283" cy="6" r="1"/><circle cx="227" cy="6" r="1"/><circle cx="311" cy="6" r="1"/><circle cx="213" cy="34" r="1"/><circle cx="297" cy="34" r="1"/><circle cx="199" cy="34" r="1"/><circle cx="283" cy="34" r="1"/><circle cx="227" cy="34" r="1"/><circle cx="311" cy="34" r="1"/><circle cx="171" cy="62" r="1"/><circle cx="255" cy="62" r="1"/><circle cx="157" cy="62" r="1"/><circle cx="241" cy="62" r="1"/><circle cx="185" cy="62" r="1"/><circle cx="269" cy="62" r="1"/><circle cx="171" cy="48" r="1"/><circle cx="255" cy="48" r="1"/><circle cx="171" cy="90" r="1"/><circle cx="255" cy="90" r="1"/><circle cx="157" cy="48" r="1"/><circle cx="241" cy="48" r="1"/><circle cx="157" cy="90" r="1"/><circle cx="241" cy="90" r="1"/><circle cx="185" cy="48" r="1"/><circle cx="269" cy="48" r="1"/><circle cx="185" cy="90" r="1"/><circle cx="269" cy="90" r="1"/><circle cx="171" cy="76" r="1"/><circle cx="255" cy="76" r="1"/><circle cx="157" cy="76" r="1"/><circle cx="241" cy="76" r="1"/><circle cx="185" cy="76" r="1"/><circle cx="269" cy="76" r="1"/><circle cx="213" cy="62" r="1"/><circle cx="297" cy="62" r="1"/><circle cx="199" cy="62" r="1"/><circle cx="283" cy="62" r="1"/><circle cx="227" cy="62" r="1"/><circle cx="311" cy="62" r="1"/><circle cx="213" cy="48" r="1"/><circle cx="297" cy="48" r="1"/><circle cx="213" cy="90" r="1"/><circle cx="297" cy="90" r="1"/><circle cx="199" cy="48" r="1"/><circle cx="283" cy="48" r="1"/><circle cx="199" cy="90" r="1"/><circle cx="283" cy="90" r="1"/><circle cx="227" cy="48" r="1"/><circle cx="311" cy="48" r="1"/><circle cx="227" cy="90" r="1"/><circle cx="311" cy="90" r="1"/><circle cx="213" cy="76" r="1"/><circle cx="297" cy="76" r="1"/><circle cx="199" cy="76" r="1"/><circle cx="283" cy="76" r="1"/><circle cx="227" cy="76" r="1"/><circle cx="311" cy="76" r="1"/><circle cx="339" cy="20" r="1"/><circle cx="423" cy="20" r="1"/><circle cx="325" cy="20" r="1"/><circle cx="409" cy="20" r="1"/><circle cx="353" cy="20" r="1"/><circle cx="437" cy="20" r="1"/><circle cx="339" cy="6" r="1"/><circle cx="423" cy="6" r="1"/><circle cx="325" cy="6" r="1"/><circle cx="409" cy="6" r="1"/><circle cx="353" cy="6" r="1"/><circle cx="437" cy="6" r="1"/><circle cx="339" cy="34" r="1"/><circle cx="423" cy="34" r="1"/><circle cx="325" cy="34" r="1"/><circle cx="409" cy="34" r="1"/><circle cx="353" cy="34" r="1"/><circle cx="437" cy="34" r="1"/><circle cx="381" cy="20" r="1"/><circle cx="465" cy="20" r="1"/><circle cx="367" cy="20" r="1"/><circle cx="451" cy="20" r="1"/><circle cx="395" cy="20" r="1"/><circle cx="479" cy="20" r="1"/><circle cx="381" cy="6" r="1"/><circle cx="465" cy="6" r="1"/><circle cx="367" cy="6" r="1"/><circle cx="451" cy="6" r="1"/><circle cx="395" cy="6" r="1"/><circle cx="479" cy="6" r="1"/><circle cx="381" cy="34" r="1"/><circle cx="465" cy="34" r="1"/><circle cx="367" cy="34" r="1"/><circle cx="451" cy="34" r="1"/><circle cx="395" cy="34" r="1"/><circle cx="479" cy="34" r="1"/><circle cx="339" cy="62" r="1"/><circle cx="423" cy="62" r="1"/><circle cx="325" cy="62" r="1"/><circle cx="409" cy="62" r="1"/><circle cx="353" cy="62" r="1"/><circle cx="437" cy="62" r="1"/><circle cx="339" cy="48" r="1"/><circle cx="423" cy="48" r="1"/><circle cx="339" cy="90" r="1"/><circle cx="423" cy="90" r="1"/><circle cx="325" cy="48" r="1"/><circle cx="409" cy="48" r="1"/><circle cx="325" cy="90" r="1"/><circle cx="409" cy="90" r="1"/><circle cx="353" cy="48" r="1"/><circle cx="437" cy="48" r="1"/><circle cx="353" cy="90" r="1"/><circle cx="437" cy="90" r="1"/><circle cx="339" cy="76" r="1"/><circle cx="423" cy="76" r="1"/><circle cx="325" cy="76" r="1"/><circle cx="409" cy="76" r="1"/><circle cx="353" cy="76" r="1"/><circle cx="437" cy="76" r="1"/><circle cx="381" cy="62" r="1"/><circle cx="465" cy="62" r="1"/><circle cx="367" cy="62" r="1"/><circle cx="451" cy="62" r="1"/><circle cx="395" cy="62" r="1"/><circle cx="479" cy="62" r="1"/><circle cx="381" cy="48" r="1"/><circle cx="465" cy="48" r="1"/><circle cx="381" cy="90" r="1"/><circle cx="465" cy="90" r="1"/><circle cx="367" cy="48" r="1"/><circle cx="451" cy="48" r="1"/><circle cx="367" cy="90" r="1"/><circle cx="451" cy="90" r="1"/><circle cx="395" cy="48" r="1"/><circle cx="479" cy="48" r="1"/><circle cx="395" cy="90" r="1"/><circle cx="479" cy="90" r="1"/><circle cx="381" cy="76" r="1"/><circle cx="465" cy="76" r="1"/><circle cx="367" cy="76" r="1"/><circle cx="451" cy="76" r="1"/><circle cx="395" cy="76" r="1"/><circle cx="479" cy="76" r="1"/><circle cx="507" cy="20" r="1"/><circle cx="591" cy="20" r="1"/><circle cx="493" cy="20" r="1"/><circle cx="577" cy="20" r="1"/><circle cx="521" cy="20" r="1"/><circle cx="605" cy="20" r="1"/><circle cx="507" cy="6" r="1"/><circle cx="591" cy="6" r="1"/><circle cx="493" cy="6" r="1"/><circle cx="577" cy="6" r="1"/><circle cx="521" cy="6" r="1"/><circle cx="605" cy="6" r="1"/><circle cx="507" cy="34" r="1"/><circle cx="591" cy="34" r="1"/><circle cx="493" cy="34" r="1"/><circle cx="577" cy="34" r="1"/><circle cx="521" cy="34" r="1"/><circle cx="605" cy="34" r="1"/><circle cx="549" cy="20" r="1"/><circle cx="633" cy="20" r="1"/><circle cx="535" cy="20" r="1"/><circle cx="619" cy="20" r="1"/><circle cx="563" cy="20" r="1"/><circle cx="647" cy="20" r="1"/><circle cx="549" cy="6" r="1"/><circle cx="633" cy="6" r="1"/><circle cx="535" cy="6" r="1"/><circle cx="619" cy="6" r="1"/><circle cx="563" cy="6" r="1"/><circle cx="647" cy="6" r="1"/><circle cx="549" cy="34" r="1"/><circle cx="633" cy="34" r="1"/><circle cx="535" cy="34" r="1"/><circle cx="619" cy="34" r="1"/><circle cx="563" cy="34" r="1"/><circle cx="647" cy="34" r="1"/><circle cx="507" cy="62" r="1"/><circle cx="591" cy="62" r="1"/><circle cx="493" cy="62" r="1"/><circle cx="577" cy="62" r="1"/><circle cx="521" cy="62" r="1"/><circle cx="605" cy="62" r="1"/><circle cx="507" cy="48" r="1"/><circle cx="591" cy="48" r="1"/><circle cx="507" cy="90" r="1"/><circle cx="591" cy="90" r="1"/><circle cx="493" cy="48" r="1"/><circle cx="577" cy="48" r="1"/><circle cx="493" cy="90" r="1"/><circle cx="577" cy="90" r="1"/><circle cx="521" cy="48" r="1"/><circle cx="605" cy="48" r="1"/><circle cx="521" cy="90" r="1"/><circle cx="605" cy="90" r="1"/><circle cx="507" cy="76" r="1"/><circle cx="591" cy="76" r="1"/><circle cx="493" cy="76" r="1"/><circle cx="577" cy="76" r="1"/><circle cx="521" cy="76" r="1"/><circle cx="605" cy="76" r="1"/><circle cx="549" cy="62" r="1"/><circle cx="633" cy="62" r="1"/><circle cx="535" cy="62" r="1"/><circle cx="619" cy="62" r="1"/><circle cx="563" cy="62" r="1"/><circle cx="647" cy="62" r="1"/><circle cx="549" cy="48" r="1"/><circle cx="633" cy="48" r="1"/><circle cx="549" cy="90" r="1"/><circle cx="633" cy="90" r="1"/><circle cx="535" cy="48" r="1"/><circle cx="619" cy="48" r="1"/><circle cx="535" cy="90" r="1"/><circle cx="619" cy="90" r="1"/><circle cx="563" cy="48" r="1"/><circle cx="647" cy="48" r="1"/><circle cx="563" cy="90" r="1"/><circle cx="647" cy="90" r="1"/><circle cx="549" cy="76" r="1"/><circle cx="633" cy="76" r="1"/><circle cx="535" cy="76" r="1"/><circle cx="619" cy="76" r="1"/><circle cx="563" cy="76" r="1"/><circle cx="647" cy="76" r="1"/><circle cx="675" cy="20" r="1"/><circle cx="661" cy="20" r="1"/><circle cx="689" cy="20" r="1"/><circle cx="675" cy="6" r="1"/><circle cx="661" cy="6" r="1"/><circle cx="689" cy="6" r="1"/><circle cx="675" cy="34" r="1"/><circle cx="661" cy="34" r="1"/><circle cx="689" cy="34" r="1"/><circle cx="675" cy="62" r="1"/><circle cx="661" cy="62" r="1"/><circle cx="689" cy="62" r="1"/><circle cx="675" cy="48" r="1"/><circle cx="675" cy="90" r="1"/><circle cx="661" cy="48" r="1"/><circle cx="661" cy="90" r="1"/><circle cx="689" cy="48" r="1"/><circle cx="689" cy="90" r="1"/><circle cx="675" cy="76" r="1"/><circle cx="661" cy="76" r="1"/><circle cx="689" cy="76" r="1"/><circle cx="703" cy="20" r="1"/><circle cx="703" cy="6" r="1"/><circle cx="703" cy="34" r="1"/><circle cx="703" cy="62" r="1"/><circle cx="703" cy="48" r="1"/><circle cx="703" cy="90" r="1"/><circle cx="703" cy="76" r="1"/><circle cx="717" cy="20" r="1"/><circle cx="717" cy="6" r="1"/><circle cx="717" cy="34" r="1"/><circle cx="717" cy="62" r="1"/><circle cx="717" cy="48" r="1"/><circle cx="717" cy="90" r="1"/><circle cx="717" cy="76" r="1"/></g><rect width="126" height="35" x="297" y="27.5" fill="#23262f" rx="5.5"/><rect width="126" height="35" x="297" y="27.5" stroke="#888c96" rx="5.5"/><path fill="#fff" d="M314.571 43.145a1.26 1.26 0 0 0-.545-.942q-.475-.337-1.237-.337-.536 0-.919.161a1.36 1.36 0 0 0-.586.439 1.06 1.06 0 0 0-.208.632q0 .296.134.513.138.216.374.37.236.146.521.248.287.102.578.171l.886.222q.536.124 1.029.337.5.212.891.535.397.324.628.78.231.457.231 1.072 0 .83-.425 1.463-.424.628-1.228.983-.798.351-1.934.351-1.103 0-1.916-.342-.807-.341-1.265-.997-.451-.656-.489-1.597h1.685q.037.494.305.822.267.327.697.49.433.16.969.16.56 0 .979-.166.425-.17.665-.47.24-.304.244-.711a.9.9 0 0 0-.217-.61 1.6 1.6 0 0 0-.595-.406 6 6 0 0 0-.887-.295l-1.075-.277q-1.168-.3-1.847-.91-.674-.614-.674-1.63 0-.834.453-1.463a3 3 0 0 1 1.241-.974q.785-.35 1.778-.35 1.007 0 1.763.35.762.345 1.196.965.434.614.448 1.413zm4.901 2.7V50h-1.671v-9.455h1.634v3.569h.083q.25-.6.771-.946.526-.351 1.339-.351.74 0 1.288.31.549.308.85.904.304.596.304 1.454V50h-1.671v-4.256q0-.715-.369-1.113-.365-.402-1.025-.402-.443 0-.794.194-.347.19-.545.55-.194.36-.194.872m8.342 4.298a3 3 0 0 1-1.214-.24 2 2 0 0 1-.849-.72q-.31-.475-.31-1.173 0-.6.222-.992.221-.393.605-.628.383-.236.863-.356a7 7 0 0 1 1.002-.18 40 40 0 0 0 1.011-.115q.387-.055.563-.166.18-.116.18-.356v-.027q0-.522-.309-.808-.31-.286-.891-.286-.615 0-.974.267-.356.268-.48.633l-1.561-.222q.184-.645.61-1.08.425-.439 1.038-.656.615-.22 1.357-.221.513 0 1.021.12t.928.397a2 2 0 0 1 .674.743q.258.47.258 1.177V50h-1.606v-.974h-.056a2.02 2.02 0 0 1-1.117.965 2.8 2.8 0 0 1-.965.152m.434-1.228q.503 0 .873-.198.369-.204.567-.536a1.36 1.36 0 0 0 .204-.725v-.835a.8.8 0 0 1-.268.12q-.185.055-.416.097-.23.04-.457.074l-.392.055q-.373.051-.669.166a1.1 1.1 0 0 0-.467.323.8.8 0 0 0-.171.527q0 .461.337.697t.859.235M333.239 50v-7.09h1.62v1.18h.074q.194-.612.665-.946a1.83 1.83 0 0 1 1.084-.337q.14 0 .31.014.175.01.291.033v1.537a2 2 0 0 0-.337-.065 3 3 0 0 0-.439-.032 1.7 1.7 0 0 0-.822.199 1.46 1.46 0 0 0-.775 1.338V50zm8.001.139q-1.067 0-1.842-.444a3 3 0 0 1-1.186-1.265q-.416-.82-.416-1.934 0-1.095.416-1.92.42-.831 1.172-1.293.753-.466 1.768-.466.656 0 1.238.212.585.208 1.034.646.452.439.711 1.118.258.674.258 1.606v.513h-5.812v-1.127h4.21a1.8 1.8 0 0 0-.208-.854 1.5 1.5 0 0 0-.567-.595 1.6 1.6 0 0 0-.841-.217 1.63 1.63 0 0 0-.9.249q-.387.244-.605.646a1.9 1.9 0 0 0-.217.873v.983q0 .618.227 1.062.225.438.632.674.406.23.951.23.365 0 .66-.1a1.5 1.5 0 0 0 .513-.31q.217-.204.327-.503l1.561.175a2.44 2.44 0 0 1-.563 1.08 2.75 2.75 0 0 1-1.053.711q-.642.25-1.468.25m7.198-.014a2.7 2.7 0 0 1-1.495-.43q-.66-.429-1.044-1.246-.383-.818-.383-1.985 0-1.182.388-1.995.392-.816 1.057-1.232.664-.42 1.482-.42.623 0 1.025.212.402.208.637.503.235.29.365.55h.069v-3.537h1.676V50h-1.644v-1.117h-.101a3 3 0 0 1-.374.55q-.246.285-.647.489-.4.203-1.011.203m.467-1.371q.53 0 .904-.287.375-.29.568-.808a3.4 3.4 0 0 0 .194-1.204q0-.689-.194-1.196a1.7 1.7 0 0 0-.563-.79q-.369-.28-.909-.281-.56 0-.933.29a1.76 1.76 0 0 0-.563.804 3.4 3.4 0 0 0-.189 1.173q0 .664.189 1.186.193.517.568.817.378.296.928.296m10.355 1.39a3 3 0 0 1-1.214-.24 2 2 0 0 1-.849-.721q-.309-.475-.309-1.173 0-.6.221-.992.222-.393.605-.628.383-.236.863-.356a7 7 0 0 1 1.002-.18 40 40 0 0 0 1.011-.115q.388-.055.563-.166.18-.116.18-.356v-.027q0-.522-.309-.808t-.891-.286q-.614 0-.974.267-.356.268-.48.633l-1.561-.222q.186-.645.61-1.08.424-.439 1.039-.656a4 4 0 0 1 1.357-.221q.511 0 1.02.12.508.12.928.397.42.273.674.743.258.47.258 1.177V50h-1.606v-.974h-.055a2 2 0 0 1-.43.554 2.1 2.1 0 0 1-.688.41 2.8 2.8 0 0 1-.965.153m.434-1.229q.504 0 .873-.198.369-.204.568-.536.203-.332.203-.725v-.835a.8.8 0 0 1-.268.12q-.184.055-.415.097a13 13 0 0 1-.457.074l-.393.055q-.374.051-.669.166a1.1 1.1 0 0 0-.466.323.8.8 0 0 0-.171.527q0 .461.337.697t.858.235m8.532-6.006v1.293h-4.077v-1.293zm-3.07-1.699h1.671v6.657q0 .337.101.517a.55.55 0 0 0 .277.24q.17.065.379.065.157 0 .286-.023.134-.024.203-.042l.282 1.307q-.134.045-.383.101a3 3 0 0 1-.6.065 2.7 2.7 0 0 1-1.131-.19 1.76 1.76 0 0 1-.799-.655q-.29-.443-.286-1.108zm8.008 1.7v1.292h-4.076v-1.293zm-3.07-1.7h1.671v6.657q0 .337.102.517a.55.55 0 0 0 .277.24q.171.065.378.065.158 0 .287-.023.134-.024.203-.042l.281 1.307q-.134.045-.383.101a3 3 0 0 1-.6.065 2.7 2.7 0 0 1-1.131-.19 1.76 1.76 0 0 1-.799-.655q-.29-.443-.286-1.108zm4.468 8.79v-7.09h1.62v1.18h.074q.194-.612.665-.946a1.83 1.83 0 0 1 1.085-.337q.138 0 .309.014.175.01.291.033v1.537a1.8 1.8 0 0 0-.337-.065 3 3 0 0 0-.439-.032 1.7 1.7 0 0 0-.821.199q-.361.193-.568.54-.208.346-.208.798V50zm5.154 0v-7.09h1.671V50zm.84-8.097a.98.98 0 0 1-.683-.263.85.85 0 0 1-.286-.642q0-.378.286-.642a.97.97 0 0 1 .683-.268q.402 0 .684.268.285.264.286.642a.85.85 0 0 1-.286.642.97.97 0 0 1-.684.263M383.18 50v-9.455h1.671v3.537h.069q.13-.26.365-.55.235-.295.637-.503.401-.213 1.025-.212.82 0 1.482.42.665.416 1.052 1.232.392.813.392 1.995 0 1.167-.383 1.985-.383.817-1.043 1.246t-1.496.43q-.609 0-1.011-.203a2.1 2.1 0 0 1-.646-.49 3 3 0 0 1-.374-.55h-.097V50zm1.638-3.545q0 .688.194 1.204.2.517.568.808.374.287.905.287.554 0 .928-.296.374-.3.563-.817.194-.522.194-1.186 0-.66-.189-1.173a1.76 1.76 0 0 0-.563-.803q-.375-.291-.933-.291-.536 0-.909.281-.375.282-.568.79-.19.507-.19 1.196m10.996.563v-4.109h1.671V50h-1.62v-1.26h-.074q-.24.595-.79.974-.545.378-1.343.378a2.4 2.4 0 0 1-1.233-.309 2.15 2.15 0 0 1-.831-.91q-.3-.6-.3-1.449v-4.515h1.671v4.257q0 .674.37 1.07.369.398.969.398.37 0 .716-.18.346-.181.568-.536.225-.36.226-.9m6.93-4.109v1.293h-4.076v-1.293zm-3.07-1.699h1.671v6.657q0 .337.102.517a.55.55 0 0 0 .277.24q.17.065.379.065.156 0 .286-.023.134-.024.203-.042l.281 1.307q-.133.045-.383.101a3 3 0 0 1-.6.065 2.7 2.7 0 0 1-1.131-.19 1.76 1.76 0 0 1-.799-.655q-.29-.443-.286-1.108zm7.531 8.929q-1.067 0-1.842-.444a3 3 0 0 1-1.187-1.265q-.415-.82-.415-1.934 0-1.095.415-1.92a3.15 3.15 0 0 1 1.173-1.293q.753-.466 1.768-.466.656 0 1.237.212a2.8 2.8 0 0 1 1.034.646q.453.439.711 1.118.26.674.259 1.606v.513h-5.812v-1.127h4.21a1.8 1.8 0 0 0-.208-.854 1.5 1.5 0 0 0-.568-.595 1.6 1.6 0 0 0-.84-.217 1.63 1.63 0 0 0-.9.249q-.387.244-.605.646a1.87 1.87 0 0 0-.217.873v.983q0 .618.227 1.062.225.438.632.674.406.23.951.23.364 0 .66-.1a1.5 1.5 0 0 0 .513-.31q.216-.204.327-.503l1.561.175a2.44 2.44 0 0 1-.564 1.08 2.7 2.7 0 0 1-1.052.711q-.642.25-1.468.25"/><rect width="120.721" height="54.721" x="14.639" y="17.639" fill="#4e4022" rx="9.59"/><rect width="120.721" height="54.721" x="14.639" y="17.639" stroke="#eebd53" stroke-width="1.279" rx="9.59"/><rect width="30.689" height="30.689" x="26.787" y="29.787" fill="#f9e8c3" rx="3.836"/><path fill="#4e4022" d="M48.844 42.254a.96.96 0 0 1-.959.96h-1.918a.96.96 0 0 1-.959-.96h-.959v9.59h5.754v-9.59zM34.46 38.418v11.508h7.672v-7.672a1.92 1.92 0 0 1 1.918-1.918h2.877v-1.918zm14.385 1.918h.96a1.92 1.92 0 0 1 1.917 1.918v9.59a1.92 1.92 0 0 1-1.918 1.918H44.05a1.92 1.92 0 0 1-1.918-1.918H34.46a1.92 1.92 0 0 1-1.918-1.918V38.418a1.92 1.92 0 0 1 1.918-1.918h12.467a1.92 1.92 0 0 1 1.918 1.918z"/><path fill="#fff" d="M66.659 49.631h-3.151v-9.3h3.214q1.386 0 2.38.56.999.553 1.535 1.593t.535 2.488q0 1.453-.54 2.498a3.74 3.74 0 0 1-1.548 1.603q-1.008.558-2.425.558m-1.467-1.458h1.385q.972 0 1.621-.354.65-.359.977-1.067.326-.712.326-1.78 0-1.067-.327-1.77a2.23 2.23 0 0 0-.967-1.059q-.635-.354-1.58-.354h-1.435zm10.596 1.594q-1.05 0-1.812-.436a2.95 2.95 0 0 1-1.167-1.244q-.408-.809-.408-1.902 0-1.077.408-1.89a3.1 3.1 0 0 1 1.154-1.27q.74-.46 1.739-.46.644 0 1.217.21a2.75 2.75 0 0 1 1.017.635q.445.432.7 1.1.254.662.254 1.58v.503h-5.717v-1.108h4.14a1.8 1.8 0 0 0-.204-.84 1.5 1.5 0 0 0-.558-.586 1.57 1.57 0 0 0-.826-.213q-.505 0-.886.245a1.7 1.7 0 0 0-.595.636q-.209.39-.213.858v.967q0 .609.222 1.045.223.43.623.663.4.227.935.227.358 0 .65-.1a1.4 1.4 0 0 0 .503-.304q.213-.2.323-.495l1.534.172q-.144.609-.554 1.063a2.7 2.7 0 0 1-1.035.7q-.63.244-1.444.244m10.522-7.11-2.484 6.974H82.01l-2.484-6.975h1.753l1.603 5.182h.073l1.607-5.182zm1.138 6.974v-6.975h1.644v6.975zm.826-7.965a.96.96 0 0 1-.672-.258.83.83 0 0 1-.281-.632q0-.372.281-.63a.95.95 0 0 1 .672-.264.94.94 0 0 1 .672.263.83.83 0 0 1 .282.631.84.84 0 0 1-.282.632.95.95 0 0 1-.672.258m5.55 8.101q-1.044 0-1.793-.458a3.06 3.06 0 0 1-1.15-1.267q-.399-.813-.399-1.871 0-1.063.409-1.875a3.05 3.05 0 0 1 1.153-1.272q.75-.459 1.771-.458.849 0 1.503.313.66.309 1.05.876.39.564.444 1.317h-1.571a1.5 1.5 0 0 0-.454-.84q-.354-.34-.95-.34-.502 0-.885.272a1.75 1.75 0 0 0-.594.772q-.21.504-.21 1.208 0 .713.21 1.226.209.508.585.785.382.273.895.273.363 0 .65-.136.29-.141.485-.405.195-.263.268-.64h1.571a2.74 2.74 0 0 1-.436 1.313 2.6 2.6 0 0 1-1.026.89q-.649.317-1.526.317m7.426 0q-1.05 0-1.812-.436a2.95 2.95 0 0 1-1.167-1.244q-.41-.809-.409-1.902 0-1.077.409-1.89.413-.817 1.153-1.27.74-.46 1.739-.46.645 0 1.217.21a2.74 2.74 0 0 1 1.017.635q.445.432.7 1.1.254.662.254 1.58v.503h-5.717v-1.108h4.141a1.8 1.8 0 0 0-.204-.84 1.5 1.5 0 0 0-.559-.586 1.57 1.57 0 0 0-.826-.213 1.6 1.6 0 0 0-.885.245q-.382.24-.595.636-.209.39-.214.858v.967q0 .609.223 1.045.222.43.622.663.4.227.935.227.359 0 .65-.1.29-.105.504-.304.213-.2.322-.495l1.535.172q-.146.609-.554 1.063-.405.45-1.035.7-.632.244-1.444.244"/><rect width="120.721" height="54.721" x="584.639" y="17.639" fill="#17264f" rx="9.59"/><rect width="120.721" height="54.721" x="584.639" y="17.639" stroke="#3369ff" stroke-width="1.279" rx="9.59"/><rect width="30.689" height="30.689" x="596.787" y="29.787" fill="#b3c7ff" rx="3.836"/><path fill="#17264f" d="M611.599 35.541c-1.7 0-3.291.475-4.652 1.291a2.2 2.2 0 0 0-1.382-.491c-1.208 0-2.199.99-2.199 2.198a2.2 2.2 0 0 0 .486 1.375 9 9 0 0 0-1.311 4.685.523.523 0 0 0 .525.532.524.524 0 0 0 .526-.532c0-1.48.403-2.862 1.101-4.05.274.119.568.189.871.19 1.208 0 2.199-.991 2.199-2.2 0-.3-.068-.59-.185-.863a7.96 7.96 0 0 1 4.021-1.084.52.52 0 0 0 .492-.323.54.54 0 0 0 0-.405.54.54 0 0 0-.289-.285.5.5 0 0 0-.203-.038m-6.035 1.85c.355 0 .671.151.89.425l.01.013c.161.202.248.452.248.71a1.14 1.14 0 0 1-1.147 1.148 1.15 1.15 0 0 1-.719-.255 1.15 1.15 0 0 1-.429-.893c0-.64.507-1.147 1.147-1.147"/><path fill="#17264f" fill-rule="evenodd" d="M606.554 41.704a.5.5 0 0 0-.135.364c.006.123.055.24.14.33.408.412 1.212 1.213 1.212 1.213l.71-.71-1.209-1.208a.5.5 0 0 0-.361-.14.5.5 0 0 0-.357.151m1.927 1.198-2.196 2.196a.61.61 0 0 0 0 .863l1.088 1.088 1.903 1.903 1.827 1.827a.61.61 0 0 0 .863 0l1.486-1.486 2.273-2.272 2.196-2.197a.61.61 0 0 0 0-.862l-1.117-1.117-1.903-1.903-1.799-1.799a.61.61 0 0 0-.863 0l-1.485 1.486zm2.273-2.273-1.21-1.209a.5.5 0 0 0-.36-.139.49.49 0 0 0-.493.514.52.52 0 0 0 .14.331c.408.411 1.213 1.212 1.213 1.212zm4.147.313 1.209-1.21a.5.5 0 0 0 .139-.36.49.49 0 0 0-.514-.492.52.52 0 0 0-.331.14c-.411.407-1.212 1.212-1.212 1.212zm1.903 1.903 1.209-1.21a.5.5 0 0 0 .139-.36.49.49 0 0 0-.514-.492.52.52 0 0 0-.331.14c-.411.408-1.212 1.212-1.212 1.212zm-1.079 4.176 1.209 1.209a.5.5 0 0 0 .36.139.49.49 0 0 0 .493-.515.52.52 0 0 0-.14-.33c-.408-.411-1.212-1.212-1.212-1.212zm-2.273 2.272 1.21 1.21a.5.5 0 0 0 .36.138.49.49 0 0 0 .492-.514.5.5 0 0 0-.14-.33c-.408-.412-1.212-1.213-1.212-1.213zm-4.176-.34-1.209 1.209a.5.5 0 0 0-.139.36.49.49 0 0 0 .515.493.5.5 0 0 0 .33-.14c.411-.408 1.212-1.213 1.212-1.213zm-1.903-1.904-1.209 1.21a.5.5 0 0 0-.139.36.49.49 0 0 0 .514.492.52.52 0 0 0 .331-.14c.411-.407 1.212-1.212 1.212-1.212zm5.229-5.428a.52.52 0 0 1 .377-.157c.1.002.195.033.274.09l.989.726a.48.48 0 0 1 .133.618.52.52 0 0 1-.596.265l.367 1.435a.52.52 0 0 1-.359.619l-2.675.817.494 1.91a.52.52 0 0 1-.357.624.47.47 0 0 1-.603-.33l-.617-2.383a.523.523 0 0 1 .358-.62l2.677-.817-.247-.966a.505.505 0 0 1-.634.105.476.476 0 0 1-.179-.602l.486-1.166a.5.5 0 0 1 .112-.168" clip-rule="evenodd"/><path fill="#17264f" d="M612.663 54.721c1.7 0 3.292-.474 4.652-1.29.388.315.875.49 1.383.49 1.208 0 2.198-.99 2.198-2.198 0-.505-.175-.989-.485-1.375a9 9 0 0 0 1.31-4.685.523.523 0 0 0-.525-.532.53.53 0 0 0-.487.329.5.5 0 0 0-.038.203c0 1.48-.403 2.862-1.102 4.05a2.2 2.2 0 0 0-.87-.189c-1.208 0-2.2.99-2.2 2.199 0 .3.069.591.185.863a7.96 7.96 0 0 1-4.021 1.084.52.52 0 0 0-.491.323.52.52 0 0 0 .288.69q.097.04.203.038m6.035-1.85c-.354 0-.671-.15-.889-.424l-.011-.013a1.148 1.148 0 0 1 1.619-1.604c.27.218.428.546.429.893a1.14 1.14 0 0 1-1.148 1.148"/><path fill="#fff" d="M633.508 49.631v-9.3h3.487q1.072 0 1.798.4.73.4 1.103 1.099.377.695.377 1.58 0 .895-.377 1.59a2.7 2.7 0 0 1-1.112 1.094q-.735.395-1.812.395h-2.311v-1.385h2.084q.627 0 1.026-.218.4-.217.591-.6.195-.381.195-.876 0-.494-.195-.872a1.33 1.33 0 0 0-.595-.585q-.4-.214-1.031-.214h-1.544v7.892zm9.8-9.3v9.3h-1.644v-9.3zm3.697 9.44q-.663 0-1.194-.235a1.95 1.95 0 0 1-.836-.709q-.303-.467-.304-1.153 0-.59.218-.976t.595-.618q.376-.23.849-.35.477-.122.985-.176.614-.064.995-.114.381-.054.554-.163.177-.114.177-.35V44.9q0-.514-.304-.795t-.877-.282q-.604 0-.958.264-.35.263-.472.622l-1.535-.218q.182-.636.6-1.063a2.6 2.6 0 0 1 1.021-.644 3.9 3.9 0 0 1 1.335-.218q.504 0 1.004.118t.912.39q.414.268.663.731.255.463.255 1.158v4.668h-1.581v-.958h-.054a2 2 0 0 1-.422.545 2 2 0 0 1-.677.404q-.404.15-.949.15m.427-1.207q.495 0 .858-.195.363-.2.559-.527.2-.327.199-.713v-.822a.8.8 0 0 1-.263.118 4 4 0 0 1-.409.096q-.227.04-.449.072l-.386.055a3 3 0 0 0-.659.163 1.1 1.1 0 0 0-.458.318.78.78 0 0 0-.168.518q0 .454.331.685.332.232.845.232m8.391-5.908v1.272h-4.009v-1.272zm-3.019-1.67h1.643v6.547q0 .331.1.509.105.173.273.236t.372.064q.154 0 .282-.023.131-.023.199-.041l.277 1.285q-.131.045-.376.1a3 3 0 0 1-.591.064 2.7 2.7 0 0 1-1.112-.187 1.73 1.73 0 0 1-.786-.645q-.285-.435-.281-1.09zm7.927 1.67v1.272h-4.123v-1.272zm-3.092 6.975v-7.633q0-.705.29-1.171a1.84 1.84 0 0 1 .79-.7 2.6 2.6 0 0 1 1.099-.231q.427 0 .758.068.332.068.491.122l-.327 1.272a3 3 0 0 0-.263-.064 1.6 1.6 0 0 0-.355-.036q-.458 0-.649.222-.186.219-.186.627v7.524zm7.159.136q-1.021 0-1.771-.45a3.05 3.05 0 0 1-1.162-1.257q-.41-.809-.409-1.889 0-1.08.409-1.893a3.05 3.05 0 0 1 1.162-1.263q.75-.45 1.771-.45 1.022 0 1.771.45.75.45 1.158 1.263.413.811.413 1.893 0 1.08-.413 1.889a3 3 0 0 1-1.158 1.258q-.749.45-1.771.45m.009-1.317q.554.001.927-.304.372-.309.554-.826.186-.518.186-1.154 0-.64-.186-1.157a1.83 1.83 0 0 0-.554-.831q-.373-.31-.927-.31-.567 0-.944.31a1.87 1.87 0 0 0-.559.83 3.5 3.5 0 0 0-.181 1.158q0 .636.181 1.154.187.517.559.826.377.304.944.304m4.728 1.181v-6.975h1.594v1.163h.073q.19-.604.654-.931a1.8 1.8 0 0 1 1.067-.331q.136 0 .304.013.172.01.286.032v1.512a1.7 1.7 0 0 0-.331-.063 3 3 0 0 0-.432-.032q-.449 0-.808.195a1.43 1.43 0 0 0-.558.531 1.5 1.5 0 0 0-.205.786v4.1zm5.07 0v-6.975h1.571v1.186h.082q.218-.6.722-.936.504-.34 1.203-.34.71 0 1.195.345.49.34.69.93h.072a1.9 1.9 0 0 1 .781-.926q.554-.35 1.313-.35.962 0 1.571.61.608.608.608 1.775v4.681h-1.648v-4.427q0-.65-.345-.95a1.23 1.23 0 0 0-.845-.303q-.594 0-.931.372-.331.368-.331.958v4.35h-1.612v-4.495q0-.54-.327-.863-.322-.322-.845-.322-.354 0-.644.181a1.26 1.26 0 0 0-.463.504 1.56 1.56 0 0 0-.173.754v4.241z"/><path fill="#888c96" d="M138.72 44.47a.75.75 0 0 0 0 1.06l4.773 4.773a.75.75 0 1 0 1.06-1.06L140.311 45l4.242-4.243a.75.75 0 0 0-1.06-1.06zm42.879 1.28a.75.75 0 0 0 0-1.5v1.5m66.875-1.5a.75.75 0 1 0 0 1.5v-1.5m44.776 1.5a.75.75 0 0 0 0-1.5v1.5m-154-.75v.75h42.349v-1.5H139.25zm109.224 0v.75h44.776v-1.5h-44.776z"/><path fill="#edeef3" d="M188.322 49v-8.727h3.111q1.014 0 1.683.35.674.349 1.005.967.333.614.333 1.418 0 .802-.337 1.411a2.27 2.27 0 0 1-1.005.942q-.67.336-1.684.336h-2.356v-1.133h2.237q.64 0 1.04-.183.405-.184.592-.533.188-.35.188-.84 0-.493-.192-.856a1.24 1.24 0 0 0-.593-.554q-.4-.195-1.052-.196h-1.653V49zm4.308-3.937L194.786 49h-1.5l-2.113-3.937zm5.931 4.07q-.967 0-1.666-.414a2.8 2.8 0 0 1-1.074-1.172q-.375-.759-.375-1.777 0-1.006.375-1.773.38-.766 1.057-1.197.681-.43 1.593-.43.555 0 1.074.183.52.183.933.575t.652 1.018q.24.623.239 1.513v.452h-5.203v-.955h3.955q0-.503-.205-.89a1.55 1.55 0 0 0-.575-.618 1.6 1.6 0 0 0-.861-.226q-.537 0-.938.264-.396.26-.613.682a2 2 0 0 0-.213.908v.745q0 .657.23 1.117.234.46.652.703.417.239.976.239.361 0 .66-.103a1.37 1.37 0 0 0 .848-.831l1.206.218q-.145.533-.52.933-.37.396-.933.618a3.5 3.5 0 0 1-1.274.217m5.995.012q-.623 0-1.125-.23a1.9 1.9 0 0 1-.797-.678q-.29-.442-.29-1.086 0-.555.213-.912.213-.358.575-.567a3 3 0 0 1 .81-.316q.447-.106.912-.161l.954-.111q.367-.046.533-.15.166-.1.166-.332v-.03q0-.558-.315-.865-.31-.306-.929-.306-.644 0-1.014.285-.367.281-.507.627l-1.198-.273a2.3 2.3 0 0 1 .622-.963q.414-.37.951-.537.537-.17 1.129-.17.392 0 .831.093.443.09.827.332.387.243.635.695.246.447.247 1.163V49h-1.245v-.895h-.051a1.8 1.8 0 0 1-.37.486q-.248.238-.635.396a2.5 2.5 0 0 1-.929.158m.277-1.023q.528 0 .903-.209.38-.208.575-.545.201-.34.201-.729v-.844a.7.7 0 0 1-.265.128q-.191.056-.439.098-.246.039-.481.073l-.392.05a3.2 3.2 0 0 0-.678.159q-.302.11-.485.32-.18.204-.179.545 0 .473.349.715.35.24.891.24m6.968 1.006q-.792 0-1.415-.405-.617-.409-.971-1.163-.35-.76-.35-1.82t.354-1.815q.358-.754.98-1.155a2.55 2.55 0 0 1 1.411-.4q.61 0 .98.204.375.2.579.469.21.268.324.473h.077v-3.243h1.274V49H213.8v-1.019h-.107q-.115.21-.332.478a1.85 1.85 0 0 1-.588.469q-.375.2-.972.2m.281-1.087q.55 0 .929-.29.384-.294.58-.813.2-.52.2-1.21 0-.683-.196-1.194a1.75 1.75 0 0 0-.575-.797q-.379-.285-.938-.285-.575 0-.958.298-.384.298-.58.814a3.3 3.3 0 0 0-.192 1.163q0 .657.196 1.18.196.525.58.832.388.302.954.302m10.449 1.091q-.92 0-1.606-.422a2.84 2.84 0 0 1-1.065-1.18q-.38-.759-.38-1.773 0-1.019.38-1.781a2.84 2.84 0 0 1 1.065-1.185q.686-.422 1.606-.422.921 0 1.607.422t1.065 1.185q.38.762.38 1.781 0 1.014-.38 1.773t-1.065 1.18q-.686.422-1.607.422m.005-1.07q.596 0 .988-.315.393-.315.58-.84.192-.524.192-1.154 0-.627-.192-1.15a1.87 1.87 0 0 0-.58-.849q-.392-.32-.988-.32-.601 0-.997.32a1.9 1.9 0 0 0-.584.848q-.188.525-.188 1.15 0 .631.188 1.156.191.524.584.84.396.315.997.315m5.611-2.948V49h-1.274v-6.545h1.223v1.065h.081q.225-.52.707-.835.486-.316 1.223-.316.67 0 1.172.282.502.276.78.826.277.55.277 1.36V49h-1.274v-4.01q0-.711-.371-1.112-.371-.405-1.018-.405-.444 0-.789.192a1.4 1.4 0 0 0-.541.562q-.196.367-.196.887m7.04-4.841V49h-1.274v-8.727zm2.387 11.182q-.285 0-.52-.047a1.6 1.6 0 0 1-.349-.094l.307-1.044q.35.094.622.08a.75.75 0 0 0 .482-.204q.213-.19.375-.626l.157-.435-2.395-6.63h1.364l1.658 5.08h.068l1.657-5.08h1.368l-2.697 7.419q-.187.51-.477.865a1.86 1.86 0 0 1-.691.537q-.4.178-.929.178"/><path fill="#3369ff" d="M581.28 45.53a.75.75 0 0 0 0-1.06l-4.773-4.773a.75.75 0 1 0-1.06 1.06L579.689 45l-4.242 4.243a.75.75 0 0 0 1.06 1.06zm-39.379-1.28a.75.75 0 0 0 0 1.5v-1.5m-73.875 1.5a.75.75 0 1 0 0-1.5v1.5m-41.806-1.28a.75.75 0 0 0 0 1.06l4.773 4.773a.75.75 0 1 0 1.06-1.06L427.811 45l4.242-4.243a.75.75 0 0 0-1.06-1.06zm154.53.53v-.75h-38.849v1.5h38.849zm-112.724 0v-.75H426.75v1.5h41.276z"/><path fill="#edeef3" d="M474.601 49v-8.727h3.11q1.015 0 1.684.35.673.349 1.005.967.333.614.333 1.418 0 .802-.337 1.411a2.26 2.26 0 0 1-1.006.942q-.669.336-1.683.336h-2.356v-1.133h2.237q.64 0 1.04-.183.405-.184.592-.533t.187-.84q0-.493-.191-.856a1.24 1.24 0 0 0-.593-.554q-.4-.195-1.052-.196h-1.654V49zm4.308-3.937L481.065 49h-1.5l-2.113-3.937zm5.931 4.07q-.968 0-1.666-.414a2.8 2.8 0 0 1-1.074-1.172q-.375-.759-.375-1.777 0-1.006.375-1.773.38-.766 1.057-1.197.681-.43 1.593-.43.555 0 1.074.183.52.183.933.575t.652 1.018q.239.623.239 1.513v.452h-5.203v-.955h3.954q0-.503-.204-.89a1.55 1.55 0 0 0-.575-.618 1.6 1.6 0 0 0-.861-.226q-.537 0-.938.264-.396.26-.613.682a2 2 0 0 0-.213.908v.745q0 .657.23 1.117.234.46.652.703.417.239.976.239.361 0 .66-.103a1.37 1.37 0 0 0 .848-.831l1.206.218q-.145.533-.52.933-.37.396-.933.618a3.5 3.5 0 0 1-1.274.217m5.995.012q-.623 0-1.125-.23a1.9 1.9 0 0 1-.797-.678q-.29-.442-.29-1.086 0-.555.213-.912.213-.358.575-.567a3 3 0 0 1 .81-.316q.447-.106.912-.161l.954-.111q.367-.046.533-.15.166-.1.166-.332v-.03q0-.558-.315-.865-.31-.306-.929-.306-.644 0-1.014.285-.367.281-.507.627l-1.198-.273a2.3 2.3 0 0 1 .622-.963q.414-.37.951-.537.537-.17 1.129-.17.391 0 .831.093.443.09.827.332.387.243.634.695.248.447.248 1.163V49h-1.245v-.895h-.051a1.8 1.8 0 0 1-.371.486q-.246.238-.634.396a2.5 2.5 0 0 1-.929.158m.277-1.023q.528 0 .903-.209.38-.208.575-.545.2-.34.2-.729v-.844q-.067.069-.264.128-.192.056-.439.098-.246.039-.481.073l-.392.05a3.2 3.2 0 0 0-.678.159q-.302.11-.486.32-.179.204-.179.545 0 .473.35.715.35.24.891.24m6.968 1.006q-.792 0-1.415-.405-.618-.409-.971-1.163-.35-.76-.35-1.82t.354-1.815q.358-.754.98-1.155a2.55 2.55 0 0 1 1.411-.4q.609 0 .98.204.375.2.579.469.209.268.324.473h.077v-3.243h1.274V49h-1.244v-1.019h-.107q-.115.21-.332.478a1.85 1.85 0 0 1-.588.469q-.375.2-.972.2m.281-1.087q.55 0 .929-.29.384-.294.58-.813.2-.52.2-1.21 0-.683-.196-1.194a1.75 1.75 0 0 0-.575-.797q-.38-.285-.938-.285-.575 0-.959.298a1.83 1.83 0 0 0-.579.814 3.3 3.3 0 0 0-.192 1.163q0 .657.196 1.18.196.525.58.832.387.302.954.302m7.972-8.177-2.812 10.449h-1.138l2.813-10.45zM509.13 49l-2.421-8.727h1.385l1.701 6.758h.081l1.768-6.758h1.372l1.769 6.762h.081l1.696-6.762h1.389L515.526 49h-1.325l-1.837-6.537h-.068L510.459 49zm9.377 0v-6.545h1.232v1.04h.068q.178-.53.631-.832a1.8 1.8 0 0 1 1.031-.306 6 6 0 0 1 .541.03v1.218a2 2 0 0 0-.273-.047q-.195-.03-.392-.03-.451 0-.805.192a1.42 1.42 0 0 0-.759 1.283V49zm4.474 0v-6.545h1.274V49zm.643-7.555a.8.8 0 0 1-.571-.222.72.72 0 0 1-.234-.537q0-.316.234-.537a.8.8 0 0 1 .571-.226q.333 0 .567.226a.7.7 0 0 1 .238.537.71.71 0 0 1-.238.537.8.8 0 0 1-.567.222m5.268 1.01v1.022h-3.575v-1.022zm-2.616-1.569h1.274v6.192q0 .37.111.558a.58.58 0 0 0 .285.252q.18.064.388.064.153 0 .269-.022l.179-.034.23 1.053a2 2 0 0 1-.316.085 2.5 2.5 0 0 1-.511.051 2.25 2.25 0 0 1-.938-.179 1.6 1.6 0 0 1-.703-.58q-.268-.39-.268-.984zm6.644 8.246q-.966 0-1.666-.413a2.8 2.8 0 0 1-1.074-1.172q-.375-.759-.375-1.777 0-1.006.375-1.773.38-.766 1.057-1.197.682-.43 1.594-.43.554 0 1.074.183a2.6 2.6 0 0 1 .933.575q.414.391.652 1.018.239.623.239 1.513v.452h-5.203v-.955h3.954q0-.503-.204-.89a1.55 1.55 0 0 0-.576-.618 1.6 1.6 0 0 0-.86-.226q-.537 0-.938.264-.396.26-.614.682a2 2 0 0 0-.213.908v.745q0 .657.23 1.117.235.46.652.703.418.239.976.239.363 0 .661-.103.299-.106.515-.315.218-.21.333-.516l1.206.218q-.145.533-.52.933-.37.396-.933.618a3.5 3.5 0 0 1-1.275.217"/></g><defs><clipPath id="a"><path fill="#fff" d="M0 0h720v90H0z"/></clipPath><clipPath id="b"><path fill="#fff" d="M-12 5h730v646H-12z"/></clipPath></defs></svg>