<svg xmlns="http://www.w3.org/2000/svg" width="720" height="114" fill="none"><g clip-path="url(#a)"><path fill="#17181c" d="M0 0h720v114H0z"/><g fill="#353841" clip-path="url(#b)" opacity=".5"><path d="M-11 317a1 1 0 1 1 0 2 1 1 0 0 1 0-2M3 317a1 1 0 1 1 0 2 1 1 0 0 1 0-2M17 317a1 1 0 1 1 0 2 1 1 0 0 1 0-2M31 317a1 1 0 1 1 0 2 1 1 0 0 1 0-2M45 317a1 1 0 1 1 0 2 1 1 0 0 1 0-2M59 317a1 1 0 1 1 0 2 1 1 0 0 1 0-2M73 317a1 1 0 1 1 0 2 1 1 0 0 1 0-2M87 317a1 1 0 1 1 0 2 1 1 0 0 1 0-2M101 317a1 1 0 1 1 0 2 1 1 0 0 1 0-2M115 317a1 1 0 1 1 0 2 1 1 0 0 1 0-2M129 317a1 1 0 1 1 0 2 1 1 0 0 1 0-2M143 317a1 1 0 1 1 0 2 1 1 0 0 1 0-2M157 317a1 1 0 1 1 0 2 1 1 0 0 1 0-2M171 317a1 1 0 1 1 0 2 1 1 0 0 1 0-2M185 317a1 1 0 1 1 0 2 1 1 0 0 1 0-2M199 317a1 1 0 1 1 0 2 1 1 0 0 1 0-2M213 317a1 1 0 1 1 0 2 1 1 0 0 1 0-2M227 317a1 1 0 1 1 0 2 1 1 0 0 1 0-2M241 317a1 1 0 1 1 0 2 1 1 0 0 1 0-2M255 317a1 1 0 1 1 0 2 1 1 0 0 1 0-2M269 317a1 1 0 1 1 0 2 1 1 0 0 1 0-2M283 317a1 1 0 1 1 0 2 1 1 0 0 1 0-2M297 317a1 1 0 1 1 0 2 1 1 0 0 1 0-2M311 317a1 1 0 1 1 0 2 1 1 0 0 1 0-2M325 317a1 1 0 1 1 0 2 1 1 0 0 1 0-2M339 317a1 1 0 1 1 0 2 1 1 0 0 1 0-2M353 317a1 1 0 1 1 0 2 1 1 0 0 1 0-2M367 317a1 1 0 1 1 0 2 1 1 0 0 1 0-2M381 317a1 1 0 1 1 0 2 1 1 0 0 1 0-2M395 317a1 1 0 1 1 0 2 1 1 0 0 1 0-2M409 317a1 1 0 1 1 0 2 1 1 0 0 1 0-2M423 317a1 1 0 1 1 0 2 1 1 0 0 1 0-2M437 317a1 1 0 1 1 0 2 1 1 0 0 1 0-2M451 317a1 1 0 1 1 0 2 1 1 0 0 1 0-2M465 317a1 1 0 1 1 0 2 1 1 0 0 1 0-2M479 317a1 1 0 1 1 0 2 1 1 0 0 1 0-2M493 317a1 1 0 1 1 0 2 1 1 0 0 1 0-2M507 317a1 1 0 1 1 0 2 1 1 0 0 1 0-2M521 317a1 1 0 1 1 0 2 1 1 0 0 1 0-2M535 317a1 1 0 1 1 0 2 1 1 0 0 1 0-2M549 317a1 1 0 1 1 0 2 1 1 0 0 1 0-2M563 317a1 1 0 1 1 0 2 1 1 0 0 1 0-2M577 317a1 1 0 1 1 0 2 1 1 0 0 1 0-2M591 317a1 1 0 1 1 0 2 1 1 0 0 1 0-2M605 317a1 1 0 1 1 0 2 1 1 0 0 1 0-2M619 317a1 1 0 1 1 0 2 1 1 0 0 1 0-2M633 317a1 1 0 1 1 0 2 1 1 0 0 1 0-2M647 317a1 1 0 1 1 0 2 1 1 0 0 1 0-2M661 317a1 1 0 1 1 0 2 1 1 0 0 1 0-2M675 317a1 1 0 1 1 0 2 1 1 0 0 1 0-2M689 317a1 1 0 1 1 0 2 1 1 0 0 1 0-2M703 317a1 1 0 1 1 0 2 1 1 0 0 1 0-2M-11 303a1 1 0 1 1 0 2 1 1 0 0 1 0-2M3 303a1 1 0 1 1 0 2 1 1 0 0 1 0-2M17 303a1 1 0 1 1 0 2 1 1 0 0 1 0-2M31 303a1 1 0 1 1 0 2 1 1 0 0 1 0-2M45 303a1 1 0 1 1 0 2 1 1 0 0 1 0-2M59 303a1 1 0 1 1 0 2 1 1 0 0 1 0-2M73 303a1 1 0 1 1 0 2 1 1 0 0 1 0-2M87 303a1 1 0 1 1 0 2 1 1 0 0 1 0-2M101 303a1 1 0 1 1 0 2 1 1 0 0 1 0-2M115 303a1 1 0 1 1 0 2 1 1 0 0 1 0-2M129 303a1 1 0 1 1 0 2 1 1 0 0 1 0-2M143 303a1 1 0 1 1 0 2 1 1 0 0 1 0-2M157 303a1 1 0 1 1 0 2 1 1 0 0 1 0-2M171 303a1 1 0 1 1 0 2 1 1 0 0 1 0-2M185 303a1 1 0 1 1 0 2 1 1 0 0 1 0-2M199 303a1 1 0 1 1 0 2 1 1 0 0 1 0-2M213 303a1 1 0 1 1 0 2 1 1 0 0 1 0-2M227 303a1 1 0 1 1 0 2 1 1 0 0 1 0-2M241 303a1 1 0 1 1 0 2 1 1 0 0 1 0-2M255 303a1 1 0 1 1 0 2 1 1 0 0 1 0-2M269 303a1 1 0 1 1 0 2 1 1 0 0 1 0-2M283 303a1 1 0 1 1 0 2 1 1 0 0 1 0-2M297 303a1 1 0 1 1 0 2 1 1 0 0 1 0-2M311 303a1 1 0 1 1 0 2 1 1 0 0 1 0-2M325 303a1 1 0 1 1 0 2 1 1 0 0 1 0-2M339 303a1 1 0 1 1 0 2 1 1 0 0 1 0-2M353 303a1 1 0 1 1 0 2 1 1 0 0 1 0-2M367 303a1 1 0 1 1 0 2 1 1 0 0 1 0-2M381 303a1 1 0 1 1 0 2 1 1 0 0 1 0-2M395 303a1 1 0 1 1 0 2 1 1 0 0 1 0-2M409 303a1 1 0 1 1 0 2 1 1 0 0 1 0-2M423 303a1 1 0 1 1 0 2 1 1 0 0 1 0-2M437 303a1 1 0 1 1 0 2 1 1 0 0 1 0-2M451 303a1 1 0 1 1 0 2 1 1 0 0 1 0-2M465 303a1 1 0 1 1 0 2 1 1 0 0 1 0-2M479 303a1 1 0 1 1 0 2 1 1 0 0 1 0-2M493 303a1 1 0 1 1 0 2 1 1 0 0 1 0-2M507 303a1 1 0 1 1 0 2 1 1 0 0 1 0-2M521 303a1 1 0 1 1 0 2 1 1 0 0 1 0-2M535 303a1 1 0 1 1 0 2 1 1 0 0 1 0-2M549 303a1 1 0 1 1 0 2 1 1 0 0 1 0-2M563 303a1 1 0 1 1 0 2 1 1 0 0 1 0-2M577 303a1 1 0 1 1 0 2 1 1 0 0 1 0-2M591 303a1 1 0 1 1 0 2 1 1 0 0 1 0-2M605 303a1 1 0 1 1 0 2 1 1 0 0 1 0-2M619 303a1 1 0 1 1 0 2 1 1 0 0 1 0-2M633 303a1 1 0 1 1 0 2 1 1 0 0 1 0-2M647 303a1 1 0 1 1 0 2 1 1 0 0 1 0-2M661 303a1 1 0 1 1 0 2 1 1 0 0 1 0-2M675 303a1 1 0 1 1 0 2 1 1 0 0 1 0-2M689 303a1 1 0 1 1 0 2 1 1 0 0 1 0-2M703 303a1 1 0 1 1 0 2 1 1 0 0 1 0-2M717 303a1 1 0 1 1 0 2 1 1 0 0 1 0-2M-11 289a1 1 0 1 1 0 2 1 1 0 0 1 0-2M3 289a1 1 0 1 1 0 2 1 1 0 0 1 0-2M17 289a1 1 0 1 1 0 2 1 1 0 0 1 0-2M31 289a1 1 0 1 1 0 2 1 1 0 0 1 0-2M45 289a1 1 0 1 1 0 2 1 1 0 0 1 0-2M59 289a1 1 0 1 1 0 2 1 1 0 0 1 0-2M73 289a1 1 0 1 1 0 2 1 1 0 0 1 0-2M87 289a1 1 0 1 1 0 2 1 1 0 0 1 0-2M101 289a1 1 0 1 1 0 2 1 1 0 0 1 0-2M115 289a1 1 0 1 1 0 2 1 1 0 0 1 0-2M129 289a1 1 0 1 1 0 2 1 1 0 0 1 0-2M143 289a1 1 0 1 1 0 2 1 1 0 0 1 0-2M157 289a1 1 0 1 1 0 2 1 1 0 0 1 0-2M171 289a1 1 0 1 1 0 2 1 1 0 0 1 0-2M185 289a1 1 0 1 1 0 2 1 1 0 0 1 0-2M199 289a1 1 0 1 1 0 2 1 1 0 0 1 0-2M213 289a1 1 0 1 1 0 2 1 1 0 0 1 0-2M227 289a1 1 0 1 1 0 2 1 1 0 0 1 0-2M241 289a1 1 0 1 1 0 2 1 1 0 0 1 0-2M255 289a1 1 0 1 1 0 2 1 1 0 0 1 0-2M269 289a1 1 0 1 1 0 2 1 1 0 0 1 0-2M283 289a1 1 0 1 1 0 2 1 1 0 0 1 0-2M297 289a1 1 0 1 1 0 2 1 1 0 0 1 0-2M311 289a1 1 0 1 1 0 2 1 1 0 0 1 0-2M325 289a1 1 0 1 1 0 2 1 1 0 0 1 0-2M339 289a1 1 0 1 1 0 2 1 1 0 0 1 0-2M353 289a1 1 0 1 1 0 2 1 1 0 0 1 0-2M367 289a1 1 0 1 1 0 2 1 1 0 0 1 0-2M381 289a1 1 0 1 1 0 2 1 1 0 0 1 0-2M395 289a1 1 0 1 1 0 2 1 1 0 0 1 0-2M409 289a1 1 0 1 1 0 2 1 1 0 0 1 0-2M423 289a1 1 0 1 1 0 2 1 1 0 0 1 0-2M437 289a1 1 0 1 1 0 2 1 1 0 0 1 0-2M451 289a1 1 0 1 1 0 2 1 1 0 0 1 0-2M465 289a1 1 0 1 1 0 2 1 1 0 0 1 0-2M479 289a1 1 0 1 1 0 2 1 1 0 0 1 0-2M493 289a1 1 0 1 1 0 2 1 1 0 0 1 0-2M507 289a1 1 0 1 1 0 2 1 1 0 0 1 0-2M521 289a1 1 0 1 1 0 2 1 1 0 0 1 0-2M535 289a1 1 0 1 1 0 2 1 1 0 0 1 0-2M549 289a1 1 0 1 1 0 2 1 1 0 0 1 0-2M563 289a1 1 0 1 1 0 2 1 1 0 0 1 0-2M577 289a1 1 0 1 1 0 2 1 1 0 0 1 0-2M591 289a1 1 0 1 1 0 2 1 1 0 0 1 0-2M605 289a1 1 0 1 1 0 2 1 1 0 0 1 0-2M619 289a1 1 0 1 1 0 2 1 1 0 0 1 0-2M633 289a1 1 0 1 1 0 2 1 1 0 0 1 0-2M647 289a1 1 0 1 1 0 2 1 1 0 0 1 0-2M661 289a1 1 0 1 1 0 2 1 1 0 0 1 0-2M675 289a1 1 0 1 1 0 2 1 1 0 0 1 0-2M689 289a1 1 0 1 1 0 2 1 1 0 0 1 0-2M703 289a1 1 0 1 1 0 2 1 1 0 0 1 0-2M717 289a1 1 0 1 1 0 2 1 1 0 0 1 0-2M-11 275a1 1 0 1 1 0 2 1 1 0 0 1 0-2M3 275a1 1 0 1 1 0 2 1 1 0 0 1 0-2M17 275a1 1 0 1 1 0 2 1 1 0 0 1 0-2M31 275a1 1 0 1 1 0 2 1 1 0 0 1 0-2M45 275a1 1 0 1 1 0 2 1 1 0 0 1 0-2M59 275a1 1 0 1 1 0 2 1 1 0 0 1 0-2M73 275a1 1 0 1 1 0 2 1 1 0 0 1 0-2M87 275a1 1 0 1 1 0 2 1 1 0 0 1 0-2M101 275a1 1 0 1 1 0 2 1 1 0 0 1 0-2M115 275a1 1 0 1 1 0 2 1 1 0 0 1 0-2M129 275a1 1 0 1 1 0 2 1 1 0 0 1 0-2M143 275a1 1 0 1 1 0 2 1 1 0 0 1 0-2M157 275a1 1 0 1 1 0 2 1 1 0 0 1 0-2M171 275a1 1 0 1 1 0 2 1 1 0 0 1 0-2M185 275a1 1 0 1 1 0 2 1 1 0 0 1 0-2M199 275a1 1 0 1 1 0 2 1 1 0 0 1 0-2M213 275a1 1 0 1 1 0 2 1 1 0 0 1 0-2M227 275a1 1 0 1 1 0 2 1 1 0 0 1 0-2M241 275a1 1 0 1 1 0 2 1 1 0 0 1 0-2M255 275a1 1 0 1 1 0 2 1 1 0 0 1 0-2M269 275a1 1 0 1 1 0 2 1 1 0 0 1 0-2M283 275a1 1 0 1 1 0 2 1 1 0 0 1 0-2M297 275a1 1 0 1 1 0 2 1 1 0 0 1 0-2M311 275a1 1 0 1 1 0 2 1 1 0 0 1 0-2M325 275a1 1 0 1 1 0 2 1 1 0 0 1 0-2M339 275a1 1 0 1 1 0 2 1 1 0 0 1 0-2M353 275a1 1 0 1 1 0 2 1 1 0 0 1 0-2M367 275a1 1 0 1 1 0 2 1 1 0 0 1 0-2M381 275a1 1 0 1 1 0 2 1 1 0 0 1 0-2M395 275a1 1 0 1 1 0 2 1 1 0 0 1 0-2M409 275a1 1 0 1 1 0 2 1 1 0 0 1 0-2M423 275a1 1 0 1 1 0 2 1 1 0 0 1 0-2M437 275a1 1 0 1 1 0 2 1 1 0 0 1 0-2M451 275a1 1 0 1 1 0 2 1 1 0 0 1 0-2M465 275a1 1 0 1 1 0 2 1 1 0 0 1 0-2M479 275a1 1 0 1 1 0 2 1 1 0 0 1 0-2M493 275a1 1 0 1 1 0 2 1 1 0 0 1 0-2M507 275a1 1 0 1 1 0 2 1 1 0 0 1 0-2M521 275a1 1 0 1 1 0 2 1 1 0 0 1 0-2M535 275a1 1 0 1 1 0 2 1 1 0 0 1 0-2M549 275a1 1 0 1 1 0 2 1 1 0 0 1 0-2M563 275a1 1 0 1 1 0 2 1 1 0 0 1 0-2M577 275a1 1 0 1 1 0 2 1 1 0 0 1 0-2M591 275a1 1 0 1 1 0 2 1 1 0 0 1 0-2M605 275a1 1 0 1 1 0 2 1 1 0 0 1 0-2M619 275a1 1 0 1 1 0 2 1 1 0 0 1 0-2M633 275a1 1 0 1 1 0 2 1 1 0 0 1 0-2M647 275a1 1 0 1 1 0 2 1 1 0 0 1 0-2M661 275a1 1 0 1 1 0 2 1 1 0 0 1 0-2M675 275a1 1 0 1 1 0 2 1 1 0 0 1 0-2M689 275a1 1 0 1 1 0 2 1 1 0 0 1 0-2M703 275a1 1 0 1 1 0 2 1 1 0 0 1 0-2M717 275a1 1 0 1 1 0 2 1 1 0 0 1 0-2M-11 261a1 1 0 1 1 0 2 1 1 0 0 1 0-2M3 261a1 1 0 1 1 0 2 1 1 0 0 1 0-2M17 261a1 1 0 1 1 0 2 1 1 0 0 1 0-2M31 261a1 1 0 1 1 0 2 1 1 0 0 1 0-2M45 261a1 1 0 1 1 0 2 1 1 0 0 1 0-2M59 261a1 1 0 1 1 0 2 1 1 0 0 1 0-2M73 261a1 1 0 1 1 0 2 1 1 0 0 1 0-2M87 261a1 1 0 1 1 0 2 1 1 0 0 1 0-2M101 261a1 1 0 1 1 0 2 1 1 0 0 1 0-2M115 261a1 1 0 1 1 0 2 1 1 0 0 1 0-2M129 261a1 1 0 1 1 0 2 1 1 0 0 1 0-2M143 261a1 1 0 1 1 0 2 1 1 0 0 1 0-2M157 261a1 1 0 1 1 0 2 1 1 0 0 1 0-2M171 261a1 1 0 1 1 0 2 1 1 0 0 1 0-2M185 261a1 1 0 1 1 0 2 1 1 0 0 1 0-2M199 261a1 1 0 1 1 0 2 1 1 0 0 1 0-2M213 261a1 1 0 1 1 0 2 1 1 0 0 1 0-2M227 261a1 1 0 1 1 0 2 1 1 0 0 1 0-2M241 261a1 1 0 1 1 0 2 1 1 0 0 1 0-2M255 261a1 1 0 1 1 0 2 1 1 0 0 1 0-2M269 261a1 1 0 1 1 0 2 1 1 0 0 1 0-2M283 261a1 1 0 1 1 0 2 1 1 0 0 1 0-2M297 261a1 1 0 1 1 0 2 1 1 0 0 1 0-2M311 261a1 1 0 1 1 0 2 1 1 0 0 1 0-2M325 261a1 1 0 1 1 0 2 1 1 0 0 1 0-2M339 261a1 1 0 1 1 0 2 1 1 0 0 1 0-2M353 261a1 1 0 1 1 0 2 1 1 0 0 1 0-2M367 261a1 1 0 1 1 0 2 1 1 0 0 1 0-2M381 261a1 1 0 1 1 0 2 1 1 0 0 1 0-2M395 261a1 1 0 1 1 0 2 1 1 0 0 1 0-2M409 261a1 1 0 1 1 0 2 1 1 0 0 1 0-2M423 261a1 1 0 1 1 0 2 1 1 0 0 1 0-2M437 261a1 1 0 1 1 0 2 1 1 0 0 1 0-2M451 261a1 1 0 1 1 0 2 1 1 0 0 1 0-2M465 261a1 1 0 1 1 0 2 1 1 0 0 1 0-2M479 261a1 1 0 1 1 0 2 1 1 0 0 1 0-2M493 261a1 1 0 1 1 0 2 1 1 0 0 1 0-2M507 261a1 1 0 1 1 0 2 1 1 0 0 1 0-2M521 261a1 1 0 1 1 0 2 1 1 0 0 1 0-2M535 261a1 1 0 1 1 0 2 1 1 0 0 1 0-2M549 261a1 1 0 1 1 0 2 1 1 0 0 1 0-2M563 261a1 1 0 1 1 0 2 1 1 0 0 1 0-2M577 261a1 1 0 1 1 0 2 1 1 0 0 1 0-2M591 261a1 1 0 1 1 0 2 1 1 0 0 1 0-2M605 261a1 1 0 1 1 0 2 1 1 0 0 1 0-2M619 261a1 1 0 1 1 0 2 1 1 0 0 1 0-2M633 261a1 1 0 1 1 0 2 1 1 0 0 1 0-2M647 261a1 1 0 1 1 0 2 1 1 0 0 1 0-2M661 261a1 1 0 1 1 0 2 1 1 0 0 1 0-2M675 261a1 1 0 1 1 0 2 1 1 0 0 1 0-2M689 261a1 1 0 1 1 0 2 1 1 0 0 1 0-2M703 261a1 1 0 1 1 0 2 1 1 0 0 1 0-2M717 261a1 1 0 1 1 0 2 1 1 0 0 1 0-2M-11 247a1 1 0 1 1 0 2 1 1 0 0 1 0-2M3 247a1 1 0 1 1 0 2 1 1 0 0 1 0-2M17 247a1 1 0 1 1 0 2 1 1 0 0 1 0-2M31 247a1 1 0 1 1 0 2 1 1 0 0 1 0-2M45 247a1 1 0 1 1 0 2 1 1 0 0 1 0-2M59 247a1 1 0 1 1 0 2 1 1 0 0 1 0-2M73 247a1 1 0 1 1 0 2 1 1 0 0 1 0-2M87 247a1 1 0 1 1 0 2 1 1 0 0 1 0-2M101 247a1 1 0 1 1 0 2 1 1 0 0 1 0-2M115 247a1 1 0 1 1 0 2 1 1 0 0 1 0-2M129 247a1 1 0 1 1 0 2 1 1 0 0 1 0-2M143 247a1 1 0 1 1 0 2 1 1 0 0 1 0-2M157 247a1 1 0 1 1 0 2 1 1 0 0 1 0-2M171 247a1 1 0 1 1 0 2 1 1 0 0 1 0-2M185 247a1 1 0 1 1 0 2 1 1 0 0 1 0-2M199 247a1 1 0 1 1 0 2 1 1 0 0 1 0-2M213 247a1 1 0 1 1 0 2 1 1 0 0 1 0-2M227 247a1 1 0 1 1 0 2 1 1 0 0 1 0-2M241 247a1 1 0 1 1 0 2 1 1 0 0 1 0-2M255 247a1 1 0 1 1 0 2 1 1 0 0 1 0-2M269 247a1 1 0 1 1 0 2 1 1 0 0 1 0-2M283 247a1 1 0 1 1 0 2 1 1 0 0 1 0-2M297 247a1 1 0 1 1 0 2 1 1 0 0 1 0-2M311 247a1 1 0 1 1 0 2 1 1 0 0 1 0-2M325 247a1 1 0 1 1 0 2 1 1 0 0 1 0-2M339 247a1 1 0 1 1 0 2 1 1 0 0 1 0-2M353 247a1 1 0 1 1 0 2 1 1 0 0 1 0-2M367 247a1 1 0 1 1 0 2 1 1 0 0 1 0-2M381 247a1 1 0 1 1 0 2 1 1 0 0 1 0-2M395 247a1 1 0 1 1 0 2 1 1 0 0 1 0-2M409 247a1 1 0 1 1 0 2 1 1 0 0 1 0-2M423 247a1 1 0 1 1 0 2 1 1 0 0 1 0-2M437 247a1 1 0 1 1 0 2 1 1 0 0 1 0-2M451 247a1 1 0 1 1 0 2 1 1 0 0 1 0-2M465 247a1 1 0 1 1 0 2 1 1 0 0 1 0-2M479 247a1 1 0 1 1 0 2 1 1 0 0 1 0-2M493 247a1 1 0 1 1 0 2 1 1 0 0 1 0-2M507 247a1 1 0 1 1 0 2 1 1 0 0 1 0-2M521 247a1 1 0 1 1 0 2 1 1 0 0 1 0-2M535 247a1 1 0 1 1 0 2 1 1 0 0 1 0-2M549 247a1 1 0 1 1 0 2 1 1 0 0 1 0-2M563 247a1 1 0 1 1 0 2 1 1 0 0 1 0-2M577 247a1 1 0 1 1 0 2 1 1 0 0 1 0-2M591 247a1 1 0 1 1 0 2 1 1 0 0 1 0-2M605 247a1 1 0 1 1 0 2 1 1 0 0 1 0-2M619 247a1 1 0 1 1 0 2 1 1 0 0 1 0-2M633 247a1 1 0 1 1 0 2 1 1 0 0 1 0-2M647 247a1 1 0 1 1 0 2 1 1 0 0 1 0-2M661 247a1 1 0 1 1 0 2 1 1 0 0 1 0-2M675 247a1 1 0 1 1 0 2 1 1 0 0 1 0-2M689 247a1 1 0 1 1 0 2 1 1 0 0 1 0-2M703 247a1 1 0 1 1 0 2 1 1 0 0 1 0-2M717 247a1 1 0 1 1 0 2 1 1 0 0 1 0-2M-11 233a1 1 0 1 1 0 2 1 1 0 0 1 0-2M3 233a1 1 0 1 1 0 2 1 1 0 0 1 0-2M17 233a1 1 0 1 1 0 2 1 1 0 0 1 0-2M31 233a1 1 0 1 1 0 2 1 1 0 0 1 0-2M45 233a1 1 0 1 1 0 2 1 1 0 0 1 0-2M59 233a1 1 0 1 1 0 2 1 1 0 0 1 0-2M73 233a1 1 0 1 1 0 2 1 1 0 0 1 0-2M87 233a1 1 0 1 1 0 2 1 1 0 0 1 0-2M101 233a1 1 0 1 1 0 2 1 1 0 0 1 0-2M115 233a1 1 0 1 1 0 2 1 1 0 0 1 0-2M129 233a1 1 0 1 1 0 2 1 1 0 0 1 0-2M143 233a1 1 0 1 1 0 2 1 1 0 0 1 0-2M157 233a1 1 0 1 1 0 2 1 1 0 0 1 0-2M171 233a1 1 0 1 1 0 2 1 1 0 0 1 0-2M185 233a1 1 0 1 1 0 2 1 1 0 0 1 0-2M199 233a1 1 0 1 1 0 2 1 1 0 0 1 0-2M213 233a1 1 0 1 1 0 2 1 1 0 0 1 0-2M227 233a1 1 0 1 1 0 2 1 1 0 0 1 0-2M241 233a1 1 0 1 1 0 2 1 1 0 0 1 0-2M255 233a1 1 0 1 1 0 2 1 1 0 0 1 0-2M269 233a1 1 0 1 1 0 2 1 1 0 0 1 0-2M283 233a1 1 0 1 1 0 2 1 1 0 0 1 0-2M297 233a1 1 0 1 1 0 2 1 1 0 0 1 0-2M311 233a1 1 0 1 1 0 2 1 1 0 0 1 0-2M325 233a1 1 0 1 1 0 2 1 1 0 0 1 0-2M339 233a1 1 0 1 1 0 2 1 1 0 0 1 0-2M353 233a1 1 0 1 1 0 2 1 1 0 0 1 0-2M367 233a1 1 0 1 1 0 2 1 1 0 0 1 0-2M381 233a1 1 0 1 1 0 2 1 1 0 0 1 0-2M395 233a1 1 0 1 1 0 2 1 1 0 0 1 0-2M409 233a1 1 0 1 1 0 2 1 1 0 0 1 0-2M423 233a1 1 0 1 1 0 2 1 1 0 0 1 0-2M437 233a1 1 0 1 1 0 2 1 1 0 0 1 0-2M451 233a1 1 0 1 1 0 2 1 1 0 0 1 0-2M465 233a1 1 0 1 1 0 2 1 1 0 0 1 0-2M479 233a1 1 0 1 1 0 2 1 1 0 0 1 0-2M493 233a1 1 0 1 1 0 2 1 1 0 0 1 0-2M507 233a1 1 0 1 1 0 2 1 1 0 0 1 0-2M521 233a1 1 0 1 1 0 2 1 1 0 0 1 0-2M535 233a1 1 0 1 1 0 2 1 1 0 0 1 0-2M549 233a1 1 0 1 1 0 2 1 1 0 0 1 0-2M563 233a1 1 0 1 1 0 2 1 1 0 0 1 0-2M577 233a1 1 0 1 1 0 2 1 1 0 0 1 0-2M591 233a1 1 0 1 1 0 2 1 1 0 0 1 0-2M605 233a1 1 0 1 1 0 2 1 1 0 0 1 0-2M619 233a1 1 0 1 1 0 2 1 1 0 0 1 0-2M633 233a1 1 0 1 1 0 2 1 1 0 0 1 0-2M647 233a1 1 0 1 1 0 2 1 1 0 0 1 0-2M661 233a1 1 0 1 1 0 2 1 1 0 0 1 0-2M675 233a1 1 0 1 1 0 2 1 1 0 0 1 0-2M689 233a1 1 0 1 1 0 2 1 1 0 0 1 0-2M703 233a1 1 0 1 1 0 2 1 1 0 0 1 0-2M717 233a1 1 0 1 1 0 2 1 1 0 0 1 0-2M-11 219a1 1 0 1 1 0 2 1 1 0 0 1 0-2M3 219a1 1 0 1 1 0 2 1 1 0 0 1 0-2M17 219a1 1 0 1 1 0 2 1 1 0 0 1 0-2M31 219a1 1 0 1 1 0 2 1 1 0 0 1 0-2M45 219a1 1 0 1 1 0 2 1 1 0 0 1 0-2M59 219a1 1 0 1 1 0 2 1 1 0 0 1 0-2M73 219a1 1 0 1 1 0 2 1 1 0 0 1 0-2M87 219a1 1 0 1 1 0 2 1 1 0 0 1 0-2M101 219a1 1 0 1 1 0 2 1 1 0 0 1 0-2M115 219a1 1 0 1 1 0 2 1 1 0 0 1 0-2M129 219a1 1 0 1 1 0 2 1 1 0 0 1 0-2M143 219a1 1 0 1 1 0 2 1 1 0 0 1 0-2M157 219a1 1 0 1 1 0 2 1 1 0 0 1 0-2M171 219a1 1 0 1 1 0 2 1 1 0 0 1 0-2M185 219a1 1 0 1 1 0 2 1 1 0 0 1 0-2M199 219a1 1 0 1 1 0 2 1 1 0 0 1 0-2M213 219a1 1 0 1 1 0 2 1 1 0 0 1 0-2M227 219a1 1 0 1 1 0 2 1 1 0 0 1 0-2M241 219a1 1 0 1 1 0 2 1 1 0 0 1 0-2M255 219a1 1 0 1 1 0 2 1 1 0 0 1 0-2M269 219a1 1 0 1 1 0 2 1 1 0 0 1 0-2M283 219a1 1 0 1 1 0 2 1 1 0 0 1 0-2M297 219a1 1 0 1 1 0 2 1 1 0 0 1 0-2M311 219a1 1 0 1 1 0 2 1 1 0 0 1 0-2M325 219a1 1 0 1 1 0 2 1 1 0 0 1 0-2M339 219a1 1 0 1 1 0 2 1 1 0 0 1 0-2M353 219a1 1 0 1 1 0 2 1 1 0 0 1 0-2M367 219a1 1 0 1 1 0 2 1 1 0 0 1 0-2M381 219a1 1 0 1 1 0 2 1 1 0 0 1 0-2M395 219a1 1 0 1 1 0 2 1 1 0 0 1 0-2M409 219a1 1 0 1 1 0 2 1 1 0 0 1 0-2M423 219a1 1 0 1 1 0 2 1 1 0 0 1 0-2M437 219a1 1 0 1 1 0 2 1 1 0 0 1 0-2M451 219a1 1 0 1 1 0 2 1 1 0 0 1 0-2M465 219a1 1 0 1 1 0 2 1 1 0 0 1 0-2M479 219a1 1 0 1 1 0 2 1 1 0 0 1 0-2M493 219a1 1 0 1 1 0 2 1 1 0 0 1 0-2M507 219a1 1 0 1 1 0 2 1 1 0 0 1 0-2M521 219a1 1 0 1 1 0 2 1 1 0 0 1 0-2M535 219a1 1 0 1 1 0 2 1 1 0 0 1 0-2M549 219a1 1 0 1 1 0 2 1 1 0 0 1 0-2M563 219a1 1 0 1 1 0 2 1 1 0 0 1 0-2M577 219a1 1 0 1 1 0 2 1 1 0 0 1 0-2M591 219a1 1 0 1 1 0 2 1 1 0 0 1 0-2M605 219a1 1 0 1 1 0 2 1 1 0 0 1 0-2M619 219a1 1 0 1 1 0 2 1 1 0 0 1 0-2M633 219a1 1 0 1 1 0 2 1 1 0 0 1 0-2M647 219a1 1 0 1 1 0 2 1 1 0 0 1 0-2M661 219a1 1 0 1 1 0 2 1 1 0 0 1 0-2M675 219a1 1 0 1 1 0 2 1 1 0 0 1 0-2M689 219a1 1 0 1 1 0 2 1 1 0 0 1 0-2M703 219a1 1 0 1 1 0 2 1 1 0 0 1 0-2M717 219a1 1 0 1 1 0 2 1 1 0 0 1 0-2M-11 205a1 1 0 1 1 0 2 1 1 0 0 1 0-2M3 205a1 1 0 1 1 0 2 1 1 0 0 1 0-2M17 205a1 1 0 1 1 0 2 1 1 0 0 1 0-2M31 205a1 1 0 1 1 0 2 1 1 0 0 1 0-2M45 205a1 1 0 1 1 0 2 1 1 0 0 1 0-2M59 205a1 1 0 1 1 0 2 1 1 0 0 1 0-2M73 205a1 1 0 1 1 0 2 1 1 0 0 1 0-2M87 205a1 1 0 1 1 0 2 1 1 0 0 1 0-2M101 205a1 1 0 1 1 0 2 1 1 0 0 1 0-2M115 205a1 1 0 1 1 0 2 1 1 0 0 1 0-2M129 205a1 1 0 1 1 0 2 1 1 0 0 1 0-2M143 205a1 1 0 1 1 0 2 1 1 0 0 1 0-2M157 205a1 1 0 1 1 0 2 1 1 0 0 1 0-2M171 205a1 1 0 1 1 0 2 1 1 0 0 1 0-2M185 205a1 1 0 1 1 0 2 1 1 0 0 1 0-2M199 205a1 1 0 1 1 0 2 1 1 0 0 1 0-2M213 205a1 1 0 1 1 0 2 1 1 0 0 1 0-2M227 205a1 1 0 1 1 0 2 1 1 0 0 1 0-2M241 205a1 1 0 1 1 0 2 1 1 0 0 1 0-2M255 205a1 1 0 1 1 0 2 1 1 0 0 1 0-2M269 205a1 1 0 1 1 0 2 1 1 0 0 1 0-2M283 205a1 1 0 1 1 0 2 1 1 0 0 1 0-2M297 205a1 1 0 1 1 0 2 1 1 0 0 1 0-2M311 205a1 1 0 1 1 0 2 1 1 0 0 1 0-2M325 205a1 1 0 1 1 0 2 1 1 0 0 1 0-2M339 205a1 1 0 1 1 0 2 1 1 0 0 1 0-2M353 205a1 1 0 1 1 0 2 1 1 0 0 1 0-2M367 205a1 1 0 1 1 0 2 1 1 0 0 1 0-2M381 205a1 1 0 1 1 0 2 1 1 0 0 1 0-2M395 205a1 1 0 1 1 0 2 1 1 0 0 1 0-2M409 205a1 1 0 1 1 0 2 1 1 0 0 1 0-2M423 205a1 1 0 1 1 0 2 1 1 0 0 1 0-2M437 205a1 1 0 1 1 0 2 1 1 0 0 1 0-2M451 205a1 1 0 1 1 0 2 1 1 0 0 1 0-2M465 205a1 1 0 1 1 0 2 1 1 0 0 1 0-2M479 205a1 1 0 1 1 0 2 1 1 0 0 1 0-2M493 205a1 1 0 1 1 0 2 1 1 0 0 1 0-2M507 205a1 1 0 1 1 0 2 1 1 0 0 1 0-2M521 205a1 1 0 1 1 0 2 1 1 0 0 1 0-2M535 205a1 1 0 1 1 0 2 1 1 0 0 1 0-2M549 205a1 1 0 1 1 0 2 1 1 0 0 1 0-2M563 205a1 1 0 1 1 0 2 1 1 0 0 1 0-2M577 205a1 1 0 1 1 0 2 1 1 0 0 1 0-2M591 205a1 1 0 1 1 0 2 1 1 0 0 1 0-2M605 205a1 1 0 1 1 0 2 1 1 0 0 1 0-2M619 205a1 1 0 1 1 0 2 1 1 0 0 1 0-2M633 205a1 1 0 1 1 0 2 1 1 0 0 1 0-2M647 205a1 1 0 1 1 0 2 1 1 0 0 1 0-2M661 205a1 1 0 1 1 0 2 1 1 0 0 1 0-2M675 205a1 1 0 1 1 0 2 1 1 0 0 1 0-2M689 205a1 1 0 1 1 0 2 1 1 0 0 1 0-2M703 205a1 1 0 1 1 0 2 1 1 0 0 1 0-2M717 205a1 1 0 1 1 0 2 1 1 0 0 1 0-2M-11 191a1 1 0 1 1 0 2 1 1 0 0 1 0-2M3 191a1 1 0 1 1 0 2 1 1 0 0 1 0-2M17 191a1 1 0 1 1 0 2 1 1 0 0 1 0-2M31 191a1 1 0 1 1 0 2 1 1 0 0 1 0-2M45 191a1 1 0 1 1 0 2 1 1 0 0 1 0-2M59 191a1 1 0 1 1 0 2 1 1 0 0 1 0-2M73 191a1 1 0 1 1 0 2 1 1 0 0 1 0-2M87 191a1 1 0 1 1 0 2 1 1 0 0 1 0-2M101 191a1 1 0 1 1 0 2 1 1 0 0 1 0-2M115 191a1 1 0 1 1 0 2 1 1 0 0 1 0-2M129 191a1 1 0 1 1 0 2 1 1 0 0 1 0-2M143 191a1 1 0 1 1 0 2 1 1 0 0 1 0-2M157 191a1 1 0 1 1 0 2 1 1 0 0 1 0-2M171 191a1 1 0 1 1 0 2 1 1 0 0 1 0-2M185 191a1 1 0 1 1 0 2 1 1 0 0 1 0-2M199 191a1 1 0 1 1 0 2 1 1 0 0 1 0-2M213 191a1 1 0 1 1 0 2 1 1 0 0 1 0-2M227 191a1 1 0 1 1 0 2 1 1 0 0 1 0-2M241 191a1 1 0 1 1 0 2 1 1 0 0 1 0-2M255 191a1 1 0 1 1 0 2 1 1 0 0 1 0-2M269 191a1 1 0 1 1 0 2 1 1 0 0 1 0-2M283 191a1 1 0 1 1 0 2 1 1 0 0 1 0-2M297 191a1 1 0 1 1 0 2 1 1 0 0 1 0-2M311 191a1 1 0 1 1 0 2 1 1 0 0 1 0-2M325 191a1 1 0 1 1 0 2 1 1 0 0 1 0-2M339 191a1 1 0 1 1 0 2 1 1 0 0 1 0-2M353 191a1 1 0 1 1 0 2 1 1 0 0 1 0-2M367 191a1 1 0 1 1 0 2 1 1 0 0 1 0-2M381 191a1 1 0 1 1 0 2 1 1 0 0 1 0-2M395 191a1 1 0 1 1 0 2 1 1 0 0 1 0-2M409 191a1 1 0 1 1 0 2 1 1 0 0 1 0-2M423 191a1 1 0 1 1 0 2 1 1 0 0 1 0-2M437 191a1 1 0 1 1 0 2 1 1 0 0 1 0-2M451 191a1 1 0 1 1 0 2 1 1 0 0 1 0-2M465 191a1 1 0 1 1 0 2 1 1 0 0 1 0-2M479 191a1 1 0 1 1 0 2 1 1 0 0 1 0-2M493 191a1 1 0 1 1 0 2 1 1 0 0 1 0-2M507 191a1 1 0 1 1 0 2 1 1 0 0 1 0-2M521 191a1 1 0 1 1 0 2 1 1 0 0 1 0-2M535 191a1 1 0 1 1 0 2 1 1 0 0 1 0-2M549 191a1 1 0 1 1 0 2 1 1 0 0 1 0-2M563 191a1 1 0 1 1 0 2 1 1 0 0 1 0-2M577 191a1 1 0 1 1 0 2 1 1 0 0 1 0-2M591 191a1 1 0 1 1 0 2 1 1 0 0 1 0-2M605 191a1 1 0 1 1 0 2 1 1 0 0 1 0-2M619 191a1 1 0 1 1 0 2 1 1 0 0 1 0-2M633 191a1 1 0 1 1 0 2 1 1 0 0 1 0-2M647 191a1 1 0 1 1 0 2 1 1 0 0 1 0-2M661 191a1 1 0 1 1 0 2 1 1 0 0 1 0-2M675 191a1 1 0 1 1 0 2 1 1 0 0 1 0-2M689 191a1 1 0 1 1 0 2 1 1 0 0 1 0-2M703 191a1 1 0 1 1 0 2 1 1 0 0 1 0-2M717 191a1 1 0 1 1 0 2 1 1 0 0 1 0-2M-11 177a1 1 0 1 1 0 2 1 1 0 0 1 0-2M3 177a1 1 0 1 1 0 2 1 1 0 0 1 0-2M17 177a1 1 0 1 1 0 2 1 1 0 0 1 0-2M31 177a1 1 0 1 1 0 2 1 1 0 0 1 0-2M45 177a1 1 0 1 1 0 2 1 1 0 0 1 0-2M59 177a1 1 0 1 1 0 2 1 1 0 0 1 0-2M73 177a1 1 0 1 1 0 2 1 1 0 0 1 0-2M87 177a1 1 0 1 1 0 2 1 1 0 0 1 0-2M101 177a1 1 0 1 1 0 2 1 1 0 0 1 0-2M115 177a1 1 0 1 1 0 2 1 1 0 0 1 0-2M129 177a1 1 0 1 1 0 2 1 1 0 0 1 0-2M143 177a1 1 0 1 1 0 2 1 1 0 0 1 0-2M157 177a1 1 0 1 1 0 2 1 1 0 0 1 0-2M171 177a1 1 0 1 1 0 2 1 1 0 0 1 0-2M185 177a1 1 0 1 1 0 2 1 1 0 0 1 0-2M199 177a1 1 0 1 1 0 2 1 1 0 0 1 0-2M213 177a1 1 0 1 1 0 2 1 1 0 0 1 0-2M227 177a1 1 0 1 1 0 2 1 1 0 0 1 0-2M241 177a1 1 0 1 1 0 2 1 1 0 0 1 0-2M255 177a1 1 0 1 1 0 2 1 1 0 0 1 0-2M269 177a1 1 0 1 1 0 2 1 1 0 0 1 0-2M283 177a1 1 0 1 1 0 2 1 1 0 0 1 0-2M297 177a1 1 0 1 1 0 2 1 1 0 0 1 0-2M311 177a1 1 0 1 1 0 2 1 1 0 0 1 0-2M325 177a1 1 0 1 1 0 2 1 1 0 0 1 0-2M339 177a1 1 0 1 1 0 2 1 1 0 0 1 0-2M353 177a1 1 0 1 1 0 2 1 1 0 0 1 0-2M367 177a1 1 0 1 1 0 2 1 1 0 0 1 0-2M381 177a1 1 0 1 1 0 2 1 1 0 0 1 0-2M395 177a1 1 0 1 1 0 2 1 1 0 0 1 0-2M409 177a1 1 0 1 1 0 2 1 1 0 0 1 0-2M423 177a1 1 0 1 1 0 2 1 1 0 0 1 0-2M437 177a1 1 0 1 1 0 2 1 1 0 0 1 0-2M451 177a1 1 0 1 1 0 2 1 1 0 0 1 0-2M465 177a1 1 0 1 1 0 2 1 1 0 0 1 0-2M479 177a1 1 0 1 1 0 2 1 1 0 0 1 0-2M493 177a1 1 0 1 1 0 2 1 1 0 0 1 0-2M507 177a1 1 0 1 1 0 2 1 1 0 0 1 0-2M521 177a1 1 0 1 1 0 2 1 1 0 0 1 0-2M535 177a1 1 0 1 1 0 2 1 1 0 0 1 0-2M549 177a1 1 0 1 1 0 2 1 1 0 0 1 0-2M563 177a1 1 0 1 1 0 2 1 1 0 0 1 0-2M577 177a1 1 0 1 1 0 2 1 1 0 0 1 0-2M591 177a1 1 0 1 1 0 2 1 1 0 0 1 0-2M605 177a1 1 0 1 1 0 2 1 1 0 0 1 0-2M619 177a1 1 0 1 1 0 2 1 1 0 0 1 0-2M633 177a1 1 0 1 1 0 2 1 1 0 0 1 0-2M647 177a1 1 0 1 1 0 2 1 1 0 0 1 0-2M661 177a1 1 0 1 1 0 2 1 1 0 0 1 0-2M675 177a1 1 0 1 1 0 2 1 1 0 0 1 0-2M689 177a1 1 0 1 1 0 2 1 1 0 0 1 0-2M703 177a1 1 0 1 1 0 2 1 1 0 0 1 0-2M717 177a1 1 0 1 1 0 2 1 1 0 0 1 0-2M-11 163a1 1 0 1 1 0 2 1 1 0 0 1 0-2M3 163a1 1 0 1 1 0 2 1 1 0 0 1 0-2M17 163a1 1 0 1 1 0 2 1 1 0 0 1 0-2M31 163a1 1 0 1 1 0 2 1 1 0 0 1 0-2M45 163a1 1 0 1 1 0 2 1 1 0 0 1 0-2M59 163a1 1 0 1 1 0 2 1 1 0 0 1 0-2M73 163a1 1 0 1 1 0 2 1 1 0 0 1 0-2M87 163a1 1 0 1 1 0 2 1 1 0 0 1 0-2M101 163a1 1 0 1 1 0 2 1 1 0 0 1 0-2M115 163a1 1 0 1 1 0 2 1 1 0 0 1 0-2M129 163a1 1 0 1 1 0 2 1 1 0 0 1 0-2M143 163a1 1 0 1 1 0 2 1 1 0 0 1 0-2M157 163a1 1 0 1 1 0 2 1 1 0 0 1 0-2M171 163a1 1 0 1 1 0 2 1 1 0 0 1 0-2M185 163a1 1 0 1 1 0 2 1 1 0 0 1 0-2M199 163a1 1 0 1 1 0 2 1 1 0 0 1 0-2M213 163a1 1 0 1 1 0 2 1 1 0 0 1 0-2M227 163a1 1 0 1 1 0 2 1 1 0 0 1 0-2M241 163a1 1 0 1 1 0 2 1 1 0 0 1 0-2M255 163a1 1 0 1 1 0 2 1 1 0 0 1 0-2M269 163a1 1 0 1 1 0 2 1 1 0 0 1 0-2M283 163a1 1 0 1 1 0 2 1 1 0 0 1 0-2M297 163a1 1 0 1 1 0 2 1 1 0 0 1 0-2M311 163a1 1 0 1 1 0 2 1 1 0 0 1 0-2M325 163a1 1 0 1 1 0 2 1 1 0 0 1 0-2M339 163a1 1 0 1 1 0 2 1 1 0 0 1 0-2M353 163a1 1 0 1 1 0 2 1 1 0 0 1 0-2M367 163a1 1 0 1 1 0 2 1 1 0 0 1 0-2M381 163a1 1 0 1 1 0 2 1 1 0 0 1 0-2M395 163a1 1 0 1 1 0 2 1 1 0 0 1 0-2M409 163a1 1 0 1 1 0 2 1 1 0 0 1 0-2M423 163a1 1 0 1 1 0 2 1 1 0 0 1 0-2M437 163a1 1 0 1 1 0 2 1 1 0 0 1 0-2M451 163a1 1 0 1 1 0 2 1 1 0 0 1 0-2M465 163a1 1 0 1 1 0 2 1 1 0 0 1 0-2M479 163a1 1 0 1 1 0 2 1 1 0 0 1 0-2M493 163a1 1 0 1 1 0 2 1 1 0 0 1 0-2M507 163a1 1 0 1 1 0 2 1 1 0 0 1 0-2M521 163a1 1 0 1 1 0 2 1 1 0 0 1 0-2M535 163a1 1 0 1 1 0 2 1 1 0 0 1 0-2M549 163a1 1 0 1 1 0 2 1 1 0 0 1 0-2M563 163a1 1 0 1 1 0 2 1 1 0 0 1 0-2M577 163a1 1 0 1 1 0 2 1 1 0 0 1 0-2M591 163a1 1 0 1 1 0 2 1 1 0 0 1 0-2M605 163a1 1 0 1 1 0 2 1 1 0 0 1 0-2M619 163a1 1 0 1 1 0 2 1 1 0 0 1 0-2M633 163a1 1 0 1 1 0 2 1 1 0 0 1 0-2M647 163a1 1 0 1 1 0 2 1 1 0 0 1 0-2M661 163a1 1 0 1 1 0 2 1 1 0 0 1 0-2M675 163a1 1 0 1 1 0 2 1 1 0 0 1 0-2M689 163a1 1 0 1 1 0 2 1 1 0 0 1 0-2M703 163a1 1 0 1 1 0 2 1 1 0 0 1 0-2M717 163a1 1 0 1 1 0 2 1 1 0 0 1 0-2M-11 149a1 1 0 1 1 0 2 1 1 0 0 1 0-2M3 149a1 1 0 1 1 0 2 1 1 0 0 1 0-2M17 149a1 1 0 1 1 0 2 1 1 0 0 1 0-2M31 149a1 1 0 1 1 0 2 1 1 0 0 1 0-2M45 149a1 1 0 1 1 0 2 1 1 0 0 1 0-2M59 149a1 1 0 1 1 0 2 1 1 0 0 1 0-2M73 149a1 1 0 1 1 0 2 1 1 0 0 1 0-2M87 149a1 1 0 1 1 0 2 1 1 0 0 1 0-2M101 149a1 1 0 1 1 0 2 1 1 0 0 1 0-2M115 149a1 1 0 1 1 0 2 1 1 0 0 1 0-2M129 149a1 1 0 1 1 0 2 1 1 0 0 1 0-2M143 149a1 1 0 1 1 0 2 1 1 0 0 1 0-2M157 149a1 1 0 1 1 0 2 1 1 0 0 1 0-2M171 149a1 1 0 1 1 0 2 1 1 0 0 1 0-2M185 149a1 1 0 1 1 0 2 1 1 0 0 1 0-2M199 149a1 1 0 1 1 0 2 1 1 0 0 1 0-2M213 149a1 1 0 1 1 0 2 1 1 0 0 1 0-2M227 149a1 1 0 1 1 0 2 1 1 0 0 1 0-2M241 149a1 1 0 1 1 0 2 1 1 0 0 1 0-2M255 149a1 1 0 1 1 0 2 1 1 0 0 1 0-2M269 149a1 1 0 1 1 0 2 1 1 0 0 1 0-2M283 149a1 1 0 1 1 0 2 1 1 0 0 1 0-2M297 149a1 1 0 1 1 0 2 1 1 0 0 1 0-2M311 149a1 1 0 1 1 0 2 1 1 0 0 1 0-2M325 149a1 1 0 1 1 0 2 1 1 0 0 1 0-2M339 149a1 1 0 1 1 0 2 1 1 0 0 1 0-2M353 149a1 1 0 1 1 0 2 1 1 0 0 1 0-2M367 149a1 1 0 1 1 0 2 1 1 0 0 1 0-2M381 149a1 1 0 1 1 0 2 1 1 0 0 1 0-2M395 149a1 1 0 1 1 0 2 1 1 0 0 1 0-2M409 149a1 1 0 1 1 0 2 1 1 0 0 1 0-2M423 149a1 1 0 1 1 0 2 1 1 0 0 1 0-2M437 149a1 1 0 1 1 0 2 1 1 0 0 1 0-2M451 149a1 1 0 1 1 0 2 1 1 0 0 1 0-2M465 149a1 1 0 1 1 0 2 1 1 0 0 1 0-2M479 149a1 1 0 1 1 0 2 1 1 0 0 1 0-2M493 149a1 1 0 1 1 0 2 1 1 0 0 1 0-2M507 149a1 1 0 1 1 0 2 1 1 0 0 1 0-2M521 149a1 1 0 1 1 0 2 1 1 0 0 1 0-2M535 149a1 1 0 1 1 0 2 1 1 0 0 1 0-2M549 149a1 1 0 1 1 0 2 1 1 0 0 1 0-2M563 149a1 1 0 1 1 0 2 1 1 0 0 1 0-2M577 149a1 1 0 1 1 0 2 1 1 0 0 1 0-2M591 149a1 1 0 1 1 0 2 1 1 0 0 1 0-2M605 149a1 1 0 1 1 0 2 1 1 0 0 1 0-2M619 149a1 1 0 1 1 0 2 1 1 0 0 1 0-2M633 149a1 1 0 1 1 0 2 1 1 0 0 1 0-2M647 149a1 1 0 1 1 0 2 1 1 0 0 1 0-2M661 149a1 1 0 1 1 0 2 1 1 0 0 1 0-2M675 149a1 1 0 1 1 0 2 1 1 0 0 1 0-2M689 149a1 1 0 1 1 0 2 1 1 0 0 1 0-2M703 149a1 1 0 1 1 0 2 1 1 0 0 1 0-2M717 149a1 1 0 1 1 0 2 1 1 0 0 1 0-2M-11 135a1 1 0 1 1 0 2 1 1 0 0 1 0-2M3 135a1 1 0 1 1 0 2 1 1 0 0 1 0-2M17 135a1 1 0 1 1 0 2 1 1 0 0 1 0-2M31 135a1 1 0 1 1 0 2 1 1 0 0 1 0-2M45 135a1 1 0 1 1 0 2 1 1 0 0 1 0-2M59 135a1 1 0 1 1 0 2 1 1 0 0 1 0-2M73 135a1 1 0 1 1 0 2 1 1 0 0 1 0-2M87 135a1 1 0 1 1 0 2 1 1 0 0 1 0-2M101 135a1 1 0 1 1 0 2 1 1 0 0 1 0-2M115 135a1 1 0 1 1 0 2 1 1 0 0 1 0-2M129 135a1 1 0 1 1 0 2 1 1 0 0 1 0-2M143 135a1 1 0 1 1 0 2 1 1 0 0 1 0-2M157 135a1 1 0 1 1 0 2 1 1 0 0 1 0-2M171 135a1 1 0 1 1 0 2 1 1 0 0 1 0-2M185 135a1 1 0 1 1 0 2 1 1 0 0 1 0-2M199 135a1 1 0 1 1 0 2 1 1 0 0 1 0-2M213 135a1 1 0 1 1 0 2 1 1 0 0 1 0-2M227 135a1 1 0 1 1 0 2 1 1 0 0 1 0-2M241 135a1 1 0 1 1 0 2 1 1 0 0 1 0-2M255 135a1 1 0 1 1 0 2 1 1 0 0 1 0-2M269 135a1 1 0 1 1 0 2 1 1 0 0 1 0-2M283 135a1 1 0 1 1 0 2 1 1 0 0 1 0-2M297 135a1 1 0 1 1 0 2 1 1 0 0 1 0-2M311 135a1 1 0 1 1 0 2 1 1 0 0 1 0-2M325 135a1 1 0 1 1 0 2 1 1 0 0 1 0-2M339 135a1 1 0 1 1 0 2 1 1 0 0 1 0-2M353 135a1 1 0 1 1 0 2 1 1 0 0 1 0-2M367 135a1 1 0 1 1 0 2 1 1 0 0 1 0-2M381 135a1 1 0 1 1 0 2 1 1 0 0 1 0-2M395 135a1 1 0 1 1 0 2 1 1 0 0 1 0-2M409 135a1 1 0 1 1 0 2 1 1 0 0 1 0-2M423 135a1 1 0 1 1 0 2 1 1 0 0 1 0-2M437 135a1 1 0 1 1 0 2 1 1 0 0 1 0-2M451 135a1 1 0 1 1 0 2 1 1 0 0 1 0-2M465 135a1 1 0 1 1 0 2 1 1 0 0 1 0-2M479 135a1 1 0 1 1 0 2 1 1 0 0 1 0-2M493 135a1 1 0 1 1 0 2 1 1 0 0 1 0-2M507 135a1 1 0 1 1 0 2 1 1 0 0 1 0-2M521 135a1 1 0 1 1 0 2 1 1 0 0 1 0-2M535 135a1 1 0 1 1 0 2 1 1 0 0 1 0-2M549 135a1 1 0 1 1 0 2 1 1 0 0 1 0-2M563 135a1 1 0 1 1 0 2 1 1 0 0 1 0-2M577 135a1 1 0 1 1 0 2 1 1 0 0 1 0-2M591 135a1 1 0 1 1 0 2 1 1 0 0 1 0-2M605 135a1 1 0 1 1 0 2 1 1 0 0 1 0-2M619 135a1 1 0 1 1 0 2 1 1 0 0 1 0-2M633 135a1 1 0 1 1 0 2 1 1 0 0 1 0-2M647 135a1 1 0 1 1 0 2 1 1 0 0 1 0-2M661 135a1 1 0 1 1 0 2 1 1 0 0 1 0-2M675 135a1 1 0 1 1 0 2 1 1 0 0 1 0-2M689 135a1 1 0 1 1 0 2 1 1 0 0 1 0-2M703 135a1 1 0 1 1 0 2 1 1 0 0 1 0-2M717 135a1 1 0 1 1 0 2 1 1 0 0 1 0-2M-11 121a1 1 0 1 1 0 2 1 1 0 0 1 0-2M3 121a1 1 0 1 1 0 2 1 1 0 0 1 0-2M17 121a1 1 0 1 1 0 2 1 1 0 0 1 0-2M31 121a1 1 0 1 1 0 2 1 1 0 0 1 0-2M45 121a1 1 0 1 1 0 2 1 1 0 0 1 0-2M59 121a1 1 0 1 1 0 2 1 1 0 0 1 0-2M73 121a1 1 0 1 1 0 2 1 1 0 0 1 0-2M87 121a1 1 0 1 1 0 2 1 1 0 0 1 0-2M101 121a1 1 0 1 1 0 2 1 1 0 0 1 0-2M115 121a1 1 0 1 1 0 2 1 1 0 0 1 0-2M129 121a1 1 0 1 1 0 2 1 1 0 0 1 0-2M143 121a1 1 0 1 1 0 2 1 1 0 0 1 0-2M157 121a1 1 0 1 1 0 2 1 1 0 0 1 0-2M171 121a1 1 0 1 1 0 2 1 1 0 0 1 0-2M185 121a1 1 0 1 1 0 2 1 1 0 0 1 0-2M199 121a1 1 0 1 1 0 2 1 1 0 0 1 0-2M213 121a1 1 0 1 1 0 2 1 1 0 0 1 0-2M227 121a1 1 0 1 1 0 2 1 1 0 0 1 0-2M241 121a1 1 0 1 1 0 2 1 1 0 0 1 0-2M255 121a1 1 0 1 1 0 2 1 1 0 0 1 0-2M269 121a1 1 0 1 1 0 2 1 1 0 0 1 0-2M283 121a1 1 0 1 1 0 2 1 1 0 0 1 0-2M297 121a1 1 0 1 1 0 2 1 1 0 0 1 0-2M311 121a1 1 0 1 1 0 2 1 1 0 0 1 0-2M325 121a1 1 0 1 1 0 2 1 1 0 0 1 0-2M339 121a1 1 0 1 1 0 2 1 1 0 0 1 0-2M353 121a1 1 0 1 1 0 2 1 1 0 0 1 0-2M367 121a1 1 0 1 1 0 2 1 1 0 0 1 0-2M381 121a1 1 0 1 1 0 2 1 1 0 0 1 0-2M395 121a1 1 0 1 1 0 2 1 1 0 0 1 0-2M409 121a1 1 0 1 1 0 2 1 1 0 0 1 0-2M423 121a1 1 0 1 1 0 2 1 1 0 0 1 0-2M437 121a1 1 0 1 1 0 2 1 1 0 0 1 0-2M451 121a1 1 0 1 1 0 2 1 1 0 0 1 0-2M465 121a1 1 0 1 1 0 2 1 1 0 0 1 0-2M479 121a1 1 0 1 1 0 2 1 1 0 0 1 0-2M493 121a1 1 0 1 1 0 2 1 1 0 0 1 0-2M507 121a1 1 0 1 1 0 2 1 1 0 0 1 0-2M521 121a1 1 0 1 1 0 2 1 1 0 0 1 0-2M535 121a1 1 0 1 1 0 2 1 1 0 0 1 0-2M549 121a1 1 0 1 1 0 2 1 1 0 0 1 0-2M563 121a1 1 0 1 1 0 2 1 1 0 0 1 0-2M577 121a1 1 0 1 1 0 2 1 1 0 0 1 0-2M591 121a1 1 0 1 1 0 2 1 1 0 0 1 0-2M605 121a1 1 0 1 1 0 2 1 1 0 0 1 0-2M619 121a1 1 0 1 1 0 2 1 1 0 0 1 0-2M633 121a1 1 0 1 1 0 2 1 1 0 0 1 0-2M647 121a1 1 0 1 1 0 2 1 1 0 0 1 0-2M661 121a1 1 0 1 1 0 2 1 1 0 0 1 0-2M675 121a1 1 0 1 1 0 2 1 1 0 0 1 0-2M689 121a1 1 0 1 1 0 2 1 1 0 0 1 0-2M703 121a1 1 0 1 1 0 2 1 1 0 0 1 0-2M717 121a1 1 0 1 1 0 2 1 1 0 0 1 0-2M-11 107a1 1 0 1 1 0 2 1 1 0 0 1 0-2M3 107a1 1 0 1 1 0 2 1 1 0 0 1 0-2M17 107a1 1 0 1 1 0 2 1 1 0 0 1 0-2M31 107a1 1 0 1 1 0 2 1 1 0 0 1 0-2M45 107a1 1 0 1 1 0 2 1 1 0 0 1 0-2M59 107a1 1 0 1 1 0 2 1 1 0 0 1 0-2M73 107a1 1 0 1 1 0 2 1 1 0 0 1 0-2M87 107a1 1 0 1 1 0 2 1 1 0 0 1 0-2M101 107a1 1 0 1 1 0 2 1 1 0 0 1 0-2M115 107a1 1 0 1 1 0 2 1 1 0 0 1 0-2M129 107a1 1 0 1 1 0 2 1 1 0 0 1 0-2M143 107a1 1 0 1 1 0 2 1 1 0 0 1 0-2M157 107a1 1 0 1 1 0 2 1 1 0 0 1 0-2M171 107a1 1 0 1 1 0 2 1 1 0 0 1 0-2M185 107a1 1 0 1 1 0 2 1 1 0 0 1 0-2M199 107a1 1 0 1 1 0 2 1 1 0 0 1 0-2M213 107a1 1 0 1 1 0 2 1 1 0 0 1 0-2M227 107a1 1 0 1 1 0 2 1 1 0 0 1 0-2M241 107a1 1 0 1 1 0 2 1 1 0 0 1 0-2M255 107a1 1 0 1 1 0 2 1 1 0 0 1 0-2M269 107a1 1 0 1 1 0 2 1 1 0 0 1 0-2M283 107a1 1 0 1 1 0 2 1 1 0 0 1 0-2M297 107a1 1 0 1 1 0 2 1 1 0 0 1 0-2M311 107a1 1 0 1 1 0 2 1 1 0 0 1 0-2M325 107a1 1 0 1 1 0 2 1 1 0 0 1 0-2M339 107a1 1 0 1 1 0 2 1 1 0 0 1 0-2M353 107a1 1 0 1 1 0 2 1 1 0 0 1 0-2M367 107a1 1 0 1 1 0 2 1 1 0 0 1 0-2M381 107a1 1 0 1 1 0 2 1 1 0 0 1 0-2M395 107a1 1 0 1 1 0 2 1 1 0 0 1 0-2M409 107a1 1 0 1 1 0 2 1 1 0 0 1 0-2M423 107a1 1 0 1 1 0 2 1 1 0 0 1 0-2M437 107a1 1 0 1 1 0 2 1 1 0 0 1 0-2M451 107a1 1 0 1 1 0 2 1 1 0 0 1 0-2M465 107a1 1 0 1 1 0 2 1 1 0 0 1 0-2M479 107a1 1 0 1 1 0 2 1 1 0 0 1 0-2M493 107a1 1 0 1 1 0 2 1 1 0 0 1 0-2M507 107a1 1 0 1 1 0 2 1 1 0 0 1 0-2M521 107a1 1 0 1 1 0 2 1 1 0 0 1 0-2M535 107a1 1 0 1 1 0 2 1 1 0 0 1 0-2M549 107a1 1 0 1 1 0 2 1 1 0 0 1 0-2M563 107a1 1 0 1 1 0 2 1 1 0 0 1 0-2M577 107a1 1 0 1 1 0 2 1 1 0 0 1 0-2M591 107a1 1 0 1 1 0 2 1 1 0 0 1 0-2M605 107a1 1 0 1 1 0 2 1 1 0 0 1 0-2M619 107a1 1 0 1 1 0 2 1 1 0 0 1 0-2M633 107a1 1 0 1 1 0 2 1 1 0 0 1 0-2M647 107a1 1 0 1 1 0 2 1 1 0 0 1 0-2M661 107a1 1 0 1 1 0 2 1 1 0 0 1 0-2M675 107a1 1 0 1 1 0 2 1 1 0 0 1 0-2M689 107a1 1 0 1 1 0 2 1 1 0 0 1 0-2M703 107a1 1 0 1 1 0 2 1 1 0 0 1 0-2M717 107a1 1 0 1 1 0 2 1 1 0 0 1 0-2M-11 93a1 1 0 1 1 0 2 1 1 0 0 1 0-2M3 93a1 1 0 1 1 0 2 1 1 0 0 1 0-2M17 93a1 1 0 1 1 0 2 1 1 0 0 1 0-2M31 93a1 1 0 1 1 0 2 1 1 0 0 1 0-2M45 93a1 1 0 1 1 0 2 1 1 0 0 1 0-2M59 93a1 1 0 1 1 0 2 1 1 0 0 1 0-2M73 93a1 1 0 1 1 0 2 1 1 0 0 1 0-2M87 93a1 1 0 1 1 0 2 1 1 0 0 1 0-2M101 93a1 1 0 1 1 0 2 1 1 0 0 1 0-2M115 93a1 1 0 1 1 0 2 1 1 0 0 1 0-2M129 93a1 1 0 1 1 0 2 1 1 0 0 1 0-2M143 93a1 1 0 1 1 0 2 1 1 0 0 1 0-2M157 93a1 1 0 1 1 0 2 1 1 0 0 1 0-2M171 93a1 1 0 1 1 0 2 1 1 0 0 1 0-2M185 93a1 1 0 1 1 0 2 1 1 0 0 1 0-2M199 93a1 1 0 1 1 0 2 1 1 0 0 1 0-2M213 93a1 1 0 1 1 0 2 1 1 0 0 1 0-2M227 93a1 1 0 1 1 0 2 1 1 0 0 1 0-2M241 93a1 1 0 1 1 0 2 1 1 0 0 1 0-2M255 93a1 1 0 1 1 0 2 1 1 0 0 1 0-2M269 93a1 1 0 1 1 0 2 1 1 0 0 1 0-2M283 93a1 1 0 1 1 0 2 1 1 0 0 1 0-2M297 93a1 1 0 1 1 0 2 1 1 0 0 1 0-2M311 93a1 1 0 1 1 0 2 1 1 0 0 1 0-2M325 93a1 1 0 1 1 0 2 1 1 0 0 1 0-2M339 93a1 1 0 1 1 0 2 1 1 0 0 1 0-2M353 93a1 1 0 1 1 0 2 1 1 0 0 1 0-2M367 93a1 1 0 1 1 0 2 1 1 0 0 1 0-2M381 93a1 1 0 1 1 0 2 1 1 0 0 1 0-2M395 93a1 1 0 1 1 0 2 1 1 0 0 1 0-2M409 93a1 1 0 1 1 0 2 1 1 0 0 1 0-2M423 93a1 1 0 1 1 0 2 1 1 0 0 1 0-2M437 93a1 1 0 1 1 0 2 1 1 0 0 1 0-2M451 93a1 1 0 1 1 0 2 1 1 0 0 1 0-2M465 93a1 1 0 1 1 0 2 1 1 0 0 1 0-2M479 93a1 1 0 1 1 0 2 1 1 0 0 1 0-2M493 93a1 1 0 1 1 0 2 1 1 0 0 1 0-2M507 93a1 1 0 1 1 0 2 1 1 0 0 1 0-2M521 93a1 1 0 1 1 0 2 1 1 0 0 1 0-2M535 93a1 1 0 1 1 0 2 1 1 0 0 1 0-2M549 93a1 1 0 1 1 0 2 1 1 0 0 1 0-2M563 93a1 1 0 1 1 0 2 1 1 0 0 1 0-2M577 93a1 1 0 1 1 0 2 1 1 0 0 1 0-2M591 93a1 1 0 1 1 0 2 1 1 0 0 1 0-2M605 93a1 1 0 1 1 0 2 1 1 0 0 1 0-2M619 93a1 1 0 1 1 0 2 1 1 0 0 1 0-2M633 93a1 1 0 1 1 0 2 1 1 0 0 1 0-2M647 93a1 1 0 1 1 0 2 1 1 0 0 1 0-2M661 93a1 1 0 1 1 0 2 1 1 0 0 1 0-2M675 93a1 1 0 1 1 0 2 1 1 0 0 1 0-2M689 93a1 1 0 1 1 0 2 1 1 0 0 1 0-2M703 93a1 1 0 1 1 0 2 1 1 0 0 1 0-2M717 93a1 1 0 1 1 0 2 1 1 0 0 1 0-2M-11 79a1 1 0 1 1 0 2 1 1 0 0 1 0-2M3 79a1 1 0 1 1 0 2 1 1 0 0 1 0-2M17 79a1 1 0 1 1 0 2 1 1 0 0 1 0-2M31 79a1 1 0 1 1 0 2 1 1 0 0 1 0-2M45 79a1 1 0 1 1 0 2 1 1 0 0 1 0-2M59 79a1 1 0 1 1 0 2 1 1 0 0 1 0-2M73 79a1 1 0 1 1 0 2 1 1 0 0 1 0-2M87 79a1 1 0 1 1 0 2 1 1 0 0 1 0-2M101 79a1 1 0 1 1 0 2 1 1 0 0 1 0-2M115 79a1 1 0 1 1 0 2 1 1 0 0 1 0-2M129 79a1 1 0 1 1 0 2 1 1 0 0 1 0-2M143 79a1 1 0 1 1 0 2 1 1 0 0 1 0-2M157 79a1 1 0 1 1 0 2 1 1 0 0 1 0-2M171 79a1 1 0 1 1 0 2 1 1 0 0 1 0-2M185 79a1 1 0 1 1 0 2 1 1 0 0 1 0-2M199 79a1 1 0 1 1 0 2 1 1 0 0 1 0-2M213 79a1 1 0 1 1 0 2 1 1 0 0 1 0-2M227 79a1 1 0 1 1 0 2 1 1 0 0 1 0-2M241 79a1 1 0 1 1 0 2 1 1 0 0 1 0-2M255 79a1 1 0 1 1 0 2 1 1 0 0 1 0-2M269 79a1 1 0 1 1 0 2 1 1 0 0 1 0-2M283 79a1 1 0 1 1 0 2 1 1 0 0 1 0-2M297 79a1 1 0 1 1 0 2 1 1 0 0 1 0-2M311 79a1 1 0 1 1 0 2 1 1 0 0 1 0-2M325 79a1 1 0 1 1 0 2 1 1 0 0 1 0-2M339 79a1 1 0 1 1 0 2 1 1 0 0 1 0-2M353 79a1 1 0 1 1 0 2 1 1 0 0 1 0-2M367 79a1 1 0 1 1 0 2 1 1 0 0 1 0-2M381 79a1 1 0 1 1 0 2 1 1 0 0 1 0-2M395 79a1 1 0 1 1 0 2 1 1 0 0 1 0-2M409 79a1 1 0 1 1 0 2 1 1 0 0 1 0-2M423 79a1 1 0 1 1 0 2 1 1 0 0 1 0-2M437 79a1 1 0 1 1 0 2 1 1 0 0 1 0-2M451 79a1 1 0 1 1 0 2 1 1 0 0 1 0-2M465 79a1 1 0 1 1 0 2 1 1 0 0 1 0-2M479 79a1 1 0 1 1 0 2 1 1 0 0 1 0-2M493 79a1 1 0 1 1 0 2 1 1 0 0 1 0-2M507 79a1 1 0 1 1 0 2 1 1 0 0 1 0-2M521 79a1 1 0 1 1 0 2 1 1 0 0 1 0-2M535 79a1 1 0 1 1 0 2 1 1 0 0 1 0-2M549 79a1 1 0 1 1 0 2 1 1 0 0 1 0-2M563 79a1 1 0 1 1 0 2 1 1 0 0 1 0-2M577 79a1 1 0 1 1 0 2 1 1 0 0 1 0-2M591 79a1 1 0 1 1 0 2 1 1 0 0 1 0-2M605 79a1 1 0 1 1 0 2 1 1 0 0 1 0-2M619 79a1 1 0 1 1 0 2 1 1 0 0 1 0-2M633 79a1 1 0 1 1 0 2 1 1 0 0 1 0-2M647 79a1 1 0 1 1 0 2 1 1 0 0 1 0-2M661 79a1 1 0 1 1 0 2 1 1 0 0 1 0-2M675 79a1 1 0 1 1 0 2 1 1 0 0 1 0-2M689 79a1 1 0 1 1 0 2 1 1 0 0 1 0-2M703 79a1 1 0 1 1 0 2 1 1 0 0 1 0-2M717 79a1 1 0 1 1 0 2 1 1 0 0 1 0-2M-11 65a1 1 0 1 1 0 2 1 1 0 0 1 0-2M3 65a1 1 0 1 1 0 2 1 1 0 0 1 0-2M17 65a1 1 0 1 1 0 2 1 1 0 0 1 0-2M31 65a1 1 0 1 1 0 2 1 1 0 0 1 0-2M45 65a1 1 0 1 1 0 2 1 1 0 0 1 0-2M59 65a1 1 0 1 1 0 2 1 1 0 0 1 0-2M73 65a1 1 0 1 1 0 2 1 1 0 0 1 0-2M87 65a1 1 0 1 1 0 2 1 1 0 0 1 0-2M101 65a1 1 0 1 1 0 2 1 1 0 0 1 0-2M115 65a1 1 0 1 1 0 2 1 1 0 0 1 0-2M129 65a1 1 0 1 1 0 2 1 1 0 0 1 0-2M143 65a1 1 0 1 1 0 2 1 1 0 0 1 0-2M157 65a1 1 0 1 1 0 2 1 1 0 0 1 0-2M171 65a1 1 0 1 1 0 2 1 1 0 0 1 0-2M185 65a1 1 0 1 1 0 2 1 1 0 0 1 0-2M199 65a1 1 0 1 1 0 2 1 1 0 0 1 0-2M213 65a1 1 0 1 1 0 2 1 1 0 0 1 0-2M227 65a1 1 0 1 1 0 2 1 1 0 0 1 0-2M241 65a1 1 0 1 1 0 2 1 1 0 0 1 0-2M255 65a1 1 0 1 1 0 2 1 1 0 0 1 0-2M269 65a1 1 0 1 1 0 2 1 1 0 0 1 0-2M283 65a1 1 0 1 1 0 2 1 1 0 0 1 0-2M297 65a1 1 0 1 1 0 2 1 1 0 0 1 0-2M311 65a1 1 0 1 1 0 2 1 1 0 0 1 0-2M325 65a1 1 0 1 1 0 2 1 1 0 0 1 0-2M339 65a1 1 0 1 1 0 2 1 1 0 0 1 0-2M353 65a1 1 0 1 1 0 2 1 1 0 0 1 0-2M367 65a1 1 0 1 1 0 2 1 1 0 0 1 0-2M381 65a1 1 0 1 1 0 2 1 1 0 0 1 0-2M395 65a1 1 0 1 1 0 2 1 1 0 0 1 0-2M409 65a1 1 0 1 1 0 2 1 1 0 0 1 0-2M423 65a1 1 0 1 1 0 2 1 1 0 0 1 0-2M437 65a1 1 0 1 1 0 2 1 1 0 0 1 0-2M451 65a1 1 0 1 1 0 2 1 1 0 0 1 0-2M465 65a1 1 0 1 1 0 2 1 1 0 0 1 0-2M479 65a1 1 0 1 1 0 2 1 1 0 0 1 0-2M493 65a1 1 0 1 1 0 2 1 1 0 0 1 0-2M507 65a1 1 0 1 1 0 2 1 1 0 0 1 0-2M521 65a1 1 0 1 1 0 2 1 1 0 0 1 0-2M535 65a1 1 0 1 1 0 2 1 1 0 0 1 0-2M549 65a1 1 0 1 1 0 2 1 1 0 0 1 0-2M563 65a1 1 0 1 1 0 2 1 1 0 0 1 0-2M577 65a1 1 0 1 1 0 2 1 1 0 0 1 0-2M591 65a1 1 0 1 1 0 2 1 1 0 0 1 0-2M605 65a1 1 0 1 1 0 2 1 1 0 0 1 0-2M619 65a1 1 0 1 1 0 2 1 1 0 0 1 0-2M633 65a1 1 0 1 1 0 2 1 1 0 0 1 0-2M647 65a1 1 0 1 1 0 2 1 1 0 0 1 0-2M661 65a1 1 0 1 1 0 2 1 1 0 0 1 0-2M675 65a1 1 0 1 1 0 2 1 1 0 0 1 0-2M689 65a1 1 0 1 1 0 2 1 1 0 0 1 0-2M703 65a1 1 0 1 1 0 2 1 1 0 0 1 0-2M717 65a1 1 0 1 1 0 2 1 1 0 0 1 0-2M-11 51a1 1 0 1 1 0 2 1 1 0 0 1 0-2M3 51a1 1 0 1 1 0 2 1 1 0 0 1 0-2M17 51a1 1 0 1 1 0 2 1 1 0 0 1 0-2M31 51a1 1 0 1 1 0 2 1 1 0 0 1 0-2M45 51a1 1 0 1 1 0 2 1 1 0 0 1 0-2M59 51a1 1 0 1 1 0 2 1 1 0 0 1 0-2M73 51a1 1 0 1 1 0 2 1 1 0 0 1 0-2M87 51a1 1 0 1 1 0 2 1 1 0 0 1 0-2M101 51a1 1 0 1 1 0 2 1 1 0 0 1 0-2M115 51a1 1 0 1 1 0 2 1 1 0 0 1 0-2M129 51a1 1 0 1 1 0 2 1 1 0 0 1 0-2M143 51a1 1 0 1 1 0 2 1 1 0 0 1 0-2M157 51a1 1 0 1 1 0 2 1 1 0 0 1 0-2M171 51a1 1 0 1 1 0 2 1 1 0 0 1 0-2M185 51a1 1 0 1 1 0 2 1 1 0 0 1 0-2M199 51a1 1 0 1 1 0 2 1 1 0 0 1 0-2M213 51a1 1 0 1 1 0 2 1 1 0 0 1 0-2M227 51a1 1 0 1 1 0 2 1 1 0 0 1 0-2M241 51a1 1 0 1 1 0 2 1 1 0 0 1 0-2M255 51a1 1 0 1 1 0 2 1 1 0 0 1 0-2M269 51a1 1 0 1 1 0 2 1 1 0 0 1 0-2M283 51a1 1 0 1 1 0 2 1 1 0 0 1 0-2M297 51a1 1 0 1 1 0 2 1 1 0 0 1 0-2M311 51a1 1 0 1 1 0 2 1 1 0 0 1 0-2M325 51a1 1 0 1 1 0 2 1 1 0 0 1 0-2M339 51a1 1 0 1 1 0 2 1 1 0 0 1 0-2M353 51a1 1 0 1 1 0 2 1 1 0 0 1 0-2M367 51a1 1 0 1 1 0 2 1 1 0 0 1 0-2M381 51a1 1 0 1 1 0 2 1 1 0 0 1 0-2M395 51a1 1 0 1 1 0 2 1 1 0 0 1 0-2M409 51a1 1 0 1 1 0 2 1 1 0 0 1 0-2M423 51a1 1 0 1 1 0 2 1 1 0 0 1 0-2M437 51a1 1 0 1 1 0 2 1 1 0 0 1 0-2M451 51a1 1 0 1 1 0 2 1 1 0 0 1 0-2M465 51a1 1 0 1 1 0 2 1 1 0 0 1 0-2M479 51a1 1 0 1 1 0 2 1 1 0 0 1 0-2M493 51a1 1 0 1 1 0 2 1 1 0 0 1 0-2M507 51a1 1 0 1 1 0 2 1 1 0 0 1 0-2M521 51a1 1 0 1 1 0 2 1 1 0 0 1 0-2M535 51a1 1 0 1 1 0 2 1 1 0 0 1 0-2M549 51a1 1 0 1 1 0 2 1 1 0 0 1 0-2M563 51a1 1 0 1 1 0 2 1 1 0 0 1 0-2M577 51a1 1 0 1 1 0 2 1 1 0 0 1 0-2M591 51a1 1 0 1 1 0 2 1 1 0 0 1 0-2M605 51a1 1 0 1 1 0 2 1 1 0 0 1 0-2M619 51a1 1 0 1 1 0 2 1 1 0 0 1 0-2M633 51a1 1 0 1 1 0 2 1 1 0 0 1 0-2M647 51a1 1 0 1 1 0 2 1 1 0 0 1 0-2M661 51a1 1 0 1 1 0 2 1 1 0 0 1 0-2M675 51a1 1 0 1 1 0 2 1 1 0 0 1 0-2M689 51a1 1 0 1 1 0 2 1 1 0 0 1 0-2M703 51a1 1 0 1 1 0 2 1 1 0 0 1 0-2M717 51a1 1 0 1 1 0 2 1 1 0 0 1 0-2M-11 37a1 1 0 1 1 0 2 1 1 0 0 1 0-2M3 37a1 1 0 1 1 0 2 1 1 0 0 1 0-2M17 37a1 1 0 1 1 0 2 1 1 0 0 1 0-2M31 37a1 1 0 1 1 0 2 1 1 0 0 1 0-2M45 37a1 1 0 1 1 0 2 1 1 0 0 1 0-2M59 37a1 1 0 1 1 0 2 1 1 0 0 1 0-2M73 37a1 1 0 1 1 0 2 1 1 0 0 1 0-2M87 37a1 1 0 1 1 0 2 1 1 0 0 1 0-2M101 37a1 1 0 1 1 0 2 1 1 0 0 1 0-2M115 37a1 1 0 1 1 0 2 1 1 0 0 1 0-2M129 37a1 1 0 1 1 0 2 1 1 0 0 1 0-2M143 37a1 1 0 1 1 0 2 1 1 0 0 1 0-2M157 37a1 1 0 1 1 0 2 1 1 0 0 1 0-2M171 37a1 1 0 1 1 0 2 1 1 0 0 1 0-2M185 37a1 1 0 1 1 0 2 1 1 0 0 1 0-2M199 37a1 1 0 1 1 0 2 1 1 0 0 1 0-2M213 37a1 1 0 1 1 0 2 1 1 0 0 1 0-2M227 37a1 1 0 1 1 0 2 1 1 0 0 1 0-2M241 37a1 1 0 1 1 0 2 1 1 0 0 1 0-2M255 37a1 1 0 1 1 0 2 1 1 0 0 1 0-2M269 37a1 1 0 1 1 0 2 1 1 0 0 1 0-2M283 37a1 1 0 1 1 0 2 1 1 0 0 1 0-2M297 37a1 1 0 1 1 0 2 1 1 0 0 1 0-2M311 37a1 1 0 1 1 0 2 1 1 0 0 1 0-2M325 37a1 1 0 1 1 0 2 1 1 0 0 1 0-2M339 37a1 1 0 1 1 0 2 1 1 0 0 1 0-2M353 37a1 1 0 1 1 0 2 1 1 0 0 1 0-2M367 37a1 1 0 1 1 0 2 1 1 0 0 1 0-2M381 37a1 1 0 1 1 0 2 1 1 0 0 1 0-2M395 37a1 1 0 1 1 0 2 1 1 0 0 1 0-2M409 37a1 1 0 1 1 0 2 1 1 0 0 1 0-2M423 37a1 1 0 1 1 0 2 1 1 0 0 1 0-2M437 37a1 1 0 1 1 0 2 1 1 0 0 1 0-2M451 37a1 1 0 1 1 0 2 1 1 0 0 1 0-2M465 37a1 1 0 1 1 0 2 1 1 0 0 1 0-2M479 37a1 1 0 1 1 0 2 1 1 0 0 1 0-2M493 37a1 1 0 1 1 0 2 1 1 0 0 1 0-2M507 37a1 1 0 1 1 0 2 1 1 0 0 1 0-2M521 37a1 1 0 1 1 0 2 1 1 0 0 1 0-2M535 37a1 1 0 1 1 0 2 1 1 0 0 1 0-2M549 37a1 1 0 1 1 0 2 1 1 0 0 1 0-2M563 37a1 1 0 1 1 0 2 1 1 0 0 1 0-2M577 37a1 1 0 1 1 0 2 1 1 0 0 1 0-2M591 37a1 1 0 1 1 0 2 1 1 0 0 1 0-2M605 37a1 1 0 1 1 0 2 1 1 0 0 1 0-2M619 37a1 1 0 1 1 0 2 1 1 0 0 1 0-2M633 37a1 1 0 1 1 0 2 1 1 0 0 1 0-2M647 37a1 1 0 1 1 0 2 1 1 0 0 1 0-2M661 37a1 1 0 1 1 0 2 1 1 0 0 1 0-2M675 37a1 1 0 1 1 0 2 1 1 0 0 1 0-2M689 37a1 1 0 1 1 0 2 1 1 0 0 1 0-2M703 37a1 1 0 1 1 0 2 1 1 0 0 1 0-2M717 37a1 1 0 1 1 0 2 1 1 0 0 1 0-2M-11 23a1 1 0 1 1 0 2 1 1 0 0 1 0-2M3 23a1 1 0 1 1 0 2 1 1 0 0 1 0-2M17 23a1 1 0 1 1 0 2 1 1 0 0 1 0-2M31 23a1 1 0 1 1 0 2 1 1 0 0 1 0-2M45 23a1 1 0 1 1 0 2 1 1 0 0 1 0-2M59 23a1 1 0 1 1 0 2 1 1 0 0 1 0-2M73 23a1 1 0 1 1 0 2 1 1 0 0 1 0-2M87 23a1 1 0 1 1 0 2 1 1 0 0 1 0-2M101 23a1 1 0 1 1 0 2 1 1 0 0 1 0-2M115 23a1 1 0 1 1 0 2 1 1 0 0 1 0-2M129 23a1 1 0 1 1 0 2 1 1 0 0 1 0-2M143 23a1 1 0 1 1 0 2 1 1 0 0 1 0-2M157 23a1 1 0 1 1 0 2 1 1 0 0 1 0-2M171 23a1 1 0 1 1 0 2 1 1 0 0 1 0-2M185 23a1 1 0 1 1 0 2 1 1 0 0 1 0-2M199 23a1 1 0 1 1 0 2 1 1 0 0 1 0-2M213 23a1 1 0 1 1 0 2 1 1 0 0 1 0-2M227 23a1 1 0 1 1 0 2 1 1 0 0 1 0-2M241 23a1 1 0 1 1 0 2 1 1 0 0 1 0-2M255 23a1 1 0 1 1 0 2 1 1 0 0 1 0-2M269 23a1 1 0 1 1 0 2 1 1 0 0 1 0-2M283 23a1 1 0 1 1 0 2 1 1 0 0 1 0-2M297 23a1 1 0 1 1 0 2 1 1 0 0 1 0-2M311 23a1 1 0 1 1 0 2 1 1 0 0 1 0-2M325 23a1 1 0 1 1 0 2 1 1 0 0 1 0-2M339 23a1 1 0 1 1 0 2 1 1 0 0 1 0-2M353 23a1 1 0 1 1 0 2 1 1 0 0 1 0-2M367 23a1 1 0 1 1 0 2 1 1 0 0 1 0-2M381 23a1 1 0 1 1 0 2 1 1 0 0 1 0-2M395 23a1 1 0 1 1 0 2 1 1 0 0 1 0-2M409 23a1 1 0 1 1 0 2 1 1 0 0 1 0-2M423 23a1 1 0 1 1 0 2 1 1 0 0 1 0-2M437 23a1 1 0 1 1 0 2 1 1 0 0 1 0-2M451 23a1 1 0 1 1 0 2 1 1 0 0 1 0-2M465 23a1 1 0 1 1 0 2 1 1 0 0 1 0-2M479 23a1 1 0 1 1 0 2 1 1 0 0 1 0-2M493 23a1 1 0 1 1 0 2 1 1 0 0 1 0-2M507 23a1 1 0 1 1 0 2 1 1 0 0 1 0-2M521 23a1 1 0 1 1 0 2 1 1 0 0 1 0-2M535 23a1 1 0 1 1 0 2 1 1 0 0 1 0-2M549 23a1 1 0 1 1 0 2 1 1 0 0 1 0-2M563 23a1 1 0 1 1 0 2 1 1 0 0 1 0-2M577 23a1 1 0 1 1 0 2 1 1 0 0 1 0-2M591 23a1 1 0 1 1 0 2 1 1 0 0 1 0-2M605 23a1 1 0 1 1 0 2 1 1 0 0 1 0-2M619 23a1 1 0 1 1 0 2 1 1 0 0 1 0-2M633 23a1 1 0 1 1 0 2 1 1 0 0 1 0-2M647 23a1 1 0 1 1 0 2 1 1 0 0 1 0-2M661 23a1 1 0 1 1 0 2 1 1 0 0 1 0-2M675 23a1 1 0 1 1 0 2 1 1 0 0 1 0-2M689 23a1 1 0 1 1 0 2 1 1 0 0 1 0-2M703 23a1 1 0 1 1 0 2 1 1 0 0 1 0-2M717 23a1 1 0 1 1 0 2 1 1 0 0 1 0-2M-11 9a1 1 0 1 1 0 2 1 1 0 0 1 0-2M3 9a1 1 0 1 1 0 2 1 1 0 0 1 0-2M17 9a1 1 0 1 1 0 2 1 1 0 0 1 0-2M31 9a1 1 0 1 1 0 2 1 1 0 0 1 0-2M45 9a1 1 0 1 1 0 2 1 1 0 0 1 0-2M59 9a1 1 0 1 1 0 2 1 1 0 0 1 0-2M73 9a1 1 0 1 1 0 2 1 1 0 0 1 0-2M87 9a1 1 0 1 1 0 2 1 1 0 0 1 0-2M101 9a1 1 0 1 1 0 2 1 1 0 0 1 0-2M115 9a1 1 0 1 1 0 2 1 1 0 0 1 0-2M129 9a1 1 0 1 1 0 2 1 1 0 0 1 0-2M143 9a1 1 0 1 1 0 2 1 1 0 0 1 0-2M157 9a1 1 0 1 1 0 2 1 1 0 0 1 0-2M171 9a1 1 0 1 1 0 2 1 1 0 0 1 0-2M185 9a1 1 0 1 1 0 2 1 1 0 0 1 0-2M199 9a1 1 0 1 1 0 2 1 1 0 0 1 0-2M213 9a1 1 0 1 1 0 2 1 1 0 0 1 0-2M227 9a1 1 0 1 1 0 2 1 1 0 0 1 0-2M241 9a1 1 0 1 1 0 2 1 1 0 0 1 0-2M255 9a1 1 0 1 1 0 2 1 1 0 0 1 0-2M269 9a1 1 0 1 1 0 2 1 1 0 0 1 0-2M283 9a1 1 0 1 1 0 2 1 1 0 0 1 0-2M297 9a1 1 0 1 1 0 2 1 1 0 0 1 0-2M311 9a1 1 0 1 1 0 2 1 1 0 0 1 0-2M325 9a1 1 0 1 1 0 2 1 1 0 0 1 0-2M339 9a1 1 0 1 1 0 2 1 1 0 0 1 0-2M353 9a1 1 0 1 1 0 2 1 1 0 0 1 0-2M367 9a1 1 0 1 1 0 2 1 1 0 0 1 0-2M381 9a1 1 0 1 1 0 2 1 1 0 0 1 0-2M395 9a1 1 0 1 1 0 2 1 1 0 0 1 0-2M409 9a1 1 0 1 1 0 2 1 1 0 0 1 0-2M423 9a1 1 0 1 1 0 2 1 1 0 0 1 0-2M437 9a1 1 0 1 1 0 2 1 1 0 0 1 0-2M451 9a1 1 0 1 1 0 2 1 1 0 0 1 0-2M465 9a1 1 0 1 1 0 2 1 1 0 0 1 0-2M479 9a1 1 0 1 1 0 2 1 1 0 0 1 0-2M493 9a1 1 0 1 1 0 2 1 1 0 0 1 0-2M507 9a1 1 0 1 1 0 2 1 1 0 0 1 0-2M521 9a1 1 0 1 1 0 2 1 1 0 0 1 0-2M535 9a1 1 0 1 1 0 2 1 1 0 0 1 0-2M549 9a1 1 0 1 1 0 2 1 1 0 0 1 0-2M563 9a1 1 0 1 1 0 2 1 1 0 0 1 0-2M577 9a1 1 0 1 1 0 2 1 1 0 0 1 0-2M591 9a1 1 0 1 1 0 2 1 1 0 0 1 0-2M605 9a1 1 0 1 1 0 2 1 1 0 0 1 0-2M619 9a1 1 0 1 1 0 2 1 1 0 0 1 0-2M633 9a1 1 0 1 1 0 2 1 1 0 0 1 0-2M647 9a1 1 0 1 1 0 2 1 1 0 0 1 0-2M661 9a1 1 0 1 1 0 2 1 1 0 0 1 0-2M675 9a1 1 0 1 1 0 2 1 1 0 0 1 0-2M689 9a1 1 0 1 1 0 2 1 1 0 0 1 0-2M703 9a1 1 0 1 1 0 2 1 1 0 0 1 0-2M717 9a1 1 0 1 1 0 2 1 1 0 0 1 0-2M-11-5a1 1 0 1 1 0 2 1 1 0 0 1 0-2M3-5a1 1 0 1 1 0 2 1 1 0 0 1 0-2M17-5a1 1 0 1 1 0 2 1 1 0 0 1 0-2M31-5a1 1 0 1 1 0 2 1 1 0 0 1 0-2M45-5a1 1 0 1 1 0 2 1 1 0 0 1 0-2M59-5a1 1 0 1 1 0 2 1 1 0 0 1 0-2M73-5a1 1 0 1 1 0 2 1 1 0 0 1 0-2M87-5a1 1 0 1 1 0 2 1 1 0 0 1 0-2M101-5a1 1 0 1 1 0 2 1 1 0 0 1 0-2M115-5a1 1 0 1 1 0 2 1 1 0 0 1 0-2M129-5a1 1 0 1 1 0 2 1 1 0 0 1 0-2M143-5a1 1 0 1 1 0 2 1 1 0 0 1 0-2M157-5a1 1 0 1 1 0 2 1 1 0 0 1 0-2M171-5a1 1 0 1 1 0 2 1 1 0 0 1 0-2M185-5a1 1 0 1 1 0 2 1 1 0 0 1 0-2M199-5a1 1 0 1 1 0 2 1 1 0 0 1 0-2M213-5a1 1 0 1 1 0 2 1 1 0 0 1 0-2M227-5a1 1 0 1 1 0 2 1 1 0 0 1 0-2M241-5a1 1 0 1 1 0 2 1 1 0 0 1 0-2M255-5a1 1 0 1 1 0 2 1 1 0 0 1 0-2M269-5a1 1 0 1 1 0 2 1 1 0 0 1 0-2M283-5a1 1 0 1 1 0 2 1 1 0 0 1 0-2M297-5a1 1 0 1 1 0 2 1 1 0 0 1 0-2M311-5a1 1 0 1 1 0 2 1 1 0 0 1 0-2M325-5a1 1 0 1 1 0 2 1 1 0 0 1 0-2M339-5a1 1 0 1 1 0 2 1 1 0 0 1 0-2M353-5a1 1 0 1 1 0 2 1 1 0 0 1 0-2M367-5a1 1 0 1 1 0 2 1 1 0 0 1 0-2M381-5a1 1 0 1 1 0 2 1 1 0 0 1 0-2M395-5a1 1 0 1 1 0 2 1 1 0 0 1 0-2M409-5a1 1 0 1 1 0 2 1 1 0 0 1 0-2M423-5a1 1 0 1 1 0 2 1 1 0 0 1 0-2M437-5a1 1 0 1 1 0 2 1 1 0 0 1 0-2M451-5a1 1 0 1 1 0 2 1 1 0 0 1 0-2M465-5a1 1 0 1 1 0 2 1 1 0 0 1 0-2M479-5a1 1 0 1 1 0 2 1 1 0 0 1 0-2M493-5a1 1 0 1 1 0 2 1 1 0 0 1 0-2M507-5a1 1 0 1 1 0 2 1 1 0 0 1 0-2M521-5a1 1 0 1 1 0 2 1 1 0 0 1 0-2M535-5a1 1 0 1 1 0 2 1 1 0 0 1 0-2M549-5a1 1 0 1 1 0 2 1 1 0 0 1 0-2M563-5a1 1 0 1 1 0 2 1 1 0 0 1 0-2M577-5a1 1 0 1 1 0 2 1 1 0 0 1 0-2M591-5a1 1 0 1 1 0 2 1 1 0 0 1 0-2M605-5a1 1 0 1 1 0 2 1 1 0 0 1 0-2M619-5a1 1 0 1 1 0 2 1 1 0 0 1 0-2M633-5a1 1 0 1 1 0 2 1 1 0 0 1 0-2M647-5a1 1 0 1 1 0 2 1 1 0 0 1 0-2M661-5a1 1 0 1 1 0 2 1 1 0 0 1 0-2M675-5a1 1 0 1 1 0 2 1 1 0 0 1 0-2M689-5a1 1 0 1 1 0 2 1 1 0 0 1 0-2M703-5a1 1 0 1 1 0 2 1 1 0 0 1 0-2M717-5a1 1 0 1 1 0 2 1 1 0 0 1 0-2"/></g><rect width="359.5" height="77.5" x="173.25" y="22.25" fill="#888c96" fill-opacity=".04" rx="3.75"/><rect width="359.5" height="77.5" x="173.25" y="22.25" stroke="#888c96" stroke-dasharray="6 6" stroke-width=".5" rx="3.75"/><path fill="#353841" d="M187 14.25h69c.966 0 1.75.784 1.75 1.75v12a1.75 1.75 0 0 1-1.75 1.75h-69a1.75 1.75 0 0 1-1.75-1.75V16c0-.966.784-1.75 1.75-1.75"/><path stroke="#888c96" stroke-width=".5" d="M187 14.25h69c.966 0 1.75.784 1.75 1.75v12a1.75 1.75 0 0 1-1.75 1.75h-69a1.75 1.75 0 0 1-1.75-1.75V16c0-.966.784-1.75 1.75-1.75Z"/><path fill="#fff" d="M193.67 20.727a.97.97 0 0 0-.419-.725q-.366-.26-.952-.26-.412 0-.707.125a1.05 1.05 0 0 0-.451.337.82.82 0 0 0-.159.487q0 .228.103.394a.9.9 0 0 0 .287.284q.182.114.401.192t.444.131l.682.17q.412.097.792.26.384.164.685.412.306.249.483.6.178.353.178.824 0 .64-.327 1.126-.326.483-.944.756-.615.27-1.488.27-.849 0-1.474-.263a2.2 2.2 0 0 1-.973-.767q-.348-.504-.376-1.228h1.296q.029.38.234.632t.536.376q.334.124.746.124.43 0 .753-.128.327-.13.511-.362a.87.87 0 0 0 .188-.547.7.7 0 0 0-.166-.468 1.2 1.2 0 0 0-.459-.313 4.4 4.4 0 0 0-.681-.227l-.828-.213q-.898-.23-1.42-.7-.519-.472-.519-1.253 0-.643.348-1.126.352-.483.956-.75.603-.27 1.367-.27.774 0 1.356.27.587.267.92.743.334.472.345 1.087zM196.155 26v-5.454h1.285V26zm.646-6.229a.75.75 0 0 1-.526-.202.66.66 0 0 1-.22-.494q0-.29.22-.493a.74.74 0 0 1 .526-.206q.309 0 .526.206.22.203.22.493a.66.66 0 0 1-.22.494.74.74 0 0 1-.526.202m3.247 3.033V26h-1.286v-5.454h1.229v.926h.064q.188-.458.6-.728.415-.27 1.026-.27.565 0 .984.242.422.24.653.7.234.457.231 1.111V26h-1.286v-3.274q0-.547-.284-.856-.28-.309-.777-.309-.338 0-.6.15a1.04 1.04 0 0 0-.409.422 1.4 1.4 0 0 0-.145.671m7.18 5.355q-.692 0-1.19-.188a2.1 2.1 0 0 1-.799-.497 1.7 1.7 0 0 1-.419-.693l1.158-.28q.078.16.227.316.15.16.402.262.255.108.642.107.548 0 .906-.266.358-.263.358-.867V25.02h-.063a1.9 1.9 0 0 1-.292.408q-.188.21-.5.352-.31.142-.778.142-.629 0-1.14-.295a2.1 2.1 0 0 1-.81-.888q-.298-.593-.298-1.484 0-.898.298-1.516.303-.622.814-.941.51-.324 1.14-.324.479 0 .788.164.312.159.497.387.185.224.281.422h.071v-.901h1.267v5.543q0 .7-.333 1.157a2 2 0 0 1-.913.686 3.6 3.6 0 0 1-1.314.227m.011-3.246q.408 0 .696-.198.287-.2.436-.572.15-.373.15-.895 0-.515-.15-.902a1.3 1.3 0 0 0-.433-.6 1.12 1.12 0 0 0-.699-.217q-.43 0-.718.224-.287.224-.433.614a2.5 2.5 0 0 0-.146.88q0 .502.146.878.15.373.437.582.291.207.714.206m5.152-6.186V26h-1.285v-7.273zm3.737 7.38q-.82 0-1.417-.341a2.3 2.3 0 0 1-.913-.973q-.32-.633-.319-1.488 0-.842.319-1.478.324-.639.902-.994.58-.359 1.361-.359.504 0 .951.164.451.16.796.497.348.337.547.86.198.518.198 1.235v.394h-4.47v-.866h3.238a1.4 1.4 0 0 0-.16-.657 1.16 1.16 0 0 0-.436-.458 1.23 1.23 0 0 0-.647-.167q-.393 0-.692.192a1.3 1.3 0 0 0-.465.497 1.4 1.4 0 0 0-.167.67v.757q0 .477.174.817.174.338.486.519.313.177.732.177.28 0 .508-.078a1.1 1.1 0 0 0 .394-.238 1 1 0 0 0 .252-.387l1.2.135q-.114.476-.433.83a2.1 2.1 0 0 1-.81.548 3.1 3.1 0 0 1-1.129.192m10.003-5.38a.97.97 0 0 0-.419-.725q-.366-.26-.952-.26-.412 0-.707.125a1.05 1.05 0 0 0-.451.337.83.83 0 0 0-.16.487q0 .228.103.394a.94.94 0 0 0 .288.284q.182.114.401.192t.444.131l.682.17q.412.097.792.26.384.164.685.412.306.249.483.6.178.353.178.824 0 .64-.327 1.126-.327.483-.944.756-.615.27-1.488.27-.849 0-1.474-.263a2.2 2.2 0 0 1-.973-.767q-.348-.504-.377-1.228h1.297q.029.38.234.632t.536.376q.334.124.746.124.429 0 .753-.128.327-.13.511-.362a.87.87 0 0 0 .188-.547.7.7 0 0 0-.167-.468 1.2 1.2 0 0 0-.458-.313 4.4 4.4 0 0 0-.681-.227l-.828-.213q-.898-.23-1.42-.7-.519-.472-.519-1.253 0-.643.348-1.126.352-.483.956-.75.603-.27 1.367-.27.774 0 1.356.27.586.267.92.743.334.472.344 1.087zm4.899 5.38q-.82 0-1.417-.341a2.3 2.3 0 0 1-.912-.973q-.32-.633-.32-1.488 0-.842.32-1.478.323-.639.902-.994.579-.359 1.36-.359.504 0 .952.164.45.16.795.497.348.337.547.86.2.518.199 1.235v.394h-4.471v-.866h3.239a1.4 1.4 0 0 0-.16-.657 1.16 1.16 0 0 0-.437-.458 1.23 1.23 0 0 0-.646-.167q-.394 0-.693.192a1.3 1.3 0 0 0-.465.497 1.4 1.4 0 0 0-.167.67v.757q0 .477.174.817.174.338.487.519.312.177.731.177.28 0 .508-.078a1.1 1.1 0 0 0 .394-.238 1 1 0 0 0 .252-.387l1.201.135a1.9 1.9 0 0 1-.434.83q-.315.353-.809.548a3.1 3.1 0 0 1-1.13.192m3.513-.107v-5.454h1.247v.909h.057q.148-.473.511-.728.366-.26.834-.26.107 0 .238.011.135.007.224.025v1.182a1.3 1.3 0 0 0-.259-.05 2.4 2.4 0 0 0-.337-.024q-.352 0-.633.152-.276.15-.436.416t-.16.614V26zm9.003-5.454L241.604 26h-1.421l-1.942-5.454h1.371l1.253 4.051h.057l1.257-4.052zm3.119 5.56q-.82 0-1.417-.34a2.3 2.3 0 0 1-.912-.973q-.32-.633-.32-1.488 0-.842.32-1.478.323-.639.902-.994.578-.359 1.36-.359.504 0 .951.164.451.16.796.497.348.337.547.86.199.518.199 1.235v.394h-4.471v-.866h3.238a1.4 1.4 0 0 0-.159-.657 1.17 1.17 0 0 0-.437-.458 1.23 1.23 0 0 0-.647-.167q-.393 0-.692.192a1.3 1.3 0 0 0-.465.497 1.4 1.4 0 0 0-.167.67v.757q0 .477.174.817.174.338.486.519.314.177.732.177.28 0 .508-.078a1.1 1.1 0 0 0 .394-.238 1 1 0 0 0 .252-.387l1.2.135q-.113.476-.433.83a2.1 2.1 0 0 1-.81.548 3.1 3.1 0 0 1-1.129.192m3.513-.106v-5.454h1.247v.909h.056q.15-.473.512-.728.366-.26.834-.26.107 0 .238.011.135.007.224.025v1.182a1.4 1.4 0 0 0-.259-.05 2.4 2.4 0 0 0-.338-.024q-.351 0-.632.152-.276.15-.437.416a1.2 1.2 0 0 0-.159.614V26z"/><rect width="163" height="55" x="185.5" y="34.5" fill="#17181c" rx="9.5"/><rect width="163" height="55" x="185.5" y="34.5" stroke="#3369ff" rx="9.5"/><rect width="30" height="30" x="197" y="47" fill="#17264f" rx="4"/><path fill="#b3c7ff" d="M211.492 52.834a8.6 8.6 0 0 0-4.446 1.233 2.1 2.1 0 0 0-1.322-.469 2.11 2.11 0 0 0-2.102 2.102c.001.482.168.945.465 1.314a8.6 8.6 0 0 0-1.253 4.478.502.502 0 1 0 1.004 0c0-1.415.385-2.736 1.053-3.872.262.114.543.18.832.181a2.11 2.11 0 0 0 2.102-2.101 2.1 2.1 0 0 0-.176-.826 7.6 7.6 0 0 1 3.843-1.036.5.5 0 0 0 .47-.309.51.51 0 0 0 0-.387.5.5 0 0 0-.276-.272.5.5 0 0 0-.194-.036m-5.768 1.768c.338 0 .641.144.85.406l.01.012a1.096 1.096 0 0 1-1.547 1.533 1.1 1.1 0 0 1-.41-.854 1.09 1.09 0 0 1 1.097-1.097"/><path fill="#b3c7ff" fill-rule="evenodd" d="M206.67 58.724a.46.46 0 0 0-.129.348c.005.117.052.23.133.316.39.393 1.159 1.159 1.159 1.159l.679-.678-1.156-1.155a.47.47 0 0 0-.345-.133.47.47 0 0 0-.341.143m1.842 1.145-2.099 2.1a.583.583 0 0 0 0 .824l1.04 1.04 1.819 1.82 1.746 1.746a.583.583 0 0 0 .825 0l1.42-1.42 2.172-2.173 2.1-2.099a.584.584 0 0 0-.001-.825l-1.067-1.067-1.819-1.82-1.719-1.718a.584.584 0 0 0-.825 0l-1.42 1.42zm2.172-2.172-1.156-1.156a.47.47 0 0 0-.345-.133.467.467 0 0 0-.47.492c.005.117.052.23.134.316.389.393 1.158 1.159 1.158 1.159zm3.964.299 1.156-1.156a.48.48 0 0 0 .133-.345.47.47 0 0 0-.492-.47.5.5 0 0 0-.316.133c-.393.39-1.159 1.16-1.159 1.16zm1.819 1.819 1.156-1.156a.48.48 0 0 0 .133-.344.47.47 0 0 0-.492-.471.5.5 0 0 0-.316.134c-.393.39-1.159 1.158-1.159 1.158zm-1.032 3.991 1.156 1.156a.47.47 0 0 0 .345.133.47.47 0 0 0 .471-.492.5.5 0 0 0-.134-.316c-.39-.393-1.159-1.159-1.159-1.159zm-2.172 2.172 1.156 1.156a.47.47 0 0 0 .345.133.467.467 0 0 0 .47-.492.5.5 0 0 0-.134-.316c-.389-.393-1.158-1.158-1.158-1.158zm-3.991-.325-1.156 1.156a.48.48 0 0 0-.133.344.47.47 0 0 0 .492.47.5.5 0 0 0 .316-.133c.393-.39 1.159-1.159 1.159-1.159zm-1.819-1.82-1.156 1.156a.48.48 0 0 0-.133.345.467.467 0 0 0 .492.47.5.5 0 0 0 .316-.133c.393-.39 1.158-1.159 1.158-1.159zm4.998-5.188a.5.5 0 0 1 .36-.15.45.45 0 0 1 .262.087l.945.693a.46.46 0 0 1 .128.59.5.5 0 0 1-.57.254l.351 1.372a.5.5 0 0 1-.343.59l-2.558.782.473 1.826a.5.5 0 0 1-.342.597.45.45 0 0 1-.576-.316l-.589-2.278a.5.5 0 0 1 .342-.592l2.559-.782-.236-.923a.484.484 0 0 1-.607.1.455.455 0 0 1-.171-.575l.465-1.114a.5.5 0 0 1 .107-.16" clip-rule="evenodd"/><path fill="#b3c7ff" d="M212.509 71.167a8.6 8.6 0 0 0 4.447-1.234c.37.301.836.47 1.321.47a2.11 2.11 0 0 0 2.102-2.102 2.1 2.1 0 0 0-.464-1.314 8.6 8.6 0 0 0 1.252-4.478.5.5 0 0 0-.308-.47.503.503 0 0 0-.696.47 7.6 7.6 0 0 1-1.053 3.871 2.1 2.1 0 0 0-.832-.18 2.11 2.11 0 0 0-2.102 2.1c0 .287.065.566.176.826a7.6 7.6 0 0 1-3.843 1.036.503.503 0 1 0 0 1.005m5.769-1.769c-.339 0-.642-.144-.85-.405l-.011-.013a1.097 1.097 0 1 1 1.958-.679 1.09 1.09 0 0 1-1.097 1.097"/><path fill="#fff" d="M232.517 52.481v-1.436h7.543v1.436h-2.922V60.5h-1.699v-8.019zm10.595 3.864V60.5h-1.671v-9.455h1.634v3.569h.083q.249-.6.771-.946.526-.351 1.339-.351.738 0 1.288.31.549.308.849.904.305.596.305 1.454V60.5h-1.671v-4.256q0-.715-.37-1.113-.364-.402-1.024-.402-.444 0-.795.194-.345.19-.544.55-.195.36-.194.872m6.301 4.155v-7.09h1.672v7.09zm.841-8.097a.98.98 0 0 1-.684-.263.85.85 0 0 1-.286-.642q0-.378.286-.642a.97.97 0 0 1 .684-.268q.4 0 .683.268.286.264.286.642 0 .374-.286.642a.97.97 0 0 1-.683.263m4.22 3.942V60.5h-1.671v-7.09h1.597v1.204h.083q.246-.595.781-.946.54-.351 1.334-.351.733 0 1.279.314.549.313.849.91.304.594.3 1.444V60.5h-1.671v-4.256q0-.711-.369-1.113-.366-.402-1.011-.402-.44 0-.781.194-.336.19-.531.55-.189.36-.189.872m9.335 6.962q-.9 0-1.547-.245-.646-.24-1.039-.646a2.24 2.24 0 0 1-.544-.9l1.505-.365q.101.207.295.41.194.21.522.342.332.14.835.139.711 0 1.178-.346.466-.342.466-1.127v-1.343h-.083q-.13.259-.379.53-.245.273-.651.458-.4.184-1.011.184a2.9 2.9 0 0 1-1.482-.383q-.66-.387-1.052-1.154-.388-.77-.388-1.93 0-1.167.388-1.97.392-.81 1.057-1.224.664-.42 1.482-.42.623 0 1.025.212.406.208.646.503.24.29.365.55h.092v-1.173h1.648v7.206q0 .91-.434 1.505a2.6 2.6 0 0 1-1.186.891q-.753.296-1.708.296m.014-4.22q.53 0 .904-.258.375-.258.568-.743.194-.485.194-1.164 0-.67-.194-1.172a1.67 1.67 0 0 0-.563-.78q-.369-.282-.909-.282-.56 0-.933.29-.374.291-.563.8a3.2 3.2 0 0 0-.189 1.144q0 .651.189 1.14.193.485.568.758.378.267.928.267m10.631-3.804-1.523.167a1.2 1.2 0 0 0-.226-.434 1.1 1.1 0 0 0-.425-.328 1.55 1.55 0 0 0-.656-.125q-.521 0-.877.226-.35.227-.346.587a.61.61 0 0 0 .226.503q.236.194.776.318l1.209.259q1.007.217 1.496.688.494.471.499 1.232-.004.67-.393 1.182-.383.508-1.066.794-.684.287-1.57.287-1.301 0-2.096-.545-.793-.55-.946-1.528l1.63-.157q.11.48.47.724.361.245.938.245.595 0 .955-.245.365-.244.365-.604a.63.63 0 0 0-.236-.503q-.23-.199-.72-.305l-1.209-.254q-1.02-.213-1.51-.716-.49-.507-.485-1.283a1.82 1.82 0 0 1 .356-1.136q.364-.484 1.011-.748.651-.267 1.5-.267 1.247 0 1.962.53.72.532.891 1.436m1.605 5.217v-9.455h3.619q1.025 0 1.703.324.684.318 1.021.872.34.554.341 1.256 0 .577-.221.988a1.9 1.9 0 0 1-.596.66q-.374.254-.836.365v.092q.504.027.965.31.466.276.762.784.295.508.295 1.228 0 .735-.355 1.32-.356.582-1.071.919t-1.8.337zm1.712-1.431h1.842q.933 0 1.344-.356.415-.36.415-.923a1.41 1.41 0 0 0-.799-1.292 1.96 1.96 0 0 0-.914-.199h-1.888zm0-4.003h1.694q.444 0 .799-.161a1.35 1.35 0 0 0 .559-.466 1.25 1.25 0 0 0 .207-.72q0-.55-.387-.905-.384-.356-1.141-.356h-1.731zm9.851 5.572q-1.04 0-1.801-.456a3.1 3.1 0 0 1-1.182-1.28q-.415-.82-.415-1.92 0-1.098.415-1.925.42-.826 1.182-1.283t1.801-.457 1.8.457 1.177 1.283q.42.827.42 1.925 0 1.1-.42 1.92a3.07 3.07 0 0 1-1.177 1.28q-.762.456-1.8.456m.009-1.338q.563 0 .942-.31.378-.313.563-.84a3.5 3.5 0 0 0 .189-1.172q0-.651-.189-1.178a1.87 1.87 0 0 0-.563-.844q-.38-.315-.942-.314-.577 0-.96.314-.38.313-.568.844-.185.527-.185 1.178 0 .645.185 1.172.189.526.568.84.382.31.96.31m6.847 1.343a3 3 0 0 1-1.214-.24 2 2 0 0 1-.849-.72q-.31-.475-.31-1.173 0-.6.222-.992.221-.393.605-.628.383-.236.863-.356a7 7 0 0 1 1.002-.18 40 40 0 0 0 1.011-.115q.387-.055.563-.166.18-.116.18-.356v-.027q0-.522-.309-.808t-.891-.286q-.615 0-.974.267-.356.268-.48.633l-1.561-.222q.184-.645.61-1.08.425-.439 1.038-.656.615-.22 1.358-.221.512 0 1.02.12t.928.397a2 2 0 0 1 .674.743q.258.47.258 1.177V60.5h-1.606v-.974h-.056a2.02 2.02 0 0 1-1.117.965 2.8 2.8 0 0 1-.965.152m.434-1.228q.504 0 .873-.198.369-.204.568-.536.203-.332.203-.725v-.835a.8.8 0 0 1-.268.12q-.185.055-.416.097-.23.04-.457.074l-.392.055q-.374.051-.669.166a1.1 1.1 0 0 0-.467.323.8.8 0 0 0-.17.527q0 .461.337.697.336.235.858.235m4.991 1.085v-7.09h1.62v1.18h.074q.194-.612.665-.946a1.83 1.83 0 0 1 1.085-.337q.138 0 .309.014.175.01.291.033v1.537a1.8 1.8 0 0 0-.337-.065 3 3 0 0 0-.439-.032 1.7 1.7 0 0 0-.822.199q-.36.193-.567.54-.208.346-.208.798V60.5zm7.493.125a2.7 2.7 0 0 1-1.495-.43q-.66-.429-1.044-1.246-.383-.818-.383-1.985 0-1.182.388-1.995.392-.816 1.057-1.232.664-.42 1.482-.42.623 0 1.025.212.402.208.637.503.235.29.365.55h.069v-3.537h1.676V60.5h-1.644v-1.117h-.101a3 3 0 0 1-.374.55q-.245.285-.647.489-.4.203-1.011.203m.467-1.371q.53 0 .904-.287.375-.29.568-.808a3.4 3.4 0 0 0 .194-1.204q0-.689-.194-1.196a1.7 1.7 0 0 0-.563-.79q-.369-.28-.909-.281-.56 0-.933.29a1.76 1.76 0 0 0-.563.804 3.4 3.4 0 0 0-.189 1.173q0 .664.189 1.186.193.517.568.817.378.296.928.296"/><path fill="#c1c3c8" d="M232.879 65.5h1.465l2.547 6.219h.093l2.547-6.219h1.465v8h-1.148v-5.79h-.075l-2.359 5.778h-.953l-2.359-5.781h-.075V73.5h-1.148zm12.306 8.121q-.844 0-1.473-.387a2.6 2.6 0 0 1-.977-1.082q-.347-.695-.347-1.625 0-.933.347-1.633.348-.7.977-1.085.629-.387 1.473-.387.843 0 1.472.387.629.386.977 1.085.347.7.347 1.633 0 .93-.347 1.625a2.6 2.6 0 0 1-.977 1.082q-.629.387-1.472.387m.003-.98q.547 0 .907-.29.358-.288.531-.769.176-.48.176-1.059 0-.573-.176-1.054a1.73 1.73 0 0 0-.531-.778q-.36-.293-.907-.293-.55 0-.914.293a1.75 1.75 0 0 0-.535.778q-.172.48-.172 1.054 0 .579.172 1.059.176.48.535.77.364.288.914.289m5.265-2.704V73.5h-1.168v-6h1.121v.977h.074q.207-.477.649-.766.445-.29 1.121-.29.613 0 1.074.259.462.254.715.757.254.504.254 1.247V73.5h-1.168v-3.676q0-.653-.34-1.02-.34-.37-.933-.37-.406 0-.723.175a1.26 1.26 0 0 0-.496.516 1.7 1.7 0 0 0-.18.813m7.934 3.684q-.844 0-1.473-.387a2.6 2.6 0 0 1-.976-1.082q-.348-.695-.348-1.625 0-.933.348-1.633.347-.7.976-1.085.629-.387 1.473-.387.843 0 1.472.387.63.386.977 1.085.348.7.348 1.633 0 .93-.348 1.625a2.6 2.6 0 0 1-.977 1.082q-.629.387-1.472.387m.004-.98q.546 0 .906-.29.36-.288.531-.769.176-.48.176-1.059 0-.573-.176-1.054a1.7 1.7 0 0 0-.531-.778q-.36-.293-.906-.293-.552 0-.914.293a1.75 1.75 0 0 0-.536.778q-.171.48-.171 1.054 0 .579.171 1.059.176.48.536.77.363.288.914.289m5.264-7.141v8h-1.168v-8zm1.572 8v-6h1.168v6zm.589-6.926a.74.74 0 0 1-.523-.203.66.66 0 0 1-.215-.492q0-.29.215-.492a.73.73 0 0 1 .523-.207.72.72 0 0 1 .52.207q.219.203.219.492 0 .285-.219.492a.73.73 0 0 1-.52.203m4.951.926v.938h-3.278V67.5zm-2.399-1.437h1.168v5.675q0 .34.102.512a.53.53 0 0 0 .261.23q.165.06.356.06.141 0 .246-.02l.164-.032.211.965a2.29 2.29 0 0 1-.758.125 2.06 2.06 0 0 1-.859-.164 1.47 1.47 0 0 1-.645-.531q-.246-.36-.246-.902zm4.987 3.874V73.5h-1.167v-8h1.152v2.977h.074q.212-.485.645-.77t1.132-.285q.618 0 1.079.254.464.254.718.758.258.5.258 1.25V73.5h-1.168v-3.676q0-.66-.34-1.023-.339-.367-.945-.367-.414 0-.742.175a1.27 1.27 0 0 0-.512.516 1.7 1.7 0 0 0-.184.813"/><rect width="163" height="55" x="357.5" y="34.5" fill="#17181c" rx="9.5"/><rect width="163" height="55" x="357.5" y="34.5" stroke="#84ee53" rx="9.5"/><rect width="30" height="30" x="369" y="47" fill="#304e22" rx="4"/><g fill="#bdf6a2" clip-path="url(#c)"><path d="M389.539 58.135a.6.6 0 0 1-.349.192 1 1 0 0 1-.066.004c-.248 0-.461-.193-.479-.319-.021-.15.226-.266.481-.301q.084-.012.164-.012c.22 0 .366.065.381.17.009.068-.042.173-.132.266M381.836 58.31c-.039-.053-.103-.154-.09-.245.018-.134.179-.214.43-.214q.084 0 .172.012c.271.038.551.166.524.36-.02.145-.252.362-.529.362a1 1 0 0 1-.073-.005.68.68 0 0 1-.434-.27"/><path fill-rule="evenodd" d="M392.505 65.77c-.491.228-1.274.372-1.953.372-.326 0-.627-.033-.861-.106-.111 1.019-.347 2.918-.484 3.714-.257 1.489-.92 2.164-2.448 2.492q-.39.081-.711.08c-1.464 0-1.927-1.159-2.117-1.633-.231-.579-.312-2.48-.295-4.408-.526.475-1.185.724-1.938.724a4 4 0 0 1-.971-.126c-.096-.024-.942-.25-.931-.792.01-.495.717-.64.983-.696.935-.192.995-.269 1.286-.638q.086-.112.212-.262l-.003-.032a2.7 2.7 0 0 1-1.203-.324 44 44 0 0 0-1.671 1.891c-.441.531-.866.687-1.212.687-.141 0-.27-.026-.381-.063-.949-.316-1.851-1.856-2.681-4.575-.631-2.065-1.03-4.222-1.065-4.924-.104-2.084.434-3.559 1.598-4.384 2.086-1.478 5.456-.343 6.192-.068.725-.494 1.6-.736 2.614-.72.553.009 1.061.08 1.526.196.222-.097 1.363-.443 2.712-.428 1.964.021 3.587.779 4.692 2.191.746.953.254 3.274.007 4.228-.512 1.983-1.462 4.109-2.616 5.867.175.129.707.341 2.192.034.5-.103.801-.012.894.271.181.547-.815 1.176-1.367 1.432m-2.27-8.317c-.005.3-.047.573-.091.858v.003c-.047.306-.096.622-.108 1.006-.012.373.034.761.08 1.137v.003c.091.76.185 1.544-.178 2.316q-.085-.15-.161-.33c-.045-.11-.143-.285-.278-.528h-.001c-.527-.947-1.764-3.164-1.131-4.068.326-.465 1.15-.486 1.868-.397m-1.456-5.097a8 8 0 0 0-1.768.167 6.7 6.7 0 0 1 2.357 1.771c.968 1.128 1.443 2.373 1.482 2.79a.5.5 0 0 1-.01.162c.016.434-.04.802-.095 1.158-.044.289-.09.587-.101.935-.011.329.031.678.075 1.049.109.902.231 1.919-.392 2.947l.03.039q.038.045.073.092c2.41-3.792 3.242-8.187 2.486-9.153-.985-1.26-2.377-1.918-4.137-1.957m-8.215 11.432a3.164 3.164 0 0 1-1.05-2.852c.149-1.062.093-1.999.063-2.502v-.004c-.008-.136-.014-.234-.014-.304-.004-.183-.045-3.177 1.69-4.93l.027-.025.019-.019c-1.057-.344-3.689-1.024-5.289.111-.984.698-1.435 1.996-1.342 3.858.03.589.402 2.689 1.039 4.777.737 2.413 1.573 3.935 2.293 4.176.11.037.446.148.933-.437a45 45 0 0 1 1.631-1.85m8.576 1.647c-.057-1.144.561-1.373.905-1.472-.045-.063-.103-.135-.162-.21-.195-.243-.462-.577-.668-1.076-.031-.075-.128-.249-.241-.452l-.007-.012c-.632-1.135-1.949-3.495-1.098-4.712.391-.56 1.163-.783 2.297-.668-.15-.448-.528-1.279-1.226-2.104-.811-.957-2.246-2.106-4.485-2.143-1.137-.018-2.07.33-2.77 1.038-1.113 1.125-1.409 2.894-1.487 3.842q.078-.045.168-.09c.282-.143.848-.392 1.465-.456 1.031-.107 1.711.353 1.914 1.294.544 2.514.043 3.626-.323 4.439l-.004.009-.024.055a6 6 0 0 0-.154.365l-.046.122c-.107.29-.207.556-.264.792a.8.8 0 0 1 .195-.025c.178 0 .324.06.42.1.307.128.563.435.668.802q.026.09.038.179.014.045.013.096c-.07 2.523.029 4.809.232 5.316.314.785.79 1.472 2.136 1.183 1.298-.278 1.76-.746 1.976-2 .164-.95.487-3.638.532-4.212m-5.55-.014c.092-.128.064-.294.039-.38-.053-.185-.183-.353-.317-.408a.5.5 0 0 0-.187-.054q-.116.001-.268.17c-.133.15-.23.272-.315.38-.371.471-.541.631-1.641.858a2 2 0 0 0-.432.128c.089.06.239.133.406.175.285.071.562.107.823.107.793 0 1.43-.328 1.892-.976m8.659-.202c.409-.19.697-.401.866-.559l-.013.003h-.001c-1.249.258-2.133.222-2.629-.105a1 1 0 0 1-.085-.062q-.06.02-.124.037l-.005.002c-.281.079-.546.153-.512.866.074.06.388.158 1.005.13.559-.027 1.147-.15 1.498-.312m-9.579-2.348-.045.12-.003.007c-.113.303-.218.585-.283.853a2.16 2.16 0 0 1-1.552-.688 2.56 2.56 0 0 1-.671-2.143c.157-1.121.099-2.098.068-2.622l-.001-.017-.01-.172c.254-.225 1.429-.854 2.266-.662.382.088.615.348.712.796.501 2.318.067 3.284-.283 4.06l-.001.003c-.072.16-.139.31-.197.465" clip-rule="evenodd"/><path fill-rule="evenodd" d="M393.337 63.38c.749 0 1.121.479 1.211.89.249 1.126-1.282 1.933-1.757 2.154-.571.265-1.457.436-2.256.436q-.118 0-.231-.004l-.119-.01-.025.21c-.056 2.14-.365 3.5-1.003 4.408-.681.969-1.616 1.239-2.44 1.415a3.7 3.7 0 0 1-.779.088c-.767 0-1.411-.289-1.863-.835-.343-.415-.492-.872-.59-1.174l-.004-.01c-.016-.05-.03-.094-.042-.123-.225-.61-.301-1.474-.346-2.584l-.016-.498v-.018l-.007-.257a3.7 3.7 0 0 1-1.372.254c-.367 0-.749-.05-1.136-.146-.274-.068-.77-.237-1.113-.61-.39.308-.813.465-1.26.465-1.425 0-2.575-1.53-3.619-4.815-.676-2.126-1.148-4.575-1.189-5.394-.098-1.954.337-3.455 1.293-4.46.864-.908 2.093-1.368 3.654-1.368 1.388 0 2.721.374 3.411.605.758-.442 1.642-.666 2.629-.666h.108c.549.01 1.074.058 1.562.142a9.3 9.3 0 0 1 2.581-.373c2.219 0 4.056.848 5.312 2.453.854 1.092.542 3.222.13 4.817-.445 1.724-1.212 3.565-2.166 5.2q.41-.025.944-.135c.185-.038.348-.057.498-.057m-2.785 2.762c.679 0 1.462-.144 1.953-.372.552-.256 1.548-.885 1.367-1.432-.093-.283-.394-.374-.894-.27-1.485.306-2.017.094-2.192-.035 1.154-1.758 2.104-3.884 2.616-5.867.247-.954.739-3.275-.007-4.228-1.105-1.412-2.728-2.17-4.692-2.19-1.349-.016-2.49.33-2.712.427a6.8 6.8 0 0 0-1.526-.196c-1.014-.016-1.889.226-2.614.72-.736-.275-4.106-1.41-6.192.068-1.164.825-1.702 2.3-1.598 4.384.035.702.434 2.859 1.065 4.924.83 2.72 1.732 4.259 2.681 4.575.111.037.24.063.381.063.346 0 .771-.156 1.212-.687a44 44 0 0 1 1.671-1.89 2.7 2.7 0 0 0 1.203.323l.003.032q-.126.15-.212.262c-.291.37-.351.446-1.286.638-.266.055-.973.2-.983.696-.011.541.835.768.931.792.334.084.661.126.971.126.753 0 1.412-.248 1.938-.724-.017 1.929.064 3.83.295 4.408.19.475.653 1.633 2.117 1.633q.322.001.711-.08c1.528-.328 2.191-1.003 2.448-2.492.137-.796.373-2.695.484-3.714.234.073.535.106.861.106" clip-rule="evenodd"/></g><path fill="#fff" d="M404.933 67v-9.455h3.545q1.09 0 1.828.407.744.406 1.122 1.117.383.705.383 1.606 0 .91-.383 1.616-.384.706-1.131 1.113-.749.4-1.842.401h-2.35v-1.408h2.119q.638 0 1.043-.221.406-.222.601-.61.198-.387.198-.89 0-.504-.198-.887a1.35 1.35 0 0 0-.605-.596q-.406-.216-1.048-.216h-1.57V67zm11.283.138q-1.038 0-1.8-.457a3.1 3.1 0 0 1-1.182-1.278q-.415-.822-.415-1.92 0-1.1.415-1.926.42-.826 1.182-1.283t1.8-.457q1.04 0 1.801.457.762.456 1.177 1.283.42.827.42 1.925 0 1.1-.42 1.92a3.07 3.07 0 0 1-1.177 1.28q-.762.456-1.801.456m.01-1.338q.563 0 .941-.31.379-.314.564-.84a3.5 3.5 0 0 0 .189-1.172q0-.651-.189-1.178a1.87 1.87 0 0 0-.564-.844q-.378-.315-.941-.314-.577 0-.961.314-.378.313-.567.844-.186.527-.185 1.178 0 .645.185 1.172.189.526.567.84.384.31.961.31m10.411-4.017-1.524.167a1.2 1.2 0 0 0-.226-.434 1.1 1.1 0 0 0-.424-.328 1.55 1.55 0 0 0-.656-.125q-.522 0-.877.226-.35.227-.346.587a.61.61 0 0 0 .226.503q.235.194.775.318l1.21.259q1.006.217 1.496.688.494.471.498 1.232a1.93 1.93 0 0 1-.392 1.182q-.383.508-1.067.794-.682.286-1.569.286-1.302 0-2.096-.544-.794-.55-.946-1.528l1.629-.157q.111.48.471.724.36.245.937.245.596 0 .956-.245.365-.244.365-.604a.63.63 0 0 0-.236-.503q-.231-.199-.72-.305l-1.21-.254q-1.02-.213-1.509-.716-.49-.507-.485-1.283a1.8 1.8 0 0 1 .356-1.136q.364-.484 1.011-.748.651-.267 1.5-.267 1.247 0 1.962.53.72.532.891 1.436m5.071-1.874v1.293h-4.076v-1.293zm-3.07-1.699h1.671v6.657q0 .337.102.517a.55.55 0 0 0 .277.24q.171.065.378.065.157 0 .287-.023.134-.024.203-.042l.281 1.307q-.134.045-.383.101a3 3 0 0 1-.6.065 2.7 2.7 0 0 1-1.131-.19 1.76 1.76 0 0 1-.799-.655q-.29-.443-.286-1.108zm7.475 11.597q-.9 0-1.546-.245-.646-.24-1.039-.646a2.25 2.25 0 0 1-.545-.9l1.505-.365q.102.207.296.41.194.21.521.342.333.14.836.139.71 0 1.177-.346.467-.342.467-1.127v-1.343h-.084q-.129.259-.378.53-.245.273-.651.458-.402.184-1.011.184a2.9 2.9 0 0 1-1.482-.383q-.66-.387-1.052-1.154-.388-.77-.388-1.93 0-1.167.388-1.97.392-.81 1.057-1.224.665-.42 1.482-.42.623 0 1.024.212.407.208.647.503.24.29.364.55h.093v-1.173h1.648v7.206q0 .91-.434 1.505a2.6 2.6 0 0 1-1.187.891q-.752.296-1.708.296m.014-4.22q.531 0 .905-.258t.568-.743.194-1.164q0-.67-.194-1.172a1.67 1.67 0 0 0-.563-.78q-.37-.282-.91-.282-.558 0-.932.29-.374.291-.564.8a3.2 3.2 0 0 0-.189 1.144q0 .651.189 1.14.195.485.568.758.38.267.928.267M441.155 67v-7.09h1.62v1.18h.074q.194-.612.665-.946a1.83 1.83 0 0 1 1.084-.337q.14 0 .31.014.175.01.291.033v1.537a2 2 0 0 0-.337-.065 3 3 0 0 0-.439-.032 1.7 1.7 0 0 0-.822.199 1.46 1.46 0 0 0-.775 1.338V67zm8.001.138q-1.067 0-1.842-.443a3 3 0 0 1-1.186-1.265q-.416-.82-.416-1.934 0-1.095.416-1.92.42-.831 1.172-1.293.753-.466 1.768-.466.656 0 1.238.212.585.208 1.034.646.452.439.711 1.118.258.674.258 1.606v.513h-5.812v-1.127h4.21a1.8 1.8 0 0 0-.208-.854 1.5 1.5 0 0 0-.567-.595 1.6 1.6 0 0 0-.841-.217 1.63 1.63 0 0 0-.9.249q-.387.244-.605.646a1.9 1.9 0 0 0-.217.873v.983q0 .618.227 1.062.226.438.632.674.406.23.951.23.365 0 .66-.1a1.5 1.5 0 0 0 .513-.31q.216-.203.328-.503l1.56.175a2.44 2.44 0 0 1-.563 1.08 2.75 2.75 0 0 1-1.053.711q-.642.25-1.468.25m9.779-6.994a1.26 1.26 0 0 0-.545-.941q-.475-.337-1.237-.337-.535 0-.919.161a1.36 1.36 0 0 0-.586.439 1.07 1.07 0 0 0-.208.632q0 .296.134.513.138.216.374.37.236.146.522.248t.577.171l.886.222q.535.124 1.03.337.498.212.891.535.397.324.627.78.231.457.231 1.072 0 .83-.424 1.463-.426.628-1.228.983-.8.351-1.935.351-1.103 0-1.916-.341-.808-.341-1.264-.998-.453-.656-.49-1.597h1.685q.037.494.305.822.267.327.697.49.434.16.969.16.56 0 .979-.166.425-.17.665-.47.24-.305.245-.711a.9.9 0 0 0-.217-.61 1.6 1.6 0 0 0-.596-.406 6 6 0 0 0-.886-.295l-1.076-.277q-1.168-.3-1.847-.91-.674-.614-.674-1.63 0-.834.453-1.463a3 3 0 0 1 1.242-.974q.784-.35 1.777-.35 1.007 0 1.764.35.761.345 1.195.965.435.614.448 1.413zm6.827 3.68h1.551l.918 1.19.656.776 1.574 2.022h-1.662l-1.071-1.357-.457-.646zm4.925-1.551q0 1.527-.572 2.617-.569 1.086-1.551 1.662-.98.577-2.221.577t-2.225-.577q-.978-.582-1.551-1.666-.568-1.09-.568-2.613 0-1.529.568-2.613.573-1.09 1.551-1.667.984-.577 2.225-.577t2.221.577q.982.577 1.551 1.667.572 1.084.572 2.613m-1.722 0q0-1.075-.337-1.815-.332-.743-.923-1.121a2.45 2.45 0 0 0-1.362-.384q-.771 0-1.362.384-.59.378-.928 1.121-.332.74-.332 1.815t.332 1.819q.337.738.928 1.121a2.47 2.47 0 0 0 1.362.379 2.47 2.47 0 0 0 1.362-.379q.591-.383.923-1.121.337-.743.337-1.82M472.319 67v-9.455h1.713v8.02h4.164V67z"/></g><defs><clipPath id="a"><path fill="#fff" d="M0 0h720v114H0z"/></clipPath><clipPath id="b"><path fill="#fff" d="M0-7h720v314H0z"/></clipPath><clipPath id="c"><path fill="#fff" d="M373 51h22v22h-22z"/></clipPath></defs></svg>