<svg width="164" height="48" viewBox="0 0 164 48" fill="none" xmlns="http://www.w3.org/2000/svg">
<g clip-path="url(#clip0_1281_28546)">
<path d="M160 0H4C1.79086 0 0 1.79086 0 4V44C0 46.2091 1.79086 48 4 48H160C162.209 48 164 46.2091 164 44V4C164 1.79086 162.209 0 160 0Z" fill="white"/>
<path d="M4 0.5H160C161.933 0.5 163.5 2.067 163.5 4V44C163.5 45.933 161.933 47.5 160 47.5H4C2.067 47.5 0.5 45.933 0.5 44V4C0.5 2.067 2.067 0.5 4 0.5Z" stroke="#23262F" stroke-opacity="0.08"/>
<path d="M40 4H8C5.79086 4 4 5.79086 4 8V40C4 42.2091 5.79086 44 8 44H40C42.2091 44 44 42.2091 44 40V8C44 5.79086 42.2091 4 40 4Z" fill="#F18D17"/>
<path d="M15.8333 18.084C15.8333 17.4882 16.3208 17.0007 16.9167 17.0007H34.25C34.8458 17.0007 35.3333 16.5132 35.3333 15.9173C35.3333 15.3215 34.8458 14.834 34.25 14.834H15.8333C14.6417 14.834 13.6667 15.809 13.6667 17.0007V28.9173H13.125C12.2258 28.9173 11.5 29.6432 11.5 30.5423C11.5 31.4415 12.2258 32.1673 13.125 32.1673H26.6667V28.9173H15.8333V18.084ZM36.4167 19.1673H29.9167C29.3208 19.1673 28.8333 19.6548 28.8333 20.2507V31.084C28.8333 31.6798 29.3208 32.1673 29.9167 32.1673H36.4167C37.0125 32.1673 37.5 31.6798 37.5 31.084V20.2507C37.5 19.6548 37.0125 19.1673 36.4167 19.1673ZM35.3333 28.9173H31V21.334H35.3333V28.9173Z" fill="white"/>
<path d="M59.2988 16H57.5176L57.5293 15.0801H59.2988C59.9082 15.0801 60.416 14.9531 60.8223 14.6992C61.2285 14.4414 61.5332 14.082 61.7363 13.6211C61.9434 13.1562 62.0469 12.6133 62.0469 11.9922V11.4707C62.0469 10.9824 61.9883 10.5488 61.8711 10.1699C61.7539 9.78711 61.582 9.46484 61.3555 9.20312C61.1289 8.9375 60.8516 8.73633 60.5234 8.59961C60.1992 8.46289 59.8262 8.39453 59.4043 8.39453H57.4824V7.46875H59.4043C59.9629 7.46875 60.4727 7.5625 60.9336 7.75C61.3945 7.93359 61.791 8.20117 62.123 8.55273C62.459 8.90039 62.7168 9.32227 62.8965 9.81836C63.0762 10.3105 63.166 10.8652 63.166 11.4824V11.9922C63.166 12.6094 63.0762 13.166 62.8965 13.6621C62.7168 14.1543 62.457 14.5742 62.1172 14.9219C61.7812 15.2695 61.375 15.5371 60.8984 15.7246C60.4258 15.9082 59.8926 16 59.2988 16ZM58.1211 7.46875V16H56.9902V7.46875H58.1211ZM67.732 16.1172C67.2906 16.1172 66.8902 16.043 66.5309 15.8945C66.1754 15.7422 65.8687 15.5293 65.6109 15.2559C65.357 14.9824 65.1617 14.6582 65.025 14.2832C64.8883 13.9082 64.8199 13.498 64.8199 13.0527V12.8066C64.8199 12.291 64.8961 11.832 65.0484 11.4297C65.2008 11.0234 65.4078 10.6797 65.6695 10.3984C65.9312 10.1172 66.2281 9.9043 66.5602 9.75977C66.8922 9.61523 67.2359 9.54297 67.5914 9.54297C68.0445 9.54297 68.4352 9.62109 68.7633 9.77734C69.0953 9.93359 69.3668 10.1523 69.5777 10.4336C69.7887 10.7109 69.9449 11.0391 70.0465 11.418C70.148 11.793 70.1988 12.2031 70.1988 12.6484V13.1348H65.4645V12.25H69.1148V12.168C69.0992 11.8867 69.0406 11.6133 68.9391 11.3477C68.8414 11.082 68.6852 10.8633 68.4703 10.6914C68.2555 10.5195 67.9625 10.4336 67.5914 10.4336C67.3453 10.4336 67.1187 10.4863 66.9117 10.5918C66.7047 10.6934 66.527 10.8457 66.3785 11.0488C66.2301 11.252 66.1148 11.5 66.0328 11.793C65.9508 12.0859 65.9098 12.4238 65.9098 12.8066V13.0527C65.9098 13.3535 65.9508 13.6367 66.0328 13.9023C66.1187 14.1641 66.2418 14.3945 66.402 14.5938C66.566 14.793 66.7633 14.9492 66.9937 15.0625C67.2281 15.1758 67.4937 15.2324 67.7906 15.2324C68.1734 15.2324 68.4977 15.1543 68.7633 14.998C69.0289 14.8418 69.2613 14.6328 69.4605 14.3711L70.1168 14.8926C69.9801 15.0996 69.8062 15.2969 69.5953 15.4844C69.3844 15.6719 69.1246 15.8242 68.816 15.9414C68.5113 16.0586 68.15 16.1172 67.732 16.1172ZM73.7219 15.0215L75.4563 9.66016H76.5637L74.2844 16H73.5578L73.7219 15.0215ZM72.2746 9.66016L74.0617 15.0508L74.1848 16H73.4582L71.1613 9.66016H72.2746ZM79.1844 9.66016V16H78.0945V9.66016H79.1844ZM78.0125 7.97852C78.0125 7.80273 78.0652 7.6543 78.1707 7.5332C78.2801 7.41211 78.4402 7.35156 78.6512 7.35156C78.8582 7.35156 79.0164 7.41211 79.1258 7.5332C79.2391 7.6543 79.2957 7.80273 79.2957 7.97852C79.2957 8.14648 79.2391 8.29102 79.1258 8.41211C79.0164 8.5293 78.8582 8.58789 78.6512 8.58789C78.4402 8.58789 78.2801 8.5293 78.1707 8.41211C78.0652 8.29102 78.0125 8.14648 78.0125 7.97852ZM83.8617 15.2266C84.1195 15.2266 84.3578 15.1738 84.5766 15.0684C84.7953 14.9629 84.975 14.8184 85.1156 14.6348C85.2563 14.4473 85.3363 14.2344 85.3559 13.9961H86.3871C86.3676 14.3711 86.2406 14.7207 86.0063 15.0449C85.7758 15.3652 85.473 15.625 85.098 15.8242C84.723 16.0195 84.3109 16.1172 83.8617 16.1172C83.3852 16.1172 82.9691 16.0332 82.6137 15.8652C82.2621 15.6973 81.9691 15.4668 81.7348 15.1738C81.5043 14.8809 81.3305 14.5449 81.2133 14.166C81.1 13.7832 81.0434 13.3789 81.0434 12.9531V12.707C81.0434 12.2812 81.1 11.8789 81.2133 11.5C81.3305 11.1172 81.5043 10.7793 81.7348 10.4863C81.9691 10.1934 82.2621 9.96289 82.6137 9.79492C82.9691 9.62695 83.3852 9.54297 83.8617 9.54297C84.3578 9.54297 84.7914 9.64453 85.1625 9.84766C85.5336 10.0469 85.8246 10.3203 86.0355 10.668C86.2504 11.0117 86.3676 11.4023 86.3871 11.8398H85.3559C85.3363 11.5781 85.2621 11.3418 85.1332 11.1309C85.0082 10.9199 84.8363 10.752 84.6176 10.627C84.4027 10.498 84.1508 10.4336 83.8617 10.4336C83.5297 10.4336 83.2504 10.5 83.0238 10.6328C82.8012 10.7617 82.6234 10.9375 82.4906 11.1602C82.3617 11.3789 82.268 11.623 82.2094 11.8926C82.1547 12.1582 82.1273 12.4297 82.1273 12.707V12.9531C82.1273 13.2305 82.1547 13.5039 82.2094 13.7734C82.2641 14.043 82.3559 14.2871 82.4848 14.5059C82.6176 14.7246 82.7953 14.9004 83.018 15.0332C83.2445 15.1621 83.5258 15.2266 83.8617 15.2266ZM90.6367 16.1172C90.1953 16.1172 89.7949 16.043 89.4355 15.8945C89.0801 15.7422 88.7734 15.5293 88.5156 15.2559C88.2617 14.9824 88.0664 14.6582 87.9297 14.2832C87.793 13.9082 87.7246 13.498 87.7246 13.0527V12.8066C87.7246 12.291 87.8008 11.832 87.9531 11.4297C88.1055 11.0234 88.3125 10.6797 88.5742 10.3984C88.8359 10.1172 89.1328 9.9043 89.4648 9.75977C89.7969 9.61523 90.1406 9.54297 90.4961 9.54297C90.9492 9.54297 91.3398 9.62109 91.668 9.77734C92 9.93359 92.2715 10.1523 92.4824 10.4336C92.6934 10.7109 92.8496 11.0391 92.9512 11.418C93.0527 11.793 93.1035 12.2031 93.1035 12.6484V13.1348H88.3691V12.25H92.0195V12.168C92.0039 11.8867 91.9453 11.6133 91.8438 11.3477C91.7461 11.082 91.5898 10.8633 91.375 10.6914C91.1602 10.5195 90.8672 10.4336 90.4961 10.4336C90.25 10.4336 90.0234 10.4863 89.8164 10.5918C89.6094 10.6934 89.4316 10.8457 89.2832 11.0488C89.1348 11.252 89.0195 11.5 88.9375 11.793C88.8555 12.0859 88.8145 12.4238 88.8145 12.8066V13.0527C88.8145 13.3535 88.8555 13.6367 88.9375 13.9023C89.0234 14.1641 89.1465 14.3945 89.3066 14.5938C89.4707 14.793 89.668 14.9492 89.8984 15.0625C90.1328 15.1758 90.3984 15.2324 90.6953 15.2324C91.0781 15.2324 91.4023 15.1543 91.668 14.998C91.9336 14.8418 92.166 14.6328 92.3652 14.3711L93.0215 14.8926C92.8848 15.0996 92.7109 15.2969 92.5 15.4844C92.2891 15.6719 92.0293 15.8242 91.7207 15.9414C91.416 16.0586 91.0547 16.1172 90.6367 16.1172Z" fill="black" fill-opacity="0.54"/>
<path d="M66.0743 36.2188V38H57.0196V36.4692L61.4171 31.6729C61.8995 31.1286 62.2799 30.6585 62.5582 30.2627C62.8365 29.8669 63.0313 29.5112 63.1427 29.1958C63.2602 28.8742 63.3189 28.5618 63.3189 28.2588C63.3189 27.832 63.2385 27.4578 63.0777 27.1362C62.9231 26.8084 62.6942 26.5518 62.3912 26.3662C62.0881 26.1745 61.7201 26.0786 61.2872 26.0786C60.7862 26.0786 60.3656 26.1868 60.0255 26.4033C59.6853 26.6198 59.4286 26.9198 59.2554 27.3032C59.0823 27.6805 58.9957 28.1134 58.9957 28.6021H56.7598C56.7598 27.8166 56.9392 27.0991 57.2979 26.4497C57.6567 25.7941 58.1762 25.2746 58.8565 24.8911C59.5369 24.5015 60.3564 24.3066 61.315 24.3066C62.218 24.3066 62.9849 24.4582 63.6158 24.7612C64.2467 25.0643 64.726 25.4941 65.0538 26.0508C65.3878 26.6074 65.5548 27.2661 65.5548 28.0269C65.5548 28.4474 65.4867 28.8649 65.3507 29.2793C65.2146 29.6937 65.0198 30.1081 64.7662 30.5225C64.5188 30.9307 64.225 31.342 63.8848 31.7563C63.5447 32.1646 63.1705 32.5789 62.7623 32.9995L59.8399 36.2188H66.0743ZM69.7182 36.2373H69.9038C70.7573 36.2373 71.4686 36.126 72.0376 35.9033C72.6128 35.6745 73.0705 35.359 73.4106 34.957C73.7508 34.555 73.9951 34.0819 74.1435 33.5376C74.292 32.9933 74.3662 32.4027 74.3662 31.7656V29.437C74.3662 28.8866 74.3074 28.4041 74.1899 27.9897C74.0786 27.5692 73.9178 27.2197 73.7075 26.9414C73.5034 26.6569 73.2653 26.4435 72.9931 26.3013C72.7272 26.159 72.4396 26.0879 72.1304 26.0879C71.7902 26.0879 71.484 26.1652 71.2119 26.3198C70.9459 26.4683 70.7202 26.6755 70.5346 26.9414C70.3553 27.2012 70.2161 27.5073 70.1172 27.8599C70.0244 28.2062 69.978 28.5773 69.978 28.9731C69.978 29.3442 70.0213 29.703 70.1079 30.0493C70.2007 30.3895 70.3367 30.6925 70.5161 30.9585C70.6955 31.2244 70.9212 31.4347 71.1933 31.5894C71.4655 31.744 71.784 31.8213 72.1489 31.8213C72.4953 31.8213 72.8138 31.7563 73.1045 31.6265C73.3952 31.4904 73.6487 31.3079 73.8652 31.0791C74.0817 30.8503 74.2518 30.5936 74.3755 30.3091C74.4992 30.0246 74.5672 29.7339 74.5796 29.437L75.4331 29.6968C75.4331 30.1668 75.3341 30.6307 75.1362 31.0884C74.9445 31.5399 74.6754 31.9543 74.3291 32.3315C73.9889 32.7026 73.59 32.9995 73.1323 33.2222C72.6808 33.4448 72.1891 33.5562 71.6572 33.5562C71.014 33.5562 70.445 33.4355 69.9502 33.1943C69.4616 32.9469 69.0534 32.613 68.7256 32.1924C68.404 31.7718 68.1627 31.2894 68.0019 30.7451C67.8411 30.2008 67.7607 29.6287 67.7607 29.0288C67.7607 28.3794 67.8597 27.7702 68.0576 27.2012C68.2555 26.6322 68.5431 26.1312 68.9204 25.6982C69.2977 25.2591 69.7554 24.9189 70.2934 24.6777C70.8377 24.4303 71.4531 24.3066 72.1396 24.3066C72.8694 24.3066 73.5096 24.4489 74.06 24.7334C74.6105 25.0179 75.0744 25.4106 75.4516 25.9116C75.8289 26.4126 76.1134 26.994 76.3052 27.6558C76.4969 28.3175 76.5928 29.0288 76.5928 29.7896V30.5781C76.5928 31.376 76.5216 32.146 76.3794 32.8882C76.2371 33.6242 76.0052 34.3076 75.6836 34.9385C75.3681 35.5632 74.9507 36.1136 74.4311 36.5898C73.9178 37.0599 73.2869 37.4279 72.5386 37.6938C71.7964 37.9536 70.9243 38.0835 69.9223 38.0835H69.7182V36.2373ZM85.5712 24.4087H85.8495V26.2363H85.6918C84.8939 26.2363 84.2043 26.36 83.6229 26.6074C83.0477 26.8548 82.5746 27.195 82.2035 27.6279C81.8324 28.0609 81.5541 28.568 81.3685 29.1494C81.1892 29.7246 81.0995 30.3369 81.0995 30.9863V33.1108C81.0995 33.6489 81.1582 34.1252 81.2758 34.5396C81.3933 34.9478 81.5572 35.291 81.7675 35.5693C81.9839 35.8415 82.2313 36.0487 82.5096 36.1909C82.788 36.3332 83.0879 36.4043 83.4095 36.4043C83.7435 36.4043 84.0466 36.3363 84.3187 36.2002C84.5909 36.0579 84.8228 35.8631 85.0145 35.6157C85.2063 35.3683 85.3516 35.0745 85.4506 34.7344C85.5495 34.3942 85.599 34.0231 85.599 33.6211C85.599 33.2376 85.5495 32.8789 85.4506 32.5449C85.3578 32.2048 85.2186 31.9079 85.0331 31.6543C84.8475 31.3945 84.6156 31.1935 84.3373 31.0513C84.0651 30.9028 83.7497 30.8286 83.391 30.8286C82.9457 30.8286 82.5406 30.9338 82.1757 31.144C81.8169 31.3543 81.5262 31.6296 81.3036 31.9697C81.0871 32.3037 80.9696 32.6593 80.9511 33.0366L80.0975 32.7583C80.147 32.1831 80.2738 31.6667 80.4779 31.209C80.6882 30.7513 80.9634 30.3617 81.3036 30.04C81.6438 29.7184 82.0365 29.4741 82.4818 29.3071C82.9333 29.134 83.4281 29.0474 83.9662 29.0474C84.6218 29.0474 85.1908 29.1711 85.6732 29.4185C86.1556 29.6659 86.5546 30.0029 86.87 30.4297C87.1916 30.8503 87.4297 31.3327 87.5844 31.877C87.7452 32.415 87.8256 32.9779 87.8256 33.5654C87.8256 34.2148 87.7266 34.821 87.5287 35.3838C87.3308 35.9404 87.0401 36.429 86.6566 36.8496C86.2793 37.2702 85.8186 37.598 85.2743 37.833C84.7362 38.068 84.1239 38.1855 83.4374 38.1855C82.7137 38.1855 82.0674 38.0464 81.4984 37.7681C80.9356 37.4897 80.4563 37.1063 80.0604 36.6177C79.6708 36.1291 79.3739 35.5662 79.1698 34.9292C78.9657 34.2922 78.8637 33.618 78.8637 32.9067V31.979C78.8637 30.9523 78.9935 29.9844 79.2533 29.0752C79.5131 28.1598 79.912 27.3527 80.4501 26.6538C80.9943 25.9549 81.6901 25.4076 82.5375 25.0117C83.3848 24.6097 84.396 24.4087 85.5712 24.4087Z" fill="black" fill-opacity="0.87"/>
</g>
<defs>
<clipPath id="clip0_1281_28546">
<rect width="164" height="48" fill="white"/>
</clipPath>
</defs>
</svg>
