<svg width="164" height="48" viewBox="0 0 164 48" fill="none" xmlns="http://www.w3.org/2000/svg">
<g clip-path="url(#clip0_1281_28552)">
<path d="M160 0H4C1.79086 0 0 1.79086 0 4V44C0 46.2091 1.79086 48 4 48H160C162.209 48 164 46.2091 164 44V4C164 1.79086 162.209 0 160 0Z" fill="white"/>
<path d="M4 0.5H160C161.933 0.5 163.5 2.067 163.5 4V44C163.5 45.933 161.933 47.5 160 47.5H4C2.067 47.5 0.5 45.933 0.5 44V4C0.5 2.067 2.067 0.5 4 0.5Z" stroke="#23262F" stroke-opacity="0.08"/>
<path d="M40 4H8C5.79086 4 4 5.79086 4 8V40C4 42.2091 5.79086 44 8 44H40C42.2091 44 44 42.2091 44 40V8C44 5.79086 42.2091 4 40 4Z" fill="#D12730"/>
<path d="M13.7297 36H34.2703C36.3707 36 37.6801 33.6434 36.6299 31.7666L26.3596 13.4076C25.3094 11.5308 22.6906 11.5308 21.6404 13.4076L11.3701 31.7666C10.3199 33.6434 11.6293 36 13.7297 36ZM24 26.122C23.2498 26.122 22.6361 25.487 22.6361 24.7109V21.8886C22.6361 21.1125 23.2498 20.4774 24 20.4774C24.7502 20.4774 25.3639 21.1125 25.3639 21.8886V24.7109C25.3639 25.487 24.7502 26.122 24 26.122ZM25.3639 31.7666H22.6361V28.9443H25.3639V31.7666Z" fill="white"/>
<path d="M60.1426 7.46875V16H59.0293V7.46875H60.1426ZM62.8848 7.46875V8.39453H56.293V7.46875H62.8848ZM63.525 12.9004V12.7656C63.525 12.3086 63.5914 11.8848 63.7242 11.4941C63.857 11.0996 64.0484 10.7578 64.2984 10.4688C64.5484 10.1758 64.8512 9.94922 65.2066 9.78906C65.5621 9.625 65.9605 9.54297 66.402 9.54297C66.8473 9.54297 67.2477 9.625 67.6031 9.78906C67.9625 9.94922 68.2672 10.1758 68.5172 10.4688C68.7711 10.7578 68.9645 11.0996 69.0973 11.4941C69.2301 11.8848 69.2965 12.3086 69.2965 12.7656V12.9004C69.2965 13.3574 69.2301 13.7812 69.0973 14.1719C68.9645 14.5625 68.7711 14.9043 68.5172 15.1973C68.2672 15.4863 67.9645 15.7129 67.609 15.877C67.2574 16.0371 66.859 16.1172 66.4137 16.1172C65.9684 16.1172 65.568 16.0371 65.2125 15.877C64.857 15.7129 64.5523 15.4863 64.2984 15.1973C64.0484 14.9043 63.857 14.5625 63.7242 14.1719C63.5914 13.7812 63.525 13.3574 63.525 12.9004ZM64.609 12.7656V12.9004C64.609 13.2168 64.6461 13.5156 64.7203 13.7969C64.7945 14.0742 64.9059 14.3203 65.0543 14.5352C65.2066 14.75 65.3961 14.9199 65.6227 15.0449C65.8492 15.166 66.1129 15.2266 66.4137 15.2266C66.7105 15.2266 66.9703 15.166 67.193 15.0449C67.4195 14.9199 67.607 14.75 67.7555 14.5352C67.9039 14.3203 68.0152 14.0742 68.0895 13.7969C68.1676 13.5156 68.2066 13.2168 68.2066 12.9004V12.7656C68.2066 12.4531 68.1676 12.1582 68.0895 11.8809C68.0152 11.5996 67.902 11.3516 67.7496 11.1367C67.6012 10.918 67.4137 10.7461 67.1871 10.6211C66.9645 10.4961 66.7027 10.4336 66.402 10.4336C66.1051 10.4336 65.8434 10.4961 65.6168 10.6211C65.3941 10.7461 65.2066 10.918 65.0543 11.1367C64.9059 11.3516 64.7945 11.5996 64.7203 11.8809C64.6461 12.1582 64.609 12.4531 64.609 12.7656ZM73.7102 9.66016V10.4922H70.2824V9.66016H73.7102ZM71.4426 8.11914H72.5266V14.4297C72.5266 14.6445 72.5598 14.8066 72.6262 14.916C72.6926 15.0254 72.7785 15.0977 72.884 15.1328C72.9895 15.168 73.1027 15.1855 73.2238 15.1855C73.3137 15.1855 73.4074 15.1777 73.5051 15.1621C73.6066 15.1426 73.6828 15.127 73.7336 15.1152L73.7395 16C73.6535 16.0273 73.5402 16.0527 73.3996 16.0762C73.2629 16.1035 73.0969 16.1172 72.9016 16.1172C72.6359 16.1172 72.3918 16.0645 72.1691 15.959C71.9465 15.8535 71.7688 15.6777 71.6359 15.4316C71.507 15.1816 71.4426 14.8457 71.4426 14.4238V8.11914ZM79.1199 14.916V11.6523C79.1199 11.4023 79.0691 11.1855 78.9676 11.002C78.8699 10.8145 78.7215 10.6699 78.5223 10.5684C78.323 10.4668 78.077 10.416 77.784 10.416C77.5105 10.416 77.2703 10.4629 77.0633 10.5566C76.8602 10.6504 76.7 10.7734 76.5828 10.9258C76.4695 11.0781 76.4129 11.2422 76.4129 11.418H75.3289C75.3289 11.1914 75.3875 10.9668 75.5047 10.7441C75.6219 10.5215 75.7898 10.3203 76.0086 10.1406C76.2313 9.95703 76.4969 9.8125 76.8055 9.70703C77.118 9.59766 77.4656 9.54297 77.8484 9.54297C78.3094 9.54297 78.7156 9.62109 79.0672 9.77734C79.4227 9.93359 79.7 10.1699 79.8992 10.4863C80.1023 10.7988 80.2039 11.1914 80.2039 11.6641V14.6172C80.2039 14.8281 80.2215 15.0527 80.2566 15.291C80.2957 15.5293 80.3523 15.7344 80.4266 15.9062V16H79.2957C79.241 15.875 79.198 15.709 79.1668 15.502C79.1355 15.291 79.1199 15.0957 79.1199 14.916ZM79.3074 12.1562L79.3191 12.918H78.2234C77.9148 12.918 77.6395 12.9434 77.3973 12.9941C77.1551 13.041 76.952 13.1133 76.7879 13.2109C76.6238 13.3086 76.4988 13.4316 76.4129 13.5801C76.327 13.7246 76.284 13.8945 76.284 14.0898C76.284 14.2891 76.3289 14.4707 76.4188 14.6348C76.5086 14.7988 76.6434 14.9297 76.823 15.0273C77.0066 15.1211 77.2313 15.168 77.4969 15.168C77.8289 15.168 78.1219 15.0977 78.3758 14.957C78.6297 14.8164 78.8309 14.6445 78.9793 14.4414C79.1316 14.2383 79.2137 14.041 79.2254 13.8496L79.6883 14.3711C79.6609 14.5352 79.5867 14.7168 79.4656 14.916C79.3445 15.1152 79.1824 15.3066 78.9793 15.4902C78.7801 15.6699 78.5418 15.8203 78.2645 15.9414C77.991 16.0586 77.6824 16.1172 77.3387 16.1172C76.909 16.1172 76.532 16.0332 76.2078 15.8652C75.8875 15.6973 75.6375 15.4727 75.4578 15.1914C75.282 14.9062 75.1941 14.5879 75.1941 14.2363C75.1941 13.8965 75.2605 13.5977 75.3934 13.3398C75.5262 13.0781 75.7176 12.8613 75.9676 12.6895C76.2176 12.5137 76.5184 12.3809 76.8699 12.291C77.2215 12.2012 77.6141 12.1562 78.0477 12.1562H79.3074ZM83.4867 7V16H82.3969V7H83.4867Z" fill="black" fill-opacity="0.54"/>
<path d="M59.6451 30.2349H60.981C61.5006 30.2349 61.9304 30.1452 62.2706 29.9658C62.6169 29.7865 62.8736 29.5391 63.0406 29.2236C63.2076 28.9082 63.2911 28.5464 63.2911 28.1382C63.2911 27.7114 63.2138 27.3465 63.0592 27.0435C62.9107 26.7342 62.6819 26.4961 62.3726 26.3291C62.0696 26.1621 61.683 26.0786 61.213 26.0786C60.8171 26.0786 60.4584 26.159 60.1368 26.3198C59.8214 26.4744 59.5709 26.6971 59.3853 26.9878C59.1998 27.2723 59.107 27.6125 59.107 28.0083H56.8619C56.8619 27.2909 57.0505 26.6538 57.4278 26.0972C57.8051 25.5405 58.3184 25.1045 58.9679 24.7891C59.6234 24.4674 60.3595 24.3066 61.1759 24.3066C62.0479 24.3066 62.8087 24.452 63.4581 24.7427C64.1137 25.0272 64.6239 25.4539 64.9888 26.0229C65.3538 26.592 65.5362 27.297 65.5362 28.1382C65.5362 28.5216 65.4465 28.9113 65.2672 29.3071C65.0878 29.703 64.8219 30.0648 64.4693 30.3926C64.1168 30.7142 63.6776 30.9771 63.1519 31.1812C62.6262 31.3791 62.017 31.478 61.3243 31.478H59.6451V30.2349ZM59.6451 31.979V30.7544H61.3243C62.116 30.7544 62.7901 30.8472 63.3468 31.0327C63.9096 31.2183 64.3673 31.4749 64.7198 31.8027C65.0723 32.1243 65.329 32.4924 65.4898 32.9067C65.6568 33.3211 65.7403 33.7603 65.7403 34.2241C65.7403 34.855 65.6259 35.4178 65.397 35.9126C65.1744 36.4012 64.8559 36.8156 64.4415 37.1558C64.0271 37.4959 63.5416 37.7526 62.9849 37.9258C62.4345 38.099 61.8345 38.1855 61.1851 38.1855C60.6038 38.1855 60.0471 38.1051 59.5152 37.9443C58.9833 37.7835 58.5071 37.5454 58.0865 37.23C57.6659 36.9084 57.3319 36.5094 57.0845 36.0332C56.8433 35.5508 56.7227 34.9941 56.7227 34.3633H58.9586C58.9586 34.7653 59.0513 35.1209 59.2369 35.4302C59.4286 35.7332 59.6946 35.9714 60.0347 36.1445C60.3811 36.3177 60.7769 36.4043 61.2222 36.4043C61.6923 36.4043 62.0974 36.3208 62.4376 36.1538C62.7777 35.9868 63.0375 35.7394 63.2169 35.4116C63.4024 35.0838 63.4952 34.688 63.4952 34.2241C63.4952 33.6984 63.3931 33.2716 63.189 32.9438C62.9849 32.616 62.6942 32.3748 62.317 32.2202C61.9397 32.0594 61.4944 31.979 60.981 31.979H59.6451Z" fill="black" fill-opacity="0.87"/>
</g>
<defs>
<clipPath id="clip0_1281_28552">
<rect width="164" height="48" fill="white"/>
</clipPath>
</defs>
</svg>
