<svg width="200" height="60" viewBox="0 0 200 60" fill="none" xmlns="http://www.w3.org/2000/svg">
<g clip-path="url(#clip0_1281_28117)">
<path d="M196 0.75H4C2.20507 0.75 0.75 2.20507 0.75 4V56C0.75 57.7949 2.20507 59.25 4 59.25H196C197.795 59.25 199.25 57.7949 199.25 56V4C199.25 2.20507 197.795 0.75 196 0.75Z" fill="white"/>
<path d="M196 0.75H4C2.20507 0.75 0.75 2.20507 0.75 4V56C0.75 57.7949 2.20507 59.25 4 59.25H196C197.795 59.25 199.25 57.7949 199.25 56V4C199.25 2.20507 197.795 0.75 196 0.75Z" stroke="#00695C" stroke-width="1.5"/>
<path d="M62.1673 39.3333V32.3333H66.834V39.3333H72.6673V30H76.1673L64.5007 19.5L52.834 30H56.334V39.3333H62.1673Z" fill="#00695C"/>
<path d="M90.1953 30.9316H86.21L86.1885 28.9658H89.6689C90.2562 28.9658 90.7539 28.8799 91.1621 28.708C91.5775 28.529 91.8926 28.2747 92.1074 27.9453C92.3223 27.6087 92.4297 27.2041 92.4297 26.7314C92.4297 26.2087 92.3294 25.7826 92.1289 25.4531C91.9284 25.1237 91.6204 24.8838 91.2051 24.7334C90.7969 24.583 90.2741 24.5078 89.6367 24.5078H87.0264V38H84.3301V22.3594H89.6367C90.4961 22.3594 91.2624 22.4417 91.9355 22.6064C92.6159 22.7712 93.1924 23.029 93.665 23.3799C94.1449 23.7236 94.5065 24.1605 94.75 24.6904C95.0007 25.2204 95.126 25.8506 95.126 26.5811C95.126 27.2256 94.972 27.8164 94.6641 28.3535C94.3561 28.8835 93.9014 29.3167 93.2998 29.6533C92.6982 29.9899 91.9499 30.1904 91.0547 30.2549L90.1953 30.9316ZM90.0771 38H85.3613L86.5752 35.8623H90.0771C90.6859 35.8623 91.1943 35.762 91.6025 35.5615C92.0107 35.3538 92.3151 35.071 92.5156 34.7129C92.7233 34.3477 92.8271 33.9215 92.8271 33.4346C92.8271 32.9261 92.7376 32.4857 92.5586 32.1133C92.3796 31.7337 92.0967 31.4437 91.71 31.2432C91.3232 31.0355 90.8184 30.9316 90.1953 30.9316H87.166L87.1875 28.9658H91.1299L91.7422 29.707C92.6016 29.7357 93.307 29.9255 93.8584 30.2764C94.417 30.6273 94.8324 31.082 95.1045 31.6406C95.3766 32.1992 95.5127 32.8008 95.5127 33.4453C95.5127 34.4408 95.2943 35.2751 94.8574 35.9482C94.4277 36.6214 93.8083 37.1335 92.999 37.4844C92.1898 37.8281 91.2158 38 90.0771 38ZM105.216 35.2607V26.377H107.815V38H105.366L105.216 35.2607ZM105.581 32.8438L106.451 32.8223C106.451 33.6029 106.365 34.3226 106.193 34.9814C106.021 35.6331 105.757 36.2025 105.398 36.6895C105.04 37.1693 104.582 37.5452 104.023 37.8174C103.465 38.0824 102.795 38.2148 102.015 38.2148C101.449 38.2148 100.93 38.1325 100.457 37.9678C99.9844 37.8031 99.5762 37.5488 99.2324 37.2051C98.8958 36.8613 98.6344 36.4137 98.4482 35.8623C98.262 35.3109 98.1689 34.652 98.1689 33.8857V26.377H100.758V33.9072C100.758 34.3298 100.808 34.6842 100.908 34.9707C101.008 35.25 101.145 35.4756 101.316 35.6475C101.488 35.8193 101.689 35.9411 101.918 36.0127C102.147 36.0843 102.391 36.1201 102.648 36.1201C103.386 36.1201 103.966 35.9769 104.389 35.6904C104.818 35.3968 105.123 35.0029 105.302 34.5088C105.488 34.0146 105.581 33.4596 105.581 32.8438ZM116.047 26.377V28.2676H109.494V26.377H116.047ZM111.385 23.5303H113.974V34.7881C113.974 35.1462 114.024 35.4219 114.124 35.6152C114.231 35.8014 114.378 35.9268 114.564 35.9912C114.751 36.0557 114.969 36.0879 115.22 36.0879C115.399 36.0879 115.571 36.0771 115.735 36.0557C115.9 36.0342 116.033 36.0127 116.133 35.9912L116.144 37.9678C115.929 38.0322 115.678 38.0895 115.392 38.1396C115.112 38.1898 114.79 38.2148 114.425 38.2148C113.83 38.2148 113.304 38.111 112.846 37.9033C112.387 37.6885 112.029 37.3411 111.771 36.8613C111.514 36.3815 111.385 35.7441 111.385 34.9492V23.5303ZM123.623 26.377V28.2676H117.07V26.377H123.623ZM118.961 23.5303H121.55V34.7881C121.55 35.1462 121.6 35.4219 121.7 35.6152C121.808 35.8014 121.954 35.9268 122.141 35.9912C122.327 36.0557 122.545 36.0879 122.796 36.0879C122.975 36.0879 123.147 36.0771 123.312 36.0557C123.476 36.0342 123.609 36.0127 123.709 35.9912L123.72 37.9678C123.505 38.0322 123.254 38.0895 122.968 38.1396C122.688 38.1898 122.366 38.2148 122.001 38.2148C121.407 38.2148 120.88 38.111 120.422 37.9033C119.964 37.6885 119.605 37.3411 119.348 36.8613C119.09 36.3815 118.961 35.7441 118.961 34.9492V23.5303ZM125.119 32.3174V32.0703C125.119 31.2324 125.241 30.4554 125.484 29.7393C125.728 29.016 126.079 28.3893 126.537 27.8594C127.003 27.3223 127.568 26.9069 128.234 26.6133C128.908 26.3125 129.667 26.1621 130.512 26.1621C131.364 26.1621 132.123 26.3125 132.789 26.6133C133.462 26.9069 134.032 27.3223 134.497 27.8594C134.963 28.3893 135.317 29.016 135.561 29.7393C135.804 30.4554 135.926 31.2324 135.926 32.0703V32.3174C135.926 33.1553 135.804 33.9323 135.561 34.6484C135.317 35.3646 134.963 35.9912 134.497 36.5283C134.032 37.0583 133.466 37.4736 132.8 37.7744C132.134 38.068 131.378 38.2148 130.533 38.2148C129.681 38.2148 128.918 38.068 128.245 37.7744C127.579 37.4736 127.013 37.0583 126.548 36.5283C126.082 35.9912 125.728 35.3646 125.484 34.6484C125.241 33.9323 125.119 33.1553 125.119 32.3174ZM127.708 32.0703V32.3174C127.708 32.8402 127.762 33.3343 127.869 33.7998C127.977 34.2653 128.145 34.6735 128.374 35.0244C128.603 35.3753 128.897 35.651 129.255 35.8516C129.613 36.0521 130.039 36.1523 130.533 36.1523C131.013 36.1523 131.428 36.0521 131.779 35.8516C132.137 35.651 132.431 35.3753 132.66 35.0244C132.889 34.6735 133.058 34.2653 133.165 33.7998C133.28 33.3343 133.337 32.8402 133.337 32.3174V32.0703C133.337 31.5547 133.28 31.0677 133.165 30.6094C133.058 30.1439 132.886 29.7321 132.649 29.374C132.42 29.016 132.127 28.7367 131.769 28.5361C131.418 28.3285 130.999 28.2246 130.512 28.2246C130.025 28.2246 129.602 28.3285 129.244 28.5361C128.893 28.7367 128.603 29.016 128.374 29.374C128.145 29.7321 127.977 30.1439 127.869 30.6094C127.762 31.0677 127.708 31.5547 127.708 32.0703ZM140.913 28.8584V38H138.324V26.377H140.763L140.913 28.8584ZM140.451 31.7588L139.613 31.748C139.62 30.9245 139.735 30.1689 139.957 29.4814C140.186 28.7939 140.501 28.2031 140.902 27.709C141.311 27.2148 141.798 26.8353 142.363 26.5703C142.929 26.2982 143.559 26.1621 144.254 26.1621C144.812 26.1621 145.317 26.2409 145.769 26.3984C146.227 26.5488 146.617 26.7959 146.939 27.1396C147.269 27.4834 147.52 27.931 147.691 28.4824C147.863 29.0267 147.949 29.6963 147.949 30.4912V38H145.35V30.4805C145.35 29.9219 145.267 29.4814 145.103 29.1592C144.945 28.8298 144.712 28.597 144.404 28.4609C144.104 28.3177 143.728 28.2461 143.276 28.2461C142.832 28.2461 142.435 28.3392 142.084 28.5254C141.733 28.7116 141.436 28.9658 141.192 29.2881C140.956 29.6104 140.773 29.9827 140.645 30.4053C140.516 30.8278 140.451 31.279 140.451 31.7588Z" fill="#00695C"/>
</g>
<defs>
<clipPath id="clip0_1281_28117">
<rect width="200" height="60" fill="white"/>
</clipPath>
</defs>
</svg>
