<svg width="198" height="58" viewBox="0 0 198 58" fill="none" xmlns="http://www.w3.org/2000/svg">
<g clip-path="url(#clip0_1281_28165)">
<path d="M195 -0.25H3C1.20507 -0.25 -0.25 1.20507 -0.25 3V55C-0.25 56.7949 1.20507 58.25 3 58.25H195C196.795 58.25 198.25 56.7949 198.25 55V3C198.25 1.20507 196.795 -0.25 195 -0.25Z" fill="white"/>
<path d="M3.24219 0.75H194.758C196.138 0.75 197.25 1.86157 197.25 3.22266V54.7773C197.25 56.1384 196.138 57.25 194.758 57.25H3.24219C1.8617 57.25 0.75 56.1384 0.75 54.7773V3.22266C0.75 1.94663 1.72675 0.889749 2.98633 0.762695L3.24219 0.75Z" stroke="#00695C" stroke-width="1.5"/>
<path d="M64.4987 22V24.3333H74.5203L63.332 35.5217L64.977 37.1667L76.1653 25.9783V36H78.4987V22H64.4987Z" fill="#00695C"/>
<path d="M99.5649 32.9717C99.5649 32.6494 99.5149 32.363 99.4149 32.1123C99.3219 31.8617 99.1539 31.6325 98.9101 31.4248C98.6666 31.2171 98.3228 31.0166 97.8788 30.8232C97.442 30.6227 96.8834 30.4186 96.203 30.2109C95.4583 29.9818 94.7708 29.7275 94.1405 29.4482C93.5175 29.1618 92.9732 28.8324 92.5077 28.46C92.0422 28.0804 91.6806 27.6471 91.4228 27.1602C91.165 26.666 91.0361 26.0967 91.0361 25.4521C91.0361 24.8148 91.1685 24.2347 91.4335 23.7119C91.7057 23.1891 92.0888 22.738 92.5829 22.3584C93.0842 21.9717 93.6751 21.6745 94.3554 21.4668C95.0357 21.252 95.7877 21.1445 96.6113 21.1445C97.7714 21.1445 98.7704 21.3594 99.6079 21.7891C100.453 22.2188 101.102 22.7952 101.553 23.5186C102.011 24.2419 102.24 25.0404 102.24 25.9141H99.5649C99.5649 25.3984 99.4539 24.9437 99.2319 24.5498C99.0179 24.1488 98.6881 23.8337 98.2441 23.6045C97.8072 23.3753 97.2522 23.2607 96.579 23.2607C95.9417 23.2607 95.4117 23.3574 94.9892 23.5508C94.5667 23.7441 94.2516 24.0055 94.0439 24.335C93.8362 24.6644 93.7323 25.0368 93.7323 25.4521C93.7323 25.7458 93.8004 26.0143 93.9364 26.2578C94.0725 26.4941 94.2802 26.7161 94.5595 26.9238C94.8388 27.1243 95.1897 27.3141 95.6122 27.4932C96.0348 27.6722 96.5325 27.8441 97.1054 28.0088C97.9719 28.2666 98.7275 28.5531 99.3719 28.8682C100.017 29.1761 100.554 29.527 100.983 29.9209C101.413 30.3148 101.735 30.7624 101.95 31.2637C102.165 31.7578 102.272 32.32 102.272 32.9502C102.272 33.609 102.14 34.2035 101.875 34.7334C101.61 35.2562 101.23 35.7038 100.736 36.0762C100.249 36.4414 99.6619 36.7243 98.9745 36.9248C98.2942 37.1182 97.5351 37.2148 96.6972 37.2148C95.9452 37.2148 95.204 37.1146 94.4736 36.9141C93.7502 36.7135 93.0914 36.4092 92.497 36.001C91.9026 35.5856 91.4299 35.07 91.079 34.4541C90.7281 33.8311 90.5527 33.1042 90.5527 32.2734H93.2489C93.2489 32.7819 93.3349 33.2152 93.5068 33.5732C93.6858 33.9313 93.9329 34.2249 94.248 34.4541C94.5631 34.6761 94.9283 34.8408 95.3437 34.9482C95.7662 35.0557 96.2174 35.1094 96.6972 35.1094C97.3274 35.1094 97.8538 35.0199 98.2763 34.8408C98.706 34.6618 99.0279 34.4111 99.2429 34.0889C99.4579 33.7666 99.5649 33.3942 99.5649 32.9717ZM109.773 37.2148C108.914 37.2148 108.137 37.0752 107.442 36.7959C106.755 36.5094 106.168 36.112 105.681 35.6035C105.201 35.0951 104.832 34.4971 104.574 33.8096C104.316 33.1221 104.188 32.3809 104.188 31.5859V31.1562C104.188 30.2467 104.32 29.4232 104.585 28.6855C104.85 27.9479 105.219 27.3177 105.691 26.7949C106.164 26.265 106.723 25.8604 107.367 25.5811C108.012 25.3018 108.71 25.1621 109.462 25.1621C110.293 25.1621 111.02 25.3018 111.643 25.5811C112.266 25.8604 112.781 26.2542 113.189 26.7627C113.605 27.264 113.913 27.862 114.113 28.5566C114.321 29.2513 114.425 30.0176 114.425 30.8555V31.9619H105.444V30.1035H111.868V29.8994C111.854 29.4339 111.761 28.9971 111.589 28.5889C111.424 28.1807 111.17 27.8512 110.826 27.6006C110.482 27.3499 110.024 27.2246 109.451 27.2246C109.022 27.2246 108.638 27.3177 108.302 27.5039C107.972 27.6829 107.697 27.9443 107.475 28.2881C107.253 28.6318 107.081 29.0472 106.959 29.5342C106.844 30.014 106.787 30.5547 106.787 31.1562V31.5859C106.787 32.0944 106.855 32.5671 106.991 33.0039C107.134 33.4336 107.342 33.8096 107.614 34.1318C107.886 34.4541 108.216 34.7083 108.603 34.8945C108.989 35.0736 109.43 35.1631 109.924 35.1631C110.547 35.1631 111.102 35.0378 111.589 34.7871C112.076 34.5365 112.498 34.182 112.856 33.7236L114.221 35.0449C113.97 35.4102 113.644 35.7611 113.243 36.0977C112.842 36.4271 112.352 36.6956 111.772 36.9033C111.199 37.111 110.533 37.2148 109.773 37.2148ZM119.262 27.8584V37H116.673V25.377H119.111L119.262 27.8584ZM118.8 30.7588L117.962 30.748C117.969 29.9245 118.084 29.1689 118.306 28.4814C118.535 27.7939 118.85 27.2031 119.251 26.709C119.659 26.2148 120.146 25.8353 120.712 25.5703C121.278 25.2982 121.908 25.1621 122.603 25.1621C123.161 25.1621 123.666 25.2409 124.117 25.3984C124.576 25.5488 124.966 25.7959 125.288 26.1396C125.618 26.4834 125.868 26.931 126.04 27.4824C126.212 28.0267 126.298 28.6963 126.298 29.4912V37H123.698V29.4805C123.698 28.9219 123.616 28.4814 123.451 28.1592C123.294 27.8298 123.061 27.597 122.753 27.4609C122.452 27.3177 122.076 27.2461 121.625 27.2461C121.181 27.2461 120.784 27.3392 120.433 27.5254C120.082 27.7116 119.785 27.9658 119.541 28.2881C119.305 28.6104 119.122 28.9827 118.993 29.4053C118.864 29.8278 118.8 30.279 118.8 30.7588ZM136.28 34.5938V20.5H138.88V37H136.527L136.28 34.5938ZM128.718 31.3174V31.0918C128.718 30.2109 128.822 29.4089 129.029 28.6855C129.237 27.9551 129.538 27.3285 129.932 26.8057C130.326 26.2757 130.805 25.8711 131.371 25.5918C131.937 25.3053 132.574 25.1621 133.283 25.1621C133.985 25.1621 134.601 25.2982 135.131 25.5703C135.661 25.8424 136.112 26.2327 136.484 26.7412C136.857 27.2425 137.154 27.8441 137.376 28.5459C137.598 29.2406 137.756 30.014 137.849 30.8662V31.5859C137.756 32.4167 137.598 33.1758 137.376 33.8633C137.154 34.5508 136.857 35.1452 136.484 35.6465C136.112 36.1478 135.657 36.5345 135.12 36.8066C134.59 37.0788 133.971 37.2148 133.262 37.2148C132.56 37.2148 131.926 37.068 131.36 36.7744C130.802 36.4808 130.326 36.069 129.932 35.5391C129.538 35.0091 129.237 34.3861 129.029 33.6699C128.822 32.9466 128.718 32.1624 128.718 31.3174ZM131.307 31.0918V31.3174C131.307 31.8473 131.353 32.3415 131.446 32.7998C131.547 33.2581 131.701 33.6628 131.908 34.0137C132.116 34.3574 132.384 34.6296 132.714 34.8301C133.05 35.0234 133.452 35.1201 133.917 35.1201C134.504 35.1201 134.988 34.9912 135.367 34.7334C135.747 34.4756 136.044 34.1283 136.259 33.6914C136.481 33.2474 136.631 32.7533 136.71 32.209V30.2646C136.667 29.8421 136.577 29.4482 136.441 29.083C136.313 28.7178 136.137 28.3991 135.915 28.127C135.693 27.8477 135.417 27.6328 135.088 27.4824C134.766 27.3249 134.383 27.2461 133.939 27.2461C133.466 27.2461 133.065 27.3464 132.735 27.5469C132.406 27.7474 132.134 28.0231 131.919 28.374C131.711 28.7249 131.557 29.1331 131.457 29.5986C131.357 30.0641 131.307 30.5618 131.307 31.0918Z" fill="#00695C"/>
</g>
<defs>
<clipPath id="clip0_1281_28165">
<rect width="198" height="58" fill="white"/>
</clipPath>
</defs>
</svg>
