<svg width="114" height="112" viewBox="0 0 114 112" fill="none" xmlns="http://www.w3.org/2000/svg">
<g clip-path="url(#clip0_1281_28153)">
<g filter="url(#filter0_i_1281_28153)">
<path d="M103.5 56C103.5 81.129 82.681 101.5 57 101.5C31.3188 101.5 10.5 81.129 10.5 56C10.5 30.871 31.3188 10.5 57 10.5C82.681 10.5 103.5 30.871 103.5 56Z" fill="#00695C"/>
</g>
<path d="M102.5 56C102.5 80.556 82.15 100.5 57 100.5C31.8504 100.5 11.5 80.556 11.5 56C11.5 31.4437 31.8504 11.5 57 11.5C82.15 11.5 102.5 31.4437 102.5 56Z" stroke="white" stroke-width="2"/>
<path fill-rule="evenodd" clip-rule="evenodd" d="M57 111.5C88.204 111.5 113.5 86.652 113.5 56C113.5 25.3482 88.204 0.5 57 0.5C25.7959 0.5 0.5 25.3482 0.5 56C0.5 86.652 25.7959 111.5 57 111.5ZM57 101.5C82.681 101.5 103.5 81.129 103.5 56C103.5 30.871 82.681 10.5 57 10.5C31.3188 10.5 10.5 30.871 10.5 56C10.5 81.129 31.3188 101.5 57 101.5Z" fill="url(#paint0_linear_1281_28153)"/>
<path d="M55.3564 55.1855V56.1738C55.3564 57.3483 55.2096 58.401 54.916 59.332C54.6224 60.263 54.1998 61.0544 53.6484 61.7061C53.097 62.3577 52.4345 62.8555 51.6611 63.1992C50.8948 63.543 50.0355 63.7148 49.083 63.7148C48.1592 63.7148 47.3105 63.543 46.5371 63.1992C45.7708 62.8555 45.1048 62.3577 44.539 61.7061C43.9804 61.0544 43.5472 60.263 43.2392 59.332C42.9313 58.401 42.7773 57.3483 42.7773 56.1738V55.1855C42.7773 54.0111 42.9277 52.9619 43.2285 52.0381C43.5364 51.1071 43.9697 50.3158 44.5283 49.6641C45.0869 49.0052 45.7493 48.5039 46.5156 48.1602C47.289 47.8164 48.1377 47.6445 49.0615 47.6445C50.014 47.6445 50.8733 47.8164 51.6396 48.1602C52.4131 48.5039 53.0755 49.0052 53.6269 49.6641C54.1855 50.3158 54.6116 51.1071 54.9052 52.0381C55.206 52.9619 55.3564 54.0111 55.3564 55.1855ZM53.3047 56.1738V55.1641C53.3047 54.2331 53.208 53.4095 53.0146 52.6934C52.8284 51.9772 52.5527 51.3757 52.1875 50.8887C51.8222 50.4017 51.3747 50.0329 50.8447 49.7822C50.3219 49.5316 49.7275 49.4062 49.0615 49.4062C48.417 49.4062 47.8333 49.5316 47.3105 49.7822C46.7949 50.0329 46.3509 50.4017 45.9785 50.8887C45.6133 51.3757 45.3304 51.9772 45.1299 52.6934C44.9293 53.4095 44.8291 54.2331 44.8291 55.1641V56.1738C44.8291 57.112 44.9293 57.9427 45.1299 58.666C45.3304 59.3822 45.6168 59.9873 45.9892 60.4814C46.3688 60.9684 46.8164 61.3372 47.332 61.5879C47.8548 61.8385 48.4385 61.9639 49.083 61.9639C49.7562 61.9639 50.3541 61.8385 50.8769 61.5879C51.3997 61.3372 51.8401 60.9684 52.1982 60.4814C52.5635 59.9873 52.8392 59.3822 53.0254 58.666C53.2116 57.9427 53.3047 57.112 53.3047 56.1738ZM70.492 47.8594V63.5H68.408L60.534 51.4365V63.5H58.461V47.8594H60.534L68.44 59.9551V47.8594H70.492Z" fill="white"/>
</g>
<defs>
<filter id="filter0_i_1281_28153" x="5.5" y="10.5" width="98" height="96" filterUnits="userSpaceOnUse" color-interpolation-filters="sRGB">
<feFlood flood-opacity="0" result="BackgroundImageFix"/>
<feBlend mode="normal" in="SourceGraphic" in2="BackgroundImageFix" result="shape"/>
<feColorMatrix in="SourceAlpha" type="matrix" values="0 0 0 0 0 0 0 0 0 0 0 0 0 0 0 0 0 0 127 0" result="hardAlpha"/>
<feOffset dx="-5" dy="5"/>
<feGaussianBlur stdDeviation="4"/>
<feComposite in2="hardAlpha" operator="arithmetic" k2="-1" k3="1"/>
<feColorMatrix type="matrix" values="0 0 0 0 0 0 0 0 0 0 0 0 0 0 0 0 0 0 0.15 0"/>
<feBlend mode="normal" in2="shape" result="effect1_innerShadow_1281_28153"/>
</filter>
<linearGradient id="paint0_linear_1281_28153" x1="22.8964" y1="100.5" x2="86.519" y2="9.9248" gradientUnits="userSpaceOnUse">
<stop stop-color="#CCCCCC"/>
<stop offset="1" stop-color="white"/>
</linearGradient>
<clipPath id="clip0_1281_28153">
<rect width="114" height="112" fill="white"/>
</clipPath>
</defs>
</svg>
