<svg width="202" height="130" viewBox="0 0 202 130" fill="none" xmlns="http://www.w3.org/2000/svg">
<g clip-path="url(#clip0_1281_28122)">
<g filter="url(#filter0_d_1281_28122)">
<path d="M197 1.75H5C3.20507 1.75 1.75 3.20507 1.75 5V57C1.75 58.7949 3.20507 60.25 5 60.25H197C198.795 60.25 200.25 58.7949 200.25 57V5C200.25 3.20507 198.795 1.75 197 1.75Z" stroke="#198038" stroke-width="1.5"/>
<mask id="mask0_1281_28122" style="mask-type:alpha" maskUnits="userSpaceOnUse" x="55" y="19" width="25" height="24">
<path d="M79.5 19H55.5V43H79.5V19Z" fill="#D9D9D9"/>
</mask>
<g mask="url(#mask0_1281_28122)">
<path d="M61.5 27H70.5V25C70.5 24.1667 70.2083 23.4583 69.625 22.875C69.0417 22.2917 68.3333 22 67.5 22C66.6667 22 65.9583 22.2917 65.375 22.875C64.7917 23.4583 64.5 24.1667 64.5 25H62.5C62.5 23.6167 62.9875 22.4375 63.9625 21.4625C64.9375 20.4875 66.1167 20 67.5 20C68.8833 20 70.0625 20.4875 71.0375 21.4625C72.0125 22.4375 72.5 23.6167 72.5 25V27H73.5C74.05 27 74.5208 27.1958 74.9125 27.5875C75.3042 27.9792 75.5 28.45 75.5 29V39C75.5 39.55 75.3042 40.0208 74.9125 40.4125C74.5208 40.8042 74.05 41 73.5 41H61.5C60.95 41 60.4792 40.8042 60.0875 40.4125C59.6958 40.0208 59.5 39.55 59.5 39V29C59.5 28.45 59.6958 27.9792 60.0875 27.5875C60.4792 27.1958 60.95 27 61.5 27ZM61.5 39H73.5V29H61.5V39ZM67.5 36C68.05 36 68.5208 35.8042 68.9125 35.4125C69.3042 35.0208 69.5 34.55 69.5 34C69.5 33.45 69.3042 32.9792 68.9125 32.5875C68.5208 32.1958 68.05 32 67.5 32C66.95 32 66.4792 32.1958 66.0875 32.5875C65.6958 32.9792 65.5 33.45 65.5 34C65.5 34.55 65.6958 35.0208 66.0875 35.4125C66.4792 35.8042 66.95 36 67.5 36Z" fill="#198038"/>
</g>
<path d="M95.131 30.25V30.9531C95.131 31.9199 95.005 32.7871 94.753 33.5547C94.501 34.3223 94.141 34.9756 93.672 35.5146C93.209 36.0537 92.6523 36.4668 92.002 36.7539C91.3516 37.0352 90.6309 37.1758 89.8398 37.1758C89.0547 37.1758 88.3369 37.0352 87.6865 36.7539C87.042 36.4668 86.4824 36.0537 86.0078 35.5146C85.5332 34.9756 85.1641 34.3223 84.9004 33.5547C84.6426 32.7871 84.5137 31.9199 84.5137 30.9531V30.25C84.5137 29.2832 84.6426 28.4189 84.9004 27.6572C85.1582 26.8896 85.5215 26.2363 85.9902 25.6973C86.4648 25.1523 87.0244 24.7393 87.6689 24.458C88.3193 24.1709 89.0371 24.0273 89.8223 24.0273C90.6133 24.0273 91.334 24.1709 91.9844 24.458C92.6348 24.7393 93.194 25.1523 93.663 25.6973C94.132 26.2363 94.492 26.8896 94.744 27.6572C95.002 28.4189 95.131 29.2832 95.131 30.25ZM92.9248 30.9531V30.2324C92.9248 29.5176 92.8545 28.8877 92.7139 28.3428C92.5791 27.792 92.377 27.332 92.1074 26.9629C91.8438 26.5879 91.5186 26.3066 91.1318 26.1191C90.7451 25.9258 90.3086 25.8291 89.8223 25.8291C89.3359 25.8291 88.9023 25.9258 88.5215 26.1191C88.1406 26.3066 87.8154 26.5879 87.5459 26.9629C87.2822 27.332 87.0801 27.792 86.9395 28.3428C86.7988 28.8877 86.7285 29.5176 86.7285 30.2324V30.9531C86.7285 31.668 86.7988 32.3008 86.9395 32.8516C87.0801 33.4023 87.2852 33.8682 87.5547 34.249C87.8301 34.624 88.1582 34.9082 88.5391 35.1016C88.9199 35.2891 89.3535 35.3828 89.8398 35.3828C90.332 35.3828 90.7686 35.2891 91.1494 35.1016C91.5303 34.9082 91.8525 34.624 92.1162 34.249C92.3799 33.8682 92.5791 33.4023 92.7139 32.8516C92.8545 32.3008 92.9248 31.668 92.9248 30.9531ZM99.403 29.3184V40.6562H97.285V27.4902H99.236L99.403 29.3184ZM105.599 32.1572V32.3418C105.599 33.0332 105.517 33.6748 105.353 34.2666C105.195 34.8525 104.958 35.3652 104.641 35.8047C104.331 36.2383 103.947 36.5752 103.49 36.8154C103.033 37.0557 102.505 37.1758 101.908 37.1758C101.316 37.1758 100.797 37.0674 100.352 36.8506C99.913 36.6279 99.541 36.3145 99.236 35.9102C98.931 35.5059 98.685 35.0312 98.498 34.4863C98.316 33.9355 98.187 33.332 98.111 32.6758V31.9639C98.187 31.2666 98.316 30.6338 98.498 30.0654C98.685 29.4971 98.931 29.0078 99.236 28.5977C99.541 28.1875 99.913 27.8711 100.352 27.6484C100.792 27.4258 101.304 27.3145 101.89 27.3145C102.488 27.3145 103.018 27.4316 103.481 27.666C103.944 27.8945 104.334 28.2227 104.65 28.6504C104.966 29.0723 105.204 29.582 105.362 30.1797C105.52 30.7715 105.599 31.4307 105.599 32.1572ZM103.481 32.3418V32.1572C103.481 31.7178 103.44 31.3105 103.358 30.9355C103.276 30.5547 103.147 30.2207 102.971 29.9336C102.796 29.6465 102.57 29.4238 102.295 29.2656C102.025 29.1016 101.7 29.0195 101.319 29.0195C100.944 29.0195 100.622 29.084 100.352 29.2129C100.083 29.3359 99.857 29.5088 99.675 29.7314C99.494 29.9541 99.353 30.2148 99.254 30.5137C99.154 30.8066 99.084 31.126 99.043 31.4717V33.1768C99.113 33.5986 99.233 33.9854 99.403 34.3369C99.573 34.6885 99.813 34.9697 100.124 35.1807C100.44 35.3857 100.844 35.4883 101.337 35.4883C101.717 35.4883 102.043 35.4062 102.312 35.2422C102.582 35.0781 102.801 34.8525 102.971 34.5654C103.147 34.2725 103.276 33.9355 103.358 33.5547C103.44 33.1738 103.481 32.7695 103.481 32.3418ZM111.743 37.1758C111.04 37.1758 110.404 37.0615 109.836 36.833C109.274 36.5986 108.793 36.2734 108.395 35.8574C108.002 35.4414 107.7 34.9521 107.489 34.3896C107.279 33.8271 107.173 33.2207 107.173 32.5703V32.2188C107.173 31.4746 107.281 30.8008 107.498 30.1973C107.715 29.5938 108.017 29.0781 108.404 28.6504C108.79 28.2168 109.247 27.8857 109.775 27.6572C110.302 27.4287 110.873 27.3145 111.488 27.3145C112.168 27.3145 112.763 27.4287 113.273 27.6572C113.782 27.8857 114.204 28.208 114.538 28.624C114.878 29.0342 115.13 29.5234 115.294 30.0918C115.464 30.6602 115.549 31.2871 115.549 31.9727V32.8779H108.201V31.3574H113.457V31.1904C113.446 30.8096 113.369 30.4521 113.229 30.1182C113.094 29.7842 112.886 29.5146 112.605 29.3096C112.323 29.1045 111.948 29.002 111.48 29.002C111.128 29.002 110.815 29.0781 110.539 29.2305C110.27 29.377 110.044 29.5908 109.862 29.8721C109.681 30.1533 109.54 30.4932 109.441 30.8916C109.347 31.2842 109.3 31.7266 109.3 32.2188V32.5703C109.3 32.9863 109.356 33.373 109.467 33.7305C109.584 34.082 109.754 34.3896 109.977 34.6533C110.199 34.917 110.469 35.125 110.785 35.2773C111.102 35.4238 111.462 35.4971 111.866 35.4971C112.376 35.4971 112.83 35.3945 113.229 35.1895C113.627 34.9844 113.973 34.6943 114.266 34.3193L115.382 35.4004C115.177 35.6992 114.91 35.9863 114.582 36.2617C114.254 36.5312 113.853 36.751 113.378 36.9209C112.909 37.0908 112.364 37.1758 111.743 37.1758ZM119.452 29.5205V37H117.334V27.4902H119.329L119.452 29.5205ZM119.074 31.8936L118.388 31.8848C118.394 31.2109 118.488 30.5928 118.67 30.0303C118.857 29.4678 119.115 28.9844 119.443 28.5801C119.777 28.1758 120.176 27.8652 120.638 27.6484C121.101 27.4258 121.617 27.3145 122.185 27.3145C122.642 27.3145 123.055 27.3789 123.425 27.5078C123.8 27.6309 124.119 27.833 124.383 28.1143C124.652 28.3955 124.857 28.7617 124.998 29.2129C125.138 29.6582 125.209 30.2061 125.209 30.8564V37H123.082V30.8477C123.082 30.3906 123.014 30.0303 122.88 29.7666C122.751 29.4971 122.56 29.3066 122.308 29.1953C122.062 29.0781 121.755 29.0195 121.386 29.0195C121.022 29.0195 120.697 29.0957 120.41 29.248C120.123 29.4004 119.88 29.6084 119.68 29.8721C119.487 30.1357 119.338 30.4404 119.232 30.7861C119.127 31.1318 119.074 31.501 119.074 31.8936ZM131.713 37.1758C131.01 37.1758 130.374 37.0615 129.806 36.833C129.244 36.5986 128.763 36.2734 128.365 35.8574C127.972 35.4414 127.67 34.9521 127.459 34.3896C127.248 33.8271 127.143 33.2207 127.143 32.5703V32.2188C127.143 31.4746 127.251 30.8008 127.468 30.1973C127.685 29.5938 127.987 29.0781 128.373 28.6504C128.76 28.2168 129.217 27.8857 129.745 27.6572C130.272 27.4287 130.843 27.3145 131.458 27.3145C132.138 27.3145 132.733 27.4287 133.243 27.6572C133.752 27.8857 134.174 28.208 134.508 28.624C134.848 29.0342 135.1 29.5234 135.264 30.0918C135.434 30.6602 135.519 31.2871 135.519 31.9727V32.8779H128.171V31.3574H133.427V31.1904C133.415 30.8096 133.339 30.4521 133.199 30.1182C133.064 29.7842 132.856 29.5146 132.575 29.3096C132.293 29.1045 131.918 29.002 131.45 29.002C131.098 29.002 130.785 29.0781 130.509 29.2305C130.24 29.377 130.014 29.5908 129.832 29.8721C129.651 30.1533 129.51 30.4932 129.411 30.8916C129.317 31.2842 129.27 31.7266 129.27 32.2188V32.5703C129.27 32.9863 129.326 33.373 129.437 33.7305C129.554 34.082 129.724 34.3896 129.947 34.6533C130.169 34.917 130.439 35.125 130.755 35.2773C131.072 35.4238 131.432 35.4971 131.836 35.4971C132.346 35.4971 132.8 35.3945 133.199 35.1895C133.597 34.9844 133.943 34.6943 134.236 34.3193L135.352 35.4004C135.147 35.6992 134.88 35.9863 134.552 36.2617C134.224 36.5312 133.823 36.751 133.348 36.9209C132.879 37.0908 132.334 37.1758 131.713 37.1758ZM143.122 35.0312V23.5H145.249V37H143.324L143.122 35.0312ZM136.935 32.3506V32.166C136.935 31.4453 137.02 30.7891 137.189 30.1973C137.359 29.5996 137.605 29.0869 137.928 28.6592C138.25 28.2256 138.643 27.8945 139.105 27.666C139.568 27.4316 140.09 27.3145 140.67 27.3145C141.244 27.3145 141.748 27.4258 142.182 27.6484C142.615 27.8711 142.984 28.1904 143.289 28.6064C143.594 29.0166 143.837 29.5088 144.019 30.083C144.2 30.6514 144.329 31.2842 144.405 31.9814V32.5703C144.329 33.25 144.2 33.8711 144.019 34.4336C143.837 34.9961 143.594 35.4824 143.289 35.8926C142.984 36.3027 142.612 36.6191 142.173 36.8418C141.739 37.0645 141.232 37.1758 140.652 37.1758C140.078 37.1758 139.56 37.0557 139.097 36.8154C138.64 36.5752 138.25 36.2383 137.928 35.8047C137.605 35.3711 137.359 34.8613 137.189 34.2754C137.02 33.6836 136.935 33.042 136.935 32.3506ZM139.053 32.166V32.3506C139.053 32.7842 139.091 33.1885 139.167 33.5635C139.249 33.9385 139.375 34.2695 139.545 34.5566C139.715 34.8379 139.935 35.0605 140.204 35.2246C140.479 35.3828 140.808 35.4619 141.188 35.4619C141.669 35.4619 142.064 35.3564 142.375 35.1455C142.686 34.9346 142.929 34.6504 143.104 34.293C143.286 33.9297 143.409 33.5254 143.474 33.0801V31.4893C143.438 31.1436 143.365 30.8213 143.254 30.5225C143.148 30.2236 143.005 29.9629 142.823 29.7402C142.642 29.5117 142.416 29.3359 142.146 29.2129C141.883 29.084 141.569 29.0195 141.206 29.0195C140.819 29.0195 140.491 29.1016 140.222 29.2656C139.952 29.4297 139.729 29.6553 139.554 29.9424C139.384 30.2295 139.258 30.5635 139.176 30.9443C139.094 31.3252 139.053 31.7324 139.053 32.166Z" fill="#198038"/>
</g>
<path d="M1 73C1 70.7909 2.79086 69 5 69H197C199.209 69 201 70.7909 201 73V125C201 127.209 199.209 129 197 129H5C2.79086 129 1 127.209 1 125V73Z" fill="#D12730"/>
<mask id="mask1_1281_28122" style="mask-type:luminance" maskUnits="userSpaceOnUse" x="1" y="69" width="200" height="60">
<path d="M1 73C1 70.7909 2.79086 69 5 69H197C199.209 69 201 70.7909 201 73V125C201 127.209 199.209 129 197 129H5C2.79086 129 1 127.209 1 125V73Z" fill="white"/>
</mask>
<g mask="url(#mask1_1281_28122)">
<path d="M201 125C201 128.314 198.314 131 195 131H7C3.6863 131 1 128.314 1 125C1 126.105 2.79086 127 5 127H197C199.209 127 201 126.105 201 125Z" fill="#D12730"/>
</g>
<mask id="mask2_1281_28122" style="mask-type:alpha" maskUnits="userSpaceOnUse" x="58" y="87" width="25" height="24">
<path d="M82.5 87H58.5V111H82.5V87Z" fill="#D9D9D9"/>
</mask>
<g mask="url(#mask2_1281_28122)">
<path d="M64.5 109C63.95 109 63.4792 108.804 63.0875 108.413C62.6958 108.021 62.5 107.55 62.5 107V97C62.5 96.45 62.6958 95.979 63.0875 95.588C63.4792 95.196 63.95 95 64.5 95H65.5V93C65.5 91.617 65.9875 90.438 66.9625 89.462C67.9375 88.487 69.1167 88 70.5 88C71.8833 88 73.0625 88.487 74.0375 89.462C75.0125 90.438 75.5 91.617 75.5 93V95H76.5C77.05 95 77.5208 95.196 77.9125 95.588C78.3042 95.979 78.5 96.45 78.5 97V107C78.5 107.55 78.3042 108.021 77.9125 108.413C77.5208 108.804 77.05 109 76.5 109H64.5ZM64.5 107H76.5V97H64.5V107ZM70.5 104C71.05 104 71.5208 103.804 71.9125 103.413C72.3042 103.021 72.5 102.55 72.5 102C72.5 101.45 72.3042 100.979 71.9125 100.588C71.5208 100.196 71.05 100 70.5 100C69.95 100 69.4792 100.196 69.0875 100.588C68.6958 100.979 68.5 101.45 68.5 102C68.5 102.55 68.6958 103.021 69.0875 103.413C69.4792 103.804 69.95 104 70.5 104ZM67.5 95H73.5V93C73.5 92.167 73.2083 91.458 72.625 90.875C72.0417 90.292 71.3333 90 70.5 90C69.6667 90 68.9583 90.292 68.375 90.875C67.7917 91.458 67.5 92.167 67.5 93V95Z" fill="white"/>
</g>
<path d="M95.676 100.834H97.873C97.803 101.672 97.568 102.419 97.17 103.075C96.771 103.726 96.212 104.238 95.491 104.613C94.771 104.988 93.895 105.176 92.8633 105.176C92.0723 105.176 91.3604 105.035 90.7275 104.754C90.0947 104.467 89.5527 104.062 89.1016 103.541C88.6504 103.014 88.3047 102.378 88.0645 101.634C87.8301 100.89 87.7129 100.058 87.7129 99.138V98.074C87.7129 97.154 87.833 96.322 88.0732 95.578C88.3193 94.834 88.6709 94.198 89.1279 93.671C89.585 93.138 90.1328 92.73 90.7715 92.449C91.416 92.168 92.1396 92.027 92.9424 92.027C93.962 92.027 94.823 92.215 95.526 92.59C96.229 92.965 96.774 93.483 97.161 94.146C97.554 94.808 97.794 95.566 97.882 96.422H95.685C95.626 95.871 95.497 95.399 95.298 95.007C95.104 94.614 94.817 94.315 94.437 94.11C94.056 93.899 93.558 93.794 92.9424 93.794C92.4385 93.794 91.999 93.888 91.624 94.075C91.249 94.263 90.9355 94.538 90.6836 94.901C90.4316 95.265 90.2412 95.713 90.1123 96.246C89.9893 96.773 89.9277 97.377 89.9277 98.057V99.138C89.9277 99.782 89.9834 100.368 90.0947 100.896C90.2119 101.417 90.3877 101.865 90.6221 102.24C90.8623 102.615 91.167 102.905 91.5361 103.11C91.9053 103.315 92.3477 103.418 92.8633 103.418C93.49 103.418 93.997 103.318 94.384 103.119C94.776 102.92 95.072 102.63 95.271 102.249C95.477 101.862 95.611 101.391 95.676 100.834ZM102.084 91.5V105H99.957V91.5H102.084ZM104.15 100.351V100.148C104.15 99.463 104.249 98.827 104.448 98.241C104.648 97.649 104.935 97.137 105.31 96.703C105.691 96.264 106.154 95.924 106.698 95.684C107.249 95.438 107.87 95.314 108.562 95.314C109.259 95.314 109.88 95.438 110.425 95.684C110.976 95.924 111.442 96.264 111.822 96.703C112.203 97.137 112.493 97.649 112.693 98.241C112.892 98.827 112.991 99.463 112.991 100.148V100.351C112.991 101.036 112.892 101.672 112.693 102.258C112.493 102.844 112.203 103.356 111.822 103.796C111.442 104.229 110.979 104.569 110.434 104.815C109.889 105.056 109.271 105.176 108.579 105.176C107.882 105.176 107.258 105.056 106.707 104.815C106.162 104.569 105.699 104.229 105.319 103.796C104.938 103.356 104.648 102.844 104.448 102.258C104.249 101.672 104.15 101.036 104.15 100.351ZM106.268 100.148V100.351C106.268 100.778 106.312 101.183 106.4 101.563C106.487 101.944 106.625 102.278 106.813 102.565C107 102.853 107.24 103.078 107.533 103.242C107.826 103.406 108.175 103.488 108.579 103.488C108.972 103.488 109.312 103.406 109.599 103.242C109.892 103.078 110.132 102.853 110.32 102.565C110.507 102.278 110.645 101.944 110.733 101.563C110.826 101.183 110.873 100.778 110.873 100.351V100.148C110.873 99.727 110.826 99.328 110.733 98.953C110.645 98.572 110.504 98.235 110.311 97.942C110.123 97.649 109.883 97.421 109.59 97.257C109.303 97.087 108.96 97.002 108.562 97.002C108.163 97.002 107.818 97.087 107.525 97.257C107.237 97.421 107 97.649 106.813 97.942C106.625 98.235 106.487 98.572 106.4 98.953C106.312 99.328 106.268 99.727 106.268 100.148ZM120.252 102.425C120.252 102.214 120.199 102.023 120.094 101.854C119.988 101.678 119.786 101.52 119.487 101.379C119.194 101.238 118.761 101.109 118.186 100.992C117.682 100.881 117.22 100.749 116.798 100.597C116.382 100.438 116.024 100.248 115.725 100.025C115.427 99.803 115.195 99.539 115.031 99.234C114.867 98.93 114.785 98.578 114.785 98.18C114.785 97.793 114.87 97.427 115.04 97.081C115.21 96.735 115.453 96.431 115.769 96.167C116.086 95.903 116.47 95.695 116.921 95.543C117.378 95.391 117.888 95.314 118.45 95.314C119.247 95.314 119.929 95.449 120.498 95.719C121.072 95.982 121.512 96.343 121.816 96.8C122.121 97.251 122.273 97.761 122.273 98.329H120.155C120.155 98.077 120.091 97.843 119.962 97.626C119.839 97.403 119.651 97.225 119.399 97.09C119.147 96.949 118.831 96.879 118.45 96.879C118.087 96.879 117.785 96.938 117.545 97.055C117.31 97.166 117.135 97.312 117.017 97.494C116.906 97.676 116.85 97.875 116.85 98.092C116.85 98.25 116.88 98.394 116.938 98.522C117.003 98.646 117.108 98.76 117.255 98.865C117.401 98.965 117.6 99.059 117.852 99.146C118.11 99.234 118.432 99.319 118.819 99.401C119.546 99.554 120.17 99.75 120.691 99.99C121.219 100.225 121.623 100.529 121.904 100.904C122.185 101.273 122.326 101.742 122.326 102.311C122.326 102.732 122.235 103.119 122.054 103.471C121.878 103.816 121.62 104.118 121.28 104.376C120.94 104.628 120.533 104.824 120.058 104.965C119.59 105.105 119.062 105.176 118.476 105.176C117.615 105.176 116.886 105.023 116.288 104.719C115.69 104.408 115.236 104.013 114.926 103.532C114.621 103.046 114.469 102.542 114.469 102.021H116.516C116.54 102.413 116.648 102.727 116.842 102.961C117.041 103.189 117.287 103.356 117.58 103.462C117.879 103.562 118.186 103.611 118.503 103.611C118.884 103.611 119.203 103.562 119.461 103.462C119.719 103.356 119.915 103.216 120.05 103.04C120.184 102.858 120.252 102.653 120.252 102.425ZM128.523 105.176C127.82 105.176 127.184 105.062 126.616 104.833C126.053 104.599 125.573 104.273 125.174 103.857C124.782 103.441 124.48 102.952 124.269 102.39C124.058 101.827 123.953 101.221 123.953 100.57V100.219C123.953 99.475 124.061 98.801 124.278 98.197C124.495 97.594 124.796 97.078 125.183 96.65C125.57 96.217 126.027 95.886 126.554 95.657C127.081 95.429 127.653 95.314 128.268 95.314C128.948 95.314 129.542 95.429 130.052 95.657C130.562 95.886 130.984 96.208 131.318 96.624C131.658 97.034 131.91 97.523 132.074 98.092C132.244 98.66 132.329 99.287 132.329 99.973V100.878H124.981V99.357H130.237V99.19C130.225 98.81 130.149 98.452 130.008 98.118C129.873 97.784 129.665 97.515 129.384 97.31C129.103 97.104 128.728 97.002 128.259 97.002C127.908 97.002 127.594 97.078 127.319 97.23C127.049 97.377 126.824 97.591 126.642 97.872C126.46 98.153 126.32 98.493 126.22 98.892C126.126 99.284 126.079 99.727 126.079 100.219V100.57C126.079 100.986 126.135 101.373 126.246 101.73C126.364 102.082 126.534 102.39 126.756 102.653C126.979 102.917 127.248 103.125 127.565 103.277C127.881 103.424 128.242 103.497 128.646 103.497C129.156 103.497 129.61 103.395 130.008 103.189C130.407 102.984 130.752 102.694 131.045 102.319L132.162 103.4C131.956 103.699 131.69 103.986 131.362 104.262C131.034 104.531 130.632 104.751 130.158 104.921C129.689 105.091 129.144 105.176 128.523 105.176ZM139.932 103.031V91.5H142.059V105H140.134L139.932 103.031ZM133.744 100.351V100.166C133.744 99.445 133.829 98.789 133.999 98.197C134.169 97.6 134.415 97.087 134.737 96.659C135.06 96.226 135.452 95.895 135.915 95.666C136.378 95.432 136.899 95.314 137.479 95.314C138.054 95.314 138.558 95.426 138.991 95.648C139.425 95.871 139.794 96.19 140.099 96.606C140.403 97.017 140.646 97.509 140.828 98.083C141.01 98.651 141.139 99.284 141.215 99.981V100.57C141.139 101.25 141.01 101.871 140.828 102.434C140.646 102.996 140.403 103.482 140.099 103.893C139.794 104.303 139.422 104.619 138.982 104.842C138.549 105.064 138.042 105.176 137.462 105.176C136.888 105.176 136.369 105.056 135.906 104.815C135.449 104.575 135.06 104.238 134.737 103.805C134.415 103.371 134.169 102.861 133.999 102.275C133.829 101.684 133.744 101.042 133.744 100.351ZM135.862 100.166V100.351C135.862 100.784 135.9 101.188 135.977 101.563C136.059 101.938 136.185 102.27 136.354 102.557C136.524 102.838 136.744 103.061 137.014 103.225C137.289 103.383 137.617 103.462 137.998 103.462C138.479 103.462 138.874 103.356 139.185 103.146C139.495 102.935 139.738 102.65 139.914 102.293C140.096 101.93 140.219 101.525 140.283 101.08V99.489C140.248 99.144 140.175 98.821 140.063 98.522C139.958 98.224 139.814 97.963 139.633 97.74C139.451 97.512 139.226 97.336 138.956 97.213C138.692 97.084 138.379 97.02 138.016 97.02C137.629 97.02 137.301 97.102 137.031 97.266C136.762 97.43 136.539 97.655 136.363 97.942C136.193 98.229 136.067 98.563 135.985 98.944C135.903 99.325 135.862 99.732 135.862 100.166Z" fill="white"/>
</g>
<defs>
<filter id="filter0_d_1281_28122" x="-7" y="-3" width="216" height="76" filterUnits="userSpaceOnUse" color-interpolation-filters="sRGB">
<feFlood flood-opacity="0" result="BackgroundImageFix"/>
<feColorMatrix in="SourceAlpha" type="matrix" values="0 0 0 0 0 0 0 0 0 0 0 0 0 0 0 0 0 0 127 0" result="hardAlpha"/>
<feOffset dy="4"/>
<feGaussianBlur stdDeviation="4"/>
<feComposite in2="hardAlpha" operator="out"/>
<feColorMatrix type="matrix" values="0 0 0 0 0 0 0 0 0 0 0 0 0 0 0 0 0 0 0.08 0"/>
<feBlend mode="normal" in2="BackgroundImageFix" result="effect1_dropShadow_1281_28122"/>
<feBlend mode="normal" in="SourceGraphic" in2="effect1_dropShadow_1281_28122" result="shape"/>
</filter>
<clipPath id="clip0_1281_28122">
<rect width="202" height="130" fill="white"/>
</clipPath>
</defs>
</svg>
