<svg width="197" height="60" viewBox="0 0 197 60" fill="none" xmlns="http://www.w3.org/2000/svg">
<g clip-path="url(#clip0_1281_28142)">
<g filter="url(#filter0_d_1281_28142)">
<path d="M193.5 0.5H4.5C2.29086 0.5 0.5 2.29086 0.5 4.5V55.5C0.5 57.7091 2.29086 59.5 4.5 59.5H193.5C195.709 59.5 197.5 57.7091 197.5 55.5V4.5C197.5 2.29086 195.709 0.5 193.5 0.5Z" fill="white"/>
<path d="M193.5 1H4.5C2.567 1 1 2.567 1 4.5V55.5C1 57.433 2.567 59 4.5 59H193.5C195.433 59 197 57.433 197 55.5V4.5C197 2.567 195.433 1 193.5 1Z" stroke="#00695C"/>
<path d="M44.5 30C44.5 21.1634 37.3366 14 28.5 14C19.6634 14 12.5 21.1634 12.5 30C12.5 38.8366 19.6634 46 28.5 46C37.3366 46 44.5 38.8366 44.5 30Z" fill="#00695C"/>
<path d="M30.5 36L31.91 34.59L27.33 30L31.91 25.41L30.5 24L24.5 30L30.5 36Z" fill="white"/>
<path d="M59.5 13.5C58.5717 13.5 57.6815 13.8687 57.0251 14.5251C56.3687 15.1815 56 16.0717 56 17V43C56 43.9283 56.3687 44.8185 57.0251 45.4749C57.6815 46.1312 58.5717 46.5 59.5 46.5H138.5C139.428 46.5 140.318 46.1312 140.975 45.4749C141.631 44.8185 142 43.9283 142 43V17C142 16.0717 141.631 15.1815 140.975 14.5251C140.318 13.8687 139.428 13.5 138.5 13.5H59.5Z" fill="#00695C" fill-opacity="0.04"/>
<path d="M59.5 13.5C58.5717 13.5 57.6815 13.8687 57.0251 14.5251C56.3687 15.1815 56 16.0717 56 17V43C56 43.9283 56.3687 44.8185 57.0251 45.4749C57.6815 46.1312 58.5717 46.5 59.5 46.5H138.5C139.428 46.5 140.318 46.1312 140.975 45.4749C141.631 44.8185 142 43.9283 142 43V17C142 16.0717 141.631 15.1815 140.975 14.5251C140.318 13.8687 139.428 13.5 138.5 13.5H59.5Z" stroke="#00695C"/>
<path d="M80.5902 33.5003V35.0003H72.9602V33.7103L76.6602 29.6703C77.0702 29.2103 77.3902 28.8203 77.6302 28.4803C77.8602 28.1503 78.0302 27.8503 78.1202 27.5803C78.3263 27.0178 78.3048 26.3972 78.0602 25.8503C77.9302 25.5803 77.7402 25.3503 77.4802 25.2003C77.1998 25.0326 76.8769 24.9493 76.5502 24.9603C76.1302 24.9603 75.7802 25.0603 75.4902 25.2303C75.2102 25.4203 74.9902 25.6703 74.8402 25.9903C74.6877 26.3366 74.6127 26.712 74.6202 27.0903H72.7402C72.7402 26.4203 72.8902 25.8203 73.2002 25.2703C73.5002 24.7203 73.9302 24.2803 74.5002 23.9703C75.1371 23.6225 75.8549 23.45 76.5802 23.4703C77.3402 23.4703 77.9802 23.6003 78.5202 23.8503C79.0502 24.1103 79.4502 24.4703 79.7202 24.9403C79.95 25.3509 80.091 25.8052 80.1341 26.2738C80.1772 26.7423 80.1213 27.2147 79.9702 27.6603C79.8474 28.0247 79.683 28.3736 79.4802 28.7003C79.2585 29.0641 79.0112 29.4116 78.7402 29.7403C78.4602 30.0903 78.1402 30.4403 77.8002 30.7903L75.3402 33.5003H80.5902ZM89.8602 23.6203V24.6603L85.3002 35.0003H83.3202L87.8602 25.1203H81.9602V23.6203H89.8502H89.8602ZM91.8402 34.0603C91.8402 33.7703 91.9402 33.5303 92.1402 33.3303C92.3402 33.1303 92.6002 33.0303 92.9402 33.0303C93.2802 33.0303 93.5402 33.1303 93.7402 33.3303C93.9402 33.5303 94.0402 33.7703 94.0402 34.0603C94.0437 34.1977 94.0189 34.3342 93.9673 34.4616C93.9157 34.5889 93.8384 34.7042 93.7402 34.8003C93.5402 35.0003 93.2802 35.1003 92.9402 35.1003C92.6002 35.1003 92.3402 35.0003 92.1402 34.8003C92.0421 34.7042 91.9648 34.5889 91.9132 34.4616C91.8616 34.3342 91.8367 34.1977 91.8402 34.0603ZM98.3302 29.7103L96.8302 29.3403L97.4402 23.6203H103.58V25.2203H99.0002L98.6802 28.0103C99.2338 27.7035 99.8573 27.545 100.49 27.5503C101.03 27.5503 101.51 27.6403 101.93 27.8103C102.35 27.9803 102.72 28.2403 103.01 28.5703C103.31 28.9003 103.54 29.3003 103.69 29.7703C104.012 30.7683 104.012 31.8423 103.69 32.8403C103.554 33.2958 103.317 33.7147 102.997 34.0661C102.676 34.4175 102.281 34.6923 101.84 34.8703C101.38 35.0603 100.83 35.1603 100.19 35.1603C99.7294 35.1621 99.271 35.0947 98.8302 34.9603C98.4064 34.8251 98.0101 34.6151 97.6602 34.3403C97.2946 34.0507 96.9981 33.6832 96.7922 33.2646C96.5864 32.846 96.4764 32.3868 96.4702 31.9203H98.3202C98.3702 32.2903 98.4702 32.6103 98.6202 32.8703C98.7802 33.1203 99.0002 33.3203 99.2602 33.4503C99.5466 33.5892 99.862 33.6578 100.18 33.6503C100.5 33.6503 100.78 33.6003 101.01 33.4903C101.24 33.3803 101.43 33.2203 101.58 33.0103C101.73 32.7903 101.85 32.5403 101.92 32.2603C102.077 31.646 102.071 31.0011 101.9 30.3903C101.825 30.1266 101.695 29.8814 101.52 29.6703C101.35 29.4703 101.14 29.3103 100.89 29.2003C100.612 29.0819 100.312 29.0239 100.01 29.0303C99.5602 29.0303 99.2102 29.1003 98.9702 29.2303C98.7402 29.3603 98.5202 29.5203 98.3202 29.7103H98.3302ZM110.08 25.5503C110.08 25.1703 110.18 24.8303 110.36 24.5103C110.55 24.1903 110.8 23.9403 111.11 23.7503C111.419 23.5611 111.773 23.4609 112.135 23.4609C112.497 23.4609 112.852 23.5611 113.16 23.7503C113.47 23.9403 113.72 24.1903 113.9 24.5103C114.09 24.8303 114.18 25.1703 114.18 25.5503C114.18 25.9303 114.08 26.2803 113.9 26.6003C113.72 26.9103 113.47 27.1603 113.16 27.3403C112.928 27.4766 112.671 27.5656 112.404 27.6022C112.138 27.6388 111.866 27.6222 111.606 27.5534C111.346 27.4846 111.102 27.365 110.888 27.2014C110.674 27.0378 110.495 26.8335 110.36 26.6003C110.173 26.2823 110.076 25.9193 110.08 25.5503ZM111.13 25.5503C111.13 25.8155 111.236 26.0699 111.423 26.2574C111.611 26.445 111.865 26.5503 112.13 26.5503C112.261 26.5517 112.391 26.5267 112.512 26.4767C112.632 26.4267 112.742 26.3527 112.833 26.2593C112.925 26.1659 112.997 26.0549 113.044 25.9331C113.092 25.8112 113.114 25.681 113.11 25.5503C113.115 25.4184 113.094 25.2869 113.047 25.1633C113.001 25.0398 112.931 24.9266 112.84 24.8303C112.751 24.7337 112.643 24.6571 112.522 24.6054C112.402 24.5537 112.271 24.5281 112.14 24.5303C111.86 24.5303 111.63 24.6303 111.43 24.8303C111.23 25.0303 111.13 25.2603 111.13 25.5503ZM123.32 31.3003H125.27C125.222 32.003 125.01 32.6846 124.65 33.2903C124.287 33.8773 123.768 34.3517 123.15 34.6603C122.425 35.0123 121.626 35.1839 120.82 35.1603C120.19 35.1884 119.561 35.0724 118.983 34.8212C118.404 34.5699 117.89 34.19 117.48 33.7103C117.08 33.2303 116.77 32.6703 116.56 32.0103C116.35 31.3503 116.24 30.6103 116.24 29.7903V28.8403C116.24 28.0303 116.34 27.2903 116.56 26.6203C116.78 25.9603 117.09 25.4003 117.5 24.9303C117.9 24.4603 118.4 24.0903 118.96 23.8403C119.571 23.5846 120.228 23.4586 120.89 23.4703C121.79 23.4703 122.56 23.6403 123.19 23.9703C123.81 24.3003 124.29 24.7703 124.64 25.3503C124.99 25.9403 125.2 26.6103 125.28 27.3703H123.33C123.28 26.8903 123.16 26.4703 122.98 26.1203C122.819 25.7795 122.552 25.4992 122.22 25.3203C121.808 25.1164 121.35 25.02 120.89 25.0403C120.44 25.0403 120.05 25.1203 119.72 25.2903C119.382 25.4576 119.093 25.709 118.88 26.0203C118.66 26.3503 118.49 26.7403 118.38 27.2203C118.27 27.6903 118.21 28.2203 118.21 28.8203V29.7903C118.21 30.3603 118.26 30.8903 118.36 31.3503C118.46 31.8203 118.62 32.2103 118.83 32.5503C119.04 32.8803 119.31 33.1403 119.64 33.3203C119.97 33.5003 120.36 33.5903 120.82 33.5903C121.38 33.5903 121.82 33.5103 122.17 33.3303C122.52 33.1503 122.78 32.8903 122.97 32.5503C123.14 32.2103 123.27 31.7903 123.32 31.3003Z" fill="black" fill-opacity="0.87"/>
<path d="M185.5 30C185.5 21.1634 178.337 14 169.5 14C160.663 14 153.5 21.1634 153.5 30C153.5 38.8366 160.663 46 169.5 46C178.337 46 185.5 38.8366 185.5 30Z" fill="#00695C"/>
<path d="M167.5 24L166.09 25.41L170.67 30L166.09 34.59L167.5 36L173.5 30L167.5 24Z" fill="white"/>
</g>
</g>
<defs>
<filter id="filter0_d_1281_28142" x="-7.5" y="-3.5" width="213" height="75" filterUnits="userSpaceOnUse" color-interpolation-filters="sRGB">
<feFlood flood-opacity="0" result="BackgroundImageFix"/>
<feColorMatrix in="SourceAlpha" type="matrix" values="0 0 0 0 0 0 0 0 0 0 0 0 0 0 0 0 0 0 127 0" result="hardAlpha"/>
<feOffset dy="4"/>
<feGaussianBlur stdDeviation="4"/>
<feComposite in2="hardAlpha" operator="out"/>
<feColorMatrix type="matrix" values="0 0 0 0 0 0 0 0 0 0 0 0 0 0 0 0 0 0 0.04 0"/>
<feBlend mode="normal" in2="BackgroundImageFix" result="effect1_dropShadow_1281_28142"/>
<feBlend mode="normal" in="SourceGraphic" in2="effect1_dropShadow_1281_28142" result="shape"/>
</filter>
<clipPath id="clip0_1281_28142">
<rect width="197" height="60" fill="white"/>
</clipPath>
</defs>
</svg>
