<svg width="200" height="45" viewBox="0 0 200 45" fill="none" xmlns="http://www.w3.org/2000/svg">
<path d="M3.01074 0.574219H197.001C198.246 0.574285 199.256 1.58379 199.256 2.8291V41.1797C199.256 42.4248 198.246 43.4345 197.001 43.4346H3.01074C1.76555 43.4345 0.756113 42.4248 0.755859 41.1797V2.8291C0.755923 1.58379 1.76543 0.574282 3.01074 0.574219Z" stroke="#00695C" stroke-width="0.75"/>
<path d="M98.4998 2.83008H4.50977C3.68134 2.83008 3.00977 3.50165 3.00977 4.33008V39.6801C3.00977 40.5085 3.68134 41.1801 4.50977 41.1801H98.4998C99.3282 41.1801 99.9998 40.5085 99.9998 39.6801V4.33008C99.9998 3.50165 99.3282 2.83008 98.4998 2.83008Z" fill="#00695C"/>
<path d="M29.2799 17.5198V24.9998H27.9999V17.5198H29.2799ZM31.6299 17.5198V18.5398H25.6699V17.5198H31.6299ZM33.5499 20.4998V24.9998H32.3199V19.4398H33.4999L33.5499 20.4998ZM35.2499 19.3998V20.5499C34.8932 20.4903 34.5277 20.5108 34.1799 20.6098C34.0297 20.6625 33.8933 20.7482 33.7808 20.8607C33.6683 20.9732 33.5825 21.1097 33.5299 21.2598C33.4699 21.4198 33.4299 21.5998 33.4299 21.7898L33.1399 21.8098C33.1399 21.4598 33.1799 21.1398 33.2399 20.8398C33.3099 20.5398 33.4199 20.2798 33.5499 20.0598C33.6899 19.8298 33.8699 19.6598 34.0799 19.5298C34.3748 19.3551 34.7235 19.2947 35.0599 19.3598L35.2599 19.3998H35.2499ZM39.1699 23.8798V21.2299C39.1699 21.0299 39.1299 20.8598 39.0699 20.7198C38.9964 20.5727 38.8771 20.4534 38.7299 20.3798C38.5619 20.2988 38.3763 20.261 38.1899 20.2698C37.9899 20.2698 37.8099 20.2999 37.6599 20.3699C37.524 20.4317 37.4067 20.5283 37.3199 20.6498C37.2383 20.767 37.1963 20.9071 37.1999 21.0499H35.9599C35.9599 20.8199 36.0199 20.6098 36.1199 20.3998C36.2199 20.1998 36.3799 20.0198 36.5799 19.8498C36.7799 19.6898 37.0299 19.5698 37.3099 19.4698C37.5899 19.3798 37.9099 19.3398 38.2499 19.3398C38.6699 19.3398 39.0499 19.4098 39.3699 19.5398C39.6899 19.6898 39.9499 19.8998 40.1299 20.1798C40.3199 20.4598 40.4099 20.8198 40.4099 21.2398V23.7098C40.4099 23.9698 40.4299 24.1998 40.4699 24.3998C40.4999 24.5998 40.5599 24.7698 40.6199 24.9198V24.9998H39.3499C39.2871 24.8389 39.2435 24.671 39.2199 24.4998C39.1899 24.2798 39.1699 24.0798 39.1699 23.8798ZM39.3499 21.6199L39.3599 22.3798H38.4699C38.2399 22.3798 38.0399 22.4098 37.8699 22.4498C37.6899 22.4898 37.5399 22.5498 37.4299 22.6398C37.3199 22.7298 37.2299 22.8198 37.1699 22.9398C37.1066 23.0602 37.0723 23.1938 37.0699 23.3298C37.0699 23.4798 37.1099 23.6099 37.1799 23.7299C37.2499 23.8599 37.3499 23.9498 37.4799 24.0198C37.6099 24.0898 37.7799 24.1199 37.9599 24.1199C38.1761 24.1254 38.3905 24.0792 38.5852 23.9853C38.78 23.8914 38.9496 23.7524 39.0799 23.5798C39.1799 23.4298 39.2499 23.2798 39.2499 23.1398L39.6499 23.6898C39.6099 23.8298 39.5499 23.9898 39.4499 24.1498C39.3499 24.3098 39.2099 24.4598 39.0499 24.6098C38.6858 24.9387 38.2105 25.1174 37.7199 25.1098C37.3599 25.1098 37.0299 25.0298 36.7499 24.8898C36.4599 24.7398 36.2499 24.5398 36.0799 24.2898C35.9368 24.0445 35.8548 23.7683 35.8409 23.4846C35.8269 23.2009 35.8815 22.918 35.9999 22.6599C36.1199 22.4399 36.2799 22.2398 36.4999 22.0898C36.7199 21.9398 36.9799 21.8198 37.2999 21.7398C37.6099 21.6598 37.9699 21.6199 38.3799 21.6199H39.3499ZM45.2899 23.8498V17.0998H46.5299V24.9998H45.4099L45.2899 23.8498ZM41.6699 22.2798V22.1798C41.6699 21.7498 41.7199 21.3698 41.8199 21.0198C41.9199 20.6698 42.0599 20.3699 42.2499 20.1199C42.4327 19.8691 42.674 19.6669 42.9529 19.5309C43.2318 19.3949 43.5398 19.3293 43.8499 19.3398C44.1474 19.3334 44.442 19.3991 44.7085 19.5315C44.9749 19.6639 45.2053 19.8589 45.3799 20.0998C45.5599 20.3298 45.7099 20.6198 45.8099 20.9498C45.9199 21.2898 45.9899 21.6498 46.0399 22.0598V22.4099C45.9899 22.8099 45.9199 23.1698 45.8099 23.4998C45.7099 23.8298 45.5599 24.1098 45.3899 24.3498C45.2123 24.5918 44.9782 24.7866 44.7081 24.9174C44.4379 25.0481 44.1399 25.1107 43.8399 25.0998C43.5304 25.1023 43.2248 25.031 42.9483 24.8918C42.6718 24.7527 42.4324 24.5498 42.2499 24.2999C42.0537 24.0281 41.908 23.7232 41.8199 23.3998C41.7199 23.0598 41.6699 22.6798 41.6699 22.2798ZM42.9099 22.1798V22.2798C42.9099 22.5298 42.9299 22.7798 42.9799 22.9898C43.0199 23.2098 43.0999 23.3998 43.1999 23.5698C43.2999 23.7398 43.4199 23.8698 43.5799 23.9698C43.7399 24.0498 43.9399 24.0998 44.1599 24.0998C44.4399 24.0998 44.6699 24.0398 44.8599 23.9198C45.0499 23.7998 45.1799 23.6198 45.2799 23.4198C45.3799 23.1998 45.4599 22.9698 45.4899 22.7098V21.7798C45.4699 21.5798 45.4299 21.3798 45.3699 21.2098C45.311 21.0424 45.223 20.8867 45.1099 20.7498C44.9914 20.6153 44.845 20.5081 44.681 20.4356C44.517 20.3631 44.3392 20.327 44.1599 20.3298C43.9399 20.3298 43.7499 20.3799 43.5899 20.4799C43.4399 20.5799 43.3099 20.6998 43.1999 20.8798C43.0999 21.0398 43.0299 21.2398 42.9799 21.4598C42.9299 21.6798 42.9099 21.9198 42.9099 22.1698V22.1798ZM49.3399 19.4398V24.9998H48.0999V19.4398H49.3399ZM48.0199 17.9799C48.0199 17.7899 48.0799 17.6298 48.1999 17.5098C48.2703 17.4432 48.3537 17.3919 48.445 17.3592C48.5362 17.3265 48.6332 17.3131 48.7299 17.3198C48.9399 17.3198 49.1199 17.3798 49.2399 17.5198C49.3699 17.6298 49.4399 17.7899 49.4399 17.9799C49.4399 18.1599 49.3699 18.3198 49.2399 18.4398C49.1716 18.5035 49.0914 18.5531 49.0039 18.5857C48.9163 18.6183 48.8232 18.6333 48.7299 18.6298C48.6333 18.6354 48.5366 18.6214 48.4456 18.5888C48.3545 18.5562 48.271 18.5055 48.1999 18.4398C48.1405 18.3793 48.0939 18.3073 48.063 18.2282C48.032 18.1492 48.0174 18.0647 48.0199 17.9799ZM53.4399 19.4398V20.3398H50.2999V19.4398H53.4399ZM51.2099 18.0798H52.4399V23.4598C52.4399 23.6298 52.4699 23.7598 52.5199 23.8598C52.5699 23.9498 52.6399 24.0098 52.7199 24.0398C52.8199 24.0698 52.9199 24.0798 53.0399 24.0798C53.1876 24.0837 53.3353 24.0702 53.4799 24.0398V24.9799C53.213 25.0556 52.9373 25.0959 52.6599 25.0998C52.3799 25.0998 52.1199 25.0498 51.8999 24.9498C51.6899 24.8498 51.5099 24.6798 51.3999 24.4498C51.2603 24.1673 51.1917 23.8549 51.1999 23.5398V18.0798H51.2099ZM55.9099 19.4398V24.9998H54.6599V19.4398H55.9099ZM54.5799 17.9799C54.5799 17.7899 54.6399 17.6298 54.7699 17.5098C54.8391 17.4445 54.9209 17.3939 55.0103 17.3613C55.0997 17.3286 55.1949 17.3145 55.2899 17.3198C55.5099 17.3198 55.6899 17.3798 55.8099 17.5198C55.9399 17.6298 55.9999 17.7899 55.9999 17.9799C55.9999 18.1599 55.9399 18.3198 55.7999 18.4398C55.7316 18.5035 55.6514 18.5531 55.5638 18.5857C55.4763 18.6183 55.3832 18.6333 55.2899 18.6298C55.195 18.6341 55.1002 18.6194 55.0109 18.5868C54.9217 18.5542 54.8398 18.5043 54.7699 18.4398C54.7087 18.3801 54.6602 18.3085 54.6276 18.2294C54.5949 18.1503 54.5787 18.0654 54.5799 17.9799ZM57.2099 22.2798V22.1599C57.2099 21.7599 57.2699 21.3899 57.3899 21.0499C57.5099 20.6999 57.6699 20.3998 57.8899 20.1498C58.1199 19.8898 58.3899 19.6899 58.7099 19.5499C59.0299 19.4099 59.3899 19.3398 59.7999 19.3398C60.1999 19.3398 60.5699 19.4099 60.8799 19.5499C61.2099 19.6899 61.4799 19.8898 61.6999 20.1498C61.9199 20.3998 62.0999 20.6999 62.2099 21.0499C62.3299 21.3899 62.3899 21.7599 62.3899 22.1599V22.2798C62.3899 22.6798 62.3299 23.0498 62.2099 23.3998C62.0614 23.913 61.7431 24.3606 61.3071 24.6694C60.8712 24.9782 60.3433 25.13 59.8099 25.0998C59.3999 25.0998 59.0299 25.0298 58.7099 24.8998C58.3999 24.7605 58.1236 24.5559 57.8999 24.2999C57.6799 24.0399 57.4999 23.7398 57.3899 23.3998C57.2684 23.039 57.2075 22.6606 57.2099 22.2798ZM58.4499 22.1599V22.2798C58.4499 22.5298 58.4799 22.7698 58.5299 22.9898C58.5799 23.2098 58.6599 23.4098 58.7699 23.5798C58.8799 23.7398 59.0199 23.8799 59.1899 23.9799C59.3699 24.0699 59.5699 24.1199 59.8099 24.1199C60.0103 24.123 60.2081 24.0751 60.3848 23.9806C60.5615 23.8861 60.7113 23.7482 60.8199 23.5798C60.9299 23.4098 61.0199 23.2098 61.0599 22.9898C61.1199 22.7698 61.1499 22.5298 61.1499 22.2898V22.1599C61.1499 21.9199 61.1199 21.6798 61.0599 21.4598C61.0156 21.2505 60.9344 21.0507 60.8199 20.8699C60.7116 20.6982 60.5608 20.5574 60.3821 20.461C60.2034 20.3647 60.0029 20.316 59.7999 20.3198C59.5599 20.3198 59.3599 20.3698 59.1899 20.4698C59.0199 20.5698 58.8899 20.6999 58.7699 20.8699C58.6699 21.0399 58.5799 21.2398 58.5299 21.4698C58.4799 21.6798 58.4499 21.9198 58.4499 22.1698V22.1599ZM64.8399 20.6298V24.9998H63.5999V19.4398H64.7699L64.8399 20.6298ZM64.6199 21.9998H64.2199C64.2199 21.5998 64.2799 21.2399 64.3799 20.9099C64.4899 20.5799 64.6399 20.3098 64.8399 20.0698C65.0324 19.8325 65.2766 19.6423 65.554 19.5141C65.8314 19.3858 66.1344 19.3228 66.4399 19.3298C66.7099 19.3298 66.9399 19.3598 67.1599 19.4298C67.3799 19.5098 67.5599 19.6298 67.7199 19.7898C67.8799 19.9598 67.9999 20.1698 68.0799 20.4398C68.1699 20.6998 68.2099 21.0198 68.2099 21.3998V24.9998H66.9599V21.3998C66.9599 21.1298 66.9199 20.9198 66.8399 20.7698C66.7738 20.6233 66.6564 20.506 66.5099 20.4398C66.3699 20.3698 66.1899 20.3398 65.9699 20.3398C65.7752 20.3358 65.5824 20.3792 65.4081 20.4663C65.2339 20.5534 65.0835 20.6816 64.9699 20.8398C64.8699 20.9898 64.7699 21.1599 64.7099 21.3699C64.6499 21.5699 64.6099 21.7798 64.6099 22.0098L64.6199 21.9998ZM72.7899 23.8699V21.2198C72.7899 21.0198 72.7599 20.8498 72.6899 20.7098C72.619 20.5642 72.5033 20.4451 72.3599 20.3699C72.1889 20.2871 71.9996 20.2493 71.8099 20.2598C71.6099 20.2598 71.4399 20.2898 71.2899 20.3598C71.1503 20.4202 71.0294 20.5169 70.9399 20.6398C70.8583 20.757 70.8163 20.8971 70.8199 21.0398H69.5999C69.5999 20.8098 69.6499 20.5998 69.7599 20.3898C69.8599 20.1898 70.0199 20.0098 70.2199 19.8398C70.4199 19.6798 70.6599 19.5598 70.9399 19.4598C71.2199 19.3698 71.5399 19.3298 71.8899 19.3298C72.3099 19.3298 72.6799 19.3998 72.9999 19.5298C73.3299 19.6798 73.5799 19.8898 73.7699 20.1698C73.9499 20.4498 74.0499 20.8099 74.0499 21.2299V23.6998C74.0499 23.9598 74.0699 24.1898 74.0999 24.3898C74.1399 24.5898 74.1899 24.7599 74.2599 24.9099V24.9998H72.9899C72.9237 24.8393 72.8767 24.6715 72.8499 24.4998C72.8199 24.2798 72.7999 24.0798 72.7999 23.8798L72.7899 23.8699ZM72.9699 21.6098L72.9799 22.3699H72.0999C71.8699 22.3699 71.6599 22.3998 71.4899 22.4398C71.3099 22.4798 71.1699 22.5398 71.0499 22.6298C70.9299 22.7198 70.8499 22.8098 70.7899 22.9298C70.73 23.0511 70.6992 23.1846 70.6999 23.3198C70.6999 23.4698 70.7399 23.5998 70.7999 23.7198C70.8699 23.8498 70.9699 23.9398 71.0999 24.0098C71.2399 24.0798 71.3999 24.1098 71.5899 24.1098C71.8044 24.1138 72.0168 24.0669 72.2097 23.973C72.4026 23.8792 72.5706 23.741 72.6999 23.5698C72.8099 23.4198 72.8699 23.2698 72.8799 23.1298L73.2799 23.6798C73.1594 24.0287 72.9531 24.3416 72.6799 24.5898C72.3132 24.9211 71.834 25.0999 71.3399 25.0898C70.9799 25.0898 70.6599 25.0198 70.3699 24.8798C70.0899 24.7298 69.8699 24.5298 69.7099 24.2798C69.5668 24.0345 69.4848 23.7583 69.4709 23.4746C69.4569 23.1909 69.5115 22.908 69.6299 22.6498C69.7399 22.4298 69.9099 22.2298 70.1299 22.0798C70.3399 21.9298 70.6099 21.8099 70.9299 21.7299C71.2299 21.6499 71.5999 21.6098 71.9999 21.6098H72.9699ZM76.8499 17.0898V24.9998H75.5999V17.0998H76.8499V17.0898Z" fill="white"/>
<path d="M136.86 20.6396V21.6596H132.89V20.6396H136.86ZM133.21 17.5196V24.9996H131.91V17.5196H133.21ZM137.85 17.5196V24.9996H136.57V17.5196H137.85ZM140.78 19.4396V24.9996H139.54V19.4396H140.78ZM139.45 17.9796C139.45 17.7896 139.52 17.6296 139.64 17.5096C139.77 17.3796 139.94 17.3196 140.16 17.3196C140.38 17.3196 140.56 17.3796 140.68 17.5196C140.81 17.6296 140.88 17.7896 140.88 17.9796C140.88 18.1596 140.81 18.3196 140.68 18.4396C140.611 18.5045 140.529 18.5547 140.439 18.5874C140.35 18.62 140.255 18.6344 140.16 18.6296C140.065 18.6338 139.97 18.6192 139.881 18.5866C139.792 18.554 139.71 18.504 139.64 18.4396C139.579 18.3798 139.53 18.3082 139.498 18.2292C139.465 18.1501 139.449 18.0652 139.45 17.9796ZM144.82 21.3096V22.2996H142.1V21.2996H144.82V21.3096ZM149.06 22.2096H147.11V21.1896H149.05C149.39 21.1896 149.67 21.1296 149.88 21.0196C150.08 20.9196 150.24 20.7596 150.34 20.5696C150.44 20.3696 150.48 20.1496 150.48 19.8996C150.48 19.6596 150.43 19.4396 150.34 19.2396C150.24 19.0296 150.09 18.8596 149.88 18.7396C149.67 18.6196 149.39 18.5396 149.06 18.5396H147.5V24.9996H146.21V17.5196H149.06C149.63 17.5196 150.13 17.6196 150.53 17.8196C150.93 18.0196 151.25 18.3096 151.46 18.6696C151.67 19.0196 151.78 19.4296 151.78 19.8896C151.78 20.3696 151.68 20.7896 151.46 21.1296C151.25 21.4796 150.94 21.7496 150.53 21.9296C150.13 22.1196 149.63 22.2096 149.06 22.2096ZM155.38 25.1096C154.97 25.1096 154.6 25.0396 154.27 24.9096C153.952 24.7792 153.665 24.5837 153.428 24.3357C153.19 24.0877 153.007 23.7927 152.89 23.4696C152.767 23.1299 152.706 22.7709 152.71 22.4096V22.2096C152.71 21.7696 152.77 21.3696 152.9 21.0196C153.02 20.6696 153.2 20.3696 153.43 20.1196C153.65 19.8596 153.92 19.6696 154.23 19.5396C154.53 19.3996 154.87 19.3396 155.23 19.3396C155.63 19.3396 155.98 19.3996 156.27 19.5396C156.57 19.6696 156.82 19.8596 157.01 20.0996C157.21 20.3396 157.36 20.6296 157.46 20.9596C157.56 21.2896 157.61 21.6596 157.61 22.0596V22.5896H153.31V21.6996H156.38V21.5996C156.38 21.3796 156.33 21.1696 156.25 20.9796C156.17 20.7796 156.05 20.6196 155.88 20.4996C155.688 20.373 155.46 20.31 155.23 20.3196C155.02 20.3196 154.83 20.3696 154.68 20.4596C154.52 20.5396 154.38 20.6596 154.28 20.8296C154.18 20.9996 154.09 21.1896 154.03 21.4296C153.974 21.6824 153.947 21.9407 153.95 22.1996V22.3996C153.95 22.6496 153.98 22.8796 154.05 23.0896C154.12 23.2896 154.22 23.4696 154.35 23.6296C154.482 23.7932 154.65 23.9238 154.841 24.0106C155.032 24.0975 155.24 24.1382 155.45 24.1296C155.75 24.1296 156.02 24.0596 156.25 23.9396C156.48 23.8196 156.68 23.6496 156.85 23.4396L157.51 24.0596C157.226 24.4742 156.816 24.7863 156.34 24.9496C156.06 25.0496 155.74 25.0996 155.38 25.0996V25.1096ZM160 20.4996V24.9996H158.76V19.4396H159.95L160 20.4996ZM161.7 19.3996V20.5496C161.343 20.491 160.978 20.5115 160.63 20.6096C160.48 20.6615 160.343 20.7471 160.23 20.8597C160.118 20.9723 160.032 21.109 159.98 21.2596C159.92 21.4196 159.88 21.5996 159.88 21.7896L159.59 21.8096C159.59 21.4596 159.63 21.1396 159.69 20.8396C159.76 20.5396 159.87 20.2796 160 20.0596C160.14 19.8296 160.32 19.6596 160.53 19.5296C160.822 19.3573 161.167 19.2969 161.5 19.3596L161.7 19.3996ZM164.44 24.9996H163.2V18.8996C163.2 18.4896 163.28 18.1396 163.43 17.8596C163.59 17.5796 163.81 17.3596 164.1 17.2196C164.65 16.9731 165.27 16.9271 165.85 17.0896L165.82 18.0496C165.666 17.9799 165.497 17.9489 165.328 17.9593C165.159 17.9698 164.995 18.0214 164.85 18.1096C164.719 18.1756 164.61 18.2803 164.54 18.4096C164.47 18.5396 164.44 18.7096 164.44 18.9096V24.9996ZM165.58 19.4396V20.3396H162.34V19.4396H165.58Z" fill="black" fill-opacity="0.76"/>
</svg>
