<svg width="64" height="64" viewBox="0 0 64 64" fill="none" xmlns="http://www.w3.org/2000/svg">
<path fill-rule="evenodd" clip-rule="evenodd" d="M56.0004 38.8572V43.4286H49.1433H46.8576H44.5718H42.2861H39.5433C38.629 46.1715 36.1147 48.0001 33.1433 48.0001C29.2576 48.0001 26.2861 45.0286 26.2861 41.1429C26.2861 37.2572 29.2576 34.2858 33.1433 34.2858C36.1147 34.2858 38.629 36.1143 39.5433 38.8572H56.0004ZM33.1433 38.8572C34.5147 38.8572 35.429 40.0001 35.429 41.1429C35.429 42.2858 34.5147 43.4286 33.1433 43.4286C31.7718 43.4286 30.8576 42.2858 30.8576 41.1429C30.8576 40.0001 31.7718 38.8572 33.1433 38.8572Z" fill="currentColor"/>
<path d="M44.5718 43.4286H42.2861V48.0001H46.8576V43.4286H44.5718Z" fill="currentColor"/>
<path d="M56.0004 43.4286H49.1433V49.1429H53.7147V43.4286H56.0004Z" fill="currentColor"/>
<path d="M26.2148 11.4287C29.9719 11.4288 33.5072 12.7606 36.3066 15.1484C37.6988 14.6268 39.1723 14.3545 40.6787 14.3545C46.8177 14.3545 51.9291 18.6977 53.2275 24.459C56.897 26.4011 59.4287 30.2731 59.4287 34.6514C59.4287 34.912 59.4159 35.1711 59.3984 35.4287H53.8945C53.9256 35.1759 53.9424 34.9167 53.9424 34.6514C53.9424 32.1034 52.2384 29.7927 49.8486 28.9521L48.1914 28.3691L48.0273 26.6201C47.6696 22.7987 44.4807 19.8399 40.6787 19.8398C39.4473 19.8398 38.2404 20.165 37.1289 20.8066L35.21 21.915L33.7236 20.2715C31.7717 18.1141 29.0967 16.9142 26.2148 16.9141C20.8347 16.9141 16.3589 21.1541 15.9658 26.5674L15.8359 28.3564L14.1445 28.9551C11.7597 29.7978 10.0576 32.106 10.0576 34.6514C10.0576 38.2022 12.9454 40.6855 16 40.6855H22.8691C22.8625 40.8371 22.8574 40.9894 22.8574 41.1426C22.8574 42.9696 23.3356 44.6848 24.1709 46.1719H16C9.48327 46.1719 4.57129 40.7805 4.57129 34.6514C4.57131 30.2981 7.07478 26.4493 10.7051 24.4961C12.0355 17.0948 18.4573 11.4287 26.2148 11.4287Z" fill="currentColor"/>
</svg>
