<svg width="32" height="32" viewBox="0 0 32 32" fill="none" xmlns="http://www.w3.org/2000/svg">
<path d="M22.2701 22H13.9151C13.7638 22.8957 13.411 23.7453 12.8835 24.4848C12.3559 25.2243 11.6674 25.8343 10.8697 26.2689C10.0721 26.7036 9.18615 26.9514 8.27876 26.9937C7.37138 27.0361 6.46622 26.8719 5.63155 26.5134C4.79688 26.155 4.05449 25.6117 3.46036 24.9246C2.86623 24.2375 2.43587 23.4244 2.20175 22.5467C1.96762 21.669 1.93583 20.7497 2.10878 19.8579C2.28172 18.9661 2.65489 18.1253 3.20014 17.3988C3.35944 17.1866 3.5965 17.0464 3.85917 17.009C4.12183 16.9716 4.3886 17.0401 4.60077 17.1994C4.81294 17.3587 4.95315 17.5957 4.99054 17.8584C5.02793 18.1211 4.95944 18.3878 4.80014 18.6C4.27832 19.2911 3.99732 20.1341 4.00014 21C4.00014 22.0609 4.42157 23.0783 5.17172 23.8284C5.92186 24.5786 6.93928 25 8.00014 25C9.06101 25 10.0784 24.5786 10.8286 23.8284C11.5787 23.0783 12.0001 22.0609 12.0001 21C12.0001 20.7348 12.1055 20.4804 12.293 20.2929C12.4806 20.1054 12.7349 20 13.0001 20H22.2701C22.4903 19.6187 22.8301 19.3207 23.2368 19.1523C23.6436 18.9838 24.0946 18.9542 24.5198 19.0682C24.9451 19.1821 25.3209 19.4332 25.5889 19.7825C25.8569 20.1318 26.0022 20.5597 26.0022 21C26.0022 21.4403 25.8569 21.8682 25.5889 22.2175C25.3209 22.5668 24.9451 22.8179 24.5198 22.9319C24.0946 23.0458 23.6436 23.0163 23.2368 22.8478C22.8301 22.6793 22.4903 22.3813 22.2701 22ZM8.00014 23C8.34654 23.0001 8.68704 22.9103 8.98827 22.7393C9.28951 22.5682 9.54116 22.3219 9.71859 22.0244C9.89601 21.7269 9.99312 21.3884 10.0004 21.0421C10.0077 20.6957 9.9249 20.3535 9.76014 20.0488L14.2314 12.7813C14.3702 12.5555 14.4136 12.2838 14.3522 12.026C14.2908 11.7682 14.1296 11.5453 13.9039 11.4063C13.3694 11.0772 12.9198 10.627 12.5916 10.092C12.2633 9.55706 12.0655 8.95235 12.0142 8.32679C11.963 7.70123 12.0596 7.07238 12.2964 6.49109C12.5331 5.9098 12.9034 5.39239 13.3772 4.98069C13.8509 4.56899 14.4149 4.27456 15.0236 4.12121C15.6322 3.96786 16.2684 3.95989 16.8807 4.09795C17.493 4.236 18.0642 4.51621 18.5481 4.91591C19.0321 5.31561 19.4151 5.82358 19.6664 6.39876C19.7725 6.64193 19.9708 6.833 20.2178 6.92993C20.4647 7.02686 20.7401 7.02172 20.9833 6.91563C21.2264 6.80955 21.4175 6.61121 21.5144 6.36425C21.6114 6.11728 21.6062 5.84193 21.5001 5.59876C21.1399 4.77529 20.5993 4.04328 19.9182 3.45679C19.2371 2.8703 18.433 2.44432 17.5652 2.21032C16.6973 1.97632 15.788 1.94028 14.9044 2.10486C14.0208 2.26944 13.1855 2.63044 12.4601 3.16118C11.7347 3.69193 11.1379 4.37886 10.7136 5.17123C10.2893 5.9636 10.0485 6.84117 10.0089 7.73911C9.96932 8.63704 10.132 9.5324 10.4848 10.359C10.8377 11.1857 11.3718 11.9225 12.0476 12.515L8.05514 19C8.03639 19 8.01889 19 8.00014 19C7.46971 19 6.961 19.2107 6.58593 19.5858C6.21086 19.9609 6.00014 20.4696 6.00014 21C6.00014 21.5304 6.21086 22.0392 6.58593 22.4142C6.961 22.7893 7.46971 23 8.00014 23ZM24.0001 15C23.2291 15.0001 22.4653 15.1482 21.7501 15.4363L17.7601 8.95001C17.9681 8.56474 18.0439 8.12187 17.9759 7.68937C17.9079 7.25686 17.6999 6.85862 17.3837 6.55576C17.0675 6.25289 16.6607 6.06214 16.2257 6.01277C15.7907 5.9634 15.3515 6.05813 14.9755 6.28245C14.5995 6.50676 14.3075 6.84825 14.1443 7.25451C13.9811 7.66078 13.9557 8.10937 14.0721 8.53144C14.1884 8.95352 14.44 9.32576 14.7883 9.59105C15.1366 9.85633 15.5623 10 16.0001 10H16.0551L20.5276 17.2688C20.6669 17.4942 20.8898 17.6552 21.1476 17.7164C21.4055 17.7775 21.677 17.7339 21.9026 17.595C22.4291 17.2705 23.0237 17.0724 23.6397 17.0164C24.2556 16.9604 24.8761 17.0481 25.4525 17.2724C26.0289 17.4967 26.5454 17.8517 26.9614 18.3093C27.3775 18.7669 27.6817 19.3148 27.8503 19.9099C28.0188 20.505 28.0471 21.131 27.9329 21.7389C27.8186 22.3467 27.565 22.9198 27.1919 23.413C26.8188 23.9063 26.3364 24.3063 25.7826 24.5817C25.2287 24.8571 24.6186 25.0002 24.0001 25C23.7349 25 23.4806 25.1054 23.293 25.2929C23.1055 25.4804 23.0001 25.7348 23.0001 26C23.0001 26.2652 23.1055 26.5196 23.293 26.7071C23.4806 26.8947 23.7349 27 24.0001 27C25.5914 27 27.1176 26.3679 28.2428 25.2427C29.368 24.1174 30.0001 22.5913 30.0001 21C30.0001 19.4087 29.368 17.8826 28.2428 16.7574C27.1176 15.6321 25.5914 15 24.0001 15Z" fill="currentColor"/>
</svg>
