<svg width="64" height="64" viewBox="0 0 64 64" fill="none" xmlns="http://www.w3.org/2000/svg">
<path fill-rule="evenodd" clip-rule="evenodd" d="M10.7051 24.4958C12.0355 17.0945 18.4567 11.4286 26.2143 11.4286C29.9715 11.4286 33.5066 12.7605 36.3061 15.1484C37.6984 14.6267 39.172 14.3543 40.6785 14.3543C46.8177 14.3543 51.929 18.6979 53.2273 24.4594C56.8968 26.4016 59.4284 30.2732 59.4284 34.6514C59.4284 40.7806 54.5167 46.1714 47.9999 46.1714V40.6857C51.0545 40.6857 53.9427 38.2023 53.9427 34.6514C53.9427 32.1033 52.2383 29.7922 49.8483 28.9518L48.1909 28.3689L48.0273 26.6199C47.6696 22.7985 44.4805 19.84 40.6785 19.84C39.4469 19.84 38.2401 20.1652 37.1285 20.8069L35.2097 21.9146L33.7233 20.2717C31.7713 18.1142 29.0963 16.9143 26.2143 16.9143C20.8341 16.9143 16.359 21.1538 15.9659 26.5671L15.8359 28.3568L14.1441 28.9548C11.7592 29.7975 10.057 32.1061 10.057 34.6514C10.057 38.2023 12.9453 40.6857 15.9999 40.6857V46.1714C9.48313 46.1714 4.57129 40.7806 4.57129 34.6514C4.57129 30.2981 7.07463 26.4489 10.7051 24.4958Z" fill="currentColor"/>
<path fill-rule="evenodd" clip-rule="evenodd" d="M18.2861 47.5428C18.2861 46.533 19.1048 45.7142 20.1147 45.7142H43.8861C44.896 45.7142 45.7147 46.533 45.7147 47.5428V50.7428C45.7147 51.7526 44.896 52.5714 43.8861 52.5714H20.1147C19.1048 52.5714 18.2861 51.7526 18.2861 50.7428V47.5428ZM40.0004 50.2857C40.6315 50.2857 41.1433 49.7739 41.1433 49.1428C41.1433 48.5117 40.6315 47.9999 40.0004 47.9999C39.3693 47.9999 38.8576 48.5117 38.8576 49.1428C38.8576 49.7739 39.3693 50.2857 40.0004 50.2857Z" fill="currentColor"/>
<path fill-rule="evenodd" clip-rule="evenodd" d="M18.287 38.4C18.287 37.3902 19.1057 36.5714 20.1156 36.5714H43.8861C44.896 36.5714 45.7147 37.3902 45.7147 38.4L45.7138 41.6C45.7138 42.6098 44.895 43.4286 43.8852 43.4286H20.1147C19.1048 43.4286 18.2861 42.6098 18.2861 41.6L18.287 38.4ZM24.0004 38.8571C23.3693 38.8571 22.8576 39.3689 22.8576 40C22.8576 40.6311 23.3693 41.1428 24.0004 41.1428H30.8576C31.4886 41.1428 32.0004 40.6311 32.0004 40C32.0004 39.3689 31.4886 38.8571 30.8576 38.8571H24.0004Z" fill="currentColor"/>
</svg>
