<svg width="32" height="32" viewBox="0 0 32 32" fill="none" xmlns="http://www.w3.org/2000/svg">
<path d="M14.6738 6.00029C13.7337 6.01251 12.7956 6.17457 11.9072 6.48284C11.8671 6.49749 11.8112 6.51685 11.7651 6.53366C10.3382 7.05649 9.05384 7.95889 8.07382 9.11995C7.63182 9.64186 7.25367 10.2132 6.94276 10.8251C6.90774 10.8952 6.86736 10.9768 6.83181 11.052C6.53985 11.6713 6.32106 12.3249 6.18162 12.9952C6.13838 13.2039 6.10111 13.4244 6.0734 13.6399C6.05559 13.7772 6.04109 13.9115 6.03 14.047C6.02479 14.1135 6.01898 14.1915 6.01544 14.2557C6.0107 14.3408 6.00695 14.4139 6.00454 14.4984C5.99732 14.7199 5.99893 14.9417 6.00781 15.1631C6.01011 15.2055 6.01369 15.2752 6.0156 15.3164C6.0601 16.0652 6.20407 16.8207 6.4427 17.5387C6.50843 17.7373 6.58242 17.9359 6.66079 18.1257C6.71842 18.2655 6.77966 18.4029 6.843 18.5366C6.97711 18.819 7.12684 19.0927 7.28873 19.3575C7.91968 20.3876 8.76463 21.2857 9.75467 21.978C10.0291 22.1706 10.3148 22.3471 10.6093 22.5073C10.6647 22.5367 10.7323 22.573 10.793 22.6039C10.9781 22.6995 11.1749 22.7905 11.3617 22.8702C11.9241 23.1081 12.5112 23.2879 13.1108 23.4041C13.141 23.4098 13.1897 23.4185 13.2269 23.4254C13.4127 23.4591 13.5996 23.4858 13.7871 23.5072C13.8521 23.5143 13.9309 23.5225 14.0013 23.5285C14.1356 23.5404 14.2702 23.5489 14.4049 23.5552C14.4522 23.5567 14.5151 23.5593 14.5685 23.5604C14.7674 23.5647 14.9665 23.5623 15.1653 23.5545C15.1961 23.5526 15.2454 23.5502 15.2833 23.5481C15.343 23.5453 15.4037 23.5401 15.4678 23.5357C15.5902 23.5256 15.7154 23.5137 15.8324 23.4993C15.9246 23.4886 16.0218 23.4755 16.1074 23.4622C16.2041 23.4475 16.2982 23.4315 16.397 23.4129C17.2466 23.2535 18.0703 22.9641 18.8367 22.5608C18.8978 22.5294 18.9495 22.5004 19.0114 22.4664C19.4711 22.2155 19.901 21.9113 20.3159 21.5914C20.4052 21.5325 20.5153 21.5253 20.6142 21.4903C22.784 23.6603 24.954 25.8301 27.1239 28C27.4159 27.708 27.708 27.416 28 27.1239C25.8049 24.9289 23.6097 22.7339 21.4146 20.5389C21.7232 20.1521 22.0222 19.7563 22.2791 19.3329C22.4155 19.1092 22.5448 18.8773 22.6588 18.6456C22.88 18.1976 23.0645 17.7314 23.2061 17.2523C23.2381 17.1428 23.2716 17.0227 23.3002 16.908C23.435 16.3719 23.5206 15.8163 23.5498 15.2602C23.5539 15.1901 23.5563 15.1282 23.5588 15.0568C23.5618 14.9508 23.5636 14.8338 23.5627 14.7234C23.5616 14.5127 23.5525 14.2954 23.5361 14.0896C23.5203 13.8841 23.4955 13.6725 23.4644 13.4649C23.4008 13.044 23.3045 12.6178 23.1778 12.2072C23.1502 12.1173 23.1176 12.0182 23.0894 11.935C23.056 11.8388 23.0176 11.7327 22.9837 11.6438C22.892 11.4054 22.7902 11.1708 22.6783 10.9412C22.659 10.9032 22.6366 10.8565 22.6162 10.8168C22.4205 10.4311 22.1912 10.0542 21.9379 9.69885C21.8311 9.54809 21.7099 9.38994 21.5935 9.24701C20.6 8.02277 19.2723 7.0718 17.7906 6.53177C17.4908 6.42178 17.1848 6.32876 16.8748 6.25202C16.8378 6.24351 16.7759 6.22884 16.7392 6.22C16.1884 6.09468 15.621 6.02218 15.0592 6.00477C14.9308 6.00061 14.8023 5.99937 14.6738 6.00029ZM14.7808 7.23848C16.3494 7.23617 17.9156 7.73889 19.185 8.66127C20.4489 9.57196 21.4255 10.8794 21.9241 12.3565C22.3738 13.6763 22.4466 15.1218 22.131 16.4799C22.0854 16.674 22.0372 16.8685 21.969 17.0558C21.8625 17.2788 21.5995 17.4009 21.3589 17.3678C20.114 17.3698 18.8692 17.3692 17.6243 17.369C16.6766 15.0519 15.7289 12.7348 14.7812 10.4177C13.8329 12.7348 12.8847 15.0519 11.9363 17.369C10.5186 17.369 9.10092 17.3691 7.68325 17.3691C7.46252 16.7086 7.30738 16.0237 7.25753 15.3281C7.18823 14.3682 7.30369 13.3954 7.59849 12.4792C7.95698 11.3519 8.5923 10.316 9.42498 9.47677C10.2176 8.67493 11.1907 8.0513 12.2539 7.67472C13.0631 7.38656 13.9218 7.23797 14.7808 7.23848ZM14.8824 12.3974C15.6502 14.2732 16.4179 16.1491 17.1857 18.0249C18.6943 18.025 20.2028 18.025 21.7113 18.025C21.4199 18.4362 21.1434 18.8579 20.8436 19.263C20.3364 19.9551 19.7047 20.5541 18.9946 21.0348C18.0241 21.6915 16.8988 22.1188 15.7356 22.264C14.2579 22.4528 12.7244 22.1951 11.3949 21.5209C10.2378 20.9379 9.23793 20.0509 8.51318 18.9776C8.28945 18.6601 8.06571 18.3426 7.842 18.025C9.35374 18.025 10.8655 18.025 12.3772 18.0249C13.1785 16.0667 13.9798 14.1084 14.7812 12.1502C14.8149 12.2326 14.8487 12.315 14.8824 12.3974Z" fill="currentColor"/>
</svg>
