<svg width="64" height="64" viewBox="0 0 64 64" fill="none" xmlns="http://www.w3.org/2000/svg">
<path fill-rule="evenodd" clip-rule="evenodd" d="M41.7311 10.1052L45.3802 13.7481L40.5002 18.6199L45.3577 23.4854L50.2458 18.6058L53.8949 22.2486L49.0005 27.1346L53.8576 32L49.0375 36.8283L53.8949 41.6774L50.2458 45.3204L45.3946 40.4773L40.5375 45.3429L45.3806 50.1775L41.7314 53.8203L36.8945 48.992L32.0002 53.8947L27.1059 48.992L22.2692 53.8203L18.62 50.1775L23.4629 45.3429L18.6057 40.4771L13.7546 45.3199L10.1055 41.6769L14.9627 36.8281L10.1429 32L14.9999 27.1346L10.1055 22.2486L13.7546 18.6056L18.6427 23.4854L23.5 18.6201L18.62 13.7485L22.2692 10.1056L27.1428 14.971L32.0002 10.1052L36.8575 14.9707L41.7311 10.1052ZM32.0002 17.3913L35.6494 21.0341L21.0528 35.6057L17.4038 31.9627L32.0002 17.3913ZM35.0599 25.303L38.7091 28.946L26.5454 41.089L22.8962 37.446L35.0599 25.303ZM40.5146 38.0342L36.8656 34.3912L28.351 42.8912L32 46.5342L40.5146 38.0342Z" fill="currentColor"/>
</svg>
