<svg width="140" height="140" viewBox="0 0 140 140" fill="none" xmlns="http://www.w3.org/2000/svg">
<g clip-path="url(#clip0_1218_13059)">
<path opacity="0.06" fill-rule="evenodd" clip-rule="evenodd" d="M103.968 6.58246C87.6317 -0.131145 69.5645 6.70984 52.3206 12.8397C34.9036 19.031 15.4676 24.5221 6.28549 41.3064C-3.06157 58.3922 -2.96976 80.7328 6.47606 96.6404C14.774 110.615 35.0941 106.337 49.2539 113.669C63.5704 121.082 72.1004 142.391 88.3078 139.014C98.9862 136.79 105.249 127.095 110.677 116.374C112.406 112.96 114.051 109.441 115.726 106.027C116.901 103.632 118.091 101.288 119.337 99.0679C128.547 82.6501 142.092 66.5913 139.085 48.4973C135.871 29.1536 121.325 13.7158 103.968 6.58246Z" fill="#3D50F5"/>
<path opacity="0.16" d="M96.2 18.1C96.2 19.2598 95.2598 20.2 94.1 20.2C92.9402 20.2 92 19.2598 92 18.1C92 16.9402 92.9402 16 94.1 16C95.2598 16 96.2 16.9402 96.2 18.1Z" fill="#3D50F5"/>
<path opacity="0.16" d="M112.2 37.1C112.2 38.2598 111.26 39.2 110.1 39.2C108.94 39.2 108 38.2598 108 37.1C108 35.9402 108.94 35 110.1 35C111.26 35 112.2 35.9402 112.2 37.1Z" fill="#3D50F5"/>
<path opacity="0.16" d="M28.6996 59.8498C28.6996 60.4297 28.2295 60.8998 27.6496 60.8998C27.0697 60.8998 26.5996 60.4297 26.5996 59.8498C26.5996 59.2699 27.0697 58.7998 27.6496 58.7998C28.2295 58.7998 28.6996 59.2699 28.6996 59.8498Z" fill="#3D50F5"/>
<path opacity="0.16" d="M83.1 116.05C83.1 116.63 82.6299 117.1 82.05 117.1C81.4701 117.1 81 116.63 81 116.05C81 115.47 81.4701 115 82.05 115C82.6299 115 83.1 115.47 83.1 116.05Z" fill="#3D50F5"/>
<path opacity="0.16" d="M38.4996 85.4002C38.4996 85.7868 38.1862 86.1002 37.7996 86.1002C37.413 86.1002 37.0996 85.7868 37.0996 85.4002C37.0996 85.0136 37.413 84.7002 37.7996 84.7002C38.1862 84.7002 38.4996 85.0136 38.4996 85.4002Z" fill="#3D50F5"/>
<path opacity="0.16" d="M124.8 52.4C124.8 53.1732 124.173 53.8 123.4 53.8C122.627 53.8 122 53.1732 122 52.4C122 51.6268 122.627 51 123.4 51C124.173 51 124.8 51.6268 124.8 52.4Z" fill="#3D50F5"/>
<path opacity="0.16" d="M19.8 48.4C19.8 49.1732 19.1732 49.8 18.4 49.8C17.6268 49.8 17 49.1732 17 48.4C17 47.6268 17.6268 47 18.4 47C19.1732 47 19.8 47.6268 19.8 48.4Z" fill="#3D50F5"/>
<path opacity="0.16" d="M16.0992 76.9998C16.0992 77.3864 15.7858 77.6998 15.3992 77.6998C15.0126 77.6998 14.6992 77.3864 14.6992 76.9998C14.6992 76.6132 15.0126 76.2998 15.3992 76.2998C15.7858 76.2998 16.0992 76.6132 16.0992 76.9998Z" fill="#3D50F5"/>
<path opacity="0.16" d="M36.4 100.7C36.4 101.087 36.0866 101.4 35.7 101.4C35.3134 101.4 35 101.087 35 100.7C35 100.313 35.3134 100 35.7 100C36.0866 100 36.4 100.313 36.4 100.7Z" fill="#3D50F5"/>
<path opacity="0.16" d="M120.4 78.7C120.4 79.0866 120.087 79.4 119.7 79.4C119.313 79.4 119 79.0866 119 78.7C119 78.3134 119.313 78 119.7 78C120.087 78 120.4 78.3134 120.4 78.7Z" fill="#3D50F5"/>
<path fill-rule="evenodd" clip-rule="evenodd" d="M107 63C107 40.3563 88.6437 22 66 22C43.3563 22 25 40.3563 25 63C25 85.6437 43.3563 104 66 104C75.9871 104 85.138 100.427 92.25 94.4922L100.506 102.748L100.176 104.678C100.066 105.318 100.273 105.971 100.732 106.43L110.677 116.374C111.756 114.244 112.801 112.074 113.842 109.913C114.47 108.611 115.096 107.311 115.726 106.027L108.431 98.7314C107.972 98.2724 107.318 98.065 106.678 98.1748L104.747 98.5049L96.5645 90.3223C103.052 83.0696 107 73.4968 107 63ZM33 63C33 44.7746 47.7746 30 66 30C84.2254 30 99 44.7746 99 63C99 81.2254 84.2254 96 66 96C47.7746 96 33 81.2254 33 63Z" fill="#3D50F5"/>
<path d="M73.5858 52.5858C74.3669 51.8048 75.6329 51.8048 76.4139 52.5858C77.1947 53.3668 77.1948 54.6329 76.4139 55.4139L68.828 62.9998L76.4139 70.5858C77.1949 71.3668 77.195 72.6329 76.4139 73.4139C75.6329 74.1949 74.3668 74.1949 73.5858 73.4139L65.9999 65.828L58.4139 73.4139C57.6329 74.1949 56.3669 74.1947 55.5858 73.4139C54.8047 72.6328 54.8047 71.3668 55.5858 70.5858L63.1717 62.9998L55.5858 55.4139C54.8048 54.6329 54.8048 53.3668 55.5858 52.5858C56.3668 51.8047 57.6329 51.8047 58.4139 52.5858L65.9999 60.1717L73.5858 52.5858Z" fill="#3D50F5"/>
</g>
<defs>
<clipPath id="clip0_1218_13059">
<rect width="140" height="140" fill="white"/>
</clipPath>
</defs>
</svg>
