<svg xmlns="http://www.w3.org/2000/svg" xmlns:tb="https://thingsboard.io/svg" width="200" height="200" fill="none" version="1.1" viewBox="0 0 200 200">
<path d="m100 100h51.83" stroke="#000" stroke-opacity=".87" stroke-width="1.9797"/><g fill="#fff" tb:tag="background">
  <path d="m100 101 58-101h-116z" fill="#fff"/>
  <path d="m43.727 0.99999 56.273 97.992 56.273-97.992z" stroke="#000" stroke-opacity=".87" stroke-width="2"/>
  <path d="M100 99L158 200H42L100 99Z" fill="#fff"/>
  <path d="M43.7274 199L100 101.008L156.273 199H43.7274Z" stroke="#000" stroke-opacity=".87" stroke-width="2"/>
 </g><rect x="151.83" y="52.185" width="48.169" height="96.338"/><rect x="152.8" y="53.185" width="46.169" height="94.338" stroke="#000" stroke-opacity=".87" stroke-width="2"/><path d="m67.648-1e-4s-67.264 0-67.264 33.5v164.18c0 1.3256 1.7909 2.3202 4 2.3202h192c2.209 0 4-0.99459 4-2.3202v-164.18c0-33.5-66.07-33.5-66.07-33.5h-33.929zm67.07 40.6c-1.2887 0-2.3333 0.6268-2.3333 1.4v150.2c0 0.7732 1.0447 1.4 2.3333 1.4h14.666c1.2887 0 2.3333-0.6268 2.3333-1.4v-150.2c0-0.7732-1.0447-1.4-2.3333-1.4z" fill="#000" fill-opacity="0" tb:tag="clickArea"/><g transform="translate(0,116)" fill="#d12730" style="display: none;" tb:tag="critical">
  <rect width="84" height="84" rx="4" fill="#fff" style=""/>
  <rect width="84" height="84" rx="4" style=""/>
  <rect x="2" y="2" width="80" height="80" rx="2" stroke="#000" stroke-opacity=".87" stroke-width="4" style=""/>
  <path d="m44.559 27.562-0.4688 20.059h-4.0234l-0.4883-20.059zm-5.1172 26.211c0-0.7161 0.2344-1.3151 0.7031-1.7968 0.4818-0.4948 1.1459-0.7422 1.9922-0.7422 0.8334 0 1.4909 0.2474 1.9727 0.7422 0.4817 0.4817 0.7226 1.0807 0.7226 1.7968 0 0.6901-0.2409 1.2826-0.7226 1.7774-0.4818 0.4818-1.1393 0.7226-1.9727 0.7226-0.8463 0-1.5104-0.2408-1.9922-0.7226-0.4687-0.4948-0.7031-1.0873-0.7031-1.7774z" fill="#000" fill-opacity=".87" style=""/>
 </g><g transform="translate(0,116)" fill="#faa405" style="display: none;" tb:tag="warning">
  <path d="m38.422 7.1554c1.4741-2.9482 5.6813-2.9482 7.1554 0l35.528 71.056c1.3298 2.6596-0.6042 5.7889-3.5777 5.7889h-71.056c-2.9735 0-4.9075-3.1292-3.5777-5.7889z" fill="#fff" style=""/>
  <path d="m38.422 7.1554c1.4741-2.9482 5.6813-2.9482 7.1554 0l35.528 71.056c1.3298 2.6596-0.6042 5.7889-3.5777 5.7889h-71.056c-2.9735 0-4.9075-3.1292-3.5777-5.7889z" style=""/>
  <path d="m40.211 8.0498c0.7371-1.4741 2.8407-1.4741 3.5778-1e-5l35.528 71.056c0.6649 1.3298-0.3021 2.8944-1.7888 2.8944h-71.056c-1.4868 0-2.4538-1.5646-1.7889-2.8944z" stroke="#000" stroke-opacity=".87" stroke-width="4" style=""/>
  <path d="m44.559 37.562-0.4688 20.059h-4.0234l-0.4883-20.059zm-5.1172 26.211c0-0.7161 0.2344-1.3151 0.7031-1.7968 0.4818-0.4948 1.1459-0.7422 1.9922-0.7422 0.8334 0 1.4909 0.2474 1.9727 0.7422 0.4817 0.4817 0.7226 1.0807 0.7226 1.7968 0 0.6901-0.2409 1.2826-0.7226 1.7774-0.4818 0.4818-1.1393 0.7226-1.9727 0.7226-0.8463 0-1.5104-0.2408-1.9922-0.7226-0.4687-0.4948-0.7031-1.0873-0.7031-1.7774z" fill="#000" fill-opacity=".87" style=""/>
 </g>
</svg>