<svg xmlns="http://www.w3.org/2000/svg" xmlns:tb="https://thingsboard.io/svg" width="1200" height="600" fill="none" version="1.1" viewBox="0 0 1200 600">
<path d="m1199 201.7v397.3h-1198v-397.3c0.62677 0.346 1.4439 0.79199 2.4378 1.328 2.5404 1.371 6.2364 3.328 10.864 5.676 9.2543 4.696 22.238 10.957 37.156 17.218 29.8 12.508 67.456 25.078 98.542 25.078s68.743-12.57 98.542-25.078c14.918-6.261 27.902-12.522 37.156-17.218 4.628-2.348 8.324-4.305 10.864-5.676 1.27-0.68499 2.252-1.224 2.916-1.592 0.204-0.113 0.379-0.209 0.522-0.28999 0.143 0.081 0.318 0.17699 0.522 0.28999 0.664 0.368 1.646 0.907 2.916 1.592 2.54 1.371 6.236 3.328 10.864 5.676 9.254 4.696 22.238 10.957 37.156 17.218 29.799 12.508 67.456 25.078 98.542 25.078s68.743-12.57 98.542-25.078c14.918-6.261 27.902-12.522 37.156-17.218 4.628-2.348 8.324-4.305 10.864-5.676 1.27-0.68499 2.252-1.224 2.916-1.592 0.204-0.113 0.379-0.209 0.522-0.28999 0.143 0.081 0.318 0.17699 0.522 0.28999 0.664 0.368 1.646 0.907 2.916 1.592 2.54 1.371 6.236 3.328 10.864 5.676 9.254 4.696 22.238 10.957 37.156 17.218 29.799 12.508 67.456 25.078 98.542 25.078s68.743-12.57 98.542-25.078c14.918-6.261 27.902-12.522 37.156-17.218 4.628-2.348 8.324-4.305 10.864-5.676 1.27-0.68499 2.252-1.224 2.916-1.592 0.204-0.113 0.379-0.209 0.522-0.28999 0.143 0.081 0.318 0.17699 0.522 0.28999 0.664 0.368 1.646 0.907 2.916 1.592 2.54 1.371 6.236 3.328 10.864 5.676 9.254 4.696 22.238 10.957 37.156 17.218 29.799 12.508 67.452 25.078 98.542 25.078s68.74-12.57 98.54-25.078c14.92-6.261 27.9-12.522 37.16-17.218 4.63-2.348 8.32-4.305 10.86-5.676 1-0.536 1.81-0.98199 2.44-1.328z" stroke="#1a1a1a" stroke-width="2"/><path d="m700 300h500" stroke="#1a1a1a" stroke-width="6"/><path d="m600 0v200" stroke="#1a1a1a" stroke-width="6"/><path d="m600 400v200" stroke="#1a1a1a" stroke-width="6"/><path d="m700 300h-85c-8.284 0-15 6.716-15 15v85" stroke="#1a1a1a" stroke-width="6"/><path d="m700 300h-85c-8.284 0-15-6.716-15-15v-85" stroke="#1a1a1a" stroke-width="6"/><path d="m600 200v200" stroke="#1a1a1a" stroke-width="6"/><path d="m600 313v-26s0 13 14 13c-14 0-14 13-14 13z" fill="#1a1a1a" stroke="#1a1a1a" stroke-width="2"/><rect x="1074" y="99" width="48" height="462" stroke="#1a1a1a" stroke-width="2"/><rect x="1037" y="561" width="122" height="38" stroke="#1a1a1a" stroke-width="2"/><rect x="78" y="99" width="48" height="462" stroke="#1a1a1a" stroke-width="2"/><rect x="41" y="561" width="122" height="38" stroke="#1a1a1a" stroke-width="2"/><rect x="1" y="1" width="1198" height="98" stroke="#1a1a1a" stroke-width="2"/><path d="m599.68 99.026-598.68-98.026" stroke="#1a1a1a" stroke-width="2.0003"/><path d="m599.68 99.026-598.68-98.027" stroke="#1a1a1a" stroke-width="1.9995"/><path d="m600 99.026 598.68-98.026" stroke="#1a1a1a" stroke-width="2.0003"/><path d="m599.68 0.99987-598.68 98.027" stroke="#1a1a1a" stroke-width="1.9995"/><path d="m600 1.0007 599.68 98.025" stroke="#1a1a1a" stroke-width="2.0011"/><path d="m403.58 0s-403.58 0-403.58 100.5v492.54c0 3.9768 10.745 6.9606 24 6.9606h1152c13.254 0 24-2.9838 24-6.9606v-492.54c0-100.5-396.42-100.5-396.42-100.5h-203.57zm402.42 121.8c-7.7322 0-14 1.8804-14 4.2v450.6c0 2.3196 6.2682 4.2 14 4.2h87.996c7.7322 0 14-1.8804 14-4.2v-450.6c0-2.3196-6.2682-4.2-14-4.2z" fill="#000" fill-opacity="0" tb:tag="clickArea"/><g transform="translate(0,516)" fill="#d12730" style="display: none;" tb:tag="critical">
  <rect width="84" height="84" rx="4" fill="#fff" style=""/>
  <rect width="84" height="84" rx="4" style=""/>
  <rect x="2" y="2" width="80" height="80" rx="2" stroke="#000" stroke-opacity=".87" stroke-width="4" style=""/>
  <path d="m44.559 27.562-0.4688 20.059h-4.0234l-0.4883-20.059zm-5.1172 26.211c0-0.7161 0.2344-1.3151 0.7031-1.7968 0.4818-0.4948 1.1459-0.7422 1.9922-0.7422 0.8334 0 1.4909 0.2474 1.9727 0.7422 0.4817 0.4817 0.7226 1.0807 0.7226 1.7968 0 0.6901-0.2409 1.2826-0.7226 1.7774-0.4818 0.4818-1.1393 0.7226-1.9727 0.7226-0.8463 0-1.5104-0.2408-1.9922-0.7226-0.4687-0.4948-0.7031-1.0873-0.7031-1.7774z" fill="#000" fill-opacity=".87" style=""/>
 </g><g transform="translate(0 516)" fill="#faa405" style="display: none;" tb:tag="warning">
  <path d="m38.422 7.1554c1.4741-2.9482 5.6813-2.9482 7.1554 0l35.528 71.056c1.3298 2.6596-0.6042 5.7889-3.5777 5.7889h-71.056c-2.9735 0-4.9075-3.1292-3.5777-5.7889z" fill="#fff" style=""/>
  <path d="m38.422 7.1554c1.4741-2.9482 5.6813-2.9482 7.1554 0l35.528 71.056c1.3298 2.6596-0.6042 5.7889-3.5777 5.7889h-71.056c-2.9735 0-4.9075-3.1292-3.5777-5.7889z" style=""/>
  <path d="m40.211 8.0498c0.7371-1.4741 2.8407-1.4741 3.5778-1e-5l35.528 71.056c0.6649 1.3298-0.3021 2.8944-1.7888 2.8944h-71.056c-1.4868 0-2.4538-1.5646-1.7889-2.8944z" stroke="#000" stroke-opacity=".87" stroke-width="4" style=""/>
  <path d="m44.559 37.562-0.4688 20.059h-4.0234l-0.4883-20.059zm-5.1172 26.211c0-0.7161 0.2344-1.3151 0.7031-1.7968 0.4818-0.4948 1.1459-0.7422 1.9922-0.7422 0.8334 0 1.4909 0.2474 1.9727 0.7422 0.4817 0.4817 0.7226 1.0807 0.7226 1.7968 0 0.6901-0.2409 1.2826-0.7226 1.7774-0.4818 0.4818-1.1393 0.7226-1.9727 0.7226-0.8463 0-1.5104-0.2408-1.9922-0.7226-0.4687-0.4948-0.7031-1.0873-0.7031-1.7774z" fill="#000" fill-opacity=".87" style=""/>
 </g>
</svg>