<svg xmlns="http://www.w3.org/2000/svg" xmlns:tb="https://thingsboard.io/svg" width="400" height="1000" fill="none" version="1.1" viewBox="0 0 400 1000">
<path d="m1 200c0-37.22 0.00484-55.684 3.0551-71.019 12.546-63.074 61.852-112.38 124.93-124.93 15.335-3.0503 33.799-3.0551 71.019-3.0551 37.22 1e-5 55.684 0.00485 71.019 3.0552 63.074 12.546 112.38 61.852 124.93 124.93 3.05 15.335 3.055 33.799 3.055 71.019v600c0 37.22-5e-3 55.684-3.055 71.019-12.546 63.074-61.852 112.38-124.93 124.93-15.335 3.05-33.799 3.055-71.019 3.055s-55.684-5e-3 -71.019-3.055c-63.074-12.546-112.38-61.852-124.93-124.93-3.0503-15.335-3.0551-33.799-3.0551-71.019v-600z" fill="#fff" stroke="#1A1A1A" stroke-width="2" tb:tag="background"/><path d="m134.53 0s-134.53 0-134.53 167.5v820.9c0 6.628 3.5818 11.601 8 11.601h384c4.418 0 8-4.973 8-11.601v-820.9c0-167.5-132.14-167.5-132.14-167.5h-67.86zm134.14 203c-2.5774 0-4.6664 3.134-4.6664 7v751c0 3.866 2.0894 7 4.6664 7h29.332c2.5774 0 4.6664-3.134 4.6664-7v-751c0-3.866-2.0894-7-4.6664-7z" fill-opacity="0" fill="#000" tb:tag="clickArea"/><g transform="translate(0,916)" fill="#d12730" style="display: none;" tb:tag="critical">
  <rect width="84" height="84" rx="4" fill="#fff" style=""/>
  <rect width="84" height="84" rx="4" style=""/>
  <rect x="2" y="2" width="80" height="80" rx="2" stroke="#000" stroke-opacity=".87" stroke-width="4" style=""/>
  <path d="m44.559 27.562-0.4688 20.059h-4.0234l-0.4883-20.059zm-5.1172 26.211c0-0.7161 0.2344-1.3151 0.7031-1.7968 0.4818-0.4948 1.1459-0.7422 1.9922-0.7422 0.8334 0 1.4909 0.2474 1.9727 0.7422 0.4817 0.4817 0.7226 1.0807 0.7226 1.7968 0 0.6901-0.2409 1.2826-0.7226 1.7774-0.4818 0.4818-1.1393 0.7226-1.9727 0.7226-0.8463 0-1.5104-0.2408-1.9922-0.7226-0.4687-0.4948-0.7031-1.0873-0.7031-1.7774z" fill="#000" fill-opacity=".87" style=""/>
 </g><g transform="translate(0 916)" fill="#faa405" style="display: none;" tb:tag="warning">
  <path d="m38.422 7.1554c1.4741-2.9482 5.6813-2.9482 7.1554 0l35.528 71.056c1.3298 2.6596-0.6042 5.7889-3.5777 5.7889h-71.056c-2.9735 0-4.9075-3.1292-3.5777-5.7889z" fill="#fff" style=""/>
  <path d="m38.422 7.1554c1.4741-2.9482 5.6813-2.9482 7.1554 0l35.528 71.056c1.3298 2.6596-0.6042 5.7889-3.5777 5.7889h-71.056c-2.9735 0-4.9075-3.1292-3.5777-5.7889z" style=""/>
  <path d="m40.211 8.0498c0.7371-1.4741 2.8407-1.4741 3.5778-1e-5l35.528 71.056c0.6649 1.3298-0.3021 2.8944-1.7888 2.8944h-71.056c-1.4868 0-2.4538-1.5646-1.7889-2.8944z" stroke="#000" stroke-opacity=".87" stroke-width="4" style=""/>
  <path d="m44.559 37.562-0.4688 20.059h-4.0234l-0.4883-20.059zm-5.1172 26.211c0-0.7161 0.2344-1.3151 0.7031-1.7968 0.4818-0.4948 1.1459-0.7422 1.9922-0.7422 0.8334 0 1.4909 0.2474 1.9727 0.7422 0.4817 0.4817 0.7226 1.0807 0.7226 1.7968 0 0.6901-0.2409 1.2826-0.7226 1.7774-0.4818 0.4818-1.1393 0.7226-1.9727 0.7226-0.8463 0-1.5104-0.2408-1.9922-0.7226-0.4687-0.4948-0.7031-1.0873-0.7031-1.7774z" fill="#000" fill-opacity=".87" style=""/>
 </g>
</svg>