<svg xmlns="http://www.w3.org/2000/svg" xmlns:tb="https://thingsboard.io/svg" width="600" height="1000" fill="none" version="1.1" viewBox="0 0 600 1000">
<path d="m1 744c0 44.821 7.8e-4 78.376 2.1766 105.01 2.1748 26.619 6.5177 46.23 15.153 63.178 15.244 29.918 39.568 54.242 69.486 69.486 16.948 8.636 36.56 12.979 63.178 15.153 26.63 2.176 60.185 2.177 105.01 2.177h8c44.821 0 78.376-1e-3 105.01-2.177 26.619-2.174 46.23-6.517 63.178-15.153 29.918-15.244 54.242-39.568 69.486-69.486 8.636-16.948 12.979-36.559 15.153-63.178 2.176-26.63 2.177-60.185 2.177-105.01v-388c0-44.821-1e-3 -78.376-2.177-105.01-2.174-26.619-6.517-46.23-15.153-63.179-15.244-29.917-39.568-54.241-69.486-69.485-16.948-8.636-36.559-12.979-63.178-15.153-26.63-2.176-60.185-2.177-105.01-2.177h-8c-44.821 0-78.376 1e-3 -105.01 2.177-26.619 2.174-46.23 6.517-63.178 15.153-29.918 15.244-54.242 39.568-69.486 69.485-8.6357 16.949-12.979 36.56-15.153 63.179-2.1758 26.63-2.1766 60.185-2.1766 105.01v388z" fill="#fff" stroke="#1A1A1A" stroke-width="2" tb:tag="background"/><path d="m600 700h-10c-16.569 0-30-13.431-30-30v-637c0-16.569-13.431-30-30-30h-240c-16.569 0-30 13.432-30 30v67" stroke="#1A1A1A" stroke-width="6"/><path d="m201.92 0s-201.79 0-201.79 167.5v820.9c0 6.628 5.3727 11.601 12 11.601h576c6.627 0 12-4.973 12-11.601v-820.9c0-167.5-198.21-167.5-198.21-167.5h-101.79zm201.21 203c-3.8661 0-6.9996 3.134-6.9996 7v751c0 3.866 3.1341 7 6.9996 7h43.998c3.8661 0 6.9996-3.134 6.9996-7v-751c0-3.866-3.1341-7-6.9996-7z" fill="#000" fill-opacity="0" tb:tag="clickArea"/><g transform="translate(0,916)" fill="#d12730" style="display: none;" tb:tag="critical">
  <rect width="84" height="84" rx="4" fill="#fff" style=""/>
  <rect width="84" height="84" rx="4" style=""/>
  <rect x="2" y="2" width="80" height="80" rx="2" stroke="#000" stroke-opacity=".87" stroke-width="4" style=""/>
  <path d="m44.559 27.562-0.4688 20.059h-4.0234l-0.4883-20.059zm-5.1172 26.211c0-0.7161 0.2344-1.3151 0.7031-1.7968 0.4818-0.4948 1.1459-0.7422 1.9922-0.7422 0.8334 0 1.4909 0.2474 1.9727 0.7422 0.4817 0.4817 0.7226 1.0807 0.7226 1.7968 0 0.6901-0.2409 1.2826-0.7226 1.7774-0.4818 0.4818-1.1393 0.7226-1.9727 0.7226-0.8463 0-1.5104-0.2408-1.9922-0.7226-0.4687-0.4948-0.7031-1.0873-0.7031-1.7774z" fill="#000" fill-opacity=".87" style=""/>
 </g><g transform="translate(0 916)" fill="#faa405" style="display: none;" tb:tag="warning">
  <path d="m38.422 7.1554c1.4741-2.9482 5.6813-2.9482 7.1554 0l35.528 71.056c1.3298 2.6596-0.6042 5.7889-3.5777 5.7889h-71.056c-2.9735 0-4.9075-3.1292-3.5777-5.7889z" fill="#fff" style=""/>
  <path d="m38.422 7.1554c1.4741-2.9482 5.6813-2.9482 7.1554 0l35.528 71.056c1.3298 2.6596-0.6042 5.7889-3.5777 5.7889h-71.056c-2.9735 0-4.9075-3.1292-3.5777-5.7889z" style=""/>
  <path d="m40.211 8.0498c0.7371-1.4741 2.8407-1.4741 3.5778-1e-5l35.528 71.056c0.6649 1.3298-0.3021 2.8944-1.7888 2.8944h-71.056c-1.4868 0-2.4538-1.5646-1.7889-2.8944z" stroke="#000" stroke-opacity=".87" stroke-width="4" style=""/>
  <path d="m44.559 37.562-0.4688 20.059h-4.0234l-0.4883-20.059zm-5.1172 26.211c0-0.7161 0.2344-1.3151 0.7031-1.7968 0.4818-0.4948 1.1459-0.7422 1.9922-0.7422 0.8334 0 1.4909 0.2474 1.9727 0.7422 0.4817 0.4817 0.7226 1.0807 0.7226 1.7968 0 0.6901-0.2409 1.2826-0.7226 1.7774-0.4818 0.4818-1.1393 0.7226-1.9727 0.7226-0.8463 0-1.5104-0.2408-1.9922-0.7226-0.4687-0.4948-0.7031-1.0873-0.7031-1.7774z" fill="#000" fill-opacity=".87" style=""/>
 </g>
</svg>